<svg xmlns="http://www.w3.org/2000/svg" viewBox="0 0 280 510"><path d="M102.65 10c-.38 0-.62.46-.65 1.7 3.92 3.17-1 2-3.16 2.31-1.94-.11-2.2-1.82-5.17-1.08-3.25 3.41-7 4.05-11.26 3.39-.85-4.73-1.55 2.6-4.16-.12-1.17 2.27-2.63.35-3.65 2.27-.07.11-4.65-1.27-5.89 2.16-.56 2.78-3.14 4.24-1.17.39 4.89-3.34-5.9-8.35-4.35-3.31-2.52 1.59-3.12 5.31-5.44 5.95 1.46-3 5.28-6.72.56-7.91-1.52-3.41-.27-.12-2.07.61-.58-2.94-3.92-2.85-6.19-3.91-.57 1.36 0 3.06-.71 4.41-2.93 2-3.55 5.71.25 6.31 2.72 2.63-2.82-.58-2.44 2.26-.65.34 4.45 3.07.32 1.59-2.19-2.48-3.2 4.77-1.78 4.54-1.63 2.53 6.42 4.48 5.61 4.5.46 2.16-.5.12-2.33.08-2.34-2.12-3.2.7-5.39.11-2.56 2.42-5-1.38-6.26.34 1.89 2 2.34 5.27 5.12 5.91-1.3 1.23-.2 1.34-1.16 2.19 2.4 3.07-1.88 2-3.13 2.69-1.14-3.49-4.73-1.36-1.9 1 1.58 1.76 4.49 4.6 7.59 5.9-1.58 2.26 1 3.36 3.08 5.05 1.59 4.12 0 .51-2-.53-1.58-2.8-4.83-.8-5.84-3.32-3.92-.26.14 2.12 1.77 3.54 4.46 2.18-1 1.76-2.23-.76-3.71-3.61-2.22 5-6 1.21 0-2.88-3.37-4.66-3.58-.95.85 1.59 3.34 5.14 1.52 5.84-.42.89-1.1 1.89-2.06-1 0-4-1.81-3.89-4.91-3.52.53 2.73-1.2 8.58 3.4 8.37 2.89 3.38-2 .2-2.44 2.49-2.73 3 1.92 3.22 1.95 6.24 1.58 1.08 1.34 2.33 4.85 1.78 4.81 1.89-3.84.21-2.23 2.17-1.51.29-1.92-2.87-3.38-2-3-5-4.52 2.66-3.73 6.06 2.43.1 1.66 2.16 1.66 3.56-.8 4.41 4.76 1.28 6.37-.78-2 4.3 3.57 2.21 5.12-.78 1.21 1.68-4.16 5.05-6.82 4.77-4.73 3.1 1.16 4.29 4 3.6 1.12 1.35 5 3 4.64 3.5-3.09-.19-4.28-4.37-7.53-1.76.25 2.07-.43 3.29-1.73 5.49 1.92 1 4.61 1.55 5.52 3.33 4.36-1.26.86 1.22-1.44.24-2.23-4.3-9.73.93-6.11 3.74 3.38-1.93 1.28 3.69 4.92 2.62 4.72-1.64.12 1.13-2 .77-1.74-1.7-5.52-3.84-6 .29-1.21 1.8-.17 4.14-1.12 4.49-4.13 1.43 3 .77 4.84.66-3.69 1.11.42 3.2 1.45.45 1.4 2.58-5.57 1.41-5.62 3.88 3.53.93 2 2.83-.25 2.32-.47.08-.94 2.72-2.89.11-2.88.9-7.14.19-9 2.65-.48 4.53 6.42 2 8.77 2.9 2.94 1.73 5.11-1.73 7.81-1.49 1.58 2.1 8.11.14 2.85 1.78-3.07-1.59-5.51-.81-7.9 1.61-5.56-2-4.4 3.79-.73 5.94 3.54.75 4 .89 6.45 2.75 4.25.31 6.42-7.41 9.72-8.35 1.26-3.06 4.06-3.05 5-5.59.09-1 4.76-6.05 3.75-3.7-2 2.55-5.74 6.77-.13 6.81 4.11-2.35.54 1.58-1.79 0-3.91.19-3.37 2.62-5.37 4.26-1.66 1.88-2.67 6.41.87 4.31 4.24-2.09 1 .62-1.14 1.46-2.48-2.4-4.33 4.42-2.28 1.14.6 1.09 1.58 2.54 3.49 2.16 5.63.84-2.36.32-3.68.31-1.91 3.84-5.11 6.56-5 11.34.33 2.13 2.12 2.54.14 4.92-2.07 4.64.59 1.86 2.11-.58 1.14 1.06-2.67 4.64-.28 5.89-3-.8-3.52 3.89-5.49 6.15-.41 4.64 1 0 2.27-1.65 3-4.49 1.36 1.4-1.36 3.74-2 3.64 1.12 3.34 2.74.71.55.91-4.7 5.6-1.91 8.26 1.87 3.2 4.3-1.08 6.1-3.3-.24 3-5 5.69-6.28 9.22s-2.48 8.26-2 12.64c-1 3.13-4.47 5.26-3.34 9.37 3.29 1.93 11.2-.8 9.32-5.56-2.64-1.52-.24-2.29.38-4.71.31-2.45 2.17-5.27 1.48-6.82-1.36-3.88 2.21-8.38 5.15-10.52-2.16-4.74-4.52-8.36-4.28-13.71.85 1.48 3.55 0 4.31-2.32 1.1-4.49 6.94-4.85 7.7-9.32.64-.23 5.36-3.68 4.42-1.78-4.11 1.13-3.68 5.49-7.24 6.71-2.73 2.44-6 6.48-6 10.16a5.9 5.9 0 0 0 4.68 7.53c-1.33-2.77-.33-4.77.36-7.6.18 1.15 5.43 5.81 3.3.66 1.21-3.25.57 5.13 2.74 5.39 2.33-1.1 3.27-6.67 2.78-7.73 1.58-.19 1.36-5.46.54-7.27.35-5.58.23 4 2.29-.2.51.5-2.93 5.54-.21 7.68 4.72 1.37.4-2.14.23-4.28 2.06 1.76 5.46 7.11 10 7.26 2.67 1.28-4.42-.22-6-.25-5-4-7.26 3.32-6 7.59 3.61 3-3.16 6.18 1.58 7.8.76 3 6.64 2.61 5.88 6.9.21.7 3 3.62 1 6.05-4.06.51-4 4.69-6.43 6.95.77 5.39-4.11 8.07-5.91 12.11-2.42 3.93-.85 8 1.09 11.36-4.18 2-1.08-7-5.21-5.41-3.86 4.28 1.49 10.68 4.35 13.83 2.92 1.85.11 6.43 4.4 7.39.82-.73-.2-3.81-1.37-5.59-2.13-3.22-1.31-6.14 2.69-7.36 1.81 1 4.46 3.24 6.93 4.29 2.47 2.21 4.09 5.86 8.06 5.92 2-1.23-.62-5.17 1-6.11-1-2-4.24-4.08-1.71-6.54.69 0 1.82 4.26 4.57 3.66 2.58-3.5.81 1.42 2.6 2.42 2.62 3 2.84.36 3.91-2.28-1.06 3.1 1.73 5.43 4.31 2.79 3.66-1.53 1.82-2.69 3.1-4.86-.15.58 1.38 1.88 3.73-.25 3.18.59 5.48-.44 4.51-4s1.16-.75 2-2.1c3.82-.27 10.16 2.48 15 .17 4.22-.39-3.24 2.36.44 1.72-.5 3.8-6.24-2.08-8.05 2 1.88.83.7 3.47-1.36 1.78-1.44-.41-4.09 4.71-3.64 7.08-4.25 3.48-3.77 9.2-6 13.44 1.06 4.61 8 8.41 7.2 13.87.79 2.24 4.48 6.86 5.34 3.16 1-6.14 1.84 2.54-.05 3-.3 2.29.7 3.55 2.44 5 .4.52 2.37-2.5 3.3-4.44.84-4.07 1.6-.31 3.49.09.66-1.13 5.54-4.06 3.55-1.82 2.69 3.49.51 5.45-2 8-.05 3 2.49 1.5 1.57 3.91 1.09 1.68-3.31 1.73-5.5 2.19-2.07 4.83-1.79 14.09 5.79 10.52-2.12 1.87-7 5.16-8.3 9.69 2.21 3.69 2.5 9 6.49 11.42 1.5 3.12 6.67-1.13 5 1.95-3.4 5.25-8.35-2.16-8.82-6-6.91-.64-4.85 4.93-1.86 8 1.72 4.3-1.75 1.33-3.66-.52-4.91-7.09-10.73 1.75-16.66.12-1.63-1.13-7.4-4.26-4.15-.35-2.43 1.25-7.25 3.86-10.81 4-1.62 1.57-4 6.32-5.32 5.84 0 3.19-2.16 6.28-5.09 8.38-3.92 2.07-7.35 4.75-8.89 9.07 1.13 1 1.89-1 3.56-.58 2.14-2.73 3.78 2.18 5.18.64-.59-4.54 5.48-6.52 9.69-6.23 4.42 1.26-.08 5.73 3 7.78.59 2.86 3.24 1.64 3.41 1.93-3.26 1.67-6 7.59-1.45 9.81 3.36-1.6 3.39.57.19 1.1-1.67 1-1.23 6.91-3 9.63-1.93 5-7 6.46-10.52 9.27-1.29 3-6.74.26-7.8 2.69-1.46-.06-2.2 3.24-4.66 3.67.53 3.24-2.91 0-3.59 2.2-.88-.2-5.26-2.68-4.39.86-1.21 2.4-5.41 2.73-7 4.48-1.73 3.88 3.63.06 5.67 2.75 1.5 3.32-.13 4.47-2.5 5.72-2.77.36.56 1.36 1 3.05 0-3.62 4.59.1 7.16-1.38 5.31-.86-1.94 1.8-3 1.25-.93.41-4.16 0-.56 1.44 0 2.08 2.58 3.55 4.64 2.69 1.42-3 5-1 6.86-2.74-.21-4.86 5.36-3.64 8.87-4.28-1.5-3.22.77.13 1.75-1.93-.13 1.11 3.61 3.85.46 2.64-1 1.95 3.28 3.65 5.42 2.45 1.26 2.66 5.67-1.23 3.67 1.74-3 2.51-5-.78-6.79 2-.33 2.45 1.44 4.3 3.79 3.45 1.65-1.62 4.51-.77 6.49-.91-2.69-2.72 3.69-3.85 4.61-2.59 3 1.56 2 7.66 5.52 7 3.58 5.27 10.9 5.92 16.1 3.59-.53-3.67 3.68-5.06 5.91-7.69 1.58 1.53 5.63 0 8.18-1.35 3.73-2.35 5.9-7.58 10.15-9 1.27-2.32 2.29.08-.15.66-3.9 3.06-6.41 8.23-9.17 12.46-3.65.15-6 5.61-8.22 6.33-.17 2.87-2.09 2.37-1.54 5 1.45 3.26-1 5.3-4.3 4.29a11.27 11.27 0 0 1-11.79-.82c-3.18.44-6.72-.91-10.12-.24-3.71.69-11.53-.35-12.59 2.92-2.77 1.71 1.9 4.74-1.48 7-2.22 4.45-5.94.35-8.95.82 0 1.72 0 3.5-1 5 1.32 4.9-1 8.22-4 11.26-3.61.57-1.33 6.32-6 5.73-2.48-.38-1.39 1.08-2.56 1.6-2.91-.7-2.8 3.59-3.62 6.72-4-.17-2 3.63-5 5.16-1.61 3.11-5.66 3.55-7.12 6.36-2.63-2.08-5.22.75-8.26 1.85-1.09 1.56-1.73 4.85-.16 6 5 2.09 3.62-5.94 7.62-3.82 4.92.28 5.92 4.62 7.92 7.84.73-.56 2-2.89 3.81-2.92 3.27-2.37-2.64-3.76.13-4.87 1.82-1.78 0-2.88 1.78-5 .3 0 .79 3.18.69 3.61 1.27-2.12 2.55-2.76 4.26-4 3.22.21 3.2-2.17 3.78-4.4.54-2.91 2.88-.09 3.7-.8 4.51 1.19 7.71-2.87 12.24-1.2 1.49 3.29 4.78.07 1.57-.61 3.78-1.41 3.61 4.89 7.66 2.94 3.13-1.32 4.13 4.84 6.74 4.11 2.69 1.29 4.71-.17 4.58-3.39 2.22-1.38 1.79-3.6 3.62-2.59 2.54-2.89-.48-2.48-.67-5.34 3.62-.3-.36-3.71 2.61-5.79 2.3-1.35-1.3-8.38 1.26-4.29 1.61 5 4.69-2.14 7.61-2.13 5 .73 9.5-4.16 14.33-.77 3.67 2.54 10.59 5 9.66 9.94.55-.43.5-1.33 1.14-1.74-1.65-2-1-6.16 3-4.49 4.59-.21 7.83 2.51 11.9 1.95 1.74-1.76 1.23-2.8.88-4.31-2.52.16-2.63-1.44-4.05-.74-1.62-.57 1.6-1.66 3.22-1.43.8 3.83 3.68-2.12 6.71.15.31-.27.61-1.93 3.2-1.37 3.28 2.31 4.24-.36 7.22-1.7 5 .26 4.26-4.11 1-5.94-4.72-2.6 1.47-.61 2.73 1.54 2.09.65 5.25 5.76 6.58 2.67-2-2.05-.78-2.59 1.56-1.81-2.79 2.05 1.12 4.82 1.22.58 3-2.81.08 3.36 1 2.58 3.08 1.5.65-5.76 2.46-2.37-.27.16 3.61-.18 1 1.69-1.91 1 5.56 5.36 4.58 1.79 1.26-1 8.18-1.7 11.64-2.45 7.25-3.31 14.31 1.92 21.14 3.28 2.61-5 8.42-5 13.28-6.72 2.37-4.07 6.18-3.19 10-2.25-1.33-4.81 3.29-8.77 7.71-9.08 3.77-.81 8.31-4 6.25-8.84-2.55-3.56 2.4-3.29 1.68-6.88-1.09-.49-2.43.07-3.56.19-6.08-.55-11.68 3.76-17.49 1.44 2.11.6 7.17-1 2.39-3.27-2.32-1.28-4.82-.85-4.93.35-.76.06-.87 2.77-3.26 1.46-3.93.79-.4-3.46 2.11-2.46 3.19-1.88-4.12-3.14-5.93-2.55-.79.39-4.8 3.26-3.14 1.37 1.15-3.54 5.48-2.12 7.51-3.79 3 .62 6.65.33 8.79-2.8 3.07-2.38-1-1.4-1.59-1.12-3.56-2.38 1.24.27 2.39-2.2 2.26-3.42-.58-6.57-3.7-3.69-1.21.61-3.09.76-3.16-.9 4.24 1 4.81-3.67 8.64-3.75 2 3.59 7 1.26 9-1.77 2.14-3.57-.69-.12-2.2-1.83 1.31-1.48 4.81-4.33.22-3.56-3.86.51-2.63-1.64.26-.56 4.06 1.35-.68-3.92 2.13-1.36 1.4 5.26 4.81-1 6-3.53 4.19-.46 5.4-5.35 5.19-9.28.83-5.11 4.35-9.64 4.5-14.64-.64-6.74-1.09-14.82-8.3-18.2-3.89-4.94-10.14-5-15.5-7-3.37-.92-.29.47-1.21.77a58.55 58.55 0 0 0-11.51-.48c-4-1.42-6.08 2.85-6.62 6.63-1.94 1.77-1.43 5.43-3.6 2-4.71 2-5.16-7.25-10.24-4.2.57-2.21 4.06-5.22 6.15-8 3.92-2.36 6.32-5.92 4.58-10.61-2.1-6.43-3.76-13.16-10-15.61-2-3.66-5.79-3.83-8.3-7.46-.84-4.45-4.43-2.49-7.49-2.5-2.31 2.44-4.09-.58-5.89-.36-3.82 1.94-2.39-1.16.76-1.34 3.76 3.48 9.62-2.95 12.51 1.13 2.26 3.32 5.51 4.94 9.17 3.52 3.71-.26 1.34 5.49 2.85 3 .13-5.11-5.09-9-7.29-13.5-3.32-4.3-7.35-13.73.18-15.73-1.3-2.24-7.43-1.67-6.17-5.25-4.08-1.51-4.7-4.89-5.9-8.63-2.15-2.78-2.33-6.64-6.3-7.39-3.69-4.21-9.4-4-13.69-6.92-3.26-2.72-1.71 2.46-4.25.7 1.37-1.91-.49-3.47.75-5-5.23-2.47-5.45-9.19-6.18-14.15-1.8-3.95-3.78-7.19-4.88-11.31.75-3.32-2.62-5.94-1.38-9.37-1.52-2.56-1.09-5.21-1-8.25-1.05-3.34-.74-6.29-3.38-8.65-2.88-.65-1.87.06-2.84-2.22-.79.64-2.64.1-3.23-2.46-4.26-3.87-5.79-11-10-13.46-4.81 1.22-8.39-6.16-12.6-4.47.27-4.46-7.45-5.06-9.28-2.16.1 2.89-3.38 4.73-6.23 5-2.58-1.8-5.74-1.8-8.65-2.17-3.1-.2-6.85-1.65-10.42-1.65-4.94-.9 1.5-4.24 3.73-1.39 4 3.2 7-1.83 11.22-1.17.75-3.66 4.47-6.4 7.6-8.75 4 2.1 8.31.09 11.13-3.33 1.24-4.15-6.23-3-7.25-5.88-.44-.22 2.14-5.37-1.66-5.14-3.72 1-7.39 3.92-11.28 5.55-3.16 1-4.41-.6-.55-.61a13.65 13.65 0 0 1 11.71-5.52c2.21-1.67 5 1.12 5.49-2.22 2.6-2.16 8.32-4.68 6.72-8.4 2.34-2.17 2.1-3.5 2.83-6.66 2.62-1.81 6.57-5.45 7.62-9.7-1.42-4.92 4.57-8.48 3.81-12.93-1.63-7.08 6-13.75 8.3-18 2.51-1.48-.29-3.31 1.41-3.86-2.17-1.69-1.25-5.73-2.46-7.08-2.34-3.06-4.56-4.65-8.37-4.64-2.11 2-4.87.65-7.05.65-3.66 2.39-9.29-.37-13.55-.15-3.08-1.29-5.78-1.42-8.39.72-6 1-12.75-6.73-17.32-.1-3.48.66-7 1-9.48 4.24-1.85 1.91-10.56-.76-7.39 2-1.9 1.75-3.86 5.7-6.87 4.26 3.07-2-2.14-3.89 1.5-3 1-1.53 3.16-1.52 3.46-3.59 1.74-2.16 4.51-6 0-3.45-3.25-1.06-6.23.11-8.72 3.68-3.23 4-2.63-.28.4-1.82 1.08-3.89 5.16-2 7.44-4.74 2.08-2.33 3.88-1.24 3.3 1.61 3-2.06 5.24-6 7.48-9.26.84-4.17-1.34.85-2.89.94-3.42 1.27-.49 0-2.54-1-2.39 1.5-6.57 1.2-8-1.4 2.38.85 6.28.65 6.57-2-.67-2.7.67-5.15 3.91-6.18 1.35-2.63 3.9-4.3 6.51-6.27 4.19-2.63 7.19-6.87 10-10.88 5.1-1.64 8.87-5.08 10.27-10.19 2.75-3.21-.72-1.9-2.21-3-1-3.65 3.59-6.26 3.56-9.73-2-1.07-5 .2-7.22-.89-1.87 1.64-3.77-.92-4.74-.86z"/></svg>