<svg viewBox="0 0 340 360" xmlns="http://www.w3.org/2000/svg">
    <g class="grid" fill="none" opacity=".2" stroke="#000" stroke-miterlimit="10"><path d="m4.5 0v190"/><path d="m14.5 0v190"/><path d="m24.5 0v190"/><path d="m34.5 0v190"/><path d="m44.5 0v190"/><path d="m54.5 0v190"/><path d="m64.5 0v190"/><path d="m74.5 0v190"/><path d="m84.5 0v190"/><path d="m94.5 0v190"/><path d="m104.5 0v190"/><path d="m0 4.5h110"/><path d="m0 14.5h110"/><path d="m0 24.5h110"/><path d="m0 34.5h110"/><path d="m0 44.5h110"/><path d="m0 54.5h110"/><path d="m0 64.5h110"/><path d="m0 74.5h110"/><path d="m0 84.5h110"/><path d="m0 94.5h110"/><path d="m0 104.5h110"/><path d="m0 114.5h110"/><path d="m0 124.5h110"/><path d="m0 134.5h110"/><path d="m0 144.5h110"/><path d="m0 154.5h110"/><path d="m0 164.5h110"/><path d="m0 174.5h110"/><path d="m0 184.5h110"/></g>
    <g class="cells" fill="#fd8c00" opacity=".7"><path d="m5 25h9v9h-9z"/><path d="m5 15h9v9h-9z"/><path d="m15 25h9v9h-9z"/><path d="m15 35h9v9h-9z"/><path d="m15 15h9v9h-9z"/><path d="m15 5h9v9h-9z"/><path d="m25 5h9v9h-9z"/><path d="m25 15h9v9h-9z"/><path d="m35 5h9v9h-9z"/><path d="m35 15h9v9h-9z"/><path d="m45 5h9v9h-9z"/><path d="m25 25h9v9h-9z"/><path d="m45 45h9v9h-9z"/><path d="m55 45h9v9h-9z"/><path d="m35 55h9v9h-9z"/><path d="m45 55h9v9h-9z"/><path d="m35 25h9v9h-9z"/><path d="m45 25h9v9h-9z"/><path d="m55 25h9v9h-9z"/><path d="m55 35h9v9h-9z"/><path d="m5 35h9v9h-9z"/><path d="m15 45h9v9h-9z"/><path d="m5 45h9v9h-9z"/><path d="m15 55h9v9h-9z"/><path d="m5 55h9v9h-9z"/><path d="m15 65h9v9h-9z"/><path d="m25 65h9v9h-9z"/><path d="m5 65h9v9h-9z"/><path d="m15 75h9v9h-9z"/><path d="m25 75h9v9h-9z"/><path d="m5 75h9v9h-9z"/><path d="m25 85h9v9h-9z"/><path d="m35 85h9v9h-9z"/><path d="m45 85h9v9h-9z"/><path d="m35 95h9v9h-9z"/><path d="m45 95h9v9h-9z"/><path d="m35 105h9v9h-9z"/><path d="m45 105h9v9h-9z"/><path d="m35 115h9v9h-9z"/><path d="m25 115h9v9h-9z"/><path d="m25 125h9v9h-9z"/><path d="m15 125h9v9h-9z"/><path d="m25 135h9v9h-9z"/><path d="m15 135h9v9h-9z"/><path d="m25 145h9v9h-9z"/><path d="m15 145h9v9h-9z"/><path d="m45 145h9v9h-9z"/><path d="m35 145h9v9h-9z"/><path d="m25 155h9v9h-9z"/><path d="m45 155h9v9h-9z"/><path d="m35 155h9v9h-9z"/><path d="m15 165h9v9h-9z"/><path d="m35 165h9v9h-9z"/><path d="m25 165h9v9h-9z"/><path d="m5 175h9v9h-9z"/><path d="m25 175h9v9h-9z"/><path d="m35 175h9v9h-9z"/><path d="m15 175h9v9h-9z"/><path d="m45 165h9v9h-9z"/><path d="m85 145h9v9h-9z"/><path d="m85 155h9v9h-9z"/><path d="m85 165h9v9h-9z"/><path d="m95 135h9v9h-9z"/><path d="m85 135h9v9h-9z"/><path d="m95 125h9v9h-9z"/><path d="m85 125h9v9h-9z"/><path d="m75 115h9v9h-9z"/><path d="m75 125h9v9h-9z"/><path d="m75 105h9v9h-9z"/><path d="m75 95h9v9h-9z"/><path d="m65 95h9v9h-9z"/><path d="m65 105h9v9h-9z"/><path d="m65 85h9v9h-9z"/><path d="m55 85h9v9h-9z"/><path d="m55 75h9v9h-9z"/><path d="m55 65h9v9h-9z"/><path d="m45 65h9v9h-9z"/><path d="m35 65h9v9h-9z"/><path d="m95 145h9v9h-9z"/><path d="m95 155h9v9h-9z"/><path d="m65 165h9v9h-9z"/><path d="m75 165h9v9h-9z"/><path d="m75 155h9v9h-9z"/><path d="m75 145h9v9h-9z"/><path d="m55 165h9v9h-9z"/><path d="m55 155h9v9h-9z"/><path d="m45 115h9v9h-9z"/><path d="m15 85h9v9h-9z"/></g>
    <g class="cells" fill="#fd8c00" opacity=".7"><path d="m205 25h9v9h-9z"/><path d="m205 15h9v9h-9z"/><path d="m215 15h9v9h-9z"/><path d="m155 25h9v9h-9z"/><path d="m165 35h9v9h-9z"/><path d="m155 35h9v9h-9z"/><path d="m215 5h9v9h-9z"/><path d="m205 5h9v9h-9z"/><path d="m165 5h9v9h-9z"/><path d="m165 15h9v9h-9z"/><path d="m175 5h9v9h-9z"/><path d="m175 15h9v9h-9z"/><path d="m185 5h9v9h-9z"/><path d="m185 15h9v9h-9z"/><path d="m165 25h9v9h-9z"/><path d="m185 45h9v9h-9z"/><path d="m185 35h9v9h-9z"/><path d="m195 45h9v9h-9z"/><path d="m205 45h9v9h-9z"/><path d="m185 55h9v9h-9z"/><path d="m175 25h9v9h-9z"/><path d="m195 5h9v9h-9z"/><path d="m195 25h9v9h-9z"/><path d="m195 35h9v9h-9z"/><path d="m155 45h9v9h-9z"/><path d="m145 95h9v9h-9z"/><path d="m155 55h9v9h-9z"/><path d="m155 65h9v9h-9z"/><path d="m165 65h9v9h-9z"/><path d="m165 55h9v9h-9z"/><path d="m145 85h9v9h-9z"/><path d="m155 75h9v9h-9z"/><path d="m165 75h9v9h-9z"/><path d="m145 75h9v9h-9z"/><path d="m165 85h9v9h-9z"/><path d="m155 95h9v9h-9z"/><path d="m165 95h9v9h-9z"/><path d="m175 105h9v9h-9z"/><path d="m165 105h9v9h-9z"/><path d="m155 105h9v9h-9z"/><path d="m155 115h9v9h-9z"/><path d="m175 115h9v9h-9z"/><path d="m165 115h9v9h-9z"/><path d="m165 125h9v9h-9z"/><path d="m155 125h9v9h-9z"/><path d="m165 135h9v9h-9z"/><path d="m175 125h9v9h-9z"/><path d="m155 135h9v9h-9z"/><path d="m155 145h9v9h-9z"/><path d="m175 145h9v9h-9z"/><path d="m175 135h9v9h-9z"/><path d="m185 135h9v9h-9z"/><path d="m165 155h9v9h-9z"/><path d="m175 155h9v9h-9z"/><path d="m175 165h9v9h-9z"/><path d="m165 165h9v9h-9z"/><path d="m175 175h9v9h-9z"/><path d="m185 165h9v9h-9z"/><path d="m245 135h9v9h-9z"/><path d="m245 145h9v9h-9z"/><path d="m255 145h9v9h-9z"/><path d="m255 135h9v9h-9z"/><path d="m255 155h9v9h-9z"/><path d="m255 165h9v9h-9z"/><path d="m255 175h9v9h-9z"/><path d="m265 175h9v9h-9z"/><path d="m275 185h9v9h-9z"/><path d="m275 175h9v9h-9z"/><path d="m285 195h9v9h-9z"/><path d="m285 185h9v9h-9z"/><path d="m285 215h9v9h-9z"/><path d="m285 205h9v9h-9z"/><path d="m295 225h9v9h-9z"/><path d="m295 215h9v9h-9z"/><path d="m295 245h9v9h-9z"/><path d="m295 235h9v9h-9z"/><path d="m285 245h9v9h-9z"/><path d="m285 235h9v9h-9z"/><path d="m315 235h9v9h-9z"/><path d="m305 235h9v9h-9z"/><path d="m325 245h9v9h-9z"/><path d="m315 245h9v9h-9z"/><path d="m325 275h9v9h-9z"/><path d="m315 275h9v9h-9z"/><path d="m305 275h9v9h-9z"/><path d="m315 285h9v9h-9z"/><path d="m305 285h9v9h-9z"/><path d="m305 295h9v9h-9z"/><path d="m295 295h9v9h-9z"/><path d="m315 305h9v9h-9z"/><path d="m305 305h9v9h-9z"/><path d="m305 315h9v9h-9z"/><path d="m315 295h9v9h-9z"/><path d="m295 315h9v9h-9z"/><path d="m325 255h9v9h-9z"/><path d="m325 265h9v9h-9z"/><path d="m275 215h9v9h-9z"/><path d="m275 205h9v9h-9z"/><path d="m265 205h9v9h-9z"/><path d="m245 125h9v9h-9z"/><path d="m235 125h9v9h-9z"/><path d="m235 115h9v9h-9z"/><path d="m225 115h9v9h-9z"/><path d="m225 105h9v9h-9z"/><path d="m205 115h9v9h-9z"/><path d="m215 115h9v9h-9z"/><path d="m215 105h9v9h-9z"/><path d="m215 95h9v9h-9z"/><path d="m225 95h9v9h-9z"/><path d="m205 105h9v9h-9z"/><path d="m235 85h9v9h-9z"/><path d="m225 85h9v9h-9z"/><path d="m215 45h9v9h-9z"/><path d="m195 55h9v9h-9z"/><path d="m245 55h9v9h-9z"/><path d="m245 65h9v9h-9z"/><path d="m235 65h9v9h-9z"/><path d="m235 75h9v9h-9z"/><path d="m225 45h9v9h-9z"/><path d="m245 45h9v9h-9z"/><path d="m235 45h9v9h-9z"/><path d="m205 165h9v9h-9z"/><path d="m215 165h9v9h-9z"/><path d="m215 155h9v9h-9z"/><path d="m195 165h9v9h-9z"/><path d="m205 155h9v9h-9z"/><path d="m205 185h9v9h-9z"/><path d="m205 175h9v9h-9z"/><path d="m215 195h9v9h-9z"/><path d="m215 185h9v9h-9z"/><path d="m225 195h9v9h-9z"/><path d="m225 185h9v9h-9z"/><path d="m215 215h9v9h-9z"/><path d="m215 205h9v9h-9z"/><path d="m175 245h9v9h-9z"/><path d="m175 235h9v9h-9z"/><path d="m185 235h9v9h-9z"/><path d="m185 225h9v9h-9z"/><path d="m195 255h9v9h-9z"/><path d="m195 235h9v9h-9z"/><path d="m195 245h9v9h-9z"/><path d="m185 245h9v9h-9z"/><path d="m175 265h9v9h-9z"/><path d="m195 265h9v9h-9z"/><path d="m185 265h9v9h-9z"/><path d="m165 275h9v9h-9z"/><path d="m175 275h9v9h-9z"/><path d="m165 285h9v9h-9z"/><path d="m185 285h9v9h-9z"/><path d="m175 285h9v9h-9z"/><path d="m185 295h9v9h-9z"/><path d="m205 295h9v9h-9z"/><path d="m195 295h9v9h-9z"/><path d="m185 305h9v9h-9z"/><path d="m205 305h9v9h-9z"/><path d="m195 305h9v9h-9z"/><path d="m205 325h9v9h-9z"/><path d="m215 325h9v9h-9z"/><path d="m205 335h9v9h-9z"/><path d="m225 325h9v9h-9z"/><path d="m215 315h9v9h-9z"/><path d="m225 315h9v9h-9z"/><path d="m235 325h9v9h-9z"/><path d="m245 325h9v9h-9z"/><path d="m245 315h9v9h-9z"/><path d="m255 325h9v9h-9z"/><path d="m265 325h9v9h-9z"/><path d="m255 315h9v9h-9z"/><path d="m265 315h9v9h-9z"/><path d="m275 315h9v9h-9z"/><path d="m285 315h9v9h-9z"/><path d="m185 315h9v9h-9z"/><path d="m175 315h9v9h-9z"/><path d="m165 325h9v9h-9z"/><path d="m175 325h9v9h-9z"/><path d="m195 285h9v9h-9z"/><path d="m215 295h9v9h-9z"/><path d="m225 295h9v9h-9z"/><path d="m155 335h9v9h-9z"/><path d="m175 335h9v9h-9z"/><path d="m165 335h9v9h-9z"/><path d="m155 345h9v9h-9z"/><path d="m175 345h9v9h-9z"/><path d="m165 345h9v9h-9z"/><path d="m185 335h9v9h-9z"/><path d="m195 335h9v9h-9z"/><path d="m215 305h9v9h-9z"/><path d="m225 285h9v9h-9z"/><path d="m215 285h9v9h-9z"/><path d="m235 285h9v9h-9z"/><path d="m195 225h9v9h-9z"/><path d="m205 225h9v9h-9z"/><path d="m215 225h9v9h-9z"/><path d="m225 225h9v9h-9z"/><path d="m225 205h9v9h-9z"/><path d="m185 115h9v9h-9z"/><path d="m155 85h9v9h-9z"/></g>
    <path class="coast" d="m40.26 7c-.14 0-.22.17-.24.61 1.41 1.14-.35.72-1.13.83s-.79-.65-1.89-.39a4.2 4.2 0 0 1 -4 1.22c-.3-1.7-.55.93-1.49 0-.42.81-.94.12-1.31.81 0 0-1.67-.46-2.11.78-.21 1-1.13 1.52-.42.14 1.75-1.2-2.12-3-1.57-1.19-.9.57-1.12 1.9-1.95 2.13.53-1.07 1.9-2.41.2-2.84-.54-1.22-.09 0-.74.22-.21-1-1.41-1-2.22-1.4-.21.49 0 1.1-.26 1.58-1.05.72-1.27 2 .09 2.27 1 .94-1-.21-.87.81-.24.12 1.59 1.1.11.57-.78-.89-1.15 1.71-.64 1.63-.58.91 2.31 1.61 2 1.61.16.78-.18 0-.84 0-.84-.76-1.15.25-1.94 0-.91.87-1.79-.49-2.24.12.68.72.84 1.9 1.84 2.13-.47.44-.08.48-.42.78.86 1.1-.68.72-1.12 1-.41-1.25-1.7-.49-.69.36a8.58 8.58 0 0 0 2.73 2.11c-.57.82.36 1.21 1.1 1.82.57 1.48 0 .18-.71-.19-.57-1-1.74-.29-2.1-1.19-1.41-.1 0 .76.64 1.27 1.6.78-.36.63-.81-.28-1.33-1.29-.79 1.8-2.15.44 0-1-1.21-1.68-1.28-.34.3.57 1.19 1.84.54 2.09-.15.32-.39.68-.74-.36 0-1.43-.65-1.39-1.76-1.26.19 1-.43 3.08 1.22 3 1 1.22-.72.08-.88.9-1 1.08.69 1.15.7 2.24.57.39.49.83 1.74.64 1.73.68-1.37.07-.8.78-.54.1-.68-1-1.21-.72-1.08-1.8-1.62.95-1.34 2.17.87 0 .6.78.6 1.28-.29 1.58 1.71.46 2.28-.28-.71 1.55 1.29.79 1.84-.28.44.6-1.49 1.81-2.45 1.71-1.69 1.12.42 1.54 1.44 1.3.4.48 1.8 1.07 1.67 1.25-1.11-.07-1.54-1.57-2.71-.63a2.82 2.82 0 0 1 -.62 2c.69.36 1.66.56 2 1.2 1.57-.46.31.43-.51.08-.8-1.54-3.5.34-2.2 1.35 1.22-.7.46 1.32 1.77.94 1.69-.59 0 .4-.72.27-.62-.61-2-1.38-2.15.11-.44.64-.06 1.48-.4 1.61-1.49.51 1.07.27 1.73.23-1.32.4.15 1.15.52.17.51.92-2 .5-2 1.39 1.26.33.71 1-.09.83-.17 0-.34 1-1 0-1 .32-2.56.07-3.23 1h-.07c-.17 1.63 2.3.72 3.15 1 1.05.62 1.83-.62 2.8-.53.57.75 2.91.05 1 .64a2.18 2.18 0 0 0 -2.83.58c-2-.72-1.58 1.36-.26 2.13a4.19 4.19 0 0 1 2.31 1c1.53.12 2.3-2.66 3.49-3 .45-1.1 1.46-1.1 1.79-2 0-.36 1.71-2.17 1.35-1.33-.72.92-2.06 2.43 0 2.45 1.48-.85.2.56-.64 0-1.4.07-1.21.94-1.93 1.53s-.95 2.3.32 1.54c1.52-.75.35.23-.41.53-.89-.86-1.56 1.58-.82.41a1.16 1.16 0 0 0 1.25.77c2 .3-.85.12-1.32.11-.69 1.38-1.83 2.36-1.79 4.07.11.77.76.92.05 1.77-.75 1.67.21.67.75-.21.41.38-1 1.67-.1 2.12-1.07-.29-1.26 1.39-2 2.2-.15 1.67.36 0 .82-.59 1.07-1.61.48.5-.49 1.34-.72 1.31.4 1.2 1 .26.2.33-1.69 2-.68 3 .67 1.15 1.54-.38 2.19-1.18-.09 1.08-1.8 2-2.26 3.31a10.61 10.61 0 0 0 -.74 4.48c-.36 1.12-1.6 1.88-1.2 3.36 1.19.69 4-.29 3.35-2-.95-.54-.09-.82.14-1.69s.78-1.89.53-2.45c-.49-1.39.79-3 1.85-3.77-.78-1.7-1.63-3-1.54-4.92.31.53 1.27 0 1.55-.84.39-1.61 2.49-1.74 2.76-3.34.23-.08 1.93-1.32 1.59-.64-1.48.41-1.32 2-2.6 2.41-1 .87-2.15 2.32-2.15 3.65a2.11 2.11 0 0 0 1.41 2.64l.27.06c-.48-1-.12-1.71.12-2.73.07.41 1.95 2.09 1.19.24.43-1.17.2 1.84 1 1.93.84-.39 1.18-2.39 1-2.77.57-.07.49-2 .19-2.61.13-2 .09 1.43.83-.07.18.18-1.06 2-.08 2.75 1.7.49.14-.77.08-1.53.74.63 2 2.55 3.59 2.6 1 .46-1.58-.08-2.15-.09-1.8-1.43-2.61 1.19-2.15 2.73 1.29 1.07-1.14 2.22.56 2.8.28 1.07 2.39.93 2.11 2.47.08.26 1.08 1.3.36 2.18-1.46.18-1.43 1.68-2.31 2.49.28 1.93-1.47 2.9-2.12 4.35-.87 1.41-.3 2.87.39 4.07-1.5.72-.38-2.51-1.87-1.94-1.38 1.54.54 3.84 1.57 5 1 .66 0 2.31 1.57 2.65.3-.26-.07-1.37-.49-2a1.57 1.57 0 0 1 1-2.64 26.1 26.1 0 0 0 2.49 1.54c.88.79 1.46 2.1 2.89 2.13.72-.45-.22-1.86.36-2.2-.36-.71-1.52-1.46-.62-2.34.25 0 .66 1.52 1.64 1.31.93-1.26.3.51.94.87.94 1.07 1 .13 1.4-.82-.38 1.11.62 2 1.55 1 1.31-.55.65-1 1.11-1.74 0 .2.5.67 1.34-.09 1.14.21 2-.16 1.62-1.44s.42-.27.72-.75c1.37-.1 3.64.89 5.38.06 1.52-.14-1.16.85.16.62-.18 1.36-2.24-.75-2.89.71.67.3.25 1.25-.49.64-.52-.14-1.47 1.69-1.31 2.54-1.52 1.25-1.35 3.31-2.15 4.83.38 1.65 2.87 3 2.59 5 .28.8 1.6 2.46 1.91 1.13.36-2.2.66.91 0 1.08a1.85 1.85 0 0 0 .88 1.79c.14.19.85-.89 1.18-1.59.31-1.46.58-.11 1.26 0 .23-.4 2-1.46 1.27-.65 1 1.25.19 2-.72 2.87 0 1.08.9.54.57 1.4.39.61-1.19.62-2 .79-.74 1.73-.64 5.06 2.08 3.78-.76.67-2.51 1.85-3 3.47.8 1.33.9 3.23 2.33 4.1.54 1.12 2.4-.4 1.8.7-1.22 1.89-3-.77-3.17-2.15-2.48-.23-1.74 1.77-.67 2.87.62 1.54-.63.48-1.31-.19-1.76-2.54-3.85.63-6 0-.59-.41-2.66-1.53-1.49-.13a11.1 11.1 0 0 1 -3.88 1.44c-.58.56-1.44 2.27-1.91 2.09a3.94 3.94 0 0 1 -1.83 3 6.13 6.13 0 0 0 -3.19 3.26c.41.36.68-.36 1.28-.21.77-1 1.36.78 1.86.23-.21-1.63 2-2.34 3.48-2.24 1.58.45 0 2.06 1.07 2.8.22 1 1.17.58 1.23.69-1.17.6-2.16 2.72-.52 3.52 1.2-.58 1.21.2.07.39-.6.36-.45 2.48-1.08 3.46-.69 1.8-2.51 2.32-3.78 3.33-.46 1.08-2.42.09-2.8 1-.52 0-.79 1.17-1.67 1.32.19 1.16-1 0-1.29.79-.31-.07-1.89-1-1.57.31-.44.86-1.95 1-2.52 1.61-.62 1.39 1.31 0 2 1 .54 1.2 0 1.61-.9 2.06-1 .13.2.49.36 1.09 0-1.3 1.65 0 2.57-.49 1.91-.31-.7.64-1.08.45-.33.14-1.49 0-.2.51a1.21 1.21 0 0 0 1.67 1c.51-1.08 1.79-.36 2.46-1-.08-1.75 1.92-1.31 3.18-1.54-.53-1.16.28 0 .63-.69 0 .39 1.3 1.38.17.94-.36.7 1.17 1.31 1.94.88.45 1 2-.44 1.32.63-1.08.9-1.79-.28-2.44.72-.12.87.52 1.54 1.36 1.23.6-.58 1.62-.27 2.33-.32-1-1 1.33-1.38 1.66-.93 1.07.56.72 2.75 2 2.51 1.28 1.89 3.91 2.13 5.78 1.29-.19-1.32 1.32-1.82 2.12-2.76.57.55 2 0 2.94-.49 1.33-.84 2.11-2.72 3.64-3.23.45-.83.82 0 0 .24-1.4 1.1-2.31 3-3.3 4.47-1.31.06-2.15 2-3 2.27-.06 1-.75.86-.55 1.8.52 1.17-.36 1.9-1.54 1.54a4.08 4.08 0 0 1 -4.24-.29c-1.14.15-2.41-.33-3.63-.09s-4.14-.13-4.52 1c-1 .61.68 1.7-.53 2.51-.8 1.6-2.13.13-3.21.29a3.12 3.12 0 0 1 -.36 1.8c.47 1.76-.36 2.95-1.44 4-1.29.21-.47 2.27-2.15 2.06-.89-.14-.5.39-.92.57-1-.25-1 1.29-1.3 2.41-1.43-.06-.72 1.31-1.79 1.86-.58 1.11-2 1.27-2.56 2.28-.94-.75-1.87.27-3 .66-.39.56-.62 1.74-.06 2.16 1.79.75 1.3-2.14 2.73-1.37 1.77.1 2.13 1.65 2.85 2.81.26-.2.72-1 1.37-1.05 1.17-.85-.95-1.35 0-1.75.66-.64 0-1 .64-1.79a3.48 3.48 0 0 1 .25 1.29 4.24 4.24 0 0 1 1.53-1.43c1.15.07 1.15-.78 1.35-1.58.2-1 1 0 1.33-.29 1.62.43 2.77-1 4.4-.43.53 1.18 1.71 0 .56-.22 1.36-.5 1.3 1.76 2.75 1.06 1.12-.48 1.48 1.74 2.42 1.47 1 .47 1.69-.06 1.64-1.21.8-.5.65-1.3 1.3-.93.91-1-.17-.89-.24-1.92 1.3-.11-.13-1.33.94-2.08.82-.48-.47-3 .45-1.54.58 1.8 1.68-.77 2.73-.76 1.8.26 3.41-1.5 5.15-.28 1.31.91 3.8 1.8 3.46 3.57.2-.16.18-.48.41-.63-.59-.71-.36-2.21 1.08-1.61 1.65-.07 2.81.9 4.27.7.63-.63.44-1 .32-1.54-.91 0-.95-.52-1.46-.27-.58-.2.58-.6 1.16-.51.29 1.37 1.32-.76 2.41 0a.89.89 0 0 1 1.15-.49c1.17.83 1.52-.13 2.59-.61 1.79.09 1.53-1.48.36-2.13-1.7-.94.52-.22 1 .55.75.23 1.88 2.07 2.36 1-.72-.74-.28-.93.56-.65-1 .73.4 1.73.44.21 1.07-1 0 1.2.36.92 1.1.54.23-2.07.88-.85-.1.06 1.29-.06.36.61-.69.36 2 1.92 1.64.64.45-.36 2.94-.61 4.18-.88 2.6-1.19 5.14.69 7.59 1.18.93-1.8 3-1.8 4.76-2.41.86-1.46 2.22-1.15 3.59-.81-.47-1.73 1.19-3.15 2.77-3.26 1.35-.29 3-1.44 2.25-3.17-.92-1.28.86-1.18.6-2.47-.39-.18-.87 0-1.28.06-2.18-.19-4.19 1.35-6.28.52.76.22 2.58-.36.86-1.17-.83-.46-1.73-.31-1.77.12-.27 0-.31 1-1.17.53-1.41.28-.14-1.24.76-.89 1.14-.67-1.48-1.12-2.13-.91-.28.14-1.72 1.17-1.13.49.41-1.27 2-.76 2.7-1.36a2.92 2.92 0 0 0 3.15-1c1.1-.86-.36-.51-.57-.41-1.28-.85.45.1.86-.79.81-1.22-.21-2.35-1.33-1.32-.43.22-1.11.27-1.13-.32 1.52.36 1.72-1.32 3.1-1.35.72 1.29 2.51.45 3.23-.64.77-1.28-.25 0-.79-.65.47-.53 1.73-1.56.08-1.28-1.39.18-1-.59.09-.2 1.46.48-.24-1.41.77-.49.5 1.89 1.72-.36 2.15-1.27 1.5-.16 1.94-1.92 1.86-3.33.3-1.83 1.56-3.46 1.62-5.25-.23-2.42-.39-5.32-3-6.54-1.4-1.77-3.64-1.79-5.56-2.51-1.21-.33-.11.17-.44.28a21.13 21.13 0 0 0 -4.13-.17c-1.44-.51-2.18 1-2.38 2.38-.69.63-.51 1.95-1.29.71-1.69.72-1.85-2.6-3.67-1.5.2-.8 1.45-1.88 2.2-2.88 1.41-.84 2.27-2.12 1.65-3.8-.76-2.31-1.35-4.73-3.59-5.61-.72-1.31-2.08-1.37-3-2.67-.3-1.6-1.59-.9-2.69-.9-.83.87-1.47-.21-2.11-.13-1.38.7-.86-.42.27-.48 1.35 1.25 3.45-1.06 4.49.4a2.68 2.68 0 0 0 3.29 1.27c1.33-.1.48 2 1 1.07 0-1.83-1.82-3.23-2.61-4.84-1.19-1.55-2.64-4.93.06-5.65-.47-.8-2.67-.6-2.21-1.88-1.47-.55-1.69-1.76-2.12-3.1-.77-1-.84-2.38-2.26-2.65-1.15-1.49-3.24-1.38-4.78-2.43-1.17-1-.61.89-1.52.25.49-.68-.18-1.24.27-1.79-1.88-.89-2-3.3-2.22-5.08a24.87 24.87 0 0 1 -1.75-4.06c.27-1.19-.94-2.13-.5-3.36a5.16 5.16 0 0 1 -.36-3c-.37-1.2-.26-2.26-1.21-3.11-1-.23-.67 0-1-.8-.28.23-1 0-1.16-.88-1.53-1.39-2.08-4-3.59-4.83-1.73.44-3-2.21-4.52-1.61.1-1.6-2.68-1.81-3.33-.77 0 1-1.22 1.7-2.24 1.79a6.62 6.62 0 0 0 -3.1-.77c-1.12-.08-2.46-.6-3.74-.6-1.78-.32.53-1.52 1.33-.5 1.44 1.15 2.52-.65 4-.42.27-1.31 1.61-2.29 2.73-3.14 1.44.76 3 0 4-1.19.44-1.49-2.24-1.08-2.61-2.11-.15-.08.77-1.93-.59-1.85-1.34.36-2.66 1.41-4.05 2-1.14.36-1.58-.21-.2-.21a4.92 4.92 0 0 1 4.2-2c.8-.6 1.8.41 2-.79.94-.78 3-1.68 2.42-3 .84-.78.75-1.25 1-2.39a6.81 6.81 0 0 0 2.74-3.48c-.51-1.77 1.64-3 1.37-4.64-.59-2.54 2.15-4.94 3-6.46.91-.53-.1-1.19.51-1.39-.78-.61-.45-2.06-.88-2.54a3.47 3.47 0 0 0 -3-1.67c-.75.72-1.74.24-2.53.24-1.31.86-3.33-.13-4.86-.06a2.68 2.68 0 0 0 -3 .26c-2.16.36-4.58-2.41-6.22 0-1.25.23-2.51.36-3.4 1.52-.67.68-3.79-.27-2.66.72-.68.62-1.38 2-2.46 1.53 1.1-.72-.77-1.4.54-1.08.36-.55 1.13-.55 1.24-1.29.62-.78 1.62-2.15 0-1.24a2.64 2.64 0 0 0 -3.13 1.32c-1.16 1.44-.94-.1.14-.65.39-1.4 1.85-.72 2.67-1.7s1.4-.45 1.19.58a12.77 12.77 0 0 0 2.68-3.33c.3-1.49-.48.31-1 .34-1.23.46-.18 0-.92-.36a2.16 2.16 0 0 1 -2.87-.5c.86.3 2.26.23 2.36-.72a1.8 1.8 0 0 1 1.31-2.24 7.43 7.43 0 0 1 2.34-2.25 13.53 13.53 0 0 0 3.59-3.9 5.31 5.31 0 0 0 3.69-3.66c1-1.15-.26-.68-.8-1.08-.36-1.31 1.29-2.25 1.28-3.49-.72-.39-1.79.07-2.59-.32-.67.6-1.35-.3-1.7-.3z" fill="none" stroke="#cd0e66" stroke-linecap="round" stroke-linejoin="round" stroke-width="2"/>
    <g class="grid" fill="none" opacity=".2" stroke="#000" stroke-miterlimit="10"><path d="m164.5 0v360"/><path d="m174.5 0v360"/><path d="m184.5 0v360"/><path d="m194.5 0v360"/><path d="m204.5 0v360"/><path d="m214.5 0v360"/><path d="m224.5 0v360"/><path d="m234.5 0v360"/><path d="m244.5 0v360"/><path d="m254.5 0v360"/><path d="m264.5 0v360"/><path d="m274.5 0v360"/><path d="m284.5 0v360"/><path d="m294.5 0v360"/><path d="m304.5 0v360"/><path d="m314.5 0v360"/><path d="m324.5 0v360"/><path d="m334.5 0v360"/><path d="m140 194.5h200"/><path d="m140 204.5h200"/><path d="m140 214.5h200"/><path d="m140 224.5h200"/><path d="m140 234.5h200"/><path d="m140 244.5h200"/><path d="m140 254.5h200"/><path d="m140 264.5h200"/><path d="m140 274.5h200"/><path d="m140 284.5h200"/><path d="m140 294.5h200"/><path d="m140 304.5h200"/><path d="m140 314.5h200"/><path d="m140 324.5h200"/><path d="m140 334.5h200"/><path d="m140 344.5h200"/><path d="m140 354.5h200"/><path d="m340 4.5h-200"/><path d="m340 14.5h-200"/><path d="m340 24.5h-200"/><path d="m340 34.5h-200"/><path d="m340 44.5h-200"/><path d="m340 54.5h-200"/><path d="m340 64.5h-200"/><path d="m340 74.5h-200"/><path d="m340 84.5h-200"/><path d="m340 94.5h-200"/><path d="m340 104.5h-200"/><path d="m340 114.5h-200"/><path d="m340 124.5h-200"/><path d="m340 134.5h-200"/><path d="m340 144.5h-200"/><path d="m340 154.5h-200"/><path d="m340 164.5h-200"/><path d="m340 174.5h-200"/><path d="m340 184.5h-200"/><path d="m154.5 0v360"/><path d="m144.5 0v360"/></g>
    <path class="coast" d="m212.57 7c-.27 0-.44.33-.46 1.2 2.77 2.25-.71 1.42-2.24 1.64-1.37-.08-1.56-1.29-3.66-.77-2.3 2.42-5 2.87-8 2.4-.6-3.34-1.09 1.84-2.94-.08-.83 1.6-1.86.25-2.58 1.6-.05.08-3.29-.89-4.17 1.53-.4 2-2.22 3-.83.28 3.46-2.36-4.17-5.91-3.08-2.34-1.78 1.12-2.21 3.75-3.85 4.21 1-2.13 3.74-4.76.4-5.6-1.08-2.41-.19-.09-1.47.43-.41-2.08-2.77-2-4.38-2.77-.4 1 0 2.17-.5 3.13-2.07 1.41-2.51 4 .18 4.46 1.92 1.86-2-.41-1.73 1.6-.46.24 3.15 2.17.23 1.12-1.55-1.75-2.27 3.38-1.26 3.22-1.15 1.79 4.54 3.17 4 3.18.32 1.53-.36.09-1.65.06-1.66-1.5-2.26.49-3.81.08-1.82 1.71-3.54-1-4.43.24 1.33 1.41 1.66 3.73 3.66 4.18-.92.87-.14.95-.82 1.55 1.7 2.17-1.33 1.41-2.22 1.9-.8-2.47-3.34-1-1.34.71a16.91 16.91 0 0 0 5.38 4.18c-1.12 1.59.71 2.37 2.18 3.57 1.12 2.91 0 .36-1.42-.38-1.11-2-3.41-.56-4.13-2.35-2.77-.18.1 1.5 1.25 2.51 3.16 1.54-.7 1.25-1.57-.54-2.63-2.55-1.58 3.54-4.25.86 0-2-2.39-3.3-2.53-.67.6 1.12 2.36 3.63 1.07 4.13-.3.63-.78 1.34-1.46-.71 0-2.83-1.28-2.75-3.47-2.49.37 1.93-.85 6.07 2.41 5.92 2 2.39-1.42.14-1.73 1.76-1.93 2.13 1.36 2.28 1.38 4.42 1.12.76.95 1.65 3.43 1.26 3.4 1.34-2.72.15-1.58 1.54-1.07.2-1.36-2-2.39-1.42-2.12-3.54-3.2 1.88-2.64 4.29 1.72.07 1.18 1.53 1.18 2.52-.57 3.12 3.36.9 4.5-.55-1.41 3 2.53 1.56 3.63-.56.85 1.19-2.95 3.58-4.83 3.38-3.35 2.19.82 3 2.83 2.55.79 1 3.54 2.12 3.29 2.47-2.19-.13-3-3.09-5.33-1.24.17 1.46-.31 2.33-1.23 3.88 1.36.71 3.26 1.1 3.91 2.36 3.08-.89.61.86-1 .17-1.58-3-6.89.66-4.32 2.65 2.39-1.37.9 2.61 3.48 1.85 3.34-1.16.08.8-1.42.55-1.23-1.21-3.9-2.72-4.24.2-.86 1.27-.12 2.93-.8 3.18-2.92 1 2.13.54 3.43.46-2.61.79.3 2.27 1 .32 1 1.83-3.94 1-4 2.75 2.5.66 1.41 2-.18 1.64-.33.06-.66 1.93-2 .08-2 .64-5.06.13-6.37 1.87-.34 3.21 4.54 1.42 6.2 2.06 2.08 1.22 3.62-1.23 5.53-1.06 1.12 1.49 5.74.1 2 1.26-2.18-1.12-3.9-.57-5.59 1.14-3.94-1.41-3.12 2.68-.52 4.2 2.5.53 2.83.63 4.56 2 3 .22 4.55-5.24 6.88-5.91.89-2.16 2.88-2.16 3.54-3.95.06-.71 3.37-4.29 2.65-2.62-1.41 1.8-4.06 4.79-.09 4.82 2.91-1.67.38 1.11-1.26 0-2.77.13-2.39 1.85-3.8 3-1.18 1.33-1.89 4.54.61 3 3-1.48.71.44-.81 1-1.75-1.69-3.06 3.13-1.61.81.43.77 1.12 1.8 2.47 1.53 4 .59-1.67.23-2.6.22-1.36 2.72-3.62 4.64-3.54 8 .23 1.51 1.5 1.8.1 3.48-1.47 3.29.41 1.32 1.49-.41.81.75-1.89 3.29-.2 4.17-2.12-.56-2.49 2.76-3.88 4.35-.29 3.29.7 0 1.6-1.16 2.13-3.18 1 1-1 2.64-1.41 2.58.79 2.37 1.94.51.39.64-3.33 4-1.35 5.84 1.32 2.27 3-.76 4.32-2.33-.17 2.12-3.54 4-4.45 6.52a21 21 0 0 0 -1.41 8.94c-.71 2.22-3.17 3.73-2.37 6.64 2.33 1.36 7.93-.57 6.6-3.94-1.87-1.07-.17-1.62.27-3.33.22-1.74 1.53-3.73 1-4.83-1-2.74 1.57-5.93 3.65-7.44-1.53-3.36-3.2-5.92-3-9.7.6 1 2.51 0 3-1.65.78-3.17 4.91-3.43 5.45-6.59.45-.16 3.79-2.61 3.13-1.26-2.91.8-2.61 3.88-5.13 4.75-1.93 1.72-4.24 4.58-4.24 7.19a4.17 4.17 0 0 0 2.78 5.2 3.41 3.41 0 0 0 .53.13c-.94-2-.23-3.38.25-5.38.13.81 3.85 4.11 2.34.46.85-2.3.4 3.63 1.94 3.82 1.65-.78 2.31-4.72 2-5.47 1.12-.14 1-3.87.39-5.15.24-3.94.16 2.83 1.62-.14.36.36-2.08 3.92-.15 5.44 3.34 1 .28-1.52.16-3 1.46 1.24 3.87 5 7.08 5.14 1.89.9-3.13-.16-4.25-.18-3.54-2.83-5.14 2.35-4.24 5.37 2.55 2.12-2.24 4.37 1.11 5.52.54 2.12 4.7 1.85 4.17 4.88.14.5 2.12 2.56.7 4.28-2.87.36-2.83 3.32-4.55 4.92.55 3.82-2.91 5.71-4.18 8.57-1.71 2.78-.6 5.66.77 8-3 1.42-.76-4.95-3.68-3.83-2.74 3 1.05 7.56 3.07 9.79 2.07 1.31.08 4.55 3.12 5.23.58-.52-.14-2.7-1-4-1.51-2.28-.93-4.34 1.9-5.21 1.28.71 3.16 2.3 4.91 3 1.74 1.56 2.89 4.15 5.7 4.19 1.41-.87-.44-3.66.71-4.32-.71-1.42-3-2.89-1.21-4.63.48 0 1.28 3 3.23 2.59 1.83-2.48.57 1 1.84 1.71 1.85 2.12 2 .25 2.77-1.61-.75 2.19 1.22 3.84 3.05 2 2.59-1.08 1.28-1.9 2.19-3.44-.11.41 1 1.33 2.64-.17 2.25.41 3.88-.32 3.19-2.84s.82-.53 1.42-1.48c2.7-.19 7.19 1.75 10.61.12 3-.28-2.29 1.67.31 1.22-.35 2.68-4.41-1.48-5.69 1.41 1.33.59.49 2.46-1 1.26-1-.29-2.89 3.33-2.57 5-3 2.46-2.67 6.51-4.25 9.51.75 3.26 5.66 5.95 5.1 9.82.56 1.58 3.17 4.85 3.78 2.23.7-4.34 1.3 1.8 0 2.13-.21 1.62.5 2.51 1.73 3.53.28.37 1.67-1.77 2.33-3.14.6-2.88 1.14-.22 2.47.07.47-.8 3.92-2.88 2.51-1.29 1.91 2.47.37 3.85-1.41 5.66 0 2.12 1.76 1.06 1.11 2.77.77 1.18-2.34 1.22-3.89 1.55-1.47 3.41-1.27 10 4.1 7.44-1.5 1.32-5 3.65-5.88 6.86 1.57 2.61 1.77 6.37 4.59 8.08 1.07 2.21 4.72-.8 3.54 1.38-2.4 3.71-5.91-1.53-6.24-4.25-4.89-.45-3.43 3.49-1.31 5.66 1.21 3.05-1.24.94-2.59-.36-3.48-5-7.6 1.23-11.79.08-1.16-.8-5.24-3-2.94-.25-1.72.89-5.13 2.73-7.65 2.83-1.15 1.11-2.83 4.48-3.77 4.14 0 2.25-1.52 4.44-3.6 5.93-2.77 1.46-5.2 3.36-6.29 6.41.8.71 1.34-.7 2.52-.41 1.52-1.93 2.68 1.55 3.67.46-.42-3.22 3.87-4.62 6.85-4.41 3.13.89-.05 4.05 2.13 5.5.41 2 2.29 1.16 2.41 1.37-2.31 1.18-4.25 5.37-1 6.94 2.38-1.13 2.4.41.14.78-1.18.71-.87 4.89-2.12 6.81-1.37 3.54-5 4.58-7.45 6.56-.91 2.13-4.77.19-5.52 1.91-1 0-1.56 2.29-3.3 2.6.38 2.29-2.06 0-2.54 1.55-.62-.14-3.72-1.89-3.1.61-.86 1.7-3.83 1.93-5 3.17-1.22 2.75 2.57 0 4 1.95 1.06 2.35-.1 3.16-1.77 4-2 .26.39 1 .7 2.16 0-2.56 3.25.07 5.07-1 3.76-.61-1.37 1.27-2.12.88-.66.29-3 0-.4 1a2.37 2.37 0 0 0 3.28 1.9c1-2.12 3.54-.7 4.86-1.94-.15-3.43 3.79-2.57 6.28-3-1.07-2.28.54.09 1.23-1.37-.09.79 2.56 2.72.33 1.87-.71 1.38 2.32 2.58 3.84 1.73.89 1.88 4-.87 2.59 1.23-2.12 1.78-3.54-.55-4.8 1.42-.24 1.73 1 3 2.68 2.44 1.17-1.15 3.19-.54 4.59-.64-1.9-1.93 2.61-2.73 3.26-1.84 2.13 1.11 1.42 5.42 3.91 5 2.53 3.73 7.71 4.19 11.39 2.54-.37-2.6 2.61-3.58 4.19-5.44 1.11 1.08 4 0 5.78-1 2.64-1.66 4.18-5.36 7.19-6.37.9-1.64 1.62.06-.11.47-2.76 2.16-4.53 5.82-6.49 8.82-2.58.1-4.24 4-5.81 4.48-.13 2-1.48 1.67-1.09 3.53 1 2.31-.71 3.75-3.05 3a8 8 0 0 1 -8.34-.58c-2.25.31-4.76-.64-7.16-.17-2.63.49-8.16-.25-8.91 2.07-2 1.21 1.34 3.35-1 4.95-1.57 3.15-4.2.25-6.33.58a6.11 6.11 0 0 1 -.71 3.54c.93 3.47-.71 5.81-2.83 8-2.55.4-.94 4.47-4.25 4.05-1.75-.27-1 .76-1.81 1.13-2.06-.49-2 2.54-2.56 4.76-2.83-.12-1.41 2.57-3.54 3.65-1.14 2.2-4 2.51-5 4.5-1.86-1.47-3.69.53-5.84 1.31-.77 1.1-1.23 3.43-.11 4.25 3.53 1.47 2.56-4.21 5.39-2.71 3.48.2 4.19 3.27 5.6 5.55.52-.4 1.42-2.05 2.7-2.07 2.31-1.67-1.87-2.66.09-3.44 1.29-1.26 0-2 1.26-3.54a6.81 6.81 0 0 1 .49 2.55 8.68 8.68 0 0 1 3-2.83c2.28.15 2.27-1.53 2.68-3.11.38-2.06 2-.06 2.62-.57 3.19.85 5.45-2 8.66-.85 1.05 2.33 3.38.05 1.11-.43 2.67-1 2.55 3.46 5.42 2.08 2.21-.93 2.92 3.43 4.77 2.91 1.9.91 3.33-.12 3.24-2.4 1.57-1 1.27-2.54 2.56-1.83 1.8-2.05-.34-1.76-.47-3.78 2.56-.21-.26-2.62 1.84-4.1 1.63-.95-.92-5.93.9-3 1.14 3.54 3.31-1.52 5.38-1.51 3.54.52 6.72-2.94 10.14-.54 2.6 1.79 7.5 3.53 6.84 7 .39-.3.35-.94.8-1.23-1.16-1.42-.7-4.36 2.13-3.18 3.25-.15 5.54 1.78 8.42 1.38 1.23-1.24.87-2 .62-3.05-1.78.11-1.86-1-2.86-.52-1.15-.41 1.13-1.18 2.27-1 .57 2.71 2.61-1.5 4.75.1a1.77 1.77 0 0 1 2.27-1c2.32 1.64 3-.25 5.11-1.2 3.53.18 3-2.91.7-4.2-3.34-1.84 1-.44 1.94 1.09 1.47.46 3.71 4.07 4.65 1.88-1.41-1.45-.55-1.83 1.11-1.28-2 1.45.79 3.41.86.41 2.12-2 .06 2.38.71 1.83 2.18 1.06.46-4.08 1.74-1.68-.19.12 2.55-.12.7 1.2-1.35.71 3.94 3.79 3.25 1.27.89-.71 5.78-1.21 8.23-1.74 5.13-2.34 10.13 1.36 15 2.32 1.85-3.54 6-3.54 9.4-4.75 1.68-2.88 4.37-2.26 7.08-1.59-.94-3.41 2.32-6.21 5.45-6.43 2.67-.57 5.88-2.83 4.43-6.26-1.81-2.51 1.69-2.32 1.18-4.86-.77-.35-1.72.05-2.52.13-4.3-.39-8.26 2.66-12.37 1 1.49.42 5.07-.71 1.69-2.31-1.64-.91-3.41-.61-3.49.24-.54.05-.61 2-2.31 1-2.78.56-.28-2.45 1.5-1.74 2.25-1.34-2.92-2.23-4.2-1.81-.56.28-3.4 2.31-2.22 1 .81-2.5 3.88-1.5 5.31-2.68 2.13.44 4.71.23 6.22-2 2.18-1.69-.7-1-1.12-.8-2.52-1.68.88.2 1.69-1.55 1.6-2.42-.41-4.65-2.62-2.61-.86.43-2.19.53-2.24-.64 3 .71 3.41-2.6 6.12-2.65 1.41 2.54 4.95.89 6.37-1.26 1.51-2.52-.49-.08-1.56-1.29.93-1 3.4-3.07.16-2.52-2.73.36-1.86-1.16.18-.4 2.87 1-.48-2.77 1.51-1 1 3.72 3.4-.71 4.24-2.5 3-.32 3.83-3.78 3.68-6.56.58-3.62 3.07-6.83 3.18-10.36-.45-4.77-.77-10.49-5.87-12.88-2.76-3.5-7.18-3.54-11-5-2.39-.65-.21.34-.86.55a41 41 0 0 0 -8.14-.34c-2.83-1-4.3 2-4.69 4.69-1.37 1.25-1 3.84-2.54 1.41-3.34 1.42-3.66-5.13-7.25-3 .4-1.56 2.87-3.69 4.35-5.66 2.78-1.67 4.47-4.19 3.24-7.51-1.48-4.55-2.66-9.31-7.07-11-1.42-2.59-4.1-2.71-5.88-5.28-.59-3.15-3.13-1.76-5.3-1.77-1.63 1.73-2.89-.41-4.17-.26-2.7 1.38-1.69-.82.54-.94 2.66 2.46 6.81-2.09 8.85.8 1.6 2.34 3.9 3.49 6.49 2.49 2.63-.19.95 3.88 2 2.12.09-3.62-3.6-6.37-5.16-9.55-2.35-3.05-5.2-9.72.13-11.14-.92-1.58-5.26-1.18-4.37-3.71-2.88-1.07-3.32-3.46-4.17-6.11-1.52-2-1.65-4.7-4.46-5.23-2.61-3-6.65-2.83-9.69-4.89-2.31-1.93-1.21 1.74-3 .49 1-1.35-.34-2.45.54-3.54-3.71-1.74-3.86-6.5-4.38-10-1.27-2.79-2.67-5.09-3.45-8 .53-2.35-1.86-4.21-1-6.63-1.07-1.82-.77-3.69-.71-5.84-.74-2.37-.52-4.45-2.39-6.12-2-.46-1.32 0-2-1.57-.56.45-1.87.07-2.28-1.74-3-2.74-4.1-7.79-7.08-9.53-3.4.86-5.94-4.36-8.92-3.16.2-3.16-5.27-3.58-6.56-1.53.07 2-2.39 3.35-4.41 3.54-1.83-1.28-4.06-1.28-6.12-1.54s-4.85-1.17-7.38-1.17c-3.49-.63 1.07-3 2.64-1 2.83 2.26 5-1.3 7.94-.83.53-2.59 3.17-4.53 5.38-6.19 2.83 1.49 5.88.06 7.88-2.36.87-2.93-4.41-2.12-5.13-4.16-.31-.15 1.51-3.8-1.18-3.63-2.63.7-5.23 2.77-8 3.92-2.24.71-3.12-.42-.39-.43a9.68 9.68 0 0 1 8.29-3.91c1.56-1.18 3.54.8 3.88-1.57 1.84-1.52 5.89-3.31 4.76-5.94 1.65-1.54 1.48-2.48 2-4.71 1.85-1.28 4.65-3.86 5.39-6.87-1-3.48 3.24-6 2.7-9.15-1.15-5 4.24-9.73 5.87-12.74 1.78-1-.2-2.34 1-2.73-1.54-1.19-.88-4-1.74-5-1.66-2.16-3.23-3.29-5.92-3.28-1.5 1.42-3.45.46-5 .46-2.59 1.69-6.58-.26-9.59-.11-2.18-.91-4.09-1-5.94.51-4.24.71-9-4.76-12.25-.07-2.47.47-5 .71-6.71 3-1.31 1.35-7.48-.54-5.23 1.42-1.35 1.24-2.73 4-4.86 3 2.17-1.41-1.52-2.75 1.06-2.12.7-1.08 2.23-1.08 2.45-2.54 1.23-1.53 3.19-4.25 0-2.44-2.3-.75-4.41.08-6.18 2.6-2.28 2.83-1.86-.2.29-1.29.76-2.75 3.65-1.41 5.26-3.35 1.47-1.65 2.75-.88 2.34 1.14 2.12-1.46 3.71-4.25 5.29-6.55.6-3-1 .6-2 .66-2.42.9-.35 0-1.8-.71-1.69 1.07-4.65.85-5.66-1 1.68.6 4.44.46 4.65-1.41-.48-1.91.47-3.65 2.76-4.38 1-1.86 2.76-3 4.61-4.43 3-1.86 5.09-4.86 7.08-7.7a10.41 10.41 0 0 0 7.26-7.21c2-2.27-.51-1.35-1.56-2.13-.71-2.58 2.54-4.43 2.52-6.88-1.42-.76-3.54.14-5.11-.63-1.33 1.53-2.68-.24-3.36-.24z" fill="none" stroke="#cd0e66" stroke-linecap="round" stroke-linejoin="round" stroke-width="2"/>
</svg>
