<svg viewBox="0 0 140 160" xmlns="http://www.w3.org/2000/svg"><path d="m2.72 119 7.47-13-7.47-13h15l7.48-13-7.53-13h-14.95l7.47-13-7.47-13h15l7.48-13 7.47 13h15l7.48-13-7.58-13h15l7.43-13 7.48 13h15l-7.48 13 7.48 13h14.95l7.47-13 7.48 13h15l-7.47 13 7.47 13h-15l-7.48 13 7.48 13h15l-7.47 13 7.47 13h-15l-7.48 13-7.47-13h-15l-7.43 13 7.48 13h-15l-7.48 13-7.48-13h-15l7.48-13-7.48-13h-15l-7.47 13-7.48-13z" fill="#6d3bbf"/><path d="m137.28 41h-44.85l-22.43-39-22.43 39h-44.85l22.42 39-22.42 39h44.85l22.43 39 22.43-39h44.85l-22.42-39z" fill="#0f82f2"/></svg>
