<svg viewBox="0 0 220 250" xmlns="http://www.w3.org/2000/svg"><g fill="none" stroke-linecap="round" stroke-linejoin="round" stroke-width="4"><path d="m5.59 243.58h7.73l3.87-6.72 3.86 6.72h7.74l3.87-6.72-3.87-6.73h7.73l3.87-6.72 3.87 6.72h7.74l-3.86 6.73 3.86 6.72h7.74l3.86-6.72 3.87 6.72h7.73l3.86-6.72-3.86-6.73h7.73l3.87-6.72-3.87-6.73h-7.73l3.86-6.68-3.86-6.73h7.73l3.87-6.72 3.86 6.72h7.74l3.87-6.72-3.87-6.73h7.73l3.87-6.72 3.87 6.72h7.73l-3.87 6.73 3.87 6.72h7.74l3.86-6.72 3.87 6.72h7.73l-3.86 6.73 3.86 6.72h-7.73l-3.87 6.73 3.87 6.72h7.73l-3.86 6.73 3.86 6.72h7.74l3.87-6.72 3.86 6.72h7.73l3.86-6.72-3.86-6.77h7.73l3.87-6.72 3.87 6.72h7.73l-3.87 6.73 3.87 6.72h7.8l3.86-6.72 3.87 6.72h7.73" stroke="#0f82f2"/><path d="m5.59 165.25h23.2l11.6-20.18 11.61 20.18h23.2l11.6-20.18-11.6-20.17h23.2l11.6-20.18 11.6 20.18h23.2l-11.6 20.17 11.6 20.18h23.2l11.6-20.18 11.6 20.18h23.2" stroke="#0f82f2"/><path d="m5.59 86.91h69.61l34.8-60.52 34.8 60.52h69.61" stroke="#0f82f2"/><path d="m5.59 8h208.82" stroke="#0f82f2"/><g stroke="#cd0e66"><path d="m179.61 145.07 11.6 20.18"/><path d="m144.8 124.9-11.6 20.17"/><path d="m75.2 124.9h23.2"/><path d="m40.39 145.07 11.61 20.18"/><path d="m110 26.39 34.8 60.52"/><path d="m202.81 236.86 3.87 6.72"/><path d="m191.21 230.13-3.87 6.73"/><path d="m168 230.13h7.73"/><path d="m156.41 236.86 3.86 6.72"/><path d="m144.8 230.13-3.86 6.73"/><path d="m144.8 216.68h-7.73"/><path d="m133.2 196.51 3.87 6.72"/><path d="m121.6 189.78-3.87 6.73"/><path d="m98.4 189.78h7.73"/><path d="m86.8 196.51 3.86 6.72"/><path d="m75.2 216.68 3.86-6.68"/><path d="m75.2 230.13h7.73"/><path d="m63.59 236.86 3.87 6.72"/><path d="m52 230.13-3.86 6.73"/><path d="m28.79 230.13h7.73"/><path d="m17.19 236.86 3.86 6.72"/></g></g></svg>