<svg xmlns="http://www.w3.org/2000/svg" viewBox="0 0 220 250"><path d="M5.59,243.58h7.73l3.87-6.72,3.86,6.72h7.74l3.87-6.72-3.87-6.73h7.73l3.87-6.72,3.87,6.72H52l-3.86,6.73L52,243.58h7.74l3.86-6.72,3.87,6.72H75.2l3.86-6.72-3.86-6.73h7.73l3.87-6.72-3.87-6.73H75.2L79.06,210l-3.86-6.73h7.73l3.87-6.72,3.86,6.72H98.4l3.87-6.72-3.87-6.73h7.73l3.87-6.72,3.87,6.72h7.73l-3.87,6.73,3.87,6.72h7.74l3.86-6.72,3.87,6.72h7.73L140.94,210l3.86,6.72h-7.73l-3.87,6.73,3.87,6.72h7.73l-3.86,6.73,3.86,6.72h7.74l3.87-6.72,3.86,6.72H168l3.86-6.72L168,230.13h7.73l3.87-6.72,3.87,6.72h7.73l-3.87,6.73,3.87,6.72H199l3.86-6.72,3.87,6.72h7.73" fill="none" stroke="#0f82f2" stroke-linecap="round" stroke-linejoin="round" stroke-width="4"/><path d="M5.59,165.25h23.2l11.6-20.18L52,165.25H75.2l11.6-20.18L75.2,124.9H98.4L110,104.72l11.6,20.18h23.2l-11.6,20.17,11.6,20.18H168l11.6-20.18,11.6,20.18h23.2" fill="none" stroke="#0f82f2" stroke-linecap="round" stroke-linejoin="round" stroke-width="4"/><path d="M5.59,86.91H75.2L110,26.39l34.8,60.52h69.61" fill="none" stroke="#0f82f2" stroke-linecap="round" stroke-linejoin="round" stroke-width="4"/><path d="M5.59,8H214.41" fill="none" stroke="#0f82f2" stroke-linecap="round" stroke-linejoin="round" stroke-width="4"/><path d="M179.61,145.07l11.6,20.18" fill="none" stroke="#cd0e66" stroke-linecap="round" stroke-linejoin="round" stroke-width="4"/><path d="M144.8,124.9l-11.6,20.17" fill="none" stroke="#cd0e66" stroke-linecap="round" stroke-linejoin="round" stroke-width="4"/><path d="M75.2,124.9H98.4" fill="none" stroke="#cd0e66" stroke-linecap="round" stroke-linejoin="round" stroke-width="4"/><path d="M40.39,145.07,52,165.25" fill="none" stroke="#cd0e66" stroke-linecap="round" stroke-linejoin="round" stroke-width="4"/><path d="M110,26.39l34.8,60.52" fill="none" stroke="#cd0e66" stroke-linecap="round" stroke-linejoin="round" stroke-width="4"/><path d="M202.81,236.86l3.87,6.72" fill="none" stroke="#cd0e66" stroke-linecap="round" stroke-linejoin="round" stroke-width="4"/><path d="M191.21,230.13l-3.87,6.73" fill="none" stroke="#cd0e66" stroke-linecap="round" stroke-linejoin="round" stroke-width="4"/><path d="M168,230.13h7.73" fill="none" stroke="#cd0e66" stroke-linecap="round" stroke-linejoin="round" stroke-width="4"/><path d="M156.41,236.86l3.86,6.72" fill="none" stroke="#cd0e66" stroke-linecap="round" stroke-linejoin="round" stroke-width="4"/><path d="M144.8,230.13l-3.86,6.73" fill="none" stroke="#cd0e66" stroke-linecap="round" stroke-linejoin="round" stroke-width="4"/><path d="M144.8,216.68h-7.73" fill="none" stroke="#cd0e66" stroke-linecap="round" stroke-linejoin="round" stroke-width="4"/><path d="M133.2,196.51l3.87,6.72" fill="none" stroke="#cd0e66" stroke-linecap="round" stroke-linejoin="round" stroke-width="4"/><path d="M121.6,189.78l-3.87,6.73" fill="none" stroke="#cd0e66" stroke-linecap="round" stroke-linejoin="round" stroke-width="4"/><path d="M98.4,189.78h7.73" fill="none" stroke="#cd0e66" stroke-linecap="round" stroke-linejoin="round" stroke-width="4"/><path d="M86.8,196.51l3.86,6.72" fill="none" stroke="#cd0e66" stroke-linecap="round" stroke-linejoin="round" stroke-width="4"/><path d="M75.2,216.68,79.06,210" fill="none" stroke="#cd0e66" stroke-linecap="round" stroke-linejoin="round" stroke-width="4"/><path d="M75.2,230.13h7.73" fill="none" stroke="#cd0e66" stroke-linecap="round" stroke-linejoin="round" stroke-width="4"/><path d="M63.59,236.86l3.87,6.72" fill="none" stroke="#cd0e66" stroke-linecap="round" stroke-linejoin="round" stroke-width="4"/><path d="M52,230.13l-3.86,6.73" fill="none" stroke="#cd0e66" stroke-linecap="round" stroke-linejoin="round" stroke-width="4"/><path d="M28.79,230.13h7.73" fill="none" stroke="#cd0e66" stroke-linecap="round" stroke-linejoin="round" stroke-width="4"/><path d="M17.19,236.86l3.86,6.72" fill="none" stroke="#cd0e66" stroke-linecap="round" stroke-linejoin="round" stroke-width="4"/></svg>