<svg viewBox="0 0 140 160" xmlns="http://www.w3.org/2000/svg"><path d="m2.72 119 2.49-4.33-2.49-4.34h5l2.47-4.33-2.49-4.33h-5l2.49-4.34-2.47-4.33h5l2.49-4.33 2.48 4.33h5l2.49-4.33-2.49-4.34h5l2.46-4.33-2.5-4.33h-5l2.49-4.34-2.47-4.33h-5l-2.5 4.33-2.47-4.33h-5l2.49-4.33-2.47-4.34h5l2.47-4.33-2.49-4.33h-5l2.49-4.34-2.47-4.33h5l2.49-4.33 2.48 4.33h5l2.49-4.33-2.49-4.34h5l2.46-4.33 2.49 4.33h5l-2.49 4.34 2.47 4.33h5l2.49-4.33 2.48 4.33h5l2.49-4.33-2.49-4.34h5l2.46-4.33-2.49-4.33h-5l2.49-4.34-2.48-4.33h5l2.49-4.33 2.48 4.33h5l2.46-4.33-2.5-4.34h5l2.5-4.33 2.49 4.33h5l-2.49 4.34 2.48 4.33h5l2.52-4.33 2.44 4.33h5l-2.49 4.33 2.49 4.34h-5l-2.44 4.33 2.49 4.33h5l-2.49 4.34 2.43 4.33h5l2.49-4.33 2.47 4.33h5l2.49-4.33-2.49-4.34h5l2.46-4.33 2.5 4.33h5l-2.49 4.34 2.47 4.33h5l2.5-4.33 2.47 4.33h5l-2.49 4.33 2.49 4.34h-5l-2.49 4.33 2.49 4.33h5l-2.49 4.34 2.47 4.33h-5l-2.49 4.33-2.48-4.33h-5l-2.49 4.33 2.49 4.34h-5l-2.46 4.33 2.5 4.33h5l-2.49 4.34 2.47 4.33h5l2.5-4.33 2.47 4.33h5l-2.49 4.33 2.49 4.34h-5l-2.49 4.33 2.49 4.33h5l-2.49 4.34 2.49 4.33h-5l-2.49 4.33-2.5-4.33h-5l-2.49 4.33 2.49 4.34h-5l-2.5 4.33-2.49-4.33h-5l2.49-4.34-2.43-4.33h-5l-2.49 4.33-2.48-4.33h-5l-2.49 4.33 2.49 4.34h-5l-2.41 4.33 2.49 4.33h5l-2.49 4.34 2.43 4.33h-5l-2.43 4.33-2.54-4.33h-5l-2.46 4.33 2.5 4.34h-5l-2.5 4.33-2.49-4.33h-5l2.5-4.34-2.49-4.33h-5l-2.49 4.33-2.47-4.33h-5l2.49-4.33-2.49-4.34h5l2.49-4.33-2.49-4.33h-5l2.49-4.34-2.48-4.33h-5l-2.49 4.33-2.47-4.33h-5l-2.49 4.33 2.49 4.34h-5l-2.46 4.33-2.5-4.33h-5l2.49-4.34-2.47-4.33h-5l-2.5 4.33-2.47-4.33h-5" fill="#6d3bbf"/><path d="m137.28 67-7.47-13 7.47-13h-14.95l-7.47-13-7.48 13h-14.95l-7.48-13 7.48-13h-14.95l-7.48-13-7.48 13h-14.95l7.48 13-7.48 13h-14.95l-7.48-13-7.47 13h-14.95l7.47 13-7.47 13h14.95l7.47 13-7.47 13h-14.95l7.47 13-7.47 13h14.95l7.47 13 7.48-13h14.95l7.48 13-7.48 13h14.95l7.48 13 7.48-13h14.95l-7.48-13 7.48-13h14.95l7.48 13 7.47-13h14.95l-7.47-13 7.47-13h-14.95l-7.47-13 7.47-13z" fill="#0f82f2"/></svg>
