<svg id="Layer_1" data-name="Layer 1" xmlns="http://www.w3.org/2000/svg" viewBox="0 0 300 160"><title>polygon</title><polygon points="110 14.6 57 50.2 147.7 78.7 110 14.6" fill-opacity="0.4" stroke="#000" stroke-miterlimit="10" stroke-width="2"/><polygon points="105.3 107.2 124.8 144.9 174.9 139.3 190.2 76.7 105.3 107.2" fill-opacity="0.4" stroke="#000" stroke-miterlimit="10" stroke-width="2"/><polygon points="290.4 62.6 234.3 78.2 214.7 120.8 250 156.4 288.7 115.9 290.4 62.6" fill-opacity="0.4" stroke="#000" stroke-miterlimit="10" stroke-width="2"/><polygon points="55.2 105.5 45 60 9.4 106.2 36.7 120.2 43.9 149.9 97.1 126.1 55.2 105.5" fill-opacity="0.4" stroke="#000" stroke-miterlimit="10" stroke-width="2"/><polygon points="219.8 63.5 203.9 84.2 197.2 58.4 172.7 49 194.5 35 195.2 8.5 215.4 25.7 240.3 18.8 231 43.3 245.7 65.5 219.8 63.5" fill-opacity="0.4" stroke="#000" stroke-miterlimit="10" stroke-width="2"/></svg>