<svg id="Layer_1" data-name="Layer 1" xmlns="http://www.w3.org/2000/svg" viewBox="0 0 760 42"><title>Artboard 2</title><path d="M358.2,18h12.6V12H351.9V36H320.5V18H333V12H314.2V36H282.7V18h12.6V12H276.5V36H245V18h12.6V12H238.8V36H207.3V18h12.6V12H201.1V36H169.6V18h12.6V12H163.4V36H131.9V18h12.6V12H125.7V36H94.2V18h12.6V12H87.9V36H56.6V18H69.1V12H50.3V36H18.8V18H31.4V12H12.5V36H0v6H377V36H358.2Z" fill="#b19d99" fill-rule="evenodd"/><path d="M364.5,30H377V24H364.5Z" fill="#b19d99" fill-rule="evenodd"/><path d="M0,36.3H6.2V6H37.7V24H25.1v6H44V6H75.4V24H62.8v6H81.7V6h31.4V24H100.5v6h18.9V6h31.4V24H138.2v6h18.9V6h31.4V24H176v6h18.8V6h31.4V24H213.6v6h18.8V6h31.5V24H251.4v6h18.7V6h31.5V24H289.1v6h18.8V6h31.4V24H326.7v6h18.9V6H377V0H0Z" fill="#b19d99" fill-rule="evenodd"/><path d="M735.2,18h12.6V12H728.9V36H697.5V18H710V12H691.2V36H659.7V18h12.6V12H653.5V36H622V18h12.6V12H615.8V36H584.3V18h12.6V12H578.1V36H546.6V18h12.6V12H540.4V36H509V18h12.5V12H502.7V36H471.2V18h12.6V12H464.9V36H433.6V18h12.5V12H427.3V36H395.8V18h12.6V12H389.6V36H377v6H754V36H735.2Z" fill="#b19d99" fill-rule="evenodd"/><path d="M741.5,30H754V24H741.5Z" fill="#b19d99" fill-rule="evenodd"/><path d="M377,30h6.3V6h31.4V24H402.1v6H421V6h31.4V24H439.8v6h18.9V6h31.4V24H477.5v6h18.9V6h31.4V24H515.3v6h18.8V6h31.4V24H553v6h18.8V6h31.4V24H590.6v6h18.8V6h31.5V24H628.4v6h18.8V6h31.4V24H666.1v6h18.8V6h31.4V24H703.8v6h18.8V6H754V0H377Z" fill="#b19d99" fill-rule="evenodd"/><rect x="754" width="6" height="42" fill="#b19d99"/></svg>