<svg id="Layer_1" data-name="Layer 1" xmlns="http://www.w3.org/2000/svg" viewBox="0 0 180 180"><title>hexagons</title><polyline points="55 -10 55 30 20 50 -15 30 -15 -10" fill="#b30469"/><polygon points="90 50 125 30 160 50 160 90 125 110 90 90 90 50" fill="#b30469"/><polyline points="125 -10 125 30 90 50 55 30 55 -10" fill="#86034f"/><polyline points="-15 30 20 50 20 90 -15 110" fill="#86034f"/><polyline points="195 -10 195 30 160 50 125 30 125 -10" fill="#c23687"/><polygon points="20 50 55 30 90 50 90 90 55 110 20 90 20 50" fill="#c23687"/><polygon points="-15 110 20 90 55 110 55 150 20 170 -15 150 -15 110" fill="#b30469"/><polyline points="90 192 90 170 125 150 160 170 160 192" fill="#b30469"/><polygon points="55 110 90 90 125 110 125 150 90 170 55 150 55 110" fill="#86034f"/><polyline points="-50 192 -50 170 -15 150 20 170 20 192" fill="#86034f"/><polyline points="195 110 160 90 160 50 195 30" fill="#86034f"/><polyline points="160 192 160 170 195 150 230 170 230 192" fill="#86034f"/><polygon points="125 110 160 90 195 110 195 150 160 170 125 150 125 110" fill="#c23687"/><polyline points="20 192 20 170 55 150 90 170 90 192" fill="#c23687"/><path d="M125,90A34.9,34.9,0,0,0,92,55.1V88.8l29.3,16.8A34.2,34.2,0,0,0,125,90Z" fill="#fff" opacity="0.7"/><path d="M88,55.1A34.9,34.9,0,0,0,55,90a34.2,34.2,0,0,0,3.7,15.6L88,88.8Z" fill="#fff" opacity="0.7"/><path d="M90,92.3,60.7,109.1a34.9,34.9,0,0,0,58.6,0Z" fill="#fff" opacity="0.7"/><path d="M120.5,65V63.1h2.8V54.8H121V53.3a6.2,6.2,0,0,0,1.6-.4l1.3-.6h1.7V63.1h2.5V65Z" fill="#fff"/><path d="M130,65V63.7l2.4-2.4,1.8-2a13.6,13.6,0,0,0,1.2-1.7,5.6,5.6,0,0,0,.4-1.5,2,2,0,0,0-.6-1.6,1.8,1.8,0,0,0-1.5-.6,2.3,2.3,0,0,0-1.4.4,5.2,5.2,0,0,0-1.1,1L129.9,54a11.9,11.9,0,0,1,1.8-1.5A5.2,5.2,0,0,1,134,52a4.3,4.3,0,0,1,2.9,1.1,8.3,8.3,0,0,1,.8,1.2,4.5,4.5,0,0,1,.3,1.6,3.9,3.9,0,0,1-.4,1.8,10.6,10.6,0,0,1-1,1.7l-1.4,1.8-1.8,2h5.2v2Z" fill="#fff"/><path d="M144.6,65.2a3.5,3.5,0,0,1-3.1-1.7,8.4,8.4,0,0,1-1.2-4.9,8.2,8.2,0,0,1,1.2-4.9,3.7,3.7,0,0,1,3.1-1.7,3.7,3.7,0,0,1,3.2,1.7,8.2,8.2,0,0,1,1.2,4.9,8.4,8.4,0,0,1-1.2,4.9A3.5,3.5,0,0,1,144.6,65.2Zm0-1.8a1.5,1.5,0,0,0,.9-.2,2.7,2.7,0,0,0,.7-.8,15.5,15.5,0,0,0,.4-1.5,15.2,15.2,0,0,0,.2-2.3,14,14,0,0,0-.2-2.3,8.4,8.4,0,0,0-.4-1.4c-.2-.4-.4-.7-.7-.8a1.6,1.6,0,0,0-.9-.3,1.1,1.1,0,0,0-.8.3c-.3.1-.5.4-.7.8a3.9,3.9,0,0,0-.4,1.4,14,14,0,0,0-.2,2.3,15.2,15.2,0,0,0,.2,2.3,5.4,5.4,0,0,0,.4,1.5,2.7,2.7,0,0,0,.7.8A1.1,1.1,0,0,0,144.6,63.4Z" fill="#fff"/><path d="M153.3,56.7a2.2,2.2,0,0,1-1.1-.2l-.8-.5a1.8,1.8,0,0,1-.6-.9,2,2,0,0,1-.2-1.1,2.2,2.2,0,0,1,.2-1.1,3.5,3.5,0,0,1,1.4-1.4l1.1-.2,1,.2a1.8,1.8,0,0,1,.9.6l.6.8A4.3,4.3,0,0,1,156,54a3.6,3.6,0,0,1-.2,1.1l-.6.9a2.6,2.6,0,0,1-.9.5A1.6,1.6,0,0,1,153.3,56.7Zm0-1.1a1.4,1.4,0,0,0,1-.5,1.4,1.4,0,0,0,.4-1.1,1.5,1.5,0,0,0-.4-1.1,1.3,1.3,0,0,0-1-.4,1.5,1.5,0,0,0-1.1.4,2,2,0,0,0-.3,1.1,1.8,1.8,0,0,0,.3,1.1A1.6,1.6,0,0,0,153.3,55.6Z" fill="#fff"/><path d="M74.5,144v-1.9h2.8v-8.3H75v-1.5l1.6-.4,1.3-.6h1.7v10.8h2.5V144Z" fill="#fff"/><path d="M84,144v-1.3l2.4-2.4,1.8-2a13.6,13.6,0,0,0,1.2-1.7,5.6,5.6,0,0,0,.4-1.5,2,2,0,0,0-.6-1.6,1.8,1.8,0,0,0-1.5-.6,2.3,2.3,0,0,0-1.4.4,5.2,5.2,0,0,0-1.1,1L83.9,133l1.8-1.5A5.2,5.2,0,0,1,88,131a4.3,4.3,0,0,1,2.9,1.1l.8,1.2a4.5,4.5,0,0,1,.3,1.6,3.9,3.9,0,0,1-.4,1.8,10.6,10.6,0,0,1-1,1.7l-1.4,1.8-1.8,2h5.2v2Z" fill="#fff"/><path d="M98.6,144.2a3.5,3.5,0,0,1-3.1-1.7,8.4,8.4,0,0,1-1.2-4.9,8.2,8.2,0,0,1,1.2-4.9,3.7,3.7,0,0,1,3.1-1.7,3.7,3.7,0,0,1,3.2,1.7,8.2,8.2,0,0,1,1.2,4.9,8.4,8.4,0,0,1-1.2,4.9A3.5,3.5,0,0,1,98.6,144.2Zm0-1.8a1.5,1.5,0,0,0,.9-.2,2.7,2.7,0,0,0,.7-.8,15.5,15.5,0,0,0,.4-1.5,15.2,15.2,0,0,0,.2-2.3,14,14,0,0,0-.2-2.3,8.4,8.4,0,0,0-.4-1.4c-.2-.4-.4-.7-.7-.8l-.9-.3a1.1,1.1,0,0,0-.8.3c-.3.1-.5.4-.7.8a3.9,3.9,0,0,0-.4,1.4,14,14,0,0,0-.2,2.3,15.2,15.2,0,0,0,.2,2.3,5.4,5.4,0,0,0,.4,1.5,2.7,2.7,0,0,0,.7.8A1.1,1.1,0,0,0,98.6,142.4Z" fill="#fff"/><path d="M107.3,135.7a2.2,2.2,0,0,1-1.1-.2l-.8-.5a1.8,1.8,0,0,1-.6-.9,2,2,0,0,1-.2-1.1,2.2,2.2,0,0,1,.2-1.1,3.5,3.5,0,0,1,1.4-1.4l1.1-.2,1,.2a1.8,1.8,0,0,1,.9.6l.6.8a4.3,4.3,0,0,1,.2,1.1,3.6,3.6,0,0,1-.2,1.1l-.6.9a2.6,2.6,0,0,1-.9.5A1.6,1.6,0,0,1,107.3,135.7Zm0-1.1a1.4,1.4,0,0,0,1-.5,1.4,1.4,0,0,0,.4-1.1,1.5,1.5,0,0,0-.4-1.1,1.3,1.3,0,0,0-1-.4,1.5,1.5,0,0,0-1.1.4,2,2,0,0,0-.3,1.1,1.8,1.8,0,0,0,.3,1.1A1.6,1.6,0,0,0,107.3,134.6Z" fill="#fff"/><path d="M29.5,65V63.1h2.8V54.8H30V53.3a6.2,6.2,0,0,0,1.6-.4l1.3-.6h1.7V63.1h2.5V65Z" fill="#fff"/><path d="M39,65V63.7l2.4-2.4,1.8-2a13.6,13.6,0,0,0,1.2-1.7,5.6,5.6,0,0,0,.4-1.5,2,2,0,0,0-.6-1.6,1.8,1.8,0,0,0-1.5-.6,2.3,2.3,0,0,0-1.4.4,5.2,5.2,0,0,0-1.1,1L38.9,54a11.9,11.9,0,0,1,1.8-1.5A5.2,5.2,0,0,1,43,52a4.3,4.3,0,0,1,2.9,1.1l.8,1.2a4.5,4.5,0,0,1,.3,1.6,3.9,3.9,0,0,1-.4,1.8,10.6,10.6,0,0,1-1,1.7l-1.4,1.8-1.8,2h5.2v2Z" fill="#fff"/><path d="M53.6,65.2a3.5,3.5,0,0,1-3.1-1.7,8.4,8.4,0,0,1-1.2-4.9,8.2,8.2,0,0,1,1.2-4.9A3.7,3.7,0,0,1,53.6,52a3.7,3.7,0,0,1,3.2,1.7A8.2,8.2,0,0,1,58,58.6a8.4,8.4,0,0,1-1.2,4.9A3.5,3.5,0,0,1,53.6,65.2Zm0-1.8a1.5,1.5,0,0,0,.9-.2l.7-.8a15.5,15.5,0,0,0,.4-1.5,15.2,15.2,0,0,0,.2-2.3,14,14,0,0,0-.2-2.3,8.4,8.4,0,0,0-.4-1.4,1.9,1.9,0,0,0-.7-.8,1.6,1.6,0,0,0-.9-.3,1.1,1.1,0,0,0-.8.3c-.3.1-.5.4-.7.8a3.9,3.9,0,0,0-.4,1.4,14,14,0,0,0-.2,2.3,15.2,15.2,0,0,0,.2,2.3,5.4,5.4,0,0,0,.4,1.5,2.7,2.7,0,0,0,.7.8A1.1,1.1,0,0,0,53.6,63.4Z" fill="#fff"/><path d="M62.3,56.7a2.2,2.2,0,0,1-1.1-.2l-.8-.5a1.8,1.8,0,0,1-.6-.9,2,2,0,0,1-.2-1.1,2.2,2.2,0,0,1,.2-1.1,3.5,3.5,0,0,1,1.4-1.4l1.1-.2,1,.2a1.8,1.8,0,0,1,.9.6l.6.8A4.3,4.3,0,0,1,65,54a3.6,3.6,0,0,1-.2,1.1l-.6.9a2.6,2.6,0,0,1-.9.5A1.6,1.6,0,0,1,62.3,56.7Zm0-1.1a1.4,1.4,0,0,0,1-.5,1.4,1.4,0,0,0,.4-1.1,1.5,1.5,0,0,0-.4-1.1,1.3,1.3,0,0,0-1-.4,1.5,1.5,0,0,0-1.1.4,2,2,0,0,0-.3,1.1,1.8,1.8,0,0,0,.3,1.1A1.6,1.6,0,0,0,62.3,55.6Z" fill="#fff"/></svg>