<svg id="Layer_1" data-name="Layer 1" xmlns="http://www.w3.org/2000/svg" viewBox="0 0 180 180"><title>pentagons</title><rect width="180" height="180" fill="#d6f0cd"/><polygon points="67 20.5 104 47.5 89.9 91 44.1 91 29.9 47.5 67 20.5" fill="#31b304"/><polygon points="30 134.5 67 161.4 52.9 205 7.1 205 -7.1 161.4 30 134.5" fill="#31b304"/><polygon points="187 20.5 224 47.5 209.9 91 164.1 91 149.9 47.5 187 20.5" fill="#31b304"/><polygon points="127 117.5 89.9 90.5 104.1 47 149.9 47 164 90.5 127 117.5" fill="#258603"/><polygon points="134 189.5 96.9 162.5 111.1 119 156.9 119 171 162.5 134 189.5" fill="#31b304"/><polygon points="7 117.5 -30 90.5 -15.9 47 29.9 47 44.1 90.5 7 117.5" fill="#258603"/><polygon points="67 161.5 30 134.5 44.1 91 89.9 91 104.1 134.5 67 161.5" fill="#258603"/><polygon points="104 47.5 67 20.5 81.1 -23 126.9 -23 141.1 20.5 104 47.5" fill="#258603"/><polygon points="30 47.5 -7 20.5 7.1 -23 52.9 -23 67.1 20.5 30 47.5" fill="#258603"/><path d="M55.1,89H88.4L98.8,57.1A36.6,36.6,0,0,0,90,56,34.9,34.9,0,0,0,55.1,89Z" fill="#fff" opacity="0.7"/><path d="M102.5,58.3,92.3,89.8l27.3,19.8a34.9,34.9,0,0,0-17.1-51.3Z" fill="#fff" opacity="0.7"/><path d="M102.2,152.9A36,36,0,0,0,111,154a34.9,34.9,0,0,0,34.9-33H112.5Z" fill="#fff" opacity="0.7"/><path d="M90,126a36,36,0,0,0,8.8-1.1L88.5,93H55.1A34.9,34.9,0,0,0,90,126Z" fill="#fff" opacity="0.7"/><path d="M41.5,58V56.1h2.8V47.8H42V46.3a6.2,6.2,0,0,0,1.6-.4l1.3-.6h1.7V56.1h2.5V58Z" fill="#fff"/><path d="M55.4,58.2a3.5,3.5,0,0,1-3.2-1.7,8.5,8.5,0,0,1-1.1-4.9c0-2.2.3-3.8,1.1-4.9A3.7,3.7,0,0,1,55.4,45a3.6,3.6,0,0,1,3.1,1.7,8.2,8.2,0,0,1,1.2,4.9,8.4,8.4,0,0,1-1.2,4.9A3.4,3.4,0,0,1,55.4,58.2Zm0-1.8a1.1,1.1,0,0,0,.8-.2,2.7,2.7,0,0,0,.7-.8,5.4,5.4,0,0,0,.4-1.5,15.2,15.2,0,0,0,.2-2.3,14,14,0,0,0-.2-2.3,3.9,3.9,0,0,0-.4-1.4c-.2-.4-.4-.7-.7-.8a1.1,1.1,0,0,0-.8-.3,1.6,1.6,0,0,0-.9.3,1.3,1.3,0,0,0-.6.8,3.8,3.8,0,0,0-.5,1.4,15.5,15.5,0,0,0-.1,2.3,16.2,16.2,0,0,0,.1,2.3,5.3,5.3,0,0,0,.5,1.5,2.4,2.4,0,0,0,.6.8A1.5,1.5,0,0,0,55.4,56.4Z" fill="#fff"/><path d="M65.7,58.2a5.2,5.2,0,0,1-1.8-.2,4,4,0,0,1-1.3-.7,3.1,3.1,0,0,1-.9-1.1,2.6,2.6,0,0,1-.4-1.5,3,3,0,0,1,.2-1,3.6,3.6,0,0,1,.5-.9l.8-.8.8-.5h0a4.6,4.6,0,0,1-1.2-1.2,2.7,2.7,0,0,1-.5-1.8,3.2,3.2,0,0,1,.3-1.4,2.5,2.5,0,0,1,.8-1,2.4,2.4,0,0,1,1.2-.7,4,4,0,0,1,1.5-.3,3.9,3.9,0,0,1,2.7,1,2.8,2.8,0,0,1,.8,1.1,3.2,3.2,0,0,1,.3,1.4,2.9,2.9,0,0,1-.2.9,3,3,0,0,1-.4.8l-.5.7-.6.5h0l.8.5a4.6,4.6,0,0,1,.7.7,4.1,4.1,0,0,1,.5.9,5,5,0,0,1,.2,1.2,2.5,2.5,0,0,1-.4,1.4,2.5,2.5,0,0,1-.8,1,3.2,3.2,0,0,1-1.4.8A4.7,4.7,0,0,1,65.7,58.2Zm0-1.6a2.5,2.5,0,0,0,1.5-.5,1.7,1.7,0,0,0,.6-1.4,2.9,2.9,0,0,0-.2-.9c-.2-.2-.4-.5-.7-.6l-1-.6-1.2-.5a5.2,5.2,0,0,0-1,1.1,2.8,2.8,0,0,0-.3,1.3A1.9,1.9,0,0,0,64,56,2.5,2.5,0,0,0,65.7,56.6Zm.8-5.8.8-1a2.7,2.7,0,0,0,.3-1.2,2.4,2.4,0,0,0-.5-1.4,2.2,2.2,0,0,0-1.4-.5,2,2,0,0,0-1.3.4,1.9,1.9,0,0,0-.5,1.3,2.9,2.9,0,0,0,.2.9l.6.6.8.5Z" fill="#fff"/><path d="M74.3,49.7a2.2,2.2,0,0,1-1.1-.2l-.8-.5a1.8,1.8,0,0,1-.6-.9,2,2,0,0,1-.2-1.1,2.2,2.2,0,0,1,.2-1.1,3.5,3.5,0,0,1,1.4-1.4l1.1-.2,1,.2a1.8,1.8,0,0,1,.9.6l.6.8A4.3,4.3,0,0,1,77,47a3.6,3.6,0,0,1-.2,1.1l-.6.9a2.6,2.6,0,0,1-.9.5A1.6,1.6,0,0,1,74.3,49.7Zm0-1.1a1.4,1.4,0,0,0,1-.5,1.4,1.4,0,0,0,.4-1.1,1.5,1.5,0,0,0-.4-1.1,1.3,1.3,0,0,0-1-.4,1.5,1.5,0,0,0-1.1.4,2,2,0,0,0-.3,1.1,1.8,1.8,0,0,0,.3,1.1A1.6,1.6,0,0,0,74.3,48.6Z" fill="#fff"/><path d="M123.5,73V71.1h2.8V62.8H124V61.3a6.2,6.2,0,0,0,1.6-.4l1.3-.6h1.7V71.1h2.5V73Z" fill="#fff"/><path d="M137.4,73.2a3.5,3.5,0,0,1-3.2-1.7,8.5,8.5,0,0,1-1.1-4.9c0-2.2.3-3.8,1.1-4.9a3.7,3.7,0,0,1,3.2-1.7,3.6,3.6,0,0,1,3.1,1.7,8.2,8.2,0,0,1,1.2,4.9,8.4,8.4,0,0,1-1.2,4.9A3.4,3.4,0,0,1,137.4,73.2Zm0-1.8a1.1,1.1,0,0,0,.8-.2,2.7,2.7,0,0,0,.7-.8,5.4,5.4,0,0,0,.4-1.5,15.2,15.2,0,0,0,.2-2.3,14,14,0,0,0-.2-2.3,3.9,3.9,0,0,0-.4-1.4c-.2-.4-.4-.7-.7-.8a1.1,1.1,0,0,0-.8-.3,1.6,1.6,0,0,0-.9.3,1.3,1.3,0,0,0-.6.8,3.8,3.8,0,0,0-.5,1.4,15.5,15.5,0,0,0-.1,2.3,16.2,16.2,0,0,0,.1,2.3,5.3,5.3,0,0,0,.5,1.5,2.4,2.4,0,0,0,.6.8A1.5,1.5,0,0,0,137.4,71.4Z" fill="#fff"/><path d="M147.7,73.2a5.2,5.2,0,0,1-1.8-.2,4,4,0,0,1-1.3-.7,3.1,3.1,0,0,1-.9-1.1,2.6,2.6,0,0,1-.4-1.5,3,3,0,0,1,.2-1,3.6,3.6,0,0,1,.5-.9l.8-.8.8-.5h0a4.6,4.6,0,0,1-1.2-1.2,2.7,2.7,0,0,1-.5-1.8,3.2,3.2,0,0,1,.3-1.4,2.5,2.5,0,0,1,.8-1,2.4,2.4,0,0,1,1.2-.7,4,4,0,0,1,1.5-.3,3.9,3.9,0,0,1,2.7,1,2.8,2.8,0,0,1,.8,1.1,3.2,3.2,0,0,1,.3,1.4,2.9,2.9,0,0,1-.2.9l-.4.8-.5.7-.6.5h0l.8.5a4.6,4.6,0,0,1,.7.7,4.1,4.1,0,0,1,.5.9,5,5,0,0,1,.2,1.2,2.5,2.5,0,0,1-.4,1.4,2.5,2.5,0,0,1-.8,1,3.2,3.2,0,0,1-1.4.8A4.7,4.7,0,0,1,147.7,73.2Zm0-1.6a2.5,2.5,0,0,0,1.5-.5,1.7,1.7,0,0,0,.6-1.4,2.9,2.9,0,0,0-.2-.9c-.2-.2-.4-.5-.7-.6l-1-.6-1.2-.5a3.1,3.1,0,0,0-.9,1.1,2,2,0,0,0-.4,1.3A1.9,1.9,0,0,0,146,71,2.5,2.5,0,0,0,147.7,71.6Zm.8-5.8.8-1a2.7,2.7,0,0,0,.3-1.2,2.4,2.4,0,0,0-.5-1.4,2.2,2.2,0,0,0-1.4-.5,2,2,0,0,0-1.3.4,1.9,1.9,0,0,0-.5,1.3,2.9,2.9,0,0,0,.2.9l.6.6.8.5Z" fill="#fff"/><path d="M156.3,64.7a2.2,2.2,0,0,1-1.1-.2l-.8-.5a1.8,1.8,0,0,1-.6-.9,2,2,0,0,1-.2-1.1,2.2,2.2,0,0,1,.2-1.1,3.5,3.5,0,0,1,1.4-1.4l1.1-.2,1,.2a1.8,1.8,0,0,1,.9.6l.6.8A4.3,4.3,0,0,1,159,62a3.6,3.6,0,0,1-.2,1.1l-.6.9a2.6,2.6,0,0,1-.9.5A1.6,1.6,0,0,1,156.3,64.7Zm0-1.1a1.4,1.4,0,0,0,1-.5,1.4,1.4,0,0,0,.4-1.1,1.5,1.5,0,0,0-.4-1.1,1.3,1.3,0,0,0-1-.4,1.5,1.5,0,0,0-1.1.4,2,2,0,0,0-.3,1.1,1.8,1.8,0,0,0,.3,1.1A1.6,1.6,0,0,0,156.3,63.6Z" fill="#fff"/><path d="M128.5,165v-1.9h2.8v-8.3H129v-1.5l1.6-.4,1.3-.6h1.7v10.8h2.5V165Z" fill="#fff"/><path d="M142.4,165.2a3.5,3.5,0,0,1-3.2-1.7,8.5,8.5,0,0,1-1.1-4.9c0-2.2.3-3.8,1.1-4.9a3.7,3.7,0,0,1,3.2-1.7,3.6,3.6,0,0,1,3.1,1.7,8.2,8.2,0,0,1,1.2,4.9,8.4,8.4,0,0,1-1.2,4.9A3.4,3.4,0,0,1,142.4,165.2Zm0-1.8a1.1,1.1,0,0,0,.8-.2,2.7,2.7,0,0,0,.7-.8,5.4,5.4,0,0,0,.4-1.5,15.2,15.2,0,0,0,.2-2.3,14,14,0,0,0-.2-2.3,3.9,3.9,0,0,0-.4-1.4c-.2-.4-.4-.7-.7-.8a1.1,1.1,0,0,0-.8-.3l-.9.3a1.3,1.3,0,0,0-.6.8,3.8,3.8,0,0,0-.5,1.4,15.5,15.5,0,0,0-.1,2.3,16.2,16.2,0,0,0,.1,2.3,5.3,5.3,0,0,0,.5,1.5,2.4,2.4,0,0,0,.6.8A1.5,1.5,0,0,0,142.4,163.4Z" fill="#fff"/><path d="M152.7,165.2a5.2,5.2,0,0,1-1.8-.2,4,4,0,0,1-1.3-.7,3.1,3.1,0,0,1-.9-1.1,2.6,2.6,0,0,1-.4-1.5,3,3,0,0,1,.2-1,3.6,3.6,0,0,1,.5-.9l.8-.8.8-.5h0a4.6,4.6,0,0,1-1.2-1.2,2.7,2.7,0,0,1-.5-1.8,3.2,3.2,0,0,1,.3-1.4,2.5,2.5,0,0,1,.8-1,2.4,2.4,0,0,1,1.2-.7,4,4,0,0,1,1.5-.3,3.9,3.9,0,0,1,2.7,1,2.8,2.8,0,0,1,.8,1.1,3.2,3.2,0,0,1,.3,1.4,2.9,2.9,0,0,1-.2.9l-.4.8-.5.7-.6.5h0l.8.5a4.6,4.6,0,0,1,.7.7,4.1,4.1,0,0,1,.5.9,5,5,0,0,1,.2,1.2,2.5,2.5,0,0,1-.4,1.4,2.5,2.5,0,0,1-.8,1,3.2,3.2,0,0,1-1.4.8A4.7,4.7,0,0,1,152.7,165.2Zm0-1.6a2.5,2.5,0,0,0,1.5-.5,1.7,1.7,0,0,0,.6-1.4,2.9,2.9,0,0,0-.2-.9c-.2-.2-.4-.5-.7-.6l-1-.6-1.2-.5a3.1,3.1,0,0,0-.9,1.1,2,2,0,0,0-.4,1.3,1.9,1.9,0,0,0,.6,1.5A2.5,2.5,0,0,0,152.7,163.6Zm.8-5.8.8-1a2.7,2.7,0,0,0,.3-1.2,2.4,2.4,0,0,0-.5-1.4,2.2,2.2,0,0,0-1.4-.5,2,2,0,0,0-1.3.4,1.9,1.9,0,0,0-.5,1.3,2.9,2.9,0,0,0,.2.9l.6.6.8.5Z" fill="#fff"/><path d="M161.3,156.7a2.2,2.2,0,0,1-1.1-.2l-.8-.5a1.8,1.8,0,0,1-.6-.9,2,2,0,0,1-.2-1.1,2.2,2.2,0,0,1,.2-1.1,3.5,3.5,0,0,1,1.4-1.4l1.1-.2,1,.2a1.8,1.8,0,0,1,.9.6l.6.8a4.3,4.3,0,0,1,.2,1.1,3.6,3.6,0,0,1-.2,1.1l-.6.9a2.6,2.6,0,0,1-.9.5A1.6,1.6,0,0,1,161.3,156.7Zm0-1.1a1.4,1.4,0,0,0,1-.5,1.4,1.4,0,0,0,.4-1.1,1.5,1.5,0,0,0-.4-1.1,1.3,1.3,0,0,0-1-.4,1.5,1.5,0,0,0-1.1.4,2,2,0,0,0-.3,1.1,1.8,1.8,0,0,0,.3,1.1A1.6,1.6,0,0,0,161.3,155.6Z" fill="#fff"/><path d="M42.5,139v-1.9h2.8v-8.3H43v-1.5l1.6-.4,1.3-.6h1.7v10.8h2.5V139Z" fill="#fff"/><path d="M56.4,139.2a3.5,3.5,0,0,1-3.2-1.7,8.5,8.5,0,0,1-1.1-4.9c0-2.2.3-3.8,1.1-4.9a3.7,3.7,0,0,1,3.2-1.7,3.6,3.6,0,0,1,3.1,1.7,8.2,8.2,0,0,1,1.2,4.9,8.4,8.4,0,0,1-1.2,4.9A3.4,3.4,0,0,1,56.4,139.2Zm0-1.8a1.1,1.1,0,0,0,.8-.2,2.7,2.7,0,0,0,.7-.8,5.4,5.4,0,0,0,.4-1.5,15.2,15.2,0,0,0,.2-2.3,14,14,0,0,0-.2-2.3,3.9,3.9,0,0,0-.4-1.4c-.2-.4-.4-.7-.7-.8a1.1,1.1,0,0,0-.8-.3l-.9.3a1.3,1.3,0,0,0-.6.8,3.8,3.8,0,0,0-.5,1.4,15.5,15.5,0,0,0-.1,2.3,16.2,16.2,0,0,0,.1,2.3,5.3,5.3,0,0,0,.5,1.5,2.4,2.4,0,0,0,.6.8A1.5,1.5,0,0,0,56.4,137.4Z" fill="#fff"/><path d="M66.7,139.2a5.2,5.2,0,0,1-1.8-.2,4,4,0,0,1-1.3-.7,3.1,3.1,0,0,1-.9-1.1,2.6,2.6,0,0,1-.4-1.5,3,3,0,0,1,.2-1,3.6,3.6,0,0,1,.5-.9l.8-.8.8-.5h0a4.6,4.6,0,0,1-1.2-1.2,2.7,2.7,0,0,1-.5-1.8,3.2,3.2,0,0,1,.3-1.4,2.5,2.5,0,0,1,.8-1,2.4,2.4,0,0,1,1.2-.7,4,4,0,0,1,1.5-.3,3.9,3.9,0,0,1,2.7,1,2.8,2.8,0,0,1,.8,1.1,3.2,3.2,0,0,1,.3,1.4,2.9,2.9,0,0,1-.2.9l-.4.8-.5.7-.6.5h0l.8.5a4.6,4.6,0,0,1,.7.7,4.1,4.1,0,0,1,.5.9,5,5,0,0,1,.2,1.2,2.5,2.5,0,0,1-.4,1.4,2.5,2.5,0,0,1-.8,1,3.2,3.2,0,0,1-1.4.8A4.7,4.7,0,0,1,66.7,139.2Zm0-1.6a2.5,2.5,0,0,0,1.5-.5,1.7,1.7,0,0,0,.6-1.4,2.9,2.9,0,0,0-.2-.9c-.2-.2-.4-.5-.7-.6l-1-.6-1.2-.5a5.2,5.2,0,0,0-1,1.1,2.8,2.8,0,0,0-.3,1.3A1.9,1.9,0,0,0,65,137,2.5,2.5,0,0,0,66.7,137.6Zm.8-5.8.8-1a2.7,2.7,0,0,0,.3-1.2,2.4,2.4,0,0,0-.5-1.4,2.2,2.2,0,0,0-1.4-.5,2,2,0,0,0-1.3.4,1.9,1.9,0,0,0-.5,1.3,2.9,2.9,0,0,0,.2.9l.6.6.8.5Z" fill="#fff"/><path d="M75.3,130.7a2.2,2.2,0,0,1-1.1-.2l-.8-.5a1.8,1.8,0,0,1-.6-.9,2,2,0,0,1-.2-1.1,2.2,2.2,0,0,1,.2-1.1,3.5,3.5,0,0,1,1.4-1.4l1.1-.2,1,.2a1.8,1.8,0,0,1,.9.6l.6.8A4.3,4.3,0,0,1,78,128a3.6,3.6,0,0,1-.2,1.1l-.6.9a2.6,2.6,0,0,1-.9.5A1.6,1.6,0,0,1,75.3,130.7Zm0-1.1a1.4,1.4,0,0,0,1-.5,1.4,1.4,0,0,0,.4-1.1,1.5,1.5,0,0,0-.4-1.1,1.3,1.3,0,0,0-1-.4,1.5,1.5,0,0,0-1.1.4,2,2,0,0,0-.3,1.1,1.8,1.8,0,0,0,.3,1.1A1.6,1.6,0,0,0,75.3,129.6Z" fill="#fff"/></svg>