<svg id="Layer_1" data-name="Layer 1" xmlns="http://www.w3.org/2000/svg" viewBox="0 0 220 220"><title>pentagons-3</title><polygon points="39.1 145.6 -1.6 153.4 -1.6 116.3 18.8 98.3 39.1 116.3 39.1 145.6" fill="#2ba058"/><polygon points="79.8 145.6 39.1 153.4 39.1 116.3 59.5 98.3 79.8 116.3 79.8 145.6" fill="#31b304"/><polygon points="120.5 145.6 79.8 153.4 79.8 116.3 100.2 98.3 120.5 116.3 120.5 145.6" fill="#258dab"/><polygon points="161.2 145.6 120.5 153.4 120.5 116.3 140.8 98.3 161.2 116.3 161.2 145.6" fill="#1f7aff"/><polygon points="201.9 145.6 161.2 153.4 161.2 116.3 181.6 98.3 201.9 116.3 201.9 145.6" fill="#2ba058"/><polygon points="242.6 145.6 201.9 153.4 201.9 116.3 222.3 98.3 242.6 116.3 242.6 145.6" fill="#31b304"/><polygon points="181.6 69.6 222.3 61.8 222.3 98.9 201.9 116.9 181.6 98.9 181.6 69.6" fill="#258dab"/><polygon points="140.8 69.6 181.6 61.8 181.6 98.9 161.2 116.9 140.8 98.9 140.8 69.6" fill="#31b304"/><polygon points="100.2 69.6 140.8 61.8 140.8 98.9 120.5 116.9 100.2 98.9 100.2 69.6" fill="#2ba058"/><polygon points="59.5 69.6 100.2 61.8 100.2 98.9 79.8 116.9 59.5 98.9 59.5 69.6" fill="#1f7aff"/><polygon points="18.8 69.6 59.5 61.8 59.5 98.9 39.1 116.9 18.8 98.9 18.8 69.6" fill="#258dab"/><polygon points="-21.9 69.6 18.8 61.8 18.8 98.9 -1.6 116.9 -21.9 98.9 -21.9 69.6" fill="#31b304"/><polygon points="18.8 61.8 -21.9 69.6 -21.9 32.5 -1.6 14.5 18.8 32.5 18.8 61.8" fill="#1f7aff"/><polygon points="59.5 61.8 18.8 69.6 18.8 32.5 39.1 14.5 59.5 32.5 59.5 61.8" fill="#2ba058"/><polygon points="100.2 61.8 59.5 69.6 59.5 32.5 79.8 14.5 100.2 32.5 100.2 61.8" fill="#31b304"/><polygon points="140.8 61.8 100.2 69.6 100.2 32.5 120.5 14.5 140.8 32.5 140.8 61.8" fill="#258dab"/><polygon points="181.6 61.8 140.8 69.6 140.8 32.5 161.2 14.5 181.6 32.5 181.6 61.8" fill="#1f7aff"/><polygon points="222.3 61.8 181.6 69.6 181.6 32.5 201.9 14.5 222.3 32.5 222.3 61.8" fill="#2ba058"/><polygon points="201.9 -14.2 242.6 -22 242.6 15.1 222.3 33.1 201.9 15.1 201.9 -14.2" fill="#258dab"/><polygon points="161.2 -14.2 201.9 -22 201.9 15.1 181.6 33.1 161.2 15.1 161.2 -14.2" fill="#31b304"/><polygon points="120.5 -14.2 161.2 -22 161.2 15.1 140.8 33.1 120.5 15.1 120.5 -14.2" fill="#2ba058"/><polygon points="79.8 -14.2 120.5 -22 120.5 15.1 100.2 33.1 79.8 15.1 79.8 -14.2" fill="#1f7aff"/><polygon points="39.1 -14.2 79.8 -22 79.8 15.1 59.5 33.1 39.1 15.1 39.1 -14.2" fill="#258dab"/><polygon points="-1.6 -14.2 39.1 -22 39.1 15.1 18.8 33.1 -1.6 15.1 -1.6 -14.2" fill="#31b304"/><polygon points="18.8 229.4 -21.9 237.2 -21.9 200.1 -1.6 182.1 18.8 200.1 18.8 229.4" fill="#2ba058"/><polygon points="59.5 229.4 18.8 237.2 18.8 200.1 39.1 182.1 59.5 200.1 59.5 229.4" fill="#31b304"/><polygon points="100.2 229.4 59.5 237.2 59.5 200.1 79.8 182.1 100.2 200.1 100.2 229.4" fill="#258dab"/><polygon points="140.8 229.4 100.2 237.2 100.2 200.1 120.5 182.1 140.8 200.1 140.8 229.4" fill="#1f7aff"/><polygon points="181.6 229.4 140.8 237.2 140.8 200.1 161.2 182.1 181.6 200.1 181.6 229.4" fill="#2ba058"/><polygon points="222.3 229.4 181.6 237.2 181.6 200.1 201.9 182.1 222.3 200.1 222.3 229.4" fill="#31b304"/><polygon points="201.9 153.4 242.6 145.6 242.6 182.7 222.3 200.7 201.9 182.7 201.9 153.4" fill="#1f7aff"/><polygon points="161.2 153.4 201.9 145.6 201.9 182.7 181.6 200.7 161.2 182.7 161.2 153.4" fill="#258dab"/><polygon points="120.5 153.4 161.2 145.6 161.2 182.7 140.8 200.7 120.5 182.7 120.5 153.4" fill="#31b304"/><polygon points="79.8 153.4 120.5 145.6 120.5 182.7 100.2 200.7 79.8 182.7 79.8 153.4" fill="#2ba058"/><polygon points="39.1 153.4 79.8 145.6 79.8 182.7 59.5 200.7 39.1 182.7 39.1 153.4" fill="#1f7aff"/><polygon points="-1.6 153.4 39.1 145.6 39.1 182.7 18.8 200.7 -1.6 182.7 -1.6 153.4" fill="#258dab"/></svg>