<svg id="Layer_1" data-name="Layer 1" xmlns="http://www.w3.org/2000/svg" viewBox="0 0 180 180"><title>squares</title><rect x="-10" y="-10" width="50" height="50" fill="#1f7aff"/><rect x="40" y="-10" width="50" height="50" fill="#175cbf"/><rect x="90" y="-10" width="50" height="50" fill="#1f7aff"/><rect x="-10" y="40" width="50" height="50" fill="#175cbf"/><rect x="40" y="40" width="50" height="50" fill="#1f7aff"/><rect x="90" y="40" width="50" height="50" fill="#175cbf"/><rect x="-10" y="90" width="50" height="50" fill="#1f7aff"/><rect x="40" y="90" width="50" height="50" fill="#175cbf"/><rect x="140" y="-10" width="50" height="50" fill="#175cbf"/><rect x="140" y="40" width="50" height="50" fill="#1f7aff"/><rect x="-10" y="140" width="50" height="50" fill="#175cbf"/><rect x="40" y="140" width="50" height="50" fill="#1f7aff"/><rect x="90" y="140" width="50" height="50" fill="#175cbf"/><rect x="140" y="140" width="50" height="50" fill="#1f7aff"/><rect x="140" y="90" width="50" height="50" fill="#175cbf"/><rect x="90" y="90" width="50" height="50" fill="#1f7aff"/><path d="M88,88V55.1A35,35,0,0,0,55.1,88Z" fill="#fff" opacity="0.7"/><path d="M92,55.1V88h32.9A35,35,0,0,0,92,55.1Z" fill="#fff" opacity="0.7"/><path d="M88,124.9V92H55.1A35,35,0,0,0,88,124.9Z" fill="#fff" opacity="0.7"/><path d="M92,124.9A35,35,0,0,0,124.9,92H92Z" fill="#fff" opacity="0.7"/><path d="M119.3,64.2a3.8,3.8,0,0,1-1.9-.4,5.6,5.6,0,0,1-1.5-1l1.3-1.4a2.2,2.2,0,0,0,.9.7,2.3,2.3,0,0,0,1.1.3,2,2,0,0,0,1.1-.3,1.9,1.9,0,0,0,1-.8,3.7,3.7,0,0,0,.6-1.4,7.3,7.3,0,0,0,.3-2.2,6.9,6.9,0,0,1-1.3,1.1,4,4,0,0,1-1.5.3,3.9,3.9,0,0,1-1.5-.2,4.1,4.1,0,0,1-1.1-.7,3.5,3.5,0,0,1-.8-1.3,4.3,4.3,0,0,1-.3-1.7,3.3,3.3,0,0,1,.4-1.7,4.1,4.1,0,0,1,.8-1.3,3.8,3.8,0,0,1,1.3-.9,4,4,0,0,1,1.5-.3,4.5,4.5,0,0,1,3.3,1.5,7.5,7.5,0,0,1,1,2,10.6,10.6,0,0,1,.3,2.7,10,10,0,0,1-.4,3.2,5.1,5.1,0,0,1-1.1,2.2,3.1,3.1,0,0,1-1.6,1.2A4.1,4.1,0,0,1,119.3,64.2Zm.6-6.7a1.7,1.7,0,0,0,1.1-.4,3.1,3.1,0,0,0,1.2-1.1,4.5,4.5,0,0,0-.9-2.4,1.9,1.9,0,0,0-1.5-.8,1.8,1.8,0,0,0-1.4.6,2.4,2.4,0,0,0-.5,1.8,2.2,2.2,0,0,0,.5,1.7A1.8,1.8,0,0,0,119.9,57.5Z" fill="#fff"/><path d="M130.4,64.2a3.5,3.5,0,0,1-3.2-1.7,8.5,8.5,0,0,1-1.1-4.9c0-2.2.3-3.8,1.1-4.9a3.7,3.7,0,0,1,3.2-1.7,3.6,3.6,0,0,1,3.1,1.7,8.2,8.2,0,0,1,1.2,4.9,8.4,8.4,0,0,1-1.2,4.9A3.4,3.4,0,0,1,130.4,64.2Zm0-1.8a1.1,1.1,0,0,0,.8-.2,2.7,2.7,0,0,0,.7-.8,5.4,5.4,0,0,0,.4-1.5,15.2,15.2,0,0,0,.2-2.3,14,14,0,0,0-.2-2.3,3.9,3.9,0,0,0-.4-1.4c-.2-.4-.4-.7-.7-.8a1.1,1.1,0,0,0-.8-.3,1.6,1.6,0,0,0-.9.3,1.3,1.3,0,0,0-.6.8,3.8,3.8,0,0,0-.5,1.4,15.5,15.5,0,0,0-.1,2.3,16.2,16.2,0,0,0,.1,2.3,5.3,5.3,0,0,0,.5,1.5,2.4,2.4,0,0,0,.6.8A1.5,1.5,0,0,0,130.4,62.4Z" fill="#fff"/><path d="M139,55.7a1.6,1.6,0,0,1-1-.2,2.6,2.6,0,0,1-.9-.5,7,7,0,0,1-.6-.9,3.6,3.6,0,0,1-.2-1.1,4.3,4.3,0,0,1,.2-1.1l.6-.8a1.8,1.8,0,0,1,.9-.6l1-.2,1.1.2a3.5,3.5,0,0,1,1.4,1.4,4.3,4.3,0,0,1,.2,1.1,3.6,3.6,0,0,1-.2,1.1,1.8,1.8,0,0,1-.6.9l-.8.5A2.2,2.2,0,0,1,139,55.7Zm0-1.1a1.2,1.2,0,0,0,1-.5,1.4,1.4,0,0,0,.4-1.1,1.5,1.5,0,0,0-.4-1.1,1.4,1.4,0,0,0-2,0,1.5,1.5,0,0,0-.4,1.1,1.4,1.4,0,0,0,.4,1.1A1.2,1.2,0,0,0,139,54.6Z" fill="#fff"/><path d="M48.3,64.2a3.8,3.8,0,0,1-1.9-.4,5.6,5.6,0,0,1-1.5-1l1.3-1.4a2.2,2.2,0,0,0,.9.7,2.3,2.3,0,0,0,1.1.3,2.7,2.7,0,0,0,1.2-.3,2.2,2.2,0,0,0,.9-.8,3.7,3.7,0,0,0,.6-1.4,7.3,7.3,0,0,0,.3-2.2,6.9,6.9,0,0,1-1.3,1.1,4,4,0,0,1-1.5.3,3.9,3.9,0,0,1-1.5-.2,4.1,4.1,0,0,1-1.1-.7,3.5,3.5,0,0,1-.8-1.3,4.3,4.3,0,0,1-.3-1.7,3.3,3.3,0,0,1,.4-1.7,4.1,4.1,0,0,1,.8-1.3,3.8,3.8,0,0,1,1.3-.9,4,4,0,0,1,1.5-.3A4.5,4.5,0,0,1,52,52.5a7.5,7.5,0,0,1,1,2,10.6,10.6,0,0,1,.3,2.7,10,10,0,0,1-.4,3.2,5.1,5.1,0,0,1-1.1,2.2,3.1,3.1,0,0,1-1.6,1.2A4.1,4.1,0,0,1,48.3,64.2Zm.6-6.7a1.7,1.7,0,0,0,1.1-.4A3.1,3.1,0,0,0,51.2,56a4.5,4.5,0,0,0-.9-2.4,1.9,1.9,0,0,0-1.5-.8,1.8,1.8,0,0,0-1.4.6,2.4,2.4,0,0,0-.5,1.8,2.2,2.2,0,0,0,.5,1.7A1.8,1.8,0,0,0,48.9,57.5Z" fill="#fff"/><path d="M59.4,64.2a3.5,3.5,0,0,1-3.2-1.7,8.5,8.5,0,0,1-1.1-4.9c0-2.2.3-3.8,1.1-4.9A3.7,3.7,0,0,1,59.4,51a3.6,3.6,0,0,1,3.1,1.7,8.2,8.2,0,0,1,1.2,4.9,8.4,8.4,0,0,1-1.2,4.9A3.4,3.4,0,0,1,59.4,64.2Zm0-1.8a1.1,1.1,0,0,0,.8-.2,2.7,2.7,0,0,0,.7-.8,5.4,5.4,0,0,0,.4-1.5,15.2,15.2,0,0,0,.2-2.3,14,14,0,0,0-.2-2.3,3.9,3.9,0,0,0-.4-1.4c-.2-.4-.4-.7-.7-.8a1.1,1.1,0,0,0-.8-.3,1.6,1.6,0,0,0-.9.3,1.3,1.3,0,0,0-.6.8,3.8,3.8,0,0,0-.5,1.4,15.5,15.5,0,0,0-.1,2.3,16.2,16.2,0,0,0,.1,2.3,5.3,5.3,0,0,0,.5,1.5,2.4,2.4,0,0,0,.6.8A1.5,1.5,0,0,0,59.4,62.4Z" fill="#fff"/><path d="M68,55.7a1.6,1.6,0,0,1-1-.2,2.6,2.6,0,0,1-.9-.5l-.6-.9a3.6,3.6,0,0,1-.2-1.1,4.3,4.3,0,0,1,.2-1.1l.6-.8a1.8,1.8,0,0,1,.9-.6l1-.2,1.1.2a3.5,3.5,0,0,1,1.4,1.4,4.3,4.3,0,0,1,.2,1.1,3.6,3.6,0,0,1-.2,1.1,1.8,1.8,0,0,1-.6.9l-.8.5A2.2,2.2,0,0,1,68,55.7Zm0-1.1a1.2,1.2,0,0,0,1-.5,1.4,1.4,0,0,0,.4-1.1,1.5,1.5,0,0,0-.4-1.1,1.5,1.5,0,0,0-2,0,1.5,1.5,0,0,0-.4,1.1,1.4,1.4,0,0,0,.4,1.1A1.2,1.2,0,0,0,68,54.6Z" fill="#fff"/><path d="M41.3,130.2a3.8,3.8,0,0,1-1.9-.4,5.6,5.6,0,0,1-1.5-1l1.3-1.4a2.2,2.2,0,0,0,.9.7,2.3,2.3,0,0,0,1.1.3,2.7,2.7,0,0,0,1.2-.3,2.2,2.2,0,0,0,.9-.8,3.7,3.7,0,0,0,.6-1.4,7.3,7.3,0,0,0,.3-2.2,6.9,6.9,0,0,1-1.3,1.1,4,4,0,0,1-1.5.3,3.9,3.9,0,0,1-1.5-.2,4.1,4.1,0,0,1-1.1-.7,3.5,3.5,0,0,1-.8-1.3,4.3,4.3,0,0,1-.3-1.7,3.3,3.3,0,0,1,.4-1.7,4.1,4.1,0,0,1,.8-1.3,3.8,3.8,0,0,1,1.3-.9,4,4,0,0,1,1.5-.3,4.5,4.5,0,0,1,3.3,1.5,7.5,7.5,0,0,1,1,2,10.6,10.6,0,0,1,.3,2.7,10,10,0,0,1-.4,3.2,5.1,5.1,0,0,1-1.1,2.2,3.1,3.1,0,0,1-1.6,1.2A4.1,4.1,0,0,1,41.3,130.2Zm.6-6.7a1.7,1.7,0,0,0,1.1-.4,3.1,3.1,0,0,0,1.2-1.1,4.5,4.5,0,0,0-.9-2.4,1.9,1.9,0,0,0-1.5-.8,1.8,1.8,0,0,0-1.4.6,2.4,2.4,0,0,0-.5,1.8,2.2,2.2,0,0,0,.5,1.7A1.8,1.8,0,0,0,41.9,123.5Z" fill="#fff"/><path d="M52.4,130.2a3.5,3.5,0,0,1-3.2-1.7,8.5,8.5,0,0,1-1.1-4.9c0-2.2.3-3.8,1.1-4.9a3.7,3.7,0,0,1,3.2-1.7,3.6,3.6,0,0,1,3.1,1.7,8.2,8.2,0,0,1,1.2,4.9,8.4,8.4,0,0,1-1.2,4.9A3.4,3.4,0,0,1,52.4,130.2Zm0-1.8a1.1,1.1,0,0,0,.8-.2,2.7,2.7,0,0,0,.7-.8,5.4,5.4,0,0,0,.4-1.5,15.2,15.2,0,0,0,.2-2.3,14,14,0,0,0-.2-2.3,3.9,3.9,0,0,0-.4-1.4c-.2-.4-.4-.7-.7-.8a1.1,1.1,0,0,0-.8-.3l-.9.3a1.3,1.3,0,0,0-.6.8,3.8,3.8,0,0,0-.5,1.4,15.5,15.5,0,0,0-.1,2.3,16.2,16.2,0,0,0,.1,2.3,5.3,5.3,0,0,0,.5,1.5,2.4,2.4,0,0,0,.6.8A1.5,1.5,0,0,0,52.4,128.4Z" fill="#fff"/><path d="M61,121.7a1.6,1.6,0,0,1-1-.2,2.6,2.6,0,0,1-.9-.5l-.6-.9a3.6,3.6,0,0,1-.2-1.1,4.3,4.3,0,0,1,.2-1.1l.6-.8a1.8,1.8,0,0,1,.9-.6l1-.2,1.1.2a3.5,3.5,0,0,1,1.4,1.4,4.3,4.3,0,0,1,.2,1.1,3.6,3.6,0,0,1-.2,1.1,1.8,1.8,0,0,1-.6.9l-.8.5A2.2,2.2,0,0,1,61,121.7Zm0-1.1a1.2,1.2,0,0,0,1-.5,1.4,1.4,0,0,0,.4-1.1,1.5,1.5,0,0,0-.4-1.1,1.5,1.5,0,0,0-2,0,1.5,1.5,0,0,0-.4,1.1,1.4,1.4,0,0,0,.4,1.1A1.2,1.2,0,0,0,61,120.6Z" fill="#fff"/><path d="M121.3,130.2a3.8,3.8,0,0,1-1.9-.4,5.6,5.6,0,0,1-1.5-1l1.3-1.4a2.2,2.2,0,0,0,.9.7,2.3,2.3,0,0,0,1.1.3,2,2,0,0,0,1.1-.3,1.9,1.9,0,0,0,1-.8,3.7,3.7,0,0,0,.6-1.4,7.3,7.3,0,0,0,.3-2.2,6.9,6.9,0,0,1-1.3,1.1,4,4,0,0,1-1.5.3,3.9,3.9,0,0,1-1.5-.2,4.1,4.1,0,0,1-1.1-.7,3.5,3.5,0,0,1-.8-1.3,4.3,4.3,0,0,1-.3-1.7,3.3,3.3,0,0,1,.4-1.7,4.1,4.1,0,0,1,.8-1.3,3.8,3.8,0,0,1,1.3-.9,4,4,0,0,1,1.5-.3,4.5,4.5,0,0,1,3.3,1.5,7.5,7.5,0,0,1,1,2,10.6,10.6,0,0,1,.3,2.7,10,10,0,0,1-.4,3.2,5.1,5.1,0,0,1-1.1,2.2,3.1,3.1,0,0,1-1.6,1.2A4.1,4.1,0,0,1,121.3,130.2Zm.6-6.7a1.7,1.7,0,0,0,1.1-.4,3.1,3.1,0,0,0,1.2-1.1,4.5,4.5,0,0,0-.9-2.4,1.9,1.9,0,0,0-1.5-.8,1.8,1.8,0,0,0-1.4.6,2.4,2.4,0,0,0-.5,1.8,2.2,2.2,0,0,0,.5,1.7A1.8,1.8,0,0,0,121.9,123.5Z" fill="#fff"/><path d="M132.4,130.2a3.5,3.5,0,0,1-3.2-1.7,8.5,8.5,0,0,1-1.1-4.9c0-2.2.3-3.8,1.1-4.9a3.7,3.7,0,0,1,3.2-1.7,3.6,3.6,0,0,1,3.1,1.7,8.2,8.2,0,0,1,1.2,4.9,8.4,8.4,0,0,1-1.2,4.9A3.4,3.4,0,0,1,132.4,130.2Zm0-1.8a1.1,1.1,0,0,0,.8-.2,2.7,2.7,0,0,0,.7-.8,5.4,5.4,0,0,0,.4-1.5,15.2,15.2,0,0,0,.2-2.3,14,14,0,0,0-.2-2.3,3.9,3.9,0,0,0-.4-1.4c-.2-.4-.4-.7-.7-.8a1.1,1.1,0,0,0-.8-.3,1.6,1.6,0,0,0-.9.3,1.3,1.3,0,0,0-.6.8,3.8,3.8,0,0,0-.5,1.4,15.5,15.5,0,0,0-.1,2.3,16.2,16.2,0,0,0,.1,2.3,5.3,5.3,0,0,0,.5,1.5,2.4,2.4,0,0,0,.6.8A1.5,1.5,0,0,0,132.4,128.4Z" fill="#fff"/><path d="M141,121.7a1.6,1.6,0,0,1-1-.2,2.6,2.6,0,0,1-.9-.5,7,7,0,0,1-.6-.9,3.6,3.6,0,0,1-.2-1.1,4.3,4.3,0,0,1,.2-1.1l.6-.8a1.8,1.8,0,0,1,.9-.6l1-.2,1.1.2a3.5,3.5,0,0,1,1.4,1.4,4.3,4.3,0,0,1,.2,1.1,3.6,3.6,0,0,1-.2,1.1,1.8,1.8,0,0,1-.6.9l-.8.5A2.2,2.2,0,0,1,141,121.7Zm0-1.1a1.2,1.2,0,0,0,1-.5,1.4,1.4,0,0,0,.4-1.1,1.5,1.5,0,0,0-.4-1.1,1.5,1.5,0,0,0-2,0,1.5,1.5,0,0,0-.4,1.1,1.4,1.4,0,0,0,.4,1.1A1.2,1.2,0,0,0,141,120.6Z" fill="#fff"/></svg>