<svg xmlns="http://www.w3.org/2000/svg" viewBox="0 0 360 240"><title>tessellation</title><polygon points="41 0 71 0 97 15 112 41 112 71 97 97 71 112 41 112 15 97 0 71 0 41 15 15 41 0" fill="#b30469"/><rect x="102.5" y="76.3" width="30" height="30" transform="translate(61.4 -46.5) rotate(30)" fill="#ff941f"/><polygon points="112 41 138 26 164 41 164 71 138 86 112 71 112 41" fill="#31b304"/><rect x="-20.5" y="5.3" width="30" height="30" transform="translate(9.4 5.5) rotate(30)" fill="#ff941f"/><polyline points="41 0 15 15 -11 0" fill="#31b304"/><polygon points="71 112 97 97 123 112 123 142 97 157 71 142 71 112" fill="#31b304"/><polyline points="123 0 97 15 71 0" fill="#31b304"/><rect x="41" y="112" width="30" height="30" fill="#ff941f"/><rect x="102.5" y="5.5" width="30" height="30" transform="translate(5.5 61.5) rotate(-30)" fill="#ff941f"/><polygon points="164 71 194 71 220 86 235 112 235 142 220 168 194 183 164 183 138 168 123 142 123 112 138 86 164 71" fill="#b30469"/><polygon points="286.8 0 316.8 0 342.9 15.1 358 41.1 358 71.1 342.9 97 316.8 112 286.8 112 260.9 97 246 71.1 246 41.1 260.9 15.1 286.8 0" fill="#b30469"/><polygon points="286.8 142 316.8 142 342.9 157 358 183 358 213 342.9 239 316.8 254 286.8 254 260.9 239 246 213 246 183 260.9 157 286.8 142" fill="#b30469"/><polyline points="123 254 138 228 164 213 194 213 220 228 235 254" fill="#b30469"/><polyline points="234.9 0 219.9 26 193.9 41 163.9 41 137.9 26 122.9 0" fill="#b30469"/><polygon points="40.9 142 70.9 142 96.9 157.1 112 183.1 112 213.1 96.9 239 70.9 254 40.9 254 14.9 239 0 213.1 0 183.1 14.9 157.1 40.9 142" fill="#b30469"/><rect x="225.5" y="147.3" width="30" height="30" transform="translate(113.4 -98.5) rotate(30)" fill="#ff941f"/><rect x="348.5" y="218.3" width="30" height="30" transform="translate(165.4 -150.5) rotate(30)" fill="#ff941f"/><rect x="102.5" y="218.3" width="30" height="30" transform="translate(132.4 -27.5) rotate(30)" fill="#ff941f"/><rect x="348.5" y="76.3" width="30" height="30" transform="translate(94.4 -169.5) rotate(30)" fill="#ff941f"/><polygon points="235 112 261 97 287 112 287 142 261 157 235 142 235 112" fill="#31b304"/><rect x="225.5" y="5.3" width="30" height="30" transform="translate(42.4 -117.5) rotate(30)" fill="#ff941f"/><polyline points="287 0 261 15 235 0" fill="#31b304"/><polygon points="194 183 220 168 246 183 246 213 220 228 194 213 194 183" fill="#31b304"/><polygon points="194 41 220 26 246 41 246 71 220 86 194 71 194 41" fill="#31b304"/><rect x="164" y="183" width="30" height="30" fill="#ff941f"/><rect x="164" y="41" width="30" height="30" fill="#ff941f"/><rect x="225.5" y="76.5" width="30" height="30" transform="translate(-13.5 132.5) rotate(-30)" fill="#ff941f"/><rect x="225.5" y="218.5" width="30" height="30" transform="translate(-84.6 151.5) rotate(-30)" fill="#ff941f"/><rect x="-20.1" y="218.5" width="30" height="30" transform="translate(-117.5 28.7) rotate(-30)" fill="#ff941f"/><rect x="-20.5" y="147.3" width="30" height="30" transform="translate(80.4 24.5) rotate(30)" fill="#ff941f"/><polygon points="-11 112 15 97 41 112 41 142 15 157 -11 142 -11 112" fill="#31b304"/><rect x="-20.5" y="76.5" width="30" height="30" transform="translate(-46.5 9.5) rotate(-30)" fill="#ff941f"/><polygon points="112 183 138 168 164 183 164 213 138 228 112 213 112 183" fill="#31b304"/><rect x="102.5" y="147.5" width="30" height="30" transform="translate(-65.5 80.5) rotate(-30)" fill="#ff941f"/><polygon points="358 41 384 26 410 41 410 71 384 86 358 71 358 41" fill="#31b304"/><polygon points="317 112 343 97 369 112 369 142 343 157 317 142 317 112" fill="#31b304"/><polyline points="369 0 343 15 317 0" fill="#31b304"/><rect x="287" y="112" width="30" height="30" fill="#ff941f"/><rect x="348.5" y="5.5" width="30" height="30" transform="translate(38.4 184.5) rotate(-30)" fill="#ff941f"/><polygon points="358 183 384 168 410 183 410 213 384 228 358 213 358 183" fill="#31b304"/><polyline points="71 254 97 239 123 254" fill="#31b304"/><polyline points="235 254 261 239 287 254" fill="#31b304"/><polyline points="317 254 343 239 369 254" fill="#31b304"/><polyline points="-11 254 15 239 41 254" fill="#31b304"/><rect x="348.5" y="147.5" width="30" height="30" transform="translate(-32.6 203.5) rotate(-30)" fill="#ff941f"/></svg>