<svg id="Layer_1" data-name="Layer 1" xmlns="http://www.w3.org/2000/svg" viewBox="0 0 180 180"><title>triangles</title><polygon points="30 -14 60 38 0 38 30 -14" fill="#cc5731"/><polygon points="60 38 30 -14 90 -14 60 38" fill="#ff941f"/><polygon points="90 -14 120 38 60 38 90 -14" fill="#cc5731"/><polygon points="120 38 90 -14 150 -14 120 38" fill="#ff941f"/><polygon points="150 -14 180 38 120 38 150 -14" fill="#cc5731"/><polygon points="180 38 150 -14 210 -14 180 38" fill="#ff941f"/><polygon points="60 38 90 90 30 90 60 38" fill="#cc5731"/><polygon points="90 90 60 38 120 38 90 90" fill="#ff941f"/><polygon points="120 38 150 90 90 90 120 38" fill="#cc5731"/><polygon points="150 90 120 38 180 38 150 90" fill="#ff941f"/><polygon points="30 90 0 38 60 38 30 90" fill="#ff941f"/><polygon points="180 38 210 90 150 90 180 38" fill="#cc5731"/><polygon points="30 90 60 142 0 142 30 90" fill="#cc5731"/><polygon points="60 142 30 90 90 90 60 142" fill="#ff941f"/><polygon points="90 90 120 142 60 142 90 90" fill="#cc5731"/><polygon points="120 142 90 90 150 90 120 142" fill="#ff941f"/><polygon points="150 90 180 142 120 142 150 90" fill="#cc5731"/><polygon points="180 142 150 90 210 90 180 142" fill="#ff941f"/><polygon points="60 142 90 194 30 194 60 142" fill="#cc5731"/><polygon points="90 194 60 142 120 142 90 194" fill="#ff941f"/><polygon points="120 142 150 194 90 194 120 142" fill="#cc5731"/><polygon points="150 194 120 142 180 142 150 194" fill="#ff941f"/><polygon points="30 194 0 142 60 142 30 194" fill="#ff941f"/><polygon points="180 142 210 194 150 194 180 142" fill="#cc5731"/><polygon points="0 38 -30 -14 30 -14 0 38" fill="#ff941f"/><polygon points="0 38 30 90 -30 90 0 38" fill="#cc5731"/><polygon points="0 142 -30 90 30 90 0 142" fill="#ff941f"/><polygon points="0 142 30 194 -30 194 0 142" fill="#cc5731"/><path d="M93.5,92l15.7,27.3A35,35,0,0,0,124.9,92Z" fill="#fff" opacity="0.7"/><path d="M90,125a34.3,34.3,0,0,0,15.7-3.7L90,94,74.3,121.3A34.3,34.3,0,0,0,90,125Z" fill="#fff" opacity="0.7"/><path d="M70.8,119.3,86.5,92H55.1A35,35,0,0,0,70.8,119.3Z" fill="#fff" opacity="0.7"/><path d="M55.1,88H86.5L70.8,60.7A35,35,0,0,0,55.1,88Z" fill="#fff" opacity="0.7"/><path d="M90,86l15.7-27.3a35.2,35.2,0,0,0-31.4,0Z" fill="#fff" opacity="0.7"/><path d="M109.2,60.7,93.5,88h31.4A35,35,0,0,0,109.2,60.7Z" fill="#fff" opacity="0.7"/><path d="M83.5,50.2a5.7,5.7,0,0,1-1.8-.3,7.9,7.9,0,0,1-1.5-1.2,6.7,6.7,0,0,1-1-1.9,11.4,11.4,0,0,1-.3-2.8,10.4,10.4,0,0,1,.4-3.2,8.2,8.2,0,0,1,1.1-2.1A4.8,4.8,0,0,1,82,37.4a5.8,5.8,0,0,1,1.9-.4,4.2,4.2,0,0,1,2,.5,4.5,4.5,0,0,1,1.4,1L86,39.9a2.2,2.2,0,0,0-.9-.7,2.2,2.2,0,0,0-2.2,0,1.4,1.4,0,0,0-.9.8,3.7,3.7,0,0,0-.7,1.4,6.9,6.9,0,0,0-.3,2.2,6.9,6.9,0,0,1,1.3-1.1,4.2,4.2,0,0,1,1.5-.4,4,4,0,0,1,1.5.3,2.9,2.9,0,0,1,1.2.7,3.5,3.5,0,0,1,.7,1.2,4.8,4.8,0,0,1,.3,1.8,4.7,4.7,0,0,1-.3,1.7,3.8,3.8,0,0,1-.9,1.3,2.9,2.9,0,0,1-1.3.8A3.7,3.7,0,0,1,83.5,50.2Zm0-1.7a1.8,1.8,0,0,0,1.3-.6,2.8,2.8,0,0,0,.6-1.8,2.1,2.1,0,0,0-.6-1.7,1.7,1.7,0,0,0-1.4-.6,2.7,2.7,0,0,0-1.2.3,3.2,3.2,0,0,0-1.1,1.2,4.5,4.5,0,0,0,.8,2.4A1.9,1.9,0,0,0,83.5,48.5Z" fill="#fff"/><path d="M93.4,50.2a3.5,3.5,0,0,1-3.2-1.7,8.5,8.5,0,0,1-1.1-4.9c0-2.2.3-3.8,1.1-4.9A3.7,3.7,0,0,1,93.4,37a3.6,3.6,0,0,1,3.1,1.7,8.2,8.2,0,0,1,1.2,4.9,8.4,8.4,0,0,1-1.2,4.9A3.4,3.4,0,0,1,93.4,50.2Zm0-1.8a1.1,1.1,0,0,0,.8-.2,2.7,2.7,0,0,0,.7-.8,5.4,5.4,0,0,0,.4-1.5,15.2,15.2,0,0,0,.2-2.3,14,14,0,0,0-.2-2.3,3.9,3.9,0,0,0-.4-1.4c-.2-.4-.4-.7-.7-.8a1.1,1.1,0,0,0-.8-.3,1.6,1.6,0,0,0-.9.3,1.3,1.3,0,0,0-.6.8,3.8,3.8,0,0,0-.5,1.4,15.5,15.5,0,0,0-.1,2.3,16.2,16.2,0,0,0,.1,2.3,5.3,5.3,0,0,0,.5,1.5,2.4,2.4,0,0,0,.6.8A1.5,1.5,0,0,0,93.4,48.4Z" fill="#fff"/><path d="M102,41.7a1.6,1.6,0,0,1-1-.2,2.6,2.6,0,0,1-.9-.5l-.6-.9a3.6,3.6,0,0,1-.2-1.1,4.3,4.3,0,0,1,.2-1.1l.6-.8a1.8,1.8,0,0,1,.9-.6l1-.2,1.1.2a1.6,1.6,0,0,1,.8.6,1.6,1.6,0,0,1,.6.8,4.3,4.3,0,0,1,.2,1.1,3.6,3.6,0,0,1-.2,1.1,1.8,1.8,0,0,1-.6.9l-.8.5A2.2,2.2,0,0,1,102,41.7Zm0-1.1a1.2,1.2,0,0,0,1-.5,1.4,1.4,0,0,0,.4-1.1,1.5,1.5,0,0,0-.4-1.1,1.4,1.4,0,0,0-2,0,1.5,1.5,0,0,0-.4,1.1,1.4,1.4,0,0,0,.4,1.1A1.2,1.2,0,0,0,102,40.6Z" fill="#fff"/><path d="M128.5,70.2l-1.8-.3-1.5-1.2a6.7,6.7,0,0,1-1-1.9,11.4,11.4,0,0,1-.3-2.8,10.4,10.4,0,0,1,.4-3.2,8.2,8.2,0,0,1,1.1-2.1,4.8,4.8,0,0,1,1.6-1.3,5.8,5.8,0,0,1,1.9-.4,4.2,4.2,0,0,1,2,.5,4.5,4.5,0,0,1,1.4,1L131,59.9a2.7,2.7,0,0,0-.8-.7,2.7,2.7,0,0,0-1.2-.3,2,2,0,0,0-1.1.3,1.4,1.4,0,0,0-.9.8,3.7,3.7,0,0,0-.7,1.4,6.9,6.9,0,0,0-.3,2.2,6.9,6.9,0,0,1,1.3-1.1,4.2,4.2,0,0,1,1.5-.4,4,4,0,0,1,1.5.3,2.9,2.9,0,0,1,1.2.7,3.5,3.5,0,0,1,.7,1.2,4.8,4.8,0,0,1,.3,1.8,4.7,4.7,0,0,1-.3,1.7,3.8,3.8,0,0,1-.9,1.3,2.9,2.9,0,0,1-1.3.8A3.7,3.7,0,0,1,128.5,70.2Zm0-1.7a1.8,1.8,0,0,0,1.3-.6,2.8,2.8,0,0,0,.6-1.8,2.1,2.1,0,0,0-.6-1.7,1.7,1.7,0,0,0-1.4-.6,2.7,2.7,0,0,0-1.2.3,3.2,3.2,0,0,0-1.1,1.2,4.5,4.5,0,0,0,.8,2.4A1.9,1.9,0,0,0,128.5,68.5Z" fill="#fff"/><path d="M138.4,70.2a3.5,3.5,0,0,1-3.2-1.7,8.5,8.5,0,0,1-1.1-4.9c0-2.2.3-3.8,1.1-4.9a3.7,3.7,0,0,1,3.2-1.7,3.6,3.6,0,0,1,3.1,1.7,8.2,8.2,0,0,1,1.2,4.9,8.4,8.4,0,0,1-1.2,4.9A3.4,3.4,0,0,1,138.4,70.2Zm0-1.8a1.1,1.1,0,0,0,.8-.2,2.7,2.7,0,0,0,.7-.8,5.4,5.4,0,0,0,.4-1.5,15.2,15.2,0,0,0,.2-2.3,14,14,0,0,0-.2-2.3,3.9,3.9,0,0,0-.4-1.4c-.2-.4-.4-.7-.7-.8a1.1,1.1,0,0,0-.8-.3,1.6,1.6,0,0,0-.9.3,1.3,1.3,0,0,0-.6.8,3.8,3.8,0,0,0-.5,1.4,15.5,15.5,0,0,0-.1,2.3,16.2,16.2,0,0,0,.1,2.3,5.3,5.3,0,0,0,.5,1.5,2.4,2.4,0,0,0,.6.8A1.5,1.5,0,0,0,138.4,68.4Z" fill="#fff"/><path d="M147,61.7a1.6,1.6,0,0,1-1-.2,2.6,2.6,0,0,1-.9-.5,7,7,0,0,1-.6-.9,3.6,3.6,0,0,1-.2-1.1,4.3,4.3,0,0,1,.2-1.1l.6-.8a1.8,1.8,0,0,1,.9-.6l1-.2,1.1.2a3.5,3.5,0,0,1,1.4,1.4,4.3,4.3,0,0,1,.2,1.1,3.6,3.6,0,0,1-.2,1.1,1.8,1.8,0,0,1-.6.9l-.8.5A2.2,2.2,0,0,1,147,61.7Zm0-1.1a1.2,1.2,0,0,0,1-.5,1.4,1.4,0,0,0,.4-1.1,1.5,1.5,0,0,0-.4-1.1,1.4,1.4,0,0,0-2,0,1.5,1.5,0,0,0-.4,1.1,1.4,1.4,0,0,0,.4,1.1A1.2,1.2,0,0,0,147,60.6Z" fill="#fff"/><path d="M126.5,121.2l-1.8-.3-1.5-1.2a6.7,6.7,0,0,1-1-1.9,11.4,11.4,0,0,1-.3-2.8,10.4,10.4,0,0,1,.4-3.2,8.2,8.2,0,0,1,1.1-2.1,4.8,4.8,0,0,1,1.6-1.3,5.8,5.8,0,0,1,1.9-.4,4.2,4.2,0,0,1,2,.5,4.5,4.5,0,0,1,1.4,1l-1.3,1.4a2.7,2.7,0,0,0-.8-.7,2.7,2.7,0,0,0-1.2-.3,2,2,0,0,0-1.1.3,1.4,1.4,0,0,0-.9.8,3.7,3.7,0,0,0-.7,1.4,6.9,6.9,0,0,0-.3,2.2,6.9,6.9,0,0,1,1.3-1.1,4.2,4.2,0,0,1,1.5-.4,4,4,0,0,1,1.5.3,2.9,2.9,0,0,1,1.2.7,3.5,3.5,0,0,1,.7,1.2,4.8,4.8,0,0,1,.3,1.8,4.7,4.7,0,0,1-.3,1.7,3.8,3.8,0,0,1-.9,1.3,2.9,2.9,0,0,1-1.3.8A3.7,3.7,0,0,1,126.5,121.2Zm0-1.7a1.8,1.8,0,0,0,1.3-.6,2.8,2.8,0,0,0,.6-1.8,2.1,2.1,0,0,0-.6-1.7,1.7,1.7,0,0,0-1.4-.6l-1.2.3a3.2,3.2,0,0,0-1.1,1.2,4.5,4.5,0,0,0,.8,2.4A1.9,1.9,0,0,0,126.5,119.5Z" fill="#fff"/><path d="M136.4,121.2a3.5,3.5,0,0,1-3.2-1.7,8.5,8.5,0,0,1-1.1-4.9c0-2.2.3-3.8,1.1-4.9a3.7,3.7,0,0,1,3.2-1.7,3.6,3.6,0,0,1,3.1,1.7,8.2,8.2,0,0,1,1.2,4.9,8.4,8.4,0,0,1-1.2,4.9A3.4,3.4,0,0,1,136.4,121.2Zm0-1.8a1.1,1.1,0,0,0,.8-.2,2.7,2.7,0,0,0,.7-.8,5.4,5.4,0,0,0,.4-1.5,15.2,15.2,0,0,0,.2-2.3,14,14,0,0,0-.2-2.3,3.9,3.9,0,0,0-.4-1.4c-.2-.4-.4-.7-.7-.8a1.1,1.1,0,0,0-.8-.3,1.6,1.6,0,0,0-.9.3,1.3,1.3,0,0,0-.6.8,3.8,3.8,0,0,0-.5,1.4,15.5,15.5,0,0,0-.1,2.3,16.2,16.2,0,0,0,.1,2.3,5.3,5.3,0,0,0,.5,1.5,2.4,2.4,0,0,0,.6.8A1.5,1.5,0,0,0,136.4,119.4Z" fill="#fff"/><path d="M145,112.7a1.6,1.6,0,0,1-1-.2,2.6,2.6,0,0,1-.9-.5,7,7,0,0,1-.6-.9,3.6,3.6,0,0,1-.2-1.1,4.3,4.3,0,0,1,.2-1.1l.6-.8a1.8,1.8,0,0,1,.9-.6l1-.2,1.1.2a3.5,3.5,0,0,1,1.4,1.4,4.3,4.3,0,0,1,.2,1.1,3.6,3.6,0,0,1-.2,1.1,1.8,1.8,0,0,1-.6.9l-.8.5A2.2,2.2,0,0,1,145,112.7Zm0-1.1a1.2,1.2,0,0,0,1-.5,1.4,1.4,0,0,0,.4-1.1,1.5,1.5,0,0,0-.4-1.1,1.5,1.5,0,0,0-2,0,1.5,1.5,0,0,0-.4,1.1,1.4,1.4,0,0,0,.4,1.1A1.2,1.2,0,0,0,145,111.6Z" fill="#fff"/><path d="M83.5,144.2l-1.8-.3-1.5-1.2a6.7,6.7,0,0,1-1-1.9,11.4,11.4,0,0,1-.3-2.8,10.4,10.4,0,0,1,.4-3.2,8.2,8.2,0,0,1,1.1-2.1,4.8,4.8,0,0,1,1.6-1.3,5.8,5.8,0,0,1,1.9-.4,4.2,4.2,0,0,1,2,.5,4.5,4.5,0,0,1,1.4,1L86,133.9a2.2,2.2,0,0,0-.9-.7,2.2,2.2,0,0,0-2.2,0,1.4,1.4,0,0,0-.9.8,3.7,3.7,0,0,0-.7,1.4,6.9,6.9,0,0,0-.3,2.2,6.9,6.9,0,0,1,1.3-1.1,4.2,4.2,0,0,1,1.5-.4,4,4,0,0,1,1.5.3,2.9,2.9,0,0,1,1.2.7,3.5,3.5,0,0,1,.7,1.2,4.8,4.8,0,0,1,.3,1.8,4.7,4.7,0,0,1-.3,1.7,3.8,3.8,0,0,1-.9,1.3,2.9,2.9,0,0,1-1.3.8A3.7,3.7,0,0,1,83.5,144.2Zm0-1.7a1.8,1.8,0,0,0,1.3-.6,2.8,2.8,0,0,0,.6-1.8,2.1,2.1,0,0,0-.6-1.7,1.7,1.7,0,0,0-1.4-.6l-1.2.3a3.2,3.2,0,0,0-1.1,1.2,4.5,4.5,0,0,0,.8,2.4A1.9,1.9,0,0,0,83.5,142.5Z" fill="#fff"/><path d="M93.4,144.2a3.5,3.5,0,0,1-3.2-1.7,8.5,8.5,0,0,1-1.1-4.9c0-2.2.3-3.8,1.1-4.9a3.7,3.7,0,0,1,3.2-1.7,3.6,3.6,0,0,1,3.1,1.7,8.2,8.2,0,0,1,1.2,4.9,8.4,8.4,0,0,1-1.2,4.9A3.4,3.4,0,0,1,93.4,144.2Zm0-1.8a1.1,1.1,0,0,0,.8-.2,2.7,2.7,0,0,0,.7-.8,5.4,5.4,0,0,0,.4-1.5,15.2,15.2,0,0,0,.2-2.3,14,14,0,0,0-.2-2.3,3.9,3.9,0,0,0-.4-1.4c-.2-.4-.4-.7-.7-.8a1.1,1.1,0,0,0-.8-.3l-.9.3a1.3,1.3,0,0,0-.6.8,3.8,3.8,0,0,0-.5,1.4,15.5,15.5,0,0,0-.1,2.3,16.2,16.2,0,0,0,.1,2.3,5.3,5.3,0,0,0,.5,1.5,2.4,2.4,0,0,0,.6.8A1.5,1.5,0,0,0,93.4,142.4Z" fill="#fff"/><path d="M102,135.7a1.6,1.6,0,0,1-1-.2,2.6,2.6,0,0,1-.9-.5l-.6-.9a3.6,3.6,0,0,1-.2-1.1,4.3,4.3,0,0,1,.2-1.1l.6-.8a1.8,1.8,0,0,1,.9-.6l1-.2,1.1.2a3.5,3.5,0,0,1,1.4,1.4,4.3,4.3,0,0,1,.2,1.1,3.6,3.6,0,0,1-.2,1.1,1.8,1.8,0,0,1-.6.9l-.8.5A2.2,2.2,0,0,1,102,135.7Zm0-1.1a1.2,1.2,0,0,0,1-.5,1.4,1.4,0,0,0,.4-1.1,1.5,1.5,0,0,0-.4-1.1,1.5,1.5,0,0,0-2,0,1.5,1.5,0,0,0-.4,1.1,1.4,1.4,0,0,0,.4,1.1A1.2,1.2,0,0,0,102,134.6Z" fill="#fff"/><path d="M35.5,121.2l-1.8-.3-1.5-1.2a6.7,6.7,0,0,1-1-1.9,11.4,11.4,0,0,1-.3-2.8,10.4,10.4,0,0,1,.4-3.2,8.2,8.2,0,0,1,1.1-2.1,4.8,4.8,0,0,1,1.6-1.3,5.8,5.8,0,0,1,1.9-.4,4.2,4.2,0,0,1,2,.5,4.5,4.5,0,0,1,1.4,1L38,110.9a2.2,2.2,0,0,0-.9-.7,2.2,2.2,0,0,0-2.2,0,1.4,1.4,0,0,0-.9.8,3.7,3.7,0,0,0-.7,1.4,6.9,6.9,0,0,0-.3,2.2,6.9,6.9,0,0,1,1.3-1.1,4.2,4.2,0,0,1,1.5-.4,4,4,0,0,1,1.5.3,2.9,2.9,0,0,1,1.2.7,3.5,3.5,0,0,1,.7,1.2,4.8,4.8,0,0,1,.3,1.8,4.7,4.7,0,0,1-.3,1.7,3.8,3.8,0,0,1-.9,1.3,2.9,2.9,0,0,1-1.3.8A3.7,3.7,0,0,1,35.5,121.2Zm0-1.7a1.8,1.8,0,0,0,1.3-.6,2.8,2.8,0,0,0,.6-1.8,2.1,2.1,0,0,0-.6-1.7,1.7,1.7,0,0,0-1.4-.6l-1.2.3a3.2,3.2,0,0,0-1.1,1.2,4.5,4.5,0,0,0,.8,2.4A1.9,1.9,0,0,0,35.5,119.5Z" fill="#fff"/><path d="M45.4,121.2a3.5,3.5,0,0,1-3.2-1.7,8.5,8.5,0,0,1-1.1-4.9c0-2.2.3-3.8,1.1-4.9a3.7,3.7,0,0,1,3.2-1.7,3.6,3.6,0,0,1,3.1,1.7,8.2,8.2,0,0,1,1.2,4.9,8.4,8.4,0,0,1-1.2,4.9A3.4,3.4,0,0,1,45.4,121.2Zm0-1.8a1.1,1.1,0,0,0,.8-.2,2.7,2.7,0,0,0,.7-.8,5.4,5.4,0,0,0,.4-1.5,15.2,15.2,0,0,0,.2-2.3,14,14,0,0,0-.2-2.3,3.9,3.9,0,0,0-.4-1.4c-.2-.4-.4-.7-.7-.8a1.1,1.1,0,0,0-.8-.3l-.9.3a1.3,1.3,0,0,0-.6.8,3.8,3.8,0,0,0-.5,1.4,15.5,15.5,0,0,0-.1,2.3,16.2,16.2,0,0,0,.1,2.3,5.3,5.3,0,0,0,.5,1.5,2.4,2.4,0,0,0,.6.8A1.5,1.5,0,0,0,45.4,119.4Z" fill="#fff"/><path d="M54,112.7a1.6,1.6,0,0,1-1-.2,2.6,2.6,0,0,1-.9-.5l-.6-.9a3.6,3.6,0,0,1-.2-1.1,4.3,4.3,0,0,1,.2-1.1l.6-.8a1.8,1.8,0,0,1,.9-.6l1-.2,1.1.2a3.5,3.5,0,0,1,1.4,1.4,4.3,4.3,0,0,1,.2,1.1,3.6,3.6,0,0,1-.2,1.1,1.8,1.8,0,0,1-.6.9l-.8.5A2.2,2.2,0,0,1,54,112.7Zm0-1.1a1.2,1.2,0,0,0,1-.5,1.4,1.4,0,0,0,.4-1.1,1.5,1.5,0,0,0-.4-1.1,1.4,1.4,0,0,0-2,0,1.5,1.5,0,0,0-.4,1.1,1.4,1.4,0,0,0,.4,1.1A1.2,1.2,0,0,0,54,111.6Z" fill="#fff"/><path d="M43.5,70.2l-1.8-.3-1.5-1.2a6.7,6.7,0,0,1-1-1.9,11.4,11.4,0,0,1-.3-2.8,10.4,10.4,0,0,1,.4-3.2,8.2,8.2,0,0,1,1.1-2.1A4.8,4.8,0,0,1,42,57.4a5.8,5.8,0,0,1,1.9-.4,4.2,4.2,0,0,1,2,.5,4.5,4.5,0,0,1,1.4,1L46,59.9a2.2,2.2,0,0,0-.9-.7,2.2,2.2,0,0,0-2.2,0,1.4,1.4,0,0,0-.9.8,3.7,3.7,0,0,0-.7,1.4,6.9,6.9,0,0,0-.3,2.2,6.9,6.9,0,0,1,1.3-1.1,4.2,4.2,0,0,1,1.5-.4,4,4,0,0,1,1.5.3,2.9,2.9,0,0,1,1.2.7,3.5,3.5,0,0,1,.7,1.2,4.8,4.8,0,0,1,.3,1.8,4.7,4.7,0,0,1-.3,1.7,3.8,3.8,0,0,1-.9,1.3,2.9,2.9,0,0,1-1.3.8A3.7,3.7,0,0,1,43.5,70.2Zm0-1.7a1.8,1.8,0,0,0,1.3-.6,2.8,2.8,0,0,0,.6-1.8,2.1,2.1,0,0,0-.6-1.7,1.7,1.7,0,0,0-1.4-.6,2.7,2.7,0,0,0-1.2.3,3.2,3.2,0,0,0-1.1,1.2,4.5,4.5,0,0,0,.8,2.4A1.9,1.9,0,0,0,43.5,68.5Z" fill="#fff"/><path d="M53.4,70.2a3.5,3.5,0,0,1-3.2-1.7,8.5,8.5,0,0,1-1.1-4.9c0-2.2.3-3.8,1.1-4.9A3.7,3.7,0,0,1,53.4,57a3.6,3.6,0,0,1,3.1,1.7,8.2,8.2,0,0,1,1.2,4.9,8.4,8.4,0,0,1-1.2,4.9A3.4,3.4,0,0,1,53.4,70.2Zm0-1.8a1.1,1.1,0,0,0,.8-.2,2.7,2.7,0,0,0,.7-.8,5.4,5.4,0,0,0,.4-1.5,15.2,15.2,0,0,0,.2-2.3,14,14,0,0,0-.2-2.3,3.9,3.9,0,0,0-.4-1.4c-.2-.4-.4-.7-.7-.8a1.1,1.1,0,0,0-.8-.3,1.6,1.6,0,0,0-.9.3,1.3,1.3,0,0,0-.6.8,3.8,3.8,0,0,0-.5,1.4,15.5,15.5,0,0,0-.1,2.3,16.2,16.2,0,0,0,.1,2.3,5.3,5.3,0,0,0,.5,1.5,2.4,2.4,0,0,0,.6.8A1.5,1.5,0,0,0,53.4,68.4Z" fill="#fff"/><path d="M62,61.7a1.6,1.6,0,0,1-1-.2,2.6,2.6,0,0,1-.9-.5l-.6-.9a3.6,3.6,0,0,1-.2-1.1,4.3,4.3,0,0,1,.2-1.1l.6-.8a1.8,1.8,0,0,1,.9-.6l1-.2,1.1.2a3.5,3.5,0,0,1,1.4,1.4,4.3,4.3,0,0,1,.2,1.1,3.6,3.6,0,0,1-.2,1.1,1.8,1.8,0,0,1-.6.9l-.8.5A2.2,2.2,0,0,1,62,61.7Zm0-1.1a1.2,1.2,0,0,0,1-.5,1.4,1.4,0,0,0,.4-1.1,1.5,1.5,0,0,0-.4-1.1,1.5,1.5,0,0,0-2,0,1.5,1.5,0,0,0-.4,1.1,1.4,1.4,0,0,0,.4,1.1A1.2,1.2,0,0,0,62,60.6Z" fill="#fff"/></svg>