<svg viewBox="0 0 640 400" class="frame fill">

<path class="water" d="M580.6,101.8l-67.3,1l-45.8-5.8l-45.8-5.8l-42.4-5.2l-42.4-5.2l-49.6,0.6l-49.6,6.6l-46.9,14.2l-34.9,22.2
	l-11.4,42.1l0.6,42.1v29.1l-2.3,23.2l-9.3,8.9l-28.5,10.1l-56.5,11L0,291.8v39.8l54.7-1.1l58.6-11.2l50.7-20.5l50.7-12.5l45.9-6.7
	l54.9,0.3l44.4,7.1l43.4,12.1l19.1,30.5l15.1,30.5l7.9,24.6l2.4,15.4h40.5l-4.1-25.7l-9.5-28.6l-14.1-30.5l-16.1-30.5l-6.7-30.4
	l-1.7-30.4l2.7-29.4l4.7-29.4l2.7-15.1l5.6-11.4l29.1,0.4l38.6,1.6l63.1-2.8l57.6-7.7V90.3L580.6,101.8z M404,158.4l-5.2,32.4
	l-4.2,30.4l1.1,18.8l2.1,16.8l-44.4-10.2l-44.4-7.2l-48.7-0.4l-34.9,6l-24.6,5.4l-12.3-1.8l-6.3-16.1v-21.3l2.8-29.7l7.8-29.7
	l23.5-17.2l31.5-7.2l44.2-6.2l44.2-0.2l36.6,4.5l30.9,7.4l3.2,11.2L404,158.4z"/>

<rect class="bridge" x="435.1" y="301.1" transform="matrix(0.4666 0.8845 -0.8845 0.4666 530.5973 -217.5192)" width="21" height="60"/>
<rect class="bridge" x="90.1" y="271.1" transform="matrix(-0.9882 0.153 -0.153 -0.9882 246.1445 583.3242)" width="21" height="60"/>
<rect class="bridge" x="262.1" y="229.1" transform="matrix(0.9954 -9.617020e-02 9.617020e-02 0.9954 -23.657 27.4202)" width="21" height="60"/>
<rect class="bridge" x="407.1" y="162.1" transform="matrix(-0.2289 0.9735 -0.9735 -0.2289 700.2534 -170.4384)" width="21" height="60"/>
<rect class="bridge" x="506.1" y="93.1" transform="matrix(0.9956 9.379371e-02 -9.379371e-02 0.9956 13.8264 -47.9141)" width="21" height="60"/>
<rect class="bridge" x="279.1" y="73.1" transform="matrix(0.9986 -5.297310e-02 5.297310e-02 0.9986 -5.0565 15.4875)" width="21" height="60"/>

<rect x="87.4" y="89.1" transform="matrix(0.9904 -0.1379 0.1379 0.9904 -13.3275 14.9082)" fill="#eee" width="27" height="29"/>
<rect x="10.7" y="113.1" transform="matrix(0.9999 -1.658851e-02 1.658851e-02 0.9999 -2.2625 0.3951)" fill="#eee" width="24" height="47"/>
<rect x="11.2" y="169.9" transform="matrix(0.9974 -7.219342e-02 7.219342e-02 0.9974 -13.2459 2.2634)" fill="#eee" width="27" height="29"/>
<rect x="49.7" y="93.6" transform="matrix(0.9993 -3.734102e-02 3.734102e-02 0.9993 -3.9923 2.434)" fill="#eee" width="27" height="29"/>
<rect x="174.6" y="11.4" transform="matrix(0.9988 4.989597e-02 -4.989597e-02 0.9988 1.9036 -9.3444)" fill="#eee" width="27" height="44"/>
<rect x="53" y="51.1" transform="matrix(0.9974 -7.219342e-02 7.219342e-02 0.9974 -4.5615 4.9755)" fill="#eee" width="27" height="29"/>
<rect x="93.3" y="47.7" transform="matrix(0.9988 4.989604e-02 -4.989604e-02 0.9988 3.2342 -5.2508)" fill="#eee" width="27" height="29"/>
<rect x="1.9" y="58.1" transform="matrix(-1.298276e-02 0.9999 -0.9999 -1.298276e-02 96.7446 49.6819)" fill="#eee" width="44" height="29"/>
<rect x="115.7" y="8.7" transform="matrix(0.9995 3.245791e-02 -3.245791e-02 0.9995 0.6205 -4.507)" fill="#eee" width="46.9" height="16.3"/>
<rect x="58.3" y="9.3" transform="matrix(0.9993 -3.734116e-02 3.734116e-02 0.9993 -0.8345 2.9503)" fill="#eee" width="40.6" height="29"/>
<rect x="14.2" y="8.8" transform="matrix(0.9988 4.989604e-02 -4.989604e-02 0.9988 1.1993 -1.3528)" fill="#eee" width="27" height="29"/>
<rect x="106.5" y="169.9" transform="matrix(0.995 -0.1003 0.1003 0.995 -17.8797 13.1156)" fill="#eee" width="30" height="29"/>
<rect x="53" y="170" transform="matrix(-0.9992 -3.986819e-02 3.986819e-02 -0.9992 138.5436 371.6742)" fill="#eee" width="40" height="29"/>
<rect x="122.3" y="83.4" transform="matrix(-0.1013 0.9949 -0.9949 -0.1013 253.4618 -33.1518)" fill="#eee" width="38.7" height="29"/>
<rect x="95.4" y="130.6" fill="#eee" width="45" height="29"/>
<rect x="169.7" y="68.8" transform="matrix(0.1548 0.9879 -0.9879 0.1548 234.4961 -112.3035)" fill="#eee" width="26.4" height="24.1"/>
<rect x="306.9" y="47" transform="matrix(0.9976 -6.975646e-02 6.975646e-02 0.9976 -3.4071 22.4944)" fill="#eee" width="27" height="26"/>
<rect x="219" y="53" transform="matrix(0.9976 -6.975647e-02 6.975647e-02 0.9976 -4.1439 16.3814)" fill="#eee" width="27" height="29"/>
<rect x="350.4" y="39.2" transform="matrix(0.9842 0.1771 -0.1771 0.9842 15.7511 -64.9454)" fill="#eee" width="42.8" height="33.1"/>
<rect x="350.1" y="9.1" transform="matrix(-0.9999 1.574466e-02 -1.574466e-02 -0.9999 767.4531 36.0669)" fill="#eee" width="67" height="24"/>
<rect x="433.1" y="8.3" transform="matrix(-0.9968 8.043618e-02 -8.043618e-02 -0.9968 919.9733 0.4758)" fill="#eee" width="53.8" height="21"/>
<rect x="212.4" y="12" transform="matrix(8.689240e-02 0.9962 -0.9962 8.689240e-02 234.8196 -203.2688)" fill="#eee" width="31.9" height="29"/>
<rect x="294.8" y="9.2" transform="matrix(0.9995 3.025540e-02 -3.025540e-02 0.9995 0.8613 -9.5742)" fill="#eee" width="44" height="29"/>
<rect x="258.3" y="15.7" transform="matrix(0.9933 -0.1155 0.1155 0.9933 -2.5709 31.6387)" fill="#eee" width="27" height="44.6"/>
<rect x="569.1" y="203.7" transform="matrix(-0.9989 -4.609897e-02 4.609897e-02 -0.9989 1154.5146 462.9984)" fill="#eee" width="27" height="29"/>
<rect x="487.9" y="280.6" transform="matrix(0.9578 -0.2875 0.2875 0.9578 -65.8761 157.9223)" fill="#eee" width="33.6" height="45.3"/>
<rect x="523.8" y="253.9" transform="matrix(0.9186 -0.3953 0.3953 0.9186 -62.3213 234.2484)" fill="#eee" width="27" height="29"/>
<rect x="603.6" y="244.4" transform="matrix(0.9633 -0.2686 0.2686 0.9633 -45.9768 175.1111)" fill="#eee" width="27" height="22.4"/>
<rect x="576.4" y="282" transform="matrix(0.9819 -0.1893 0.1893 0.9819 -45.6866 119.5198)" fill="#eee" width="53" height="34"/>
<rect x="503.1" y="364.1" transform="matrix(-0.9996 2.752377e-02 -2.752377e-02 -0.9996 1043.3885 742.808)" fill="#eee" width="27" height="29"/>
<rect x="545.3" y="363.3" transform="matrix(-0.9999 -1.595349e-02 1.595349e-02 -0.9999 1111.4172 764.4278)" fill="#eee" width="27" height="29"/>
<rect x="587" y="369.6" transform="matrix(-0.9999 -1.671967e-02 1.671967e-02 -0.9999 1207.6232 770.3384)" fill="#eee" width="40" height="21"/>
<rect x="604.5" y="328" transform="matrix(0.998 6.254152e-02 -6.254152e-02 0.998 22.6279 -37.9811)" fill="#eee" width="27" height="29"/>
<rect x="537.6" y="292.8" transform="matrix(0.2818 0.9595 -0.9595 0.2818 690.6188 -308.0258)" fill="#eee" width="27" height="29"/>
<rect x="492.9" y="335.2" transform="matrix(-0.9975 7.094727e-02 -7.094727e-02 -0.9975 1057.4727 653.2589)" fill="#eee" width="48.5" height="20.5"/>
<rect x="605.8" y="205.6" transform="matrix(0.9941 -0.1088 0.1088 0.9941 -20.2906 68.5786)" fill="#eee" width="24.4" height="29.1"/>
<rect x="467.5" y="231" transform="matrix(0.6157 0.788 -0.788 0.6157 388.9576 -279.5303)" fill="#eee" width="27" height="55.9"/>
<rect x="516.6" y="210.3" transform="matrix(0.9723 -0.2336 0.2336 0.9723 -37.6509 131.6387)" fill="#eee" width="40.6" height="29"/>
<rect x="233.4" y="326.8" transform="matrix(-0.9957 -9.238441e-02 9.238441e-02 -0.9957 463.9899 707.2789)" fill="#eee" width="30" height="32.2"/>
<rect x="267.9" y="347" transform="matrix(-4.292354e-02 -0.9991 0.9991 -4.292354e-02 -56.5652 673.7181)" fill="#eee" width="53" height="34"/>
<rect x="112.2" y="362.1" transform="matrix(0.9996 2.752377e-02 -2.752377e-02 0.9996 10.4127 -3.3181)" fill="#eee" width="27" height="29"/>
<rect x="70.1" y="361.3" transform="matrix(0.9999 -1.595350e-02 1.595350e-02 0.9999 -5.9844 1.3809)" fill="#eee" width="27" height="29"/>
<rect x="15.3" y="367.6" transform="matrix(0.9999 -1.671966e-02 1.671966e-02 0.9999 -6.3171 0.6428)" fill="#eee" width="40" height="21"/>
<rect x="11.1" y="338.9" transform="matrix(-0.998 6.254156e-02 -6.254156e-02 -0.998 71.0097 693.6567)" fill="#eee" width="27" height="18"/>
<rect x="274.7" y="297.8" transform="matrix(2.750296e-02 0.9996 -0.9996 2.750296e-02 592.5248 15.597)" fill="#eee" width="27" height="29"/>
<rect x="46.9" y="335.7" transform="matrix(0.9987 -5.083895e-02 5.083895e-02 0.9987 -17.5051 3.761)" fill="#eee" width="36.5" height="20.5"/>
<rect x="118.9" y="326.7" transform="matrix(-1.014708e-02 0.9999 -0.9999 -1.014708e-02 473.4945 205.2501)" fill="#eee" width="32.5" height="20.5"/>
<rect x="189.4" y="362.5" transform="matrix(0.9945 -0.1045 0.1045 0.9945 -38.2965 23.2785)" fill="#eee" width="27" height="29"/>
<rect x="227.6" y="368.7" transform="matrix(0.9994 3.489950e-02 -3.489950e-02 0.9994 13.3844 -8.4109)" fill="#eee" width="40" height="21"/>
<rect x="151.3" y="360.5" transform="matrix(0.9994 -3.489950e-02 3.489950e-02 0.9994 -12.9874 5.9799)" fill="#eee" width="27" height="29"/>
<rect x="153.7" y="312.1" transform="matrix(0.9976 -6.975652e-02 6.975652e-02 0.9976 -22.6853 12.4673)" fill="#eee" width="27" height="38"/>
<rect x="226.5" y="289.2" transform="matrix(-0.1287 -0.9917 0.9917 -0.1287 -30.2606 580.8317)" fill="#eee" width="27" height="29"/>
<rect x="190.1" y="297.8" transform="matrix(-0.9643 0.2647 -0.2647 -0.9643 482.5975 559.5117)" fill="#eee" width="27" height="29"/>
<rect x="439.9" y="47.5" transform="matrix(3.783475e-02 -0.9993 0.9993 3.783475e-02 381.9779 520.6744)" fill="#eee" width="43" height="29"/>
<rect x="583.6" y="30.1" transform="matrix(-6.838313e-02 -0.9977 0.9977 -6.838313e-02 617.2484 660.6304)" fill="#eee" width="67" height="24"/>
<rect x="497.5" y="7.2" transform="matrix(1.376585e-03 -1 1 1.376585e-03 488.5335 532.6677)" fill="#eee" width="27" height="29"/>
<rect x="536.7" y="12.3" transform="matrix(0.9986 -5.211059e-02 5.211059e-02 0.9986 -0.7639 29.3877)" fill="#eee" width="53" height="34"/>
<rect x="565.1" y="58.1" transform="matrix(5.371067e-02 -0.9986 0.9986 5.371067e-02 475.0117 646.4506)" fill="#eee" width="27" height="29"/>
<rect x="483.9" y="48" transform="matrix(-0.2142 0.9768 -0.9768 -0.2142 669.2632 -413.355)" fill="#eee" width="33.9" height="29"/>
<rect x="411.1" y="44" transform="matrix(0.9975 -7.010388e-02 7.010388e-02 0.9975 -2.9156 29.6975)" fill="#eee" width="21" height="24.8"/>
<rect x="230.4" y="139.2" transform="matrix(0.9838 -0.1795 0.1795 0.9838 -23.8783 47.7365)" fill="#eee" width="42.8" height="33.1"/>
<rect x="343.9" y="195.6" transform="matrix(-0.1943 0.9809 -0.9809 -0.1943 644.8257 -93.1676)" fill="#eee" width="33.6" height="45.3"/>
<rect x="365.1" y="137.4" transform="matrix(0.9969 7.912798e-02 -7.912798e-02 0.9969 13.2102 -29.4813)" fill="#eee" width="27" height="29"/>
<rect x="325.1" y="133.4" transform="matrix(0.9969 -7.915360e-02 7.915360e-02 0.9969 -10.648 27.2655)" fill="#eee" width="27" height="29"/>
<rect x="294" y="197" transform="matrix(0.9978 6.692636e-02 -6.692636e-02 0.9978 14.8459 -20.1042)" fill="#eee" width="27" height="29"/>
<rect x="197" y="168" transform="matrix(0.9867 0.1627 -0.1627 0.9867 32.4922 -31.8055)" fill="#eee" width="27" height="29"/>
<rect x="193" y="210" transform="matrix(0.9852 -0.1715 0.1715 0.9852 -35.4558 38.7496)" fill="#eee" width="27" height="29"/>
<rect x="231" y="204.2" transform="matrix(0.9987 -5.176292e-02 5.176292e-02 0.9987 -10.9937 12.819)" fill="#eee" width="22" height="29"/>
<rect x="444.9" y="216.9" transform="matrix(0.9985 5.387586e-02 -5.387586e-02 0.9985 13.0252 -24.3659)" fill="#eee" width="27" height="25.1"/>
<rect x="312.9" y="304.1" transform="matrix(-1.298276e-02 0.9999 -0.9999 -1.298276e-02 657.7615 -12.0982)" fill="#eee" width="44" height="29"/>
<rect x="325.5" y="362.2" transform="matrix(1.305777e-02 -0.9999 0.9999 1.305777e-02 -42.0613 710.806)" fill="#eee" width="27" height="29"/>
<rect x="14" y="248.6" transform="matrix(-0.9952 9.744098e-02 -9.744098e-02 -0.9952 106.5374 524.0558)" fill="#eee" width="53" height="32"/>
<rect x="11.2" y="210" transform="matrix(0.9998 -2.087607e-02 2.087607e-02 0.9998 -4.6807 0.7101)" fill="#eee" width="41" height="29"/>
<rect x="110.2" y="212.9" transform="matrix(0.9997 2.507344e-02 -2.507344e-02 0.9997 5.7398 -3.0298)" fill="#eee" width="27" height="29"/>
<rect x="64.1" y="209.4" transform="matrix(-0.9998 2.087719e-02 -2.087719e-02 -0.9998 155.8876 446.1299)" fill="#eee" width="22.9" height="29"/>
<rect x="360.2" y="306" transform="matrix(0.989 0.1478 -0.1478 0.989 51.5754 -52.7585)" fill="#eee" width="41" height="29"/>
<rect x="404.3" y="362.5" transform="matrix(0.9994 -3.489950e-02 3.489950e-02 0.9994 -12.9031 14.8107)" fill="#eee" width="27" height="29"/>
<rect x="364.9" y="366.7" transform="matrix(-0.9982 -6.020970e-02 6.020970e-02 -0.9982 738.9271 776.2296)" fill="#eee" width="32.5" height="20.5"/>
<rect x="455.2" y="152.4" transform="matrix(0.1537 -0.9881 0.9881 0.1537 234.181 607.1827)" fill="#eee" width="32.7" height="29"/>
<rect x="477.1" y="193.7" transform="matrix(-0.9899 0.1418 -0.1418 -0.9899 1005.7503 344.7236)" fill="#eee" width="27" height="29"/>
<rect x="601.4" y="145.1" transform="matrix(0.9995 3.198734e-02 -3.198734e-02 0.9995 5.7524 -19.5836)" fill="#eee" width="27" height="49.9"/>
<rect x="540.9" y="147.2" transform="matrix(-0.9975 7.094727e-02 -7.094727e-02 -0.9975 1140.0135 274.3271)" fill="#eee" width="48.5" height="20.5"/>
<rect x="512.1" y="172.7" transform="matrix(-0.9473 0.3204 -0.3204 -0.9473 1083.4586 196.0972)" fill="#eee" width="27" height="29"/>

<g class="paths"></g>

<g class="error">
	<circle fill="#004bb8" cx="20" cy="20" r="20"/>
	<path opacity="0.5" fill="#F2F2F2" d="M15.3,20.9c-1.9,2.2-4.3,2.5-6.9,1.7c-0.8-0.3-1.2-0.8-1.4-1.7c-0.1-1.3-0.3-2.5-0.5-4.1
		c1.4,1.4,2.8,2.1,4.5,2c1.7-0.1,3.1-0.9,4.2-2.3c1.2,1.5,2.6,2.4,4.4,2.3c1.8,0,3.3-0.8,4.4-2.3c3,3.4,6.7,2.6,8.9-0.1
		c-0.3,1.9-0.4,3.5-0.8,5.1c-0.1,0.4-0.6,0.6-1,0.9c-2.3,1.2-5,0.6-7.1-1.5C23,22.3,21.5,23,19.7,23C17.9,23,16.4,22.3,15.3,20.9z"/>
	<path opacity="0.5" fill="#F2F2F2" d="M15.3,29.9c-1.9,2.2-4.3,2.5-6.9,1.7c-0.8-0.3-1.2-0.8-1.4-1.7c-0.1-1.3-0.3-2.5-0.5-4.1
		c1.4,1.4,2.8,2.1,4.5,2c1.7-0.1,3.1-0.9,4.2-2.3c1.2,1.5,2.6,2.4,4.4,2.3c1.8,0,3.3-0.8,4.4-2.3c3,3.4,6.7,2.6,8.9-0.1
		c-0.3,1.9-0.4,3.5-0.8,5.1c-0.1,0.4-0.6,0.6-1,0.9c-2.3,1.2-5,0.6-7.1-1.5C23,31.3,21.5,32,19.7,32C17.9,32,16.4,31.3,15.3,29.9z"/>
	<polygon opacity="0.5" fill="#F2F2F2" points="24.7,6.2 22.6,4.1 19.8,6.9 16.9,4.1 14.8,6.2 17.7,9 14.8,11.8 16.9,13.9 19.8,11.1 22.6,13.9 24.7,11.8 21.9,9 	"/>
</g>

</svg>
