<svg viewBox="0 0 640 400" class="frame fill">

<path class="water"  d="M521,106l64-7l55,0.7V66.1L576,61l-58,10h-87l-86,6l-80-9l-98,3l-19,15v62v49l-14,51l-66,4l-68-6.9V284h37
	l61-1l68,1l64-6l62-6l57,1l21,1l11,17l18,32l40,28l45,6h45l48-15l41-19l22-6.4v-41.2l-26,7.7l-47,25l-51,15l-56-5l-33-28v-46l10-37
	l9-46l-1-40l10-12L521,106z M414,147l-10,41l-5,38l-12,14h-26l-40-3h-50l-43,1l-47,8l-4-15l8-37l-1-47l1-33l18-12l54-2l53,6l50,1
	l37-3l18,10L414,147z"/>

<rect class="bridge" x="198.6" y="56" transform="matrix(0.9962 -8.715574e-02 8.715574e-02 0.9962 -6.697 18.5525)" width="21" height="60"/>
<rect class="bridge" x="215.1" y="225.7" transform="matrix(0.9945 -0.1045 0.1045 0.9945 -25.4962 24.9803)" width="21" height="60"/>
<rect class="bridge" x="289.9" y="225.3" transform="matrix(0.9994 3.489950e-02 -3.489950e-02 0.9994 9.0945 -10.3299)" width="21" height="60"/>
<rect class="bridge" x="455.7" y="59.2" transform="matrix(0.9816 -0.1908 0.1908 0.9816 -8.4465 90.5928)" width="21" height="60"/>
<rect class="bridge" x="415.1" y="151.1" transform="matrix(-0.1736 0.9848 -0.9848 -0.1736 677.922 -206.582)" width="21" height="60"/>
<rect class="bridge" x="300" y="61" width="21" height="60"/>
<rect class="bridge" x="406.8" y="278" transform="matrix(0.6947 0.7193 -0.7193 0.6947 348.9962 -206.1004)" width="21" height="60"/>

<rect x="244" y="111" transform="matrix(0.9986 5.233596e-02 -5.233596e-02 0.9986 7.1404 -13.6394)" fill="#eee" width="40" height="37"/>
<rect x="247.3" y="195.8" transform="matrix(0.9998 -1.745241e-02 1.745241e-02 0.9998 -3.6299 4.5828)" fill="#eee" width="27" height="29"/>
<rect x="191.5" y="156.5" transform="matrix(0.9994 -3.489950e-02 3.489950e-02 0.9994 -5.8436 7.2585)" fill="#eee" width="27" height="29"/>
<rect x="335.2" y="194.1" transform="matrix(0.9986 5.233596e-02 -5.233596e-02 0.9986 11.4085 -18.4091)" fill="#eee" width="44" height="29"/>
<rect x="343.6" y="118.1" transform="matrix(0.9994 -3.489950e-02 3.489950e-02 0.9994 -4.4883 12.9978)" fill="#eee" width="53" height="34"/>
<rect x="440.4" y="213.9" transform="matrix(0.9659 0.2588 -0.2588 0.9659 76.8615 -109.0127)" fill="#eee" width="24" height="47"/>
<rect x="335.8" y="42.6" transform="matrix(0.9976 -6.975647e-02 6.975647e-02 0.9976 -2.9116 25.891)" fill="#eee" width="67" height="24"/>
<rect x="227.7" y="31.3" transform="matrix(0.9986 -5.233596e-02 5.233596e-02 0.9986 -2.065 12.6883)" fill="#eee" width="27" height="29"/>
<rect x="267.2" y="30.7" transform="matrix(0.9986 5.233596e-02 -5.233596e-02 0.9986 2.7496 -14.63)" fill="#eee" width="27" height="29"/>
<rect x="416" y="33" fill="#eee" width="27" height="29"/>
<rect x="487.5" y="30.5" transform="matrix(0.9994 3.489950e-02 -3.489950e-02 0.9994 1.8743 -17.4568)" fill="#eee" width="27" height="29"/>
<rect x="488.7" y="280.1" transform="matrix(0.9962 8.715574e-02 -8.715574e-02 0.9962 27.5889 -42.6472)" fill="#eee" width="27" height="29"/>
<rect x="530.2" y="271.4" transform="matrix(0.9563 -0.2924 0.2924 0.9563 -59.8354 171.4454)" fill="#eee" width="27" height="29"/>
<rect x="568.1" y="255.5" transform="matrix(0.9397 -0.342 0.342 0.9397 -57.2708 215.2178)" fill="#eee" width="27" height="29"/>
<rect x="501.1" y="114.1" transform="matrix(0.9976 -6.975647e-02 6.975647e-02 0.9976 -7.8605 37.1244)" fill="#eee" width="53" height="34"/>
<rect x="188.7" y="215.8" transform="matrix(0.9925 0.1219 -0.1219 0.9925 28.9855 -22.2305)" fill="#eee" width="15" height="20"/>
<rect x="528.5" y="29.6" transform="matrix(0.9744 -0.225 0.225 0.9744 3.976 123.0592)" fill="#eee" width="27" height="29"/>
<rect x="151.7" y="34.9" transform="matrix(0.9781 -0.2079 0.2079 0.9781 -6.6555 35.4301)" fill="#eee" width="27" height="29"/>
<rect x="522.7" y="230.1" transform="matrix(0.9962 8.715574e-02 -8.715574e-02 0.9962 23.3605 -45.8007)" fill="#eee" width="27" height="29"/>
<rect x="542" y="190" transform="matrix(0.9976 -6.975647e-02 6.975647e-02 0.9976 -12.9137 39.2464)" fill="#eee" width="27" height="29"/>
<rect x="555.6" y="159.7" transform="matrix(0.9994 3.489950e-02 -3.489950e-02 0.9994 6.2903 -19.9852)" fill="#eee" width="40" height="21"/>
<rect x="583.9" y="192.3" transform="matrix(0.9962 8.715574e-02 -8.715574e-02 0.9962 21.0971 -51.506)" fill="#eee" width="33" height="47"/>
<rect x="325.8" y="282.9" transform="matrix(0.9903 0.1392 -0.1392 0.9903 44.7774 -45.5055)" fill="#eee" width="44" height="29"/>
<rect x="251.4" y="282.5" transform="matrix(0.9945 -0.1045 0.1045 0.9945 -29.5946 29.321)" fill="#eee" width="27" height="29"/>
<rect x="568.5" y="22.5" transform="matrix(0.9994 3.489950e-02 -3.489950e-02 0.9994 1.6445 -20.2885)" fill="#eee" width="27" height="29"/>
<rect x="336.4" y="6.5" transform="matrix(0.9945 -0.1045 0.1045 0.9945 -0.2791 36.694)" fill="#eee" width="27" height="29"/>
<rect x="374.6" y="8.7" transform="matrix(0.9994 3.489950e-02 -3.489950e-02 0.9994 0.9102 -13.7604)" fill="#eee" width="40" height="21"/>
<rect x="605" y="248.9" transform="matrix(0.9781 -0.2079 0.2079 0.9781 -40.5754 134.2866)" fill="#eee" width="27" height="22.4"/>
<rect x="568" y="111" transform="matrix(0.9976 -6.975647e-02 6.975647e-02 0.9976 -7.3396 40.8677)" fill="#eee" width="27" height="29"/>
<rect x="605.2" y="108.7" transform="matrix(0.9986 5.233596e-02 -5.233596e-02 0.9986 7.295 -32.2126)" fill="#eee" width="27" height="29"/>
<rect x="605.4" y="150.5" transform="matrix(0.9945 -0.1045 0.1045 0.9945 -13.8576 65.601)" fill="#eee" width="27" height="29"/>
<rect x="476.7" y="5.8" transform="matrix(0.9994 3.489964e-02 -3.489964e-02 0.9994 0.7921 -17.4474)" fill="#eee" width="46.9" height="16.3"/>
<rect x="550.4" y="4.4" transform="matrix(0.9925 0.1219 -0.1219 0.9925 5.5736 -67.9025)" fill="#eee" width="15" height="14.4"/>
<rect x="605.7" y="26.1" transform="matrix(0.9962 8.715574e-02 -8.715574e-02 0.9962 5.8966 -53.8109)" fill="#eee" width="27" height="29"/>
<rect x="241.7" y="5.8" transform="matrix(0.9994 3.489964e-02 -3.489964e-02 0.9994 0.649 -9.246)" fill="#eee" width="46.9" height="16.3"/>
<rect x="565.8" y="352.7" transform="matrix(0.9335 -0.3585 0.3585 0.9335 -93.1501 232.0966)" fill="#eee" width="27" height="29"/>
<rect x="602.6" y="337.2" transform="matrix(0.9135 -0.4069 0.4069 0.9135 -89.8065 281.0948)" fill="#eee" width="27" height="29"/>
<rect x="614.4" y="375.4" transform="matrix(0.9925 0.1219 -0.1219 0.9925 51.2642 -72.9368)" fill="#eee" width="15" height="14.4"/>
<rect x="515.6" y="367.7" transform="matrix(0.9994 3.489950e-02 -3.489950e-02 0.9994 13.525 -18.4625)" fill="#eee" width="40" height="21"/>
<rect x="377.1" y="354.1" transform="matrix(0.9976 -6.975647e-02 6.975647e-02 0.9976 -24.9041 29.0592)" fill="#eee" width="53" height="34"/>
<rect x="450.7" y="366.8" transform="matrix(0.9994 3.489964e-02 -3.489964e-02 0.9994 13.3751 -16.3201)" fill="#eee" width="46.9" height="16.3"/>
<rect x="256.8" y="366.6" transform="matrix(0.9976 -6.975647e-02 6.975647e-02 0.9976 -25.7051 21.1695)" fill="#eee" width="67" height="24"/>
<rect x="337" y="357" fill="#eee" width="27" height="29"/>
<rect x="170.4" y="360.5" transform="matrix(0.9945 -0.1045 0.1045 0.9945 -38.1915 21.2815)" fill="#eee" width="27" height="29"/>
<rect x="208.6" y="362.7" transform="matrix(0.9994 3.489950e-02 -3.489950e-02 0.9994 13.1635 -7.7514)" fill="#eee" width="40" height="21"/>
<rect x="137.6" y="330.7" transform="matrix(0.9994 3.489950e-02 -3.489950e-02 0.9994 12.0034 -5.2931)" fill="#eee" width="40" height="21"/>
<rect x="135" y="292" transform="matrix(0.9976 -6.975647e-02 6.975647e-02 0.9976 -21.0203 11.104)" fill="#eee" width="27" height="29"/>
<rect x="176.2" y="293.7" transform="matrix(0.9986 5.233596e-02 -5.233596e-02 0.9986 16.3893 -9.507)" fill="#eee" width="27" height="29"/>
<rect x="128.3" y="362.5" transform="matrix(0.9994 -3.489950e-02 3.489950e-02 0.9994 -13.0712 5.1784)" fill="#eee" width="27" height="29"/>
<rect x="257.4" y="324.5" transform="matrix(0.998 6.274802e-02 -6.274802e-02 0.998 21.8061 -16.333)" fill="#eee" width="27" height="29"/>
<rect x="59" y="295" transform="matrix(0.9976 -6.975647e-02 6.975647e-02 0.9976 -21.4147 5.8098)" fill="#eee" width="27" height="29"/>
<rect x="96.2" y="292.7" transform="matrix(0.9986 5.233596e-02 -5.233596e-02 0.9986 16.2273 -5.3215)" fill="#eee" width="27" height="29"/>
<rect x="4.8" y="303.9" transform="matrix(-1.542559e-02 0.9999 -0.9999 -1.542559e-02 345.5636 296.5678)" fill="#eee" width="44" height="29"/>
<rect x="77.6" y="371.7" transform="matrix(0.9994 -3.566528e-02 3.566528e-02 0.9994 -13.5689 3.7248)" fill="#eee" width="40" height="21"/>
<rect x="14.1" y="353.1" transform="matrix(0.9949 0.1009 -0.1009 0.9949 37.5613 -2.2099)" fill="#eee" width="53" height="34"/>
<rect x="21.5" y="212.3" transform="matrix(0.9988 4.816983e-02 -4.816983e-02 0.9988 10.9645 -1.4229)" fill="#eee" width="27" height="29"/>
<rect x="62.6" y="210.2" transform="matrix(1 -4.171384e-03 4.171384e-03 1 -0.9365 0.3195)" fill="#eee" width="27" height="29"/>
<rect x="100.7" y="216.6" transform="matrix(0.9908 0.135 -0.135 0.9908 31.8173 -13.3302)" fill="#eee" width="27" height="22.4"/>
<rect x="109" y="136.7" transform="matrix(-9.854098e-02 -0.9951 0.9951 -9.854098e-02 -15.8615 288.0402)" fill="#eee" width="27" height="29"/>
<rect x="107.1" y="96.2" transform="matrix(0.1624 -0.9867 0.9867 0.1624 -8.1931 211.6737)" fill="#eee" width="27" height="29"/>
<rect x="115.5" y="59.7" transform="matrix(0.2138 -0.9769 0.9769 0.2138 28.8728 184.3482)" fill="#eee" width="27" height="29"/>
<rect x="22.8" y="176.6" transform="matrix(0.9998 -1.806533e-02 1.806533e-02 0.9998 -3.3986 1.0471)" fill="#eee" width="67" height="24"/>
<rect x="9" y="138" transform="matrix(1 2.469760e-03 -2.469760e-03 1 0.3768 -5.505154e-02)" fill="#eee" width="27" height="29"/>
<rect x="50.6" y="140.7" transform="matrix(0.9994 3.489950e-02 -3.489950e-02 0.9994 5.3195 -2.3725)" fill="#eee" width="40" height="21"/>
<rect x="-2.3" y="97.8" transform="matrix(2.621060e-02 -0.9997 0.9997 2.621060e-02 -85.3108 124.3564)" fill="#eee" width="46.9" height="16.3"/>
<rect x="82.4" y="7.5" transform="matrix(0.9945 -0.1045 0.1045 0.9945 -1.775 10.1492)" fill="#eee" width="27" height="29"/>
<rect x="120.6" y="8.7" transform="matrix(0.9994 3.489950e-02 -3.489950e-02 0.9994 0.7554 -4.8959)" fill="#eee" width="40" height="21"/>
<rect x="10.2" y="8.7" transform="matrix(0.9986 5.233596e-02 -5.233596e-02 0.9986 1.246 -1.2098)" fill="#eee" width="27" height="29"/>
<rect x="10.4" y="44.5" transform="matrix(0.9945 -0.1045 0.1045 0.9945 -6.037 2.8258)" fill="#eee" width="27" height="29"/>
<rect x="56.8" y="49.9" transform="matrix(0.9985 5.466146e-02 -5.466146e-02 0.9985 3.6391 -4.2093)" fill="#eee" width="44" height="29"/>
<rect x="58.6" y="90.7" transform="matrix(0.9492 0.3148 -0.3148 0.9492 35.8549 -19.6061)" fill="#eee" width="40" height="21"/>
<rect x="37.7" y="111.8" transform="matrix(-0.9991 4.172154e-02 -4.172154e-02 -0.9991 95.4948 241.686)" fill="#eee" width="15" height="20"/>
<rect x="174.7" y="6.8" transform="matrix(6.637418e-02 0.9978 -0.9978 6.637418e-02 186.9327 -166.1018)" fill="#eee" width="15" height="20"/>

<g class="paths"></g>

<g class="error">
	<circle fill="#004bb8" cx="20" cy="20" r="20"/>
	<path opacity="0.5" fill="#F2F2F2" d="M15.3,20.9c-1.9,2.2-4.3,2.5-6.9,1.7c-0.8-0.3-1.2-0.8-1.4-1.7c-0.1-1.3-0.3-2.5-0.5-4.1
		c1.4,1.4,2.8,2.1,4.5,2c1.7-0.1,3.1-0.9,4.2-2.3c1.2,1.5,2.6,2.4,4.4,2.3c1.8,0,3.3-0.8,4.4-2.3c3,3.4,6.7,2.6,8.9-0.1
		c-0.3,1.9-0.4,3.5-0.8,5.1c-0.1,0.4-0.6,0.6-1,0.9c-2.3,1.2-5,0.6-7.1-1.5C23,22.3,21.5,23,19.7,23C17.9,23,16.4,22.3,15.3,20.9z"/>
	<path opacity="0.5" fill="#F2F2F2" d="M15.3,29.9c-1.9,2.2-4.3,2.5-6.9,1.7c-0.8-0.3-1.2-0.8-1.4-1.7c-0.1-1.3-0.3-2.5-0.5-4.1
		c1.4,1.4,2.8,2.1,4.5,2c1.7-0.1,3.1-0.9,4.2-2.3c1.2,1.5,2.6,2.4,4.4,2.3c1.8,0,3.3-0.8,4.4-2.3c3,3.4,6.7,2.6,8.9-0.1
		c-0.3,1.9-0.4,3.5-0.8,5.1c-0.1,0.4-0.6,0.6-1,0.9c-2.3,1.2-5,0.6-7.1-1.5C23,31.3,21.5,32,19.7,32C17.9,32,16.4,31.3,15.3,29.9z"/>
	<polygon opacity="0.5" fill="#F2F2F2" points="24.7,6.2 22.6,4.1 19.8,6.9 16.9,4.1 14.8,6.2 17.7,9 14.8,11.8 16.9,13.9 19.8,11.1 22.6,13.9 24.7,11.8 21.9,9 	"/>
</g>

</svg>
