<svg viewBox="0 0 640 640" class="map">

<path id="Buckinghamshire" fill="#009542" stroke="#FFFFFF" d="M385.6,393.6
	c-2.7,2.6-5.8,4.4-8.7,6.5c-1.4,1-4.6,0.6-2.3,3.3c1.6,1.9,3,2.6,1.1,4.4c-1.3,1.3-2.7,7.2-4.8,1.7c-1.6-4.3-6.8-2.4-6.2-1.7
	c-3.8-0.2-9.8,4.4-3.6,5.6c3.1,0.6-2.4,8.6,1.9,6.8c-1.3,1.7-2,3.2-2.4,5.3c0.5,0.9,1.8,1.2,1.2,2.4c3,6.4-1,2.6-3.5,3.6
	c0.2-0.1,0.3,5.3,0.8,5.8c0.7,0.2,5.6,6.8,5.7,3.4c3.3,0.2,6.7-0.6,8.2,3.4c0.7,1.9-0.5,5.2,1.1,6c-2-0.7-4.6,0.9-4,2.6
	c0.6,2-0.9,1.6,0.2,3.8c1,2-0.8,1.9,0.3,3.8c1.4,2.4,1.6,2.5,3.4,1.4c0.6-0.4,1.6,1.6,3.3,1.3c2.1-0.3,3.4-1.9,5.4-2.6
	c5.4-1.9,0.6,8.3,5.1,9c2.7,0.4-0.4-3.1,0.9-4.7c0.4-0.5,5.2,0.7,4.9,0.1c1,2.1,5.7,6.9,5,1.1c-0.4-3.1,1.3-5.3-0.9-8.2
	c-1.9-2.5-3.2-6-0.1-8.3c-1.7-1.6-4.1-2.2-3.1-5.4c0.8-2.5-6.8-3.1-7.8-6c-0.7-2.2-6-6.6-2.4-8c2.1-0.8,1.6,2.4,2.7,3.5
	c1.6,1.6,4.2,0.2,5.9,1.8c0.5-3.2,3.5-1.1,1.4-4.3c-1.8-2.6-2.9-2.9-5.5-4.3c-3.5-1.9-3.8-2.8-1.6-6.4c1.7-2.8,0.6-4.6,1.7-7.5
	c0.9-2.3-1.9-3.2-0.3-5.2c1.2-1.6,4.1-3.5,3.4-5.8c-1-3-2.2-2.2-2-5.8C389.8,394.1,387.1,393.7,385.6,393.6z"/>
<path id="Cambridgeshire" fill="#FFDD00" stroke="#FFFFFF" d="M437.8,335.3
	c-2.7,2.5-6.7,1.1-5.3,6.3c-1.5,2.1-3.5,2.1-5.7,1.5c-3.4-1-4,0.9-7.1,1.3c-1.2,0.2-7.9-0.3-8.5-1.6c-2.5-1.6-4.9,1.6-7.2,2.3
	c-1.4-0.1-5.1-1-5.5,1.2c2.8,1.1-1.6,6,0.5,6.6c1.5,0.4,3.7-1.8,4.4,0.7c0.4,1.2,0.5,2.9,0.3,4.3c-0.3,2.2,5.7,3.5,3.3,8
	c-1.3,2.4-5,9.2-8.8,7.9c-0.5,2.2,3.5,10.1,5.6,10.5c1.5,0.3,3.1,7,4,5c0.8-0.8,3.4-1.1,3.3,0.7c-0.1,3.4,0,1,2,2.7
	c1.7,1.5-0.4,2.5,0.2,3.5c1,1.5,2.3,0.2,1.7,2.7c-0.1,0.5,3.4,0.5,4,0.6c2.4,0.4,0.9,4.3,0.8,5.8c-0.3,4.9,1.4,8.1,5.6,4.6
	c3.1-2.5,6.4-1.4,7.4,2.2c1.7,5.6,2.3-3.7,4.1-3.6c1,0.1,4.9,2.2,4-1.5c0.7-3.1,3.9-0.9,5.4-1.7c1.9-1,3.5,2,4.3,3.1
	c2.4,3.3,2.3,1.6,3.8-0.6c1.1-1.8-2.5-5.2,0.6-6.7c1.6-1.3,0.1-3.6,2.7-4.4c2.2-0.6,3.2,0.5,3.1-2.9c2.9-3.2-1.1-4.3-2.6-5.2
	c-3.3-2.1-7,4.8-7.2-2.9c-0.1-3.4,2.1-2.6,3.4-0.7c2.9,4.1,8.8-0.6,4.7-2.8c-0.7-0.7-1.4-1.3-2.2-1.8c-1.7-1.4,1-1.8-0.9-3.7
	c-1.6-1.6-2.6-3.9-2.9-6.1c1.7-0.5,3.2-2,3-3.9c-0.3-2.4-4.3-6.1-6.5-6.7c-1.7-0.4-3.6,1-5.1,0.4c-0.5-0.2-3-2-0.8-2.3
	c-1.3-2.2-0.6-2.7-0.8-4.9c-0.1-1.1-1.5-1.6-1.4-2.8c0.2-1.7,2.6-1.5,0.7-3.3c-0.5-0.5-1.9-1.3-1.9-2.2c0-2.9,0.2-1.6-1.2-4.1
	C439.1,338.5,442,334.5,437.8,335.3z"/>
<path id="Cumbria" fill="#009542" stroke="#FFFFFF" d="M222.9,189.1c-0.2-0.9-1.2-5.3-1.1-5
	c-0.4-1.2-2.4-1.6-2.7-2.5c-1.4-3.7-4.4-7.7-5.5-11.5c-0.7-7.6-5.5-13.1-9.8-19.1c-1.9-2.8-5.6-5.3-1.8-8.1
	c1.5-4.4,0.7-9.4,2.2-13.5c1.8-4.7,9.9-9.9,6.4-13.5c1.4-2.5-0.6-2.6,1.5-5.1c1-1.1,10.3-13.3,6.7-11.7c2-3.6,8.1-1.7,10.9-0.9
	c2.3,0.7,2.9-3.9,5.5-1.6c0.9-2.5,4.6-6.7,1.7-9.1c4.6-1.7,7.3,0.8,10.5-4.1c1.1-1.7,11.5-11.3,12.8-10c1.9,1.9-0.1,4.5,3.6,5.9
	c2.2,0.8,3.1,5.6,5.5,4.8c3.6-1.2,2.8,1.2,3.2,3.7c0.4,2.1-4.7,2-5.3,4.3c-1.1,3.7-1.2,4.2,0.6,7.5c1.2,2.2-0.2,3.5-1.9,5.6
	c-0.6,0.7,1.5,7.1,2.8,7.9c3.4,2.3,5.4-2.7,8.3-3.5c0.6-2,3,3.1,3.9,3.3c4,2.1,2.4,6.6,1.4,9.9c-1.2,3.9-1.5,3.6,1.8,6
	c1.1,0.8-0.8,5.1,0,7.2c2.2,2,7.8,5.6,8.6,8.4c0.7,2.5,1.3,7.3-2.3,7.6c-2.6,0.2-5.6,0.3-6.4,3.4c-0.5,1.8,1.6,2.6,0.3,4.2
	c-1.1,1.3-2.8,1.7-4.1,2.7c3.6,2.9,2.9,5.4,2.9,9.7c0,3.7-3.1,1.6-5.4,3.7c-1.3,1.2-2.1,0.7-3.4-0.2c-1.2-0.8-4.7,2.6-5.9,3.1
	c-1.7,0.7-4,1.3-5.7,0.4c-0.6,1.9-2.4,4.6-4.8,3.7c-3-1.1-2.9-4.6-6.4-1.8c-4.7,3.7-4.7-1-3.6,5.4c0.6,3.5-2.4,6.8-4.9,8.6
	c-1.4,1-5.1-4.5-4.8-4.9c0.2,0.5,0.8,4.4-0.1,4.7c-0.2-0.9-0.2-1.8,0-2.7c-0.3,0.8-1.8,2.8-1.6,0.4c0,0.7-0.1,1.4-0.5,1.9
	c-0.4-0.4,0.3-5,0.2-5c-0.4,0-2.3,5.2-2.2,5.7c-0.8-1.9-0.9-4.8-0.2-6.8c0,0.1-1.9,5.3-1.8,5.3c0.2-1.5-2.2,1.4-3.1,1.9
	C225.7,197.1,224.1,191.3,222.9,189.1z"/>
<path id="Derbyshire" fill="#C2240C" stroke="#FFFFFF" d="M311.1,249.3c-1.5,0.6-3.8,0.8-2.6,3
	c-1.9,1.3-3.5,0.3-4.1,3.1c-0.3,1.6,0,4.2-1.9,5.1c-2.4,1.1,1,1.9,0.9,3.4c-0.1,1.8-2.4,3-1.4,4.2c1.3,1.6,0.7,3.6,0.9,5.5
	c0.1,1.3,0.7,10.5,1.3,10.6c8.8,0.9,12,7.9,12.8,16.4c0.3,2.7,2,1.8,1.5,4.9c-0.5,2.9-2.8,2.6-4,4.6c-1.1,1.9-3.3,11.7,1.9,9.9
	c1.7,0,2.5,1.7,3.9,2.2c2-0.7,4.8,0.4,6.5,1.2c2,1,2.6,4.4,1.7,6.2c-0.9,1.7-8.9,2.2-6.1,6.9c1.8,2.9,6,4.7,8.7,1.4
	c1.7-2.1-1.1-3.2,0.5-4.6c1.9-1.6,3.9,0.6,5.1-1c2.3-3.1,5.1-9.1,8.7-10.5c2.6-2.7,8.1,0.1,3.7-4.3c-1.4-1.4-1.4-8-1.9-10.1
	c-1.2-1.4-1.9-3.6-2.2-5.3c-0.7-4.4,3.9-3.8,1.1-8.7c-0.3-6.3,7.8-2.2,7.7-6.9c0-2.1-0.8-3.5-0.5-5.8c0.3-2.2,3-1.4,1.8-4.2
	c0.4-3.3-9.6-0.8-7.3-4.3c-3.2-1.4-3.7,3.8-6.4-0.4c-1.5-2.4-3.5,0.9-4.5,1.5c-0.7,0.4-6,2-6.3,0.6c-6.2,0-2.3-3.7-1.9-3.5
	c-2.2-1-5.3-1.7-3.8-4.9c-2.6-0.6-5.7-3.3-5.8-5.8c-0.1-3-3-2-3.3-4.9C315.8,251.8,313.1,251.1,311.1,249.3z"/>
<path id="Devon" fill="#005FAB" stroke="#FFFFFF" d="M190.3,495.5c-1.7,2.3-6.3,1.5-8.7,1.8
	c-2.8,0.4-6,2.4-8.9,1.7c-2.3-0.6-5.5,0.8-7.8,1.5c-2.3,0.7-1.6,7.5-4.4,6c1.7,1.7,1.3,8.7,3.7,8.8c-0.2,0-1.9-2-2-1.8
	c-1.4,3.3-1.8,7.6-6.2,9.2c-5.1,1.9-12-9.2-12.9,1.5c-0.1,1.5-2,5.2,0.6,5.5c0.9,0.1,4.1-1.2,4.4,0.3c0.9,5.3,3.5,10.2-2.1,14.3
	c2-0.3,2.7,2.1,4.3,2.6c0.6-0.2,1.1-0.5,1.4-1.1c1.4,0.3,1.1,2.6,1.3,3.5c0.4,1.8,2.1,12.6,4.9,11.7c0,1.4-1.3,4.6-0.3,5.7
	c0.1,0.2,2,0.1,2,0.2c0,0.1,0.8,4.7,0.4,4.7c3.5-0.1,2.8,1.6,5.5,3.8c-1.6,1.6-3.3,0.9-3.5,4c0-0.4,2.1,0.7,2.2,2.4
	c0.2,2.6-0.4,5.9,1.4,8.1c2,2.4,2.5-1.7,3.3,3.1c0.6,3.5,2.8,1,4.3,2.6c0.1,0.1-0.4,3.1,3.3,1.3c1.3-0.6,7.3-0.5,6.7,2.3
	c1.5-0.4,3.1,5.1,4.3,6.1c2.4,2,5.6-1.3,4.7-3.4c0.4,2.6-1.9,3.8,1.8,5.2c0.5,0.2,5.2-2,5.2-1.7c0-3.6-1.1-6.4,1.8-9.7
	c2.3-2.5,4.6-3.2,1.6-7.3c0.6-0.1,3.5,8.8,4.6,2.7c0.8-4.3,4.3-4.6,3.5-10.3c-0.6-4.5-3.6-7.1-1.1-11.4c2.4-4,3.6-6.1,2.3-10.4
	c0.4,1.2,0.2,2.9,0.6,4.1c1.1,2.7,7.5-1,8.7-2.5c2.3-3,3.1-4.8,7.3-5c1.8-0.1,3.9,0.4,5.5-0.6c2.5-1.5,2.9-0.5,5.9-1.2
	c6-1.4,1.2-6.7,4.7-8.6c4.2-2.3,0.4-1.6-1.5-3.6c-1.1-1.1-1.3-2.9-1.7-4.3c-1.6-0.1-3.8,0.9-4.2-1.4c-1.7-1,0.6-5.8-2.7-4.1
	c-1.4,0.7-3.5,1.7-5.1,0.7c-3-2,1.1-2.7-0.5-4.9c-0.8-1.1-3.1,0.6-4.1,0.5c-1.6-0.1-2.9-1.3-4-2.4c-2.8-2.6-5.5-0.6-4.9-5.8
	c-2.7-0.6-6.6-2.9-8.5-0.2c-2.3,3.1-7.7,1.9-5.1-2.6c-0.1-1.7-7.4-4-9-5.1c-3.1-2.1-5.9-3-6.2-7.2c-0.3-4.4,5.7,0.6,7-3
	C192.1,497.8,196.6,496.8,190.3,495.5z"/>
<path id="Dorset" fill="#FFDD00" stroke="#FFFFFF" d="M282.8,513.2c-2.7,0.9-0.3,2.8-0.5,4.5
	c-1.5,0.9-4.8,5.5-1,5.7c0.1,0.8-6.9,3.6-7.2,3.6c-1.4-0.4-1.8-3.5-3.1-4.4c-2.2-1.5-2,0.8-3.3,1.4c-2.4,1.1-1.6-0.6-2.3,2.8
	c-0.3,1.7-1.6,3.8-1.3,5.7c1.7,3.7-20.2,4-21.3,9.1c2.3,2.1,6.4,1,1.6,3.8c-0.9,0.5-1.7,6-0.8,6.5c0.8-0.3,1.6-0.7,2.3-1.2
	c1.7-0.4,3.6,0.5,5.2,1c4,1.5,7.5,3.1,11.1,5.6c3.5,2.4,6.8,5.1,9.7,8.3c1.2,1.3,4.4,6.7,3.2,8.1c0.2-0.5,0.4-1,0.6-1.5
	c3.5-2.9-2.6-4.1-1.1-7.3c2.1-4.6,4.3-4.2,9.2-2.8c3.8,1.1,7.8,0,11.3,2c3.1,1.8,4.7,3.1,7.8,1.7c0.9-0.4,2.8,0.3,3.3-0.6
	c0.6-1-0.3-2.3,0.3-3.4c1.3-2.1-0.7-3.3,0.7-6.4c1.4-3,6.3-4.2,9.2-3.3c1.4,0.9,6.5-1.4,6.8-2.9c0.3-1.3-3.4-0.6-3.8-0.4
	c1.3-5.2-1.6-0.8-2.8-2.3c-1-2.4,0.3-8.6-1.6-9.7c-1.2-0.7-2.7,1.3-2.4-1.6c0.1-0.9,0.6-2.8,1.9-2.7c2.3-4.3-3.4-1.7-5-4.1
	c-0.9-1.4-2.9-6.4-5.2-4.9c-1.4,0.9-6.2,4.4-7.7,3.4c-1.3-0.8-1.2-2.5-2.6-3.7c-1.3-1.1-2-2.8-2.7-4.4
	C289.5,514.8,287.1,514.1,282.8,513.2z"/>
<path id="East_Sussex" fill="#005FAB" stroke="#FFFFFF" d="M436.8,506.1c-1.8,1.6-7.7-0.6-4.8,3.9
	c-1.1,1-4.7,0.7-4.4,2.9c0-0.2,2.2,3.9,2.5,3.3c-1,2.4-1,5.1-2,7.4c-0.9,2-2.9-0.9-4.1-0.3c-0.9,1.2-3.7,13.8-5.5,10.4
	c-0.8,2.7-1.7,1.9-3.8,1.6c-0.9,2.4,0.8,5,3.1,5.8c0.9,0.3,5.1,2,5.7,2c4.7-0.3,15.9,4.1,20.1,7.3c3.4,1.1,8-8.5,11.3-9.7
	c5.8-2.2,12.4-1.8,17.5-5.9c2.1-1.7,3.7-4.7,6.7-4.7c1.2,0.1,2.4,0.1,3.7,0c1.9-0.4,1.8-3,0.2-3c-2.4,0-1.4,2.6-3.3-1.4
	c-2.3-4.6-4.5-1.7-7.3-4.3c-2.3-2-3.3-0.7-5.9-0.1c-1.5,0.4-5-1.9-6.5-2.6c-0.9-0.4-1.2-1.1-0.9-2.1c-1.3-0.5-2.5-1.2-3.7-2
	c-1.5-1.3-4.2-1.9-3.3-3.9c-1.9,0-1.5-1.4-2.9-1.7c-1.8-0.4-3.7,0.6-5.8,0.1C438.5,511.4,440.7,505.5,436.8,506.1
	C435.3,507.5,437.9,505.9,436.8,506.1z"/>
<path id="Essex" fill="#009542" stroke="#FFFFFF" d="M442.3,404.6c-1.8,2.6-1.6,6.6-6.1,3.4
	c0,3-2.7,5.5-2.1,8.6c2.9-1.4,2.9,5.5,3.2,6.9c-1,4.5,3.5,2.6,3.5,2.8c0,1.2,1.9,2.9-0.5,3c-0.3,0.9-1.1,4-0.1,4.9
	c-2.5,4.2-7.7,2.2-10.2,6.2c-2.5,4.1-1.2,19.6,5.8,15.9c2.1-1.1,7.3-3,9.4-1c0.7,0.6,1.3,2.9,1.6,3.7c0.8,1.9,3.1,2.2,3.4,4.1
	c0.3,1.8-12.7,4.3-4.7,8.9c2.3,1.3,3.6,0.1,6.2,1.8c2.9,1.9,5.4-0.9,6.5-3.2c1.5-3,4.6-2.7,7.6-2.5c2,0.2,9.1-3,9.8-1.6
	c2.3,1,7.5,1.8,9.2,0.2c-1.8-1.4,0.9-1.4,1.7-1.6c-1.7,1.3,1.6,0.5,2,0.6c0.7-1-2-1.7-2.3-1.6c0.9-0.2,1.8-0.3,2.8-0.1
	c0.2-0.6-0.1-1-1.1-1.1c0.1-0.7,3.7,0,4.1-2.3c-1,0.8-1.7,0.8-1.9-0.1c1.2-1.4,4.9-5.6,3.4-6.2c0.4-0.2,3.9-0.9,4.1-1.7
	c0.7-2.9-10.2,3.3-11.3,2.5c4.2-1,5.2-5.3,4.8-9.1c-0.6-5.4-2.6-3.6-5.9-3.5c-2.1,0.1,2.7-3.2,3.1-3.3c3.2-0.6,2.8-0.8,4.9-2.9
	c0.2-0.2,1.6,3,1.9,3.3c1.9,1.9,8.8-3,10.4-4.1c1.7-1.2,6.3-4.9,5-7.6c-0.8-1.7-2.6-1.3-1.6-3.7c0.5-1.2,1.9-2.6,1.9-3.9
	c-4.5,0-18.6,1.7-21.2-3c-5.1,0.4-15.1,3.6-13.5-5.9c-1.6,1.1-3.6-1.5-1.9-1.8c-0.6-5.2-3.5-4.1-8-2.9c-1.1,0.4-2.1,1-3,1.6
	c-2.9,1.3-2.2-1-4.5-1.6c-1.9-0.5-5.9,1.9-5,4.1c-2.6-0.3-3.5-3.9-5.4-5.3C446.5,404.1,445,406.6,442.3,404.6z M491.1,458.3
	c0.9,0.3-1.7,1,0,0.2V458.3z"/>
<path id="Gloucestershire" fill="#005FAB" stroke="#FFFFFF" d="M317.7,402.6c-1.1,0.8-2,1.8-2.7,3
	c-1.2,1.7-3,0.1-3.5,1.5c-0.9,2.2,5.3,4,1.5,6.7c-3-2.3-6.3-5.2-9.9-1.9c-2.6,2.3-7.2,0-8.6,2.8c0.3,0.3,1.3-9-2-5
	c-1.7,2.1,0.1,3,0.3,4.8c0.1,0.6-3.7,1.4-4.5,2.3c-5,6-4.7-4.7-8.3-4c-1.1,0.2-2.9,4.5-4.2,1.7c-0.5-1.2-2.2-3.2-3.4-0.7
	c1.4,2-2.1,4.6,0.4,5.7c1.2,0.5,2.5,4.3,2.7,5.8c0.2,1.4-8.7,4.8-9.5,5.3c-6.6-0.4-3.9,9.6-5.1,12c-0.8,1.7,1,7.9-0.7,7.6
	c-0.3,1.4,1.4,3.2,1.4,5.4c0,2.5-4.9,5.7-1.4,6.6c-0.8,0.7-1.2,2.5-0.9,3.4c0.1,0.3,1.2-2.8,2.2-0.7c1.4,3.1,1.6,1.5,4.4,1.9
	c0.6,0.1,1.7,2,3.5,2.2c3.6,0.4,0.5,3.9,0.3,5.3c-1,5.7,11.3,0.5,12.6,1.1c6,2.7,0.7-5.2,0.9-6.7c0.3-1.7,5.8-1.9,3.5-4.4
	c-0.3-3.6-0.3-5.4,3.7-6.7c2.5,3.2,4.9-1.1,6.1-2.9c3.5-5.8,4.7-2.7,10-0.9c-2-6.7,3.4,0.1,4.4-1.5c0.3-0.5-1.8-6,0.9-1.9
	c2.7,4.1,4.2-2.6,3.5-3.2c1.8,1.6,1.6,5.5,5.3,3.4c0.1-0.1,4.5-4,4.8-2c-0.4-1-1-1.8-1.9-2.5c-0.9-1.7-0.2-3.8-0.9-5.7
	c-1.5-3.6,1.3-3,1.1-6.7c-0.1-2.6-0.3-4.9,1.3-7.1c0.8-1.2,1.2-4.7,2.7-5c-0.7-1.4-2.2-2.2-3-3.5c-1.4-2.5,1.8-4.9,2.7-6.8
	c-1.2-0.8-2.7,0.6-3.9-0.3c-0.8-0.6-0.9-2.8-1.7-3.5C320.4,405.9,319.4,404.2,317.7,402.6z"/>
<path id="Hampshire" fill="#005FAB" stroke="#FFFFFF" d="M360.7,480.6c-1.2,0.6-1.7,2.7-3,2.9
	c-2.1,0.4-5.8-1.2-8-1.4c-1.7-0.2-14.2-0.8-10.7,3.6c-1.6,1.2-3.3,0.3-5,0.2c-2.4-0.1-0.7,3.3-0.9,4.7c-0.2,1.1-0.2,2.7-0.4,3.8
	c-0.3,1.6-3.1-0.5-4.4,0.6c-2.3,1.9-1.5,2.6-4.2,3.3c-2.1,0.5-1,2.9-0.1,3.8c0.4,1.9,1.2,3.9,0.6,5.9c2,0,2,1.6,1.8,3.1
	c-0.3,3.1-0.6,5.8,1.5,8.1c0.8,0.8,0.5,1.7-0.4,2.2c-2.1,1,0.7,2.3,0.1,3.9c-1.8,5-7.3-1.1-9.7-1.7c-2-0.5-3.1-2.1-4.7-2.6
	c-1-0.3-1.3,1.8-2,2c-0.5-0.4-0.6-1-0.4-1.7c-1.6,0.6-3.2,1.1-4.8,1.8c0.2,1.7,4.3,7.7,6,7c5-2.2,1.1,2.5,0.7,4.2
	c-1.3,4.8,3.5,0.6,3.3,5c0,1.1-0.9,10.6,2.7,6.2c0.9,0.6,0.6,2,0.9,2.9c0.4,1.1,2.1-0.5,3,0c2.6,1.5-3.2,0.2,2.6,2.1
	c2.2,0.7,4.1,2,6.3,2.5c-0.2-6,16.8-6.8,15.4-11.6c0.1,0.4-3.1-3.2-1.6-3.5c1.2-0.2,8.4,5.3,9.1,6.6c2.4,1.5,10.3-0.8,11.2,1.6
	c-1.5-2.1,3.9-0.2,4.8-0.6c-1.9-3.4,0.2-7.5-1-10.9c-0.5-1.5-0.1-3.8,1.4-4.7c-1.3-2.4,0.7-4.3,1-6.7c1-1,3.5-10.1,6.1-8.1
	c1.4,0.3,5-4,4.2-5c-0.8-1.1-3.5-5.5-5.4-4.1c1.4-3.3-1.9-5.8,0.3-8.7c1.5-2,3.6-1.2,5.4-0.1c1.9-3,0.7-11.4-3.8-11.8
	c-2.2-2.2-5.5-1-8-2.6C366.2,483.7,364,483.6,360.7,480.6C358.7,481.7,361.8,481.7,360.7,480.6z"/>
<path id="Hertfordshire" fill="#005FAB" stroke="#FFFFFF" d="M421.9,412.5c2.8-2,8.6-7.5,11-1.5
	c2.2,5.6,3.3,9.7,4.8,15.9c0.5-0.1,2.8-1.4,3.2-0.8c0.8,1.1-0.4,8-1.6,9.4c-3,4.7-9.1,1.3-10.6,8.4c-0.6,2.8,1.2,5.6-3.1,4.5
	c-4.7-1.1-5.4,2-9.3,2.1c-3.1,1.6-8.1,2.7-10.6,5.1c-0.8,0.2-7.8,0.1-7.4-1.1c-0.3,0.8,0.2,2.4-0.5,2.9c-4.3-1.3,0.6-10.2-2.4-8.5
	c-0.8-1.9-0.4-5.7-1.8-6.4c-2.4-1.2-7.4-1.8-7.1-5.8c-0.1-2.2-2.4-2.3-3.4-3.9c-1.6-2.6,3.9-4.1,2.9-1.2c1.9,6,8,0.2,10.8,3.9
	c1.6-1.1,0.9-4.7,3.5-5.2c2-0.4,4.3,2.7,6.1,2.2c3.6-0.9,0.1-6.3-0.6-7.7c-0.8-1.7-1.9-3.5-1.6-5.4c0,0.1,0.7-2.9,1.4-2.2
	c0.3,0.9,0.3,1.8-0.1,2.7c1.7,0.9,3-2.5,1-3.3c1.6-0.6,4.5,0.4,4.7-2.2c0.6,0.3,1.4,2.5,2.2,2.2c0.1,0,3-3,3.1-3.3
	c0.2-1,0-2-0.7-2.8c0.8-2.1,3.1-2.3,3.9-4.3C420.3,406.8,421.7,411.5,421.9,412.5z"/>
<path id="Kent" fill="#C2240C" stroke="#FFFFFF" d="M462.9,467.9c-3.2,0.1-5.2,2.2-5.7,5.3
	c-2.7,1-6.4,1.2-8.1-1.6c-1.4,2.6-3.6-0.2-5.2-0.9c-0.7-0.3-4.9,5.8-4.8,7.2c0.1,1.9,0.3,4.2-0.7,6.4c-0.7,1.7-4.7,3.3-3.4,6.2
	c-3.6,0.3-4.1,9.4-2.3,12.4c-1.7,7.2,6.3,0.8,6.6,4.9c0.2,3.1,7.1,1.5,9.7,1.2c1.9-0.2,4.8,5.4,7.2,6.2c1.5,0.5,3.5,1.3,2.9,3.4
	c2.9-0.5,4.4,2.9,7.2,2.8c2.2-1.4,5-2,6.6,0.6c2.3,0.1,5.9-0.4,6.2,2.9c0.6,1.6,1.9,3.6,3.7,2.2c2.1,0.8-0.3,4.2,2.4,3.7
	c6.5,0.5,5.8,0.9,5.8-5.9c0-5.5,4.3-9.7,9.6-10.4c2.4-0.3,4.7-0.6,5.9-2.9c3,0,5.3-1.8,7.7-3.2c6.2-3.7,3.5-10.9,2.7-16.8
	c-0.7-5,5.3-4.9,3.7-10.9c-0.6-2.4-15,0.6-17.8,0.8c-2.6,0.2-5.8,0.3-8.2,1.2c-4.4,1.7-3,0.6-5.3-2.8c-2.9-4.2-11.9-2.9-13.4-7.1
	C473.9,467,468.1,468.3,462.9,467.9z"/>
<path id="Lancashire" fill="#005FAB" stroke="#FFFFFF" d="M274.1,174.4c-2.4,2.2-5.6,4.6-9,4.8
	c-1.9-1-3-0.5-3.3,1.5c-0.8,1.1-2.3,2.3-3.8,1.7c-1-0.4-1.5-1.1-1.7-2.2c-1.1-0.9-2.8-0.2-3.9-1.1c-0.7,2.2-4.1,2.5-5.7,3.2
	c0.4-0.1,1.6,9.4-0.1,10.3c-2.8,1.4-3.8,9.2-7.2,11.6c-0.8,0.6-2.7,0.9-3.4,1.7c0.2,4.3,1,8.5,0,12.8c-0.7,3.2,0.2,6.4-0.5,9.6
	c-0.6,3.4-1,4.8,2.7,4.7c2.4,0,5-2.4,5.5,1.9c0.3,2.9-1.5,4.6-3.7,6c-2.9,1.9-0.3,4.4-2.4,6.3c-0.9,3.1,2.8,3,4.3,4.7
	c1.1-0.6-0.8-3,0.1-3.3c2.5-0.8,5.2,4.9,6.4,5.6c4.6,2.5,2.2-4.5,5.9-2.7c5.2,2.5,3.2-6.3,5.1-8c1.3-1.2,7.2-1.7,7.7,0.1
	c1.3-1.2,2.7-3,4.6-3.1c3.5-0.2,1.2,0.1,3.7-1.9c-0.2,0.2,3.3,3.5,4.6-0.2c1.2-3.4,3.6,0.1,4.5-2.4c-0.4,1.2,1.7,5.6,2.1,5
	c0.8-1.6-1-5.7,2.6-5.2c0.6,0.1,2.8,3.4,3.3,2.9c2.9-3.2-0.6-6.1,0.3-8.9c0.7-2.5,3.3-3.3,2.2-6.4c0.1-3.2,4.2-3.6,5.5-6.1
	c-0.2-1.9-3.3-2.8-2.5-4.5c-2.3-2.8-2.9-4-5.6-6c-0.5-0.4-3.4-4.4-3.3-4.4c-2,0-9.2-0.5-7.7-3.5c2.1-4.2-4.6-2.9-6.1-3.3
	c-2.2-0.6-1.1-3.7-3.2-5.2c-1.7-1.2-4.6-3-4.2-5.5C268.5,181,274,179.3,274.1,174.4z"/>
<path id="Leicestershire" fill="#FFDD00" stroke="#FFFFFF" d="M379.8,309.7
	c-2.5,2.5-3,6.4-5.6,8.8c-1.1,0.5-2,1.1-2.9,1.8c-1.5,0.8-0.3,2-2,3.3c-2.2,1.7-3,4.6-6.9,3.6c-2.9-0.7-3.8,1.4-7.1,1.4
	c-1.8,2.9-5.7-0.7-5.9-2.9c-0.1-2.5,0.9-5.4-2.6-4.8c-5,2.9-6.5,7.8-10.4,11.7c-0.8,0.8-5.5-1.4-5.2,1.8c0.3,4.1-1.5,2.2-2.2,5.1
	c-0.6,2.5,5.4,4.2,2.2,6.9c-2.1,0.5,1.4,5.8,1.8,6.2c5.2,4.8,12.8,6.5,16.8,12.7c1.2,1.8,2.7,7.4,5.7,7.2c2.1-0.1,5.7-7,7.5-2.9
	c1.7-1.4,0.1-3.7,2.5-4.5c2.1-1.6,7.2,0.5,7.7-0.4c0.2-0.3,0.2-6.8,1.8-6.5c2,0.4,10.4,3.2,8.1-1.3c-1.8-3.4-5.6-6-4.7-8.9
	c1.2-3.8,1.7-6.2-0.2-9.7c-2.3-4.5,10.4-1.3,8.7-7.2c-1-3.5-2-10-5.8-12c0.1-0.2,0.5-5.2,0.4-5.6
	C381.5,312.3,380.5,310.3,379.8,309.7C378.5,310.9,380.2,310.1,379.8,309.7z"/>
<path id="Lincolnshire" fill="#009542" stroke="#FFFFFF" d="M390.3,229.5c-1,0.4-9.6,7.7-9.8,6.7
	c-2.5,2.7-5.9,2.3-7,6.2c-0.8,2.6-0.3,5.2-0.7,7.8c-4.6-3.3-0.6,7.1-1,7.5c2,0.1,4.5-0.8,6.3,0.3c1.3,0.7-0.6,2.8,0.9,4.6
	c1.7,2,0,4,0.9,5.4c0.3,0.6,1.9,4.6,2,4.7c0.5,1.7-3.5,8.8,0.6,8.3c0.8-2,3.4-2.1,4.5-0.3c1.9,3.4-4.7,3.8-5.4,7
	c4.1-0.5,2,3.9,2.1,6.1c0.1,2.1,2.8,5.8,0.4,6.9c-1.9,0.9-5.6,4.7-4.7,6.9c0.5,1.2,0.8,3,1.5,4.1c1.4,2.1-0.5,2.9-0.1,4.9
	c0.5,3.1,3.3,6.2,4.8,9.1c1.1,2.1,0.6,3.8,1.5,6c1,2.2,3.6,1.6,5.3,2.1c3.3,1.1,3.4,3.5,6.9,4.3c1.3-0.3,3.3,0.6,3,2.2
	c-0.6,3.2-4.1,1.7-5.5,3.3c1.8,4.3,10.3-0.9,12.9-1.6c1.1,0.5,2,1.1,3,1.8c1.9,1,2.3-0.9,4.4-0.1c3.8,1.5,5.5-1.9,9.3-1.1
	c2.6,0.5,4.9,1.8,5.9-1.8c0.3-1.2,0.4-2.4,0.4-3.6c2.3-0.4,4.3-1.7,6.6-2c5-0.6,7.9-4.1,7.3-9.2c-6.1,1.8-1.2-8.8-5.3-10.2
	c-1.3-0.4-2.6,0.3-3.2,0.4c1.3-0.3,2.7-4.7,5.9-3c1.9-6.7-8,1.5-7.4,2.6c0.7-0.5,1-1.1,0.9-1.8c-1.1-1.1-4.2,1.8-4.6,2.6
	c3.2-2.8,6.9-9.8,11.7-9.7c-0.6-0.3,4.8-3.8,5.3-4.9c1.9-4.6,2.9-11.2,2.1-16.1c-1.1-6.2-4-11.4-6.1-17.3
	c-1.8-4.8-3.2-12.3-7.8-15.5c-1.2-0.8-3-1.6-4.4-2.2c-2.7-1.1-3-3.3-5.2-5c-5.1-3.8-10.2-5.2-14.1-10.9c-1.9-2.8-1.9-5.4-6-4.4
	c-2.1,0.6-5.2,2.3-7.3,0.6C396,234,394.2,231.9,390.3,229.5z"/>
<path id="Norfolk" fill="#C2240C" stroke="#FFFFFF" d="M443,357.4c-0.3-0.1-0.8-5-1-5.4
	c-0.4-0.9-0.1-2.9,0.8-3.5c0.9-0.9-1.9-2.5-2.3-3.1c-1-1.3,1.4-1.1,0.6-3c-1-2.2-2.5-0.6-1.6-4.4c0.9-3.8,5.7-3.5,6.8-6.2
	c0.2-0.5-1.3-1.1-1.2-1.9c0.1-0.7,1.1-2.2,1.3-3.2c0.4-2.4-2.4,0.1-3.3-2.1c-0.6-1.4,1.9-2.2,2-3c0,0.4,1.3,2.1,1.7,2.4
	c0.8,0.1,0.9-0.3,0.4-1.1c0.6,0.7,4.6,2,3.6,3.5c0.1-0.1,0.5-1.3,0.8-1c0.5,0.5,1.1,3.2,1,3.8c0.1-1.1-0.5-3.7-0.6-4.9
	c0,0.3,0.1,0.6,0.2,0.9c-0.8-1.5,5.6-7.5,4.6-7.6c2,0.2,4.6-7,6.6-8.2c2.1-1.3,4.1,1,6.1-0.1c2.2-1.2,3.9-1,6.7-0.5
	c3.9,0.7,6.4-1,10.1,0c4.3,1.2,9.3,2.2,13.7,3.2c5.2,1.1,10.8,0.8,15.3,4c4.8,3.4,8.8,7.6,13.2,11.4c4.2,3.6,7.5,7.3,9.2,12.7
	c0.7,2.3,1.8,4.7,2,7.1c0.2,3.3-1.2,6.7-0.2,9.9c-13-2.8,0,4.4-5.8,7c-0.9,0.4-1.8,0.4-2.6-0.1c-2.6-1.4-1.2,0.3-3.7,0.7
	c-1.1,0.2-3.3-0.8-4.7-0.6c-0.6,0.3-1.1,0.7-1.7,1c-0.4-0.7-0.9-1.1-1.7-1.2c-0.3,0.1,1.7,1.9-0.4,2.7c-2.6,0.9-2.8,3.5-4.9,4.8
	c-1.5,1.9-3.7,0.3-4.8,3c-4,2.8-8.4-0.5-12.7-0.7c-2-0.1-3.9,0.1-5.9,0.5c-0.8-1-1.9-1.6-3.2-1.7c-3.7-0.5-6.3,0.4-9.9,0.3
	c-0.6-1.6-4-0.5-5-2.1c-0.8-1.3,3.2-4.5,2.2-5.1c-2.1-1.2-6-0.2-8.6-0.1c-2.9,0-5.6,0.6-8.5,1c-1.1,1.2-1.2-1.6-1.6-2.1
	c-2.8-3.2-4.6-5.4-9.2-4.8C443.5,360.6,443.2,358.6,443,357.4z"/>
<path id="Northamptonshire" fill="#005FAB" stroke="#FFFFFF" d="M352.6,416.6
	c-1.9-1-5.6,1.1-3.7-2.8c-0.6-1.8-1-3-2.2-4.7c0.4-1.4,1.2-2.8-0.6-3.5c0.8-1.7,2.9-0.9,4.2-1.5c0.7-0.3-3-4.4-3.3-4.8
	c-2.1-3-1.5-4.2,1.6-5.5c3.5-1.5-1.7-4,1.2-5.2c3.5-1.4,4.1-7.5,0.7-8.8c-2-1,1.6-2.6,2.3-2.8c2.9-0.9,2.8-2.1,0.8-4.9
	c2.9,0,7.5-5.7,9.6-2.8c0.9-0.8,4.4-9.6,7.3-4.7c3.5,3,2.7-5.5,4.5-6.7c2,2.6,7,1.8,9.2,0.4c2.2-1.4,5.6-9.3,9.7-6.5
	c0.4-1.3,1.4-6,3.7-5.9c4.3,0.3-1.6,8.6,3,6.9c3.2-2.3,3.3,3.7,3.1,5.3c-0.2,1.8,5.5,3.1,3.6,7c-1.6,3.3-4.1,7.8-7.9,8.6
	c-2.3,0.4-1.2,2.5-0.3,3.6c2.3,3.1-0.5,2-2.1,3.3c-0.3,0.2-3.4,11.5-4.9,4.6c-5.2-2.1-2.7,5.2-4.3,7.3c-1.8,2.3-6.5,4.6-9.3,5.8
	c-3.7,1.6-5.3,3.3-2.8,6.5c1.7,2.1-0.4,4.7-1.8,6.2c-3.9,4.2-2.3-7-6.1-4.1c-2.5,1.2-3.8,0.1-6.4,1.5c-0.5,0.3-6,4.8-2.6,4.6
	C357.7,415.3,355.2,416.9,352.6,416.6z"/>
<path id="North_Yorkshire" fill="#C2240C" stroke="#FFFFFF" d="M357,130.5
	c-0.3,2.5-1.1,8.1-4.8,6.8c-2-0.7-5.1,2.2-5.4,4.2c-0.1,0.9-4.9,7.8-6.1,5.5c-0.5,4.3-3.9-1.5-4-0.5c-0.1,0.9,1.7,3.8,0.5,4.9
	c0.3-0.3-2.4-2.7-2-3.5c-0.8,2.3-1-0.2-2,0.3c0,0.6-0.1,1.1-0.4,1.6c-1.3-0.2-4.3-3.4-3.2-4.8c-3.2,1.6-4.9-3.3-8.9-2.4
	c-0.8,0.2-3.5,0.5-3.6,1.6c-0.3,3.3-1.4,4.6-3.9,1.5c-2.4,1.2-2.1,4.6-5.2,5.6c-2.7,0.9-5.2-1.6-7.7-2.2c-0.2-0.3-14,3.2-14.6,3.6
	c-3,2.2-0.7,3.5-1.2,6.1c-0.3,1.7-3.1,2-4.1,3.3c0.2,1.6,2.9,2,3,3.9c0.1,1.7-0.3,4.9-0.7,6.7c-0.4,2-1.7,2.2-3.2,0.8
	c-2.3,3.4-4.8,1.4-6.8,4.6c-3.1,5.1-8.1,8.2-1,12.3c2.5,1.5,0.8,5.3,3.3,5.4c2.5,0,5.4-1.5,5.7,2.3c2,0.4-1.2,2.4,1,3
	c2.8-0.5,3.6,3.2,6.7,1c0.7,0.8,0.5,3.1,2.2,1.2c0.6,1.3,0.7,3.6,2.3,4.3c1.9-0.1,2.8,1.5,3.5,3c0.7,1.4,1.3,3.9,2.8,4.8
	c1.6,1,2.4-1.3,4.1-1.4c1.9-0.1,2.7-4.9,1.4-6.2c0.9-0.4,3.3-5.6,6-3.2c-0.1-0.1,1.9,4.6,2.4,2c1.8-0.4,3.1,0.9,4.6,1.7
	c2.9,1.6,7.4,1.7,10.8,2.2c2.9-1.9,8,0.8,10.5-1.2c-0.2-4.1,8.3-3.4,8.3-1.3c0,1.9-0.9,6.4-2.5,7.4c0.7-0.5,1.6,8.4,2,9
	c0.4,0.6,0.5,8.7,5,6.7c1.1-0.2,2.7,2.7-0.5,2c-1,1.5-1.9,6,0.1,7.3c1.1,0,1.5-0.6,1.4-1.8c1.8,0.7,4.7,0.8,5.6-0.3
	c0.8-1,4.1,0,4.4-0.9c0.3-1.1-5.1-1.5-1.8-3.7c0.5-3,2.3-1,4.1-0.8c1.3,0.1,7.1-2.4,7.1-3.4c-0.7-0.2-4.3-1-3.7-2.3
	c0.9-0.5,1.6-1.2,2-2.1c0.2-1.3-0.8-3.8,0.5-4.8c-1.5-1.1-1.6-3.9-1.3-5.4c0.1-0.9,0.5-1.5,1.2-1.9c0.7-1.6-1.2-0.7-1.4-1.6
	c-0.2-0.7,1.4-3.8,1.4-4.9c0-1.9-0.9-4.3,0.7-5.7c3.4-3,5.8-1.6,9.5-3.3c2.3-1.8,2.7,3.7,5.1,1.4c-0.7-1.5,2.1-6.2,3.6-6.3
	c4-3.5,8.8-0.8,11.5-6.5c1.7-0.6,0-5.6,2.6-4.7c3.6,1.1,4.6,4,9.1,3.9c6.3-0.2-0.8-3.5-1.4-5.8c-0.3-1.2,1-2.6,0-3.2
	c-0.6-0.4-2.7-0.8-2.9-1.6c-1.9-1.2-3.9-6-5.1-6.3c-0.9-3.7-1.8-7.7-4.3-10.9c-0.9-1.2-3-1.6-3.2-3.3c-0.3-2.6-0.8-3.4-2.6-5.5
	c-1.2-1.4-3.1-1.4-4.7-1.9c-2.5-0.8-1.8-2.5-3.9-3.5c-2.8-1.4-1.6,0.8-3.5-2c-1-1.4-2.9-1.6-4.4-1.9
	C371.2,136.6,361.6,136.2,357,130.5z"/>
<path id="Nottinghamshire" fill="#005FAB" stroke="#FFFFFF" d="M370.4,253.3
	c-1.4,1.7-2.8,3.4-3.6,5.4c-1.7,4.2-2.9,0.9-5.7,3.2c-1.4,1.3-3.8,7.8-4.9,7.1c0.3,2,2.1,1,0.1,2.9c-3.1,1.7-1.2,2.5-0.9,5
	c0.3,2.6-1.8,1.6-2.2,4c-0.3,2,0.8,4.3,0.5,6.3c-0.5,4.1-7.4-0.3-7.6,6.4c0.6,1.2,2.3,4.5-0.4,4.7c-2.1,2.2-0.1,6.4,1,8.6
	c1.1,2.1,1.7,4.8,1.8,7.2c0.2,4.1,0.9,1.8,2.5,4.4c0.9,1.5-1.7,2.4-2,3.4c-0.8,2.5,0.6,6.2,3.2,7.4c1.4,0.7,4.8-0.8,6.1-1.7
	c2.6-1.7,2.5-0.3,5.2-0.5c5.7-0.3,4.9-5.5,8.3-7.2c4.1-2.1,4.7-7,7.7-10c1.7-1.6-2.1-3,0.4-5.1c1.5-1.4,3.6-2.8,5-4.4
	c-0.1,0.2-1.2-12-1.4-12.1c-5.1-2.9,3.5-2.8,3.7-6.7c-1.1-3.1-3.5-1.8-5.4-0.4c-2.4,0.2-0.9-2.1-1-3.4c-0.2-1.6,2.6-7.4-0.4-9.1
	c-0.2-0.1-2.5-8.6-2.3-8.9c2-3.8-6.1-0.9-6.8-2.4C373.4,256.3,371.6,254.2,370.4,253.3z"/>
<path id="Oxfordshire" fill="#FFDD00" stroke="#FFFFFF" d="M352.6,416.6c4,1.5,6.9-7.3,10.3-2
	c-1.1,1.1-3.7,7.2,0.1,5.7c-1.5,1.7-1.9,3.1-2.3,5.3c-0.1,1.2,2.2,1,0.8,2.4c2.1,2.3,1.9,5.6-1.6,4c-4.5-2.1,1.4,11.7,4.5,9.9
	c1.1-0.7,1.3-0.5,3.2-1.1c2.2-0.8,3.5,1,4.7,2.5c1.9,2.2,0.1,6.1,1.9,7c-1.6-0.8-3.7,0.6-4.4,1.7c-0.3,0.6,0.2,4.2,0.5,4.8
	c1.4,2.4-0.4,2.9,2.1,5.8c1.4,1.6,2.4,4.9,1.1,6c-0.9,0.8-2.5,4.9-4.1,3.4c1.5-2-1-3.6-2.4-2c-0.8,2.3-2.8,2-3.1-0.4
	c-5-1.3-4.6-1.4-6.3-5.5c0.5,1.3-7.3,0-7.8,0c-3.3-2.7-3.7-1-6.3-1.1c-1.5,0-4.2,1-5.8,1.5c-3.1,1-4.8-3.9-7.7,0.2
	c-1.2,1.8-10.3-6.6-5.8-9.1c0-2.2-1.4-2.8-1.7-4.7c-0.6-4.3,1.3-0.9,2.4-2.1c-0.1,0.1-3.2-10.1-3.6-10.5c0.7-1.5,2-2.3,2.2-4.1
	c0.2-1.6-1.3-5.2,0.5-6.5c0.4-2.2,1.3-1,2.1-2.3c1.1-1.7-1.3-0.9-0.1-2.8c2.6-3.9-3.1-2.6-1.6-6.5c0.5,0.3,3.1,3.7,3.8,2.8
	c0.2-0.3,3.5-3.1,3-3.4c3.4,1.3,3.3-8.9,4.3-10.5c1-1.7,1.8-0.4,2.6-2.5c0.9-2.1,3.2,1.9,4.4,1.7c2.7-0.3-1-2.6-0.9-2.9
	c0,0.1,4.1-4.4,3.9-4.3c1,2.9,3.7,4.7,4.8,7.5c-0.6-0.4-4.4,0-4.2,1.1c0.5,3.2,2.5,6.8,2.1,10.9C346.4,415.7,354.9,417,352.6,416.6z
	"/>
<path id="Somerset" fill="#C2240C" stroke="#FFFFFF" d="M257.5,468c-2.7,2.2-5.3,2.3-7.9,5.1
	c-1.2,1.3-2,2.9-3.1,4.3c-1.6,1.9-3.9,1.4-5,3.3c-1.9,3.4-2.8,7.1-4.5,10.5c0.3-0.6-1.5,3-1.3,2.7c-1.3,1.2,2.5,0.6,2.1,1.2
	c-0.8,1.1-3.3,2-4.6,1.9c4.6-0.9,0,1.5-1.5,1.8c-3.5,0.7-6.7,2.9-10.4,3.1c-3.4,0.1-7.3,0.2-9.4-3c-2.8-0.1-5.1-2.9-8.1-2
	c-3,0.9-3.2,1.2-6.4,0.3c-4.5-1.3-2.5,2.5-3.4,5c-1.1,3.1-11.3-2.4-5.7,5.8c1.9,2.8,10.4,8.4,13.7,7.7c0.9,1.6-1.1,3.7,0,5.3
	c1.1,1.5,4.4,0.1,5.2-1c1-1.4,1.9-2.5,3.6-1c4.5-2.6,4.2,2.7,5.3,4.3c0.8,1.3,3.4,1.1,4.7,2.5c2.2,2.5,6,1.9,8.9,1.7
	c-1.3,2.7-1.5,3.7,0.7,5.7c1.9,0.3,3.4-2.2,5.4-1.6c0.8,0.2,2,4.7,2.3,5.8c2.1-0.4,4.1-0.3,4.1,2.5c0.2,0.4,20-6,22.2-5.9
	c-1.1-2.8,2.3-7.8,0.6-10c0.9-0.9,5.9-3.1,6.7-0.6c0.2,0.6,1.6,4,3,3.1c0.2-1.7,1.1-2.1,2.6-1.2c1.5-0.3,2.8-0.9,4-1.9
	c-2.1-0.7-3-2.3-1.1-4.1c3-2.5-0.2-3.6,1.5-5.7c1.2-1.5-1.6-1.5-1.6-3.4c-0.1-2.3,2.8-5.3,3.8-7.2c1-1.9,6.7-12.8,1.4-13.6
	c0.2-1.3-2.8-6.8-3.8-5.2c0.9-1.4,2.6-0.6,3-2.7c0.2-1,1.2-5.1-0.1-5.7c-1.1,1.3-2.9-2.4-4.7-0.8c-1.8,0.3-6.1,3.3-7.6,1.2
	c-2.1-2.1-7.2,6-8.8,1.6c-1.1-3,0.3-4.9-1.6-7.9C260.6,470.8,258.3,468.9,257.5,468z"/>
<path id="Staffordshire" fill="#005FAB" stroke="#FFFFFF" d="M305.7,283
	c-2.8,2.4-7.3,8.5-11.4,4.9c0.2,5.6-7.7,8.8-11.2,11c-1.8,1.2-4.2,3.2-4,5c0.4,3.1,0.6,5.7-0.7,8.5c-1.2-2.2-4.6,3.4-4.6,6
	c0,3.9,2.9,0.6,4.7,0.6c2.1,0-0.7,6.3-1.4,7.1c1,0.1,3.9,3.2,1.9,3.9c1.5,1.7,3.5,3.2,4.2,5.4c0.6,1.9-1.8,4.7,0.9,5.7
	c1,0.4,3.5-0.1,3.7,1.4c0.3,1.5,0.5,3.5-0.2,5c-1.4,3-2.3,1.3-4.4,1.5c-1.7,0.2,5.7,4.8,2.2,6.4c3.1,0.1-1.9,6.4-1.4,8
	c1.6,5.4,4.2,2.3,7.2,5.6c2.7,1.5,0.3-6.6,0.2-7.3c0,0.1,4.9-6.8,2.8-7c-8.3-0.6,0-10.3,2.8-7.7c0.7,3.7,5.6-0.5,7.2-1.1
	c2.4-0.8,0.7-2.8,3.5-2c1.6,0.5,1.2,2.8,2.1,4c1.7,2.5,0.1,4.4,3.5,1.7c1.5-1.1,6.7,2,9.6,1.5c3.8-0.7,3-3.6,3.1-6.5
	c0.2-3.3,6.2-4.1,0.3-5.1c-1.4-0.2-2-2.2-3.4-3c-1.5-0.8-0.1-3.2,0.3-4.1c1.7-3.5,6.6-0.6,4.9-5.3c-0.3-0.8,1.4-1.5,0.7-2.3
	c-1.6-1.6-3.9-2.7-6.1-2.9c-2.5-0.3-8.4-1.4-9-3.9c-0.7-2.5-0.9-5.5,0.8-8c1.1-1.5,2.9-1.7,3.7-3.4c1.2-2.8-1.8-3.9-1.1-6
	c-1-1.7,0.1-3.3-0.4-5c-0.7-2-1.5-2.9-1.8-5.2C314.2,286.2,305.7,286.4,305.7,283C303.7,284.7,305.7,283.2,305.7,283z"/>
<path id="Suffolk" fill="#005FAB" stroke="#FFFFFF" d="M521.9,410.5c-0.6,0.8-9.2,10.6-9.1,10.8
	c-1.5-4-7.1-1.1-10.1-1.1c-4.4,0-7.8-0.9-12-1.9c-0.5-2.6-9.6,0.9-11,0.4c-1.9-0.6-3.7-5.8-3.5-7.5c-2.3,1.6-0.8-6.5-6.6-5.5
	c-2.1,0.4-6.9,4.2-8.6,2.7c-2.3-2-1.9-1.1-4.6-0.9c-5.8,0.4,0.6-14.2,3.1-10.5c1.7,0.1,3.2-6.8,1.3-7.6c-4.1-1.6-3.1-0.8-6.2,0.3
	c-4.3,1.5-4.4-11.1,0.8-3.9c1.8,2.5,7.2,0,4.9-3c-2-2.5-4-1.5-3.1-4.9c0.1-0.3-2.6-3.4-3-4.4c-1.3-2.9,0.3-4.2,2.5-5.8
	c3.2-2.3,15.2-3.1,18-0.7c-5.3,3.8,0.4,7.2,4.5,6.2c3.5-0.9,3.9-0.5,7.5-0.1c3.4,0.4,4.5,1.5,8.3,1.2c6.2-0.4,9.6,3.9,15.1-0.7
	c2.1-1.8,3.4-0.7,5.1-3.6c1.1-1.8,4-2.1,4.8-3.9c-0.9-0.2-1.3-0.6-1-1.4c-0.3,0.5,5.4-0.3,5.7,0.4c1.1-1.3,2.1,0.8,3.2,0.2
	c0.1-1.5,0.8-2,2.1-1.4c0.8,0.5,1.7,0.9,2.6,1.2c5.9,0.1,0.4-5.3,0.1-6.2c-1.2-4.2,9.7-2,8.2,4.8c-2,9.3-7.9,17.7-8.7,27
	c-0.4,4.3-0.7,11.4-3.3,14.9C526.9,408,523.1,407.3,521.9,410.5z"/>
<path id="Surrey" fill="#009542" stroke="#FFFFFF" d="M418.4,504c-6.7,5.1-15,5.6-22.5,8.1
	c-2.3,0.8-7.4,1.6-10.3,1.6c-4.9,0-2.8-3.2-4.5-4.7c-2.3-2-1-2.7-3.8-3.1c-0.6-0.1-1.9-9.4,1-10.1c1.4-0.3,2.5,0.9,3.8,1
	c2.9,0.1,0.7-7.2,0.1-8.3c-1.6-3-1.6-3.3,1.3-5.6c1.8-1.4,4.7-3,7.1-2.5c-0.4-1.2,0.6-3.6,1.1-4.6c1.6-3.6,1.9-0.7,4.3-0.9
	c0.7-0.1-1-5.5,3.5-2.4c0.8,0.6,5.3,3.9,5.6,4.9c1.1,0.7,5.1,1.6,5,3.2c-0.1,1.4-2.6,5.2-0.5,6.2c0.9-1.3,1.9-5.1,3.7-5.4
	c1.7-0.3,3.1,3.7,2.2,4.8c2.3-0.6,3.2-1.1,4.2,1.7c1.1,3.3,3.2,3.2,4.7,0.5c0.6-1.1,3.6-3.5,4.9-2.3c1,0.9,1.1,5.8,2.6,2.8
	c1,2.4,2.3,17.6-0.6,18c-2.6,0.4-5.2-0.5-7.8-0.2C420.2,507.1,421.6,504.2,418.4,504z"/>
<path id="Warwickshire" fill="#009542" stroke="#FFFFFF" d="M324.1,415.4c0.8-1.2,3.2-3.1,3.1-4.7
	c-2.6-0.9-5.6,0.6-5.6-3.9c-1,2.2-1.3-1.6-1.3-2.1c0-0.4-1.6-0.7-2.1-2.2c0.1,0.3-2-2.5-2.1-2.6c0.2-0.1-4.5-0.7-3.5-0.5
	c-2.9-0.6-0.9-2.5-2.7,0.4c-0.1,0.2-4-3.6-3.9-3.5c0.8,0.3,2.1-4.9,2.2-5.5c0.5-4.1-2.1-3.7,1.4-6.8c3.1-1.2,1.3-5.5,1-7.6
	c-0.6-3.6,6,0.3,7,0.4c-0.7-1.4,1.5-1.1,2.5-2.1c-1.4,1.2,5.9,1,5.6,0.9c1.4-0.2,1.6-1.4,2.4-2.2c1.9-2,2.6,1.8,3.6,1.7
	c1.1-0.1,5.7-0.8,6.7-2.3c2.3-3.3,0-9.4-4.5-6.8c-2.4-4-8.1,2-9.8,1.5c-1.8-0.5-6.7-9.2-3.9-9.4c-0.6-0.2-3.9-6.4-3.5-6.8
	c1.3-1.2,5.7,0.3,7.6-0.7c2.8-1.1,0.7-3.7,1.6-5.5c-1.4-4.3,8.6-5,5.5,0.8c-1.9,3.6,1.5,7.3,5.2,9.2c6.8,3.5,12,7.4,15.7,14.4
	c0.6,1.2,4.3,5.9,1.9,7.2c-1.4,0.7-2.3,0.1-3.6,1.2c-2.5,2,1.1,1.7,1.8,2.4c0,0,0.1,5.1,0,5.6c-0.5,2.1-3.4,1.9-3.9,3.3
	c-0.4,1.1,2.1,2.6,1.5,4.1c-0.4,1-4.1,1.1-5,3.5c0-0.1-3.1,5.4-3.3,4.4c0.1,0.3,2.9,5.3-0.5,1.8c-1.8-1.9-4.6-0.3-5.8,1.7
	c-1.5,2.4-0.8,6.5-1.9,9.2c-0.9,2.3-4.3,2.2-5.4,5C327.3,419.5,324.7,416,324.1,415.4z"/>
<path id="West_Sussex" fill="#FFDD00" stroke="#FFFFFF" d="M370.7,545.7c-1.7-3.5,0.4-6.3,0.1-9.8
	c-2.1-1.1-1.3-3.8-0.5-5.4c1.5-3.2,0.7-10.8,4.7-13.1c5.2-6.4,15.1-3.7,23.5-5.7c3.8-0.9,10.6-2.1,13.9-4.2c1.5-1,3.1-2,4.8-2.9
	c3.1-1.6,2.7,1.1,4.4,2.2c0.9,0.6,12.9-1.1,10.2,3.3c0,0.1-3.7,1.4-3.8,1.4c-2.2,1.3,2,4.1,2,4.3c0.2,1.2-1.7,4.6-1.8,6.3
	c-0.1,4.5-3.9-0.9-5,2.1c-2.3-0.5,0.6,4.4-1.3,4.1c-0.2,1.6-0.5,3.3-1.1,4.8c-1.2,3.2-1.4-0.1-2.4,0.5c-0.4,0.5-0.7,1.1-0.9,1.7
	c-0.8,1.5-1-0.4-2.3-0.1c-3,0.7,1.8,5.3-0.5,5.3c-5.9,0-12,2.3-18,2.7c-2.7,0.2-13.5,1.4-14.2,4.6c-1.7,0.6-1.3,4.6-3.8,3.3
	C377,548.3,373.9,546.4,370.7,545.7z"/>
<path id="Worcestershire" fill="#C2240C" stroke="#FFFFFF" d="M279.8,398.3
	c-7.7,3.2-0.1-7.6-1-8.3c-1.4-1-9-1.9-2.4-4.5c-0.8-1.4-4-2.3-4.6-0.1c0.8,1.8,0.2,2.5-2,2.1c-1.5,0.1-4.7,1.6-6,0.8
	c-1.1-0.7,1.7-3.2,1.8-4c0,0.1-5-1.4-3.4-2.7c0.3-0.2,5.3-1.1,5.6-1.1c-0.2-3,4-3.4,3.6-1.2c3,0.4,0.5-3,2-4.1
	c1.7-0.5,4.8,0.9,4.2-2.2c1.4,1.1,3.2-0.3,4.7-0.2c-2.7-0.9-2.2-3.3-1.4-5.5c1.1,1.6,3.6-1.2,5-0.3c2,1.3,7,2.5,9.1,1.4
	c1.6-0.8,5-0.2,5.1-1.1c0.4-0.2,4.3,1.8,3.8,2.9c-0.4,0.9-2.6,0-2.1,1.4c0.3,0.7,2.2,2.9,3,1.4c1.3-0.5,10.5-3.7,7.4,0.6
	c-1.6,3.4,0.1,4.1-0.8,7.6c-0.7,2.7-3.4,2.6-4,4.6c0,0,1.7,11.5-1.2,10.4c0.3,0.1,3.4,2.7,3.5,3.6c3.1-1.3-1-1.9,2.7-0.4
	c0.6-0.2,0.9-0.6,0.9-1.2c0.2,0.3,5,4.2,5,4.2c-1.3,1-2.1,1.6-3.1,3c-1.1,1.5-2.6,0.2-3.5,1.4c-0.4,0.5,3,4.8,2,7
	c-3.1-1.7-5.3-5.2-9.1-3c-1,0.6-3,3.3-4.3,2.8c-1.5-0.9-4.8-1.2-5.6,0.8c-1.9-2,3.2-4.3,0.2-4.9c-4.7-3.1-1.7,4.9-1.9,5.2
	c-0.6,1.1-4.4,0.3-5.6,3.3c-1-0.3-3.7,0-4.3-1.2c-0.7-1.4,0.3-2.2-1-3.4C278.9,410.9,284.5,399.8,279.8,398.3z"/>
<path id="Greater_London" fill="#FFDD00" stroke="#FFFFFF" d="M400.6,472.9
	c-4.8-1.1-1.5-3.9-2-7.2c-0.4-1.4-0.2-2.8,0.7-4c-0.9-2.1-1.8-5.2-1-7.5c4.3,5.4,14.1-2.2,18.3-3.9c3.8-1.5,5.3-3.2,10.1-1.8
	c4.1,1.2,0.4,1.7,2.3,3.9c0.7,0.8,1.6,0.5,2.1,1.6c0,6.5,12.8-3.4,15,2.6c-1.4,0.2,4.2,6.3,4.2,6.4c0.1,0.7-4.8,3.1-5.1,2.4
	c-1.3,6-5.9,9.6-6.2,15.8c-0.1,2.8-1.2,4.1-3.1,5.9c0.1-0.1-3.9,7.3-4,1.8c-1.4,1.8-3.6-6.4-7.5-0.8c-4,5.7-4-3.3-9-2
	c1.1-1.3-1.1-5.5-2.5-4.8c-2,1-1.7,4.8-4.1,5.4c-0.3-3.1,3.1-8.6-2.5-8.9C404.8,477.8,400.6,474.8,400.6,472.9z"/>
<path id="South_Yorkshire" fill="#FFDD00" stroke="#FFFFFF" d="M367,236.5
	c-4.1,1.5-9.3,0.9-13,2.5c-1.1-0.8-4.2,5.4-5.6,5.9c-4.4,1.8-6.4-4.5-11.3-2.2c-1.6,0.8-5,1.3-6.1-0.5c-2.1-0.5-2.1,3.3-3.3,4.4
	c-2.6,2.2-5.9,1.1-8.7,3.2c-1.4,1.1-3.3-0.9-4,1.4c-0.6,1.8,1.9,2.1,1,4.7c2.9,2.7,3.2,5,5.9,7.1c1.7,1.3,3.9,2.6,2.8,5.3
	c0.4,0.3,4.2,1.8,4,2.2c-0.1,0.2-3.2,1.7-1.3,2.7c1.4,0.7,4.3,1.5,5.9,1.1c0.7-0.2,8.5-4.6,8.6-2.3c0.8,4.5,5.5-1.6,6.2,0.7
	c1.5,4.9,10.8,0.5,8.3-3.1c2.9,0.3,1.8-10.5,8.5-7.7c0.9,0,5.8-8,5.7-8.7c-0.5-3.5,0-1.1,2.2-2.7c1.1-0.8,0.1-4.1,0.3-5.2
	C373.8,239,375.7,236.8,367,236.5z"/>
<path id="West_Midlands" fill="#FFDD00" stroke="#FFFFFF" d="M305.8,343.6c0.4,3-2.8,2.3-4.3,3.7
	c-3.2,3-4-1.8-6.8-0.6c-3.8,1.6-5.6,9.9-0.1,8.3c0.1,4.1-3.6,3.8-2.9,6.7c0.4,2-0.2,7.5,3,6.7c0.7-0.2,1.4-0.5,2-0.9
	c1.5-1.1,1,1.5,2.6,0.9c0.1-0.1,5.6-0.7,4.4,1.9c-0.5,1.1-4.1,0.7-0.8,2.9c1.2,0.8,5.4-0.8,6.1-2c2.1,0.2,4.9-0.2,2.9,2.9
	c-0.2,0.6,4.5,2.8,5.3,3c0.3,0.1,0.1-1.6,0.5-1.7c1.3-0.4,1.1,0.5,3-0.6c-2.3,1.3,5.1,1.3,4.9,1.1c1.9-0.2,1.6-2.2,3-2.7
	c1.8-0.7,2.4,2.3,3.4,2.1c2.2-0.5,6-0.5,7.1-3.4c2.7-7-4.2-4.5-7-6.9c-1.4,1.4-2.7,0-4.2,0.4c-1-1.1-2.2,2.7-3.5,2.2
	c-1.5-0.4-2.4-2.3-3-3.5c-0.5-1.2-1.1-2.3-1.7-3.5c-1.4-1.1-1.3-1.8,0.3-2.3c0.5-2.7-6.5-13.3-8.6-6.3
	C308.3,349.4,310.7,343.6,305.8,343.6z"/>
<path id="Greater_Manchester" fill="#FFDD00" stroke="#FFFFFF" d="M294.7,233.8
	c-1.7,0.3-1,4.3-2.4,5c-0.5,0.2-2.3-3.7-4.3-2.9c-1.1,0.5-2,5.2-1.7,5.3c-1.3-0.6-1.4-2.6-1.6-3.8c-0.4-2.5-1.5-0.1-3.4-0.9
	c-0.3-0.1-4.6,6.9-5.3,2.1c1,0.4-6.5,2.7-5.8,2.3c-1.4,1-3.2,3.6-4.6,1c-2.3,2.2-2.2-0.6-4.8,0.5c-2.2,1-4.3,7.6-3.2,9.7
	c1,1.8,5.7,2.4,6.8,3.7c0.8,1,0,2.5,1.9,2.9c2.7,0.6,4.5-6.1,5.9-1.2c0.5,1.7,3,3.5,2.4,5.5c-0.8,2.5-1.5,1.6,1.5,2.6
	c2.8,0.9,5.8,3.9,8.4,4.7c4.1,1.2,3.8-4.1,7,1.2c1.3,2.3,2.2-0.6,2.4-1.4c0.6-2.5,1.5-2.1,3.8-1.6c3.9,0.8,7-6.6,4.1-6.5
	c-0.2-0.5,2.6-7.4,3.1-7.9c-0.1-1.8,6.7-2.3,2.8-6.6c-1.8-2-3.6-3.8-5.2-5.9c-1.7-2.2-1.1-4.9-2.8-7
	C299.9,234.8,295.8,235.8,294.7,233.8z"/>
<path id="West_Yorkshire" fill="#009542" stroke="#FFFFFF" d="M310.6,203.9
	c-1,1.8-4.4,0.1-5.1,1.8c-0.5,1.3,0.9,4.6-0.3,4.7c-1.3,0.6,0.1,5.3-2.5,3.4c-2.7,0-1.8,6.2-5,5.9c-2.8,1.4-2.9,4.1-2.8,6.9
	c-1.4,2.3-4,6.3,0.2,7.7c0.7,0.2,4.9,0,4.8,0c0.9,1.1,0.7,7.5,2.9,6.9c1.7,3.2,4.4,5.5,6.7,8.1c1.7-0.6,2.9,1.5,4.4,1.8
	c0.9-1.2,2.5-1.3,3.8-1.5c1-0.1,1.8-0.5,2.6-1.1c2-2.1,2.7-0.2,5.6-1.5c3.5-1.5,2.3-6.3,6.6-4.1c1.5,0.8,4-0.2,5.5-0.9
	c3.3-1.6,5.9,3.3,8.6,3.2c1.6-0.1,5.6-3,5.2-4.9c-0.4-2.2-1.5-2.6-0.9-5.3c0.4-1.6,2.8-2.6,2.8-3c-0.2-1.8-8.8-2.8-6.1-5.9
	c1.9-2.2-2.4-8.7-3.1-10.9c2.3,0,3.2-6.7,2.8-6.9c-1.3-6.5-8.3,1.6-10,1.5c-3.7-0.2-7.2,0.8-10.8,0.2c-2-0.3-6.8-0.4-8.2-1.9
	c-1.9-0.4-4.3-0.8-5.1-0.8C311.6,207.3,310.7,204.7,310.6,203.9z"/>
<path id="Tyne_and_Wear" fill="#005FAB" stroke="#FFFFFF" d="M324.5,84.4
	c-1.8,0.7-4.1,1.5-1.9,3.7c-3.3,1.5-3.4,4.2-5.4,6.6c-0.8,1-5.6,5.4-4,7.4c2.4,3.1,12.2-2.9,12.6,3.7c3.9-3.4,2.3,0.3,5.7,0.3
	c3.2,0,4.5,5.3,4.2,8.3c5.1,1.5,2.9-4.1,5.2-4.9c4.2-1.4,3.2-3.5,2.8-7.5c-0.3-2.9,1-5.4-1.8-7.8c-2.6-2.3-1.9-3-3.4-6.3
	c-2.3-4.8-1.6-0.7-5.5-1C330.1,86.6,327.1,86,324.5,84.4z"/>
<path id="Merseyside" fill="#C2240C" stroke="#FFFFFF" d="M241.9,231.8c-5.2,0.5-4.5,1.8-6,5.7
	c0.2,2-3.5,13.6-4.9,12.4c2.6,2.2,4,3.2,5.8,6.4c2,3.7,1.8,2.7-1.4,2.2c-0.5,0.3-0.5,0.8-0.2,1.4c-0.6,0.5-1.2,0.4-1.7-0.4
	c-0.9,4.1-7.5,0.7-9.8,0.2c0,4.8,3.4,13.3,7.6,15.9c2.2,1.4,3.2-2.2,6.4-0.8c1.1,0.5,3.6,0.2,4.7,0.1c1.5-0.2,2.9-0.9,4.1-1.9
	c0.8,0.8,1.7,1.1,2.8,1c1.4-0.1,3.8-4.1,4.8-5.6c2.1-3.4,1.8-3.6,5.2-2.3c1.8,0.7,2.5-4.5,1.7-5.6c-1.3-1.7,4.8-0.1,5.6-0.7
	c1.3-0.9-5-5.4-5.1-5.5c-2.1-1.4-3.9-2-6.3-2.4c-1-1.6-1.8-1.6-2.6,0c-0.6,1.2-1.1,2.4-1.5,3.7c-0.6-1-7.6-7.5-8.7-7
	c-0.7,0.3,0.2,2.5,0,3.1c-1.8-0.1-3.4-1.8-4.8-2.8c0-1.7,0.8-6.5,2.1-7.6C242.4,239,246.3,235.1,241.9,231.8z"/>
<path id="Bedfordshire" fill="#C2240C" stroke="#FFFFFF" d="M400,380c-6.7-1.3-1.9,10.7-7.8,5.3
	c-4.3-3.9-2.9,6.4-4.3,6.8c-1.6,2.3,1.9,1.8,2.1,3.5c-0.4,0.9-0.6,1.8-0.6,2.8c0.2,2.6,2.2,0.8,2.5,3.5c0.4,2.7-2.8,4.2-3.9,6.3
	c-0.6,1.1,0.6,4.3,0,6.3c-0.3,1.1-0.1,2.1,0.6,3.1c-0.7,1-1.3,1.9-1.9,3c-2.1,3.9-0.4,6.1,4,7c2.5,0.9,4.1,4.1,4.1,6
	c0,1.4,3.3,2.7,2.7-0.1c-1.2-7.5,14.2,4.6,9.3-6.7c-0.8-1.8-2.9-3.9-3-5.9c0-0.3,0.9-4.5,1.5-3.7c0.5,0.6-0.6,2.9,0.6,2.9
	c1.3-0.1,2.1-3.1,0.3-3.3c1.4-1.2,4.7,0.6,4.5-2.4c1.7,0.9,2.1,3.9,3.6,0.4c3.1-1.2,1-4.6,3.6-7.1c1.9-1.8,2.7-4.4,2.3-7.1
	c-0.4-2.7-5.1-0.2-5.3-1.8c1.2-1.1,0.9-1.9-0.7-2.4c-1.2-0.6-1.2-1.3-0.1-2.2c-1.3-3.2-3.1-0.9-3-4.4c0-1.8-2.6-1.2-3.4-0.6
	c-3.2,2.3-1.4-4.4-2.4-4.8c-1.2-0.6-2.1,0.3-3.2-1.5C401.8,382,401.8,379.8,400,380C397.2,379.5,400.7,379.9,400,380z"/>
<path id="Berkshire" fill="#C2240C" stroke="#FFFFFF" d="M383.5,459.9c-2.5,2-7.1,5.1-9.7,1.6
	c-2.5,2.6,1.7,4.5,0,6.5c-0.8,1-2.7,5.3-4.5,3.8c1.3-1,0.5-2.7-1-2.7c-1.2,0-1.9,1.7-2.6,2.3c-0.1,0.1-6.4-2.9-6.4-4.4
	c-2.9,1.2-0.4-5.4-3.1-2.4c-3.1,0.7-10.7-4.5-11.6-1c-1.4-1.9-2.6,1.1-4.2,0c-3,2.3-3.9,0.3-6.5-0.7c-8.5-3.2-1.4,9.6-0.4,11.4
	c0.4,3.1-2.3,1-2.9,3.1c2.1,2.3,4,4.9,5,7.7c-1.5,1.7,2,1.3,2.7,1c1.8-0.8-0.6-4,3.5-4.1c3.5-0.1,14.7,2.8,17.4,0.9
	c0.5-2.5,1.9-2.2,3.3-0.7c2.3,2.3,5.7,0.4,8.5,0.8c2.5,0.3,5.7,1,7.6,2.3c3.1,2.1,4.3-2.5,6.6-3.5c4.2-1.8,4.4-0.5,6-4.7
	c1.9-5.1,2.7-0.7,4.8-1.9c-0.8,0.5,2.4-5.8,2.4-5.9c-0.5-1.2-2.9,0.8-2.5-1.8c-2.8,1.5-1.3-2-2.6-2.4c-4.1-1.5-5.6,0-4,4.2
	C385.4,473.1,386.2,459.1,383.5,459.9C381.7,461.3,384.2,459.7,383.5,459.9z"/>
<path id="Cheshire" fill="#009542" stroke="#FFFFFF" d="M271.6,255.8c-2.5,0.4-3.4,2.9-5.5,3.9
	c-0.6-0.1-5.1-0.6-5.2-0.6c-0.6,0.3,0.2,3.5,0,4.3c-1,6.5-2.6-0.9-4.6,1c-1.1,1.1-1.9,3.5-3.3,4.8c-3.4,0.7-0.2,4.2-3.2,4.6
	c-4.5,0.6-9,1.1-13.3,0.1c-2.7-0.7-4.9,2.7-3,4.7c1.6,1.7,4,1.9,6,2.9c1.7,0.8,3.9,3,4.8,4.7c2.4,4.4-3.6,2.3-3.6,4.8
	c0,2.2,4.8,4.7,6.9,3.7c-0.9,3.7,1.2,12.9,5.8,13.4c2.9,0.3,6.8,1.7,9.5-0.2c1.5,0.8,3.1,1.6,2.9,3.7c1.9,1,2.2-0.9,4,1.4
	c1.1-5.1,3.6,0.8,5.9-2.8c1-1.6,2.1-1.3,3.3-2.9c1.4-1.8-0.8-3.2,0.3-5.1c1.5-2.7,5.3-2.9,7.5-4.3c3.4-2,6.6-6.6,7.9-10.2
	c1.1,1.8,3.1,1.9,4.6,0.6c1.7-1.4,2.4-0.7,3.8-2c3.6-3.3-1.5-5.7-0.4-8.9c0.3-1.9,0.9-8.6-1.2-9.4c-2-0.8-1.7,1.4-3.8,0.7
	c-3-1-2.7-0.2-3.9,2.3c-1.4,3.1-2.7-1.9-4.7-2.1c-1.2-0.2-3.1,0-3.7,1.4c-1.2,1.3-2.1-1.9-3.3-2c-2.8,0.6-9.6-2.4-7.4-5.3
	C274.9,260.9,272.1,256.9,271.6,255.8z"/>
<path id="East_Riding_of_Yorkshire" fill="#005FAB" stroke="#FFFFFF" d="M403.7,181.2
	c-1.7,0.6-2.8,6.5-4.8,8.1c-1.1,0.9-3,2-4.3,0.8c-2.6,0.4-4.1,2.8-6.6,3.4c0.8,0.9-1.8,8.7-5.3,3.5c-3,1.7-7.1-0.6-9.5,2.6
	c-4.2,2.2-1.2,8.1-3.6,12c3.3,0-0.1,2.2,0.2,3.9c-0.7,2.1,2.2,4.3,0.7,6.1c-0.1,1.4-2.1,6.1-2.1,6c0.4,1.3,3.7,0.9,3.7,1.9
	c0,3-10.5,2.6-10.7,2.9c-4.8,6.5,6.9,3.6,10.3,4.9c4.9,2,5.4,0.8,9.8-1.4c2.9-1.5,8.6-10.1,11.6-4c2.4,2.4,9.3-0.8,12.3-1.5
	c6.3-1.4,6.6-3.2,10.6,2.7c2.2,3.3,4.9,6.1,8.8,6.6c2.5,0.4,14,1.5,11.1,6.1c7.7-6.9-8.2-22.2-12.1-28c-3.7-5.6-7.1-12.6-8-19.3
	c-0.3-2.5-0.1-6.4,1.8-8.3c1.8-1.9,5.3-0.3,6.7-2.9c-2.7-1.8-5.4-3.8-8.7-4.1c-0.3,2.4-2,2.3-3.9,1.8
	C408.7,184.2,406.5,182.3,403.7,181.2z"/>
<path id="Cornwall" fill="#FFDD00" stroke="#FFFFFF" d="M146.6,529.3c-7.1,0.7-5,4.3-4.7,10.1
	c0.3,7.1-3.7,6-6,11.3c-1.2,2.7-2.7,4.5-5.4,6c-2.4,0.1-1.7,4.6-2.3,6.2c-1.4,3.6-7,2.6-9.6,2.8c0.7-0.1-0.6,4.2-0.5,4.5
	c-1-1.5-1-2.3-2.5-0.4c-1.8,2.2-1.7,0-3.6,0.4c0.1,0-0.6,8.6-0.6,9.1c-0.1,4-3.1,4.9-5.8,6.1c-2.5,1.1-1.1,6.5-4,8.7
	c-1.5,1.1-4.1,6.3-5.6,6.1c-2.6,2.8-6,2.3-7.6,5.3c-2.9,5.3-3.6-1.2-7.1,0.2c-3.6,1.4-6.3,4.2-9.6,5.9c-4.4,2.2,0.6,7.9-2.5,9.7
	c-2.9,4.5,6.2,2.5,6.9,2.3c5.8-1.6,1.5-4.9,4.3-7.3c2.1-1.7,4.6-0.1,6.2,1.5c2.4,2.3,7.1,0.5,9.4,4.9c0.4,1.2,2.6,12.5,5.5,10.6
	c1.4-0.9,1-3.3,1.9-4.5c1.1-1.4,3,0.2,4.2-0.7c1.8-1.3,2.6-5,1.8-6.9c-1-2.5-5.5-1.9-5.7-2.3c0.5-1.2,3.6-0.9,4.5-1
	c0.1-1.3,0.4-2.6,1-3.9c0.6-0.4,1.3-0.8,1.9-1.1c-0.7-0.3-1.3-0.7-1.8-1.2c0.5,1.7,1.7-4.7,1.6-4.5c0.7-1.1,2.5-2.4,2.1-4.1
	c0,0.1-1.3,11.9,1.1,8.7c-0.7,0.4-1,1-0.7,1.8c0.6,0.9,3.5-6.4,4.2-6.4c2.7-0.2,0.9,1.5,3-1.2c1.5-2,4.4-3.1,5.9-0.3
	c1-3.2,3.5-18.6,7.7-10.6c0.4,0.7,2-1.1,2.1-1.2c1.6-1.4,0.6,0.1,0.9,0.3c2,1.2,7.9-0.8,9.8-1c1.3-0.1,2.1-2.1,3.1-2.8
	c1.7-1.1,6.6-0.1,8.4,0.4c3,0.8,3,3.4,4.6,4.5c2.3,1.5,1.4-2.3,2.1-2.8c1.5-1.1,1.6-1.2-0.4-2.4c0.3,0.2-1.2-4.6-2-3.3
	c1.1-1.8,1.8-2,1.6-4.5c-0.2-3.4-1.6-1.6-2.3-2.6c-1.4-1.8,3.1-3.9,3.3-4.4c0.4-0.8-4.9-6.1-5.4-4.2c0.3-1,0.4-3.8-0.6-4.8
	c-1.1,3.7-1.9-5.7-1.8-5.5c-0.6-1-2.7-6.7-3.8-7.3c0.2-1.1-1.1-9.5-2.7-7.4c-0.8,1.1-3.7-1-4.8-2c1.2,1.1,4-7.9,3.5-9.3
	C149.3,533.1,148.5,529.1,146.6,529.3z"/>
<path id="County_Durham" fill="#FFDD00" stroke="#FFFFFF" d="M319.8,101.5c-2.1,2.5-5.8,0.3-7.4,4
	c-0.3,0.6-2.7,6.6-4.1,4.6c-1.5-2.2-4.3-3.9-6.7-2c-1.9,1.5-2.7,2.1-5.3,2c-3-0.1-1.6,1.8-3.7,3.1c-3.3,2.1-2.3,3.2-6.4,1.8
	c-3.2-1-3.9,5.5-4,7.7c-3.9,4.9,5,5.5,1.7,8.8c-2.4,2.4,1.5,6.1,3.5,7.6c1.4,1.1,4.4,3.4,5,4.5c0.8,1.5-0.2,7.5,1.3,7.5
	c3,0,5.3-3.3,8.1-1.6c3.5,2.1,6,2.8,9.3-0.3c0.9-0.9,1.1-3.7,2.7-2.9c0.6,0.3,2.1,2.1,2.9,1.3c1.1-1.1-0.2-3.9,1.2-4.2
	c1.4-0.3,2-0.4,3.2-0.8c2.3-0.8,5.4,2,7,2.2c1.7,0.3,3.6,6.2,5.1,5.2c0.5-0.3-0.3-1.6,0.1-1.7c-0.3,0.1,2.5,0.8,2.1,0.1
	c-0.2-0.4,1.9,3.3,1.8,3.4c0.9-0.5,0.4-4.8-0.6-5.1c1.3-0.9,5,5.1,6.6-0.4c1.7-1.6,1.4,1.1,1.9-2.3c0-0.1,2.6-4.1,2.4-4
	c1-0.5,3.1-2.7,3.6-2.8c2.1-0.1,3.7,1.8,4.6-1.3c5.1-1.4-4.6-9.8-0.2-10.4c-4.9-2.9-7.9-6.5-8.8-12.2c-0.5-3.1-4.9-7.9-6.6-2.7
	c-0.5,1.4,0.8,3-1.2,3.8c-0.3,0.1-3.9,0.4-3.1-0.7c-1.3-1.9-1.4-5-1.8-7.1c-2.5-0.7-4.2,0.2-5-3c-2.6,1.4-2.5,3.2-4.8,0.4
	C323.2,102.6,321.1,102.3,319.8,101.5z"/>
<path id="Herefordshire" fill="#009542" stroke="#FFFFFF" d="M239.5,420.7c-1-1.6-2.4-2.9-3.5-4.5
	c-1.6-2.4-0.6-4.5-1.6-6.8c-0.5-1.3-1.8-2-2-3.4c-0.4-2.2,2.6-4.2-1.1-4.9c0-0.8,4.5-2.9,4.1-3.3c-0.6-0.5-3.5,0.7-2.4-1.6
	c0.9-1.9,1.9-3.9,2.5-6c1-3.3,6.6-2.4,7.5-4.5c-0.3,0.8-4.3-1.2-2.9-4.7c0.3-0.6,5.8-6.3,6-6.1c-1.1-0.3-1.3-0.8-0.5-1.6
	c0.6-0.2,1.2,1.3,1.7,1c0.8-0.5,3.7-3.8,5-0.7c2.7,2-0.4,1.9,3.1,2.3c2.1,0.3,1.6,2.7-0.4,2.8c1.5,0.9,4.8,4.6,5.1,1.5
	c0.5-4.1,3.6-0.3,4.1,1.6c-5.7-0.4,1.4,2.8,1.4,3c-0.1,0.8-3.9,3.6-1,4.1c1.1,0.2,5.2-0.9,6.4-1.3c-1,0.4,5-6.9,5.1-2.1
	c0,1.6-3.6,1.3-2.1,3.6c0.4,0.5,5.3,0.3,5,1.6c-0.1,0.3-5.2,9.9-0.3,8.4c3.4-1,4.4,6.9,2.7,10c0.6,2-3.7,7.7-5,6
	c-1.1-1.4-0.8-1.6-2.6-2.6c-1.9-1-0.6,3.1-0.6,3.1c-1.9,2.6,0.4,5.5,1.7,7.9c1.3,2.4-4.1,6.2-6.4,6.1c-1,0-3.9,1.3-4.8,2.3
	c-2.1,2.2-3.5-0.2-6.4,0c-1.3,0.1-5.9-10-8.1-7.7c2.8-3.3-6.8,0.6-7.2,0.4C242.2,423.2,240.3,421.5,239.5,420.7z"/>
<path id="Northumberland" fill="#C2240C" stroke="#FFFFFF" d="M313.9,18.5
	c1.4,0.3,1.5,0.6,0.4,0.8c6.2-1.3,0.9,3.3,0.2,1.6c-0.5,0.6,10.6,8.2,11.4,9.5c1.4,2.4,0.3,3.6,1.3,5.6c0.5,1.1,1.7,3.4,2,4.8
	c0.1,0.5,0.9,6.7,1,6.6c-0.6,1.6-2.1,4.3-1.5,6.4c0.6,1.8,2.7,3.9,3.2,5c0.9,1.8-2,5,0.2,8.1c0.9,1.2,1.3,4.1,2.8,4.7
	c0.9,2.4-2.4,3.4-0.1,6.8c1.3,1.9,2.7,6.1,0.7,7.4c-0.8,2.7-7.2,0-8.9-0.4c-5.8-1.6-2.7,1.3-5.9,3.6c-1.2,0.8-3.1,3-3.1,4.5
	c-0.1,1.9-1.7,0.7-2.9,2.7c-0.7,1.1-1.9,16.1-6.3,13.9c-3.4-1.7-3.3-4.5-7.8-1.4c-3.7,2.5-4.9,0.4-7.8,4.1
	c-4.5,5.9-12.4,0.8-15.6-4.6c-1.8,4-11,8.2-10.4,0.4c0.7-3.6-1.8-2.4,0.4-6.2c1.6-2.6,0.8-4.5-1.9-6.6c1.4-0.9,2.3-3.3,1.8-4.9
	c2.4-1.9,5.6-1.3,4.7-4.4c-0.2-0.6,0.6-2.6,0.3-3.2c-0.9-1.6-3.1,1.5-4.3,0.1c-2.7-3.2-7.4-6-7.6-10.2c-1.5-3.3,5.3-5.4,4-7.3
	c-1.7-2.6,6.2-9.9,9.4-11.3c3.6-1.5,5,2,8-1.5c2-2.3,0.3-3.6,3.3-5.8c2.3-1.7,5.1-0.1,6.4-3.4c1.4-2.2-0.9-3.3-2.2-6.1
	c-1-2.1-4.1-12.8-6.8-12.8c0.4-3.3,4.6-0.4,6.3-1.4c-1.6-0.7,4.1-8.2,4.7-8.7c1.4-1.2,2-1.9,3.1-3.1c1.3-1.6,0.9-3.9,2.7-5.1
	c3-2,4.5,2,5,4.2C305.3,15.7,310.2,16.9,313.9,18.5z"/>
<path id="Rutland" fill="#C2240C" stroke="#FFFFFF" d="M391.1,333c0.6,1.3,2.5,1,3.5,1.8
	c1.9,1.6,1.4,2.9,4.4,3.5c2.2-0.3,4.6,1.4,2.4,3.5c-1.3,1.8-3,1.2-4.8,1.8c0.6,0.6,1,1.3,1.2,2.2c-0.3,0.3-5.2,7-5.2,4.9
	c-0.4,0.4-8.7,7.2-8.4,7.3c-2.6-0.7-2-6.3-4.7-7.2c-3.8-1.3,0.1-5.7,0.3-8.8c0.1-2-4.5-8,1.5-7.2C384.5,335.4,387.6,333,391.1,333z"
	/>
<path id="Shropshire" fill="#FFDD00" stroke="#FFFFFF" d="M279.4,307.4c-4.3,2.2-4,3.9-9.1,3
	c0,4.8-2.7-0.9-4.2,1.4c-1.2-6.3-4.7-1.1-7.2-3.7c-3.9,1.2,0.4,6-2.9,7.3c-2.4,1-3.5,4.4-4.8,0c-2-4.6-4.8-0.7-7.2-2.1
	c-3.4-2-2.6-3-5.7,0.7c-1.4,1.7-2.2-0.1-3.9,0.9c-1.3,0.7-2.5,3-3.3,3.8c-1.1,1.1,0.5,1.9,0.7,2.5c0.2,0.8-1.5,1.6-1.7,2.3
	c-1.4,4.7,0.2,6.2,4.6,5.9c-0.3,1.6,0.5,2.3,2,2.5c2.7,0.3,1.5,0.6,2.4,2.1c0.8,1.2,4.2,1.6,3.2,3.6c0,0-3.8-1.6-4.2,1.9
	c-1.6,1.6,0.1,6.2-3.1,6.1c1.8,1.2-1.2,4.9-2.4,5.9c-0.9,0.7-1.4,1.5-0.8,2.7c1.4,3.2-0.1,1.1-0.1,3.5c0,1.4,5.3-3.7,5.7-4
	c4.1-3.2,3.5,6.6,0.8,4.7c0.4,5-20.6,4.4-9.2,12.5c2.3,1.7,4.7,5.2,7.5,6.2c1.9,0.6,3.7-0.4,5.6-0.4c2.3,0,2.1-1.9,4.1-1.9
	c-1-0.3-1.2-0.8-0.7-1.5c0.8-0.2,1.3,0.1,1.6,0.9c0.4-1.9,4.4-3,5.1-0.8c2.8,2.2-0.4,1.6,3.2,2.4c1.8,0.4,1.5,2.3-0.1,2.7
	c-0.1,1,2.3,2.2,2.9,2.4c2.9,1.2,1-2.3,3.2-2.8c1.8-0.4,5,6.9,6.6,0.9c0.4-1.5,1.6-1.8,2.8-0.6c2.6,2.6,1.3-1.9,2.3-2.7
	c2.8-2.3,6-1,8.9-2.7c-1.1,0.7-3-4.1-1.2-5.3c2.7-1.8,4.8,0.7,3.3-4.3c-0.5-1.8-0.1-3.4,1.7-4.3c2.4-2-0.5-2.6,0-4
	c1.4-3.8-4.2-3.2-2.5-6.4c2.3,3.2,6-1.9,4.8-4.5c0.1,0-0.4-2.3-0.4-2.4c-0.6-1.2-2.2,0.2-3.3-0.6c-2.7-1.7-0.2-6.1-2.8-8.7
	c-2-2-1.1-3.8-2.7-5.3c-2.4-2.2,0.1-3.6,0.5-6.6c0.5-4.2-4.3,1.9-5.3-1.6c-0.6-2,3.2-7.7,3.8-7.5
	C280.3,312.7,279.5,309.1,279.4,307.4L279.4,307.4z"/>
<path id="Wiltshire" fill="#009542" stroke="#FFFFFF" d="M314.8,446.5c0.6,8.8-3.3,1.2-4.5,2.4
	c-1.1,1,1.3,2.8,0.2,3c-1.4,0.3-6.4-3.7-4.5,1.5c-3-0.9-5.7-4.8-7.8-1.8c-1.5,2.2-2.7,5.3-5.1,6.7c-5.1-2.6-9.8,5.3-5.7,7.1
	c-5.8,4.5-0.9,4.1-2.5,10.8c3.7,2.9-2.9,7.1-3,8.7c4.1-1.1,6.2,8.1,5.4,10.9c-1.2,4.3-10.1,14.7-4.1,17.3c2.4,1.1,4.7,0.5,6.4,2.7
	c1.3,1.7,2.2,3.8,3,5.8c1.7,1.8,3.3,3.1,4.1,5.5c4.3,1.7,10.4-8.8,15-4.3c1-2.9,4.5-0.1,6.7,0.7c2.4,0.9,5.2,4.5,7.6,3.4
	c3.7-1.7,0.2-3.4,1.5-5.3c0.9-1.3,1.7-1.2,0.3-3c-1.7-2.1-1.2-4.9-1.2-7.8c0.1-3-4.4-8.4-3.6-12.2c2.7,0.4,4.3-1.6,5.3-3.9
	c1-0.6,4,0.8,4.5-0.1c0.4-0.8-0.3-11.5,2.3-8.5c2.1-3.2-3.5-6.9-4.5-9.5c5.8-0.9,0.3-5.4-0.7-8.5c-0.6-1.8-4-9.3-6.3-7.8
	c-1.4-3.3,1.3-4,0.9-6.8c0.1,0.4-2.2-6.7-1.6-6.2c-1.1,2.6-3.4,3.5-6.1,2.8C315.9,449.1,315.6,447.7,314.8,446.5z"/>
</svg>
