<svg viewBox="0 0 640 640" class="map">

<path id="Thüringen" fill="#009542" stroke="#FFFFFF" d="M330.9,275.3l1.5-0.3l2.7,0.2l1.5,0.1l2.3,0.5l0.3,0.2l1.6,1.4l1-0.4
	l-1.3,1.8l-0.4,1.3l1,2.3l1.7,2.6l1.3,2.1l0.8,1l-0.1,1.9l-0.1,2.2l0.6,0.4l0.7,0.8l0.7,0.1l0.6-0.1l0.9-0.3l0.5-0.3l5.1,1.6l0.4,0
	l5.1,0.1l1.1,0l0.6-0.1l2.2,0.1l3.3,1.3l0.2,0.2l0,0.3l-0.2,1.5l0.4,0.8l0,0.3l1.4,0.5l-0.4,0.4l-0.1,0.1l0,0.1l0.4,0.5l0.5,0.5
	l0.2,0.1l0.3,0.2l1,0.9l0.4,0.4l0,0.2l-0.1,0.1l-0.3,0.5l-0.6,0.9l-1.2,1.7l-0.7,0.9l-0.4,0.5l-0.2,0.2l-0.4,0.1l0,0l-0.6-0.7
	l-0.1,0l-0.2,0.1l-0.3,0.4l-0.5,0.8l-0.1,0.6l1.2,1l1.3,0l0.7-0.4l0.2,0l0.7,0.3l1.3,1.3l0.9,2v0.2l-0.4,1l-0.2,0.4l-1,0.2l0.7,2.7
	l0.4,0.3l0.7,0.3l0,0.2l3.1-0.1l0.7-0.6l0.2-0.2l0.3-0.6l0.2-0.1l5,0.8l1.2,0.8l0.2,1l0.1,1.1l0.1,0.4l3.8,1.2l1.4,0.4l2.2-0.5
	l1.6-0.4l0.7,0.2l2.8,1.8l1.7,1.2l0.2,0.2l1.9,2.4l0.1,0.4l0,0.2l0,0.7l0.8-0.3l0.3-0.1l2.6-0.4l0.2,0l2.9,1l0.9,0.4l-0.1-0.6
	l0.2-0.2l0.2-0.2l0.5-0.4l0.1,0.1l1.1,1.4l0.4,0.7l0.2,0.9l0,0l0.5-0.3l0.2-0.1l0.6-0.7l2.5-5.5l0.1-0.2l0-0.8l-0.4-0.5l-0.3-0.2
	l-1-0.8l-0.2-1.3l1.3-2l2.4-1.2l0.1,0l6.1,1.9l2.3,0.8l0.3,0.2l0.2,0.2l0.2,0.7l-0.1,0.5l-0.1,1l0.2,1.4l2,1.5l1.9,0.7l1.9,0.5
	l0.3,1.3l0.5,1.8l0.1,0.2l0.5,0.9l0.2,0.2l0.4,0.3l-0.6,1l-2.2,0.7l-1.1,0.2l-0.4-0.1l-1.5,0.2l-2.6,0.6l-0.2,0.1l-1.2,1l0,1
	l-0.7,2.1l-0.2,0.1l-1,0.3l0-0.1l-0.4-0.6l-0.5-0.2h-1.3l-0.2,0.1l-1.3,1l0,0.1l0,1.1l-3.5,1.3l-1.1-0.1l-0.5-0.6l-0.4,0.8l-0.6,4.3
	l-0.1,0.8l0,0.4l0,0.2l2,3.5l0.6,0.6l2.4,0.6l-0.2,1l-0.9,1.1l-0.1,0.1l-1.6,1.7l-1.5,0.4l-0.1,0l-2.9,1.2l-2.6,1.1l-0.4,0.2
	l-0.2,0.1l-0.2,0.7l1.6,0.5l0.3-0.3l0.5,0l0.1,0l0.2,0.3l-0.1,0.4l-0.1,0.1l-0.2,0.1l-0.7,0.1l-0.3-0.1l-0.9,0.6l-2-0.2l-3.2,0.2
	l0.4-2.2l-0.3-2.5l-0.6-0.6l-0.3,0.1l-0.1,0.1l-1.1,1l0,0.6l-1.8,1.8l-0.2,0.1l-0.6,0.3l-0.3,0.2l-2.5,3.5l-0.1,0.3l0,0.1l0.6,1.4
	l0.2,0.4l0.7,0l0.9-0.1l0.7,0.6l1.6,1.5l0.2,0.4l0,0.2l-0.3,0.4l-1.5,1.4l-1.3,0.7l-0.5,0.4l-0.4,0.6l0.1,0.2l0.4,0.4l1.3,0.9
	l-2.1,1l-3.3,1.2l-10,1.4H380l-0.2-0.1l-0.4-0.4l-0.3-0.4l-0.2-0.2l-0.3-0.1l-1,0.2l-0.1,0.1l-0.1,0.2l-0.1,0.6l0,0.2l-0.4,0.3
	l-1.5,0.5l-0.5-0.2l-1.3-1.5l-0.5-0.9l-0.4-1.7l-1.4,0.2l-1.6-0.9l-0.1-0.1l-0.1-0.4l0-1.7l0.1-1.3l0.4-0.5l0.4,0l0.1-0.1l0.2-0.5
	v-0.1l-0.5-0.7l-0.3-0.4l-0.2-0.2l-2.8-0.5l-1.3,0.2l-0.1,0.1l-0.9,0.9l-0.2,0.6l-1.8,1.4l-1.2,0.6l-0.1-0.1l-0.4-0.1l-0.3,0.1
	l-0.2,0.2l-0.1,0.5v0.2l0.1,1.7l0.6,0.4l0.4,0.1l0.2,0.7l1,6v0.1l-1.6,5.5l-2.5,0.4l-0.7,1.5l-0.1,0.1l-0.7,0l-1.8-1.7l-0.6-0.8
	l0-0.1l-0.1-0.4l0.1-0.5l0.3-0.4l0.3-0.2l0.4-0.3l0.3-0.1l0-0.5l-1.1-1.9l-1.3-1.1l-0.7,0l-0.6,0.1l-0.1,0.1l-0.3,0.9l-0.9,0.4
	l-1.1,0.4l-0.3,0l-2.9-0.5l-1.1-1.2l-0.9-1.6l-0.4-0.4l-0.2,0h-0.1l-5.3,0l-6,2.4l-0.2,0.7l0.1,2.4l0.1,0.3l0.3,0.2l4.4,3.1l0.1,0
	l0.5,0.1l1,0.3l0.5,0.2l0.3,0.4l0,1.1l-0.2,0.5l-0.1,0.1l-0.5,0.4l-0.6,0.1l-0.2,0l-2.3-0.5l-1.9-0.4l-0.5-0.1l-0.2,0.2l-0.1,0.2
	l0,1.4l0.1,0.1l0.1,1.4l-0.4,0.6l-0.1,0.1l-0.2,0l-4.2-1.5l-1.5-0.4l-0.2-0.4l-0.3-0.9l-0.5-2.3l0.3-2.8l0.2-2.2l-2.4-0.6l-3.2-1.2
	l-1.8-2l-0.2-0.9l-0.2-0.8L318,377l-0.7,0.3l-1.5-0.2l-0.1,0l-0.4-0.6l0-0.5l-0.3-1.9L313,370l-0.4-0.4l-0.4-0.4l-3.7-1.6l-1.2-1.6
	l-1.5-1.9l-0.4,0l-5.3,0.6l-1.4,1.6l-0.8,0.8l-0.3,0.1l-0.2,0.1l-0.2-7.7l0.1-0.3l0.3-0.5l0.2-0.2l1.4-1.2l-0.6-1.6l-0.6-1.1
	l-0.2-0.2l-1-0.1l-1.7-0.1l-0.4,0.1l-1.9,0.8l-0.2,0.3l0,0.5l1,1.2l-0.4,1l-0.7,0.2l-0.9-0.1l-2.6-0.5l-0.1-0.7l0.1-2.1l0.2-0.4
	l0.5-0.8l1.1-1.4l1-2.1l0.4-1v-0.3l-0.1-1.2l-0.7-0.9l1.1-0.3l0.2-0.1l0.1-0.1l0-0.4l-0.1-0.8l-0.3-0.6l0-0.4l0.3-1.4l0.1-0.3
	l0.9-0.7l0.4-0.3l1.3,0.2l1.1,0l0.6-0.9l1.3-3.3l0-0.6l-0.8-4.7l-1.2-3.8l0.5-1l0.1-0.2l0.1-0.1l0.2-0.1l0.7-0.1l1.1,0.1l1.8,0.3
	l1,0.6l0.2,0.3l0.2,0.2l0.4,0.1l0.3,0l1.4-0.2l0.2-0.1l0.1,0l0.4-0.2l0.2-0.1l0.4-0.5l-0.1-0.1l0.5-0.9l0.1-0.4l-0.4-0.8l-0.4-0.4
	l-0.2-0.2l-0.7-0.5l-1.4-0.5l-0.2-3.4l-0.5-1l-1.1-2.3l-0.1-0.2l0.4-0.5l2.1-0.5l0.8,0.9l0.3,1.1l0.2,0.4l0,0l0.3,0.6h0.5l0.1-0.2
	l0-0.6l0-1.4l-0.2,0l-0.3-0.4l0-0.2l0.3-1.1l0.3-0.2l0.3-0.1l0.5-0.4l0.3-0.6l-0.2-0.5l-1-0.2l-1-1l-0.5-0.4l-0.7-0.4l-1.3-0.4
	l-3.6-1.8l-0.7-2.3l-1.5-0.6l-2.7-1l-1-1.2l-1.1-2.7l-0.5-1.7l-0.1-0.8l0.2-0.7l0.2,0.1l0.2-0.1l0.4-0.2l2.5-1.7l5.3-3.1l4.2-0.9
	l6.4-4.3l2.1-1.7l0.1-0.1l1.2-1.8l0.1-0.3l0.2-0.6l0-0.1l-0.3-0.2l0.7-1.5l0.6-0.9l1.9-0.5l0.2,0l0.7,0.2l1.2,0.5l0.3,0.2l0.6,0.4
	l0.3,0.2l1,1.4l0.5,0.2l1.9-0.2l3.6-0.9l0.7-1.4l1.7-4.4l0.2,0l0.9-0.1L330.9,275.3z"/>
<path id="Schleswig-Holstein" fill="#005FAB" stroke="#FFFFFF" d="M338.8,85.7l0.7,2.4l-0.8,1.7l-2.1-0.2l-4.2,2.9l-1.1,1.8l0,1.4
	l0.8,2l0.2,0.3l0.3,0.7l0.1,0.4l-0.1,1.2l-0.3,2.5l3,3l1.2,0.7l0.2,0.1l1-0.1l0.3-0.1l0-0.1l0.2-0.1l0.1,0l0.9,0.2l0.7,0.3l1.1,1.2
	l0.6,3l-1.1,1.6l-0.3,1.9l-5.2,6.9l-1.7,2l-0.8,0.9l-0.2,0.3l-3.1,2.3l-1.1-0.2l-0.5-0.2l-0.4,0l-0.8,0.5l-0.5,1l-1.4,6.5l0,0
	l-0.1,0l-0.3,0.2l-0.3,0.1l-0.4,0l-3.3-1l-0.5-0.2l-0.7-0.4l-0.7-0.5l-1.9-1l-4.7-2.1l-1.3-0.7l-0.4-0.8l-3-3.2l-0.2-0.6l0.1-0.5
	l-0.4,0.1l-0.3-0.1l-2.8-1.9l-0.2-0.2l-0.7-1.9l-0.1-1.7l0.2-0.9l0.5-0.5l1.6-1.3l1-2.1l0-0.1l0.2-0.5l-1.3-1.7l-0.6-0.7l-0.1-3.7
	l0.5-1.1l0.1-0.7l-1-0.6l-0.2-0.1l-0.2,0l-3.4,1.7l-1.1,0.7l0.4,0.5l-0.6,1.6l-3.9,3h-0.6l-0.4,0l-0.8-0.2l-0.2-0.2l-1,0l-0.9,0.1
	l-0.1,0.6l0,0.3l-0.3,0.4l-0.3,0.4l-2.8,3.5l-0.6,0.3l-0.4-0.2l-0.8-0.8l-1.4-1.7l-0.1-0.5l0.1-0.4l-0.3,0l-0.2,0.3l-0.6,1.7
	l-0.2,0.7l-0.3,1.2l-0.4,1.8l-1.3-0.1l-1.3-0.4l-4.3-2.8l-1.8-1.4l-0.3-0.5l-0.3-0.7l-0.3-1l-0.1-1.3l-0.1-0.4l-0.3-0.8l-0.6-1.5
	l-0.3-0.5l-0.8-0.9l-1.9-1.4l-0.7-0.6l-0.5-0.7l-0.6-1l-0.6-1.5l-1.5-3.1l-0.4-0.8l-1.9-2.7l-1.4-1l-2.8-1.2l-1.5-0.2l-1.7,0l-2.9,0
	l-2.5-0.2l-0.8,0l-0.7,0.1l-0.2-2.1l-0.1,0l-1.2,0.6l-0.3,0.1l-0.4,0l-0.3-0.1l-0.8-0.7l-1.5-1.2l-0.7-1.1l-0.5-1.4l-0.3-0.9
	l-1.1-2.6l-1.7-2.6l-0.3,0l-0.3,0l0-0.2l1.2-1l0.9-0.5l0.8-0.2l2,0.5l0.4,0.3l0.4,0.4l0.5,0.1l0.7-0.2l0.4-0.2l0.2-0.2l0.2-0.2
	l0.2-0.3l0.1-0.5l0.1-0.5l0-0.2l0-0.2l-0.1-0.3l-2.6-5.3l-0.2-0.2l-0.5-0.2l-0.2,0l-0.8,0.2l-0.3,0.2l-1,0.7l-0.4-0.3l-0.9-0.6
	l-0.1-0.1l-0.4-0.8l-0.8-2.2l-0.1-0.4l0-0.1l0.2-0.5l0.8-1.8l0.5-1.1l0.1-0.3l0.2-2.8l0-0.6v-0.2l-0.2,0l0.1-0.1v-0.2l-0.1-0.5
	l-0.1-0.3l-0.2-0.4l-0.3-0.4l-0.1-0.1l-0.2-0.1l-3,0l-0.6,0l-1.9,0.1l-0.8,0.8l-0.5,0.6l0,0.1l0.4,0.1l0.1,0l0.1-0.1l0,0l0,0.1
	l-0.1,0.1l-0.1,0.1l-0.3,0l-0.3,0l-3.5-1.9l-0.4-0.3l-0.4-0.8l-0.1-0.4l0-0.6l0.2-1.1l0.2-0.6l0.3-0.7l0.2-0.3l0.1-0.1l0.7-0.4
	l0.1,0.7l1,0.7l0.4,0l0.1-0.1l2.1-1.3l0.1-0.1l0.1-0.2v-0.7l0-0.1l-0.1-0.4l0.4-1.9l5.3-0.9l1,0.1l1.1,0.5l0.9-0.2l1-0.5l0.9-0.5
	l4.4-3.7l0.1-0.1l0.5-0.9l0.1-0.9l0-0.3l-0.2-0.6l-1-2.2l-5.1-7.3l-2.4-3.4l-0.9-0.6l-1.4-0.7l-0.9-0.9L236,26l-1.8-4.6l-0.6-3
	l-0.7-1.5l-0.1-0.1l-1.8-2.1l-1.7-1.9l0-0.2l0.3-2.9l1.2-2.7l1.5,0l0.5,0.1l0.3,0.2l1,0.7l4.3-0.2l0.6-0.1l0.6-0.1l0.4,0l3.3,0.2
	l2.2,0.2l0.4,0.1l0.2,0.1l2.5,1.1l0.7,0.5l0,0.2l0.4,0.2l0.6,0.3l0.7,0.1l1.3,0.1l1-0.3l1.1,0l0.3,0.1l0.6,0.2l2.4,1l1.7,0.8
	l0.2,0.5l-0.3,0.4l-0.2,0.3l0,0.3l0.1,0.4l0.5,1.4l3.8,0.4l0.8-0.1l1.2-1l0.1-0.1l0.1-0.5l2.1-0.4l0.9,0.4l1.1-0.4l1.1-0.3l0.7-0.3
	l4.1-3.6l0.4-0.1l1.7,0.6l-0.3,0.5l-0.8,1.5l3.4,1.4l2.6,1.1l4.7,5.3l0.8,0.4l0.7,0.2l0.4,0h0.1l0.1-0.1l1.3-2.8l-0.1-0.2l0.1-0.4
	l0.1-0.2l0.1-0.1l0.8,0.5l1.4,0.9l0.9,1.6l2.7,8.4l-0.1,1.7l-0.1,2.4l0,4.3l0,0.4l-1.3,2.3l-0.2,0.2l-0.5,0.6l-0.8,0.7l-1.3,0.7
	l-2.1,1.1l-1.4,0.7l-0.3,0.1l-0.2-0.1l-0.1-0.2l-0.5,0l-0.3,0.1l-0.2,0.1l-0.1,0.1l0.6,1.1l0.2,0.4l0.3,0.3l0.4,0.2l0.2,0.1l1.6-0.2
	l0.5-0.1l0.2-0.1l1.5-0.7v-0.1l0.6-0.2l4.1-1l3.1-0.6l0.3-0.1l0.4,0l0.4,0.1l1.2,0.8l0.5,0.4l1.1,1.1l-0.4,0.6l-0.8,1.3l0.1,0.5
	l0.6,3l-1,0.8l-0.4,0.9l-0.1,0.5l1.1,1.4l0.3-1l1.8-4l0.4-0.4l3.6-1.8l0.8-0.2l0.4,0l0.5,0.1l0.9,0.3l1.4,0.4l9.9,4.9l0.6,0.3
	l1.2,0.8l0.3,0.3l0.4,0.6l0.2,0.4l-0.1,0l0.1,0.2l1.6,1.8l0.3,0.3l0.2,0.1l0.5,0.1l0.5,0l2.1-0.1l0.3,0l0.4-0.1l0.6-0.2l0.4-0.3
	l1.5-1.2l0.6-0.6l0.9-1.1l1.4-1.2l2-1.5l0.9-0.2l6.5-0.3l-0.2,2.9l-0.4,0.6l-0.1,0.3l0.1,1.8l0.5,5.4l0.6,4.5l0,0.1l-0.1,0.1
	l-2.1,1.7l-0.5,0.4l-2.6,1.8l-2.4,2.2l-2.1,2.6l-0.4,0.3l-0.4,0.2l-0.4,0.2l-1.8-0.3l-0.3-0.1l-0.4-0.3l-2.5,2.7l-0.2,0.2l-0.1,0.3
	l-0.1,0.5l-0.1,0.4l0,0.2l0.1,0.4l0.6,1.3l0.5,0.9l0.3,0.5l0.3,0.4l0.2,0.2l0.4,0.3l0.4,0.1h1.5l0.2,0l0.7-0.2l0.3,0l0.4,0.2
	l0.3,0.3l0.3,0.3l0.2,0.4l0,0.2l-0.1,0.8l0.1,0.6l0.4,0.2l0.2,0L338.8,85.7z"/>
<path id="Sachsen-Anhalt" fill="#FFDD00" stroke="#FFFFFF" d="M373.9,160.5l1.1-0.5l0.2,0l0.4,0l0.2,0l0.2,0.1l0.2,0.1l0.1,0.2
	l0,0.2l-0.1,0.1l-0.7,0.9l0,0.2l0,0.3l0.1,0.2l0.2,0.2l2.8,2.3l0.2,0.1l0.4,0.1l0.2-0.1l0.6-0.4l0.8-0.5l0.1,0l0.4,0.1l0.3,0.1
	l0.3,0.1l0.2,0.1l4.1,2.4l0.2,0.2l0.1,0.2l0,0.2l0,0.2l-0.1,0.2l-0.1,0.2l-0.4,0.4l-0.4,0.4l-0.2,0.3l0,0.2l0.1,0.4l0.2,0.4l0.2,0.2
	l0.3,0.1l2.9,1.2l4.2,1.3l0.2,0l6.6-0.8l0.6-0.5l-0.1,0.1l-0.2,0.5l0,0.5l0.7,1.6l1.3-0.4l0.7-0.4l1.2-0.6l1.2,0.5l0.5,0.3l0.1,0.2
	l1,3.9l-0.2,1.4l-1.2,0.6l-0.5,1l-0.3,0.9l-0.3,3.5l0,0.1l1,1.6l0.9,1.4l0.2,0.7l0,0.5l-0.3,2.9l-1.3,1l-0.3,0l-0.3-0.1l-0.7,1.3
	l-1.4,5.7l0,0.6l0,0l1.5,1.7l0.7,0.8l0.9-0.2l0.9-0.3l0.3-0.4l0-0.1l0.1-0.7l4.4,1.5l0.3,2.6l-0.2,0.7l-0.5,0.8l-0.7,1.7l0.1,1.3
	l0.3,2.3l0.5,2.7l-0.9,1.9l-0.2,0.1l-0.1,0.1l-0.9,2l-0.5,1.4l-0.1,0.4l-0.2,2l0.2,3.2l-1.5,3.3l2.3,3l1.7,2.6l2.1,2.7l1.3,1.5
	l3.7,2.3l5.7,2.2l3.2,0.5l0.6-0.1l1.5-1l0.1-1.1l0.4-0.5l0.7,0l1.6,0.7l0.6,0.4l1.3,0.7l1.4,0.7l0.3,0l0.4,1.1l3.9,2.3l1.9,0.5
	l0.4,0l0.8-0.3l3.9,2.1l2.4,2.5l0.2,0.1l0.1,0l1.9,0.2l1.6-0.7l0.3-0.2l-0.1-0.5l0.7,0l0.3,0.2l0.6,0.6l0.1,0.5l0,0.5l-1.4,0.2
	l0,0.2l0,0.2l2.6,9.3l0.4,0.3l0.2,0.2l0.4,0.8l0,0.4v0.1l-1.1,2l-0.4,0.4l-5.1,3.4l-1.7,0.2l-5.2,0.3h0l-7.6,0.2l-0.7-0.3l-0.1-0.1
	l-0.6-0.4l-0.8-0.3l-0.3-0.1l-0.4-0.1H432l-0.3,0.2l-0.2,0.3l-0.1,0.2l-0.1,0.5l-0.5,1.5l-0.2,0.1l-0.6,0.5l-0.7,0.5l-1.3,0.6
	l-1.6-1.1l-0.3,0.9l-1.6,0.8l-6,1.7l-1.8,0.2l-2,0l-0.5,0.1l-4.2,2.2l-2.8,2.5l-0.2,1.9l-1.9,4.2l0.3,1.1l0.8,2.7l0.1,0.1l0,0.1
	l0.2,0.5l0.8,4.4l0.1,1.3l-1.1,0.4l-1.3,0.7l1.3,3.6l1,1.5l0.3,1.5l0,0.2l0.3,1.9l0,5.8l1.6,0.3l0.2,0.1l0.4,0.5l0,0.3l-0.5,0.4
	l1.8,1.6l1.1,0.8l-1.3,2l0.2,1.3l1,0.8l0.3,0.2l0.4,0.5l0,0.8l-0.1,0.2l-2.5,5.5l-0.6,0.7l-0.2,0.1l-0.5,0.3l0,0l-0.2-0.9l-0.4-0.7
	l-1.1-1.4l-0.1-0.1l-0.5,0.4l-0.2,0.2l-0.2,0.2l0.1,0.6l-0.9-0.4l-2.9-1l-0.2,0l-2.6,0.4l-0.3,0.1l-0.8,0.3l0-0.7l0-0.2l-0.1-0.4
	l-1.9-2.4l-0.2-0.2l-1.7-1.2l-2.8-1.8l-0.7-0.2l-1.6,0.4l-2.2,0.5l-1.4-0.4l-3.8-1.2l-0.1-0.4l-0.2-1.1l-0.2-1L381,318l-5-0.8
	l-0.2,0.1l-0.3,0.6l-0.2,0.2l-0.7,0.6l-3.1,0.1l0-0.2l-0.7-0.3l-0.4-0.3l-0.7-2.7l1.1-0.2l0.2-0.4l0.4-1v-0.2l-0.9-2l-1.3-1.3
	l-0.7-0.3l-0.2,0l-0.7,0.4l-1.3,0l-1.2-1l0.1-0.6l0.5-0.8l0.3-0.4l0.2-0.1l0.1,0l0.6,0.7l0,0l0.4-0.1l0.2-0.2l0.4-0.5l0.7-0.9
	l1.2-1.7l0.6-0.9l0.3-0.5l0.1-0.1l0-0.2l-0.4-0.4l-1-0.9l-0.3-0.2l-0.2-0.1l-0.5-0.5l-0.4-0.5l0-0.1l0.1-0.1l0.4-0.4l-1.4-0.5l0-0.3
	l-0.4-0.8l0.2-1.5l0-0.3l-0.2-0.2l-3.3-1.3l-2.2-0.1l-0.6,0.1l-1.1,0l-5.1-0.1l-0.4,0l-5.1-1.6l-0.5,0.3l-0.9,0.3l-0.6,0.1l-0.7-0.1
	l-0.7-0.8l-0.6-0.4l0.1-2.2l0.1-1.9l-0.8-1l-1.3-2.1l-1.7-2.6l-1-2.3l0.4-1.3l1.3-1.8l-1,0.4l-1.6-1.4l-0.3-0.2l-2.3-0.5l-1.5-0.1
	l-2.7-0.2l-1.5,0.3l-0.3-0.1l0,0l-0.2-0.3l-1-1.6l-0.1-0.3l-0.2-1l-0.1-0.7l0.2-0.4l-0.7-1.8l-2.4-3.6l-0.8-0.5l-0.6-1.2l-0.2-2.3
	l0-2.8l0.1-0.4l0.3-0.4l1.7-1.4l0.3-0.1l0.3,0l0.1-0.1l0.8-1.3l0.1-0.3v-0.6l-0.1-0.5l-0.1-0.2l-0.4-0.5l-0.6-0.3l-0.7-0.3l0-1.3
	l0-0.1l0.6-0.9l1-0.3l-3-2.2l-1.3-1.9l3.4-0.4l1.4-1.4l0-0.1l0-0.2l-0.1-0.4l0.1-0.8l1.5-0.5l0.8-0.2l4-0.1h0.2l0.8,0.2l1.5,0
	l1.1-0.2l0.3-0.1l0.7-0.5l0.4-0.1l2.7-0.1l1.4,0.1l0.1,0.1l0.2-2.5l0.3-1.5l1.6-1.2l1.5-1.2l0.9-1.4l0.1-0.2l0-1.2l-0.1-0.3l0-0.1
	l-0.1,0l-0.7,0.1l-0.4,0l-0.5-0.3l-0.3-0.2l-0.1-0.2l-0.1-0.2l-0.1-0.3l0.1-0.6l0.3-0.8l0.2-0.4l0.3-0.2l0.8-0.4l0.6-0.1l0.9-0.2
	l0.5-0.6l0-0.1l0-0.1l-0.3-0.8l-1.1-1.6l-1.1-1.1l-1.1-1.3l0-0.1l-0.3-3.3l1-1.4l0.4,0.1l0.1,0l0.9-0.4l0.6-0.5l0-0.1l0-1.1l0-0.3
	l-0.5-0.5l-0.6-0.5l-0.2-0.1l-0.3,0l-1-0.6l-3.6-4.6l-0.7-1.5l0.5-1.2l1.8-1l1.4,0.1l-1.5-1.7l-1-1.3l-0.6-1l-0.3-0.6l-0.3-1.1
	l0.1-1.7l0,0l-2.2-4.3l-3-4.2l-2.1-1.5l-2.1-5.7l0.1-0.5l0.1-0.5l-0.2-1.8l0-0.2l0.4-1.7l1.6-0.5l2.1-0.4l4.8-0.1l2.3-2.5l0.2-0.3
	l0-0.1l-0.1-0.4l0-0.6l0.1-0.5l0.3-0.3l0.2-0.1l0.3,0l7.4,0.3l3.1,0.6l0.6,0.6l0.3,0.3l0.1,0.3v0.2l0,0.1l0.1,0.1l0.3,0.1l2.5,0.3
	l0.9-0.3l4.5-2.2l0.1-0.1l0.7-0.9l1.4-1.4l0.9-0.5l1-0.2l0.7,0l-0.6-1.5l0.5-2.6l0.2-0.8l0.3-0.6l0.7-0.1l0.1,0l0.3,0.4l0.5,0.3
	l0.6,0.1l0,0l2-2.9L373.9,160.5L373.9,160.5z"/>
<path id="Sachsen" fill="#C2240C" stroke="#FFFFFF" d="M450.3,271.7l1.9,3.1l0.5,0.3l0.6-0.4l0.3-0.3l0.2-0.2l2.1,1.1l0.4,0.6
	l1.5,3.3l0.9,2.2l0.2,0.5l0.1,0.5l-0.2,4.2l-0.6,2.9l1.2,1.5l0.2,0.5l0.2,0.3l1.8,0l0.4-0.1l1.4-0.4l-0.1-0.9l0-0.1l2.1-1.9l3.6-1.9
	l0.5,0.4l1.8,1.6l1.7,1.4l3.9,2.4l2.3,0.7l0.3,0l1.6,0l2.6-0.1l0.4-0.5l0.3,0.3l0.7,0.4l0.4,0.1l2.5,0.3l0.7-0.5l1.6-0.8l1.3-0.5
	l2.2,0.1l0.3,0l6-1.2l2.1-2.8l1.1-4.4l1.2-3.5l1.7-2.5l0.3-0.1l1,0.2l2.4-0.1l3.2,0.4l2.3,0.8l3.5-2l2.7-0.4l0.3,0.1l-0.1-0.4l0-0.3
	l0.1-0.3l0.3-0.2l5.5-2l1.8,0.7l0.1,0.5l0.3,0.6l0.1,0.1l0.3,0.1l0.4,0.1l2.5-0.3l0.1-0.1l0.4-0.4l0.1-0.2l0.1-0.2l0.5-1.9l0.7-0.6
	l0.8,0.6l-0.8,1.6l0,0.1l1,2.4l0.3,0.4l0.9,0.3l0.7,0.2l0.7,0.1l0.7-0.1l0.2,0l6.5,2.4l0.2,0.1l1.3,0.7l0.1,0.1l0.3,0.6l1,1.7l0,0.3
	l0,3.2l3.9,8.3l0.5,1.6l0,2.3l-0.9,2.1l-0.2,1l-1.6,11.4l-0.2,1.3l-0.7,1l-0.6,2l0.2,0.2l0,0.1l-0.2,0.9l-0.6,2.6l-1,2.9l-0.2,0.4
	l-1.2,1.6l-1.1,1.4l-1.1,2.2l-0.3,1.9l-0.4,1.9l-0.1,0.6l-0.3,0.2l-1.1,0.1l-0.4,0l-1.7-0.3l-4.4-1.7l-1.6-0.7l-0.1-0.6l0.7-1.9
	l-0.7-3l-1.7-4.9l-1.1-1l-4.2-3.6l-0.4,0.3l0.1,0.5l-0.1,1.1l-3.8,0.5l-0.4,0l-0.1,0l-3.7-1.4l-0.1-0.1l-0.2-0.1l-0.8-0.9l-0.2-0.1
	l-0.1,0l-0.6,0l-0.3,0.4l-0.2,0.5l-1.5,4.7l0.1,0.2l2.9,2.5l0.2,0.1l0.4,0.2l2.8,0.7l0.5-0.1l0.3,0.1l0.2,0.2l0.2,0.3l0.1,0.7
	l-0.6,2l-4.2,1.5l-8.9,4.5l-1.6,0.9l-0.9,1.1l-0.5,0.2l-6.7,2.1l-0.6,0.1l-1.5,0.1l0.2,0.4l0.2,2.5l-0.1,0.3l-0.3,0.6l-2,1.3
	l-0.5,0.2l-0.9,0.1l-0.1,0l-0.3-0.1l-0.4-0.3l-0.2-0.1l-1.5-0.3l-0.1,0l-5.6,0.7l-0.8,0.1l-5.8,3.5l0.2,0.4l0.2,0.7l0,0.1l-1.5,3.3
	l-0.7,0.5l-1.5,1.9l-3.1-1.5l-1.7-0.2l-4.7,3.6l-2.7,3l0.1,0.5l-1.5,3.6l-1.2,0.3l-2.5-0.8l-4.4,0.4l-0.5,0.2l-0.1,0.1l0,0.1
	l-0.3,1.7l-0.1,1.6l0.1,0.6l0.1,0.3l0,0.4l0,0l-0.1,0.3l-0.2,0.3l-1.6,2l-0.3,0.2l-1.7,1l-0.6-0.2l-2.3-1.5l-3.3-2.1l-0.5-0.3
	l-0.1,0l-4.2,2.5l-3,1.7l-0.9,0.1l-4,0.5l-3.6,1l-5.9,7.4l-1.7,2.5l-1.5,3l-0.2,0.6l-0.2,2.2l0.1,0.4l0.1,0.1l0.2,0.1l0.2,0.2
	l0.3,0.6l-0.1,1.5l-0.2,0.2H417l-0.6-0.1l-0.8-0.2l-0.2-0.1l-0.1-0.1l-0.6-1l-0.2-0.4l0-0.2l0.4-0.2l0.1-0.1l0.2-0.6l-0.2-1.3
	l-4.6-6.7l-0.9-1l-0.4,0l-1.6,0l-2.2,0.1l-0.3,0.3l-0.4-0.5l-1.6-0.6l-3.6-1.1l-0.9-0.2l-0.3-0.2l0.2-1.4l0.2-1.4l0-0.3l-2-2.1
	l-0.5-0.5l-0.7-0.2l-1.3-0.9l-0.4-0.4l-0.1-0.2l0.3-0.6l0.5-0.4l1.3-0.7l1.5-1.4l0.3-0.4l0-0.2l-0.2-0.4l-1.6-1.5l-0.7-0.6l-0.9,0.1
	l-0.7,0l-0.2-0.4l-0.6-1.4l0-0.1l0.1-0.3l2.5-3.5l0.3-0.2l0.6-0.3l0.2-0.1l1.8-1.8l0-0.6l1.1-1l0.1-0.1l0.3-0.1l0.6,0.6l0.3,2.5
	l-0.4,2.2l3.2-0.2l2,0.2l0.9-0.6l0.3,0.1l0.7-0.1l0.2-0.1l0.1-0.1l0.1-0.4l-0.2-0.3l-0.1,0l-0.5,0l-0.3,0.3L405,360l0.2-0.7l0.2-0.1
	l0.4-0.2l2.6-1.1l2.9-1.2l0.1,0l1.5-0.4l1.6-1.7l0.1-0.1l0.9-1.1l0.2-1l-2.4-0.6l-0.6-0.6l-2-3.5l0-0.2l0-0.4l0.1-0.8l0.6-4.3
	l0.4-0.8l0.5,0.6l1.1,0.1l3.5-1.3l0-1.1l0-0.1l1.3-1l0.2-0.1h1.3l0.5,0.2l0.4,0.6l0,0.1l1-0.3l0.2-0.1l0.7-2.1l0-1l1.2-1l0.2-0.1
	l2.6-0.6l1.5-0.2l0.4,0.1l1.1-0.2l2.2-0.7l0.6-1l-0.4-0.3l-0.2-0.2l-0.5-0.9l-0.1-0.2l-0.5-1.8l-0.3-1.3l-1.9-0.5l-1.9-0.7l-2-1.5
	l-0.2-1.4l0.1-1l0.1-0.5l-0.2-0.7l-0.1-0.2l-0.3-0.2l-2.3-0.9l-6.1-1.9l-0.1,0l-2.4,1.2l-1.1-0.8l-1.8-1.6l0.5-0.4l0-0.3l-0.4-0.5
	l-0.2-0.1l-1.6-0.3l0-5.8l-0.3-1.9l0-0.2l-0.3-1.5l-1-1.5l-1.3-3.6l1.3-0.7l1.1-0.4l-0.1-1.3l-0.8-4.4l-0.2-0.5l0-0.1l-0.1-0.1
	l-0.8-2.7l-0.3-1.1l1.9-4.2l0.2-1.9l2.8-2.5l4.2-2.2l0.5-0.1l2,0l1.8-0.2l6-1.7l1.6-0.8l0.3-0.9l1.6,1.1l1.3-0.6l0.7-0.5l0.6-0.5
	l0.2-0.1l0.5-1.5l0.1-0.5l0.1-0.2l0.2-0.3l0.3-0.2h0.8l0.4,0.1l0.3,0.1l0.8,0.3l0.6,0.4l0.1,0.1l0.7,0.3l7.6-0.2h0l5.2-0.3
	L450.3,271.7z"/>
<path id="Saarland" fill="#FFDD00" stroke="#FFFFFF" d="M102.7,441.6l0.4,0.2l5.6,1.8l1.1,0.1l3.5,0.2l5.6-1l3.4-1l0.5-0.3l1.1-0.6
	l0.1-0.1l0.4-0.4l0.2-0.3l0.5-0.5l0.2-0.2l0.6-0.3l2.4-1l1.5-0.6h0.3l0-0.1l0-0.1l0.1-0.1l2.4-1.4l0.3-0.1l1.6,0.2l0.8,0.1l-0.1,0.2
	l-0.1,0.6l0,0.2l0.1,0l1.3-0.5l0.4-0.4l0.4-0.5l2.1,1.4l2.6,2.4l4.9,2.6l0.6,0.1l0.6-0.2l0.9-0.5l0.3-0.3l0.1,0.2l0.3,0.6l0.4,0.8
	l0,0.2l0.1,0.7l0.1,3.5l-0.4,4.2l-1.3,0.4l-0.3,0.2l0,0.1l0.1,0.8l0.1,0.3l2,1.3l0.1,0.7l-0.2,1.2l0,0.3l4,2.3l0.6-0.1l1-0.4
	l0.4,0.3l-0.5,0.3l-0.6,3.5l0,0.1l0.5,0.3l-0.4,1.8l-0.5,0.7l-0.3,0.3l-0.5,0.2l-1.1,0.5l-2.3,1.5l-0.8,1.1l0,0.1l0,0.5l0.8,2.4
	l0.7,1l1.4,2.1l0.1,0.2l0.2,0.2l0.8,0l-0.4,0.7l-3.5,2.8l-0.3,0.2l-0.6-0.2l-0.8-0.6l-1.2-0.5l-3.3-0.3l-0.4,0.1l-0.5,0.2l-0.5,0.5
	l-0.2-0.1l-0.7-0.4l-0.4-0.2l-1-1l-0.8-1.3l-0.7,2l-1.3,1.3l-0.5,0.2L137,479l-0.2-0.2l-0.2-0.4l-0.5-3l-0.2-1.1l0.1-0.4l-1-1.5
	l-1.8-1.3l-1.9-0.7l-1.1-0.3l-3.2-0.4l-1.1,0.7l-0.1,0.2l0.4,0.3l0.5,0.7l0.4,1.5l0,0.2l-0.1,0.3l-0.7,1.2l-1.4,0.2l-4.4-0.8l-0.9-1
	L119,472l1.1-1.4l-0.4-1.1l-1.7-1l0.1-1.5l0-0.1l-1-2.6l-1.5-1.3l-1.3-0.7l-0.2-0.2l-0.8-0.9l-0.3-0.4l-1.1-2l-0.1-0.1l-1.2-4.8
	l-0.1-0.3l0.1-0.2l0.6-0.4l0.5-0.1l-0.3-0.5l-0.4-0.5l-0.4-0.3l-3.4-2.6l-1.9-0.7l-1.3,0.3l-0.3,0.1l-0.5,0.1l-1-0.1l-0.4-0.5
	l-0.3-5l0-0.2l0.2-0.3L102.7,441.6z"/>
<path id="Rheinland-Pfalz" fill="#009542" stroke="#FFFFFF" d="M197.8,352.3l-0.7,0.8l-0.1,0.3l-0.1,0.4l0,0.7l0.7,3.9l0.1,0.2
	l0.3,0.2l0.9,0.5l0,0.5l-0.3,0.9l-0.6,1.4l-0.2,0.5l-0.6,1.5l-0.2,0.3l-0.6,0.1l-0.9-0.2l-0.8-0.3l-0.4-0.8l-1-0.4l-0.2,0l-0.5,0.1
	l-0.3,0.1l-1.9,2.3l-0.4,0.9l-0.4,1.9l0,0.3l0.4,1l0.6,0.8l-1.4,3.9l-0.2,0.6l0.4,0l4.2,2.8l2.1,3.9l0.2,0.3l0.1,0.1l0.6,1.8
	l0.1,0.3l0,1.5l-1.6,0.9l-1.7-0.7l-0.5-0.1l-0.7,0.2l-0.8,1l0.2,0.4l1.3,1.3l0.3,0.2l0.1,0.1l-1.3,1.5l-0.2,0l-0.8-0.2l-1.5-0.9
	l-3.5,1.5l-0.3,0.1l-0.5,0.3l-1.2,1.6l-0.1,0.1l0,1.1l0.3,0.4l0.4,0.3l0.6,0.5l0.8,0.7l0.1,0.3l-0.3,2.4l-0.2,0.3l-1.8-0.5l-0.3-0.1
	l-3.3,2.8l-1.6,0.9l-0.8,0.2l0.5,1.5l4.3,6l0.4,0.3l0.2,0.1l0.3,0l2.7-0.1l1.6-0.3l0.2-0.1l5.6-2.1l3.3-1.5l2-0.7l0.7-0.1l0.8,0.1
	l1.5,0.3l0.5,0.2l0.9,0.9l0.6,0.6l0.4,0.5l0.6,0.9l1,0.9l0.6,0.7l0.3,0.4l0.4,0.6l0.4,0.9l0,0.8l0.5,1.5l0.1,0.4l0,0.4l-0.1,0.3
	l-0.2,0.5l-0.3,0.5l-0.1,0.3l-0.1,0.4v0.3l0.2,0.6l1.8,4.5l0.2,0.4l0.8,1.1l0.4,0.8l2.2,2.3l0.3,1.9l-0.5,0.8l-0.1,0.2l-0.1,0.2
	l-0.3,0.5l-0.4,0.3l-0.3,0.2l-0.3,0.1l-1.2,0.3l-0.6,0.2l-0.4,0.2l-0.4,0.3l-0.5,0.4l-0.1,0.1l-0.2,0.3L208,434l-0.1,0.8l0.1,0.4
	l1.3,4.1l0.4,0.7l1.3,1.9l0.4,0.9l-0.1,0.9l-0.3,0.6l-0.1,0.4l0,0.3l0,0.3l0.1,0.2l0.3,0.7l0.9,3.5l0.1,0.5l0.3,2.5l-0.2,0.1
	l-0.2,0.2l-0.1,0.2l0,0.3l0.1,0.2l0.1,0.1l0.2,0.2l0.2,0.1l0.5,0.1l0.5,0l0.8,0l0.4,0.1l0.3,0.1l0.3,0.3l0.1,0.3l0,0.3L215,457
	l0.1,1.8l0,0.7l0,0.5l-0.2,0.7l-0.3,0.7l-0.5,0.7l-0.4,0.4l-0.4,0.3L213,463l-0.4,0.4l-0.2,0.3l-0.1,0.3l0,0.2l0,0.3l0.1,0.3
	l0.2,0.2l0.2,0.1l0.8,0.3l0.2,0.1l0.3,0.3l0.2,0.3l0.1,0.4l0,0.3l-0.1,0.2l-1.1,0.6l-1.4,1.6l-0.4,0.4l-1.1,0.7l-0.4,0.3l-0.4,0.4
	l-0.3,0.3l-0.2,0.4l-0.1,0.5l0,0.6l0,0h0.1l0.1,0l0.1,1.4l-1.9,8.2l-0.1,0.4l-0.4,0.6l-0.5,0.7l0,0l-0.8,0.8l-0.6,0.8l-0.3,0.5
	L204,487l-0.2,0.7l-0.2,1.1l-0.1,0.2l-0.1,0.3l-0.3,0.7l-0.2,0.4l-0.2,0.4l-0.3,0.3l-0.9,0.7l-1.3,1L200,493l-0.2-0.5l-0.1-0.2
	l-0.1-0.1l-2.8-0.3l-0.3,0.1l-0.8,0l-0.7-0.1l-2.4-1l-1.3-0.6l-0.1-0.2l-0.5-0.6l-0.6-0.6l-4-1.9l-2.6-0.7l-1.1-0.1l-0.8-0.4
	l-3.9-0.6l-2.7,0.6l-0.2,0.1l-1.6,0.1l-3.1-0.2l-2.3-0.9l-3.6-2.2l-0.7-0.5l-1.1-1l-1.7-3.2l0-0.6l0.2-1l-0.2-1.1l-2.6-1.3l-1.9,0.3
	l-1.6,0.3l-0.9,0.2l0,0.4l0,0.2l0.1,0.2l-0.8,0l-0.2-0.2l-0.1-0.2l-1.4-2.1l-0.7-1l-0.8-2.4l0-0.5l0-0.1l0.8-1.1l2.3-1.5l1.1-0.5
	l0.5-0.2l0.3-0.3l0.5-0.7l0.4-1.8l-0.4-0.4l0-0.1l0.6-3.5l0.5-0.3l-0.4-0.3l-1,0.4l-0.6,0.1l-4-2.3l0-0.3l0.2-1.2l-0.1-0.7l-2-1.3
	l-0.1-0.3l-0.1-0.8l0-0.1l0.3-0.2l1.3-0.4l0.4-4.2l-0.1-3.5l-0.1-0.7l0-0.2l-0.4-0.8l-0.3-0.6l-0.1-0.2l-0.3,0.3l-0.9,0.5l-0.6,0.2
	l-0.6-0.1l-4.9-2.6l-2.6-2.4l-2.1-1.4l-0.4,0.5l-0.4,0.4l-1.3,0.5l-0.1,0l0-0.2l0.1-0.6l0.1-0.2l-0.8-0.1l-1.6-0.2l-0.3,0.1
	l-2.4,1.4l-0.1,0.1l0,0.1l0,0.1h-0.3l-1.5,0.6l-2.4,1l-0.6,0.3l-0.2,0.2l-0.4,0.5l-0.2,0.3l-0.4,0.4l-0.1,0.1l-1.1,0.6l-0.5,0.3
	l-3.4,1l-5.6,1l-3.5-0.2l-1.1-0.1l-5.6-1.8l-0.4-0.2l-1.1-1.7v-0.1l0.1-0.1l1.1-1.6l0.3-0.4l0.2-0.1l0.4,0l0.2-0.1l0.2-0.2l1-1
	l4.6-7.5l1.2-4.1l0-0.5l-0.5-3.4l-1.6-1l-1.2,0.7l-1.2,0l-0.1,0l-1.4-0.8l-0.2-0.2l-2.5-2.5l-4.5-2.7l-1.4-1.7l-2.7-4.4l-0.3-0.8
	l-0.3-0.6l-0.9-2.3l-1.2-4.8l0.3-2.4l1.6-5.7l2-1.7l-0.3-3.4l0.1-1.1l0-0.1l0.1-0.2l5.9-3.8l0.3-0.7l0.9-2l0.3-0.1l0.8-0.2l1.8,0.9
	l2.3-0.6l1.2,0.1l-0.6-0.9l-0.4-0.6l-0.2-0.4l-0.6-2.1l-0.3-1.1l1.5-0.4l1.7,1.5l0.1,0.1l0.6,0.8l3.9-0.6l3.7-1.3l1,1.1l0.1,0.2
	l3.1,1.3l2.5,0.7l2.4-0.7l0.6,0.1l0.4,0.1l-0.7-1.2l-0.8-1.4l-0.1-4.8l2.6-1.7l0.3,0.2l1.9,1.3l0.5-0.2l1.9-0.9l1.5-6.2l0.2-1.1
	l1.7,0.3l0.6,0l1.4-0.7l0.2-0.1l0.9-0.9l0.7-0.9l2.1-0.3l4.2-1l1.3-0.4l0.8-0.8l0.1-0.1l0.3-1.2l0.1-0.4l0.2-0.5l0.2-0.1l0.4,0
	l0.1,0.2v0.4l-0.1,1.2l0,0.3l2.4,0l1.3-0.3l0.7-0.2l2.2-0.7l1.1-0.6l0.2-0.3l0.4-1.7l0-1.3l-0.1-1.2l0.4-0.8l0.4-0.4l1.5-0.1
	l1.7,0.5l0.2-0.2l0.7-0.3l10.4-3.7l0.4-0.3l0.9-1.1l0.3-0.7l-0.1-1.3l-0.2-0.3l-0.8-0.6l0.5,0.1h0.3l1.2-0.5l0.1,0l1.9-1.7l1-1.4
	l-0.4-4l0.4-0.4l1.9-1.7l0.4-0.2l1,0.2l1.9,1.3l-0.4,0.6l-0.3,0.7l-0.4,1.2l-0.1,0.3l0,0.2l0.1,0.4l1.8,0.5l0.9,0.2l3.9,2.2l0.2,0.2
	l0.2,0.2l0.4,1.1l0,0.4l-0.2,1.7l-0.1,0.2l-0.3,0.3l0,0.5l-0.1,0.7l0.2,0.8l0.2,0.4l0.5,0.6l0.2,0.2l1.2,1.1l1.2,1.2l0.3,0.3
	l0.1,1.2l-0.2,1.2l2.1-0.7l1,0.3l0.5,0.5L197.8,352.3z"/>
<path id="Nordrhein-Westfalen" fill="#005FAB" stroke="#FFFFFF" d="M266.7,274.6l-1,1.7l-3.1,3.7l-2.6,4.2l-3.6,2.8l-3.4,2.8
	l-0.5,0.8l-0.5,0.8l-0.5,0.1l-2.2-0.1l-0.5-0.2l-0.2-0.1l-0.1-0.2l-0.5-1.3l0.6-1.4l-0.9-1.6l-2.3-1l-0.9,0l-1.8,0.4l-1.3,0.4
	l-2.3,1l-0.5,0.5v0.4l0.1,0.5l2,3.3l0.4,0.1l0.2,0.1l0,0.2l0.2,1.1l-0.7,2l-0.1,0l-2.7-0.2l-3.3,0.1l-3,0.8l-4,1.2l-2.4,1.5
	l-0.9,0.6l-0.9,1.1l-2.1,3l-0.5,0.7l1.6,2.3l0.2,0.2l0.2,0.1l0.6,0l0.1,0l0.8-0.5l3.6-1.6l0.6-0.1l0.7,0l0.7,0.9l0.1,0.2l0.6,5.1
	l0.1,1.6L231,313l-0.2,0.5l-2.3,5l-2.5,1l-0.3,0l-0.9-0.2l-0.6-0.2l-1.4-0.2l-2.2-0.1l-0.1,0.1l-1,0.4l-0.1,0.1l-0.6,0.5l-0.4,0.4
	l-0.3,0.5v0.2l0.1,0.2l0.8,2.6l0.5,1.2l0.3,0.7l-0.4,0.6l-0.3,0.3l-0.8,0.7l-1.1,1.2l-0.7,0.7l-0.1,0.1l0,0.2l0.2,0.3l-0.1-0.1
	l-0.5,0l-0.1,0l-0.3,0.2l0,0.1l-0.5,2.1l-3.4,5.2l-0.9,1l-0.1,0.1l-0.4,0.1l-0.1,0l-3.3-1.7l-0.2-0.1l-0.8,0l-0.2,0l-0.2,0.1
	L198,344l0.3,0.8l0.3,0.7l0.6,1.2l0.6,0.9l0.1,0.8l0,0.3l-1.6,3l-0.6,0.8l-0.8-1l-0.5-0.5l-1-0.3l-2.1,0.7l0.2-1.2l-0.1-1.2
	l-0.3-0.3l-1.2-1.2l-1.2-1.1l-0.2-0.2l-0.5-0.6l-0.2-0.4l-0.2-0.8l0.1-0.7l0-0.5l0.3-0.3l0.1-0.2l0.2-1.7l0-0.4l-0.4-1.1l-0.2-0.2
	l-0.2-0.2l-3.9-2.2l-0.9-0.2l-1.8-0.5l-0.1-0.4l0-0.2l0.1-0.3l0.4-1.2l0.3-0.7l0.4-0.6l-1.9-1.3l-1-0.2l-0.4,0.2l-1.9,1.7l-0.4,0.4
	l0.4,4l-1,1.4l-1.9,1.7l-0.1,0l-1.2,0.5h-0.3l-0.5-0.1l0.8,0.6l0.2,0.3l0.1,1.3l-0.3,0.7l-0.9,1.1l-0.4,0.3l-10.5,3.7l-0.7,0.3
	l-0.2,0.2l-1.7-0.5l-1.5,0.1l-0.4,0.4l-0.4,0.8l0.1,1.2l0,1.3l-0.4,1.7l-0.2,0.3l-1.1,0.6l-2.2,0.7l-0.7,0.2l-1.3,0.3l-2.4,0l0-0.3
	l0.1-1.2V354l-0.1-0.2l-0.4,0l-0.2,0.1l-0.2,0.5l-0.1,0.4l-0.3,1.2l-0.1,0.1l-0.8,0.8l-1.3,0.4l-4.2,0.9l-2.1,0.3l-0.7,0.9l-0.9,0.9
	l-0.2,0.1l-1.4,0.7l-0.6,0l-1.7-0.3l-0.2,1.1l-1.5,6.2l-1.9,0.9l-0.5,0.2l-1.9-1.3l-0.3-0.2l-2.6,1.7l0.1,4.8l0.8,1.4l0.7,1.2
	l-0.4-0.1l-0.6-0.1l-2.4,0.7l-2.5-0.7l-3.1-1.3l-0.1-0.2l-1-1.1l-3.7,1.3l-3.9,0.6l-0.6-0.8l-0.1-0.1l-1.7-1.5l-1.5,0.4l0.3,1.1
	l0.6,2.1l0.2,0.4l0.4,0.6l0.6,0.9l-1.2-0.1l0.2-1l0-0.1l-0.4-0.7l-1.9-2.3l-0.1-1.6l0.5-0.8l0.3-0.6l0.4-2l0.1-0.6l-0.1-0.9
	l-0.2-0.4l-1.4-2.3l-0.4-0.6l-0.9-0.6L103,364l-0.2-0.2l-2-0.4l-1,0l-0.1,0l-0.4,0.3l-0.8,0.3l-0.1,0l-0.1,0l-1.6-2.2l-0.3-0.4
	l-0.4-1.3l-0.1-1.2l0.1-0.2l2.6-2.5l0.6-2.9l-2.8-0.7l-0.7-0.9l0.1-0.1l0.9-0.3l-0.6-0.6l-0.4-0.5l-0.8-1.3l-0.2-0.4l-0.1-0.4
	l-1.1-2.7l-0.3-0.2l-0.1-0.1l-3.6-2l-2.1-3.6l1.3-4.1l0.2-0.6l0.8-0.3l0.8-0.2l0.3,0l0.1,0.2L92,335l0.8-2.1l-0.1-0.6l-0.2-0.3
	l-0.2-0.4l-0.1-0.4l0.3-1.2l0.1-0.2l0.3-0.3l0.1-0.2l0-0.3l-0.6-0.3l-1.1-0.4l-1.9-0.7l-0.1-1.1l0.1-1.1l0.5-1l0.2-0.7l0-0.1
	l-0.4-0.1l-3.1-0.3l-2,0.5l-0.7-0.8l-1.1-2.5l-0.5-2.4l0-0.4l0.1-0.1l2.4-1.1l5-1.6l6.3-4.2l0.8-2.3l1.9-0.8l0.3-0.1l-0.8-0.7
	l-0.9,0.3l-1.4,0.6l-0.4,0.3l-0.1,0.2l-0.2,0.2l-0.3,0.1l-0.3,0.1l-0.4,0l-0.2,0l-0.4-0.1l-0.4-0.9l-0.1-2.6l0.9-2.7l5.8-7.3l1.9-2
	l-0.8-2.9l0.5-2.5l0.4-1.3l0.3-1.8l0-0.5l-0.4-3.2l-0.5-1.1l-2.1-3.4l-0.6-0.4l-2.6-3l0.2-0.9l-0.1-3.6l-2.6-1.2l-0.3-0.4l0-0.1
	l-1.5-5l-1.2-5.6l1.2-2l3.5-1.6l1.7,0.1l3.9-0.5l1.6-1l3.9,0.2l0.2,0l0.6,0.3l0.5,0.3l2.4,1.5l1.6,1.3l1,0.6l0.3,0.1l-0.9-2.8l0-0.3
	l0.2-0.7l0.1,0l1.7,0.7l3.9,0l0.7-0.4l1.2-0.6l2.3-0.9l4.6-1.6l0.5-0.1l0.4,0.2l0.3,0.4l1.1,1.1l0,0l0.5-0.2l1-0.6l1-0.7l1-1.1
	l2.1-2.7l0.2-0.5l0-0.2l-0.1-1.1l-0.2-0.6l-3.6-3.1l-1.9-1l1.2-2.8l1.2-2l4.5-1.5l0.4-0.1l0.6-0.6l0.3-0.3l0.3-1.3l0.1-0.6l1.5-1.6
	l6.1-3.8l2-1.2l1.7-0.1l0.6-0.8l0.2-0.2l0.5-0.4l1.7-0.4l2.1,0.2l1,0.1l4,0.2l0.7-0.8l0.3-0.5l0.6-0.1l0.8-0.1l0.8-0.4l0.2-0.4
	l0.3-0.5l0.5-0.4l3-2.2l3.4-2.1l1.4-0.8l0.2,0l0.3,0l1.8-0.9l1.4-2.5l0.1-0.5l-1.1-0.6l-0.5-0.4l0.4-1.2l0.3-0.6l0.5-0.8l0.6-0.8
	l0.2,0.1l3.7,1.4l0.1,0.1l0.2,0.2l0.4,0.9l1.2,3.5l4,2.5l1.8,0.3l1.1-0.5l0.2-0.1l1.3-0.3l2.2,1.4l0.8,1.3l0.6,2l-1.7,1.8l-0.1,0.3
	l0,0.4l0.1,0.5l0.1,0.2l1.1,1.1l-0.8,0.6l-2.2,4.6l0,0.1l0.1,0.6l0.2,0.8l0.2,0.4l1,0.7l0.1,0l1.9,0.4l1.6,1.5l0.2,3.3l-2.5,0.8
	l-2.9,1l-0.7,0.6l0,0.1h0.2l1.1,1.8l0.2,0.8l0.8,0.4l1.4,0.6l0.9,0.3l0.5-0.7l0.3-0.4l1.8-1.4l0.1,0l1.2,0.1l0.8,0.1l0.9,0.2
	l0.2,0.5l1.8-1.1l1.3-0.3l3.2-2.3l1.4-1.3l1.1-0.8l0.5,0.1l2.3,0.5l1.9,0.7l2.4,0.3l-0.2-0.6l-0.1-0.5l0-0.3l0.3-0.4l0.3-0.3
	l1.8-1.2l0.1-0.1l0.5,0l0.3-0.1l0.4-0.2l0.2-0.2l0.8-0.8l0.4-0.5l0.5-0.7l-1-0.5l-1-0.3l-0.3,0l-0.2-0.1l-0.6-0.5l-0.4-0.8l-0.1-0.2
	l0.9-3.5l0.4-0.8l-0.2-2.7l0.1-1.4l-1.2-3.7l-1.7-1.3l-4.2-3.1l-0.5-2.6l-0.4-0.9l0.3-0.2l0.3,0.1l1.9,0.5l0.2,0.2l0,0.2l0.4,0.4
	l2.7-0.2l0.8-0.1l1.2-1l0.1-0.3l0.2-1l0.1-1.1l2.5-1.9l2.5,1.2l4.7-2.4l1.7,1.3l0.6,0.6l0.2,0.5l0,0.2l-0.2,1.1l0.2,6.1l0.1,1.2
	l0.4,0.3l1.5,0.6l5.4-0.1l4.1-0.9l0.2-0.1l2.3-3l1.7-2.2l0.6-1.1l1.3-1.6l1.9,0.4l2.2,1l0.2,0.5l0,0.2l-1.4,3.3l0.7,1.9l-0.1,0.6
	l-0.2,0.4l-1.2,2.4l-0.6,1.2l-0.1,0.1l-0.6,0.5l-0.6,0.4l-1,0.1l-0.8,0.4l-0.8,0.5l-0.5,0.4l-1.8,3.8l0.4,1.2l0.1,0.1l0.2,0.1
	l1.2,0.3l1.6,0.6l2,1.3l-0.1,0.2l-1.6,3.9l-1.2,0l-1.8-1l1.5,2l2.8,2.1l2.8,0.5l0.7,0.3l0.2,0.1l0.4,0.5l0.3,0.8l-0.2,1.8l1.1,1
	l0.7,1.3l-0.1,0.1l-0.4,0.2l-0.4,0.5l0,0.2l0,1.4l0.2,4.9l0.5,1.2l4.5,3.3l0.7,0.4l0.8-0.1l0.1,0l0.3,0l0.8,0.5l0.1,0.1l0.4,0.7
	l0.3,1l0,0.5l-0.1,0.8l-0.4,1.9l-0.2,0.1l0.8-0.5l0.3-0.2l0.5-0.2l0.2,0l0.4,0.1l1.2,0.4l0.4,0.3l1.4,1.4l0,2.7l-1,2.4l-1.4,4.4
	l-0.7,5.8l0.4,0.3l0.2,0.1h0.2l1.3,0l0.1,0l0.4-0.2l0.1,0l0.5-0.2l0.2,0L266.7,274.6z"/>
<path id="Niedersachsen" fill="#C2240C" stroke="#FFFFFF" d="M223.1,114l-0.7-1.7l-0.9-2.4l0-1.6v-1l0.1-0.5l3-9.1l0.4-1.1l0.8-2.1
	l1.7-2.3l0.7-0.6l1.4-0.4l1-0.3l0.9-0.1l0,0.4l0.1,0.2l0.1,0.2l1.2,1.4l2.3,1.7l0.8,0.5l0.5,0.2l0.6,0.2l1.2,0.2l4,0.3l1.3-0.3
	l0.2-0.1l0.1-0.1l0-0.1l0.2-0.1l1.7-0.4l0.4,0l1.7,0.4l-0.4-0.5l-0.6-1.6l-0.3-1l0.6-0.3l0.7-0.2l0.7-0.1l0.8,0l2.5,0.2l2.9,0l1.7,0
	l1.5,0.2l2.8,1.2l1.4,1l1.9,2.7l0.4,0.8l1.5,3.1l0.6,1.5l0.6,1l0.5,0.7l0.7,0.6l1.9,1.4l0.8,0.9l0.3,0.5l0.6,1.5l0.3,0.8l0.1,0.4
	l0.1,1.3l0.3,1l0.3,0.7l0.3,0.5l1.8,1.4l4.3,2.8l1.3,0.4l1.3,0.1l2.1,0.3v2.3l-0.2,1.8l0.7,0.7l0.8,1.8l0.1,0.5l2.7,2.8l0.2-0.1
	l0.7-0.5l1-1.1l0.2-0.1l0.3,0.2l0.6,0.7l1.7,1.6l1.3,1.1l0.3,0l2.2-1.7l0.1-0.7l0.5-1l0.4-0.6l1.4,0.8l0.4,0.5l0.3,0.4l1.4,1.6
	l2,1.9l0.4,0.2l0.3,0.1l2.6,0.1l0.3,0l0.1-0.1l0.2-0.2l0.5-1.2l0.2-0.2l0.2-0.2l0.3-0.2l1.8-1l0.2-0.1l0.1,0l1.3,0.7l4.7,2.1l1.9,1
	l0.7,0.5l0.7,0.4l0.5,0.2l3.3,1l0.4,0l0.3-0.1l0.3-0.2l0.1,0l0,0l0.5-0.3l0.5-0.2l0.8-0.1l3.2,0l0.2,0.1l0.2,0.1l0.8,0.6l0.5,0.5
	l1,1.2l0.4,0.5l0.3,0.4l0.9,0.8l0.5,0.3l2.1,0.8l0.7-0.4l0.9-0.6l0.9-0.6l0-0.2l0-0.1l0.3-0.6l1.1-0.9l2.1,0.5l1.4,0.4l1.9,4.4
	l1.8,3.5l0.9,1.2l0.5,0.5l2.3,1.7l0.9,0.2l0.7,0.2l0.4,0l0.6,0.3l0.1,0.2l0,0.3l-0.2,0.7l-0.1,0.2l-0.4,0.4l-0.4,0.2l2.8,1.1
	l0.5,0.2l0.5,0.3l0.7,0.8l0.2,0.2l0.1,0.3l0,1.2l0,0.3l0.1,0.2l0.9,1.1l2.4,2.4l0.2,0.1l0.2,0l0.4,0l1.4-0.7l0.8-0.6l0.2-0.1
	l0.3-0.1l1.6-0.5l0.3,0l0.4,0l0.3,0.2l0.3,0.2l0.6,0.6l0.9,1l0.4,0.3l0.5,0.2l3.5,0.8l0.5,0l0.1,0.1l0,0.1l-2,2.9l0,0l-0.6-0.1
	l-0.5-0.3l-0.3-0.4l-0.1,0l-0.7,0.1l-0.3,0.6l-0.2,0.8l-0.5,2.6l0.6,1.5l-0.7,0l-1,0.2l-0.9,0.5l-1.4,1.4l-0.7,0.9l-0.1,0.1
	l-4.5,2.2l-0.9,0.2l-2.5-0.3l-0.3-0.1l-0.1-0.1l0-0.1v-0.2l-0.1-0.3l-0.3-0.3l-0.6-0.6l-3.1-0.6l-7.4-0.3l-0.3,0l-0.2,0.1l-0.3,0.3
	l-0.1,0.5l0,0.6l0.1,0.4l0,0.1l-0.2,0.3l-2.3,2.5l-4.8,0.1l-2.1,0.4l-1.6,0.5l-0.4,1.7l0,0.2l0.2,1.8l-0.1,0.5l-0.1,0.5l2.1,5.7
	l2.1,1.5l3,4.2l2.2,4.3l0,0l-0.1,1.7l0.3,1.1l0.3,0.6l0.6,1l1,1.3l1.5,1.7l-1.4-0.1l-1.8,1l-0.5,1.2l0.7,1.5l3.6,4.6l1,0.6l0.3,0
	l0.2,0.1l0.6,0.5l0.5,0.5l0,0.3l0,1.1l0,0.1l-0.6,0.5l-0.9,0.4l-0.1,0l-0.4-0.1l-1,1.4l0.3,3.3l0,0.1l1.1,1.3l1.1,1.1l1.1,1.6
	l0.3,0.8l0,0.1l0,0.1l-0.5,0.6l-0.9,0.2l-0.6,0.1l-0.8,0.4l-0.3,0.2l-0.2,0.4l-0.3,0.8l-0.1,0.6l0.1,0.3l0.1,0.2l0.1,0.2l0.3,0.2
	l0.5,0.3l0.4,0l0.7-0.1l0.1,0l0,0.1l0.1,0.3l0,1.2l-0.1,0.2l-0.9,1.4L346,236l-1.6,1.2l-0.3,1.5l-0.2,2.5l-0.1-0.1l-1.4-0.1
	l-2.7,0.1l-0.4,0.1l-0.7,0.5l-0.3,0.1l-1.1,0.2l-1.5,0.1l-0.8-0.2h-0.2l-4,0.1l-0.8,0.2l-1.5,0.5l-0.1,0.8l0.1,0.4l0,0.2l0,0.1
	l-1.4,1.4l-3.4,0.4l1.3,1.9l3,2.2l-1,0.3l-0.6,0.9l0,0.1l0,1.3l0.7,0.3l0.6,0.3l0.4,0.5l0.1,0.2l0.1,0.5v0.6l-0.1,0.3l-0.8,1.3
	l-0.1,0.1l-0.3,0l-0.3,0.1l-1.7,1.4l-0.3,0.4l-0.1,0.4l0,2.8l0.2,2.3l0.6,1.2l0.8,0.5l2.4,3.6l0.7,1.8l-0.2,0.4l0.1,0.7l0.2,1
	l0.1,0.3l1,1.6l0.2,0.3l0,0l0.3,0.1l-0.1,0.1l-0.9,0.1l-0.2,0L328,280l-0.7,1.4l-3.6,0.9l-1.9,0.2l-0.5-0.2l-1-1.4l-0.3-0.2
	l-0.6-0.4l-0.3-0.2l-1.2-0.5l-0.7-0.2l-0.2,0l-1.9,0.5l-0.6,0.9l-0.7,1.5l0.3,0.2l0,0.1l-0.2,0.6l-0.1,0.3l-1.2,1.8l-0.1,0.1
	l-2.1,1.7l-6.4,4.3l-4.2,0.9l-5.3,3.1l-2.5,1.7l-0.4,0.1l-0.2,0.1l-0.2-0.1l0.3-0.2l0-0.1l0-0.9l-0.3-0.5l-1-1.6l-0.2-0.1l-2.5,0.3
	l-2.6,0.4l-0.1,0l-0.3,0.2l-3.5,3l-0.9,1.2l1.4,2.2l1.4-0.7l0.4,0l0.1,0.1l0.1,1.1l-0.1,0.4l-0.2,0.9l-1.9,1l-0.1-0.2l-2.7-1.3
	l-4.2-1.8l-1.4-0.4l-0.5-0.9l-0.4-0.6l0.1-0.3l0.4-1.6l0.2-0.3l0.9-1.3l0.4-0.1l1.3-0.2l1,0l0.6-0.9l0.1-0.2l-0.6-3.4l-0.3-1.3
	l-0.4-0.5l-1.6-2.8l0-0.1l0-0.1l0.1-0.3l1.9-2.2l1.2-0.2l0.1-0.3l0.5-0.6l0.6-0.5l0.5,0.2h0.1l0.1-0.1l0.3-0.7l-0.1-0.3l-0.1-0.2
	l-0.7-0.4l-0.6-0.5l-1.1-1.2l-0.1-0.1l-2.7-1.4l-0.8,0l-2.5,0l-0.6-0.1l-0.6-0.4l-0.2-0.3l0-0.3l0.2-0.7l0.2-0.4l0-0.3l-0.1-0.2
	l-0.2,0l-2.6,0.6l-0.1-0.1l-0.2,0l-0.5,0.2l-0.1,0l-0.4,0.2l-0.1,0l-1.3,0h-0.2l-0.2-0.1l-0.4-0.3l0.7-5.8l1.4-4.4l1-2.4l0-2.7
	l-1.4-1.4l-0.4-0.3l-1.2-0.4l-0.4-0.1l-0.2,0l-0.5,0.2l-0.3,0.2l-0.8,0.5l0.2-0.1l0.4-1.9l0.1-0.8l0-0.5l-0.3-1l-0.4-0.7l-0.1-0.1
	l-0.8-0.5l-0.3,0l-0.1,0l-0.8,0.1l-0.7-0.4l-4.5-3.3l-0.5-1.2l-0.2-4.9l0-1.4l0-0.2l0.4-0.5l0.4-0.2l0.1-0.1l-0.7-1.3l-1.1-1
	l0.2-1.8l-0.3-0.8l-0.4-0.5l-0.2-0.1l-0.7-0.3l-2.8-0.5l-2.8-2.1l-1.5-2l1.8,1l1.2,0l1.6-3.9l0.1-0.2l-2-1.3l-1.6-0.6l-1.2-0.3
	l-0.2-0.1l-0.1-0.1l-0.4-1.2l1.8-3.8l0.5-0.4l0.8-0.5l0.8-0.4l1-0.1l0.6-0.4l0.6-0.5l0.1-0.1l0.6-1.2l1.2-2.4l0.2-0.4l0.1-0.6
	l-0.7-1.9l1.4-3.3l0-0.2l-0.2-0.5l-2.2-1l-1.9-0.4l-1.3,1.6l-0.6,1.1l-1.7,2.2l-2.3,3l-0.2,0.1l-4.1,0.9l-5.4,0.1l-1.5-0.6l-0.4-0.3
	l-0.1-1.2l-0.2-6.1l0.2-1.1l0-0.2l-0.2-0.5l-0.6-0.6l-1.7-1.3l-4.7,2.4l-2.5-1.2l-2.5,1.9l-0.1,1.1l-0.2,1l-0.1,0.3l-1.2,1l-0.8,0.1
	l-2.7,0.2l-0.4-0.4l0-0.2l-0.2-0.2l-1.9-0.5l-0.3-0.1l-0.3,0.2l0.4,0.9l0.5,2.6l4.2,3.1l1.7,1.3l1.2,3.7l-0.1,1.4l0.2,2.7l-0.4,0.8
	l-0.9,3.5l0.1,0.2l0.4,0.8l0.6,0.5l0.2,0.1l0.3,0l1,0.3l1,0.5L220,231l-0.4,0.5l-0.8,0.8l-0.2,0.2l-0.4,0.2l-0.3,0.1l-0.5,0
	l-0.1,0.1l-1.8,1.2l-0.3,0.3l-0.3,0.4l0,0.3l0.1,0.5l0.2,0.6l-2.4-0.3l-1.9-0.7l-2.3-0.5l-0.5-0.1l-1.1,0.8l-1.4,1.3l-3.2,2.3
	l-1.3,0.3l-1.8,1.1l-0.2-0.5l-0.9-0.2l-0.8-0.1l-1.2-0.1l-0.1,0l-1.8,1.4l-0.3,0.4l-0.5,0.7l-0.9-0.3l-1.4-0.6l-0.8-0.4l-0.2-0.8
	l-1.1-1.8h-0.2l0-0.1l0.7-0.6l2.9-1l2.5-0.8l-0.2-3.3l-1.6-1.5l-1.9-0.4l-0.1,0l-1-0.7l-0.2-0.4l-0.2-0.8l-0.1-0.6l0-0.1l2.2-4.6
	l0.8-0.6l-1.1-1.1l-0.1-0.2l-0.1-0.5l0-0.4l0.1-0.3l1.7-1.8l-0.6-2l-0.8-1.3l-2.2-1.4l-1.3,0.3l-0.2,0.1l-1.1,0.5l-1.8-0.3l-4-2.5
	l-1.2-3.5l-0.4-0.9l-0.2-0.2l-0.1-0.1l-3.7-1.4l-0.2-0.1l-0.6,0.8l-0.5,0.8l-0.3,0.6l-0.4,1.2l0.5,0.4l1.1,0.6l-0.1,0.5l-1.4,2.5
	l-1.8,0.9l-0.3,0l-0.2,0l-1.4,0.8l-3.4,2.1l-3,2.2l-0.5,0.4l-0.3,0.5l-0.2,0.4l-0.8,0.4l-0.8,0.1l-0.6,0.1l-0.3,0.5l-0.7,0.8l-4-0.3
	l-1-0.1l-2.1-0.2l-1.7,0.4l-0.5,0.4l-0.2,0.2l-0.6,0.8l-1.7,0.1l-1.1-1.3l-0.5-1.3l-0.1-0.6l-0.1-0.7l0-0.4l1.1-2.5l0.5-1.2l0.8-1.1
	l0.1-1.7l-0.4-1.5L145,205l-0.1-0.1l-0.2-0.2l-0.5,0.3l-0.4,0.8l-0.4,0.9l-0.8,0.5l-0.3,0.1l-8.3-2.3l-1.1-0.4l-2.7-2l0-0.2l0.3-1.6
	l0.2-1l0.6-2.3l0.3-3.3l-0.3-3.2l1.7-1.4l0.8-0.3l1.3-0.2l0.3,0l5.2,0.3l4.2,0.7l1,0.3l0.1,0.2l0,0.1l0.3,0.2l1.4,0.4l0.1,0l0.2-0.2
	l0.5-0.7l0.7-5.7l0.3-3.3l0.4-4.6l0.9-3.2l1.7-2.3l3.3-5l1.1-3.4l0.4-1.4l0.2-0.9l-0.4-5.5l0.3-2.7l-0.9-0.7l-0.1-0.7l0-0.7l0.7-1.9
	l0.6-1.1l0.7-1.6l0.3-4.4l0.9-3.8l0.5-1.7l0.1-0.2l0.1-0.1l0.4-0.2h2.3l-0.3-0.1l-1.8-0.5l-1-0.2l-0.7-0.1l-2.5-0.2l-5.6-0.2
	l-1.6-0.2l-0.3-0.2l-0.2-0.3l-0.6-1.1l-0.1-0.4l0.1-0.2l0.8-1.3l0.1-2.1l1.3-10.2l2.7,1.2l0.8,1.1l1.5-1.5l0.8-0.9l-0.8-1.4
	l-0.5-0.3l-1.3-0.9l-0.4-0.5l0.2-0.7l3.7-3.8l1-1l2.2-1.6l0.9-0.6l2.2-0.8l1.1-0.2l1-0.1l1.3-0.1l6,0.5l0.3,0.1l0.5,0.3l0.1,0.2
	l0.4,0.3l0.6,0.3l0.4,0l1.4-0.3l3.1-1l3.4-1l0.3-0.1l0.5-0.1l0.4,0l0,0.1l0.5,0.1l0.9,0l1-0.1l2.5-0.8l4.9-0.4l2.5,0.3l2.3,0.4
	l0.8,0.4l0.2,0.2l0,0.4l-0.1,0.2l-0.4,0.5l-0.1,0.6l0.3,1.8l0.2,0.7l0.4,1.1l2.3,0.3l0.2,0.3l0.4,0.6l0.5,0.9l2.7,6.3v0.1l0,0.3
	l-0.1,0.3l-0.2,0.7l-0.2,0.5l-0.7,0.4l-0.7,0.3l-1.7,0.6l-0.3,0.1l-0.7,0l-0.8-0.6l0.1,1.6l0.1,0.7l0.1,0.4l0.2,0.5l0.2,0.5l0.5,0.6
	l0.6,0.7l0.3-0.1l0.7-0.4l0.1,0l0.7,0l0.6,0.2l0.8,1l1,1.4l0.5,0.8l0,0.1l0,0.2l0.2,0.3l0.1,0.1l0.5,0.2l0.9,0.2l0.6,0.1l0.3,0
	l0.5-0.3l0.4-0.3l0.1-0.2l0.5-0.6l0.5-0.6l0.4-0.7l0.6-1.4l0.3-0.6l0.1-0.6l0.2-3l-0.1-1.2l-0.1-0.2l-0.2-0.4l-0.1-0.1l-0.3-0.2
	l-1.3,0.5l-0.4,0.1l-1.7-0.3l0.4-3.3l0.2-1.3l0.1-0.2l0.3-0.7l0.3-0.4l0.7-0.7l0.7-0.6l1-0.4l1,0.1l1.1,0.7l0.3,0.5l0.6,1.1l0.7,1.1
	l0.9,0.5l3,1.3l0.2,0l0.3,0l0.4,0l1.1,0.2l0.6,0.1l1.5,0.9l0.1,0.1l0.1,0.2l0.1,0.8l0,0.1l-0.1,0.1l-0.3,0.2l0.3,0.4l1.1,1.4v0.1
	l0,0.2l-0.3,0.4l0.1,0.2l0.3,0.2l1.5,0.2l0.1,0l2-2.2l0.1-0.4l-0.7-3.1l0.9-4l-0.1-0.1l-1.3-0.2l-4.3-0.2L223.1,114z M245.1,153.7
	l-0.2-0.5l-1.1-1.3l-0.5-0.4l-0.3,0l-0.9,0.6l-3.8-0.1l-3-1.5l-3.4-1.7l-5.2-0.6l-6-3.2l-0.2-0.7l0-0.5l0,0.6l0.2,1l0.3,0.7l0.3,0.4
	l0.6,0.9l1.2,1l1.9,0.9l0.6,0.3l0.7,0.1l0.6,0.2l0.3,0.2l0.2,0.4l1.3,3.3l0.1,1.1l0.7,0.5l1.6,1.7l0.4,0.5l0.1,0.5l0.1,2.1l0.4,0.4
	l0.4,0.4l0.2,0.1l0.8-0.3l0.3-0.1l1.1,0l4.3,1.5l2.5,1l2.6-2.2l0-1.6l-0.3-3.8l-0.6-1l0.1-0.1l0.1-0.1l0.8-0.3L245.1,153.7z"/>
<path id="Mecklenburg-Vorpommern" fill="#009542" stroke="#FFFFFF" d="M338.8,85.7l3.6-2.5l2.4-1.4l0.8-0.3l0.3-0.1l1.7-0.4l0.5,0
	l3.9-0.2l0.2,0.1l0.3,0.3l2.7,3l-0.2,1.5l0,0.4l0.3,0.6l0.5,0.4l0.5,0.3l0.4,0.1l0.4,0l0.1-0.1l0.9-0.6l0.4-0.3l0.1-0.2l1.3-0.3
	l1.9,0.8l1,0.5l-0.1,0.7l0.1,0.2l0.5,0.4l1.1,0.6l0.6,0.3l1.2-2l0.3-0.8l0.5-4.5l0.7-1.5l0.1-0.2l0.3-0.3l1.4-0.8l0.7-0.2l0.3-0.2
	l0.4-0.4l0.1-0.2l2.2-3.4l0.1-0.9l0-0.2l-0.5-0.8l-0.2-0.2h-0.2l-0.2,0.2l-1,1l-0.5,0.8l-0.6,0.8l-0.6,0.7l-1.4,1.7l-0.1,0l-0.1-0.1
	l-0.1-0.7l0-0.4l0.1-0.4l0.5-1L370,74l6-5l0.2-0.1l0.4,0l0.4,0l2.7-0.1l0.1,0l0.5,0.2l0.6,0.2l0.8,0.2l0.9,0.1l0.8,0l0.7-0.1
	l0.4-0.1l1-0.3l5.6-2.2l3.3,0.5l2.3,0.3l1.2-2.7l1.6-3l0.3-0.4l0.8-0.7l1.3-0.9l2.8-1.7l0.9-0.6l0.4-0.3l0.4-0.3l0.5-0.5l0.4-0.5
	l0.5-0.7l3.4-6.3l2.2-4.3l1.8-3l1.4,1.1l0.7,0.3l0.4,0.1l3.2,0.4l2.8,0.3l5.8-0.2l3.4-0.2l1-0.1l1.4,0l1.1,0.1l0.1,0.1l0.1,0.1
	l0,0.2l-0.1,0.1l-2,1.4l-0.3,0.2l-1.5,0.4l-3.4,0.3l-2.3,0.1l-0.8-0.1l-0.1,0l-0.2-0.2l-0.4-0.5l-0.2-0.5l-0.2-0.1h0l-1.2,0.1
	l-2.6,0.7l-2.5,1.6l-7.1,2.6l-0.7,0.6l-2.2,5.1l-0.2,1.5l0,2l0,0.1l1.8,1.2l0.8,0.3l0.9,0.1l0.8-0.1l0.3-0.2l0-0.2l-0.2-0.2
	l-0.3-0.1l-1-0.2h-0.4l-0.1-0.1l-0.5-0.9l-0.1-0.7l0.4-0.8l2.5-2.9l3.7-2.9l4.8-2.3l4,0.8l3.7,1.7l1.6-0.3l0.3-0.2l1.1-1l0.2-0.2
	l0.2-0.3l0.1-0.4l0-0.8l0.5-1.2l0-0.1l1.1-1l0.2-0.2l3-1.1l1.8,0.2l3.3,4.8l-0.6,1.4l0.1,0.6l1.4,4.5l2,2.2l1.4-0.8l0.6-0.3h0.1
	l4.9,2.3l0.1,0.1l0.3,0.6l1.3,2.6l0.2,0.5l0.2,0.3l0.1,0.1l0.1,0l0.2,0.5l1.8,0l1.8,0.7l0,0.1l-1.3,1.2l0.1,0.5l0.2,0.2l0.2,0
	l0.4-0.3l0.2-0.2l0.2,0l1,0.6l0.1,0.1l0.1,0.2l0.5,1.1l0,0.7l0.1,0.2l0.9,1.5l0.3,0.3l0.3,0.1l1.2,0.2l0.2,0l0.2-0.1l0-0.1l-0.1-0.2
	l-0.3-0.5l-0.4-0.5l-0.5-1.2l0-0.2l0.7-0.6l0.3-0.1l7-2.3l2.8-0.9l3.1,3.1l0.5,0.6l0.4,0.7l0.2,0.5l0,0.3l0,3.3l2.6,5.4l3.1,3.3
	l0.6,0.8l0.3,0.5l0.1,0.3l0,0.2l-0.3,0.5l-0.3,0.3l-0.1,0.1l-0.1,0l-0.3,0l-0.3,0.1l-0.3,0.2l-0.6,0.7l-1.4,1.7l-1.2,1.7l0.1,0.3
	l0.5,0.9l0.2,0.1l4.6,2.9l1.6,1.2l1.3,1.1l0.3,0.1l5.4,1.9l1.1,0.3l0.8,0.1l2.7,0.1l0.3,0l0.2-0.1l0.9-0.8l0.7-0.8l0.3-0.5l0.1-0.1
	l0.3,0l0.5,0.1l0.3,0.1l0.7,0.6l0.3,0.9l0.9,4.6l1.6,5.1l0.3,3l-0.3,2.3l0,0.1l0.2,0.8l0.6,1.6l0.7,1.7l0.1,0.1l1.3,1.8l0.3,1.8
	l1,3.9l2,5.9l0.2,0.6l-0.4-0.1l-0.2,0l-4,1.7l-0.1,0.7l-0.5,1.4l-1.6,2.3l-0.6,0.2l-2,0.3l-4.6-0.2l-0.9-0.1l0.1-1l0.1-0.4l0.4-0.6
	l1.3-1.5l0.6-0.5l0.8-0.9l0.9-1l0.6-0.8l0.8-1.3l0.3-0.8l0.1-0.4l0.4-1.6l0-0.4l-0.2-2.3l-0.3-0.5l-0.6-0.4l-5.1-0.3l-0.6,1.1
	l-3.1,0.1l-2.1-0.3l-2.7,0.5l-0.5,0.2l-1.3-0.5l-1.2-2.5l-0.8-2.6l-4-4.6l-0.4,0.1l-0.3,0.5l-0.1,0.3l-0.2,1.5l0,0.3l0.1,1.1l1.1,1
	l-2.2,1.9l-2.1,0.2l-1.4,1.1l-0.8,0.7l-5.3,5l-0.2,0.4l-0.9,2.3l-0.4,1.3l0.2,1l0.2,1.4l0,0.1l-0.1,0.1l-1.7,2.3l-3.8,4l-0.6,0.2
	l-0.3-0.1l-0.9-1.3l-0.1-0.7l-0.1-0.2l-0.3-0.4l-0.2-0.1l-2.8,0l-0.9,0.4l-1.5,1.3l-0.3,0.4l-0.2,0.6l-0.1,1l0,0.4l-0.1,0.5
	l-0.4,0.7l-1.2-0.2l-0.1-0.2l-0.7-1.4l-0.2-0.5l-0.2-0.5l-1.5,0.2l-0.1,0l-1.8,0.9l-0.3,0.3l-5.6,6.1l-0.2,0.1l-0.1,0l-1.7-0.7
	l-0.1-0.1l0-0.1l0.2-0.3l0.7-0.6l0.8-0.5l0-0.1l-0.2-0.4l0,0l-0.5-0.2l-5.8,0.2l-1.4,0.5l-0.1,0.1l0,0.1l-0.9,0.4l-0.7,0.2l-0.9-0.1
	l-0.3-0.5l-2-2l-2.7-2.5l-0.6-0.1l-6.1-0.6l-1.4,0.3l0,0.4l-0.2,0.2l-2.6,0.3l-2-2.2l-0.4-1.1l-0.8-0.6l-1.5-0.8l-0.6-0.3l-0.5-0.1
	l-0.4-0.3l-1.6-0.5l-3.1-2.4l-0.3,0l-4.4,0.9l-1.2,0.4l-1.4-0.2l-1.2-0.2l-1.7,2.4l0.1,1.4l-0.3,0.4l-3,2.1l-0.3,0.2l-4,1.5
	l-2.6,0.2l0.9,1.5l0.1,0.3l0,0.1l-0.2,0.2l-4.4,1l-0.5,0.1l-0.6-1.2l-1.4-0.8l-0.8-0.1l-2.2,0l-0.5,0.3l-3.1,2.8l0.5,3.3l-0.5,2
	l-0.3,0.8l-0.7,0.5l-1.2,0l-1.3-0.2l-0.5-0.2l0-0.2l-0.6-0.5l-2.7,0.3l-2.2,1.7l-4.5-0.3l-0.1-0.3l-0.2-0.2l-0.7-0.8l-0.5-0.3
	l-0.5-0.2l-2.8-1.1l0.4-0.2l0.4-0.4l0-0.2l0.2-0.7l0-0.3l-0.1-0.2l-0.6-0.3l-0.5,0l-0.7-0.2l-0.9-0.2l-2.3-1.7l-0.5-0.5l-0.9-1.2
	l-1.8-3.5l-1.9-4.4l-1.4-0.4l-2.1-0.5l-1.1,0.9l-0.3,0.6l0,0.1l0,0.2l-0.9,0.6l-0.9,0.6l-0.7,0.4l-2.1-0.8l-0.5-0.3l-0.9-0.8
	l-0.3-0.4l-0.4-0.5l-1-1.2l-0.5-0.5l-0.8-0.6l-0.2-0.1l-0.2-0.1l-3.2,0l-0.8,0.1l-0.5,0.2l-0.5,0.3l1.4-6.5l0.5-1l0.8-0.5l0.4,0
	l0.5,0.2l1.1,0.2l3.1-2.3l0.2-0.3l0.8-0.9l1.7-2l5.2-6.9l0.3-1.9l1.1-1.6l-0.6-3l-1.1-1.2l-0.7-0.3l-0.9-0.2l-0.1,0l-0.2,0.1l0,0.1
	l-0.3,0.1l-1,0.1l-0.2-0.1l-1.2-0.7l-3-3l0.3-2.5l0.1-1.2l-0.1-0.4l-0.3-0.7l-0.2-0.3l-0.8-2l0-1.4l1.1-1.8l4.2-2.9l2.1,0.2l0.8-1.7
	L338.8,85.7z M451.3,23.7l-0.5,0.3l-1.4,1.1l-1,1.2l-0.2,0.3l-2.4,5.9l-0.1,0.2l-0.1,0.7l0.1,0l0.4-0.1l0.2-0.2l2.4-2.3l0.5-1.3
	l-0.1-0.5l-0.2-0.7l0-0.1l0-0.1l1.3-1.9l0.8-0.2l0.1,0l0.2,0.3l0.1,1l0,0.2l-0.1,0.5l-0.3,0.8l-0.6,1.1l-0.2,0.3l-0.2,0.5l-0.3,1.6
	l0,0.8l2.2-1.1l1.7-1l5.4,2.2l0.1,0l0.1,0l1.5-0.2l1.5-0.6l0.1,4.1l-0.1,2.2l-0.1,0.1l-0.3,0l-1.3,0l-2.1-0.7l-0.6-0.3l-3.2-1.9
	l-0.2-0.2l0-0.3l0.3-2.5l-2.5,0.1l-2.7,0.1l-0.9,0.2l-2.6,0.8l-0.7,0.4l0.5,2.1l0.4,0.7l1.6-0.1l1.3,0.1l2,1.8l-0.7,1.3l-0.2,0.1
	l-1.8,0.6l-0.9,0.2l-1,0.2l-0.9,2.1l0,0.4l0,0.1l0.3,0.2l4.2,0.9l0.5,0.1l-1.2,0.7l-4.7,2.3l-0.1,0.2l-0.1,0.3l-0.4,2l0,0.8l1.3,4
	l0.1,0.2l12.4,4.1l1-0.8l0.2-0.3l0.1-0.2l0-0.1l-0.1-0.5l-0.3-0.7l-0.7-0.8l-0.1,0h-0.4l-0.1,0.2l-0.1,0.1l0,0.2l0,0.1l-0.5,0.4
	l-0.6,0.3l-0.3,0l-0.3-0.3l0-1l3.3-3.5l2.6-2.5l0.8-0.6l0.3-0.1l8-1l0.3,0.1l1.1,1.8l0,0.1l0,0.4l-0.1,0.3l-0.1,0.1l-0.6,0.5l-0.1,0
	l-0.8,0.4l0,1.2l1.7-0.4l0.7-1.4l1-2l-0.6-1.3l-1.4-2.3l-1-0.8l-1-0.7l-0.1,0.1l-0.2,0.1l-0.5,0.1l-1,0.1l-0.2,0l-0.2-0.1l-0.3-0.3
	l-0.8-1l-0.9-1.7l-0.2-0.5l-0.3-0.9l-0.1-1.2l0.1-0.4l0.2-0.3l0.1-0.2l0.1-0.1l1.3-1.4l1.7-1.4l0.4-0.2l0.2,0l0.5-0.4l0.5-0.9
	l0.1-0.8l-0.2-1.7l-0.3-0.4l-0.5-0.5l-1.1-0.7l-0.2-0.1h-0.4l-1.4,0.1l-0.3,0l-1.8,0.4l-0.3,0.1l-1.6,0.5l-2.3,0.4l-0.5,0l-0.8-0.2
	l-0.3-0.1l-0.4-0.3l-0.2-0.2l-0.7-0.7l-0.6-0.8l-0.4-0.9l-0.3-1.2l-0.1-0.7l0-0.3l0.3-0.8l0.3-0.4l0.1-0.1l0.4-0.2l0.3-0.1l0.3,0
	l0.2-0.1l0.3-0.3l0.2-0.4l0.3-1.1l0-0.1l-0.3-0.4l-0.2-0.2l-2.4,0.2l-3.6,1L451.3,23.7z M441.3,41.4l0.1,0.3h0.1l0.1-0.2l0.1-0.6
	l0.9-4.9l0.6-3.1l1.8-0.9l-2.4-0.8l-1.4,8.3l-0.1,0.8l0,0.4l0.1,0.3L441.3,41.4z M445.2,42.6l3.4-1.9l0.4-0.3l0.1-0.1l-0.2-0.7
	l-0.2-0.3l-1-0.5l-0.2-0.1l-0.5-0.1l-0.5,0.1l-0.5,0.4l-0.7,0.9l-0.1,0.3l-0.8,2l0,0.5l0,0.1l0.1,0.1L445.2,42.6z M437.6,43.4
	l-0.1,0l-0.2,0l-0.1,0.1l-0.2,0.1l-0.1,0.1l0,0.1l0.2,0.2l0.2,0.2l0.5,0l2.6-0.9l0.5-0.5l0.3-0.3l-0.4-0.4l-0.2,0l-2.3,0.9l-0.3,0.3
	l-0.4,0.5L437.6,43.4z M478.4,64.1l-0.4-0.4l-0.2-0.1l-0.4-0.1l-0.3,0l-0.5,0.1l-0.6,0.3l-0.4,0.3l-0.1,0.2l-0.1,0.3l0,1.1l0.3,0.8
	l0.2,0.2l1.6,1.8l0.2,0.1l0.4,4l3,4.6l0.1,0.1l0.1,0.1l0.2,0l3-1.5l0,0l0.3-0.9l0-0.1l-1-1.5l-0.3-1.3l0,0l0.1-0.1l2.8,0.2l1.2,1.1
	l2.1,2.4l0.2,0.3l0.2,0.3l0.3,0.9l-0.1,4.1l-2.9-0.5l-0.6-1.2l-0.5-1.6l-0.1-0.1l-0.4-0.2l-0.6-0.1l-1.5,0.4l-0.1,0l-0.1,0.1
	l-0.3,0.6l-0.1,1.1l0,0.2l0.1,0.3l0.2,0.2l1,1.2l0.3,0.7l0.6,1.8l0,0.4l-0.3,0.9l-0.3,0.7l-0.2,0.2l-0.8,0.5l-1,0.5l-1,0.5l-0.3,0.1
	l-0.3,0l-0.2,0l-0.6,1.2l0.6,0.6l0.9,0.4l1.1,0.3l0.8-0.1l2.1-0.4l2.2-0.6l0.3-0.1l3.3-1.7l6-0.6l0.3,0l0.2,0l1.1-4.8l-3.1-2.6
	l-3.4-3.1l-4.1-3.9l-0.9-0.5l-1.2-0.6l-0.3-0.1l-0.3-0.1l-0.8-0.1l-0.8-0.3l-1.5-0.8l-0.4-0.3l-0.9-0.7l-0.9-0.9l-0.6-0.7l-0.2-0.3
	L478.4,64.1z"/>
<path id="Hessen" fill="#FFDD00" stroke="#FFFFFF" d="M291.4,297.1l-0.2,0.7l0.1,0.8l0.5,1.7l1.1,2.7l1,1.2l2.7,1l1.5,0.6l0.7,2.3
	l3.6,1.8l1.3,0.4l0.7,0.4l0.5,0.4l1,1l1,0.2l0.2,0.5l-0.3,0.6l-0.5,0.4l-0.3,0.1l-0.3,0.2l-0.3,1.1l0,0.2l0.3,0.4l0.2,0l0,1.4l0,0.6
	l-0.1,0.2h-0.5l-0.3-0.6l0,0l-0.2-0.4l-0.3-1.1l-0.8-0.9l-2.1,0.5l-0.4,0.5l0.1,0.2l1.1,2.3l0.5,1l0.2,3.4l1.4,0.5l0.7,0.5l0.2,0.2
	l0.4,0.4l0.4,0.7l-0.1,0.4l-0.5,0.9l0.1,0.2l-0.4,0.5l-0.2,0.1l-0.4,0.2l-0.1,0l-0.2,0.1l-1.4,0.2l-0.3,0l-0.4-0.1l-0.2-0.2
	l-0.2-0.3l-1-0.6l-1.8-0.3l-1.1-0.1l-0.7,0.1L297,327l-0.1,0.1l-0.1,0.2l-0.5,1l1.2,3.8l0.8,4.7l0,0.6l-1.3,3.3l-0.6,0.9l-1.1,0
	l-1.3-0.2l-0.4,0.3l-0.9,0.7l-0.1,0.3l-0.3,1.4l0,0.4l0.3,0.6l0.1,0.8l0,0.4l-0.1,0.1l-0.2,0.1l-1.1,0.3l0.7,0.9l0.1,1.2v0.3l-0.4,1
	l-1,2.1l-1.1,1.4l-0.5,0.8l-0.2,0.4l-0.1,2.1l0.1,0.7l2.6,0.5l0.9,0.1l0.7-0.2l0.4-1l-1-1.2l0-0.5l0.2-0.3l1.9-0.8l0.4-0.1l1.7,0.1
	l1,0.1l0.2,0.2l0.6,1.1l0.6,1.6l-1.4,1.2l-0.2,0.2l-0.3,0.5l-0.1,0.3l0.2,7.7l0,0.6l-0.2,1.3l-0.4,1l-0.7,1.1l-2.8,3l-1.3,0.7
	l-1,0.8l-0.9,0.6l-1,0.4l-1.2,0.1l-1.8-0.7l-0.6-0.5l-2.8,0.8l-0.3,1.3l-0.5,1.7l-0.1,0.3l-0.5,0.5l0.6,0.8l0.2,0.4l0.1,1.3L282,384
	l-0.1,0.3l-0.3,0.6l-0.6,0.6l-1.3,1.2l-0.6,0.2l-0.1,0h-0.5l-1.4,0.5l-0.1,0.1l-0.3,0.4l-0.6,1l-0.7,1.9l-0.1,0.3l-0.1,0.1l-1.3,0.1
	l-0.6,0l-2.4-0.6l-0.9-0.3l-0.9,2l-0.3,2.7l0.5,3.2l0.2,1l0.3,0.8v0.6l-0.3,0.9l-4.1,0.7l-1.1,0.1h-0.2l-0.4-0.3l-1.5-3.4l-0.1-0.1
	l-0.2-0.1l-7.7-1.5l-10.7,3l-0.1,0.1l-0.4,0.5l-0.6,0.9l-0.4,2l-0.5,1l1,0.9l0.2-0.1l0.5,0l0.4,0.1l0.1,0.1l0.3,0.2l0.1,0.2l0.3,3.1
	l-1.3,0.7l0.3,0.4l0,0.2l0.3,2.4l0.1,2.3l0.1,1.6l0.3,2.4l0.1,0.2l0.6,0.8l-0.7-0.1l-0.2,0l0,0.5l0.1,1.1l0.1,0.3l0.2,0.2l3.5,3.5
	l0.3,0l0.6,0.1l0.2,0.1l0.1,0.1l0.9,4.2l-1.3,3.4l-0.4,0.2l-1.1,3l-0.7,5.6l0.7,1.3l-0.1,1.3l0.1,0.1l-0.3,0.8l-0.1,0.2l-0.4,0.3
	l1.3,0.7l0.3,0.2l0.5,1.1l0,0.3l-0.2,0.3l-0.7,0.2l-1.2-1.4l-0.9-0.2l-4.5,1.4l-0.2,0.1L240,450l-1.3,1.5l-0.3,0.6l-0.2,0.5l0.6,0.5
	l0.4,0.7l-5.2,4.7l-0.2,0.1l-0.1,0l-1.5-0.1l-0.4-0.1l-0.5-0.5l-0.2-0.7l0.3-0.7l1.4-3l1.8-0.6l1.9-1.7l-0.2-1l0.1-0.5h-1.9l-5.2-1
	l-0.4-0.1l-1.8-0.8l-1.2-0.8l-1.5-6.1l0.3-0.2l0.1,0.2l0.3,0.1l0.1-0.1l0.4-0.8l-0.1-0.4l-0.8-0.2l-3.1,0.8l-1.4,0.4l-0.2,0.5l0,0.6
	l0.2,0.3l0.5-0.1l0.7,3.2v0.4l-0.1,0.4l-0.5,0.9l-1.4,1.1l-0.7,0l-0.2-0.1l-0.4-0.1l-0.7-0.5l-0.5-0.7l-0.3-0.9l-1.6-2.1l-1.2-1
	l-0.4-0.4l-0.8-0.1l-0.2,0l-0.2,0.1l-0.8,0.4l-0.1,0.1l-0.4-0.9l-1.3-1.9l-0.4-0.7l-1.3-4.1l-0.1-0.4l0.1-0.8l0.1-0.2l0.2-0.3
	l0.1-0.1l0.5-0.4l0.4-0.3l0.4-0.2l0.6-0.2l1.2-0.3l0.3-0.1l0.3-0.2l0.4-0.3l0.3-0.5l0.1-0.2l0.1-0.2l0.5-0.8l-0.3-1.9l-2.2-2.3
	l-0.4-0.8l-0.8-1.1l-0.2-0.4l-1.8-4.5l-0.2-0.6v-0.3l0.1-0.4l0.1-0.3l0.3-0.5l0.2-0.5l0.1-0.3l0-0.4l-0.1-0.4l-0.5-1.5l0-0.8
	l-0.4-0.9l-0.4-0.6l-0.3-0.4l-0.6-0.7l-1-0.9l-0.6-0.9l-0.4-0.5l-0.6-0.6l-0.9-0.9l-0.5-0.2l-1.5-0.3l-0.8-0.1l-0.7,0.1l-2,0.6
	l-3.3,1.5l-5.6,2.1L188,410l-1.6,0.3l-2.7,0.1l-0.3,0l-0.2-0.1l-0.4-0.3l-4.3-6l-0.5-1.5l0.8-0.2l1.6-0.9l3.3-2.8l0.3,0.1l1.8,0.5
	l0.2-0.3l0.3-2.4l-0.1-0.3l-0.8-0.7l-0.6-0.5l-0.4-0.3l-0.3-0.4l-0.1-1.1l0.1-0.1l1.2-1.6l0.5-0.3l0.3-0.1l3.5-1.5l1.5,0.9l0.8,0.2
	l0.2,0l1.3-1.5l-0.1-0.1l-0.3-0.2l-1.3-1.3l-0.2-0.4l0.8-1l0.7-0.2l0.5,0.1l1.7,0.7l1.6-0.9l0-1.5l-0.1-0.3l-0.6-1.8l-0.1-0.1
	l-0.2-0.3l-2.1-3.9l-4.2-2.8l-0.4,0l0.2-0.6l1.4-3.9l-0.6-0.8l-0.4-1l0-0.3l0.4-1.9l0.4-0.9l1.9-2.3l0.3-0.1l0.5-0.1l0.2,0l1,0.4
	l0.4,0.8l0.8,0.3l0.9,0.2l0.6-0.1l0.2-0.3l0.6-1.5l0.2-0.5l0.6-1.4l0.3-0.9l0-0.5l-0.9-0.5l-0.3-0.2l-0.1-0.2l-0.7-3.9l0-0.7
	l0.1-0.4l0.1-0.3l0.7-0.8l0.6-0.8l1.6-3l0-0.3l-0.1-0.8l-0.6-0.9l-0.6-1.2l-0.3-0.7L198,344l7.6-7.4l0.2-0.1l0.2,0l0.8,0l0.1,0.1
	l3.3,1.7l0.1,0l0.4-0.1l0.1-0.1l0.9-1l3.4-5.2l0.5-2.1l0-0.1l0.3-0.2l0.1,0l0.5,0l0.1,0l-0.2-0.3l0-0.2l0.1-0.1l0.7-0.7l1.1-1.2
	l0.8-0.7l0.3-0.3l0.4-0.6l-0.3-0.7l-0.5-1.2l-0.8-2.6l-0.1-0.2v-0.2l0.3-0.5l0.4-0.4l0.6-0.5l0.1-0.1l1-0.4l0.1-0.1l2.2,0.1l1.4,0.2
	l0.6,0.2l0.9,0.2l0.4,0l2.5-1l2.3-5l0.2-0.5l0.1-0.3l-0.1-1.6l-0.6-5.1l-0.1-0.2l-0.7-0.9l-0.7,0l-0.6,0.1l-3.6,1.6l-0.8,0.5l-0.1,0
	l-0.6,0l-0.2-0.1l-0.2-0.2l-1.6-2.3l0.5-0.7l2.1-3l0.9-1.1l0.9-0.6l2.4-1.5l4-1.2l3-0.8l3.3-0.1l2.7,0.2l0.1,0l0.7-2l-0.2-1.1l0-0.2
	l-0.2-0.1l-0.4-0.1l-2-3.3l-0.1-0.5V288l0.5-0.5l2.3-1l1.3-0.4l1.8-0.4l0.9,0l2.3,1l0.9,1.6l-0.6,1.4l0.5,1.3l0.1,0.2l0.2,0.1
	l0.5,0.2l2.2,0.1l0.5-0.1l0.5-0.8l0.5-0.8l3.4-2.8l3.6-2.8l2.6-4.2l3.1-3.7l1-1.7l2.6-0.6l0.2,0l0.1,0.2l0,0.3l-0.2,0.4l-0.2,0.7
	l0,0.3l0.2,0.3l0.6,0.4l0.6,0.1l2.6,0l0.8,0l2.7,1.4l0.1,0.1l1.1,1.2l0.6,0.5l0.7,0.4l0.1,0.2l0.1,0.3l-0.3,0.7l-0.1,0.1h-0.1
	l-0.5-0.2l-0.6,0.5l-0.5,0.6l-0.1,0.3l-1.2,0.2l-1.9,2.2l-0.1,0.3l0,0.1l0,0.1l1.6,2.8l0.4,0.5l0.3,1.3l0.6,3.4l-0.1,0.2l-0.6,0.9
	l-1,0l-1.3,0.2l-0.4,0.1l-0.9,1.3l-0.2,0.3l-0.4,1.6l-0.1,0.3l0.4,0.6l0.5,0.9l1.4,0.4l4.2,1.8l2.7,1.3l0.1,0.2l1.8-1l0.2-0.9
	l0.1-0.4l-0.1-1.1l-0.1-0.1l-0.4,0l-1.4,0.7l-1.4-2.2l0.9-1.2l3.5-3l0.3-0.2l0.1,0l2.6-0.4l2.5-0.3l0.2,0.1l1,1.6l0.3,0.5l0,0.9
	l0,0.1L291.4,297.1z"/>
<path id="Hamburg" fill="#FFDD00" stroke="#FFFFFF" d="M282,118.6l0.4-1.8l0.3-1.2l0.2-0.7l0.6-1.7l0.2-0.3l0.3,0l-0.1,0.4l0.1,0.5
	l1.4,1.7l0.8,0.8l0.4,0.2l0.6-0.3l2.8-3.5l0.3-0.4l0.3-0.4l0-0.3l0.1-0.6l0.9-0.1l1,0l0.2,0.2l0.8,0.2l0.4,0h0.6l3.9-3l0.6-1.5
	l-0.4-0.5l1.1-0.8l3.4-1.7l0.2,0l0.2,0.1l1,0.6l-0.1,0.7l-0.5,1.1l0.1,3.7l0.6,0.7l1.3,1.7l-0.2,0.5l0,0.1l-1,2.1l-1.6,1.3l-0.5,0.5
	l-0.2,0.9l0.1,1.7l0.7,1.9l0.2,0.2l2.8,1.9l0.3,0.1l0.4-0.1l-0.1,0.5l0.2,0.6l3,3.2l0.4,0.8l-0.1,0l-0.2,0.1l-1.8,1l-0.3,0.2
	l-0.2,0.2l-0.2,0.2l-0.5,1.2l-0.2,0.2l-0.1,0.1l-0.3,0l-2.6-0.1l-0.3-0.1l-0.4-0.2l-2-1.9l-1.4-1.6l-0.3-0.4l-0.4-0.5l-1.4-0.8
	l-0.4,0.6l-0.5,1l-0.1,0.7l-2.2,1.7l-0.3,0l-1.3-1.1l-1.7-1.6l-0.6-0.7l-0.3-0.2l-0.2,0.1l-1,1.1l-0.7,0.5l-0.2,0.1l-2.7-2.8
	l-0.1-0.5l-0.8-1.8L284,123l0.2-1.8v-2.3L282,118.6z"/>
<path id="Bremen" fill="#FFDD00" stroke="#FFFFFF" d="M224.3,121l0.5-0.3l0.1-0.4l0.1-0.2l0-0.6l-0.1-0.3l-0.1-0.2l-1.7-3l-0.7-1.1
	l0.8-0.9l0.7-0.1l4.3,0.2l1.3,0.2l0.1,0.1l-0.9,4l0.7,3.1l-0.1,0.4l-2,2.2l-0.1,0l-1.5-0.2l-0.3-0.2l-0.1-0.2l0.3-0.4l0.1-0.2v-0.2
	l-1.1-1.4L224.3,121z M244.9,153.2l-1.1-1.3l-0.5-0.4l-0.3,0l-0.9,0.6l-3.8-0.1l-3-1.5l-3.4-1.7l-5.2-0.6l-6-3.2l-0.2-0.7l0-0.5
	l0,0.6l0.2,1l0.3,0.7l0.3,0.4l0.6,0.9l1.2,1l1.9,0.9l0.6,0.3l0.7,0.1l0.6,0.2l0.3,0.2l0.2,0.4l1.3,3.3l0.1,1.1l0.7,0.5l1.6,1.7
	l0.4,0.5l0.1,0.5l0.1,2.1l0.4,0.4l0.4,0.4l0.2,0.1l0.8-0.3l0.3-0.1l1.1,0l4.3,1.5l2.5,1l2.6-2.2l0-1.6l-0.3-3.8l-0.6-1l0.1-0.1
	l0.1-0.1l0.8-0.3l0.8-0.3L244.9,153.2z"/>
<path id="Brandenburg" fill="#005FAB" stroke="#FFFFFF" d="M511.3,130.9l-0.2,1.6l0.8,2.6l0.7,0l0.5,0.1l0.3,0.7l0.1,0.4l-0.8,1.7
	l-1.9,2.9l-0.4,0.2l-0.1,0.1l-0.3,1.7l-0.1,0.8l0,0.2l0.2,0.8l0.1,0.3l0.8,1.1l-0.2,2l-0.1,0.4l-0.4,2.5l-0.5,1.8l-0.5,0.8l-0.2,0.3
	l-2.6,2.7l-1,0.9l-1.3,1.1l-0.7,0.4l-0.6,0.2l-1.7,1.1l-1.2,1.1l-0.2,0.7l0,0.1l0.2,1.3l0.9,3.1l0.3,0.6l-0.1,1l-0.6,1l-0.6,0.9
	l-0.4,0.9l0,0.5l0.1,0.1l0.3,0.5l0.1,0.1l0.5,0.2l1.5,0.1l3,1.2l6.2,4l1.2,1.2l1.3,1.5l1.4,1.6l0.1,0.1l0.2,0.3l0.1,0.6l1.7,1.6
	l0.8,0.5l1.5,1l0.7,0.3l1.1,0.6l0.7,0.3l0.2,0.1l0.4,0.1l0.3,0.1l1.4,0.9l0.3,0.4l1.9,2.4l0.1,0.2l0.2,6.2l-0.1,0.5l-0.1,0.2
	l-1.4,2.4l-0.6,0.8l-1.3,0.9l-0.2,0.2l-0.3,0.3l-0.2,0.4l-0.1,0.4l-0.3,1.8l-0.1,0.6l0.8,1.3l0.2,0.4l0.3,2.1l1.2,4.5l0.1,0.2
	l0.2,0.2l0.8,0.8l0.2,0.2l0.3,0.2l0.6,0l0.3,0.1l3.8,0.9l0.1,0l0.2,0.2l0.2,0.2l0.8,1.1l0.1,0.2l0,0.2l-0.2,5.1l0,0.4l-0.4,0.7
	l-0.7,0.8l-0.1,0.2l0,0.3l0.2,2l0.3,0.7l0.3,0.4l0.4,0.4l0.2,0.1l0.6,0.1l0.5,0.1l0.3,0.2l0.5,0.3l0.3,0.3l0.8,1.2l0,0.3l-0.3,2.6
	l0,0.1l-0.3,0.6l-1.1,1.9l0.1,0.1l0.2,0.5l-0.1,4.8l-0.8,2.7l-2.3,3.2l-0.9,0.8l-1.4,1.4l-0.3,0.3v0.1l0,0.9l0,0.4l0.7,1l0.2,0.2
	l0.1,0.1l0.8,0.2l2.3,5l0.4,0.9l1.2,1.4l1.8,1.4l0.3,0.2l0.6,0.4l0.4,0.5l0.5,1.1l0.4,3.4l-0.6,2.1l-0.7,1.1l-0.8-0.6l-0.7,0.6
	l-0.5,1.9l-0.1,0.2l-0.1,0.2l-0.4,0.4l-0.1,0.1l-2.5,0.3l-0.4-0.1l-0.3-0.1l-0.1-0.1l-0.3-0.6l-0.1-0.5l-1.8-0.7l-5.5,2l-0.3,0.2
	l-0.1,0.3l0,0.3l0.1,0.4l-0.3-0.1l-2.7,0.4l-3.5,2L513,278l-3.2-0.4l-2.4,0.1l-1-0.2l-0.3,0.1l-1.7,2.5l-1.2,3.5l-1.1,4.4l-2.1,2.8
	l-6,1.2l-0.3,0l-2.2-0.1l-1.3,0.5l-1.6,0.8l-0.7,0.5l-2.5-0.3l-0.4-0.1l-0.7-0.4l-0.3-0.3l-0.4,0.5l-2.6,0.1l-1.6,0l-0.3,0l-2.3-0.7
	l-3.9-2.4l-1.7-1.4l-1.8-1.6l-0.5-0.4l-3.6,1.9l-2.1,1.9l0,0.1l0.1,0.9l-1.4,0.4l-0.4,0.1l-1.8,0l-0.2-0.3l-0.2-0.5l-1.2-1.5
	l0.6-2.9l0.2-4.2l-0.1-0.5l-0.2-0.5l-0.9-2.2l-1.5-3.3l-0.4-0.6l-2.1-1.1l-0.2,0.2l-0.3,0.3l-0.6,0.4l-0.5-0.3l-1.9-3.1l5.1-3.4
	l0.4-0.4l1.1-2v-0.1l0-0.4l-0.4-0.7l-0.2-0.2l-0.4-0.3l-2.6-9.3l0-0.2l0-0.2l1.4-0.2l0-0.5l-0.1-0.5l-0.6-0.6l-0.3-0.2l-0.7,0
	l0.1,0.5l-0.3,0.2l-1.6,0.7l-1.9-0.2l-0.1,0l-0.2-0.1l-2.4-2.5l-3.9-2.1l-0.8,0.3l-0.4,0l-1.9-0.5l-3.9-2.3l-0.4-1.1l-0.3,0
	l-1.4-0.7l-1.3-0.7l-0.6-0.4l-1.6-0.7l-0.7,0l-0.4,0.5l-0.1,1.1l-1.4,1l-0.6,0.1l-3.2-0.5l-5.8-2.2l-3.7-2.3l-1.3-1.5l-2.1-2.7
	l-1.7-2.6l-2.3-3l1.5-3.3l-0.2-3.2l0.2-2l0.1-0.4l0.5-1.4l0.9-2l0.1-0.1l0.2-0.1l0.9-1.9l-0.5-2.7L410,211l-0.2-1.3l0.7-1.7l0.5-0.8
	l0.2-0.7l-0.3-2.6l-4.4-1.5l-0.1,0.7l0,0.1l-0.3,0.4l-0.9,0.3l-0.9,0.2l-0.7-0.8l-1.5-1.7l0,0l0-0.6l1.4-5.7l0.7-1.3l0.3,0.1l0.3,0
	l1.3-1l0.3-2.9l0-0.5l-0.2-0.7l-0.9-1.4l-1-1.6l0-0.1l0.3-3.5l0.3-0.9l0.5-1l1.2-0.6l0.2-1.4l-1-3.9l-0.1-0.2l-0.5-0.3l-1.2-0.5
	l-1.2,0.6l-0.7,0.4l-1.3,0.4l-0.7-1.6l0-0.5l0.2-0.5l0.1-0.1l-0.6,0.5l-6.6,0.8l-0.2,0l-4.2-1.3l-2.9-1.2l-0.3-0.1l-0.2-0.2
	l-0.2-0.4l-0.1-0.4l0-0.2l0.2-0.3l0.4-0.4l0.4-0.4l0.1-0.2l0.1-0.2l0-0.2l0-0.2l-0.1-0.2l-0.2-0.2l-4.1-2.4l-0.2-0.1l-0.3-0.1
	l-0.3-0.1l-0.4-0.1l-0.1,0l-0.8,0.5l-0.6,0.4l-0.2,0.1l-0.4-0.1l-0.2-0.1l-2.8-2.3l-0.2-0.2l-0.1-0.2l0-0.3l0-0.2l0.7-0.9l0.1-0.1
	l0-0.2l-0.1-0.2l-0.2-0.1l-0.2-0.1l-0.2,0l-0.4,0l-0.2,0l-1.1,0.5l-0.5,0l-3.5-0.8l-0.5-0.2l-0.5-0.3l-0.9-1l-0.6-0.6l-0.3-0.2
	l-0.3-0.2l-0.4,0l-0.3,0l-1.6,0.5l-0.3,0.1l-0.2,0.1l-0.8,0.6l-1.4,0.7l-0.4,0l-0.2,0l-0.2-0.1l-2.4-2.4l-0.9-1.1l-0.1-0.2l0-0.3
	l0-1.2l4.5,0.3l2.2-1.7l2.7-0.3l0.6,0.5l0,0.2l0.5,0.2l1.3,0.2l1.2,0l0.7-0.5l0.3-0.8l0.5-2l-0.5-3.3l3.1-2.8l0.5-0.3l2.2,0l0.8,0.1
	l1.4,0.8l0.6,1.2l0.5-0.1l4.4-1l0.2-0.2l0-0.1l-0.1-0.3l-0.9-1.5l2.6-0.2l4-1.5l0.3-0.2l3-2.1l0.3-0.4l-0.1-1.4l1.7-2.4l1.2,0.2
	l1.4,0.2l1.2-0.4l4.4-0.9l0.3,0l3.1,2.4l1.6,0.5l0.4,0.3l0.5,0.1l0.6,0.3l1.5,0.8l0.8,0.6l0.4,1.1l2,2.2l2.6-0.3l0.2-0.2l0-0.4
	l1.4-0.3l6.1,0.6l0.6,0.1l2.7,2.5l2,2l0.3,0.5l0.9,0.1l0.7-0.2l0.9-0.4l0-0.1l0.1-0.1l1.4-0.5l5.8-0.2l0.5,0.2l0,0l0.2,0.4l0,0.1
	l-0.8,0.5l-0.7,0.6l-0.2,0.3l0,0.1l0.1,0.1l1.7,0.7l0.1,0l0.2-0.1l5.6-6.1l0.3-0.3l1.8-0.9l0.1,0l1.5-0.2l0.2,0.5l0.2,0.5l0.7,1.4
	l0.1,0.2l1.2,0.2l0.4-0.7l0.1-0.5l0-0.4l0.1-1l0.2-0.6l0.3-0.4l1.4-1.3l0.9-0.4l2.8,0l0.2,0.1l0.3,0.4l0.1,0.2l0.1,0.7l0.9,1.3
	l0.3,0.1l0.6-0.2l3.8-4l1.7-2.3l0.1-0.1l0-0.1l-0.2-1.4l-0.2-1l0.4-1.3l0.9-2.3l0.2-0.4l5.3-5l0.8-0.7l1.4-1.1l2.1-0.2l2.2-1.9
	l-1.1-1l-0.1-1.1l0-0.3l0.2-1.5l0.1-0.3l0.3-0.5l0.4-0.1l4,4.6l0.8,2.6l1.2,2.5l1.3,0.5l0.5-0.2l2.7-0.5l2.1,0.3l3.1-0.1l0.6-1.1
	l5.1,0.3l0.6,0.4l0.3,0.5l0.2,2.3l0,0.4l-0.4,1.6l-0.1,0.4l-0.3,0.8l-0.8,1.3l-0.6,0.8l-0.9,1l-0.8,0.9l-0.6,0.5l-1.3,1.5l-0.4,0.6
	l-0.1,0.4l-0.1,1l0.9,0.1l4.7,0.2l2-0.3l0.6-0.2l1.6-2.3l0.5-1.4l0.1-0.7l4-1.7l0.2,0L511.3,130.9z M464.2,189.2l-0.5,0.8l-0.5,0.7
	l-0.4,0.3l-0.3,0.2l-0.3,0.1l-0.6,0l-0.7,0l-0.9-0.2l-4.5,0.1l-0.9,1.8l0,0.1l0.1,0.2l0.4,0.5l0.3,0.2l0.1,0.1l0,0.1l-0.1,0.3
	l-0.9-0.1l-0.4-0.1l-1-0.4l-0.4-0.2l-0.4,0.1l-1.3,0.9l0,0.3l-0.3,4.9l0,0.5l1.3-0.3l1.3,0.9l-1.8,2.3l-0.3,0.2l-0.4,0.5l-0.2,0.4
	v1.2l0.4,0.4l0.3,0.6l-0.5,0.8l-0.4,0.4l-0.8,0.4l0.1,0.6l0.2,0.2l1.6,1l1.6,0.1l0.5-0.1l-0.4-0.1l0.1-0.5l1.8-1.1l1.3-0.5l0.2,0
	l0.9-0.1l2.7,0.6l0.8,1l1.5-0.8l2.3,2.3l1.6,0.1l-0.2-2.6l0-0.1l0.1-0.1l1.3-0.6l0.6-0.3l0.4-0.1l0.6,1.5l3,1l5.6,1.6l1,0.2l1.3-0.4
	l0.3-0.6l0-0.3l-0.1-0.3l-0.2,0l-0.4-0.1l0-0.2l1.4-1.2l0.5-1.4l0.6-2l-1.2-1.3l-0.7-0.1l-2-1.3l-1.3-0.4l-0.6-2.5l-1.3-2.8l-2.8-3
	l-3.7-6.9l-0.7-0.4l-0.6,0.5l-0.5,0.6l-0.5,1.1l-0.3,0.9l-0.5,0.1l-0.9-0.5L464.2,189.2z"/>
<path id="Berlin" fill="#FFDD00" stroke="#FFFFFF" d="M464.2,189.2l0.4,0.4l0.9,0.5l0.5-0.1l0.3-0.9l0.5-1.1l0.5-0.6l0.6-0.5
	l0.7,0.4l3.7,6.9l2.8,3l1.3,2.8l0.6,2.5l1.3,0.4l2,1.3l0.7,0.1l1.2,1.3l-0.6,2l-0.5,1.4l-1.4,1.2l0,0.2l0.4,0.1l0.2,0l0.1,0.3l0,0.3
	l-0.3,0.6l-1.3,0.4l-1-0.2l-5.6-1.6l-3-1l-0.6-1.5l-0.4,0.1l-0.6,0.3l-1.3,0.6l-0.1,0.1l0,0.1l0.2,2.6l-1.6-0.1l-2.3-2.3l-1.5,0.8
	l-0.8-1l-2.7-0.6l-0.9,0.1l-0.2,0l-1.3,0.5l-1.8,1.1l-0.1,0.5l0.4,0.1l-0.5,0.1l-1.6-0.1l-1.6-1l-0.2-0.2l-0.1-0.6l0.8-0.4l0.4-0.4
	l0.5-0.8l-0.3-0.6l-0.4-0.4v-1.2l0.2-0.4l0.4-0.5l0.3-0.2l1.8-2.3l-1.3-0.9l-1.3,0.3l0-0.5l0.3-4.9l0-0.3l1.3-0.9l0.4-0.1l0.4,0.2
	l1,0.4l0.4,0.1l0.9,0.1l0.1-0.3l0-0.1l-0.1-0.1l-0.3-0.2l-0.4-0.5l-0.1-0.2l0-0.1l0.9-1.8l4.5-0.1l0.9,0.2l0.7,0l0.6,0l0.3-0.1
	l0.3-0.2l0.4-0.3l0.5-0.7L464.2,189.2z"/>
<path id="Bayern" fill="#005FAB" stroke="#FFFFFF" d="M395.5,373.6l0.7,0.2l0.5,0.5l2,2.1l0,0.3l-0.2,1.4l-0.2,1.4l0.3,0.2l0.9,0.2
	l3.6,1.1l1.6,0.6l0.4,0.5l1.2,1.2l1,2.1l-0.1,0.1l0,0.1l-0.6,0.5l-0.8,0.2l-0.3,0.3l-0.8,0.9l0.1,0.2l1,0.9l2.6,1.4l0.2,0.2l0.9,1
	l1.1,1.4l0.8,1.7l-0.1,0.3l-0.2,0.5l-0.5,0.5l-0.3,0.8l0,0.4l0.2,1.2l0.2,1l0.1,0.2l0.4,0.5l0.1,0l0.6-0.2l0.4,0.1l0.8,0.6l1.2,1.3
	l-0.3,1.6l3.1,0.5l2.6,2.7l3.3,1.9l1.3,0l0.8,0.1l1.1,0.6l0.5,0.7l2.2,3.9l-0.1,2.8l-0.2,0.2l-0.5,0.6l-1.8,3.3l-0.5,1.4l-0.2,2.7
	l-0.1,0.5l-3.4,2.4l0,0.2l0,0.2l0.3,1.1l0.4,0.6l1.5,2.1l0.1,0.2l0.2,0.1l0.4,0.1l3.6,1l0.1,0.1l0.3,1.3l0.6,4.3l2.2,4.7l0.8,1.1
	l0.3,0.3l-0.3,0.3l0.7,0.5l1,0.4l0.4,0l0.1-0.3l0.1-0.1l0.2,0l0.2,0.4l0.1,0.2l0.1,1.1l0.1,1.7v0.4l0,0.1l-0.5,0.6l1.4,2.1l5.5,4.3
	l0.2,1l-0.1,0.6l1.2,2.2l0.4,0.2l0.9,0.3l4,0.6l0.5,0l0.1-0.1l-0.2-0.5l-0.3-0.4l-0.1-0.6l0.5-0.1l0.7,0.1l2.4,0.4l0.3,0.1l1.2,0.7
	l1.6,1.5l1.6,2.1l4.7,6.2l0.7,1l1.3,1.2l0.7,0.6l0.2,0.1l0.3,0l0.1,2.4l0.7,0.7l0.9,0.6l0.7,0.4l1.4,0.6l0.5-0.1l0.6-0.2l1.1-0.3
	l0.3,0l0.4,0.2l2,1.4l1.1,0.9l2.6,2.8l0.5,0.7l0.5,1.8l0.8,3.4l0.9,0.6l3.5,2.3l0.2,0l0.5-0.1l0-0.7l-0.1-0.3l-0.1-0.4l0-0.7
	l1.2-0.5l2.7,0.1l0.2,0.1l0.1,0.1l2,2.2l0.8,1.1l0.6,1.4l0.5,1.2l0.9,1.1l0.3,0.1l0.7,0l1.5-0.1l0.2-0.1l0.3-0.3l0.5,0l4.6,6.8
	l1,2.1l-0.5,1.8l-0.5,1.7l-0.7,1.3l1,1.8l0.9,4.6l0,1.3l-1.1,3.6l-3.7,5.2l-0.2,0.1l-1.1-0.3l-2.3-1.2l-0.2-0.2l-4-2.5l-4.3-1.6
	l-0.3,1.3l-0.1,0.3l-0.6,0.7l-0.9,0.7l-0.4,0.2l-1.6,0.5l0.6,0.7l0.1,0.1l0.6,2.1l0,0.2l-1,3.1l-0.2,0.4l-0.2,0.8l0,0.3l0,0.1l0.6,1
	l0.1,0.4l0,0.2l-0.1,0.3l-1,4l-0.2,0.4l-0.1,0.2l-0.2,0.2l-4,4.2l-0.4,0.3l-3.1,2.1l-0.3,0.2l-0.4,0.1l-4,0.1l-2.2,1.3l-0.4,0.2
	l-0.6,0.1l-1,0l-0.5,0l-0.5,0.1l-3.1,1.7l-0.3,0.2l-0.3,0.3l-0.1,0.2l-0.3,0.6l-0.2,0.3l-1.8,2.1l-0.3,0.3l-0.3,0.2l-0.3,0.1
	l-0.3,0.1l-1.5,0.1l-2.3,0.4l-0.2,0.1l-0.2,0.2l-0.2,0.2l0,0.2l0,0.5l-0.1,0.2l-0.8,1.6l-0.7,0.9l-0.1,0.2l-1.7,1.4l-2.1,1.7
	l-0.4,0.5l-0.1,0.1l0,0.2l0.2,1.5l0.2,0.6l0.3,0.6l0.5,0.7l2.3,1.9l1.6,1.3l0.6,0.7l0.3,0.4l0.2,0.4l0.1,0.2l0.7,2.9l0.2,0.4
	l0.2,0.2l1.9,0.4l0.4,0.2l0.2,0.2l0.7,1l1.8,2.8l2.2,4l0.2,0.4l0.1,0.4l-0.1,0.3l-2.1,3.7l-3,6l0,0.2l0.1,0.2l0.4,0.5l0.7,0.5
	l2.7,0.2l0.8-0.1l0.2-0.1l0.6-0.4l0.1-0.2l0.1-0.1l-0.1-0.1l0.2-0.4l0.1-0.1l0.4,0l1.6,0.8l0.2,0.2l1.2,1.5l1.7,4.2l0.1,0.4
	l-0.1,0.6l-0.2,0.3l-1,1.2l-1.5,2.3l-0.1,0.6l-0.4,3.6l0,0.1l0.1,0.1l0.2,0.2l0.3,0.1l0.2,0.2l0.1,0.2l0.1,1.8l0,0.6l-2.2,2.4
	l-0.2,0.1l-0.1,0l-2.1-0.9l-0.6-0.3l-2.3-1.3l-6.1-4.2l-0.5-0.5l-0.6-1l-0.3-0.8l0.1-0.3l0.6-1.5l0.8-0.8l-2.1-4.4l-1.2-0.4
	l-3.1-0.9h-0.6l-0.3,0l-0.7,0.1l-3.1,0.7l-0.2,0.1l-0.4,0.6l-0.7,1.5l-3.9,2l-0.7,0l-1.9-2l-1.4-1.9l-0.1-0.2l-4.2-0.5l-1.4-0.5
	l-0.2-0.1l0.1-0.4l-3.8,1.4l-0.9-2.8l0.3-0.5l0.4-0.9l-0.1-0.4l-0.4-0.5l-0.4,0.1l-3.4,3.4l-0.1,2.8l0.9,2l0.2,0.8l0.4,1.6l0,0.2
	l0,0.2l-0.1,0.2l-0.1,0.1l-1.1,0.2l-3-0.1l-2.6-0.3l-1.2-0.7l-2.3,0.6l-2.9-0.4l-3.1,0.4l-2.6,1l-0.9,1.6l-0.2,0.1l-0.8-0.1
	l-2.2-0.4l-7.8,0l-0.9-0.2l-1.4,0.9l-0.1,0.1l-0.9,2l-0.1,0.9l0,0.2l0,0.2l0.1,0.2l0,1.1l-0.9,0.9l-0.2,0.1l-3.5,0.8l-2.8-0.3
	l-0.5-0.1L375,612l-0.2,0.1l-0.2,0.1l-1.1,1.3l-0.1,0.3l-1.4,1.6l-4.4,3.9l-0.4,0.8l-0.1,0.3l-0.3,0.8l-0.3,0.4l-0.6,0.4l-0.2,0.1
	l-2.3,0.2l-0.2,0L363,622l0.1-0.3l0.9-1.5l0.7-0.7l-0.2-0.3l-0.1-0.1L362,619l-2.7,1.1l-0.3,0.2l-1,0.6l-2.8,1.4l-4.2,0.2l-0.5,0
	l-0.9-0.2L349,622l-0.1-1l0.1-0.4l0.1-0.1l0.5-0.1l0.2-0.2l-0.1-0.7l-1.3-1.5l-1.8-1.9l-2.6-0.6l-0.2,0l-0.4-0.2l-0.1-0.3l0-1.1
	l0.4-0.4l1.6-1.2l-1.1-1.6l-1.8,0.2l-3.1,1.2l-1.9-0.4l-3.9-1.6l-0.2-0.5l0-0.3l0.1-0.1l-0.1-0.2l-4-0.7l-1-0.1l-0.6,0.7l-0.4,0.7
	l0,0.1l-0.5,1.2l-0.2,0l-2.5-0.1l-2-0.4l-1.6-1l-0.4-0.3l0.3-0.5l0.5-0.6l0.2-0.8l0-0.6H321l-1.7,0.3l-0.1,0l-0.3,0.5l0.1,6l0.5,1.4
	l0.1,0.1l0.2,0.1l0.3-0.1l0.5,0.3l0.4,0.4l0.1,0.6l0.3,3.1l-3.2,4.3l-3.9,4.9l-1.2,1.2l-2.4,1.5l-2.2,0.8L305,633l-0.2,0l-0.1-0.3
	l0-0.4l0.2-0.7l0.2-0.6l2.1-4.8l0.5-0.6l0.6-0.8l0-0.1l-0.1-0.7l-0.4-0.5l-0.1,0l-2.5-0.3l-0.7,0.5l0,0.9l0,0.3l-0.2,0.2l-3.7,1.2
	l-1.3-4l0.4-0.9l0.5-0.2l0.1-0.1l0.6-0.9l-0.7-1.2l-0.7-0.9l-1.5-1.7l-1.6-0.7l-0.7,0.2l-0.4,0l-0.1,0l-0.3-0.3l-1.7-2.9l0-0.9
	l0-0.5l0.2-0.6l-0.2,0.2l-1.7,1l-0.6,0.2l-2.7,0.1l-3.2-1.5l0-0.2l0.1-0.3l0.1-0.1l0.1,0l0.1-0.2l0.1-0.3l0.1-1.5l-0.2-0.7l-1.2-0.7
	l-0.1,0l-1.3,0.1l-0.6,0.5l-0.5,0.7l-2,2.7l-3-1l-2.5-1.1l-0.7-0.5l-0.3-0.7l2.1-1.6l1-0.7l1.9,0.2l0,0.3l0.1,0.2l0.2,0.2l0.3,0.1
	l2.5-0.1l4.4-4.5l0.1-0.1l3.8-0.2l4.4-0.1l0.2-0.4l0.8-1l0.2-0.2l0.1-0.1l1.1-0.2l2.1,0.4l0,0l0.3,0.5l0,0.1l0.7,2.8l-0.1-0.2
	l0.3-0.9l0.3-0.3l0.5-0.6l0.4-0.2l0.6,0.1h0.2l0.9-0.8l0.5-1.8l0-0.5l-2-5l0-3l0.8,0l1.1-1l-0.2-0.6l-0.4-0.2l-0.4-0.5l-0.4-0.9
	l-0.4-2l-0.1-2.8l0-0.3l0-0.3l0.2-1.4l0.3-1.1l-0.6-0.4l-0.3-0.2l-0.2-0.2l-0.2-0.3l-0.1-0.5l0-0.5l0.1-0.4l0.1-0.2l0.1-0.1l0.2-0.1
	l0.6-0.1l0.5-0.1l0.1-0.8l0.2-1.5l0.3-0.5l0.4-0.4l0.1-0.5l0.2-1.9l0-2.4l-0.1-2.7l-0.7-0.6l-0.7-0.7l-0.1-0.1l-0.2-0.5l-0.7-2.2
	v-0.4l-0.2-0.5l-0.3-1.4l-0.1-0.6l-1-7.1l-0.8-0.7l-2.3-3.6l-0.6-1.2l-0.3-1.6l1.2-2.8l0.1-0.2l1-1.8l0.2-1.4l-0.1-0.6l-0.3-0.4
	l1.3-0.1l2.6-1.5l0.8,0.6l0.9,1.1l1.8-0.4l3.8-3.3l-0.2-0.4l-0.2-0.4l1.2-0.7l0.2-0.1l0.4-0.1l0.7,0.3h0.5l0.5-0.1l0.9-0.5l0.1-3.1
	l0-0.5l-0.8-4.6l-1-1.4l-0.9-1.3l-0.5-0.6l0-1.1l0-0.2l0.7-1.9l3.2,1l0.5,0.2l3.8-0.8l1.3-0.1l0.3,0.2l0.1,0.1l0,0.2l-0.8,1.7
	l-0.3,0.2l-0.1,0.1l0,0.2l0,0l0.8,0l1.7-0.6l1.2-1.3l0.3-0.3l-0.3-0.5l-0.2,0l-0.5-0.5l-0.5-2l-0.1-0.7l-2-0.7l-0.2,0l-0.2-2.6
	l0.6-0.2l1-2.5l0-0.1l0.3-4.1l0.1-4.9l-0.3-1.5l-0.4-0.5l-0.1-0.1l-1-1.1l-0.6-1.6l-0.1-0.3l-4.9-3.6l-3.3-1.4L309,487l0-0.6h0.1
	l0.3-0.2l-1.1-5.3l-1.7-3l-1.4-0.6l-1.2-0.6l-2.1-1.4l-0.2-0.3l0-0.1l0.2-5l0.8-2.2l-0.4-0.7l-1.6-3.5l-0.1-0.3l0-0.2l0.2-2.8
	l0.3-0.5l1.8-0.1l0.5-0.2l0.2-0.4l0.1-0.2l-0.5-1.3l-0.9-1.8l-0.9-3.1l-0.1,0l-0.8-1.1l0-0.5l0-0.1l0.2-0.4l0.3-0.3l-0.2-1.1
	l-0.6-1.4l-0.5-0.9l-0.9-0.2l-0.3,0.1l-1.2,1.2l0,0.1l0.2,0.3l0.5,0.5l0.5,0.1l-0.4,0.7l-0.2,0.2l-1.7,1.9l-0.3,0.1l-3.2,0.2
	l-1.2-0.3l-0.2-0.1l-0.6-0.6l0.1-0.5l0.3-0.3l0.1-0.3l0-0.1l0.1-3.3l-0.1-0.9l0-0.1l-0.6-1.8l-0.1-0.2l-0.2-0.1l-0.4,0l-0.2,0
	l-1.4-2.2l-0.2-0.8l-1.9-6.7l-0.6-0.6l-1.4-1.3l-0.9,0.3l-3.4,1.2l-2.1,1.2l-0.7,0.3l-0.4,0.1l-1.2-0.6l-0.4-0.6l0.3-1.1l0.1-0.1
	l0.4-0.2l0.1-0.2l0.5-4.8l-0.1-0.8l-1,0.5l-3.4,3.3l-0.1,0.1l-0.2,0l-0.2-0.1l-2-1.3l-0.2-0.2l-0.2-0.3l-0.1-0.2l0-0.3l0.1-0.5
	l0-0.2l-0.1-0.2l-0.2-0.2l-0.2-0.2l-0.2-0.1l-1,0.1l-0.1,0.1l-0.3,0.4l-0.5,0.8l-1-0.4l-4.4,0.2l-1.8,0.2l-0.3,0l-0.2,0.1l-0.1,0.2
	v0.5l0.4,1.5l1.2,2l0.7,1.1l0.5,0.1l0.6-0.1l0.3-0.1l0-1.3l-0.1-0.4l0.3-0.5l0.7,0.2l0.8,1.4l0.3,1.3l-0.6,2.6l0.4,0.4l-0.2,0.4
	l-0.5,0.7l-1.2,0.2l-1.9-0.6l-2.4-0.4l-1,1.5l-0.6,0.9l0.5,0.6l0.1,0.2l-1.9,2.5l-0.5,0.3l-0.9,0.3l-0.5,0.1l-1,0.2l-3.9,0l-0.2,0
	l-0.8-0.3l-0.7-1.3l0.7-5.6l1.1-3l0.4-0.2l1.3-3.4l-0.9-4.2l-0.1-0.1l-0.2-0.1l-0.6-0.1l-0.3,0l-3.5-3.5l-0.2-0.2l-0.1-0.3l-0.1-1.1
	l0-0.5l0.2,0l0.7,0.1l-0.6-0.7l-0.1-0.2l-0.3-2.4l-0.1-1.6l-0.1-2.3l-0.3-2.4l0-0.2l-0.3-0.4l1.3-0.7l-0.3-3.1l-0.1-0.2l-0.3-0.2
	l-0.1-0.1l-0.4-0.1l-0.5,0l-0.2,0.1l-1-0.9l0.5-1l0.4-2l0.6-0.9l0.4-0.5l0.1-0.1l10.7-3l7.7,1.5l0.2,0.1l0.1,0.1l1.5,3.4l0.4,0.3
	h0.2l1.1-0.1l4.1-0.7l0.3-0.9v-0.6l-0.3-0.8l-0.2-1l-0.5-3.2l0.3-2.7l0.9-2l0.9,0.3l2.4,0.6l0.6,0l1.3-0.1l0.1-0.1l0.1-0.3l0.7-1.9
	l0.6-1l0.3-0.4l0.1-0.1l1.4-0.5h0.5l0.1,0l0.6-0.2l1.3-1.2l0.6-0.6l0.3-0.6l0.1-0.3l0.1-0.9l-0.1-1.3l-0.2-0.4l-0.6-0.8l0.5-0.5
	l0.1-0.3l0.4-1.7l0.3-1.3l2.8-0.8l0.6,0.5l1.8,0.7l1.2-0.1l1-0.4l0.9-0.6l1-0.8l1.3-0.7l2.8-3l0.7-1.1l0.4-1.1l0.2-1.3l0-0.6
	l0.2-0.1l0.3-0.1l0.8-0.8l1.4-1.6l5.3-0.6l0.4,0l1.5,1.9l1.2,1.6l3.7,1.6l0.4,0.4l0.4,0.4l1.9,4.1l0.3,1.9l0,0.5l0.4,0.6l0.1,0
	l1.5,0.2l0.7-0.3l0.7-0.4l0.2,0.8l0.2,0.9l1.8,2l3.2,1.2l2.4,0.6l-0.2,2.2l-0.3,2.8l0.5,2.3l0.3,0.9l0.2,0.4l1.5,0.4l4.2,1.5l0.2,0
	l0.2-0.1l0.4-0.6l-0.1-1.4l-0.1-0.1l0-1.4l0.1-0.2l0.2-0.2l0.5,0.1l1.9,0.4l2.3,0.5l0.2,0l0.6-0.1l0.5-0.4l0.1-0.1l0.2-0.5l0-1.1
	l-0.3-0.4L339,387l-1-0.3l-0.5-0.1l-0.1,0l-4.4-3.1l-0.3-0.2l-0.1-0.3l-0.1-2.4l0.2-0.8l6-2.4l5.3,0h0.1l0.2,0l0.4,0.4l0.9,1.6
	l1.1,1.2l2.9,0.5l0.3,0l1.1-0.4l0.9-0.4l0.3-0.9l0.1-0.1l0.6-0.1l0.7,0l1.3,1.1l1.1,1.9l0,0.5l-0.3,0.1l-0.4,0.3l-0.3,0.2l-0.3,0.4
	l-0.1,0.5l0.1,0.4l0,0.1l0.6,0.8l1.8,1.7l0.7,0l0.1-0.1l0.7-1.5l2.5-0.4l1.6-5.5v-0.1l-1-6l-0.2-0.7l-0.4-0.1l-0.6-0.4l-0.1-1.7
	v-0.2l0.1-0.5l0.2-0.2l0.3-0.1l0.4,0.1l0.1,0.1l1.2-0.6l1.8-1.4l0.2-0.6l0.9-0.9l0.1-0.1l1.3-0.2l2.8,0.5l0.2,0.2l0.3,0.4l0.5,0.7
	v0.1l-0.2,0.5l-0.1,0.1l-0.4,0l-0.4,0.5l-0.1,1.3l0,1.7l0.1,0.4l0.1,0.1l1.6,0.9l1.4-0.2l0.4,1.7l0.5,0.9l1.3,1.5l0.5,0.2l1.5-0.5
	l0.3-0.3l0-0.2l0.1-0.6l0.1-0.2l0.1-0.1l1-0.2l0.3,0.2l0.2,0.2l0.3,0.4l0.5,0.4l0.2,0.1h0.2l10-1.4l3.3-1.2L395.5,373.6z"/>
<path id="Baden_Württemberg" fill="#C2240C" stroke="#FFFFFF" d="M247.5,443.9l0.8,0.3l0.2,0l3.9,0l1-0.2l0.5-0.1l0.9-0.3
	l0.5-0.3l1.9-2.5l-0.1-0.2l-0.5-0.6l0.6-0.9l1-1.5l2.4,0.4l1.9,0.6l1.2-0.2l0.5-0.7l0.2-0.4l-0.4-0.4l0.6-2.6l-0.3-1.3l-0.8-1.4
	l-0.7-0.2l-0.3,0.5l0.1,0.4l0,1.3l-0.3,0.1l-0.6,0.1l-0.5-0.1l-0.7-1.1l-1.2-2l-0.4-1.5v-0.5l0.1-0.2l0.2-0.1l0.3,0l1.8-0.2l4.4-0.2
	l1,0.4l0.5-0.8l0.3-0.4l0.1-0.1l1-0.1l0.2,0.1l0.2,0.1l0.2,0.2l0.1,0.2l0,0.2l-0.1,0.5l0,0.3l0.1,0.2l0.2,0.3l0.2,0.2l2,1.3l0.2,0.1
	l0.2,0l0.1-0.1l3.4-3.3l1-0.5l0.1,0.8l-0.5,4.8l-0.1,0.2l-0.4,0.2l-0.1,0.1l-0.3,1.1l0.4,0.6l1.1,0.6l0.4-0.1l0.7-0.3l2.1-1.2
	l3.4-1.2l0.9-0.3l1.4,1.3l0.6,0.6l1.9,6.7l0.2,0.8l1.4,2.2l0.2,0l0.4,0l0.2,0.1l0.1,0.2l0.6,1.8l0,0.1l0.1,0.9l-0.1,3.3l0,0.1
	l-0.1,0.3l-0.3,0.3l-0.1,0.5l0.6,0.6l0.2,0.1l1.2,0.3l3.2-0.2l0.3-0.1l1.7-1.9l0.2-0.2l0.4-0.7l-0.5-0.1l-0.5-0.5l-0.2-0.3l0-0.1
	l1.2-1.2l0.3-0.1l0.9,0.2l0.5,0.9l0.6,1.4l0.2,1.1l-0.3,0.3l-0.2,0.4l0,0.2l0,0.5l0.8,1.1l0.1,0l0.9,3.1l0.9,1.8l0.5,1.3l-0.1,0.2
	l-0.2,0.4l-0.5,0.2l-1.8,0.1l-0.3,0.5l-0.2,2.8l0,0.2l0.1,0.3l1.6,3.5l0.4,0.7l-0.8,2.2l-0.2,5l0,0.1l0.2,0.3l2.1,1.4l1.2,0.6
	l1.4,0.6l1.7,3l1.1,5.3l-0.3,0.2H309l0,0.6l0.1,0.8l3.3,1.4l4.9,3.6l0.1,0.3l0.6,1.6l1,1.1l0.1,0.1l0.4,0.5l0.3,1.5l-0.1,4.9
	l-0.3,4.1l0,0l-1,2.5l-0.6,0.2l0.2,2.6l0.2,0l2,0.7l0.1,0.7l0.5,2l0.5,0.5l0.2,0l0.3,0.5l-0.3,0.3l-1.2,1.3l-1.7,0.6l-0.8,0l0,0
	l0-0.2l0.1-0.1l0.3-0.2l0.8-1.7l0-0.2l-0.1-0.1l-0.3-0.2l-1.3,0.1l-3.8,0.8l-0.5-0.2l-3.2-1l-0.7,1.9l0,0.2l0,1.1l0.5,0.6l0.9,1.3
	l1,1.4l0.8,4.6l0,0.5l-0.1,3.1l-0.9,0.5l-0.5,0.1h-0.5l-0.7-0.3l-0.4,0.1l-0.2,0.1l-1.2,0.6l0.2,0.4l0.2,0.4l-3.8,3.3l-1.8,0.4
	l-0.9-1.1l-0.8-0.6l-2.6,1.5l-1.3,0.1l0.3,0.4l0.1,0.6l-0.2,1.4l-1,1.8l-0.1,0.2l-1.2,2.8l0.3,1.6l0.6,1.2l2.3,3.6l0.8,0.7l1,7.1
	l0.1,0.6l0.3,1.4l0.2,0.5v0.4l0.7,2.2l0.2,0.5l0.1,0.1l0.7,0.7l0.7,0.6l0.1,2.7l0,2.4l-0.2,1.9l-0.1,0.5l-0.4,0.4l-0.3,0.5l-0.2,1.5
	l-0.1,0.8l-0.5,0.1l-0.6,0.1l-0.2,0.1l-0.1,0.1l-0.1,0.2l-0.1,0.4l0,0.4l0.1,0.5l0.2,0.3l0.2,0.2l0.3,0.2l0.6,0.4l-0.3,1.1l-0.2,1.4
	l0,0.3l0,0.3l0.1,2.8l0.4,2l0.4,0.9l0.4,0.5l0.4,0.2l0.2,0.6l-1.1,1l-0.8,0l0,3l2,5l0,0.5l-0.5,1.8l-0.9,0.8h-0.2l-0.6-0.1l-0.4,0.2
	l-0.5,0.6l-0.2,0.3l-0.3,0.9l0.1,0.2l-0.7-2.8l0-0.1l-0.3-0.5l0,0l-2.1-0.4l-1.1,0.2l-0.1,0.1l-0.2,0.2l-0.8,1l-0.2,0.4l-4.4,0.1
	l-3.8,0.2l-0.1,0.1l-4.4,4.5l-2.5,0.1l-0.3-0.1l-0.2-0.1l-0.1-0.2l0-0.3l-1.9-0.2l-1,0.7l-2.1,1.6h-1.7l-0.7-0.1l-0.3-0.1l-0.3-0.1
	l-1.1-1.2l-0.6-1.5l-0.1-0.7l-0.3-0.6l-0.5-0.7l-0.5-0.4l-3.9-1.2l-0.8-0.2l-0.5,0l-0.3,0l-1.1,0.2l-0.2,0l-0.4,0.2l-0.4,0.1l-0.3,0
	l-0.2-0.1l-0.7-0.4l-1.6-0.9l-2.2-1.4l-0.8-0.7l-0.6-0.6l-0.4-0.7l-0.2-0.4l-0.1-0.7l0.1-0.1l0-0.3l0-0.1l-0.5-0.4l-6.1-4l-1.7-1.1
	l-0.2-0.1l-0.3-0.5l-0.2-0.2l-1.2-0.2l-0.3,0.5l-0.2,0.4l0,0.1l0.1,0.2l2,2l0.6,0.5l0.4,0.3l2.6,1.8l0.1,0l0.4-0.1l0.3,0l1.3,1.1
	l2.1,4.3l0.3,1.3l-1.3,0.8l-1.1,0.2l-2-0.8l-1.8-1l-0.3-0.2l-0.4-0.1l-2-0.4l-0.4-0.1l-1.4-0.2l-0.2,0l-0.3,0.1l-0.9,0.4l-0.9,0.5
	l-0.3,0.2l-0.4,0.4l-0.6,0.4l-1,0.5l-2.3,0.7h-0.2l-1-0.6l-3.7-3.2l-0.8,1.4l-0.2,0l-0.5-0.2l-3.1-1.3l-0.1-0.2l-0.8-2.8l0.2-0.7
	l0.5-0.6l-0.9-1.5l-1.3-1.1l-1.9-0.6l0.2,0.9l-0.3,0.5l-0.2,0.2l-0.7,0.5l-0.2-0.1l-0.4-0.7l-0.3-2.7l-2.2-0.4l-0.6,0.9l-0.3,1
	l-2.6,0.6l-1.2,0.2l-0.9,0.7l-0.9,1.2l-2.6,4.5l-0.4,1.6l0,0.1l0.3,0.6l3.2,2.3l0.2,0.1l3.1-1.3l-0.1-0.5l0.3-0.2l1.1-0.4l0.5-0.1
	l2-0.2l0.2,0l0.3,0.1l1.2,1.6l0,0.2l-0.3,0.7l-1.2,2.5l-0.7,0.8l-0.4,0.4l-0.8-0.1l-0.2-0.4l0.2-0.6l0.2-0.1l0.1-0.1l0-0.2l-0.1-0.2
	l-0.6-0.6l-1-0.5l0,0l-0.9-0.2l-3,2.4l1.1,1.3l0.3,0.4l0,0.1l-0.4,0.3l-1.2,0.4l-1.5,0.4l-0.4,0.1l-5.3-0.4l-0.3,0l-0.1-0.1
	l-0.2-0.1l-1.3-1.2l-0.1-0.2l-0.1-0.3v-0.3l0.2-0.7l0-0.1l-0.2-0.2l-0.5-0.2l-1.5-0.4l-2.6-0.5l-0.4-0.1l-0.2,0.1l-0.2,0.1l-5,2.9
	l-0.3,0.3l-0.1,0.2l-0.1,0.2l-0.1,0.7l-0.2,0.3l-0.3,0.3l-0.2,0.1l-3.7,0.5h-0.1l-3.3-0.7l-2.7-1.1l-0.8-1.2l-0.1-0.1l-0.3-0.1
	l-0.2,0l-2.8,0.1l-1.1,1.1l-0.1,0.3l-0.8,0.9l-0.4,0.2l-2.1,0.8l-3.1,0.9l-0.2,0l-0.7-0.1l-0.6-0.3l-0.1-0.1l-1-1l-0.5-0.9l0.2-0.1
	l0.4,0.1l2-0.8l0-0.3l-0.1-0.7l-0.3-0.8l-4.6-1.2l-3.5-4.5l-0.2-0.2l-0.1-0.3l-0.1-0.3l-0.3-2.3l0.1-0.3l0.1-0.2l1.3-1l0.2-0.2
	l0.2-0.3l0.2-0.5l0.1-0.6l0-0.3l-0.1-0.4l-0.8-2.3l0-0.3l0-0.7l0.1-0.3l0.7-1.8l1-2.3l0.2-0.5l0-0.4l0-0.5l-0.3-0.8l-0.1-0.3v-0.5
	l0.1-0.4l1.4-3.8l1.5-2l0.4-0.5l0.4-0.7l0.1-0.4l0-0.5l-0.2-1l-0.2-0.5l-0.4-0.6l-1.7-2.1l-0.1-0.2l-0.1-0.2l0-0.3l0.1-3.4l0-0.3
	l0.5-2.5l0-0.4l0.1-0.2l1.3-2.7l0.1-0.3l1.7-2.3l1.9-2.6l0.1-0.3l0.3-0.9l0.5-1.8l0.6-3l0.1-0.3l0.2-0.4l0.3-0.4l0.4-0.3l1.3-0.5
	l0.4-0.2l0.2-0.2l0.1-0.2l0.1-0.3l0.1-0.3l0-0.2l-0.6-3.1l-0.1-0.7v-0.5l0.1-0.6l0.1-0.5l0.2-0.5l1.7-4.2l1.8-3.7l0.2-0.3l0.3-0.5
	l0.1-0.4l0-0.3l0-2.8L176,525l-0.2-0.9l0-0.4l0-0.3l0.1-0.3l2.1-4.2l0.1-0.2l0.2-0.2l1-0.4l1.2-0.7l0.4-0.3l3.8-4.4l0.6-2.9l0.1-0.3
	l0.1-0.1l0.4-0.2l0.3,0l2-0.5l2.8-2l0.6-0.6l0.6-0.7l0.3-0.5l0.2-0.4l0.2-0.6l0.2-1l0.3-1l0.5-1.3l0.3-0.7l0.3-0.7l0.7-1.3l2.7-4.2
	l0.2-0.3l0.2-0.1l1.6-0.5l0.3-0.2l1.3-1l0.9-0.7l0.3-0.3l0.2-0.4l0.2-0.4l0.3-0.7l0.1-0.3l0.1-0.2l0.2-1.1l0.2-0.7l0.4-0.9l0.3-0.5
	l0.6-0.8l0.8-0.8l0,0l0.5-0.7l0.4-0.6l0.1-0.4l1.9-8.2l-0.1-1.4l-0.1,0h-0.1l0,0l0-0.6l0.1-0.5l0.2-0.4l0.3-0.3l0.4-0.4l0.4-0.3
	l1.2-0.7l0.4-0.4l1.4-1.6l1.1-0.6l0.1-0.2l0-0.3l-0.1-0.4l-0.2-0.3l-0.3-0.3l-0.2-0.1l-0.8-0.3l-0.2-0.1l-0.2-0.2l-0.1-0.3l0-0.3
	l0-0.2l0.1-0.3l0.2-0.3l0.4-0.4l0.4-0.2l0.4-0.3l0.4-0.4l0.5-0.7l0.3-0.7l0.2-0.7l0-0.5l0-0.7l-0.1-1.8l0.6-1.7l0-0.3l-0.1-0.3
	l-0.3-0.3l-0.3-0.1l-0.4-0.1l-0.8,0l-0.5,0l-0.5-0.1l-0.2-0.1l-0.2-0.2l-0.1-0.1l-0.1-0.2l0-0.3l0.1-0.2l0.2-0.2l0.2-0.1l-0.3-2.5
	l-0.1-0.5l-0.9-3.5l-0.3-0.7l-0.1-0.2l0-0.3l0-0.3l0.1-0.4l0.3-0.6l0.1-0.9l0.1-0.1l0.8-0.4l0.2-0.1l0.2,0l0.8,0.1l0.4,0.4l1.2,1
	l1.6,2.1l0.3,0.9l0.5,0.7l0.7,0.5l0.4,0.1l0.2,0.1l0.7,0l1.4-1.1l0.5-0.9l0.1-0.4v-0.4l-0.7-3.2l-0.5,0.1l-0.2-0.3l0-0.6l0.2-0.5
	l1.4-0.4l3.1-0.8l0.8,0.2l0.1,0.4l-0.4,0.8l-0.1,0.1l-0.3-0.1l-0.1-0.2l-0.3,0.2l1.5,6.1l1.2,0.8l1.8,0.8l0.4,0.1l5.2,1h1.9
	l-0.1,0.5l0.2,1l-1.9,1.7l-1.8,0.6l-1.4,3l-0.3,0.7l0.2,0.7l0.5,0.5l0.4,0.1l1.5,0.1l0.1,0l0.2-0.1l5.2-4.7l-0.4-0.7l-0.6-0.5
	l0.2-0.5l0.3-0.6l1.3-1.5l0.8-0.6l0.2-0.1l4.5-1.4l0.9,0.2l1.2,1.4l0.7-0.2l0.2-0.3l0-0.3l-0.5-1.1l-0.3-0.2l-1.3-0.7l0.4-0.3
	l0.1-0.2l0.3-0.8l-0.1-0.1L247.5,443.9z"/>

</svg>
