<svg viewBox="0 0 640 640" class="map">

<path id="Peru" fill="#C2240C" stroke="#FFFFFF" d="M132.2,165.2c1.1-2.3,2.2-4.3,3.8-6.2c0.8-0.9,3.7-2.8,3.8-4
	c5.4,1.5-3.6,8.7-0.1,10c0.4,0.2,2.2-1.1,3-1.1c-0.5,0,3.2,1.2,3.1,1.1c1.6,1.3,2.2,5.6,5.2,4.6c2.1-0.7,2.8-5.7,3.2-7.3
	c0.2-0.8,2.6-7.9,3-6.1c1.2-2,1.1-3.3,3.5-4.9c3.1-2,6.9-2.3,10-4.5c2.5-1.8,4.6-4.2,6.1-6.8c0.7-1.2,1.3-2.4,1.8-3.7
	c1.2-3.2,0.1-3,2.6-3.4c-0.7-1.6-0.3-3.2-1-4.8c-0.5-1-2.6-1.9-2.4-3.1c4.2,0.7,6.1-0.8,9.3,3.7c1,1.5,1.4,3.4,2.4,4.6
	c0.7,0.9,2.5,1.6,3.4,2.4c1.5,1.3,1.4,2.2,2.6,3.6c0.8,1.1,2.5,1.5,3.1,2.6c0.7,1.1-0.6,2.6,0.3,3.8c1,1.3,4,1.1,5.4,1
	c0.9,0.3,1.8,0.3,2.7-0.2c1.1-0.4,1.9-1.1,2.4-2.1c0.8-0.1,2.2,1,2.7,0.9c1.2-0.1,3.6-0.8,4.9-0.6c0,0,4.7,2.6,4.7,2.6
	c3.8,4.5-4,6.6-3,10.9c0.6,2.5,1.9,0.1,3.3,1.4c0.3,0.3,3.5,3.9,2,4.3c-0.5-0.9-1-0.8-1.4,0.1c-2.8-3.8-6,0-9,0.9
	c-3.4,1-5.1,0.8-8,3.1c-2.6,2.1-3.8,3.2-4.9,6.1c-0.4,1-1.4,3.7-1.5,4.6c-0.2,1.4,0.8,3.4,0.4,4.5c-0.7,2-2.9,1.9-4,3.6
	c-1.5,2.4,0.2,2.3-0.3,4.4c-0.7,2.9-1.5,0.2-1.6,2.8c0,0.3,1.5,1.8,1.8,2.3c0.7,1.4,1.8,4.3,3.3,6.2c2.2,3,4.5,4.2,1.7,7.8
	c2,1.1,4.6,0,6.6,1.3c2.9,2,0.7,3.5,3.9,4.6c6.3,2.2,6.8-5.4,11.3-5.5c-1.1,4.4-0.7,9.5-0.1,14.2c0.8-0.7,1.9,0.7,2.7,0.8
	c1.5,0.2,3-1.6,4.7-1.2c3.1,0.8,4.7,6.1,6.2,8.8c1.9,3.4,2.7,4.5,2.2,7.9c-0.4,2.9-1.4,5.7-0.8,9c0.5,2.6,1.6,3.3,0.6,6
	c-0.4,1.2-2.1,2.3-2.2,3.7c-0.2,2,1,1.5,1.1,3.1c0.3,2.9-1.4,4.6-0.1,7.6c0.6,1.2,4,3.1,4.1,3.4c0.5,2.9-4.7,6.1-5.3,8.4
	c-0.3,1.3,1.7,1,1.2,2.4c-0.4,1.2-1.7,2.2-2.3,3.4c-0.8,1.9,0.9,3.3-2.1,4.2c-2.1,0.6-3.3-0.9-4.9-1.9c-4.2-2.6-6.2-6.4-10.2-9
	c-7.9-5.2-16.6-9-24.7-14c-3.8-2.4-7.7-6.3-10.7-9.7c-0.9-1.1-5-7.6-3-6.4c0.9-4.4-3.3-10.3-5.8-13.6c-1.7-2.2-1.6-2.8-2.7-4.9
	c-1-1.8-2.6-2.8-3.6-4.3c-4.5-7.1-7.8-16.8-11.7-24.8c-2.2-4.5-5.2-8.8-7.7-13.2c-1.4-2.4-3.1-4.5-5.3-6.3c-1.7-1.3-5.4-2.2-6.7-3.6
	c-1.9-2.1-0.1-1.5,0-3c0.9,0.2,1.4-0.1,1.5-1c-0.1-0.7-0.4-1.4-0.8-2c-0.7-0.8-1.2-1.7-1.8-2.6c-0.6-1-0.5-1.8,0.3-2.4
	C133.6,168.3,132.7,166.9,132.2,165.2"/>
<path id="FrenchGuiana" fill="#C2240C" stroke="#FFFFFF" d="M348.9,102.4c3.6-0.2,4.9-10.8,4.3-12.9c-0.8-2.6-2.3-3.8-2.6-6.8
	c-0.2-2.3-0.1-4,0.8-6c0.2-0.4,3-4.6,3.1-4.7c2.2-1.4,2.6-0.2,5,0.8c2.8,1.2,3.4,1.6,5.6,3.4c2,1.6,3,2.2,2.5,4.2
	c0.4-2,5.3,1.6,2.4,3.5c1-0.4,0.6-2.8,1.7-2.6c1.2,0.2,1.1,3.6,1,4.2c-0.3,2.4-2.1,4.5-3.3,6.5c-1.7,2.7-2.7,5.9-4.4,8.6
	c-2.6,4-4.1,2.6-7.3,2.4C354.6,102.6,351.8,105.5,348.9,102.4"/>
<path id="Bolivia" fill="#005FAB" stroke="#FFFFFF" d="M230.5,224.7c2.2,0.1,4.5,0.6,6.7,0.7c0.7,0-0.4,1.3,1.4,0.7
	c1.2-0.4,1.8-1.2,2.7-1.8c0.2-0.6,0.6-1.2,1-1.7c0.8-0.5,1.7-0.6,2.6-0.3c2.6-1.7,4.9-4.5,7.6-6.2c3.3-2.1,8.2-0.6,10.7-2.9
	c2.4,1.6,1.1,7.9,1.2,10.3c0.2,2.8,0.2,5.6,2.1,8.4c1.7,2.4,3.3,3.1,5.7,4.9c1.1,0.8,0.9,1.6,2.6,2.2c1.6,0.6,2.9-0.3,4.5,0.1
	c3.4,0.9,4.1,2.3,6.7,4.1c1.3,0.9,3.2,0.9,4.5,1.7c1.5,0.9,2.1,2.4,3.6,3.2c3.7,2.2,9.2-1.1,11.8,4.2c0.6,1.3,0.8,3.8,1.2,5.2
	c0.8,2.7,2.7,5.1-0.7,5.5c0.1,1.8,2.2,3.3,2.8,5c0.7,1.8-0.4,4.1,1.5,5.5c2.5,1.9,11.5,1.2,14.2,0.6c0.1,3.9-1.7,6.5,1.8,9.8
	c1.2,1.1,2.5,0.8,3.5,1.8c1,1,2.3,4.6,2.5,6c0.3,2.8-0.7,6.8-1.4,9.4c-0.5,1.8-1,2.9-1.1,4.8c-0.1,2.9,2.9,1.3-0.5,3.8
	c1.3-4.4-7.2-8-10.4-8.3c-4.8-0.4-10.6,1.4-15.1,2.9c-9.2,2.9-6.3,16.8-8.2,24.6c-2.7-2.2-5.1-3.4-9-1.7c-2.9,1.2-3.3,3.8-3.7,7.6
	c-2.4-3.4-2.4-6.4-7.2-7.1c-1.6-0.2-3.1,0.5-4.7,0c-1.8-0.6-2.7-2.5-4.6-2.9c-0.3,3.1-3.4,5.3-5.5,7.6c-1.4,1.6-3.2,4-5.8,2.4
	c-1.1-0.7-0.4-1.9-0.8-2.9c-1.6-3.6-2.4-7.8-4.1-11.3c-0.9-1.7-2.3-2.9-3.2-4.5c-0.2-0.7-0.2-1.5-0.2-2.2c-0.7-0.6-1.3-1.2-2-1.8
	c-0.2-0.9-0.5-2-0.6-2.8c0.7-0.3,1.3-0.7,1.7-1.4c-0.2-0.7-0.6-1.4-1.2-2c0.1-0.6,1.4-2.5,1.1-3.1c-0.7-1.7-2.8-2.6-3.8-4.2
	c-0.8-1.2-1.4-3-1.8-4.4c-0.5-0.9-0.8-1.9-0.9-3c0.7-1,0.5-1.5-0.7-1.6c-0.8-1.5-2.5-6-4.3-6.4c0.4-2.5,6.7-6.4,5.4-9.5
	c-0.2-0.5-2.4-0.5-3-1.1c-0.9-1-1.6-2.7-1.6-4c-0.1-1.4,1.1-2.3,1-3.5c0-1.5-1.5-2.6-1.5-3.9c0-2.8,2.7-4.9,2.9-7.8
	c0.1-2.6-1.7-6-1.4-8.9c0.2-2.5,2-3.9,1.6-6.3C237.7,234.1,232.4,228.3,230.5,224.7"/>
<path id="Brazil" fill="#009542" stroke="#FFFFFF" d="M193,193.2c1.6-1.7,1-2.8,1.7-4.4c1-2.2,2.2-2,3.6-3.8
	c2.6-3.4,0.1-10.2,2.9-13.8c0.9-1.2,3.5-2.5,4.8-3.5c2.8-2.2,4.8-2.1,8-3.1c3.2-0.9,5.9-4.5,8.6-0.7c1.2-1.4,1.3-0.3,2.3-2.9
	c1.3-3.4,1.1-8.1,1.5-11.6c0.8-6.2,3.9-14.1,0.4-19.8c-1.5-2.6-3.4-3-3.7-6.4c-0.4-3.5,0-4.6,3.2-5.3c0.8-0.2,3.7,0.2,4-0.3
	c1.8-2.7-3.7-4.7-5.5-3.5c0.6-4.9-0.9-6.3,4.3-6.1c1.7,0,5.4,0.6,7,0.1c0.7-0.2,3-2.4,2.7-2.4c1.3,0.1,0.2,2.1,2.1,2
	c1.7-0.1,1.6-3.5,3.8-3.1c3.6,0.7,1.8,6.8,3.1,8.4c-0.2-0.3,3.1,1.7,3.4,1.9c2.3,1.3,2.2,2.3,4.9,1.8c1-0.2,1.9-2.6,3.2-1.9
	c1.3,0.6-0.1,2.4,0.6,3.3c1.6-0.5,3.6-4.1,5.1-5.1c0.7-0.6,4.8-3.3,4.7-1.6c1.9-3.1,3.1-4.1,5.5-6c4.7-4,1.2-2-1.6-4
	c-1.9-1.3-1.8-6.5-2.6-9c-0.4-1.4-5.3-6.5-4.1-7.8c1.8,0.8,3.3,1.8,5.2,2.3c0.7,0.2,1.3,0.7,2.5,0.9c0.8,0.2,2.1,0.1,2.8,0.4
	c1.1,0.4,2.2,2.1,3.3,2.4c3.6,1.1,0.8-0.7,2.2-2.4c2.2-2.9,6.5-2.1,10-3.9c1.8-0.9,11-5.2,6.8-8c1.3-0.2,4.2-0.8,5.3,0.1
	c2.2,1.9-1,3.8-0.2,5.7c0.5,1.2,2.4,0.8,3.1,1.6c-0.3-0.3,0.6,3.5,0.5,2.8c0.4,2.6-0.8,4-1.8,6.7c-1.7,4.4-1.2,6.8,0.3,11
	c1.1,3.1,0.7,3.3,3.2,5.7c2.7,2.5,3.6,3.5,6.9,2.2c0.5-0.2,0.2-1.3,1-1.8c0.8-0.4,1.9,0,2.7-0.3c2.3-0.8,4.2-3.1,6.4-3.8
	c2.4-0.8,6.9,1.8,9.3,0.9c4-1.4-0.9-2.4,0.5-4.6c0.6-1,7.7-2,8.8-1.8c1.9,0.3,3.2,2.8,5.2,3.3c3.1,0.9,1.7-0.7,4.4-1.4
	c2.2-0.6,4.3,1.5,5.8,1.4c3.7-0.2,4.9-4.3,6-7.2c0.8-2.1,1.6-4,2.9-5.8c0.9-1.2,1.8-2.3,2.7-3.5c1-2.3,1.7-2.3,2.2-0.1
	c-0.7-1-0.8-2.1-0.3-3.2c2.2,1.4,2.6,3.9,2.4,6.3c0-0.8,0.3-1.5,0.8-2.1c-0.1,3.7,0.5,7,1.7,10.5c0.4,1.4,2.3,4.6,0.8,5.8
	c-0.7,0.2,5.1,2.9,5.1,2.9c1.8,1.5,2.8,4.1-0.2,5.4c3.1-0.9-2.3,5-3.4,6.3c-2.5,3.4-6.2,6-8.2,9.8c-1.2,2.2-1.3,5.1-3.2,6.8
	c-1.2,1-5.4,0.7-6.3,3c0.6-0.1,4.9-0.9,3.7,0.9c2.9-3.2,8.3-3.1,10.8-7.3c2.3,1.4,0.4,6.7,2.7,8.5c1.6,1.2,5.9-1.1,6.2,1.8
	c-0.2-1.3,3.5-2.5,4.5-2.7c-0.8,2.5-1.7,5-1.6,7.7c1.7-2.1,1.3-4.5,3.3-6.6c2.1-2.3,2.5-3.4,5.2-1.7c-0.9-1.6-0.3-2.2,2-1.8
	c-0.9-0.3-1.7-0.2-2.5,0.1c-0.3-1.5,2.4-5.8,3.6-6.4c2.2-1.2,3.3,0.5,5.3-0.2c-0.5-0.5-0.6-1-0.3-1.7c0.6,0.2,2.5,0.6,2.1,1.8
	c0.8-0.5,2.8,1.9,2.9-0.5c-0.4,1,1,1.2,0.6,2.2c0.1-0.7,0.5-0.9,1.1-0.8c0,0.7-0.4,1.1-1.1,1.3c1.8-1,3.6,1.7,4.4-0.2
	c-0.2,1,0.9,3.1,1.8,1.3c-0.2,1.3,1.5,1.4,2.1,0.8c0.1,1.2,1.8,2,2.5,1.3c-2.8,2,1.9,0.3,0.9,0.5c-0.8,0.8-0.5,2.5,0.2,3.2
	c1.3-2.4,0.6-1.9,2.4-1.3c0-0.7,0.3-1.1,0.9-1.4c-0.3,0.5,0.2,3.3,1.3,2.6c-1.8,1.7,0.5,0.6,0.8,0.2c-0.6,1.3,1.7,4-1.6,5.1
	c0.7-0.3,1.1-0.1,1.3,0.6c0-0.3,1.5-3,2-1.2c0.6,2-0.7,1.2-1.3,2.8c-0.2,0.8-2.1,6.5-1.5,7.2c0.1-1.5,1.9-1.9,2.4-3.1
	c0.7-1.4,0.1-3.2,1.2-4.3c3.8-3.9,0,3.1,0.1,2.8c0.7-0.5,1-0.3,0.8,0.5c1.9-0.9,2.2-2.6,4-3.4c1.7-0.8,3-1,5.1-0.6
	c1.1,0.2,9.8,5.2,9.2,2.9c1.3,0.3,4.7,1.7,5.7,2.6c0-2.2,6.3-2,7.6-1.9c3.8,0.3,6.8,2.6,9.7,4.8c3,2.3,5.6,4.2,8.1,7
	c2.2,2.4,4.5,4.8,7.3,6.5c2.3,1.4,4.6,2.6,7.2,2.7c3.8,0.3,6.3-0.9,8.8,2.8c1.6,2.3,1.1,5.1,1.8,7.6c0.7,2.5,3.3,5.3,1.8,8.2
	c1.9-2.9,0.9,3.3,0,4c3.6,0.9-4.1,21-6.6,18.9c0.1,0.8-0.3,1.6-0.9,0.5c0.4,1.4,1,0.6,0,2.5c-0.8,1.5-1.8,3.1-3,4.3
	c-1.4,1.4-3.9,3.6-5.6,4.5c0.1-0.7-0.2-1.1-0.9-1.3c0-0.1,0.9,5-1.1,2.5c1.6,2.1-0.7,3-0.4,2.2c-0.6,0.9-1.7,2.6-0.1,2.1
	c-2,2.9-3.7,14.6-8.7,13.8c0.8-1.7-1.1-2.3-1.6-3.6c0,0.7-1,3.2-1.7,1.4c0.8,2.7,0.8,1.4,0.1,4.4c-0.4,1.8-1.1,1.4-1.1,3.6
	c0.7-3.2,2.1,3.5-0.1,1.2c1.4,1.2,0.4,5,1.6,1.6c0.1,3.2-0.8,6.2-0.5,9.4c0.3,3.3,1.8,6.3,1.7,9.6c-0.1,2.9-1.2,5.5-1.5,8.3
	c-0.3,2.8,0.6,5.7-0.3,8.2c-0.8,2.3-2.7,3.7-3.2,6.4c-0.4,2.5,0.7,4.9,0.5,7.3c-0.1,1.3-2.8,9.4-4.4,9.6c2,1.8-1.6,3.5-2.3,4.7
	c-1.7,2.7-1.3,5.7-1.8,8.6c-0.7,4-2.4,2.8-5.3,5.3c-1.2,1.1-2.6,4.2-1.8,6c-3.1-3.4-8.1,3.3-8.5-2.8c-2.3,0.3,0,2-1.3,3
	c-1.4,1.2-4.2,0-5.9,0.9c0.9-0.5,1.9-0.8,3-0.8c-1.7-1.5-11.5-0.8-7,2.5c-1.3,1.1-3.3,0.9-4.9,2.1c-0.9,0.7-2,2.6-2.6,2.8
	c-0.6,0.3-3.7,0.1-4.5,0.3c-0.3,0-0.9,1.1-1.2,1.3c-0.6,0.3-0.3-1-1.3-0.9c0.4,1.1-10,9.7-11.6,10.7c1.4,0.8-0.9,2.2-1.5,3.5
	c-0.4-2.8,0.7-0.5-1.9-1.8c0.4,1.6-0.8,2.3-2.1,1.2c0,1,2.2,1.8,3,1.8c-1.2,1.1-1.4,1.7-2.6,2.7c3.7-0.1,0.3,3.7,0,2.3
	c1.4,2.9,2.9,7.5,3.3,10c0.1,0.8,0.1,3.7,0.2,5.2c0.1,1.1,0.4,8.3-1.5,5.3c0.1,0.7,0.4,1.3,1.1,1.7c-2,2.9-4.9,4.2-6.5,7.6
	c-1.5,3.3-1.9,6.9-3.1,10.3c-2.2,6.6-6.5,10.3-10.9,15.4c0.2-1.1,0-2.1-0.4-3.2c2.2,0.6,4.3-1.5,5.3-3.3c0.3-0.6,0.8-4.3,1.9-3
	c-0.4-1.4,1.1-3,1.5-4.3c0.2-0.5-0.9-3.5,0.7-2.1c0.3-2.7-3.1-2.4-3.1-0.3c-0.7-0.8-2.2-3.1-3.1-3.5c-0.1,2.2,1.5,1.8,1.8,3.5
	c0,0-0.6,3.1-0.6,3.6c-0.8-3.6-0.6,0.3-1,1c-0.7,1.3-2,2.6-2.6,3.8c-0.6,1.2-2.4,8.2-0.5,6.7c0.4,2.6-2.9,13.5-6,14.6
	c-2.2,0.8-3.4-1.9-3-4.3c0.6-3.7,3-2.6,0.1-5.7c-3-3.3-7.1-6.8-10.9-9.3c-1.4-0.9-2.8-1.6-4.2-2.4c-1.7-1-3.8-3.5-5.7-4
	c0.9,2-1.9,1.6-2.5,1.3c-0.3-0.2-0.9-2.3-1.3-2.7c-0.8-1.1-2.2-1.8-3.3-2.7c-1.2-1-2.6-2.8-4.3-2.9c-1.8-0.1-3,3.7-5.2,0.9
	c2.6-1,10.4-18,12.1-16.3c0.3-0.7,0.1-1.1-0.6-1.4c2.6-3.1,6.5-6.1,9.9-8c3.7-2.1,4.1-2.8,3.9-7.3c-0.2-2.6-0.6-8.6-3.6-9.5
	c-1.7-0.5-2.9,1.1-3.7,0.4c-1.7-1.4-0.6-2.5-0.5-4.4c0.1-2.2,1.8-8.1,0.8-10c-2.3-4.4-6,0.8-8.9-1c-5.8-3.7,0.2-15.4-9.5-16.3
	c-3.2-0.3-6.1,1.1-9.9-0.3c-3.6-1.3-3.4-0.8-3.5-5.5c0-3.6,0-5.6-1.3-8.2c0-0.1-1.6-3.7-1.6-3.4c0-0.4,1-2,1-1.9
	c0.1,0.7,0.6-1.9,0.5-1.6c-1-0.6-1.5-1.5-1.6-2.7c0.1-0.8,0.4-1.6,0.7-2.4c0.8-3,2.7-7.3,2.4-10.6c-0.3-3.1-3.1-5.2-4.9-6.8
	c-1.3-1.1-2.3-1.5-3.1-3c-1.6-3,0-4.8-0.1-7.7c-2.7,0.6-11.6,1.2-14.1-0.7c-1.9-1.4-1-3.5-1.6-5.4c-0.6-1.8-2.7-3.1-2.8-5
	c3.8-0.4,1-3.8,0.4-6.7c-0.2-1-0.4-3.5-0.8-4.3c-3-5.1-7.8-1.8-11.6-3.7c-1.2-0.6-1.5-2.1-2.4-2.9c-1.1-0.8-2.9-1.2-4.2-1.9
	c-0.9-0.5-1.6-0.9-2.5-1.4c-2.1-1.2-1.5-1.1-3.9-1.7c-5.5-1.5-11.1-3.3-14.7-8.3c-1.8-2.5-2-5.7-2.2-8.4c-0.7-0.9-1-1.9-0.8-3
	c0.1-0.9,0.4-1.7,0.9-2.4c0-1.8,0.3-4.1-1.4-5.3c-2.1,2-4.8,0.7-7.5,1.5c-2.5,0.7-5.1,2.7-7.2,4.4c-0.3,0.2-2.7,2.7-3,2.8
	c-0.4,0.2-1.6,0.2-1.7,0.3c-1.2,0.9-3.6,3.9-5.5,4.1c-1.1,0.1-2.1-0.9-3.3-1.3c-1.3-0.4-4.4-0.8-5.7-0.6c-1.7,0.2-3.3,1.5-5,1.3
	c-4.6-0.4-3.2-11.4-2.4-14.9c-4.6,0.1-4.8,6.9-10.8,5.5c-3.5-0.8-1.3-1.6-3.6-4.1c-2.1-2.2-4.8-0.7-7.3-2c2.7-3.5-0.4-5.8-2.4-8.8
	C195.9,198.3,194.9,196.1,193,193.2 M379.9,137.4c1.5,2.4,2.4,2.7,3.5,2.8c0.9,0.1,5.2,0.3,5-0.8c0.8,1.4,2.1-0.1,2.1-1.4
	c1.1,4,6-2.8,6.5-3.9c1.9-4,4-7.7-1.2-8.6c-3.4-0.6-5.3,0.5-8.7,0c-1.5-0.2-3.3-1.2-4.9-0.3c-1.5,0.9-2.9,4.2-0.3,4.9
	c-1.4-0.3-3,0.3-1.9,2.3c1.2,2.2,0.2,0.4,2.4,1c-0.9,1.6-1.2,0.5-2.7,0.8C380,135.3,380.1,136.3,379.9,137.4 M436.2,344.6
	c-0.2-0.6-0.2-1.3-0.1-1.9c-0.9,0.1-1.4,0.6-1.5,1.5C435.1,344.4,435.6,344.5,436.2,344.6 M442.8,337.7c0.6-0.1,1.2-0.5,1.5-1
	C443.6,336.2,442.5,336.8,442.8,337.7 M479.5,248.8C480.6,245.8,477.5,248.3,479.5,248.8 M480.5,244.9c0.6-0.6,2-1.5,0.8-2.3
	C481.6,243.5,480.5,243.9,480.5,244.9 M480.5,243.9C480.8,243.9,480.8,243.9,480.5,243.9 M493,226.4c0.3-0.4,0.5-0.9,0.6-1.4
	C493.3,225.4,493.1,225.9,493,226.4 M510.4,195.3c0.1,0.2,0.2,0.4,0.2,0.5C511,195.1,510.9,194.9,510.4,195.3 M503,213.5
	c-0.2-0.2-0.4-0.5-0.6-0.7C502.6,213.1,502.8,213.3,503,213.5"/>
<path id="Venezuela" fill="#C2240C" stroke="#FFFFFF" d="M198.7,39.4c4-4.7,3.4-11.2,7-16c3.2-4.3,6.8-6,11.2-8.7
	c-1.4,3.5-5.6-0.1-5.2,5.2c0.2,2.2,2.3,2.6,1.9,5.3c-0.5,3.2-3.7,5-3.9,8c-0.1,0.7,2.3,6.6,2.6,6.8c3.3,1.7,5.5-2.5,5.5-5.3
	c-0.1-3-3.1-4.9-3.3-7.8c-0.3-3.2,2-4.7,5-6c1.2-0.5,8.7-2.2,6.9-3.8c1.7,0.7,2,0.7,3,0.5c0.2-0.6,0-1-0.6-1.4
	c-1.1,0-2.1,0.2-3.1,0.5c0.4-2.5,3.6-0.1,4.1,0.1c1.4,0.4,2.7,0.6,4.4,0.9c2.4,0.4,5.3,1.5,6.4,3.9c0.8,1.8-0.7,3.7,1.1,5.2
	c3.8,3,11.3-2.8,15.8-0.7c2.6,1.3,6,4.7,8.3,4.7c1.9,1,4.5-1.3,6.1-2.1c1.9-1,4.3-0.7,5.9-1.6c-1.2-1.3-3.8,0.2-4.7-1.5
	c1.7,0,13.7-1.2,10.5,1.5c0.6-0.5,1-0.4,1.3,0.3c-0.7,0-1.1,0.3-1.2,1c1.7-1,4.3,2.3-0.5,2.1c0.5,2,3.6,0.5,3.3-1.1
	c1.2,0.2,2.3,3.8,2.1,4.8c0.6-0.7,0.8-1.5,0.6-2.4c0.8,1,0.9,2,0.2,3.1c1.6-1.2-1.1-3.2,1.6-2.1c-0.4-0.4-1.4-0.6-1.6-1.1
	c0.2,0.7,4.3,0.4,3,3.1c0.5-1,0.5-1.8,2.2-1.3c-1.3-1.4,3.2,1.5,3.6,1.8c3.8,3.1,1.1,1.6-0.1,5c1.8-2-0.3,3-0.9,3.5
	c-0.9,0.8-3.3-0.1-3.8,0.7c2.4,1.4,3.6,1.4,5.2,1.1c1.3-0.3,4.5-1.9,5.9-1.6c7.8,1.6-0.2,5.6-2.1,7.8c-2.1,2.5-1.2,3.6-0.3,5.8
	c0.2,0.4,1.7-0.4,1.7,0.7c0,1.1-2.6,2.5-3.3,2.8c-1.3,0.6-2.5-0.4-3.7,1.4c-0.7,1.1,0.6,2.1,0.1,3.2c-0.3,0.6-1.6,1.8-1.6,2.2
	c-0.3,4.9,9.8,9.2,2.1,13.8c-1.2,0.7-3.4,1.8-4.7,2.4c-2.5,1.2-6,0.4-8.1,1.8c-2.4,1.6-0.6,4.7-3.6,4.2c-0.8-0.1-1.2-2.2-1.9-2.5
	c-1.3-0.5-1.3,0.2-2.6,0c-4.2-0.6-5.9-2.1-9.6-3.7c-1,1,3.6,6.9,4.2,8.5c1.4,3.8,0.3,6.9,3.6,8.7c0.6,0.3,2.3-0.5,2.8,0.1
	c1.3,1.7-1.5,2.6-2.4,3.4c-0.8,0.8-2.1,0.5-2.9,1.3c-0.7,0.8-1.8,3.7-2.5,4.8c0.1-2.7-9.5,6.7-9.7,6.7c-1.1-1.3,1-2.3-0.8-3.2
	c-0.6-0.3-3.5,1.8-3.9,1.8c-3.4,0.1-5.2-2.8-6.4-5.6c-0.5-1.2-3.5-15.8-7.4-12.8c-0.1-2.8,4.3-3.4,4-6.3c-0.2-1.9-2.6-4.1-3.1-6.2
	c-1.2-4.8-0.3-10.3,1.7-14.4c5-10.1-10.1-1.9-14.5-3.8c-1.3-0.6-2.4-3.7-3.2-4.8c-1.7-2.5-2-2.7-4.8-3.4c-3.3-0.8-9,1.6-12.2,0
	c-0.5-0.2-4-4.2-4.1-4.8c-0.5-2.4,1.7-3.9,1.6-6.1c-0.1-1.6-2.2-3.6-2.8-5.2c-0.9-2.1-1.5-3.4-2.2-5.1
	C200.9,38.9,199.9,39.4,198.7,39.4 M296.7,45.8c0-1.2-1.6-1-2.3-0.6C295.1,45.5,295.9,45.6,296.7,45.8 M297.4,43.8
	c0.8-0.3,1.8-0.1,2.2-1.1C298.6,42.2,297.9,43.1,297.4,43.8 M297.7,45.6c0.3-0.3,0.7-0.7,1-1C296.9,44.4,296.6,44.7,297.7,45.6
	 M298.4,44.3c0.3-0.2,0.5-0.3,0.8-0.5C297.3,43.7,297.1,43.9,298.4,44.3 M299.3,44.5c0.3-0.1,0.6-0.2,0.9-0.3
	C299.5,43.8,299.2,43.9,299.3,44.5 M299.6,42c0.2-0.3,0.4-0.5,0.5-0.8C299.7,41.1,297.8,42,299.6,42 M300,40
	c0.1-0.3,0.2-0.5,0.2-0.8C299.3,39.5,299.2,39.7,300,40 M300.1,40.3c-0.9,0.1-1.7,0.7-2,1.5C298.8,41.4,299.3,40.7,300.1,40.3
	 M300.3,39.9c0.3-0.2,0.5-0.4,0.8-0.6C300.7,39.3,300.4,39.5,300.3,39.9 M265.2,23.6c0-0.3,0-0.6,0-0.8
	C264.1,23.3,264.1,23.6,265.2,23.6 M285.2,27.3c0,0.6,0.5,1.3,1,1.6C286,28.3,285.7,27.8,285.2,27.3"/>
<path id="Colombia" fill="#005FAB" stroke="#FFFFFF" d="M150.9,109.3c-0.3-0.1-0.6-0.2-0.8-0.2c0.3-1.8,2.4-2.4,3.8-1.5
	c0.8-1.6-1.3-3-0.4-4.6c1-1.8,2.1-1.4,3.7-2.1c1.7-0.7,2.5-0.5,3.6-1.8c0.8-0.9,0.1-2.4,0.5-3c-0.2,0.4,2.4-2.7,2.3-2.6
	c1.4-1.7,2.4-3.5,3.1-5.3c-0.8,0.4-1.5,0.3-2-0.5c0.6-0.2,1-0.6,1-1.2c-0.5,0.1-1,0.3-1.5,0.6c-1.5,0.3,1.2-2.5,1.2-2.4
	c-1,0-0.9-8.4-0.9-9.4c-0.2-0.9-0.4-1.9-0.6-2.8c0.4-0.6,0.9-1,1.5-1.4c0-1.4-0.8-2.1-0.8-3.3c-0.1-2.2,0.8-3.2-0.2-5.7
	c-1.2-2.9-4.5-6.1-1.4-9.2c1.6,1.9,3.6,0.4,4.1-2.4c0.5-2.6-2.5-4.1-0.9-6.6c0.6,0.8,4.3,7.1,3.9,7c1.1,0.3,0.4-3.9,0.4-4.2
	c0.4-2-0.5-1.3,1.3-3.3c1.2-1.3,3-2.5,4.2-3.8c0.8-0.8,1.5-1.6,2.4-2.3c0.7-0.6,1.8,0.1,2.4-0.9c0.5-0.9,0.3-4.1,0.6-5.4
	c0.3-1.1-0.1-2.3,0.8-3.8c0.5-1,2.4-3.1,3.4-3.9c3.1-2.4,2.5-0.8,6.3-0.8c-1.4-0.2-2.9,3.7,0.5,0c2.7-3,1.8-2.3,6.2-2.8
	c3.1-0.3,6.5-2.9,9.2-4.7c1.2-0.8,1.9-1.8,2.8-2.6c-0.6-1-0.4-1.5,0.6-1.5c0.8-0.2,1,0,0.5,0.8c1.9-0.3,0.6-2.6,3.8-2.4
	c1.8,0.1,3.4,1.7,2.9,3.4c-0.6,2.2-5.4,2.7-6.9,3.9c-1.2,1-2.7,3.1-3.7,4.3c-1,1.2-2.2,1.9-3.1,3.5c-2.7,4.9-2.3,10.3-6.1,14.7
	c1.2,0,2.2-0.4,3.1-1.2c0.9,2.4,3.4,5.5,4.3,8.8c1.1,4.3-2.3,7.1,1.9,10.6c3.4,2.8,7.7,0.9,12.1,1.3c5.8,0.5,5,5.9,9.2,8.2
	c3.8,2,9.3-1.3,13.1-0.9c5.9,0.6,1.2,4.7,0.2,8.2c-1.3,4.2-1.2,10,0.8,14.1c1,1.9,2.9,2.7,2.1,5c-0.7,2-4.2,2.2-4.1,4.8
	c2.7-2.1,5.3,5,5.6,6.3c0.3,1,2.7,11.1,0.3,7.3c-0.9-1.5,0.5-7.5-3-7.4c-1.3,0.1-1.9,2.8-3.2,3.1c-1.2,0.2-2.1-2-2.8-1.6
	c-1.5,0.9-0.3,1.5-2.6,2.2c-1.7,0.5-4.8,0-6.6-0.1c-5.8-0.1-3.7,1.2-4.3,6.1c1.5-1,4.8-0.2,5.5,1.5c1.3,2.8-1.3,1.6-2.2,1.8
	c-5.6,1.4-6.8,4.4-3.5,9.8c2.9,4.8,4.1,7.5,3,13.6c-1.3,7.4-0.9,15-3.2,22.2c-0.8-2.1-2-2.5-3.4-3.8c-0.6-0.5-1.8,0.7-2.4-0.4
	c-0.7-1.3,1.6-4.1,2.2-5.2c1.8-3.2,2.9-3.5,0.5-6.3c-1-1.2-4.6-2.1-5.9-2.4c-2.5-0.5-5.3,0-7.8,0.6c-2.3,0.6-6.6,2.9-8.8,0.1
	c-0.7-0.9,0.2-2.2-0.3-2.9c-0.7-0.9-2.1-1.5-2.7-2.3c-1.7-2.7-1.3-3.5-3.9-5.5c-2.3-1.8-2.4-2.1-3.8-4.6c-1.4-2.5-3.2-4.7-6.1-5.6
	c-1.4-0.4-2.1,0.2-4.1-0.6c-1.8-0.7-3.7-3.8-5.6-4c-0.4,0-2.3,1.4-3.5,1.6c-2.2,0.2-4.4-1.1-5.7-2.3c-1.6-1.4-2.3-2.2-4.3-3.4
	C155.8,114.1,153,112.1,150.9,109.3 M159.8,100.1c0.5-0.3,0.4-0.6-0.5-0.8C159.5,99.6,159.7,99.9,159.8,100.1 M162.2,94.8
	c-0.3,0.2-0.5,0.5-0.7,0.8C162.3,95.8,162.6,95.5,162.2,94.8 M162.9,85.3c0.2,0.3,0.4,0.6,0.7,0.8C163.4,85.9,163.1,85.6,162.9,85.3
	 M164.4,76.3c0.1-0.3,0.1-0.6,0.2-0.8C164.5,75.7,164.4,76,164.4,76.3 M157.5,100.7c0.6-0.4,0.1-0.9-0.4-0.9
	C157.1,100.1,157.3,100.4,157.5,100.7 M157.5,100.7C157.7,100.9,157.6,100.8,157.5,100.7 M160.5,100c-0.1-0.5-0.1-0.7-0.7-0.8
	C160,99.5,160.2,99.7,160.5,100 M164,84c-0.3,0.3-0.5,0.6-0.8,0.8C165.1,85,165.3,84.7,164,84 M164.4,84.3c0,0.2,0.1,0.3,0.3,0.2
	C164.7,84.5,164.5,84.4,164.4,84.3 M191.7,22.7C192.6,22.4,192.6,22.4,191.7,22.7"/>
<path id="Argentina" fill="#C2240C" stroke="#FFFFFF" d="M248.1,393.4c0.4-0.6,0.8-1.1,1.2-1.7c0-1.2-0.1-2.3-0.3-3.5
	c0.3-2.7,1.9-4.3,2.9-6.7c0.8-2.1,0.3-5.8,1.9-7.5c1.2-1.3,3.2,0.2,3.4-2.4c0.1-1.3-2.5-2.9-2.8-4.4c-0.2-1.3,0.7-2.7,0.4-4.2
	c-0.2-1.2-4.1-7.4-0.8-7.5c-1.9-4.9-1.4-5.5,3.2-8.2c3.6-2.1,5.2-4.8,4.8-9.4c-0.4-3.7-1.4-3.3,0.5-6.7c1.5-2.6,4.3-3.4,4.6-6.6
	c1.8,0.4,2.5,2.2,4.2,2.8c2,0.7,3.8-0.3,5.7,0.1c4.1,0.8,4.4,4.3,6.5,7.2c0.6-5.6,1.5-8.3,7.4-8.1c4.7,0.2,7.1,4,10,7.5
	c3,3.8,8.1,8.1,12.4,10c2.5,1.1,5.1,1.2,7.6,2.4c2.5,1.3,4.5,3.5,7,4.8c3.1,1.7,10.6,2.7,11.8,6.5c0.7,2.1-1.5,4.6-2.2,6.5
	c-0.7,2-0.8,3.9-1.4,5.9c-0.4,1.2-2.4,3.1-2,4.4c0.3,0.9,5.7,0.8,7.3,1.1c4,0.9,7.5,0.9,11,2.3c1.8-3.8,2.5-0.6,4.6-1.7
	c1.8-1,0.5-1.7,1.6-3c0.7-0.8,1.8-0.7,2.4-1.4c0.9-1,2.2-2.6,2.6-3.7c0.6-1.7-0.9-7.4,0-8.3c-0.3,0.3,3.5-0.6,3.5-0.6
	c1.7,0.4,2.3,1,3.2,2.5c1.5,2.4,2.8,9,1.6,11.6c-0.9,1.9-5.6,3.7-7.8,5.3c-1.9,1.4-4.3,3.7-6,5.7c0.7,0.3,0.9,0.7,0.6,1.4
	c-1.3-1.3-8.5,11.4-9.3,12.5c-1.3,1.9-3,3.7-3.6,5.7c-0.6,2.1,0.2,4.3,0,6.6c-0.1,2.4-0.6,4.8-0.4,7c0.1,1.7,0.3,3.5,0.7,5.1
	c0.2,1,1.3,3.7,1.2,4.4c-0.2,2.3-2.3,3.9-1.5,7.2c0.2,0.9,3.8,5.7,1.1,5.5c2.7,2.2,4.4,3.9,7.6,5.7c3.8,2.1,4.4,3,5.1,6.8
	c0.7,3.5,1,4.1,3.8,6.4c2,1.6,0.7-1.3,2.6,1.2c0.5,0.7,0.8,3.5,0.8,4.1c-0.3,2.9-2.8,6.4-4,9.1c-1.6,3.7-3,4.9-7.4,6.4
	c-4.2,1.4-8.9,2.3-13.2,3c-5.6,0.9-8.7-0.6-13.8-1.3c0.6,1.2,1.1,2.5,1.7,3.6c0.1,0.2,2.9,2.4,1,1.6c1,0.7,2.8,5.4,0.6,4.2
	c0.2,1.1,0.4,8.8,3.1,7.4c-1.5,9-14.8,2.2-19.4,1.5c1.8-0.4-0.3-0.9-0.6-0.7c-1,0.8-1.1,1.6-1,2.9c0.1,1.5,1.6,2.4,2.2,3.7
	c0.5,1.1,0.6,3.4,1.2,4.4c1.2,1.8,2.9,2.4,4.8,3.3c1.7,0.7-1.2,1,1.7,1.2c0.4,0,2.6,0.2,2.4-0.6c-0.2-0.9-2-0.9-2.6-1.2
	c3.2,0.5,3.8-2.7,6,1.5c1.1,2.2,1,5.1-2.3,4.4c-0.9-0.2-5.1-6.8-6.4-1.9c-0.6,2.2,3.6,3.1,5.1,2.7c-0.4,2.7-5.5,3-4.9,7.1
	c0.4,2.7,2,4.5,2,7.4c0-1.1-1.2,2.4-1.1,2.1c-0.6,1.4,1.8,0.3,0.1,1.9c-0.7,0.6-6.7-0.7-5.1,1.9c-3.5-0.7-5.1,4.8-4.7,7.5
	c0.5,3.4,4.4,5.8,7.2,7.5c2.9,1.7,7.7,0.8,9.9,3.1c2,2.1,1.5,6.3-2.1,5.9c1.2,0.5,3.9-1.5,4.4,1c0.2,0.7-2.5,2-3,2.6
	c-1.4,1.4-3,3-4.1,4.7c-0.8,1.3-1.2,4.6-2.2,5.4c0.7,0.1,1.1-0.2,1.2-0.9c0.1,2.1,2.3,5.6-0.2,6.9c-3,1.7-3.6-2.6-6.1-3
	c0.5,0.2,2,1.3,1.5,2.1c-0.8,0.2-1.6,0.4-2.4,0.5c1.9-0.8,3.1,0.6,4.8,0.9c-0.2,1.4-2.4,1.6-3,2.9c-0.7,1.9,0.7,3.7-0.4,5.6
	c1.3-1.6,4.2,1.8,4.2,3c-0.1,2.6-1.5,0.3-3.3,1.8c3.9-1.3,10,3.4,11.3,6.7c-1.8-3-13.4-3.4-16.4-3.4c-5.2-0.1-10.6,1-14.2-3.6
	c-1.2-1.6-1.4-6.3-3.6-7.9c-1.3-1-2.6-0.2-4-0.3c-2.3-0.2-0.8,1.1-3.3-1.1c-4.8-4.1-7.3-9-4.2-14c0.2-0.3,1.5-0.3,1.6-0.6
	c0.3-1.6-0.7-2.1-0.7-3.4c0-0.7,1.1-1.3,1-1.5c-0.1-0.5-0.7-1.5-0.9-2.2c-0.6-1.8-1.9-1.7-2-4c0-1.1,0.4-4.3,2.1-4.1
	c-0.3-0.8-1.5-1.2-1.5-2.2c0,0,0.5-3.1,0.6-2.3c-0.4-2.3-1.2-3.7-3.2-5.2c3-0.1-0.4-2.9-0.4-3c-0.7-0.7-0.8-1.4-0.4-2.2
	c0.7-0.3,1.1-0.7,1.5-1.3c-0.2-1.8-0.6-2.6-2.6-3.7c-0.2-0.1-4.6-0.9-3.9-1.5c1.3-1.1,4.8,0.3,5.4-1.2c1.3-3.5-3.5-1.7-5-2.8
	c-1.2-0.9-0.8-2.2-1.2-3c-0.3-0.9-0.8-1.4-1.2-2.3c-0.4-0.9-1.4-3.7-2-4.3c-1-1.1-3.1-2.9-4.1-5.1c-0.3-0.8-1.6-3.7-1.5-4.5
	c0.1-0.8,2-1.2,2-1.4c-0.1-1.4-2-3-2.6-4.2c-0.7-1.5-1.3-3.7-1.8-5.3c-0.6-1.8-1-2.7-1.4-4.5c0.4-0.8,0.5-1.7,0.4-2.6
	c-0.6-0.5-1.1-1.1-1.5-1.8c2.3,0.8-2.1-4.4,0.8-4.5c-0.7-0.7-1.1-3.9-0.9-4.8c0.4-1.9,2.6-2.7,2.8-4.4c0.1-1.3-2.8-4.4-3.4-5.6
	c-1.1-2-1.5-3.4-2-5.6c-1.1-4.1-2.4-5.4-0.2-8.8c2.6-4.1,0.9-4.9-0.1-9.5c-0.1-0.4-1-0.6-1.1-1c-0.1-0.4,1.2-1,1.1-1.4
	c-0.1-1.5-0.5-3.4-0.1-5c0.2-0.9,1.8-2.7,1.9-2.9c0.1-1.2-0.9-2.1-1.1-3.1c-0.3-1.6,0.1-3.9-0.7-5.3c-0.6-1-1.5-0.4-2.4-1.7
	c-0.6-0.8-1.1-3.1-1.6-4.2c-0.9-2-2.8-4.2-3.4-6.2c1.8,0.8-0.8-1.8-0.8-1.9c-0.8-1.6-1.9-2.2-2.1-4.3c-0.1-2.2,2.9-7.2,1-9.3
	C252.6,405.9,248,393.6,248.1,393.4"/>
<path id="Suriname" fill="#005FAB" stroke="#FFFFFF" d="M323.9,91c-4.2-2.5-1.9-6.3-0.8-9.5c0.7-2.2-0.6-1.8,1.3-3.5
	c1.5-1.4,2.4,0.2,3.8-2c0.3-0.5-0.6-1-0.4-1.6c0.2-0.7,0.7-1.7,0.9-2.3c0.8-1.8,0.9-2.7,2.9-3.2c1.4-0.4,8.2,0.7,7.6,2.8
	c1.1-2.2,0.2-2.8,3.2-2.8c2.4,0,2.9,1.2,5.2,1.1c-0.1,0-2.1-1-2-1.1c2.6-1.8,8.5,0.9,8.6,3.6c0.1,1.9-2.8,3.9-3.3,5.7
	c-0.6,2.1-0.5,5.4,0.1,7.4c0.5,1.9,2.8,3.7,2.9,5.6c0.1,1.2-1.2,3.9-1.6,5c-0.5,1.4-0.6,5.6-2.7,6.2c-1.2,0.3-2-1.1-3-1.4
	c-1.5-0.4-8.2-0.4-9,0.9c-1.4,2.3,2.5,6.9-3.7,4c-3.2-1.5-5.1-5.5-6.1-8.9c-0.4-1.5-0.1-2.8-1-4.1c-0.7,0.3-1.3,0.3-2,0.1
	C324.6,92.2,324.3,91.6,323.9,91"/>
<path id="Ecuador" fill="#FFDD00" stroke="#FFFFFF" d="M134.6,144c2.4,0.8,1.2-7.1,1.3-8.4c-0.4-0.7-0.7-1.4-0.9-2.1
	c-0.1-0.9,0.4-1.3,1.3-1.3c0.5-0.9,2.5-2.5,3.6-2.6c-4-0.4,1.8-7.1,2-8.8c0.1-1.3-1.1-3-0.3-4.3c0.4-0.7,3.6-2.4,3.6-0.5
	c-0.8-2.1,5.1-3.4,5.2-2.5c0.4-1,0.8-2,1.5-2.9c3.1,2.8,6.1,3.7,9.2,5.9c2.9,2,2,3.2,5.4,4.3c0.9,0.3,2.9,0.9,3.9,0.8
	c0.3,0,1.9-0.9,1.2-0.9c2.8,0.1,5.9,2.2,9,4.3c-0.9,0.2-1.8,0.1-2.8-0.1c-0.2,1,1.9,2.3,2.3,3.1c0.8,1.6,0.4,3.3,1.1,4.9
	c-2.3,0.3-1-0.2-2.3,2.4c-0.6,1.2-1,2.5-1.6,3.7c-1.6,3-3.9,5.7-6.6,7.7c-2.8,2-6.3,2.3-9.2,4c-2.5,1.5-2.7,3.6-4.2,5.4
	c-0.4-1.9-2.4,3.6-2.5,4.2c-0.6,2-1.2,7.9-3.3,8.8c-3.5,1.4-3.3-2.4-5.2-4.1c-0.8-0.7-7-1.5-6.8-0.7c-0.1-0.4-0.2-2.9-0.1-3
	c0.2-0.4,2.1-1.3,2.1-1.2c0.2-1.4,0.3-4.5-1.3-5.2c2.7-1.4,3.6-2.2,4.1-5.5c0.3-2.2-1.2-5.2,0.3-7.1c-0.7,0.3-1.2,5.7-1.8,5.1
	c-0.3-0.5-0.1-0.8,0.6-0.8c-0.8-0.2-1-0.7-0.6-1.4c-0.7,0.7-2.6,2.7-2.1,3.8C139.2,148.3,134.8,145.4,134.6,144 M143.6,148.2
	c0.3-0.5,0.3-1-0.1-1.5C143.3,147.2,143.4,147.7,143.6,148.2 M144,146.9c-0.1-0.3-0.2-0.5-0.4-0.8
	C143.7,146.4,143.9,146.6,144,146.9 M145.1,115.5c0.1,0.2,0.1,0.4,0.2,0.5C145.2,115.9,145.2,115.7,145.1,115.5 M142.4,148.4
	c-3,0.3-1.4,3.4-1.3,3.3c0.4-0.3,1.9-2.5,2.1-2.9C142.9,148.7,142.7,148.6,142.4,148.4"/>
<path id="Paraguay" fill="#FFDD00" stroke="#FFFFFF" d="M296.2,328.7c1.6-6.7-0.7-20.2,6.3-24.3c3.1-1.8,11.6-3.2,15.5-3
	c3.5,0.1,9.4,2.2,11.3,5.4c1.3,2.2,2.1,6.7,2.9,8.7c1,2.6,1.1,4.5,1,7.4c-0.2,4-0.6,4.2,3.4,5.1c1.2,0.3,3.4,0.8,4.5,0.7
	c1.3-0.1,3.2-1.2,4.1-1.1c4,0.3,6.2,3,7.4,6.6c0.8,2.3,0.7,8.1,2.7,9.8c3,2.6,5.3-2.3,8.3,0.5c1.6,1.4,0.9,6.8,0.6,9.1
	c-0.5,3.9-0.4,7-0.4,10.9c0,3-0.3,4.2-2.4,6.3c-0.9,0.9-2.3,2.8-3.3,3.5c-0.7,0.4-1,1.5-1.7,1.9c-0.7-0.8-1.6-1-2.5-0.6
	c-0.8,0.6-1.3,1.4-1.7,2.3c-3.1-1.2-5.9-1.2-9.4-1.8c-2.5-0.5-8.8-0.3-8.9-2.5c0-1.2,1.6-2,1.9-2.9c0.6-1.9-0.2-3.9,0.5-5.7
	c1.4-3.6,6-6.4,0.6-9.9c-2.9-1.9-6.8-2.9-9.9-4.5c-4.4-2.4-7.5-4.6-12.2-6C308.3,342.5,300.4,334.4,296.2,328.7"/>
<path id="Guyana" fill="#FFDD00" stroke="#FFFFFF" d="M294.7,69.1c2.7-2.9,0.9-5.4,4-7.4c1.6-1.1,5-0.6,4.9-3.6
	c0-0.4-1.9-0.3-2.2-1.3c-0.7-2.4-0.1-2.8,1.3-4.6c2.2-2.7,6.5-2.9,4.2-6.9c1.2,1.5,2.9,2.4,4.4,3.7c-0.7-1.1-2.1-1.3-2.7-2.5
	c7,3.2,13.2,11.3,8.1,18.7c1.8-0.3,0.7-3.2,1.9-3.9c1.9-1.2,4.5,1.1,5.9,2.2c0.9,0.7,0.9,2.1,1.6,2.8c0.5,0.5,1.4-0.4,2.2,0.9
	c1.4,2.3,0.6,6-1,7.9c4.2,1.2-4.1,3.5-4,3.4c-1,0.9-1.3,4-1.5,5.3c-0.4,2.9-0.6,3.3,0.8,6.1c0.7,1.4,2,2.3,2.8,3.4
	c0.5-0.1,0.9-0.2,1.4,0c0.5,1.1,0.8,2.2,0.9,3.4c0.6,1.7,1.6,4.6,2.6,6.1c0.9,1.3,2.5,2.1,3.2,3.4c-2.1,1.4-4-0.7-6.2-0.3
	c-1.5,0.3-3.5,1.9-5,2.6c-1,0.5-2.9,0.9-3.8,1.5c-0.4,0.3-1.9,2.1-1.5,1.9c-5.9,2.8-10.1-4.7-11-9.1c-0.9-4.3-0.8-7.4,0.8-11.7
	c1-2.7,1.8-2,1.1-4.9c-0.5-0.7-0.6-1.5-0.4-2.3c-0.3-0.8-1-1.2-1.9-1.1c-0.9-1.8-0.3-0.8-0.6-2.6c-0.4-2.1,1.2-3.3-1.6-4.6
	c-1.7-0.8-3,0.8-5.1-0.6C296.9,73.7,295.5,70.9,294.7,69.1"/>
<path id="Uruguay" fill="#FFDD00" stroke="#FFFFFF" d="M345,405.1c0.6-0.9,2-1.9,1.4-3.2c2.9,2.1,2.9-0.9,5-0.9c2,0,5,2.8,6.4,4.2
	c0.8,0.8,2.3,4.1,2.7,4.3c0.6,0.4,3.5,0.4,2.6-1.5c1.7,0.4,2.6,2.8,4,3.7c1.4,1,3.2,1.2,4.8,2.2c2.3,1.5,5.2,3.2,7.3,4.9
	c1.2,1,5,4.4,5.6,5.5c1.3,2.4-0.5,2.1-0.9,4.8c-0.4,2.5,1.4,3.5,1.7,5.5c0.2,1.4-2.9,10.3-5.2,8.2c2.2,2.7-7.9,1.8-7.9,1.8
	c-2-0.2-3.7,1-5.5,0.9c-0.5,0-4-1.7-4-1.7c-5.7-2.5-13.7-2.3-16-9.6c-0.3-1-0.6-2.8-0.4-3.9c0.2-0.9,1.7-1.6,1.8-2.1
	c0.2-2.7-2-5.7-2.2-8.4C345.6,415,346.1,409.7,345,405.1"/>
<path id="Chile" fill="#FFDD00" stroke="#FFFFFF" d="M230,292.8c3.2-1.8,2.8-0.6,4.2-3.7c0.2-0.5-0.6-1.6-0.2-2.4
	c-0.1,0.1,2.3-1.6,2.3-1.7c0,2.1,3.3,4.3,3.8,5.4c1,2.2,1,5.4,2.4,7.8c0.8,1.2,2.5,2.1,3,3.4c0.4,1,0.2,1.7,0.4,2.5
	c-0.7-2.9-0.2,5.2,0.5,2.7c-0.4,1.3,0.3,1-1.6,2.1c0.9,0.9,0.5,2.3,0.9,3.4c0.2,0.5,1.4,0.5,1.6,1c0.9,2,1.6,3.6,2.8,5.7
	c1.9,3.3,3,14.1,6.7,15.5c3,1.1,4-2,5.1,2.1c0.4,1.6,0,6.3-0.8,7.7c-1.5,2.5-4.8,2.4-6.8,4.2c-3.2,2.7-1.6,3.6-0.3,6.7
	c-2.5,0.1-0.6,4-0.3,5.1c0.5,1.7,1.2,2.4,1.3,4.2c0.1,0.6-0.9,1.3-0.8,2.1c0.2,1.8,3.7,4.1,3,5.9c-0.7,1.7-2.9,1.1-4,2.9
	c-2.9,4.7-3.9,11.5-4.4,16.7c-0.3,2.8-0.1,3.8,1.1,7c0.2,0.4,2.5,6.7-1,4.4c2.5,2.8-2.3,8.3-0.2,11.8c0.6,1,1.8,1.6,2.3,2.4
	c0.1,0.2,0.5,2.2-0.1,1.1c1.2,2,2.3,3.9,3.3,5.9c1.5,3.2,3,5.1,4.2,8.1c0.5,1.2,1.7,4.9,1.6,6.4c0,0.5-1.2,0.2-1.4,0.9
	c-0.2,0.9-0.5,2.2-0.6,3.1c-0.1,1.2-0.8,4.3-0.7,5.1c0.3,2.2,3.3,4.8,3,7.2c-0.4,3.1-4.2,3.6-3.7,7.7c0.3,2.4,1.7,6.7,2.8,8.8
	c1,1.9,3.5,4,3.8,6.1c0.3,2.9-0.8,1.1-2,3.7c-0.6,1.3-0.1,5.4,0.8,6.4c-2.9,0.1,1.4,5.3-0.8,4.5c0.1,0.8,1.3,2.4,1.5,3.1
	c0.3,1.1,0.1,3,0.6,4.5c1.3,4.1,2.6,7,4.9,10.6c-2.1,2-1.9,0.9-1.2,4.1c0.5,2.3,1.1,3.5,2.6,5.1c0.7,0.7,1.8,0.7,2.6,1.6
	c0.2,0.2-0.6,1.1-0.7,0.9c0.6,0.8,1.8,2.4,2.3,3.1c1,1.6,0.5,4.9,2.7,6.3c1.4,1,4.8-0.9,4.8,2c0.1,3.5-4.7-0.3-5.6,1.4
	c-0.6,1.1,3.7,1.7,4,1.9c2.7,1.9,2,2.1,2,4.8c-0.4,0.1-0.7,0.2-1.1,0.3c-0.1,0.8,0.2,1.6,0.7,2.3c0,0.2,3.2,2.7,0.2,2.8
	c2,1.5,2.9,2.8,3.2,5.1c0,0.3-0.8,1.3-0.8,1.9c0,1.8,0.9,1,1.7,2.6c-1.4-0.2-2.1,2.9-2.1,3.8c-0.1,2.7,1.5,2.5,2.1,4.5
	c0.6,0.5,1,1.1,1,1.9c-0.5,0.4-1,0.8-1.5,1.2c0.1,1.4,1.4,1.9,1.1,3.5c-0.7,0.4-1.4,0.9-2.1,1.5c-0.1,0.8-0.2,1.5-0.5,2.3
	c-1.4-0.1-1.8,0.5-1,1.9c0.2,0.9,0.6,1.8,1.1,2.5c0.9,2.1,1.7,2.7,3,4.5c0.5,0.6,2.2,3.5,2.9,3.7c2.4,0.9,4.6-1.6,7,1
	c0.5,0.6,1.5,3.3,1.9,4.1c0.4,0.8,0.5,1.7,0.1,2.5c0.8,0.2,1.5,0.5,2.1,0.9c3.2,3.2,4.9,3.2,9.2,3.1c6.5-0.2,12.9,1.2,19.2,2.8
	c-1.5,0-4.5-1.6-5.9-1c-1,0.4,0,1.7-0.8,2.2c-2.2,1.3-5.1,1.7-7.6,2.4c0.4,0.6,3.8,8.5,3.6,8.9c-1,1.7-3.4,0.8-5,0.4
	c-1.9-0.4-5.2-1.2-6.2-3.1c-1.4-2.9,2.8-1.2,1.3,0c0.7-0.3,1-0.9,1.1-1.7c0.2-0.3,2.4,1.5,1.4,2.5c-0.7,0.2,1.9-4.5,1.8-3.7
	c0.4-2.9,0.2-1.5-1.8-3.4c0.1,3.6-4.8,2.2-6.2,3.1c1,0,1.7,0.4,2.4,1.1c-3.4,0.8-1.2,1.2,0.5,2.9c-2.6,0.7-6.1-1.8-7.9-3.4
	c1.3,0.4,2.6,0.6,4,0.5c-0.2-1.2-2.1-1.3-2.5-2.5c-0.5-1.7,1.8-2.2,1.4-0.8c1.4-0.4,2.1-1.5,3.4-1.8c1.2-0.3,2.6,0.9,3.8,0.1
	c-1-1.3-3.5-1-4.8-1.1c-0.1,0-4.6,1-2,0c-0.7,0-3.7,0-3,1.5c0.5-0.5,1.1-0.5,1.6-0.1c-1.4,0.5-1.7,1.3-0.8,2.1
	c0.6,0.8,0.4,1.3-0.5,1.5c-0.7,0.3-3.1-1.1-1.2-1.7c-0.2,0.1-4.8-0.4-0.8-1c-1.7-0.8,0.8-2.5,0.5-2.5c-3-1-0.6,0.6-1.3,1.6
	c-1.3-2.7-1.4,0-2.3,0.5c0.8-1.9-2.9-3.9-3.5-6.2c1.3,1.5,5.4,0.9,5.1,1.8c0.7-0.4,2.3,0.2,1.1-1.1c0.4,1.6-0.7-1-0.7-1.5
	c2.6,0.2,3.4,2.6,2.1,4.4c0.8-0.3,1.6-0.3,2.4-0.1c-0.8-0.4-2.7-4.3-2-4.4c-0.9-0.7-6.1-6.2-7-3.8c1.1-0.1,5.7,0.9,5.6,2.4
	c-0.1,1-5.1-1.4-5.6-1.4c1.8,2.4,3,0.7,2.3,4c-0.6-1.2-1.4-2.2-2.3-3.1c0.8,1,2,2.5,2,3.9c-0.7-0.6-6-4.8-1.8-1.9
	c-1.4-2.5-4.9-1.6-5.6-5.1c1.2,0.5,2.3,1.3,3.2,2.3c-1-1.2-1.7-2.7-2.9-3.8c1.6,1.4-2.2-0.6-2.3-0.7c0.8,1.3-1.9-1.2-1.8-1.7
	c0-0.1,3.4-1,1.8-1.3c2.6,0.4-1.6-1.4,1.2-1.4c-0.8,0-1.9-0.9-1.2-1.8c-1.5,1.4,0.7,3.3-1.7,3.1c-1.1-0.1-1.9-2.2-2.9-2.8
	c2.9,1-0.2,0.6,2.5,0.4c-1.2-1-5.2-2.9-6.7-3c1.1-2.2,4.7,1.2,6.3,0.9c-1.6-0.4-4.6-1.1-4.9-3.2c1.1,0.5,2.3,0.7,3.4,0.8
	c-0.8-0.1-1-0.5-0.7-1.2c-0.8,1.9-4.3-1-1.8-1.5c-0.7,0.1-1.3-0.1-1.8-0.6c-1.3-1.7,4.6,0.6,4.5,0.6c-0.6-0.4-3.3-1.6-3.7-2.2
	c-0.5-0.7-0.2-2,0.9-1.2c-0.5-0.2-1.7-2-1.4-2.6c0.5-1-0.5,0.8-0.6,0.9c-0.4,0.4,0.3,2.6-0.1,3.3c-1-1-6.2-8.5-1.5-6.8
	c-0.7-0.5-2.6-0.1-3-1.2c-0.6-1.6,3-0.2,3-0.2c-0.7-0.4-0.8-0.9-0.5-1.6c-0.5,0.1-3.4-0.2-1.6-0.9c-2,0.9-2.8-2.7-4.7-2.1
	c-0.3-1.9,2.8,0.4,3.3,0.8c-2.3-3.5,1.6-0.7,3.5-0.5c0.3,0,4.9,1.9,2.8-0.3c-0.3,1.7-2.9-0.7-3-1.5c1,0.5,2.1,0.8,3.2,0.8
	c-3-1.2-3.5-2.2-5.4-4.1c2.7,3.6-5.2,2.8-6.5,1.5c0.7-0.2,0.9-0.6,0.5-1.2c1.5-0.4,2.2,1.4,3.5,1.7c-1.1-0.2-0.4-1.4,0.5-1.1
	c-0.1-0.8-2.7-0.6-3.4-1.6c-0.7-1,0.6-3.1,1.6-1.5c-0.7-1.8,1.7,0.3,0.2-2.1c-0.3,1.1-0.8,1.2-1.5,0.3c3.3-1.1-2.8-3-4.2-2.1
	c0.7-0.2,1.2,0,1.6,0.5c-3.8-0.9-3.6-1.5-5.1-4.1c-0.7,1.3-3.7,1.4-3.8,3c0.8-1.3,2.6,0.5,2,1.4c-1.2,1.8-4.6-7.5,0.7-5.3
	c-0.8-0.2-0.9-0.6-0.5-1.2c1.3,1,0.6-1.4,1.9,0c-1-0.8,0.3-1.8-0.8-2.4c0.7,2.8-2.4,0.5-0.8,0.6c-0.9,0-1.5-0.4-1.9-1.2
	c1-0.1,2.1-0.2,3.1-0.4c0.7,0.5,1.4,0.9,2.1,1.3c-3.9-2.7,5.6,0.9,2.8,1c-0.3,0,1.2-1.3,0.6,0.6c-0.3,0.8-2.4,0.9-2.9,0.6
	c1.2,0.7,3.3,1,4.7,0.9c-0.6-0.3-0.9-0.8-0.9-1.5c2.4,1.6,0.6,2,1.6,4c1.6-0.2,2-3.8,1.7-5c-0.2,0.9-0.5,1.6-1,2.4
	c0.1-1.6-2.1-5.7,1.1-5.7c-1-0.3-1.8,0-2.3,0.9c-0.3-1.5-0.9-3.3,1.1-4.2c-0.3,0.2,3.5,2.3,3.1,1.1c-0.4-1.1-4.2-0.9-5.1-1.4
	c1.4-1.1-0.6-1.2-0.3-2.1c0.3-0.8,0.8-0.2,1.2-0.8c1.1-1.8,4.1-2.8,1.7-5c-1-0.9-4.2-0.1-5.1-2.4c0,0,1.7-3.4,1.2-4.1
	c-0.5,1.7-1.7-0.8-2-1.3c-0.9-1.5-0.2-1.9-0.4-3.4c-0.2-1.7,0.7-0.6,0.3-2.2c-0.1-0.5-2.3-2.8-1.8-3.6c0.7,0,1.3,0,2,0
	c-1.4-0.4-2.3-1.3-2.8-2.6c1.6-0.6,2.6,1,3.4,2.1c-0.1-1.2-0.8-3-1.7-3.9c-0.4-0.5-2.5-0.1-2.7-0.7c-0.6-2.2,3.6-3,1.6-4.9
	c0.9,3.9-3.2,0.8-5,1.1c0.1,0-0.5,2.1-1.5,2.3c-0.8,0.2-4.3-0.9-2.2-1.8c-4-0.1-4.5-5.6-5.1-8.5c-0.3-1.6-1.1-3.8-0.8-5.4
	c0.2-1.6,1.1-1.7,1.4-3c1.1-5.4-3.7-8.9-5.5-13.4c-1.1-2.7-4.3-7.3-3.9-10.5c4.2,3.1,2-3.9,2.4-5c0,0.6,0.4,0.9,1,0.9
	c-0.3-6.8,1.9-13.1,1.4-19.8c-0.2-2.3-0.3-3.5,0-5.8c0.5-0.8,0.9-1.8,1-2.8c-0.3-1.3-0.8-2.6-1.5-3.7c-0.4-2.7,0.8-5.3,0-8.2
	c-1.4-4.9-6.5-11.4-6.1-16.7c0.2-2.4,2.1-3.6,2-6.4c-0.2-3.1-3.1-4.9-3.5-7.6c-0.3-2,1.4-3.9,1.5-5.8c0.1-1.6-0.3-3.2-0.2-4.8
	c0.1-3.8,0.6-7.6,0.8-11.4c0.2-2.4-0.6-4.1-0.9-6.4c-0.2-2.1,0.6-3.1,0.7-4.6c0.3-3.9-1.7-7.8-1.8-12c0-0.9,0.3-3.1,0.1-3.7
	c-0.3-0.9-1.6-2-1.6-2.4c-0.6-3.4,0.8-3.4,1.6-6.5c1-3.6,0.5-9.9-0.2-13.6c-1-5.3-1.6-11.1-2.9-16.3
	C232.4,301.7,231.4,293.5,230,292.8 M330,606c1.9,4.5,4.3,8.8,6.4,13.2c1.8,3.7,1.8,4.9,5.5,5.8c3.4,0.8,6.9,0.9,10.4,1.3
	c1.6,0.2,9.5,0.2,10-0.9c1.1-2.3-6.7-2.4-8.3-3c-3.9-1.3-7.5-3.2-10.9-5.3c-2.7-1.6-4.8-3.5-7.2-5.3c-1-0.7-2-0.6-2.8-1.4
	c-0.4-0.4,1-1.5,1.6-0.3C333.5,608.4,331.5,607.4,330,606 M254,508.9c0.4,0.3-3.9-0.4-3.9-0.4c2.2,2.2,1.2,8.9,2.6,11.8
	c0.6,1.2,1.7,3.8,4.2,2.9c0.6-0.2,0.9-2.4,1.1-2.8c0.3-0.6-1.3-1.8-1.6-2.1c4.7,0.7-3.4-3.2-0.6-3.2c-1.7-1,0.2-1.7,0.9-2.3
	C255.5,511.7,254.6,510.4,254,508.9 M320,611.8c1.6,2.6,4.9-0.7,6.8,0.1c3.2,1.4-0.1,1.6-0.7,2.9c-1,2.1-2.7,1.7,0.7,4
	c2.5,1.7,6.1,1.1,8.5,3.1c-0.8-0.1-1.5,0-0.7,0.9c-0.7-0.4-1.1-0.2-1.5,0.5c1.4-1.8-1.3-1.8-1.8-2.1c-1.9-1.2-2.5-1.3-1.5,0.8
	c-0.8-0.6-4.8-1.9-2.7-0.5c-1.8-1.3-4.2-2-6.4-2.3c0.8,1.3,5.7,2.7,7.1,3.4c-1.4,0.6-2.7-1.1-4-1.1c-0.1,0.7,0.1,1.2,0.7,1.5
	c-1.7,0.4-0.4-2.3-1.5-2.4c-0.9-0.1-1.2,1.1-1.3,1.1c-2.1-0.2-4.6-0.2-5.5,0.2c0.7-0.1,1,0.3,1.1,0.9c-0.8-0.4-1.6-0.7-2.4-0.8
	c1.5,1,0.7,1.1,2.6,1.3c0.6,0.1,3.3,0.5,2.3-0.9c0.6,0.3,2,2.6,2.4,0.7c2.7,2.4,1.1-0.9,3.9,0.8c-4.2,2.7,1.9,0.9,2,0.2
	c-0.4,0.7,2.9,2.2,1.7,0.1c0.5,0.4,4,1.4,4.7,1.5c2.2,0.5,5.3,1.3,2.9-1.1c0.8,0.3,1.6,0.7,2.4,1c-1.4-4-3.7-7.7-5.5-11.5
	c-1-2.1-2.4-7.2-4.5-8.4c-1.1-0.6-2.1,0.7-3.3,0.4c-1.2-0.3-1.6-1.7-3.1-1.3c-0.5,0.1,0,2.1-0.5,2.2c-0.7,0.2-3.5-0.5-4.1,0.1
	c0.4,0.2,3.5,1.2,2.1,2.1c-0.6,0.3-1.1,0.1-1.3-0.6C319,609.9,319.2,610.9,320,611.8"/>

</svg>
