<svg viewBox="0 0 640 400" class="map">

<path id="FL" fill="#005FAB" stroke="#FFFFFF" d="M507,301.8l1.4,5.4l2.5,6.4l3.5,6.2l2.4,4.1l3.2,3.6l2.7,2.4l1.1,1.9l-0.7,0.8
	l-0.5,0.8l1.9,4.9l1.9,1.9l1.7,3.5l2.3,3.8l3,5.4l0.8,5l0.3,7.9l0.4,1.2l-0.2,2.2l-1.6,0.8l0.2,1.3l-0.4,1.3l0.2,1.6l0.3,1.3
	l-1.8,2.1l-2,1l-2.5,0.1l-1,1.1l-1.6,0.6l-0.8-0.3l-0.7-0.6l-0.2-1.9l-0.5-2.2l-2.2-3.4l-2.3-1.5l-2.5-0.2l-0.5,0.8l-2-2.9L512,366
	l-1.7-2.7l-1.2-0.7l-1.1,1.4l-1.2-0.2l-1.4-3.3l-1.9-2.5l-1.9-3.5l-1.7-2l-2.3-2.4l1.4-1.6l2.1-3.6l-0.1-1.1l-3-0.6l-1.1,0.4
	l-1.6-1.5l-0.2-1.8l1-3.1v-6.3l-2-2.4l-0.8-2l-3.4-0.8l-1.3-0.4l-1.1-1.7l-2.2-1.1l-0.7-2.2l-1.8-0.6l-1.6-2.4l-2.8-1l-1.9-1h-1.7
	l-2.7,0.5l-0.1,1.3l0.5,0.6l-0.3,0.7l-2-0.1l-2.4,2.3l-2.3,1.3H463l-2.1,0.8l-0.2-1.8l-1.1-1.3l-1.9-0.7l-1.1-1l-5.3-2.5l-5-1.2
	l-2.9,0.4l-3.9,0.3l-3.9,1.4l-2.3,0.4l-0.2-5.3l-1.7-1.3l-1.2-1.2l0.2-2l6.7-0.8l16.8-1.9l4.5-0.4l4-0.1l1.7,2.5l1,1l5.2,0.1
	l7.1-0.4l14.1-0.8l3.6-0.4l3,0l0.1,1.9l1.7,0.5l0.2-2.9l-1.1-3l0.7-1.1l3.8,0.5L507,301.8L507,301.8z"/>
<path id="SC" fill="#C2240C" stroke="#FFFFFF" d="M510.8,281l-1.2,0.6l-1.7-0.8l-0.4-1.4l-0.8-2.3l-1.5-1.4l-1.7-0.4l-1.1-3.2
	l-1.8-3.9l-2.8-1.3l-1.4-1.3l-0.8-1.7l-1.4-1.3l-1.5-0.8l-1.5-1.9l-2-1.5l-3-1.2l-0.3-1l-1.6-1.9l-0.3-1l-2.2-3.4l-2.2,0.1l-2.7-1.6
	l-0.8-0.8l-0.2-1.2l0.5-1.3l1.5-0.6l-0.2-1.4l4-1.7l5.9-3l4.8-0.5l10.8-0.3l1.5,1.3l1.1,2.1l2.9-0.3l8.3-1l1.9,0.5l8.3,5l6.6,5.3
	l-3.6,3.6l-1.7,4l-0.3,4.1l-1.1,0.5l-0.7,1.8l-1.6,0.4l-1.4,2.3l-1.8,1.8l-1.5,2.2l-1.1,0.5l-2.3,2.2l-1.9,0.1l0.6,2.1l-3.3,3.6
	L510.8,281L510.8,281z"/>
<path id="GA" fill="#009542" stroke="#FFFFFF" d="M463.7,244.9l-3.2,0.5l-5.5,0.7l-5.6,0.6v1.4l0.1,1.4l0.4,2.2l2.2,5.2l1.6,6.5l1,4
	l1.1,3.2l1,4.6l1.4,4.1l1.7,2.2l0.3,2.2l1.3,0.5l0.1,1.4l-1.2,3.2l-0.3,2.1l-0.1,1.3l1.1,2.9l0.2,3.5l-0.5,1.6l0.4,0.5l1,0.5
	l0.4,2.2l1.7,2.5l1,1l5.2,0.1l7.1-0.4l14.1-0.8l3.6-0.4l3,0l0.1,1.9l1.7,0.5l0.2-2.9l-1.1-3l0.7-1.1l3.8,0.5l3.3,0.2l-0.5-4.1
	l1.5-6.6l1-2.8l-0.3-1.7l2.7-4.6l-0.4-1.1l-1.2,0.6l-1.7-0.8l-0.4-1.4l-0.8-2.3l-1.5-1.4l-1.7-0.4l-1.1-3.2l-1.8-3.9l-2.8-1.3
	l-1.4-1.3l-0.8-1.7l-1.4-1.3l-1.5-0.8l-1.5-1.9l-2-1.5l-3-1.2l-0.3-1l-1.6-1.9l-0.3-1l-2.2-3.4l-2.2,0.1l-2.7-1.6l-0.8-0.8l-0.2-1.2
	l0.5-1.3l1.5-0.6l-0.1-1.5l-1.2,0.3l-3.8,0.6l-4.6,0.5L463.7,244.9L463.7,244.9z"/>
<path id="AL" fill="#C2240C" stroke="#FFFFFF" d="M421.7,316.4l-1.1-10l-1.8-12.3l0.1-9.2l0.5-20.4l-0.1-10.9l0.1-4.2l5.1-0.2
	l18.3-1.7l6.7-0.6l-0.1,1.4l0.1,1.4l0.4,2.2l2.2,5.2l1.6,6.5l1,4l1.1,3.2l1,4.6l1.4,4.1l1.7,2.2l0.3,2.2l1.3,0.5l0.1,1.4l-1.2,3.2
	l-0.3,2.1l-0.1,1.3l1.1,2.9l0.2,3.5l-0.5,1.6l0.4,0.5l1,0.5l0.5,2.3h-4.1l-4.5,0.4l-16.8,1.9l-6.7,0.8l-0.2,2l1.2,1.2l1.7,1.3
	l0.4,5.2l-4.3,1.7l-1.8-0.2l1.8-1.3v-0.6l-2-3.9l-1.5-0.4l-1,2.9l-0.8,1.8l-0.4-0.1L421.7,316.4L421.7,316.4z"/>
<path id="NC" fill="#005FAB" stroke="#FFFFFF" d="M557.3,205.8l1.1,3.1l2.3,4.2l1.6,1.6l0.4,1.5l-1.6,0.1l0.5,0.4l-0.2,2.8l-1.7,0.8
	l-0.4,1.4l-0.8,1.9l-2.4,1.1l-1.6-0.2l-1-0.1l-1.1-0.8l0.2,0.8v0.6h1.3l0.5,0.8l-1.3,4.1h2.8l0.4,1.1l1.1,0.5l-2,3.2h-0.8l-0.7-0.3
	l-1.8,0.4l-3.4,1.6l-4.2,3.5l-2.2,3.1l-1.3,4.2l-0.3,1.6l-3.1,0.3l-3.9,1.5l-6.5-5.4l-8.3-5l-1.9-0.5l-8.3,1l-2.9,0.3l-1.1-2.1
	l-1.5-1.3l-10.8,0.3l-4.8,0.5l-5.9,3l-4,1.7l-1.1,0.2l-3.8,0.6l-4.6,0.5l-4.5,0.3l0.2-3.2l1.2-1l1.8-0.4l0.4-2.4l2.8-1.8l2.5-1
	l2.8-2.3l2.9-1.4l0.4-2l2.5-2.5l0.4-0.1c0,0,0,0.7,0.5,0.7s1.3,0.2,1.3,0.2l1.5-2.3l1.4-0.4l1.5,0.2l1.1-2.3l1.9-1.7l0.3-1.4v-2.6
	l3,0.5l4.7-0.8l10.4-1.3l11.3-1.7l13.5-2.5l12.6-2.5l7.5-1.9L557.3,205.8L557.3,205.8z"/>
<path id="TN" fill="#FFDD00" stroke="#FFFFFF" d="M468.6,220.4l-34.1,3.3l-10.4,1.2l-3,0.3l-2.5,0v2.5l-5.5,0.3l-4.6,0.4l-7.3,0
	l-0.2,3.8l-1.4,4.1l-0.7,2l-0.9,2.9l-0.2,1.7l-2.7,1.5l1,2.3l-0.6,2.9l-1,1.1l5.4-0.1l15.8-1.3l3.5-0.1l5.3-0.3l18.3-1.7l6.7-0.5
	l5.5-0.6l5.5-0.7l3.2-0.5l0.2-3.2l1.2-1l1.8-0.4l0.4-2.4l2.8-1.8l2.5-1l2.8-2.3l2.9-1.4l0.4-2l2.5-2.5l0.4-0.1c0,0,0,0.7,0.5,0.7
	s1.3,0.2,1.3,0.2l1.5-2.3l1.4-0.4l1.5,0.2l1.1-2.3l1.9-1.7l0.3-1.4l0.1-2.6l-1.5,0l-1.6,1.3l-5.2,0.1l-7.9,1.2L468.6,220.4
	L468.6,220.4z"/>
<path id="RI" fill="#005FAB" stroke="#FFFFFF" d="M584.9,127.9l-0.3-2.8l-0.5-2.9l-1.1-3.9l3.8-1l1.1,0.7l2.2,2.9l1.9,2.9l-1.9,1
	l-0.8-0.1l-0.7,1.2l-1.6,1.3L584.9,127.9L584.9,127.9z"/>
<path id="CT" fill="#009542" stroke="#FFFFFF" d="M585.2,127.9l-0.6-2.8l-0.5-2.9l-1.1-3.9l-3.4,0.7l-14.3,3.1l0.4,2.2l1,4.8v5.3
	l-0.7,1.5l1.2,1.4l3.3-2.2l2.3-2.1l1.3-1.4l0.5,0.4l1.8-1l3.4-0.7L585.2,127.9L585.2,127.9z"/>
<path id="MA" fill="#C2240C" stroke="#FFFFFF" d="M572.9,110.1l11.5-2.8l1.5-0.4l1.4-2.1l2.5-1.1l1.9,2.9L590,110l-0.2,1l1.3,1.7
	l0.7-0.5h1.2l1.5,1.7l2.5,3.9l2.3,0.3l1.5-0.6l1.2-1.2l-1.2-1.8l-0.7-0.4l-1-0.1l-0.6-0.8l0.3-0.3l1.4-0.1l1.2,0.5l1.3,1.6l0.6,1.9
	l0.2,1.6l-2.8,1l-2.5,1.3l-2.5,3l-1.3,1v-0.6l1.6-1l0.3-1.2l-0.5-2l-1.9,1l-0.5,1l0.3,1.5l-1.8,1l-1.8-3l-2.2-2.9l-1.1-0.7l-3.8,1
	l-3.3,0.7l-14.3,3.1l-0.6-3.8l0.4-7l3.4-0.6L572.9,110.1"/>
<path id="ME" fill="#005FAB" stroke="#FFFFFF" d="M617.2,60.6l1.3,1.4l1.5,2.4v1.3l-1.4,3.1l-1.3,0.4l-2.2,2l-3.2,3.6
	c0,0-0.4,0-0.8,0c-0.4,0-0.6-1.4-0.6-1.4l-1.2,0.1l-0.6,1l-1.6,1l-0.6,1l1.1,1l-0.3,0.4l-0.3,1.8l-1.3-0.1v-1.1l-0.2-0.8l-1,0.2
	l-1.2-2.1l-1.4,0.8l0.8,1l0.2,0.7l-0.5,0.8l0.2,2l0.1,1.1l-1.1,1.7l-1.9,0.3l-0.2,1.9l-3.5,2l-0.8,0.3l-1.1-1l-2,2.3l0.6,2.1l-1,0.8
	l-0.1,2.9l-1,5l-1.6-0.8l-0.3-2l-2.5-0.7l-0.2-1.8l-4.8-15.4l-3.1-9.7l1.6-0.2l1,0.3v-1.7l0.5-3.6l1.7-3.1l1-2.7l-1.3-1.6v-3.9
	L583,53l0.5-1.8l-0.1-1l-0.1-3.2l1.2-3.2l1.9-5.8l1.4-2.8h0.8l0.8,0.1v0.7l0.8,1.5l1.8,0.4l0.5-0.5v-0.6l2.7-1.9l1.2-1.2l1,0.1
	l3.9,1.6l1.3,0.6l5.9,19.6h3.9l0.5,1.3l0.1,3.2l1.9,1.5h0.5l0.1-0.3l-0.3-0.7L617.2,60.6L617.2,60.6z"/>
<path id="NH" fill="#FFDD00" stroke="#FFFFFF" d="M589.7,103.6l0.2-1l0.7-2.2l-1.7-0.6l-0.3-2l-2.5-0.7l-0.2-1.8l-4.8-15.4l-3-9.6
	l-0.6,0l-0.4,1.1l-0.4-0.3l-0.6-0.6l-1,1.3l-0.6,3.6l0.2,3.7l1.3,1.8v2.7l-2.4,2.7l-1.7,0.7v0.7l0.7,1.2v5.6l-0.5,6.1l-0.1,3.2
	l0.6,0.8l-0.1,3l-0.3,1.2l1,1.3l11.4-2.7l1.5-0.4l1.4-2.1L589.7,103.6L589.7,103.6z"/>
<path id="VT" fill="#009542" stroke="#FFFFFF" d="M565.1,111.6l-0.5-3.7l-2-7.2l-0.4-0.2l-1.9-0.8l0.5-1.9l-0.5-1.4l-1.7-3l0.6-2.5
	l-0.5-3.4l-1.6-4.2l-0.5-3.2l17.8-4.7l0.2,3.8l1.3,1.8v2.7l-2.4,2.7l-1.7,0.7v0.7l0.7,1.2v5.6l-0.5,6.1l-0.1,3.2l0.6,0.8l-0.1,3
	l-0.3,1.2l1,1.3l-4.6,0.9L565.1,111.6L565.1,111.6z"/>
<path id="NY" fill="#005FAB" stroke="#FFFFFF" d="M554.7,134.8l-0.7-0.6l-1.7-0.1l-1.5-1.3l-1.6-3.5l-2-0.6l-1.5-1.4l-12.2,2.7
	l-28.2,5.7l-5.8,1l-0.5-4.5l1.8-1.2l0.8-0.7l0.6-1.1l1.2-0.7l1.3-1.2l0.3-1.1l1.4-1.8l0.7-0.6l-0.1-0.6l-0.8-2l-1.2-0.1l-1.3-4
	l1.9-1.2l2.9-1l2.7-0.8l2.1-0.3l4.1-0.1l1.3,0.8l1.1,0.1l1.4-0.8l1.7-0.7l3.4-0.3l1.4-1.2l1.2-2.1l1.1-1.3h1.4l1.3-0.7l0.1-1.5
	l-1-1.4l-0.2-1l0.7-1.4v-1h-1.2l-1.2-0.5l-0.5-0.7l-0.1-1.7l3.8-3.6l0.4-0.5l1-1.9l1.9-3l1.8-2.4l1.4-1.6l1.6-1.2l2-0.8l3.6-0.8
	l2.1,0.1l3-1l5-1.4l0.3,3.3l1.6,4.2l0.5,3.4l-0.6,2.5l1.7,3l0.5,1.4l-0.5,1.9l1.9,0.8l0.4,0.2l2,7.2l0.3,3.4l-0.3,7.1l0.5,3.6
	l0.5,2.3l1,4.8v5.3l-0.7,1.5l1.2,1.3l-0.1,1l-1.3,1.2l0.2,0.8l0.8-0.2l1-0.8l1.5-1.7l0.7-0.4l1.1,0.4l1.5,0.1l5.2-2.5l1.9-1.8l0.8-1
	l2.8,1.1l-2.2,2.3l-2.5,1.9l-4.7,3.5l-1.7,0.6l-3.8,1.3l-2.7,0.7l-1-0.4l-0.4-2.2l0.3-1.8l-0.1-1.4l-1.7-0.7l-3-0.6l-2.5-0.7
	L554.7,134.8L554.7,134.8z"/>
<path id="NJ" fill="#FFDD00" stroke="#FFFFFF" d="M554.7,134.8l-1.4,1.6v2l-1.3,2l-0.1,1.1l0.8,0.8l-0.1,1.6l-1.5,0.7l0.5,1.8
	l0.1,0.7l1.8,0.2l0.6,1.7l2.3,1.6l1.6,1.1v0.5l-2.1,2l-1.1,1.5l-1,1.8l-1.5,0.8l-0.8,0.5l-0.2,0.8l-0.4,1.7l0.7,1.5l2.1,1.9l3.2,1.5
	l2.7,0.4l0.1,1l-0.5,0.6l0.2,1.8h0.5l1.4-1.6l0.5-3.2l1.8-2.7l2-4.2l0.7-3.6l-0.4-0.7l-0.1-6.2l-1.1-2.2l-0.7,0.5l-1.8,0.2l-0.3-0.3
	l0.7-0.6l1.4-1.3l0-0.7l-0.3-2.3l0.3-1.8l-0.1-1.4l-1.7-0.7l-3-0.6l-2.5-0.7L554.7,134.8L554.7,134.8z"/>
<path id="PA" fill="#009542" stroke="#FFFFFF" d="M551.9,158.9l0.7-0.4l1.5-0.8l1-1.8l1.1-1.5l2.1-2v-0.5l-1.6-1.1l-2.3-1.6
	l-0.6-1.7l-1.8-0.2l-0.1-0.7l-0.5-1.8l1.5-0.7l0.1-1.6l-0.8-0.8l0.1-1.1l1.3-2v-2l1.5-1.6l-0.9-0.6l-1.7-0.1l-1.5-1.3l-1.6-3.5
	l-2-0.6l-1.5-1.4l-12.2,2.7l-28.2,5.7l-5.8,1l-0.3-4.7l-3.6,3.7l-0.8,0.3l-2.8,2l1.9,12.6l1.1,7.1l2.3,12.7l3-0.5l7.8-1l24.9-5
	l9.8-1.9l5.5-1.1l0.8-0.8l1.4-1.1L551.9,158.9L551.9,158.9z"/>
<path id="DE" fill="#C2240C" stroke="#FFFFFF" d="M551.1,161.1l0.5-1.4l0.2-0.8h-1.3l-1.4,1.1l-1,1l1,2.8l1.5,3.7l1.4,6.4l1.1,4.1
	l3.3-0.1l4-0.8l-1.5-4.8l-0.6,0.3l-2.3-1.6l-1.2-3.1l-1.3-2.3l-1.5-0.6l-1.4-2.3L551.1,161.1L551.1,161.1z"/>
<path id="MD" fill="#005FAB" stroke="#FFFFFF" d="M560.4,177l-4,0.8l-3.3,0.1l-1.1-4.1l-1.4-6.4l-1.5-3.7l-0.8-2.9l-5.5,1.1
	l-9.8,1.9l-24.6,5l0.7,3.3l0.6,3.7l0.2-0.2l1.4-1.6l1.5-2l1.6-0.1l1-1l1.2-1.7l0.8,0.4l1.9-0.2l1.7-1.4l1.3-1l1.2-0.3l1.1,0.7l1.9,1
	l1.3,1.2l0.8,1l2.7,1.1v1.9l3.6,0.8l1.3,0.8l0.6-1.3l1.5,1.1l-1,2.1l-0.2,1.8l-1.2,1.7v1.4l0.4,1.2l3.3,0.9l2.8,0l2,0.6l1.4,0.2
	l0.6-1.4l-1-1.4V181l-1.6-1.4l-1.4-3.6l0.8-3.5l-0.1-1.4l-0.8-0.8c0,0,1-1.1,1-1.5c0-0.4,0.3-1.4,0.3-1.4l1.3-0.8l1.3-1.1l0.3,0.6
	l-1,1.1l-0.8,2.4l0.2,0.7l1.2,0.2l0.3,3.6l-1.4,0.6l0.2,2.3l0.3-0.1l0.7-1.3l1.1,1.2l-1.1,0.8l-0.2,2.2l1.7,2.2l2.5,0.3l1.1-0.5
	l2.1,3.4l1.2,0.3l4-0.5l1.4-4.6V177L560.4,177z"/>
<path id="WV" fill="#FFDD00" stroke="#FFFFFF" d="M508.4,168.7l0.7,3.2l0.6,3.7l0.2-0.2l1.4-1.6l1.5-2l1.6-0.1l1-1l1.2-1.7l0.8,0.4
	l1.9-0.2l1.7-1.4l1.3-1l1.2-0.3l1.1,0.7l1.9,1l1.3,1.2l0.9,0.8l-0.7,3.3l-3.7-2l-3-1.2l-0.1,3.5l-0.3,1.4l-1.1,1.8l-0.4,1.1l-2,1.6
	l-0.3,1.5l-2.2,0.2l-0.2,2l-0.7,3.6h-1.7l-0.8-0.5l-1.1-1.8l-1.2,0.1l-0.2,2.9l-1.4,4.4l-3.3,7.1l0.5,0.8l-0.1,1.8l-1.4,1.3l-1-0.2
	l-2.1,1.6l-1.7-0.6l-1.2,3.1c0,0-2.4,0.5-2.9,0.6s-1.6-0.8-1.6-0.8l-1.6,1.5l-1.7,0.4l-1.9-0.5l-0.8-0.8l-1.4-2l-2.1-1.3l-1.7-1.8
	l-1.9-2.4l-0.4-1.5l-1.7-1l-0.5-1.1l-0.2-3.5l1.4-0.1l1.3-0.5l0.1-1.8l1.1-1l0.1-3.3l0.6-2.5l0.8-0.4l0.8,0.7l0.3,1.2l1.2-0.6
	l0.3-1.1l-0.7-1.2v-1.6l0.6-0.8l1.5-2.2l0.8-1l1.4,0.3l1.5-1.1l2-2.2l1.5-2.5l0.2-3.7l0.3-3.3V161l-0.7-2l0.6-1l0.8-0.8l2.3,13
	l3-0.5L508.4,168.7L508.4,168.7z"/>
<path id="KY" fill="#009542" stroke="#FFFFFF" d="M485.5,205.5l-2,2.1l-2.8,2.3l-3,3.5l-1.2,1.2v1.4l-2.5,1.4l-3.7,2.2l-1.7,0.9
	l-34.1,3.2l-10.4,1.2l-3,0.3l-2.5,0v2.5l-5.5,0.3l-4.6,0.4l-6.9,0.1l0.7-0.8l1.4-1.2l1.4-0.8l0.2-2.1l0.6-1.2l-1.1-1.7l0.5-1.3
	l1.5-1.2l1.4-0.4l1.8,0.8l2.3,0.8l0.7-0.2l0.1-1.5l-0.8-1.6l0.2-1.5l1.3-1l1.7-0.4l1.1-0.4L416,212l-0.4-1.3l0.7-0.5l0.7-2.2l2-1.1
	l3.8-0.6l2.3-0.3l1,1.3l1.2,0.5l1.2-2.1l1.9-1l1.3,1.1l0.5,0.7l1.4-0.3l-0.1-2.2l1.9-1.1l0.7-0.5l0.7,1.1h3.1l0.5-1.4l-0.2-1.5
	l1.9-2.3l3.1-2.5l0.3-3l1.8-0.2l2.5-1.2l1.8-1.3l-0.2-1.3l-1-1l0.4-1.4l2.7-0.2l1.6-0.5l1.9,1.1l1.1,2.9l3.8,0.2l1.2,1.2l1.4,0.1
	l1.6-1l2,0.3l0.8,1l1.8-1.7l1.2-0.8h1.1l0.4,1.8l1.2,0.6l2.3,1.4l0.1,3.6l0.5,1.1l1.7,1l0.4,1.5l1.9,2.4l1.7,1.8L485.5,205.5z"/>
<path id="OH" fill="#C2240C" stroke="#FFFFFF" d="M491.9,137.8l-4.7,2.7l-2.5,1.5l-2.2,2.4l-2.7,2.5l-2.1,0.5l-1.9,0.3l-3.6,1.7
	l-1.4,0.1l-2.2-2l-3.4,0.4l-1.7-1l-1.6-0.9l-3.2,0.5l-6.7,1.1l-5.1,0.8l0.8,9.6l1.2,9l1.7,15.4l0.4,3.8l2.7-0.2l1.6-0.5l1.9,1.1
	l1.1,2.9l3.8,0.2l1.2,1.2l1.4,0.1l1.6-1l2,0.3l0.8,1l1.8-1.7l1.2-0.8h1.1l0.4,1.8l1.2,0.6l2.3,1.5l1.4-0.1l1.3-0.5l0.1-1.8l1.1-1
	l0.1-3.3l0.6-2.5l0.8-0.4l0.8,0.7l0.3,1.2l1.2-0.6l0.3-1.1l-0.7-1.2v-1.6l0.6-0.8l1.5-2.2l0.8-1l1.4,0.3l1.5-1.1l2-2.2l1.5-2.5
	l0.2-3.7l0.3-3.3V161l-0.7-2l0.6-1l0.9-0.5l-1.2-7.1L491.9,137.8L491.9,137.8z"/>
<path id="MI" fill="#009542" stroke="#FFFFFF" d="M469.1,126.2l-2.1-5.4l-1.5-5.9l-1.6-2.1l-1.7-1.2l-1.1,0.7l-2.5,1.2l-1.3,3.3
	l-1.8,2.4l-0.7,0.4l-1-0.4c0,0-1.7-1-1.6-1.4c0.1-0.4,0.3-3.3,0.3-3.3l2.2-0.8l0.5-2.2l0.4-1.7l1.6-1.1l-0.2-6.6l-1.1-1.5l-0.8-0.5
	l-0.5-1.4l0.5-0.5l1.1,0.2l0.1-1.1l-1.6-1.5l-0.8-1.7h-1.7l-3-1l-3.6-2.2h-1.8l-0.4,0.4l-0.6-0.3l-2-1.5l-1.9,1.2l-1.9,1.5l0.2,2.3
	l0.6,0.2l1.4,0.3l0.3,0.5l-1.7,0.5l-1.7,0.2l-1,1.2l-0.2,1.4l0.2,1.1l0.2,3.6L433,105l-0.4-0.1v-2.8l-1.2-0.4l-1.8,0.7l-1.2,1.3
	l-0.1,0.6l0.4,0.5l-0.4,1.7l-1.5,0.3v0.7l0.5,1.6l-0.7,4l-1.1,2.7l0.4,3.1l0.3,0.7l-0.5,1.6l-0.2,0.5l-0.2,1.8l2.3,3.9l1.9,4.2
	l1,3.2l-0.5,3.1l-0.6,3.9l-1.6,3.4l-0.2,1.8l-2,2l-0.5,0.5l3-0.1l14.4-1.5l4-0.4l0.2,0.8l5.1-0.8l6.7-1.1l3.4-0.3l-0.9-0.8l0.1-1
	l1.4-2.4l1.3-1.1l-0.1-3.3l1-1l0.7-0.2l0.1-2.3l1-2l0.7,0.4l0.1,0.4l0.5,0.1l1.3-0.6L469.1,126.2z M382.8,83.1l1.2-0.7l1.8-0.5
	l2.3-1.5v-0.6l0.4-0.4l3.9-0.6l1.6-1.3l2.9-1.4l0.1-0.8l1.3-1.9l1.2-0.5l0.8-1.2l1.5-1.5l2.9-1.6l3.1-0.3l0.7,0.7l-0.2,0.6l-2.4,0.6
	l-1,2l-1.5,0.5l-0.3,1.6l-1.6,2.1l-0.2,1.7l0.5,0.3l0.6-0.7l2.3-1.9l0.8,0.8h1.5l2.1,0.6l1,0.7l1,2l1.8,1.8l2.5-0.1l1-0.6l1.1,0.8
	l1.1,0.3l0.8-0.5h0.7l1.1-0.6l2.7-2.3l2.2-0.7l4.4-0.2l3-1.3l1.7-0.8l1,0.1v3.7l0.3,0.2l1.9,0.5l1.3-0.3l4-1.1l0.7-0.7l1,0.3v4.6
	l2.1,2l0.8,0.4l0.8,0.6l-0.8,0.2l-0.5-0.2l-2.4-0.3l-1.4,0.4l-1.5-0.1l-2.1,1h-1.2l-3.8-0.8l-3.4,0.1l-1.3,1.7l-4.6,0.4l-1.6,0.5
	l-0.7,2l-0.8,0.7l-0.3-0.1l-1-1.1l-3,1.6h-0.4l-0.7-1.1l-0.5,0.1l-1.3,2.9l-0.6,2.7l-2.5,5.3l-1.1-0.8l-0.9-0.9l-1.1-6.8l-2.4-0.8
	l-0.9-1.5l-8.3-1.8l-1.7-0.8l-5.4-1.5l-5.4-0.8L382.8,83.1L382.8,83.1z"/>
<path id="WY" fill="#C2240C" stroke="#FFFFFF" d="M244.1,104.3l-7.6-0.6l-21.1-2.2l-10.7-1.4l-18.6-2.7l-13.1-2l-0.9,7.3l-2.5,15.9
	l-3.5,20l-1,6.9l-1.1,7.8l4.3,0.6l11.1,1.5l5.8,0.8l13.5,1.6l24.5,2.7l16.1,1.4l2.9-29.1l1.1-16.7L244.1,104.3L244.1,104.3z"/>
<path id="MT" fill="#FFDD00" stroke="#FFFFFF" d="M245.5,90.4l0.5-7.6l1.5-16.4l0.9-9.9l0.8-9.3l-21-2.2l-19.2-2.3L189.8,40
	l-21.2-3.5l-12.1-2.2L135,29.7l-2.9,14l2.3,5l-0.9,3l1.2,3l2.1,0.9l2.4,6.8l2.4,2.4l0.3,0.8l2.3,0.8l0.3,1.4l-4.7,11.6v1.7l1.7,2.1
	h0.6l3.2-2l0.5-0.8l1.1,0.5l-0.2,3.5l1.8,8.3l2,1.7l0.6,0.5L152,96l-0.3,2.3l0.5,2.3l0.8,0.6l1.5-1.5h1.8l2.1,1.1l1.7-0.6h2.7
	l2.4,1.1l1.8-0.3l0.3-2l2-0.5l0.9,0.9l0.3,2.1l1.7,1.6l1-7.5l13.1,2l18.6,2.7l10.7,1.4l21.1,2.2l7.5,0.8l1.1-10.5L245.5,90.4
	L245.5,90.4z"/>
<path id="ID" fill="#009542" stroke="#FFFFFF" d="M103.1,126.4l3.1-12.1l2.9-11.6l0.9-2.8l1.7-3.9l-0.8-1.5l-1.7,0.1l-0.5-0.7
	l0.3-0.8l0.2-2l2.9-3.6l1.2-0.3l0.8-0.8l0.4-2.1l0.6-0.5l2.6-3.8l2.6-2.9l0.2-2.5L118,73l-0.9-2.9l0.3-6.3l2.4-10.8l2.9-13.7
	l2.5-8.9l0.5-2.5l9.3,1.8l-2.9,14l2.3,5l-0.9,3l1.2,3l2.1,0.9l2.4,6.8l2.4,2.4l0.3,0.8l2.3,0.8l0.3,1.4l-4.7,11.6v1.7l1.7,2.1h0.6
	l3.2-2l0.5-0.8l1.1,0.5l-0.2,3.5l1.8,8.3l2,1.7l0.6,0.5L152,96l-0.3,2.3l0.5,2.3l0.8,0.6l1.5-1.5h1.8l2.1,1.1l1.7-0.6h2.7l2.4,1.1
	l1.8-0.3l0.3-2l2-0.5l0.9,0.9l0.3,2.1l1.7,1.4l-2.5,16.1l-3.4,19.9l-3.2-0.5l-5.5-0.9l-6.8-1.2l-7.9-1.4l-8.3-1.5l-5.3-1.3l-6.1-1.2
	l-6.4-1.3L103.1,126.4L103.1,126.4z"/>
<path id="WA" fill="#C2240C" stroke="#FFFFFF" d="M72.2,14l2.9,1l6.4,1.8L87,18l13.2,3.7l15.1,3.7l10.6,2.4l-0.7,2.6l-2.5,8.9
	l-2.9,13.7l-2.4,10.8l-0.1,6.4l-9.2-2.2l-9.9-2.3l-10.1,0.1l-0.3-0.9l-3.6,1.4l-2.9-0.4l-1.6-1.1l-0.8,0.5L75.7,65l-1.1-0.9
	l-3.5-1.4l-0.5,0.1l-2.9-1L66.5,63l-4.1-0.2l-3.9-2.7l0.5-0.5l0.2-5.1l-1.5-2.6l-2.7-0.4l-0.5-1.7l-1.5-0.3l-1.3-1l-1.2,0.6L49,47.3
	l0.2-1.9l1.8-0.2l1.1-2.7l-1.7-0.7l0.1-2.4l2.9-0.4l-1.8-1.8l-1-4.7l0.4-1.9v-5.2l-1.2-2.1l1.5-6.2l1.4,0.3l1.6,1.9l1.8,1.7l2.1,1.3
	l3,1.4l2,0.4l1.9,1l2.2,0.6l1.5-0.1l1,0.4l1.2,1l0.7,1.6l0.4,1.3l1-0.1l0.1-0.8L72.6,28l-0.3-2.1l0.5-1.2l-0.4-1v-1.5l1.2-2.3
	l-0.7-1.7L71.2,15l0.2-0.5L72.2,14L72.2,14z"/>
<path id="TX" fill="#009542" stroke="#FFFFFF" d="M245.3,228.8l14.9,0.7l20.4,0.8l-0.9,15.6l-0.3,11.7l0.2,1.1l2.9,2.4l1.4,0.8
	l0.5-0.2l0.5-1.4l0.9,1.2h1.4v-0.9l1.8,0.9l-0.3,2.6l2.7,0.2l1.7,0.8l2.7,0.5l1.7,1.2l1.5-1.4l2.3,0.5l1.7,2.3h0.6v1.5l1.5,0.5
	l1.5-1.5l1.2,0.5h1.7l0.6,1.7l3.2,1.2l0.9-0.5l1.2-2.7h0.8l0.8,1.4l2.7,0.5l2.4,0.9l2,0.6l1.2-0.6l0.5-1.7h2.9l1.4,0.6l1.8-1.4h0.8
	l0.5,1.1h2.7l1.1-1.4l1.2,0.3l1.4,1.7l2.1,1.2l2.1,0.6l1.8,0.8l1.5,1.3l2-0.9l1.8,0.8l0.4,7.3l0,6.4l0.5,6.2l0.5,2.6l1.7,2.7
	l0.6,3.3l2.9,3.6l0.2,2.1l0.5,0.5l-0.5,5.6l-2,3.3l1.1,1.4l-0.5,1.7l-0.5,4.8l-0.9,2.1l0.2,2.4l-4.2,1.1l-6.5,3l-0.6,1.3l-1.7,1.3
	l-1.4,1l-0.8,0.5l-3.7,3.5l-1.8,1.4l-3.5,2.1l-3.7,1.6l-4.1,2.2l-1.2,1l-3.8,2.3l-2.2,0.4l-2.5,3.6l-2.7,0.2l-0.6,1.3l1.5,1.3
	l-1,3.6l-0.8,3l-0.7,2.5l-0.5,3l0.5,1.6l1.2,4.6l0.6,4l1.2,1.8l-0.6,1l-2,1.3l-3.7-2.5l-3.6-0.7l-0.8,0.3l-2.1-0.4l-2.8-2l-3.4-0.7
	l-5-2.2l-1.4-2.5l-0.8-4.2l-2.1-1.3l-0.4-1.5l0.4-0.4l0.2-2.2l-0.8-0.4l-0.4-0.6l0.8-2.9l-1.1-1.5l-2.1-0.8l-2.2-2.9l-2.3-4.4
	l-2.8-1.7l0.1-1.3l-3.5-8.1l-0.5-2.8l-1.2-1.3l-0.1-1l-3.9-3.5l-1.7-2v-0.7l-1.7-1.4l-4.5-0.7l-4.9-0.4l-2-1.5l-3,1.2l-2.3,1
	l-1.5,2.1l-0.6,2.4l-2.9,4l-1.6,1.6l-1.7-0.6l-1.2-0.7l-1.3-0.4l-2.5-1.5v-0.4l-1.2-1.3l-3.4-1.4l-4.9-5.1l-1.5-3.1v-5.3l-2.1-4.2
	l-0.3-1.8l-1.1-0.6l-0.7-1.4l-3.3-1.4l-0.8-1.1l-4.7-5.2l-0.8-2.1L201,298l-1-2.9l-1.7-1.9l-1.3-0.3l-0.4-3.1l5.3,0.5l19.1,1.8
	l19.1,1.1l1.5-15.6l2.6-36.5l1.1-12.3l0.9,0"/>
<path id="CA" fill="#009542" stroke="#FFFFFF" d="M101,264.3l2.7-0.5l1-1.4l0.4-1.8l-2.4-0.4l-0.3-0.5l0.3-1.1l0.1-3.8l1.4-0.5
	l1.9-1.8l0.4-3.2l1-2.4l1.3-1.3l2.3-1.1l1.1-0.9l0.1-1.5l-0.7-0.4l-0.5-0.7l-0.8-3.8l-1.8-3.2l0.4-2.1l-1.7-2.1l-9.5-14.9
	l-12.8-19.1l-14.9-22.2l-8.1-12.2l1.1-4.3l4.6-17l5.3-20.7l-8.9-2.4l-8.9-2.3l-8.3-2.7l-5-1.4l-7.5-2l-4.6-1.6l-1,3.1l-0.1,4.9
	l-3.4,7.8l-2,1.7l-0.2,0.7l-1.2,0.5l-1,2.8l-0.5,2.1l1.8,2.8l1.1,2.8l0.7,2.3l-0.2,4.2l-1.2,2l-0.4,3.8l-0.6,2.4l1.2,2.5l1.8,3
	l1.5,3.2l0.8,2.7l-0.2,2.1l-0.2,0.3v1.4l3.7,4.1l-0.3,1.6l-0.4,1.5l-0.4,1.3l0.1,5.4l1.4,2.4l1.3,1.7l1.8,0.3l0.6,1.8l-0.7,2.3
	l-1.4,1.1h-0.7l-0.5,2.5l0.3,1.9l2.1,2.9l1.1,3.5l1,3.1l0.8,2l2.2,3.8l1,1.7l0.3,1.9l1.1,0.6v1.6l-0.5,1.3l-1.2,4.7l-0.3,1.3
	l1.6,1.8l2.8,0.3l3,1.2l2.5,1.4H50l1.9,2l1.7,3.2l0.7,1.5l2.5,1.4l3.2,0.5l1,1.4l0.4,2.1l-1,0.4l0.2,0.6l2.1,0.5l1.8,0.1l1.9,3.1
	l2.5,2.8l0.5,1.5l1.7,2.8l0.2,2.1v6.2l0.3,1.2l6.6,1l13,1.8L101,264.3L101,264.3z"/>
<path id="AZ" fill="#FFDD00" stroke="#FFFFFF" d="M101.2,264.3l-1.7,1.4l-0.2,1l0.3,0.6l12.4,7l8,5l9.7,5.6l11,6.6l8.1,1.6l17.6,2.3
	l1.3-8.7l2.5-17.7l4.6-34.9l2.8-20.2l-16.9-2.5l-17.9-3l-22-4.2l-1.9,11.9l-0.3,0.3l-1.1,1.7l-1.7-0.1l-0.8-1.8l-1.8-0.2l-0.6-0.8
	h-0.6l-0.6,0.4l-1.3,0.7l-0.1,4.6l-0.2,1.1l-0.4,8.3l-1,1.4l-0.4,2.2l1.8,3.2l0.8,3.8l0.5,0.7l0.7,0.4l-0.1,1.5l-1.1,0.9l-2.3,1.1
	l-1.3,1.3l-1,2.4l-0.4,3.2l-1.9,1.8l-1.4,0.5l-0.1,3.8l-0.3,1.1l0.3,0.5l2.4,0.4l-0.4,1.8l-1,1.4L101.2,264.3L101.2,264.3z"/>
<path id="NV" fill="#C2240C" stroke="#FFFFFF" d="M103.1,126.4l13.8,3l6.4,1.3l6.1,1.2l5.3,1.4l-0.8,3.6l-2.3,11.5l-2.5,13.4
	l-1.3,5.9l-1.4,8.9l-2.2,10.9l-2.1,10l-1.3,6.9l-1.9,11.6l-0.3,0.3l-1.1,1.7l-1.7-0.1l-0.8-1.8l-1.8-0.2l-0.6-0.8h-0.6l-0.6,0.4
	l-1.3,0.7l-0.1,4.6l-0.2,1.1l-0.4,8.3l-1,1.4l-1.7-2.1l-9.5-14.9l-12.8-19.1l-14.9-22.2l-8.1-12.2l1.1-4.3l4.6-17l5.2-20.6l22.1,5.3
	l9,2"/>
<path id="UT" fill="#005FAB" stroke="#FFFFFF" d="M177.4,214l-16.8-2.7l-17.9-3l-22-4.1l1.4-6.8l2.1-10l2.2-10.9l1.4-8.9l1.3-5.9
	l2.5-13.4l2.3-11.5l0.7-3.7l8.4,1.5l7.9,1.4l6.8,1.2l5.5,0.9l3.2,0.5l-1.1,7l-1.1,7.8l4.3,0.6l11.1,1.5l6,0.8l-2,14.5l-2.1,14.7
	l-2.5,18.4l-1,7.3L177.4,214L177.4,214z"/>
<path id="CO" fill="#009542" stroke="#FFFFFF" d="M257.5,221.8l2.7-43.3l1.1-14.7l-21.9-1.8l-16.1-1.4l-24.5-2.7l-13.6-1.7
	l-1.7,14.6l-2.1,14.7l-2.5,18.4l-1,7.3l-0.4,2.6l22.6,2.7l24.3,2.9l21.5,1.4l4.4,0.5l7.5,0.4"/>
<path id="NM" fill="#C2240C" stroke="#FFFFFF" d="M197.2,293l-0.5-3.2l5.3,0.5l19.1,1.8l19.1,1.1l1.5-15.6l2.6-36.5l1.1-12.3l0.9,0
	l0-7.7l-21.7-1.6l-24.3-2.9l-22.6-2.7l-2.8,20.2l-4.6,34.9l-2.5,17.7l-1.3,8.7l10.2,1.3l0.8-6.6l10.9,1.7L197.2,293L197.2,293z"/>
<path id="OR" fill="#005FAB" stroke="#FFFFFF" d="M103.3,126.2l2.9-11.9l2.9-11.6l0.9-2.8l1.7-3.9l-0.8-1.5l-1.7,0.1l-0.5-0.7
	l0.3-0.8l0.2-2l2.9-3.6l1.2-0.3l0.8-0.8l0.4-2.1l0.6-0.5l2.6-3.8l2.6-2.9l0.2-2.5L118,73l-0.7-2.8l-9.2-2.4l-9.9-2.3l-10.1,0.1
	l-0.3-0.9l-3.6,1.4l-2.9-0.4l-1.6-1.1l-0.8,0.5L75.7,65l-1.1-0.9l-3.5-1.4l-0.5,0.1l-2.9-1L66.5,63l-4.1-0.2l-3.9-2.7l0.5-0.5
	l0.2-5.1l-1.5-2.6l-2.7-0.4l-0.5-1.7l-1.5-0.3l-3.8,1.4l-1.5,4.2l-2.1,6.6L43.4,66l-3.3,9.2l-4.2,8.9l-5.3,8.3l-1.3,1.9l-0.5,5.6
	l-0.8,3.9l1.5,2.9l4.6,1.6l7.5,2l5,1.4l8.3,2.7l8.9,2.3l8.9,2.6 M103.1,126.4l-30.8-7.3l22.1,5.3l9,2"/>
<path id="ND" fill="#009542" stroke="#FFFFFF" d="M320.8,94.2l-0.5-5.6l-1.2-4.8l-1.2-8.9l-0.3-6.5l-1.2-2.3l-1.1-3.3v-6.8l0.5-2.6
	l-1.3-3.6l-19.3-0.4l-12.2-0.4l-17.4-0.8l-16.4-1.2l-0.8,9.3l-0.9,9.9l-1.5,16.4l-0.4,8l36.9,2.4L320.8,94.2L320.8,94.2z"/>
<path id="SD" fill="#005FAB" stroke="#FFFFFF" d="M321.8,143.8l-0.6-1.3l-1.1-1.9l1.2-2.9l0.9-3.8l-1.8-1.4l-0.3-1.8l0.6-1.7h1.2
	l0.3-4.5l-0.2-20l-0.3-2l-2.7-2.3l-0.8-1.2v-1.1l1.4-1.1l0.9-0.9l0.2-2.1l-38.2-1.1l-36.9-2.6l-0.5,3.5l-1.1,10.4l-0.9,11.8
	l-1.1,16.9l10.2,0.7l13.2,0.8l11.7,0.8l15.6,0.8l7.1-0.3l1.4,1.5l3.2,2l0.8,0.6l2.9-0.9l2.6-0.3l1.8-0.2l1.2,0.9l3.3,1.1l2,1.1
	l0.3,1.1l0.6,1.4h1.2L321.8,143.8L321.8,143.8z"/>
<path id="NE" fill="#FFDD00" stroke="#FFFFFF" d="M329.5,171.8l0.9,1.7l-0.2,1.5l1.7,2.6l2.1,2.7H330l-29-0.3l-26.6-0.9l-14.3-0.5
	l1.1-14.6l-21.9-1.8l2.9-28.9l10.2,0.7l13.2,0.8l11.7,0.8l15.6,0.8l7.1-0.3l1.4,1.5l3.2,2l0.8,0.6l2.9-0.9l2.6-0.3l1.8-0.2l1.2,0.9
	l3.3,1.1l2,1.1l0.3,1.1l0.6,1.4h1.2l1.1-0.1l0.8,3.5l1.8,5l0.6,3.2l1.5,2.4l0.5,3.5l1.1,2.7l0.2,4.4l1.3,3.6"/>
<path id="IA" fill="#009542" stroke="#FFFFFF" d="M383.6,142.1l0,1.2l1.5,0.5l0.6,0.8l0.3,1.2l2.6,2.3l0.5,1.5l-0.5,2.3l-1.2,2.4
	l-0.5,1.7l-1.5,1.2l-1.2,0.5l-3.5,0.9l-0.5,1.2l-0.5,1.4l0.5,0.9l1.2,1.1l-0.2,2.7l-1.2,1.1l-0.5,1.1v1.8l-1.2,0.3l-1.1,0.8
	l-0.2,0.9l0.2,1.4l-1.1,1.2l-2.2-2.2l-0.8-1.5l-5.1,0.5l-6.5,0.3l-16.7,0.6l-8.9,0.2l-6.2,0.2l-0.7,0.1l-1.1-3.5l-0.2-4.4l-1.1-2.7
	l-0.5-3.5l-1.5-2.4l-0.6-3.2l-1.8-5l-0.8-3.5l-0.9-1.4l-1.1-1.8l1.2-2.9l0.9-3.8l-1.8-1.4l-0.3-1.8l0.6-1.7h1.1h7.6l32.6-0.5
	l11.9-0.5l2.7-0.1l0.5,2.2l1.5,1.1l0.2,0.9l-1.4,2.3l0.2,2.1l1.7,2.6l1.7,0.8l2,0.3L383.6,142.1L383.6,142.1z"/>
<path id="MS" fill="#005FAB" stroke="#FFFFFF" d="M421.6,316.5l-0.8,0.8h-3.4l-1-0.5l-1.4-0.2l-4.5,1.3l-1.2-0.5l-1.7,2.8l-0.7,0.5
	l-0.7-1.6l-0.8-2.6l-2.3-2.1l0.8-5l-0.5-0.6l-1.2,0.2l-5.4,0.5l-15.9,0.5l-0.3-1.1l0.5-5.3l2.3-4.1l3.5-6l-0.6-1.4h0.8l0.5-2.1
	l-1.5-1.2l0.2-1.2l-1.4-3l-0.2-3.5l0.9-1.7l-0.3-2.9l-0.9-2l0.9-0.9l-0.9-1.4l0.3-1.2l0.6-4.1l2-1.8l-0.5-1.4l2.4-3.5l1.8-0.6v-1.7
	l-0.5-0.9l1.8-3.5l1.8-0.8l0.1-2.2l5.7-0.1l15.8-1.3l3.6-0.2l0,4.2l0.1,10.9l-0.5,20.4l-0.1,9.2l1.8,12.3L421.6,316.5L421.6,316.5z"
	/>
<path id="IN" fill="#005FAB" stroke="#FFFFFF" d="M417.1,208.1l-0.1-2.5l0.3-3l1.5-1.9l1.2-2.5l1.7-2.8l-0.3-3.8l-1.2-1.8l-0.2-2.1
	l0.5-3.6l-0.3-4.6l-0.8-10.5l-0.8-10.1l-0.6-7.7l2,0.6l1,0.6l0.7-0.2l1.4-1.3l1.9-1.1l3.3-0.1l14.4-1.5l4-0.4l0.1,0.7l1,9.7l1.2,9
	l1.7,15.4l0.3,3.7l-0.3,1.5l1,1l0.2,1.3l-1.8,1.3l-2.5,1.2l-1.8,0.2l-0.3,3l-3.1,2.5l-1.9,2.3l0.2,1.5l-0.5,1.4h-3.1l-0.7-1.1
	l-0.7,0.5l-1.9,1.1l0.1,2.2l-1.4,0.3l-0.5-0.7l-1.3-1.1l-1.9,1l-1.2,2.1l-1.2-0.5l-1-1.3l-2.3,0.3l-3.8,0.6L417.1,208.1L417.1,208.1
	z"/>
<path id="IL" fill="#C2240C" stroke="#FFFFFF" d="M417,208v-2.4l0.3-3l1.5-1.9l1.2-2.5l1.7-2.8l-0.3-3.8l-1.2-1.8l-0.2-2.1l0.5-3.6
	l-0.3-4.6l-0.8-10.5l-0.8-10.1l-0.5-7.6l-0.8-0.5l-0.5-1.7l-0.8-2.4l-1.1-1.2l-1-1.7l-0.2-3.6l-6.5,0.9l-17.9,1.1l-5.7-0.3l0.2,1.6
	l1.5,0.5l0.6,0.8l0.3,1.2l2.6,2.3l0.5,1.5l-0.5,2.3l-1.2,2.4l-0.5,1.7l-1.5,1.2l-1.2,0.5l-3.5,0.9l-0.5,1.2l-0.5,1.4l0.5,0.9
	l1.2,1.1l-0.2,2.7l-1.2,1.1l-0.5,1.1v1.8l-1.2,0.3l-1.1,0.8l-0.2,0.9l0.2,1.4l-1.1,0.9l-0.7,1.8l0.3,2.4l1.5,4.8l4.8,5l3.6,2.4
	l-0.2,2.9l0.6,0.9l4.2,0.3l1.8,0.9l-0.5,2.4l-1.5,3.9l-0.5,2.1l1.5,2.6l4.2,3.5l3,0.5l1.4,3.3l1.4,2.1l-0.6,2l1.1,2.7l1.2,1.4
	l1.9-0.2l0.4-1.3l1.5-1.2l1.4-0.4l1.8,0.8l2.3,0.8l0.7-0.2l0.1-1.5l-0.8-1.6l0.2-1.5l1.3-1l1.7-0.4l1.1-0.4L416,212l-0.4-1.3
	l0.7-0.5L417,208L417,208z"/>
<path id="MN" fill="#C2240C" stroke="#FFFFFF" d="M320.7,94.2l-0.3-5.6l-1.2-4.8l-1.2-8.9l-0.3-6.5l-1.2-2.3l-1.1-3.3v-6.8l0.5-2.6
	l-1.2-3.6l19.8,0l0.2-5.4l0.4-0.1l1.5,0.3l1.3,0.5l0.5,3.6l1,4l1.1,1.1h3.2l0.2,1l4.1,0.2v1.4h3.2l0.2-0.8l0.7-0.7l1.5-0.4l0.8,0.6
	h1.9l2.5,1.7l3.5,1.6l1.6,0.3l0.3-0.6l1-0.3l0.3,1.9l1.7,0.8l0.3-0.3l0.8,0.1v1.4l1.7,0.6h2l1.1-0.5l2.1-2.1l1.7-0.3l0.5,1.2
	l0.3,0.8h0.6l0.6-0.5l5.8-0.2l1.2,2h0.4l0.5-0.7l2.9-0.2l-0.4,1.5l-2.6,1.2l-6.1,2.7l-3.1,1.3l-2,1.7l-1.6,2.3l-1.5,2.5l-1.2,0.5
	l-3,3.3l-0.8,0.1l-2.2,2l0.5,0.4l-1.9,1.8l-0.2,1.8v5.6l-0.8,1.1l-3.5,2.6l-1.5,3.9l0.3,0.2l1.7,1.4l0.5,2.1l-1.2,2.1v2.6l0.3,4.4
	l2,2h2.3l1.2,2.1l2.3,0.3l2.6,3.8l4.7,2.7l1.4,1.8l0.6,5h-2.7l-11.9,0.5l-32.6,0.5h-7.6l0.4-4.5l-0.2-20l-0.3-2l-2.7-2.3l-0.8-1.2
	v-1.1l1.4-1.1l0.9-0.9L320.7,94.2L320.7,94.2z"/>
<path id="WI" fill="#FFDD00" stroke="#FFFFFF" d="M413.5,140.1l0.1-2.8l-1.1-3l-0.4-4l-0.7-1.6l0.6-2l0.5-1.9l1-1.7l-0.4-2.2
	l-0.4-2.3l0.3-1.2l1.3-1.6l0.1-1.8l-0.5-0.8l0.4-1.7l0.3-2.1l1.8-3.7l1.9-4.5l0.1-1.5l-0.2-0.6l-0.5,0.3l-2.8,4.1l-1.8,2.7l-1.3,1.2
	l-0.5,1.5l-1,0.5l-0.7,1.3l-1-0.2l-0.1-1.2l0.8-1.6l1.4-3.1l1.2-1.1l0.7-1.5l-1.1-0.6l-0.9-0.9l-1.1-6.8l-2.4-0.8l-0.9-1.5l-8.3-1.8
	l-1.7-0.8l-5.4-1.5l-5.4-0.8l-2.7-3.6l-0.3,0.8l-0.7-0.1l-0.4-0.7l-1.8-0.5l-0.7,0.1l-1.2,0.6l-0.6-0.4l0.4-1.3l1.3-2l0.7-0.7
	l-1.3-1l-1.4,0.5l-1.9,1.3l-4.9,2.1l-1.9,0.4l-1.9-0.3l-0.6-0.6l-1.4,1.9l-0.2,1.8v5.6l-0.8,1.1l-3.5,2.6l-1.5,3.9l0.3,0.2l1.7,1.4
	l0.5,2.1l-1.2,2.1v2.6l0.3,4.4l2,2h2.3l1.2,2.1l2.3,0.3l2.6,3.8l4.7,2.7l1.4,1.8l0.6,4.9l0.5,2.2l1.5,1.1l0.2,0.9l-1.4,2.3l0.2,2.1
	l1.7,2.6l1.7,0.8l2,0.3l0.8,1.7l6,0l17.5-1.1L413.5,140.1L413.5,140.1z"/>
<path id="MO" fill="#005FAB" stroke="#FFFFFF" d="M376.3,173.8l-2.1-2.1l-0.8-1.5l-5.1,0.5l-6.5,0.3l-16.7,0.6l-8.9,0.2l-5.2,0.1
	l-1.5,0.1l0.8,1.7l-0.2,1.5l1.7,2.6l2,2.7l2,1.8l1.5,0.2l0.9,0.6v2l-1.2,1.1l-0.3,1.5l1.4,2.3l1.7,2l1.7,1.2l0.9,7.7l-0.5,23.2
	l0.2,3.1l0.3,4.5l15.3-0.3l15.3-0.5l13.7-0.6l7.2-0.3l1.2,2l-0.3,1.5l-2.1,1.8l-0.5,2l4.1,0.3l3.3-0.5l1.4-4.2l-0.1-3.7l1.9-1
	l0.9-1.1l1.4-0.8l0.2-2.1l0.6-1.2l-0.9-1.6l-2,0.2l-1.2-1.4l-1.1-2.7l0.6-2l-1.4-2.1l-1.4-3.3l-3-0.5l-4.2-3.5l-1.5-2.6l0.5-2.1
	l1.5-3.9l0.5-2.4l-1.8-0.9l-4.2-0.3l-0.6-0.9l0.2-2.9l-3.6-2.4l-4.8-5l-1.5-4.8l-0.3-2.4L376.3,173.8L376.3,173.8z"/>
<path id="AR" fill="#C2240C" stroke="#FFFFFF" d="M399.6,236.4l-3.2,0.6l-4.1-0.3l0.5-2l2.1-1.8l0.3-1.5l-1.2-2l-7.2,0.3l-13.7,0.6
	l-15.3,0.5l-15.3,0.3l1.1,4.5v5.4l0.9,7.2l0.2,24.9l1.5,1.3l2-0.9l1.8,0.8l0.4,7.4l14.6,0l12.6-0.6l7.1,0.1l1-1.7l-0.3-2.9l-0.9-2
	l0.9-0.9l-0.9-1.4l0.3-1.2l0.6-4.1l2-1.8l-0.5-1.4l2.4-3.5l1.8-0.6v-1.7l-0.5-0.9l1.8-3.5l1.8-0.8l-0.2-2.4l1.6-0.7l0.6-3.1l-1-2.3
	l2.7-1.5l0.2-1.7l0.9-2.9L399.6,236.4L399.6,236.4z"/>
<path id="OK" fill="#FFDD00" stroke="#FFFFFF" d="M257.3,221.7l-7-0.3L246,221l0.2,0.1l-0.4,7.6l14.3,0.7l20.4,0.8l-0.9,15.6
	l-0.3,11.7l0.2,1.1l2.9,2.4l1.4,0.8l0.5-0.2l0.5-1.4l0.9,1.2h1.4v-0.9l1.8,0.9l-0.3,2.6l2.7,0.2l1.7,0.8l2.7,0.5l1.7,1.2l1.5-1.4
	l2.3,0.5l1.7,2.3h0.6v1.5l1.5,0.5l1.5-1.5l1.2,0.5h1.7l0.6,1.7l3.2,1.2l0.9-0.5l1.2-2.7h0.8l0.8,1.4l2.7,0.5l2.4,0.9l2,0.6l1.2-0.6
	l0.5-1.7h2.9l1.4,0.6l1.8-1.4h0.8l0.5,1.1h2.7l1.1-1.4l1.2,0.3l1.4,1.7l2.1,1.2l2.1,0.6l1.8,1.1l-0.2-25.1l-0.9-7.2v-5.4l-1.1-4.5
	l-0.3-4.5l-0.2-2.9l-8.7,0.5l-30.5-0.3l-29.6-1.4L257.3,221.7L257.3,221.7z"/>
<path id="KS" fill="#C2240C" stroke="#FFFFFF" d="M342,223.8l-8.7,0.5l-30.5-0.3l-29.6-1.4l-15.9-0.8l2.7-43.3l14.3,0.5l26.6,0.9
	l29,0.3h4l2,1.8l1.5,0.2l0.9,0.6v2l-1.2,1.1l-0.3,1.5l1.4,2.3l1.7,2l1.7,1.2l0.9,7.7L342,223.8L342,223.8z"/>
<path id="LA" fill="#FFDD00" stroke="#FFFFFF" d="M407.1,320.5l-0.8-1.5l-0.8-2.6l-2.3-2.1l0.8-5l-0.5-0.6l-1.2,0.2l-5.4,0.5
	l-15.9,0.5l-0.3-1.1l0.5-5.3l2.3-4.1l3.5-6l-0.6-1.4h0.8l0.5-2.1l-1.5-1.2l0.2-1.2l-1.4-3l-0.2-3.6h-7.1l-12.6,0.6l-14.6,0l0,6.3
	l0.5,6.2l0.5,2.6l1.7,2.7l0.6,3.3l2.9,3.6l0.2,2.1l0.5,0.5l-0.5,5.6l-2,3.3l1.1,1.4l-0.5,1.7l-0.5,4.8l-0.9,2.1l0.1,2.4l3.1-1
	l5.3-0.2l6.8,2.3l4.2,0.7l2.4,0l2.1-0.3l2.1,0.6l0.5-1.4l-2.1-0.7l-1.7,0.3l-1.8-1.1c0,0,0.1-0.8,0.5-1s2-0.6,2-0.6l1.2,1l1.2-0.6
	l2.1,0.4l1,1.6l0.2,1.5l3,0.2l1.2,1.2l-0.5,1.1l-0.8,0.5l1.1,1.1l5.5,2.3l2.3-0.8l0.6-1.6l1.7-0.4l1.2-1l0.8,0.6l0.5,1.9l-1.5,0.5
	l0.4,0.4l2.2-0.8l1.5-2.2l0.5-0.3l-1.4-0.2l0.5-1.1l-0.1-1l1.4-0.3l0.7-0.8l0.4,0.5c0,0-0.1,2,0.4,2s2.8,0.4,2.8,0.4l2.7,1.3l0.6,1
	h1.9l0.7,0.6l1.5-2v-1h-0.8l-2.2-1.8l-3.8-0.5l-2.1-1.5l0.7-1.8l1.5,0.2l0.1-0.4l-1.2-0.6v-0.3h2.1l1.2-2l-0.8-1.3l-0.2-1.8l-1,0.1
	l-1.3,1.4l-0.4,1.7l-2-0.4l-0.6-1.2l1.2-1.3l1.3-1.2L407.1,320.5L407.1,320.5z"/>
<path id="VA" fill="#C2240C" stroke="#FFFFFF" d="M485.6,205l1.3,2.3l0.8,0.8l1.9,0.5l1.7-0.4l1.6-1.5c0,0,1.2,1,1.6,0.8
	c0.4-0.1,2.9-0.6,2.9-0.6l1.2-3.1l1.7,0.6l2.1-1.6l1,0.2l1.4-1.3l0.1-1.8l-0.5-0.8l3.3-7.1l1.4-4.4l0.2-2.9l1.2-0.1l1.1,1.8l0.8,0.5
	h1.7l0.7-3.6l0.2-2l2.2-0.2l0.3-1.5l2-1.6l0.4-1.1l1.1-1.8l0.3-1.4l0.1-3.5l3,1.2l3.7,2l0.5-3.3l2.8,1.3v1.9l3.6,0.8l1.3,0.8
	l0.6-1.3l1.5,1.1l-1,2.1l-0.2,1.8l-1.2,1.7v1.4l0.4,1.2l3.3,0.9l1.2,1l3.4,0.2l1.7,1.5l2.1,0.4l0.8,0.8l-0.3,3l0.6,0.6l0.1,1.5
	l0.8,1.4l-0.1,1.2l-2.1-0.7v0.6l1.3,1.1v0.7l1,0.7l0.8,1.1l0.1,1.5l-1.5,1l0.2,0.3l1.7-0.3l2.1-0.4l0.7-0.1l2.7,4.6l-3.2,1.1
	l-7.5,1.9l-12.6,2.5l-13.5,2.5l-11.3,1.7l-10.4,1.3l-4.7,0.8l-3-0.4l-1.4,0l-1.6,1.3l-5.2,0.1l-7.9,1.2l-6.6,0.6l1.8-0.9l3.7-2.2
	l2.5-1.4v-1.4l1.2-1.2l3-3.5l2.8-2.3L485.6,205L485.6,205z M554.2,197.7l0.4,0.1l1.2-2.5l0.5-2.1l0.9-5.2l1.8-2.7l-4,0.5l0.3,2.3
	l-1.6,2.8l-0.3,4.9L554.2,197.7L554.2,197.7z"/>

</svg>
