<svg id="map-utilities" viewBox="0 0 640 400">
  <g id="utility-paths"></g>

  <g class="utility" data-type="utility" data-utility="utility1">
    <circle fill="#FBB03B" cx="320" cy="110" r="30"/>
    <path fill="#FFF" d="M334,90l-11.2,11.3l7.8,1.8L318,115.7l5.9,1.6l-15.7,15.2c0.1-0.3,4.9-11,4.9-11l-5.1-2.1l7.2-10.7l-6.9-1.6l12.9-17.9L334,90z"/>
  </g>

  <g class="utility" data-type="utility" data-utility="utility2">
    <circle fill="#29ABE2" cx="140" cy="110" r="30"/>
    <path fill="#FFF" d="M131.7,104.8c-3.6,4.1-7.9,4.7-12.7,3.1c-1.5-0.5-2.3-1.4-2.5-3.2c-0.2-2.4-0.6-4.7-1-7.5c2.5,2.5,5.1,3.9,8.3,3.7c3.2-0.2,5.7-1.6,7.8-4.3c2.2,2.7,4.8,4.4,8.2,4.3c3.4,0,6.1-1.5,8.2-4.2c5.5,6.3,12.4,4.9,16.5-0.1c-0.5,3.5-0.8,6.5-1.4,9.4c-0.1,0.7-1.2,1.2-1.9,1.6c-4.3,2.2-9.2,1.2-13.1-2.7c-2.1,2.6-4.8,3.8-8.2,3.8C136.6,108.7,133.8,107.5,131.7,104.8z"/>
    <path fill="#FFF" d="M131.7,121.4c-3.6,4.1-7.9,4.7-12.7,3.1c-1.5-0.5-2.3-1.4-2.5-3.2c-0.2-2.4-0.6-4.7-1-7.5c2.5,2.5,5.1,3.9,8.3,3.7c3.2-0.2,5.7-1.6,7.8-4.3c2.2,2.7,4.8,4.4,8.2,4.3c3.4,0,6.1-1.5,8.2-4.2c5.5,6.3,12.4,4.9,16.5-0.1c-0.5,3.5-0.8,6.5-1.4,9.4c-0.1,0.7-1.2,1.2-1.9,1.6c-4.3,2.2-9.2,1.2-13.1-2.7c-2.1,2.6-4.8,3.8-8.2,3.8C136.6,125.3,133.8,124.1,131.7,121.4z"/>
  </g>

  <g class="utility" data-type="utility" data-utility="utility3">
    <circle fill="#39B54A" cx="500" cy="110" r="30"/>
    <path fill="#FFF" d="M497.4,87.4c6.3,6,12.6,11.8,16.5,19.7c2.6,5.3,3.9,10.9,2.1,16.8c-1.3,4.3-4.2,7.3-8.4,9c-0.3,0.1-0.6,0.2-0.9,0.3c-0.2,0-0.4,0-0.7-0.1c4.4-4.4,6.2-9.6,5.2-15.5c-1-5.7-4.2-10.1-8.9-14.2c0.5,5.8-0.6,11-3.4,15.9c-0.9-2.5-1.5-5-3.8-6.6c-1.4,3.4-2.9,6.7-4,10.1c-1,2.9-0.3,5.7,1.7,8.1c0.5,0.6,0.9,1.1,1.4,1.8c-5.1-1.2-9.4-6.5-9.8-11.7c-0.4-5,1.5-9.3,3.7-13.5c2.4-4.5,4.9-9.1,7.2-13.7C496.2,91.8,496.7,89.7,497.4,87.4z"/>
  </g>
  
  <g class="utility" data-type="house">
    <circle fill="#4D4D4D" cx="140" cy="290" r="30"/>
    <path class="utility1" fill="#FBB03B" d="M140,260v30l26,15c2.6-4.4,4-9.5,4-15C170,273.4,156.6,260,140,260z"/>
    <path class="utility2" fill="#29ABE2" d="M140,260c-16.5,0-29.9,13.4-29.9,30c0,5.5,1.5,10.6,4,15l25.9-15V260z"/>
    <path class="utility3" fill="#39B54A" d="M114,305c5.2,9,14.9,14.9,26.1,14.9c11.1,0,20.9-5.9,26-14.9L140,290L114,305z"/>
    <path fill="#FFF" d="M140.1,281l12.1,10.5v11.1h-8.8v-6.4h-6.6v6.4H128v-11L140.1,281z M140.1,278.2l13.4,11.8l2.4-2.4l-15.8-14.2l-16,14.3l2.4,2.4L140.1,278.2z"/>
  </g>

  <g class="utility" data-type="house">
    <circle fill="#4D4D4D" cx="320" cy="290" r="30"/>
    <path class="utility1" fill="#FBB03B" d="M320,260v30l26,15c2.6-4.4,4-9.5,4-15C350,273.4,336.6,260,320,260z"/>
    <path class="utility2" fill="#29ABE2" d="M320,260c-16.5,0-29.9,13.4-29.9,30c0,5.5,1.5,10.6,4,15l25.9-15V260z"/>
    <path class="utility3" fill="#39B54A" d="M294,305c5.2,9,14.9,14.9,26.1,14.9c11.1,0,20.9-5.9,26-14.9L320,290L294,305z"/>
    <path fill="#FFF" d="M320.1,281l12.1,10.5v11.1h-8.8v-6.4h-6.6v6.4H308v-11L320.1,281z M320.1,278.2l13.4,11.8l2.4-2.4l-15.8-14.2l-16,14.3l2.4,2.4L320.1,278.2z"/>
  </g>

  <g class="utility" data-type="house">
    <circle fill="#4D4D4D" cx="500" cy="290" r="30"/>
    <path class="utility1" fill="#FBB03B" d="M500,260v30l26,15c2.6-4.4,4-9.5,4-15C530,273.4,516.6,260,500,260z"/>
    <path class="utility2" fill="#29ABE2" d="M500,260c-16.5,0-29.9,13.4-29.9,30c0,5.5,1.5,10.6,4,15l25.9-15V260z"/>
    <path class="utility3" fill="#39B54A" d="M474,305c5.2,9,14.9,14.9,26.1,14.9c11.1,0,20.9-5.9,26-14.9L500,290L474,305z"/>
    <path fill="#FFF" d="M500.1,281l12.1,10.5v11.1h-8.8v-6.4h-6.6v6.4H488v-11L500.1,281z M500.1,278.2l13.4,11.8l2.4-2.4l-15.8-14.2l-16,14.3l2.4,2.4L500.1,278.2z"/>
  </g>
</svg>
  