<svg xmlns="http://www.w3.org/2000/svg" viewBox="0 0 600 240"><title>Artboard 1</title><polygon points="166.4 77.2 16.5 90.9 160.2 9.8 166.4 77.2" fill="#ccc"/><path d="M58.5,87.1a43,43,0,0,0-5.3-16.9" fill="none" stroke="#b30469" stroke-miterlimit="10" stroke-width="3"/><polyline points="149.9 78.7 148.4 62.3 164.9 60.8" fill="none" stroke="#242436" stroke-miterlimit="10" stroke-width="3"/><polygon points="28.7 143.6 126 103.2 46.8 187.4 28.7 143.6" fill="#ccc"/><path d="M98.7,114.6a29.3,29.3,0,0,0,7.1,10.1" fill="none" stroke="#b30469" stroke-miterlimit="10" stroke-width="3"/><polyline points="39.4 139.2 43.8 149.9 33.1 154.3" fill="none" stroke="#242436" stroke-miterlimit="10" stroke-width="3"/><polygon points="150.7 120.2 249.5 206 112.1 164.7 150.7 120.2" fill="#ccc"/><path d="M221.8,182a38.2,38.2,0,0,0-7.4,13.5" fill="none" stroke="#b30469" stroke-miterlimit="10" stroke-width="3"/><polyline points="161.6 129.7 152.1 140.5 141.3 131.1" fill="none" stroke="#242436" stroke-miterlimit="10" stroke-width="3"/><polygon points="498.5 88.1 381.7 147.2 471.9 35.6 498.5 88.1" fill="#ccc"/><path d="M414.4,130.6a36.5,36.5,0,0,0-9.7-11.9" fill="none" stroke="#b30469" stroke-miterlimit="10" stroke-width="3"/><polyline points="485.6 94.6 479.1 81.8 492 75.3" fill="none" stroke="#242436" stroke-miterlimit="10" stroke-width="3"/><polygon points="186.3 77.7 269.2 89.9 180.8 115 186.3 77.7" fill="#ccc"/><path d="M245.9,86.5a23.1,23.1,0,0,0,.7,9.8" fill="none" stroke="#b30469" stroke-miterlimit="10" stroke-width="3"/><polyline points="195.4 79 194 88.1 184.9 86.8" fill="none" stroke="#242436" stroke-miterlimit="10" stroke-width="3"/><polygon points="308.7 145 451.2 219.3 275.2 209.1 308.7 145" fill="#ccc"/><path d="M411.3,198.5a44.5,44.5,0,0,0-5.1,18.2" fill="none" stroke="#b30469" stroke-miterlimit="10" stroke-width="3"/><polyline points="324.3 153.2 316.2 168.9 300.5 160.7" fill="none" stroke="#242436" stroke-miterlimit="10" stroke-width="3"/><polygon points="345.3 30.8 240.3 152.4 400.1 78 345.3 30.8" fill="#ccc"/><path d="M269.7,118.4a44.4,44.4,0,0,1,11.4,15" fill="none" stroke="#b30469" stroke-miterlimit="10" stroke-width="3"/><polyline points="333.8 44.2 347.1 55.7 358.7 42.3" fill="none" stroke="#242436" stroke-miterlimit="10" stroke-width="3"/><polygon points="496.8 55.2 589.5 116.6 524.5 13.5 496.8 55.2" fill="#ccc"/><path d="M563.6,99.4a31,31,0,0,1,9.3-9.1" fill="none" stroke="#b30469" stroke-miterlimit="10" stroke-width="3"/><polyline points="507 62 513.8 51.8 503.6 45" fill="none" stroke="#242436" stroke-miterlimit="10" stroke-width="3"/><polygon points="561.2 128 381.6 163.2 577.1 208.9 561.2 128" fill="#ccc"/><path d="M431.9,153.4a51.8,51.8,0,0,1-.4,21.5" fill="none" stroke="#b30469" stroke-miterlimit="10" stroke-width="3"/><polyline points="541.5 131.9 545.3 151.6 565.1 147.8" fill="none" stroke="#242436" stroke-miterlimit="10" stroke-width="3"/><polygon points="139 189.7 66 218.8 152 222.6 139 189.7" fill="#ccc"/><path d="M86.4,210.6a22.5,22.5,0,0,1,1.6,9.1" fill="none" stroke="#b30469" stroke-miterlimit="10" stroke-width="3"/><polyline points="130.9 192.9 134.1 200.9 142.2 197.8" fill="none" stroke="#242436" stroke-miterlimit="10" stroke-width="3"/><polygon points="398.4 53.5 474.9 17 381.9 19.1 398.4 53.5" fill="#ccc"/><path d="M453.5,27.2a23.8,23.8,0,0,1-2.3-9.7" fill="none" stroke="#b30469" stroke-miterlimit="10" stroke-width="3"/><polyline points="406.8 49.5 402.8 41.1 394.3 45.1" fill="none" stroke="#242436" stroke-miterlimit="10" stroke-width="3"/><polygon points="283.1 9.9 190.3 67.3 308.9 51.6 283.1 9.9" fill="#ccc"/><path d="M216.3,51.2a28.9,28.9,0,0,1,4.3,12.1" fill="none" stroke="#b30469" stroke-miterlimit="10" stroke-width="3"/><polyline points="272.9 16.2 279.2 26.4 289.4 20.1" fill="none" stroke="#242436" stroke-miterlimit="10" stroke-width="3"/><text transform="translate(66 78.8)" font-size="16" fill="#b30469" font-family="SourceSansPro-SemiBold, Source Sans Pro" font-weight="700">α</text><text transform="translate(86 130.8)" font-size="16" fill="#b30469" font-family="SourceSansPro-SemiBold, Source Sans Pro" font-weight="700">α</text><text transform="translate(99 216.8)" font-size="16" fill="#b30469" font-family="SourceSansPro-SemiBold, Source Sans Pro" font-weight="700">α</text><text transform="translate(201 184.8)" font-size="16" fill="#b30469" font-family="SourceSansPro-SemiBold, Source Sans Pro" font-weight="700">α</text><text transform="translate(229 95.8)" font-size="16" fill="#b30469" font-family="SourceSansPro-SemiBold, Source Sans Pro" font-weight="700">α</text><text transform="translate(227 56.8)" font-size="16" fill="#b30469" font-family="SourceSansPro-SemiBold, Source Sans Pro" font-weight="700">α</text><text transform="translate(282 121.8)" font-size="16" fill="#b30469" font-family="SourceSansPro-SemiBold, Source Sans Pro" font-weight="700">α</text><text transform="translate(392 208.8)" font-size="16" fill="#b30469" font-family="SourceSansPro-SemiBold, Source Sans Pro" font-weight="700">α</text><text transform="translate(442 168.8)" font-size="16" fill="#b30469" font-family="SourceSansPro-SemiBold, Source Sans Pro" font-weight="700">α</text><text transform="translate(416 119.8)" font-size="16" fill="#b30469" font-family="SourceSansPro-SemiBold, Source Sans Pro" font-weight="700">α</text><text transform="translate(437 28.8)" font-size="16" fill="#b30469" font-family="SourceSansPro-SemiBold, Source Sans Pro" font-weight="700">α</text><text transform="translate(555 89.8)" font-size="16" fill="#b30469" font-family="SourceSansPro-SemiBold, Source Sans Pro" font-weight="700">α</text></svg>