<svg height="120" viewBox="0 0 120 120" width="120" xmlns="http://www.w3.org/2000/svg"><g fill="none" fill-rule="evenodd"><g stroke="#979797"><path d="m.5.5h23v119h-23z"/><path d="m24.5.5h23v119h-23z"/><path d="m48.5.5h23v119h-23z"/><path d="m72.5.5h23v119h-23z"/><path d="m96.5.5h23v119h-23z"/><g transform="matrix(0 1 -1 0 120 0)"><path d="m.5.5v119h23v-119z"/><path d="m24.5.5v119h23v-119z"/><path d="m48.5.5v119h23v-119z"/><path d="m72.5.5v119h23v-119z"/><path d="m96.5.5v119h23v-119z"/></g></g><path d="m0 0h120v120h-120z" fill="#fef200"/><g fill="#ec1c23"><path d="m0 120 120-120v24l-96 96z"/><path d="m48 120 72-72v24l-48 48z"/><path d="m96 120 24-24v24z"/><path d="m0 96 96-96h-24l-72 72z"/><path d="m0 48 48-48h-24l-24 24z"/></g></g></svg>