<svg height="50" viewBox="0 0 160 100" width="80" xmlns="http://www.w3.org/2000/svg"><g fill="#31b304"><path d="m111.33 15.07a2.07 2.07 0 0 0 0 1 26.57 26.57 0 0 1 -.35 10.13 16.84 16.84 0 0 1 -3.57 8 32.46 32.46 0 0 1 -26.35 10.31 36.82 36.82 0 0 1 -17.34-5.58c-5-3.09-10.06-6.14-15.85-7.67a24.28 24.28 0 0 0 -10.65-.63 47 47 0 0 0 38.61 66.27 22.49 22.49 0 0 0 6.61-9.56 63.82 63.82 0 0 1 4.56-11.07 29.12 29.12 0 0 1 14.88-13.68 26.33 26.33 0 0 1 17.1-1.43 41 41 0 0 1 5.44 1.74 3.45 3.45 0 0 0 .78.22 47 47 0 0 0 -13.83-48z"/><path d="m98.05 74.27a30 30 0 0 0 -8.42 12.25c-1.35 3.48-2.15 7.08-4.24 10.21a47 47 0 0 0 37.61-27.68h-.16c-9.25-2.89-17.52-.92-24.79 5.22z"/><path d="m62.27 29.06c4.78 3.06 9.6 5.87 15.13 7.2 7.14 1.7 14.18 2 20.54-2.54a17 17 0 0 0 6.93-9.81c1.16-4.56.71-9.15-.05-13.72a47 47 0 0 0 -63 12.46 37.78 37.78 0 0 1 20.45 6.41z"/></g></svg>