<svg height="50" viewBox="0 0 160 100" width="80" xmlns="http://www.w3.org/2000/svg"><g fill="#b30469"><circle cx="26.66" cy="68.06" r="23.34"/><path d="m127.58 36.43a167.74 167.74 0 0 1 28.64-9.43 186.71 186.71 0 0 0 -34.62-2.5 146 146 0 0 1 12-10.63 193.33 193.33 0 0 0 -32.83 5.82 159.07 159.07 0 0 1 10.87-15 219.18 219.18 0 0 0 -71.64 36.05 30.46 30.46 0 0 1 17.07 26.86 164.38 164.38 0 0 1 68.74.25 116.51 116.51 0 0 0 -13.6-10.16 128.1 128.1 0 0 1 22.87-1.49 123.57 123.57 0 0 0 -12.46-8.2 134.06 134.06 0 0 1 23-4 138.73 138.73 0 0 0 -18.04-7.57z"/></g></svg>