<svg xmlns="http://www.w3.org/2000/svg" width="690" height="430" viewBox="0 0 690 430">
  <rect x="486" y="306" width="18" height="18" fill="#b30469"/>
  <rect x="506" y="306" width="18" height="18" fill="#b30469"/>
  <rect x="486" y="266" width="38" height="38" fill="#c01c5d"/>
  <rect x="426" y="266" width="58" height="58" fill="#cc3450"/>
  <rect x="426" y="326" width="98" height="98" fill="#d94c44"/>
  <rect x="526" y="266" width="158" height="158" fill="#e66438"/>
  <rect x="426" y="6" width="258" height="258" fill="#f27c2b"/>
  <rect x="6" y="6" width="418" height="418" fill="#ff941f"/>
  <text transform="translate(490.4 320.7)" font-size="18" fill="#fff" font-weight="700">1</text>
  <text transform="translate(510.4 320.7)" font-size="18" fill="#fff" font-weight="700">1</text>
  <text transform="translate(500.4 289.7)" font-size="18" fill="#fff" font-weight="700">2</text>
  <text transform="translate(450.4 299.7)" font-size="18" fill="#fff" font-weight="700">3</text>
  <text transform="translate(470.4 379.7)" font-size="18" fill="#fff" font-weight="700">5</text>
  <text transform="translate(600.4 349.7)" font-size="18" fill="#fff" font-weight="700">8</text>
  <text transform="translate(545.8 139.7)" font-size="18" fill="#fff" font-weight="700">13</text>
  <text transform="translate(205.8 219.7)" font-size="18" fill="#fff" font-weight="700">21</text>
  <path d="M485,305a20,20,0,0,0,40,0,40,40,0,0,0-40-40,60,60,0,0,0-60,60A100,100,0,0,0,525,425,160,160,0,0,0,685,265C685,121.4,568.6,5,425,5,193,5,5,193,5,425" fill="none" stroke="#fff" stroke-linecap="round" stroke-miterlimit="10" stroke-width="8"/>
  <path d="M485,305a20,20,0,0,0,40,0,40,40,0,0,0-40-40,60,60,0,0,0-60,60A100,100,0,0,0,525,425,160,160,0,0,0,685,265C685,121.4,568.6,5,425,5,193,5,5,193,5,425" fill="none" stroke="#1f7aff" stroke-linecap="round" stroke-miterlimit="10" stroke-width="6"/>
</svg>
