<svg xmlns="http://www.w3.org/2000/svg" width="154" height="154" viewBox="0 0 154 154"><title>square-6</title><rect y="130" width="24" height="24" fill="#1f7aff"/><rect x="26" y="130" width="24" height="24" fill="#1f7aff"/><rect x="52" y="130" width="24" height="24" fill="#1f7aff"/><rect x="78" y="130" width="24" height="24" fill="#1f7aff"/><rect x="104" y="130" width="24" height="24" fill="#1f7aff"/><rect x="130" y="130" width="24" height="24" fill="#1f7aff"/><rect x="130" y="104" width="24" height="24" fill="#1f7aff"/><rect x="130" y="78" width="24" height="24" fill="#1f7aff"/><rect x="130" y="52" width="24" height="24" fill="#1f7aff"/><rect x="130" y="26" width="24" height="24" fill="#1f7aff"/><rect x="130" width="24" height="24" fill="#1f7aff"/><rect x="104" width="24" height="24" fill="#3d62e1"/><rect x="104" y="26" width="24" height="24" fill="#3d62e1"/><rect x="104" y="52" width="24" height="24" fill="#3d62e1"/><rect x="104" y="78" width="24" height="24" fill="#3d62e1"/><rect x="104" y="104" width="24" height="24" fill="#3d62e1"/><rect x="78" y="104" width="24" height="24" fill="#3d62e1"/><rect x="52" y="104" width="24" height="24" fill="#3d62e1"/><rect x="26" y="104" width="24" height="24" fill="#3d62e1"/><rect y="104" width="24" height="24" fill="#3d62e1"/><rect y="78" width="24" height="24" fill="#5a4bc3"/><rect x="26" y="78" width="24" height="24" fill="#5a4bc3"/><rect x="52" y="78" width="24" height="24" fill="#5a4bc3"/><rect x="78" y="78" width="24" height="24" fill="#5a4bc3"/><rect x="78" y="52" width="24" height="24" fill="#5a4bc3"/><rect x="78" y="26" width="24" height="24" fill="#5a4bc3"/><rect x="78" width="24" height="24" fill="#5a4bc3"/><rect x="52" width="24" height="24" fill="#7833a5"/><rect x="52" y="26" width="24" height="24" fill="#7833a5"/><rect x="52" y="52" width="24" height="24" fill="#7833a5"/><rect x="26" y="52" width="24" height="24" fill="#7833a5"/><rect y="52" width="24" height="24" fill="#7833a5"/><rect y="26" width="24" height="24" fill="#951c87"/><rect x="26" y="26" width="24" height="24" fill="#951c87"/><rect x="26" width="24" height="24" fill="#951c87"/><rect width="24" height="24" fill="#b30469"/></svg>