<svg xmlns="http://www.w3.org/2000/svg" xmlns:xlink="http://www.w3.org/1999/xlink" width="30" height="30" viewBox="0 0 30 30"><defs><radialGradient id="a" cx="17.05" cy="12.86" r="18.56" gradientUnits="userSpaceOnUse"><stop offset="0" stop-color="#fff"/><stop offset="0.21" stop-color="#fafafa"/><stop offset="0.46" stop-color="#eaeaea"/><stop offset="0.74" stop-color="#d1d1d1"/><stop offset="0.79" stop-color="#ccc"/><stop offset="0.85" stop-color="#bcbcbc"/><stop offset="0.96" stop-color="#919191"/><stop offset="1" stop-color="gray"/></radialGradient><radialGradient id="b" cx="17.96" cy="12.34" r="18.32" gradientUnits="userSpaceOnUse"><stop offset="0" stop-color="#e7eb15"/><stop offset="0.15" stop-color="#e2e918"/><stop offset="0.34" stop-color="#d2e120"/><stop offset="0.54" stop-color="#b9d62e"/><stop offset="0.69" stop-color="#a3cc3a"/><stop offset="0.77" stop-color="#96bc2e"/><stop offset="0.92" stop-color="#739110"/><stop offset="1" stop-color="#617a00"/></radialGradient></defs><title>Artboard 1</title><circle cx="15" cy="15" r="15" fill="url(#a)"/><path d="M30,15a15,15,0,0,1-.59,4.15,1,1,0,0,1-.25-.06,12.93,12.93,0,0,0-1.73-.56A8.41,8.41,0,0,0,22,19a10.3,10.3,0,0,0-2.33,1.38,10.43,10.43,0,0,0-2.42,3,20.53,20.53,0,0,0-1.44,3.54,7.21,7.21,0,0,1-2.11,3.05A15,15,0,0,1,0,15,14.8,14.8,0,0,1,1.35,8.79a7.67,7.67,0,0,1,3.4.2A19,19,0,0,1,9.8,11.44a11.85,11.85,0,0,0,5.54,1.78,10.44,10.44,0,0,0,4.22-.55,10.18,10.18,0,0,0,4.17-2.73,5.42,5.42,0,0,0,1.15-2.57A8.57,8.57,0,0,0,25,4.14a.69.69,0,0,1,0-.32A15,15,0,0,1,30,15Zm-9.24,7.71a9.68,9.68,0,0,0-2.69,3.91,16,16,0,0,1-1.35,3.26v0a15,15,0,0,0,12-8.85l-.05,0A8,8,0,0,0,20.76,22.71ZM9.34,8.29a16,16,0,0,0,4.83,2.29c2.28.55,4.53.63,6.55-.81a5.41,5.41,0,0,0,2.22-3.13,10.6,10.6,0,0,0,0-4.38,15,15,0,0,0-20.09,4h0A12,12,0,0,1,9.34,8.29Z" fill="url(#b)"/><g opacity="0.1"><path d="M15,0a14.94,14.94,0,0,1,7.92,2.26,10.6,10.6,0,0,1,0,4.38,5.41,5.41,0,0,1-2.22,3.13A6.39,6.39,0,0,1,16.9,11a11.79,11.79,0,0,1-2.73-.37A16,16,0,0,1,9.34,8.29a12,12,0,0,0-6.5-2h0A15,15,0,0,1,15,0M25,3.82a15,15,0,0,1,4.41,15.33,1,1,0,0,1-.25-.06,12.93,12.93,0,0,0-1.73-.56,9.91,9.91,0,0,0-2.14-.25A8,8,0,0,0,22,19a10.3,10.3,0,0,0-2.33,1.38,10.43,10.43,0,0,0-2.42,3,20.53,20.53,0,0,0-1.44,3.54,7.21,7.21,0,0,1-2.11,3.05A15,15,0,0,1,0,15,14.8,14.8,0,0,1,1.35,8.79a6.19,6.19,0,0,1,1.21-.11A8.27,8.27,0,0,1,4.75,9,19,19,0,0,1,9.8,11.44a11.85,11.85,0,0,0,5.54,1.78l.8,0a9.79,9.79,0,0,0,3.42-.57,10.18,10.18,0,0,0,4.17-2.73,5.42,5.42,0,0,0,1.15-2.57A8.57,8.57,0,0,0,25,4.14a.69.69,0,0,1,0-.32m1.09,16.81a8.87,8.87,0,0,1,2.59.4l.05,0a15,15,0,0,1-12,8.85v0a16,16,0,0,0,1.35-3.26,9.68,9.68,0,0,1,2.69-3.91,8.16,8.16,0,0,1,5.33-2.08M15-.1A15.14,15.14,0,0,0,2.75,6.18a.08.08,0,0,0,0,.1.08.08,0,0,0,.08.06,12,12,0,0,1,6.47,2,15.93,15.93,0,0,0,4.86,2.31,11.67,11.67,0,0,0,2.75.37,6.43,6.43,0,0,0,3.88-1.2A5.48,5.48,0,0,0,23,6.67a10.78,10.78,0,0,0,0-4.42s0-.06-.05-.07A15.06,15.06,0,0,0,15-.1ZM25,3.72h0a.09.09,0,0,0-.07.06.78.78,0,0,0,0,.37,8.31,8.31,0,0,1-.11,3.19,5.18,5.18,0,0,1-1.12,2.52,10,10,0,0,1-4.13,2.7,9.42,9.42,0,0,1-3.39.57l-.8,0a11.66,11.66,0,0,1-5.48-1.77A19.38,19.38,0,0,0,4.77,8.89a8.46,8.46,0,0,0-2.21-.31,7.12,7.12,0,0,0-1.23.11.09.09,0,0,0-.07.06A15.1,15.1,0,0,0,13.66,30h0a.11.11,0,0,0,.07,0,7.17,7.17,0,0,0,2.13-3.09,19.84,19.84,0,0,1,1.44-3.52,10.11,10.11,0,0,1,2.4-3A10,10,0,0,1,22,19.08a7.89,7.89,0,0,1,3.28-.7,9.35,9.35,0,0,1,2.12.25,14.42,14.42,0,0,1,1.72.55.89.89,0,0,0,.27.07h0a.09.09,0,0,0,.1-.07A15.1,15.1,0,0,0,25.07,3.75a.11.11,0,0,0-.07,0Zm1.09,16.81a8.24,8.24,0,0,0-5.39,2.11A9.52,9.52,0,0,0,18,26.59c-.13.33-.24.66-.35,1a9.4,9.4,0,0,1-1,2.25.11.11,0,0,0,0,.11s.05.06.08.06h0a15.15,15.15,0,0,0,12.1-8.91.11.11,0,0,0,0-.08.09.09,0,0,0-.06-.06H28.7a8.6,8.6,0,0,0-2.61-.41Z"/></g></svg>