<svg xmlns="http://www.w3.org/2000/svg" width="164" height="154" viewBox="0 0 164 154"><title>triangle-6</title><circle cx="152" cy="142" r="12" fill="#b30469"/><circle cx="124" cy="142" r="12" fill="#b30469"/><circle cx="96" cy="142" r="12" fill="#b30469"/><circle cx="68" cy="142" r="12" fill="#b30469"/><circle cx="40" cy="142" r="12" fill="#b30469"/><circle cx="12" cy="142" r="12" fill="#b30469"/><circle cx="138" cy="116" r="12" fill="#c2215a"/><circle cx="110" cy="116" r="12" fill="#c2215a"/><circle cx="82" cy="116" r="12" fill="#c2215a"/><circle cx="54" cy="116" r="12" fill="#c2215a"/><circle cx="26" cy="116" r="12" fill="#c2215a"/><circle cx="124" cy="90" r="12" fill="#d13e4b"/><circle cx="96" cy="90" r="12" fill="#d13e4b"/><circle cx="68" cy="90" r="12" fill="#d13e4b"/><circle cx="40" cy="90" r="12" fill="#d13e4b"/><circle cx="110" cy="64" r="12" fill="#e15a3d"/><circle cx="82" cy="64" r="12" fill="#e15a3d"/><circle cx="54" cy="64" r="12" fill="#e15a3d"/><circle cx="96" cy="38" r="12" fill="#f0772e"/><circle cx="68" cy="38" r="12" fill="#f0772e"/><circle cx="82" cy="12" r="12" fill="#ff941f"/></svg>