<svg xmlns="http://www.w3.org/2000/svg" width="80" height="80" viewBox="0 0 80 80"><title>platonic</title><polygon points="44 40 65 55.3 57 80 31 80 23 55.3 44 40" fill="#8cc63f"/><polygon points="57 0 78 15.3 70 40 44 40 36 15.3 57 0" fill="#8cc63f"/><polygon points="23 55 2 39.7 10 15 36 15 44 39.7 23 55" fill="#006837"/><polygon points="56.8 80 35.8 64.7 43.8 40 69.7 40 77.8 64.7 56.8 80" fill="#006837"/><polygon points="65 55.3 44 40 43.7 40.2 35.8 64.7 56.8 80 57 79.8 65 55.3" fill="#00510e"/></svg>