<svg xmlns="http://www.w3.org/2000/svg" width="80" height="80" viewBox="0 0 80 80"><title>platonic</title><polygon points="25 10 40 38 0 38 25 10" fill="#9e005d"/><polygon points="55 10 80 38 40 38 55 10" fill="#fcc062"/><polygon points="40 38 25 10 40 18 40 38" fill="#fbb03b"/><polygon points="40 38 60 58 20 58 40 38" fill="#9e005d"/><polygon points="60 58 40 38 80 38 60 58" fill="#fbb03b"/><polygon points="20 58 0 38 40 38 20 58" fill="#fbb03b"/><polygon points="40 38 40 18 55 10 40 38" fill="#770046"/><polygon points="40 38 40 18 46 27 40 38" opacity="0.1"/><polygon points="45 52 40 38 0 38 45 52" opacity="0.1"/><polygon points="85 52 80 38 40 38 85 52" opacity="0.1"/></svg>