<svg xmlns="http://www.w3.org/2000/svg" width="80" height="80" viewBox="0 0 80 80"><title>platonic</title><polygon points="20 75 40 110 0 110 20 75" fill="#9e005d" opacity="0.4"/><polygon points="60 75 80 110 40 110 60 75" fill="#9e005d" opacity="0.4"/><polygon points="40 110 20 75 60 75 40 110" fill="#fbb03b" opacity="0.4"/><polygon points="80 110 60 75 100 75 80 110" fill="#fbb03b" opacity="0.4"/><polygon points="0 110 -20 75 20 75 0 110" fill="#fbb03b" opacity="0.4"/><polygon points="20 5 40 40 0 40 20 5" fill="#9e005d"/><polygon points="60 5 80 40 40 40 60 5" fill="#9e005d"/><polygon points="40 40 20 5 60 5 40 40" fill="#fbb03b"/><polygon points="80 40 60 5 100 5 80 40" fill="#fbb03b" opacity="0.4"/><polygon points="0 40 -20 5 20 5 0 40" fill="#fbb03b" opacity="0.4"/><polygon points="40 40 60 75 20 75 40 40" fill="#9e005d"/><polygon points="80 40 100 75 60 75 80 40" fill="#9e005d" opacity="0.4"/><polygon points="0 40 20 75 -20 75 0 40" fill="#9e005d" opacity="0.4"/><polygon points="60 75 40 40 80 40 60 75" fill="#fbb03b"/><polygon points="20 75 0 40 40 40 20 75" fill="#fbb03b"/><polygon points="40 -30 60 5 20 5 40 -30" fill="#9e005d" opacity="0.4"/><polygon points="80 -30 100 5 60 5 80 -30" fill="#9e005d" opacity="0.4"/><polygon points="0 -30 20 5 -20 5 0 -30" fill="#9e005d" opacity="0.4"/><polygon points="60 5 40 -30 80 -30 60 5" fill="#fbb03b" opacity="0.4"/><polygon points="20 5 0 -30 40 -30 20 5" fill="#fbb03b" opacity="0.4"/></svg>