<?xml version="1.0" encoding="UTF-8"?><!DOCTYPE svg PUBLIC "-//W3C//DTD SVG 1.1//EN" "http://www.w3.org/Graphics/SVG/1.1/DTD/svg11.dtd"><svg xmlns="http://www.w3.org/2000/svg" xmlns:xlink="http://www.w3.org/1999/xlink"><symbol id="accessibility" viewBox="0 0 24 24"><path d="M20.75,7a1,1,0,0,0-1.24-.75A35.44,35.44,0,0,1,12,7a35.44,35.44,0,0,1-7.51-.76,1,1,0,0,0-.49,2A38.17,38.17,0,0,0,9,9V21a1,1,0,0,0,2,0V16h2v5a1,1,0,0,0,2,0V9a37.77,37.77,0,0,0,5-.75A1,1,0,0,0,20.75,7ZM12,6a2,2,0,1,0-2-2A2,2,0,0,0,12,6Z"/></symbol><symbol id="account" viewBox="0 0 24 24"><path d="m12 12a4 4 0 1 0 -4-4 4 4 0 0 0 4 4zm0 2c-2.7 0-8 1.3-8 4v1a1 1 0 0 0 1 1h14a1.1 1.1 0 0 0 1-1v-1c0-2.7-5.3-4-8-4z"/></symbol><symbol id="activities" viewBox="0 0 24 24"><path d="m20.78 11h-8.56a1.22 1.22 0 0 0 -1.22 1.22v8.56a1.22 1.22 0 0 0 1.22 1.22h8.56a1.22 1.22 0 0 0 1.22-1.22v-8.56a1.22 1.22 0 0 0 -1.22-1.22zm-7 9.17a.92.92 0 1 1 .92-.92.92.92 0 0 1 -.95.92zm0-5.5a.92.92 0 1 1 .92-.92.92.92 0 0 1 -.95.92zm2.75 2.75a.92.92 0 1 1 .92-.92.92.92 0 0 1 -.95.92zm2.75 2.75a.92.92 0 1 1 .92-.92.92.92 0 0 1 -.95.92zm0-5.5a.92.92 0 1 1 .92-.92.92.92 0 0 1 -.95.92z"/><path d="m21.57 4.39-2.63-.95a2.6 2.6 0 0 1 .06.56v6h1.78a2.22 2.22 0 0 1 .82.16l1.17-3.16a2 2 0 0 0 -1.2-2.61z"/><path d="m16.17 10h1.83v-6a2 2 0 0 0 -2-2h-2.8a4 4 0 0 1 .25.51z"/><path d="m15.11 10-2.6-7.15a2 2 0 0 0 -2.57-1.19l-7.51 2.73a2 2 0 0 0 -1.2 2.61l4.45 12.17a2 2 0 0 0 2.56 1.2l1.76-.64v-7.51a2.23 2.23 0 0 1 2.22-2.22z"/></symbol><symbol id="audio" viewBox="0 0 24 24"><path d="m10.29 5.7-3.29 3.3h-3a1 1 0 0 0 -1 1v4a1 1 0 0 0 1 1h3l3.29 3.29a1 1 0 0 0 1.71-.71v-11.17a1 1 0 0 0 -1.71-.71z"/><path d="m15.61 7.87a1 1 0 0 0 -1.32 1.51 3.44 3.44 0 0 1 0 5.24 1 1 0 0 0 -.09 1.38 1 1 0 0 0 .75.34 1 1 0 0 0 .66-.24 5.46 5.46 0 0 0 0-8.26z"/><path d="m18 5.28a1 1 0 1 0 -1.33 1.49 7 7 0 0 1 0 10.46 1 1 0 0 0 -.08 1.41 1 1 0 0 0 1.41.08 9 9 0 0 0 0-13.44z"/></symbol><symbol id="axes" viewBox="0 0 24 24"><path d="M22.19,16.54,15.94,14a.5.5,0,0,0-.64.68L15.94,16H8V8.06l1.28.64a.54.54,0,0,0,.22.05.55.55,0,0,0,.34-.13A.5.5,0,0,0,10,8.06L7.46,1.81a.51.51,0,0,0-.92,0L4,8.06a.5.5,0,0,0,.68.64L6,8.06V16H2a1,1,0,0,0,0,2H6v4a1,1,0,0,0,2,0V18h7.94l-.64,1.28a.5.5,0,0,0,.08.56.52.52,0,0,0,.37.16.43.43,0,0,0,.19,0l6.25-2.5a.5.5,0,0,0,0-.92Z"/></symbol><symbol id="bitcoin" viewBox="0 0 24 24"><path d="M11.22,21V18.73h-.78V21H8.89V18.73H5l.39-2.23h.84a1.17,1.17,0,0,0,1.08-1.28V8.55A1,1,0,0,0,6.27,7.5H5V5.25H8.89V3h1.55V5.25h.78V3h1.56V5.29c3.35.11,4.68,1.34,5.06,2.72a2.81,2.81,0,0,1-1.62,3.34,3.25,3.25,0,0,1,2.78,3c0,2.61-2.09,4.36-6.22,4.36V21Zm-.78-8.25V16.5c3.09,0,5.21-.28,5.21-1.89S13.36,12.75,10.44,12.75Zm0-1.5c1.72,0,4.34-.12,4.34-1.87,0-1.5-1.61-1.88-4.34-1.88Z"/></symbol><symbol id="bold" viewBox="0 0 24 24"><path d="M15.6,10.8A3.6,3.6,0,0,0,17.2,8a3.9,3.9,0,0,0-4-4H8A.9.9,0,0,0,7,5V17a1,1,0,0,0,1,1h5.8a4,4,0,0,0,4-3.8A3.8,3.8,0,0,0,15.6,10.8ZM10,6.5h3a1.5,1.5,0,0,1,0,3H10Zm3.5,9H10v-3h3.5a1.5,1.5,0,0,1,0,3Z"/></symbol><symbol id="book" viewBox="0 0 24 24"><path d="M19.11,9.1a13.3,13.3,0,0,0-5.36.45A.75.75,0,0,0,14,11l.23,0a11.82,11.82,0,0,1,4.73-.39.75.75,0,1,0,.17-1.49Z"/><path d="M19.11,11.76a13.29,13.29,0,0,0-5.36.45A.75.75,0,0,0,14,13.67l.23,0a11.82,11.82,0,0,1,4.73-.39.75.75,0,1,0,.17-1.49Z"/><path d="M19.11,14.42a13.29,13.29,0,0,0-5.36.45A.75.75,0,0,0,14,16.33l.23,0a11.82,11.82,0,0,1,4.73-.39.75.75,0,1,0,.17-1.49Z"/><path d="M10.24,9.55A13.3,13.3,0,0,0,4.88,9.1a.75.75,0,1,0,.17,1.49A11.82,11.82,0,0,1,9.78,11L10,11a.75.75,0,0,0,.23-1.46Z"/><path d="M10.24,12.21a13.29,13.29,0,0,0-5.36-.45.75.75,0,1,0,.17,1.49,11.82,11.82,0,0,1,4.73.39l.23,0a.75.75,0,0,0,.23-1.46Z"/><path d="M10.24,14.87a13.29,13.29,0,0,0-5.36-.45.75.75,0,1,0,.17,1.49,11.82,11.82,0,0,1,4.73.39l.23,0a.75.75,0,0,0,.23-1.46Z"/><path d="M21.77,5.29A10.74,10.74,0,0,0,17.5,4.5,9.3,9.3,0,0,0,12,6h0A9.31,9.31,0,0,0,6.49,4.5a10.74,10.74,0,0,0-4.27.79A2,2,0,0,0,1,7.14V18.43a2,2,0,0,0,2.48,1.94,12.37,12.37,0,0,1,3-.36,10.43,10.43,0,0,1,4.56.92,2,2,0,0,0,.93.23v0a2,2,0,0,0,.93-.22A10.43,10.43,0,0,1,17.49,20a12.35,12.35,0,0,1,3,.36A2,2,0,0,0,23,18.42V7.14A2,2,0,0,0,21.77,5.29ZM21,17.23a1,1,0,0,1-1.2,1,12.61,12.61,0,0,0-2.3-.2,12,12,0,0,0-5.5,1.5h0A12.05,12.05,0,0,0,6.49,18a12.61,12.61,0,0,0-2.3.2,1,1,0,0,1-1.2-1V7.76a1,1,0,0,1,.8-1,12.69,12.69,0,0,1,2.7-.28A12.05,12.05,0,0,1,12,8h0a12,12,0,0,1,5.5-1.5,12.69,12.69,0,0,1,2.7.28,1,1,0,0,1,.8,1Z"/></symbol><symbol id="bookmark" viewBox="0 0 24 24"><path d="m16 2h-8a2 2 0 0 0 -2 2v18l6-6 6 6v-18a2 2 0 0 0 -2-2z"/></symbol><symbol id="brackets" viewBox="0 0 24 24"><path d="m8 6h8v12h-8z" opacity=".6"/><path d="m3 12a18.29 18.29 0 0 1 2.91-10l1.09.53a18.28 18.28 0 0 0 -2.5 9.47 18.28 18.28 0 0 0 2.5 9.47l-1.09.53a18.29 18.29 0 0 1 -2.91-10z"/><path d="m17 21.47a18.28 18.28 0 0 0 2.5-9.47 18.28 18.28 0 0 0 -2.5-9.47l1.09-.53a18.29 18.29 0 0 1 2.91 10 18.29 18.29 0 0 1 -2.91 10z"/></symbol><symbol id="brightness" viewBox="0 0 24 24"><path d="M22.6,11.3,20.7,9.4A2.8,2.8,0,0,1,20,7.7V5a1.1,1.1,0,0,0-1-1H16.3a2.8,2.8,0,0,1-1.7-.7L12.7,1.4a1,1,0,0,0-1.4,0L9.4,3.3A2.8,2.8,0,0,1,7.7,4H5A1.1,1.1,0,0,0,4,5V7.7a2.8,2.8,0,0,1-.7,1.7L1.4,11.3a1,1,0,0,0,0,1.4l1.9,1.9A2.8,2.8,0,0,1,4,16.3V19a1.1,1.1,0,0,0,1,1H7.7a2.8,2.8,0,0,1,1.7.7l1.9,1.9a1,1,0,0,0,1.4,0l1.9-1.9a2.8,2.8,0,0,1,1.7-.7H19a1.1,1.1,0,0,0,1-1V16.3a2.8,2.8,0,0,1,.7-1.7l1.9-1.9A1,1,0,0,0,22.6,11.3ZM12,18V6a6,6,0,0,1,0,12Z"/></symbol><symbol id="brush" viewBox="0 0 24 24"><path d="m7 14a3 3 0 0 0 -3 3 2 2 0 0 1 -2 2 5.17 5.17 0 0 0 4 2 4 4 0 0 0 4-4 3 3 0 0 0 -3-3zm13.71-9.37-1.34-1.34a1 1 0 0 0 -1.41 0l-9 9 2.79 2.71 9-9a1 1 0 0 0 -.04-1.37z"/></symbol><symbol id="check-white" viewBox="0 0 24 24"><path d="m19.7 6.3-.2-.4-.3-.2c-.1-.1-.3 0-.4 0a36.6 36.6 0 0 0 -9.8 8.4 36.1 36.1 0 0 0 -4.8-2.9h-.5l-1 .9a.4.4 0 0 0 -.1.3c0 .2 0 .3.1.4a72.1 72.1 0 0 1 6.6 7h.4a.5.5 0 0 0 .4-.2c3.8-6.8 5.7-9.6 9.4-13 .2.1.2-.1.2-.3z" fill="#fff"/></symbol><symbol id="close" viewBox="0 0 24 24"><path d="m18.3 5.71a1 1 0 0 0 -1.41 0l-4.89 4.88-4.89-4.89a1 1 0 0 0 -1.41 0 1 1 0 0 0 0 1.41l4.89 4.89-4.89 4.89a1 1 0 0 0 0 1.41 1 1 0 0 0 1.41 0l4.89-4.89 4.89 4.89a1 1 0 0 0 1.41 0 1 1 0 0 0 0-1.41l-4.89-4.89 4.89-4.89a1 1 0 0 0 0-1.4z"/></symbol><symbol id="code" viewBox="0 0 24 24"><path d="M8.7,15.9,4.8,12,8.7,8.1A1,1,0,0,0,7.3,6.7L2.7,11.3a1,1,0,0,0,0,1.4l4.6,4.6a1,1,0,1,0,1.4-1.4Zm6.6,0L19.2,12,15.3,8.1a1,1,0,0,1,1.4-1.4l4.6,4.6a1,1,0,0,1,0,1.4l-4.6,4.6a1,1,0,1,1-1.4-1.4Z"/></symbol><symbol id="color" viewBox="0 0 24 24"><path d="m12 3a9 9 0 0 0 0 18 1.5 1.5 0 0 0 1.11-2.51 1.49 1.49 0 0 1 1.12-2.49h1.77a5 5 0 0 0 5-5c0-4.42-4-8-9-8zm-5.5 9a1.5 1.5 0 1 1 1.5-1.5 1.5 1.5 0 0 1 -1.5 1.5zm3-4a1.5 1.5 0 1 1 1.5-1.5 1.5 1.5 0 0 1 -1.5 1.5zm5 0a1.5 1.5 0 1 1 1.5-1.5 1.5 1.5 0 0 1 -1.5 1.5zm3 4a1.5 1.5 0 1 1 1.5-1.5 1.5 1.5 0 0 1 -1.5 1.5z"/></symbol><symbol id="compass" viewBox="0 0 24 24"><path d="m5.06 21.67a1 1 0 0 0 .61 1.27 1 1 0 0 0 .33.06 1 1 0 0 0 .94-.67l4.38-12.4a4 4 0 0 1 -1.83-.84z"/><path d="m18.94 21.67-4.43-12.58a4 4 0 0 1 -1.83.84l4.38 12.4a1 1 0 0 0 .94.67 1 1 0 0 0 .33-.06 1 1 0 0 0 .61-1.27z"/><path d="m15 6a3 3 0 0 0 -2-2.83.53.53 0 0 0 0-.17v-1a1 1 0 0 0 -2 0v1a.53.53 0 0 0 0 .17 3 3 0 1 0 4 2.83zm-3 1a1 1 0 1 1 1-1 1 1 0 0 1 -1 1z"/></symbol><symbol id="controls" viewBox="0 0 24 24"><path d="m3 18a1 1 0 0 0 1 1h5v-2h-5a1 1 0 0 0 -1 1zm0-12a1 1 0 0 0 1 1h9v-2h-9a1 1 0 0 0 -1 1zm10 14v-1h7a1 1 0 0 0 0-2h-7v-1a1 1 0 0 0 -2 0v4a1 1 0 0 0 2 0zm-6-10v1h-3a1 1 0 0 0 0 2h3v1a1 1 0 0 0 2 0v-4a1 1 0 0 0 -2 0zm14 2a1 1 0 0 0 -1-1h-9v2h9a1 1 0 0 0 1-1zm-5-3a1 1 0 0 0 1-1v-1h3a1 1 0 0 0 0-2h-3v-1a1 1 0 0 0 -2 0v4a1 1 0 0 0 1 1z"/></symbol><symbol id="copy" viewBox="0 0 24 24"><path d="M19,7H9A2,2,0,0,0,7,9V19a2,2,0,0,0,2,2H19a2,2,0,0,0,2-2V9A2,2,0,0,0,19,7Zm-1,8H15v3a1,1,0,0,1-2,0V15H10a1,1,0,0,1,0-2h3V10a1,1,0,0,1,2,0v3h3a1,1,0,0,1,0,2Z"/><path d="M17,3H5A2,2,0,0,0,3,5V17a2,2,0,0,0,2,2V6A1,1,0,0,1,6,5H19A2,2,0,0,0,17,3Z"/></symbol><symbol id="creditcard" viewBox="0 0 24 24"><path d="m20 4h-16a2 2 0 0 0 -2 2v12a2 2 0 0 0 2 2h16a2 2 0 0 0 2-2v-12a2 2 0 0 0 -2-2zm-1 14h-14a1 1 0 0 1 -1-1v-5h16v5a1 1 0 0 1 -1 1zm1-10h-16v-2h16z"/></symbol><symbol id="cross-white" viewBox="0 0 24 24"><path d="M19,16l-4.7-4.3L18.6,7a1.2,1.2,0,0,0,0-1.5l-.4-.3a1,1,0,0,0-1.4,0L12,9.5,7.2,5.2a1,1,0,0,0-1.4,0l-.4.3A1.2,1.2,0,0,0,5.4,7l4.3,4.7L5,16a1.1,1.1,0,0,0-.1,1.4l1.5,1.4a.9.9,0,0,0,1.3,0L12,14.1l4.3,4.7a.9.9,0,0,0,1.3,0l1.5-1.4A1.1,1.1,0,0,0,19,16Z" fill="#fff"/></symbol><symbol id="cursor" viewBox="0 0 24 24"><path d="m8.3 3.21 9.47 8.84a.76.76 0 0 1 -.45 1.3l-4.12.35 2.8 6.21a1.2 1.2 0 0 1 -.6 1.58 1.19 1.19 0 0 1 -1.59-.61l-2.71-6.28-2.83 2.7a.75.75 0 0 1 -1.27-.55v-13a.77.77 0 0 1 1.3-.54z"/></symbol><symbol id="delete" viewBox="0 0 24 24"><path d="m6.16 19a2 2 0 0 0 2 2h8a2 2 0 0 0 2-2v-10a2 2 0 0 0 -2-2h-8a2 2 0 0 0 -2 2zm3.17-7.83a1 1 0 0 1 1.41 0l1.42 1.42 1.42-1.42a1 1 0 0 1 1.42 1.41l-1.43 1.42 1.43 1.42a1 1 0 1 1 -1.41 1.41l-1.42-1.42-1.42 1.42a1 1 0 1 1 -1.41-1.41l1.41-1.42-1.42-1.42a1 1 0 0 1 0-1.41zm6.33-7.17-.66-.71a1 1 0 0 0 -.7-.29h-4.23a1 1 0 0 0 -.7.29l-.71.71h-2.5a1 1 0 0 0 0 2h12a1 1 0 0 0 0-2z"/></symbol><symbol id="donate" viewBox="0 0 24 24"><path d="m11 14a6 6 0 0 1 10.73-3.68 6.09 6.09 0 0 0 .27-2 5.46 5.46 0 0 0 -2.34-4.32 5.78 5.78 0 0 0 -7.66 1.09 5.8 5.8 0 0 0 -7.66-1.09 5.46 5.46 0 0 0 -2.34 4.28c-.13 3.88 3.3 7 8.55 11.74l.11.1a2 2 0 0 0 2.69 0l.1-.09.79-.72a6 6 0 0 1 -3.24-5.31z"/><path d="m17 9a5 5 0 1 0 5 5 5 5 0 0 0 -5-5zm.7 8.05v.29a.67.67 0 0 1 -.7.66.67.67 0 0 1 -.66-.66v-.34a2 2 0 0 1 -1.51-1.12.42.42 0 0 1 .4-.57h.12a.44.44 0 0 1 .41.3c.14.37.53.63 1.26.63 1 0 1.19-.49 1.19-.79s-.21-.81-1.33-1.07-2.09-.81-2.09-1.84a1.72 1.72 0 0 1 1.59-1.54v-.3a.67.67 0 0 1 .62-.7.67.67 0 0 1 .66.67v.33a1.75 1.75 0 0 1 1.34 1.11.42.42 0 0 1 -.4.56h-.13a.41.41 0 0 1 -.39-.31c-.11-.38-.43-.62-1.06-.62s-1.2.34-1.2.82.33.69 1.34.95 2.09.7 2.09 2c.01.87-.68 1.37-1.55 1.54z"/></symbol><symbol id="down" viewBox="0 0 24 24"><path d="m4.07 7.93a1.49 1.49 0 0 0 0 2.12l6.93 6.88a1.49 1.49 0 0 0 2.12 0l6.88-6.88a1.51 1.51 0 0 0 0-2.12 1.51 1.51 0 0 0 -2.12 0l-5.88 5.83-5.82-5.83a1.51 1.51 0 0 0 -2.11 0z"/></symbol><symbol id="download" viewBox="0 0 24 24"><path d="m19.35 10a7.49 7.49 0 0 0 -14-2 6 6 0 0 0 .65 12h13a5 5 0 0 0 .35-10zm-2.35 3-4.65 4.65a.5.5 0 0 1 -.71 0l-4.64-4.65h3v-4h4v4z"/></symbol><symbol id="email" viewBox="0 0 24 24"><path d="m20 4h-16a2 2 0 0 0 -2 2v12a2 2 0 0 0 2 2h16a2 2 0 0 0 2-2v-12a2 2 0 0 0 -2-2zm-.4 4.25-7.07 4.42a1 1 0 0 1 -1.06 0l-7.07-4.42a.85.85 0 1 1 .9-1.44l6.7 4.19 6.7-4.19a.85.85 0 1 1 .9 1.44z"/></symbol><symbol id="equation" viewBox="0 0 24 24"><path d="M0,0H24V24H0Z" fill="none"/><path d="M16.5,4H7.6A1.6,1.6,0,0,0,6,5.6a1.1,1.1,0,0,0,.3.7L12.5,12,6.3,17.7a1.1,1.1,0,0,0-.3.7A1.6,1.6,0,0,0,7.6,20h8.9a1.5,1.5,0,0,0,0-3H11l3.6-3.6a1.9,1.9,0,0,0,0-2.8L11,7h5.5A1.5,1.5,0,0,0,18,5.5,1.5,1.5,0,0,0,16.5,4Z"/></symbol><symbol id="eraser" viewBox="0 0 24 24"><path d="m20.69 7.57-3.53-3.57a2 2 0 0 0 -2.83 0l-7.07 7.1-3.95 4a2 2 0 0 0 0 2.83l2.83 2.83a1 1 0 0 0 .7.29h2.83a1 1 0 0 0 .71-.29l3.24-3.25 7.07-7.07a2 2 0 0 0 0-2.87zm-7.78 7.77-1.76-1.76-1.77-1.77 6.36-6.37 3.54 3.56z"/></symbol><symbol id="eye" viewBox="0 0 24 24"><path d="m12 4a11.83 11.83 0 0 0 -11 7.5 11.82 11.82 0 0 0 22 0 11.83 11.83 0 0 0 -11-7.5zm0 12.5a5 5 0 1 1 5-5 5 5 0 0 1 -5 5zm0-8a3 3 0 1 0 3 3 3 3 0 0 0 -3-3z"/></symbol><symbol id="facebook" viewBox="0 0 24 24"><path d="M12,2a10,10,0,0,0-1.6,19.9v-7H7.9V12h2.5V9.8a3.5,3.5,0,0,1,3.8-3.9l2.3.2V8.6H15.2c-1.3,0-1.6.7-1.6,1.5V12h2.7l-.4,2.9H13.6v7A10,10,0,0,0,12,2Z"/></symbol><symbol id="favourite" viewBox="0 0 24 24"><path d="m13.35 20.13a2 2 0 0 1 -2.69 0l-.11-.1c-5.25-4.76-8.68-7.87-8.55-11.75a5.46 5.46 0 0 1 2.34-4.28 5.8 5.8 0 0 1 7.66 1.09 5.78 5.78 0 0 1 7.66-1.09 5.46 5.46 0 0 1 2.34 4.28c.14 3.88-3.3 7-8.55 11.76z"/></symbol><symbol id="feedback" viewBox="0 0 24 24"><path d="m20 3h-16a2 2 0 0 0 -2 2v11a2 2 0 0 0 2 2h2v5l5-5h9a2 2 0 0 0 2-2v-11a2 2 0 0 0 -2-2zm-13 9a1.5 1.5 0 1 1 1.5-1.5 1.5 1.5 0 0 1 -1.5 1.5zm5 0a1.5 1.5 0 1 1 1.5-1.5 1.5 1.5 0 0 1 -1.5 1.5zm5 0a1.5 1.5 0 1 1 1.5-1.5 1.5 1.5 0 0 1 -1.5 1.5z"/></symbol><symbol id="flip" viewBox="0 0 24 24"><path d="m9.71 15.88-3.88-3.88 3.88-3.88a1 1 0 1 0 -1.41-1.41l-4.59 4.59a1 1 0 0 0 0 1.41l4.59 4.59a1 1 0 0 0 1.41 0 1 1 0 0 0 0-1.42z"/><path d="m14.29 15.88 3.88-3.88-3.88-3.88a1 1 0 1 1 1.41-1.41l4.59 4.59a1 1 0 0 1 0 1.41l-4.59 4.59a1 1 0 0 1 -1.41 0 1 1 0 0 1 0-1.42z"/></symbol><symbol id="form-check" viewBox="0 0 24 24"><path d="M21.85,4.31l-.18-.42a.51.51,0,0,0-.31-.28.49.49,0,0,0-.41.06A47.18,47.18,0,0,0,9.23,13.82,32,32,0,0,0,4,10.67a.5.5,0,0,0-.56.08l-1.06,1a.49.49,0,0,0-.16.37.44.44,0,0,0,.15.36A83,83,0,0,1,9.6,20.09a.53.53,0,0,0,.38.18h0a.51.51,0,0,0,.39-.26C14.6,12.59,17.66,8.49,21.73,4.88A.49.49,0,0,0,21.85,4.31Z" fill="#22ab24"/></symbol><symbol id="form-dropdown" viewBox="0 0 24 24"><path d="m19.93 7.5a1.48 1.48 0 0 0 -2.11 0l-5.82 5.82-5.82-5.82a1.49 1.49 0 0 0 -2.12 0 1.5 1.5 0 0 0 0 2.11l6.94 6.89a1.48 1.48 0 0 0 2.11 0l6.89-6.89a1.5 1.5 0 0 0 -.07-2.11z" fill="#4d4d4d"/></symbol><symbol id="form-warn" viewBox="0 0 24 24"><path d="M12,20.4a2.6,2.6,0,0,1-2.6-2.6,2.7,2.7,0,0,1,.7-1.9L9.7,11V7.5h4.8v3.4l-.4,5a2.7,2.7,0,0,1,.7,1.9A2.6,2.6,0,0,1,12,20.4Z" fill="#fff"/><path d="M22.1,19.5l-9.2-16a1,1,0,0,0-1.8,0l-9.2,16A1,1,0,0,0,2.7,21H21.3A1,1,0,0,0,22.1,19.5Zm-8.7-11v2.4l-.4,4.4H11.1l-.4-4.4V8.5ZM12,19.4a1.6,1.6,0,0,1-1.6-1.6,1.6,1.6,0,1,1,3.2,0A1.6,1.6,0,0,1,12,19.4Z" fill="#cd0e66"/></symbol><symbol id="fox" viewBox="0 0 44 44"><path d="m41.71 28.79c-1.6-6.54-10.94-5.79-19.71-5.79s-18.11-.74-19.71 5.8c-.48 1.92 2.75 1 8.73 5.63 6.46 5 8 7.58 11 7.58s4.52-2.61 11-7.58c5.98-4.61 9.17-3.72 8.69-5.64z" fill="#e6e6e6"/><path d="m42 28.79a21.89 21.89 0 0 0 -2.36-5.79 2.72 2.72 0 0 1 -.18-2.54c2.42-9.3-.83-17.9-2.67-18.46-1.55-.45-6.19 4.88-9.68 9.66-.73 1-1.05 1.11-2 1a18.73 18.73 0 0 0 -6.22 0c-.95.16-1.27.06-2-1-3.49-4.75-8.13-10.08-9.68-9.66-1.84.53-5.09 9.13-2.67 18.45a2.72 2.72 0 0 1 -.18 2.55 21.89 21.89 0 0 0 -2.36 5.79c-.44 1.92 4.65-1.08 10.87 3.21 4.78 3.28 6.12 8.9 9.13 8.9s4.35-5.62 9.13-8.9c6.22-4.29 11.31-1.29 10.87-3.21z" fill="#fd8c00"/><path d="m13.72 12.88c-1.61-3.05-4.78-7.17-5.72-6.88-1.12.37-2.84 6.24-1.08 12.72.32 1.16 2.4.57 6.28-2.34 1.44-1.06 1.34-1.95.52-3.5z" fill="#c25a00"/><path d="m30.28 12.88c1.61-3.05 4.78-7.17 5.72-6.88 1.12.37 2.84 6.24 1.08 12.72-.32 1.16-2.4.57-6.28-2.34-1.44-1.06-1.34-1.95-.52-3.5z" fill="#c25a00"/><g fill="#242436"><path d="m24.22 37.67a2.3 2.3 0 0 1 -4.58 0c0-1.1 1-1.79 2.29-1.79s2.29.69 2.29 1.79z"/><ellipse cx="27.95" cy="26" rx="1.9" ry="2"/><ellipse cx="15.9" cy="26" rx="1.9" ry="2"/></g></symbol><symbol id="fraction" viewBox="0 0 24 24"><path d="m6 12h12" fill="none" stroke="#000" stroke-miterlimit="10"/><path d="m8 2h8v8h-8z" opacity=".6"/><path d="m8 14h8v8h-8z" opacity=".6"/></symbol><symbol id="fullscreen" viewBox="0 0 24 24"><path d="m15.85 3.85 1.45 1.45-2.18 2.16a1 1 0 0 0 0 1.42 1 1 0 0 0 1.42 0l2.16-2.18 1.45 1.45a.5.5 0 0 0 .85-.36v-4.29a.5.5 0 0 0 -.5-.5h-4.29a.5.5 0 0 0 -.36.85zm-12 4.3 1.45-1.45 2.16 2.18a1 1 0 0 0 1.42 0 1 1 0 0 0 0-1.42l-2.18-2.16 1.45-1.45a.5.5 0 0 0 -.36-.85h-4.29a.5.5 0 0 0 -.5.5v4.29a.5.5 0 0 0 .85.36zm4.3 12-1.45-1.45 2.18-2.16a1 1 0 0 0 0-1.42 1 1 0 0 0 -1.42 0l-2.16 2.18-1.45-1.45a.5.5 0 0 0 -.85.36v4.29a.5.5 0 0 0 .5.5h4.29a.5.5 0 0 0 .36-.85zm12-4.3-1.45 1.45-2.16-2.18a1 1 0 0 0 -1.42 0 1 1 0 0 0 0 1.42l2.18 2.16-1.45 1.45a.5.5 0 0 0 .36.85h4.29a.5.5 0 0 0 .5-.5v-4.29a.5.5 0 0 0 -.85-.36z"/></symbol><symbol id="geo-angle-bisector" viewBox="0 0 24 24"><path d="M21.71,2.29a1,1,0,0,0-1.42,0L5.41,17.18a2.48,2.48,0,0,0-3.23,3.23l-.89.88a1,1,0,0,0,0,1.42,1,1,0,0,0,1.42,0l.88-.89a2.48,2.48,0,0,0,3.23-3.23L21.71,3.71A1,1,0,0,0,21.71,2.29Z"/><path d="M20.5,12.5A2.49,2.49,0,0,0,18,14.66L5.51,18.49,9.34,6a2.5,2.5,0,1,0-1.93-.55L3,19.71s0,.06,0,.09a2,2,0,0,0,0,.4s0,.06,0,.09a.93.93,0,0,0,0,.1.67.67,0,0,0,.06.12.77.77,0,0,0,.16.19.27.27,0,0,0,.07.08A.83.83,0,0,0,3.7,21h0A1.26,1.26,0,0,0,4,21H4a1.26,1.26,0,0,0,.28,0l14.29-4.37A2.5,2.5,0,1,0,20.5,12.5Z" opacity=".5"/></symbol><symbol id="geo-centroid" viewBox="0 0 24 24"><path d="M4,23a1,1,0,0,1-1-.76l-2-8a1,1,0,0,1,.08-.69l6-12a1,1,0,0,1,1.23-.49l11,4a1,1,0,0,1,.63.72l3,13A1,1,0,0,1,22.16,20l-18,3Zm-.94-8.88,1.69,6.74,16-2.67L18.15,6.75,8.5,3.24Z" opacity=".5"/><circle cx="12.5" cy="13" r="2.5"/></symbol><symbol id="geo-circle" viewBox="0 0 24 24"><circle cx="12" cy="12" r="2.5"/><path d="M14.39,2.3a2.49,2.49,0,0,0-4.78,0,10,10,0,1,0,4.78,0ZM12,20A8,8,0,0,1,9.87,4.3a2.49,2.49,0,0,0,4.26,0A8,8,0,0,1,12,20Z"/></symbol><symbol id="geo-circumcircle" viewBox="0 0 24 24"><path d="M12,23A11,11,0,1,1,23,12,11,11,0,0,1,12,23ZM12,3a9,9,0,1,0,9,9A9,9,0,0,0,12,3Z"/><path d="M4.73,20l-1.1-1.46,9.63-17H15l7.37,13L21.73,16ZM14.13,4,6.5,17.5,20,14.33Z" opacity=".5"/></symbol><symbol id="geo-incircle" viewBox="0 0 24 24"><path d="M13.9,19.15a6.4,6.4,0,1,1,6.4-6.4A6.41,6.41,0,0,1,13.9,19.15Zm0-10.8a4.4,4.4,0,1,0,4.4,4.4A4.4,4.4,0,0,0,13.9,8.35Z"/><path d="M2,23a1,1,0,0,1-.86-1.51l12-20A1,1,0,0,1,14,1a1,1,0,0,1,.86.5l8,14A1,1,0,0,1,22.29,17l-20,6A1,1,0,0,1,2,23ZM14,4,4.19,20.3l16.32-4.9Z" opacity=".5"/></symbol><symbol id="geo-line" viewBox="0 0 24 24"><path d="M19.5,2a2.48,2.48,0,0,0-2.32,3.41L5.41,17.18a2.53,2.53,0,1,0,1.41,1.41L18.59,6.82A2.5,2.5,0,1,0,19.5,2Z"/></symbol><symbol id="geo-midpoint" viewBox="0 0 24 24"><path d="M20.5,1a2.48,2.48,0,0,0-2.32,3.41L4.41,18.18a2.53,2.53,0,1,0,1.41,1.41L19.59,5.82A2.5,2.5,0,1,0,20.5,1Z" opacity=".5"/><circle cx="12" cy="12" r="2.5"/></symbol><symbol id="geo-parallel" viewBox="0 0 24 24"><path d="M3,23a1,1,0,0,1-.55-1.83l18-12a1,1,0,1,1,1.1,1.66l-18,12A.94.94,0,0,1,3,23Z" opacity=".5"/><path d="M21.83,2.45a1,1,0,0,0-1.38-.28L13.35,6.9A2.5,2.5,0,0,0,9.5,9a3.27,3.27,0,0,0,0,.44L2.45,14.17A1,1,0,0,0,3,16a.94.94,0,0,0,.55-.17l7.1-4.73A2.5,2.5,0,0,0,14.5,9a3.27,3.27,0,0,0,0-.44l7.09-4.73A1,1,0,0,0,21.83,2.45Z"/></symbol><symbol id="geo-perp-bisector" viewBox="0 0 24 24"><path d="M21,22a1,1,0,0,1-.71-.29l-18-18A1,1,0,0,1,3.71,2.29l18,18a1,1,0,0,1,0,1.42A1,1,0,0,1,21,22Z"/><path d="M20.5,1a2.48,2.48,0,0,0-2.32,3.41L4.41,18.18a2.53,2.53,0,1,0,1.41,1.41L19.59,5.82A2.5,2.5,0,1,0,20.5,1Z" opacity=".5"/></symbol><symbol id="geo-perpendicular" viewBox="0 0 24 24"><path d="M3,23a1,1,0,0,1-.55-1.83l18-12a1,1,0,1,1,1.1,1.66l-18,12A.94.94,0,0,1,3,23Z" opacity=".5"/><path d="M16.83,20.45,8.1,7.35A2.5,2.5,0,0,0,6,3.5a3.27,3.27,0,0,0-.44,0L4.83,2.45a1,1,0,1,0-1.66,1.1l.73,1.1A2.5,2.5,0,0,0,6,8.5a3.27,3.27,0,0,0,.44,0l8.73,13.09A1,1,0,0,0,16,22a.94.94,0,0,0,.55-.17A1,1,0,0,0,16.83,20.45Z"/></symbol><symbol id="geo-point" viewBox="0 0 24 24"><circle cx="12" cy="12" r="4"/></symbol><symbol id="geo-rectangle" viewBox="0 0 24 23.91"><path d="M21,14.71V7a1,1,0,0,0-1-1H6.29A2.5,2.5,0,1,0,3,9.29V17a1,1,0,0,0,1,1H17.71A2.5,2.5,0,1,0,21,14.71ZM5,9.29A2.46,2.46,0,0,0,6.29,8H19v6.71A2.46,2.46,0,0,0,17.71,16H5Z"/></symbol><symbol id="geo-reflect" viewBox="0 0 24 24"><path d="m21.05 11.68a.68.68 0 0 0 .95-.68v-8a1 1 0 0 0 -1-1h-10a1 1 0 0 0 -1 1v4a1.5 1.5 0 0 0 1 1.32z" opacity=".5"/><path d="m21 22a1 1 0 0 1 -.71-.29l-18-18a1 1 0 0 1 1.42-1.42l18 18a1 1 0 0 1 0 1.42 1 1 0 0 1 -.71.29z"/><path d="m11.68 21.05a.68.68 0 0 1 -.68.95h-8a1 1 0 0 1 -1-1v-10a1 1 0 0 1 1-1h4a1.5 1.5 0 0 1 1.32 1z" opacity=".5"/></symbol><symbol id="geo-rotate" viewBox="0 0 24 24"><path d="m21.66 8a.67.67 0 0 1 .19 1.15l-5.66 5.66a1 1 0 0 1 -1.41 0l-7.07-7.1a1 1 0 0 1 0-1.42l2.83-2.83a1.51 1.51 0 0 1 1.6-.26z" opacity=".5"/><path d="m11.68 21.05a.68.68 0 0 1 -.68.95h-8a1 1 0 0 1 -1-1v-10a1 1 0 0 1 1-1h4a1.5 1.5 0 0 1 1.32 1z" opacity=".5"/><circle cx="3" cy="3" r="2"/><path d="m23 8.16a.5.5 0 0 0 -.55.1l-3.81 3.84a.5.5 0 0 0 .36.9h.77a21.24 21.24 0 0 1 -8.28 8.22 1 1 0 0 0 .51 1.78.91.91 0 0 0 .48-.13 23.21 23.21 0 0 0 9.22-9.26l.61.72a.49.49 0 0 0 .38.17h.17a.51.51 0 0 0 .33-.46l.09-5.39a.47.47 0 0 0 -.28-.49z"/></symbol><symbol id="geo-translate" viewBox="0 0 24 24"><path d="m21.68 13.05a.68.68 0 0 1 -.68.95h-8a1 1 0 0 1 -1-1v-10a1 1 0 0 1 1-1h4a1.5 1.5 0 0 1 1.32 1z" opacity=".5"/><path d="m11.68 21.05a.68.68 0 0 1 -.68.95h-8a1 1 0 0 1 -1-1v-10a1 1 0 0 1 1-1h4a1.5 1.5 0 0 1 1.32 1z" opacity=".5"/><path d="m12.39 1.69a.51.51 0 0 0 -.54-.17l-5.15 1.56a.49.49 0 0 0 -.35.45.5.5 0 0 0 .29.47l.78.36-6 4.84a1 1 0 0 0 -.16 1.4 1 1 0 0 0 .74.4 1 1 0 0 0 .62-.22l6.05-4.84.19.85a.49.49 0 0 0 .41.39h.08a.51.51 0 0 0 .43-.26l2.66-4.68a.5.5 0 0 0 -.05-.55z"/><path d="m22.39 13.69a.51.51 0 0 0 -.54-.17l-5.15 1.56a.49.49 0 0 0 -.35.45.5.5 0 0 0 .29.49l.78.36-6 4.84a1 1 0 0 0 -.16 1.4 1 1 0 0 0 .74.38 1 1 0 0 0 .62-.22l6.05-4.84.19.85a.49.49 0 0 0 .41.39h.08a.51.51 0 0 0 .43-.26l2.66-4.68a.5.5 0 0 0 -.05-.55z"/></symbol><symbol id="github" viewBox="0 0 24 24"><path d="m12 2a10 10 0 0 0 -3.16 19.49c.5.09.66-.22.66-.48v-1.86c-2.78.6-3.36-1.15-3.36-1.15a2.69 2.69 0 0 0 -1.14-1.5c-.91-.62.07-.6.07-.6a2.1 2.1 0 0 1 1.53 1 2.14 2.14 0 0 0 2.91.83 2.16 2.16 0 0 1 .63-1.34c-2.14-.22-4.52-1.08-4.52-4.91a3.89 3.89 0 0 1 1-2.69 3.57 3.57 0 0 1 .1-2.64s.84-.27 2.75 1a9.63 9.63 0 0 1 5 0c1.91-1.29 2.75-1 2.75-1a3.56 3.56 0 0 1 .1 2.64 3.89 3.89 0 0 1 1 2.69c0 3.84-2.34 4.68-4.57 4.93a2.39 2.39 0 0 1 .69 1.85v2.74c0 .26.16.58.67.48a10 10 0 0 0 -3.11-19.48z"/></symbol><symbol id="glossary" viewBox="0 0 24 24"><path d="m19 4h-1v8l-2.5-2.5-2.5 2.5v-8h-8a1 1 0 0 1 1-1h13.5a.5.5 0 0 0 0-1h-13.5a2 2 0 0 0 -2 2v16a2 2 0 0 0 2 2h13a1 1 0 0 0 1-1v-16a1 1 0 0 0 -1-1z"/></symbol><symbol id="google" viewBox="0 0 24 24"><path d="m21.12 12.22a11.14 11.14 0 0 0 -.17-2h-8.95v3.78h5.11a4.35 4.35 0 0 1 -1.89 2.86v2.34h3.07a9.3 9.3 0 0 0 2.83-7z" fill="#4285f4"/><path d="m12 21.5a9.07 9.07 0 0 0 6.29-2.3l-3.07-2.39a5.74 5.74 0 0 1 -8.54-3h-3.17v2.46a9.5 9.5 0 0 0 8.49 5.23z" fill="#34a853"/><path d="m6.68 13.81a5.79 5.79 0 0 1 0-3.62v-2.46h-3.17a9.53 9.53 0 0 0 0 8.54z" fill="#fbbc05"/><path d="m12 6.28a5.13 5.13 0 0 1 3.63 1.42l2.73-2.7a9.16 9.16 0 0 0 -6.36-2.5 9.5 9.5 0 0 0 -8.49 5.23l3.17 2.46a5.68 5.68 0 0 1 5.32-3.91z" fill="#ea4335"/></symbol><symbol id="grid" viewBox="0 0 24 24"><path d="m20 2h-16a2 2 0 0 0 -2 2v16a2 2 0 0 0 2 2h16a2 2 0 0 0 2-2v-16a2 2 0 0 0 -2-2zm-12 18h-3a1 1 0 0 1 -1-1v-3h4zm0-6h-4v-4h4zm0-6h-4v-3a1 1 0 0 1 1-1h3zm6 12h-4v-4h4zm0-6h-4v-4h4zm0-6h-4v-4h4zm5 12h-3v-4h4v3a1 1 0 0 1 -1 1zm1-6h-4v-4h4zm0-6h-4v-4h3a1 1 0 0 1 1 1z"/></symbol><symbol id="hand" viewBox="0 0 24 24"><path d="m19.5 10a1.5 1.5 0 0 0 -1.5 1.5v-1a1.5 1.5 0 0 0 -3 0v-1a1.5 1.5 0 0 0 -3 0v-6a1.5 1.5 0 0 0 -3 0v10.41l-4.12-2.35a1.5 1.5 0 0 0 -1.81 2.35l6.78 6.89a4 4 0 0 0 2.85 1.2h4.3a4 4 0 0 0 4-4v-6.5a1.5 1.5 0 0 0 -1.5-1.5z"/></symbol><symbol id="instagram" viewBox="0 0 24 24"><path d="m12 4.21c2.54 0 2.84 0 3.84.06 2.57.11 3.78 1.34 3.89 3.89.05 1 .06 1.3.06 3.84s0 2.84-.06 3.84c-.11 2.55-1.31 3.78-3.89 3.89-1 .05-1.3.06-3.84.06s-2.84 0-3.84-.06c-2.58-.11-3.78-1.34-3.89-3.89 0-1-.06-1.3-.06-3.84s0-2.84.06-3.84c.11-2.55 1.31-3.78 3.89-3.89 1-.05 1.3-.06 3.84-.06zm0-1.71c-2.58 0-2.9 0-3.92.06-3.45.16-5.36 2.07-5.52 5.52-.05 1.02-.06 1.34-.06 3.92s0 2.9.06 3.92c.16 3.45 2.07 5.36 5.52 5.52 1 0 1.34.06 3.92.06s2.9 0 3.92-.06c3.44-.16 5.37-2.07 5.52-5.52 0-1 .06-1.34.06-3.92s0-2.9-.06-3.92c-.15-3.44-2.07-5.36-5.52-5.52-1.02-.05-1.34-.06-3.92-.06zm0 4.62a4.88 4.88 0 1 0 4.88 4.88 4.89 4.89 0 0 0 -4.88-4.88zm0 8.05a3.17 3.17 0 1 1 3.17-3.17 3.17 3.17 0 0 1 -3.17 3.17zm5.07-9.38a1.14 1.14 0 1 0 1.14 1.14 1.14 1.14 0 0 0 -1.14-1.14z"/></symbol><symbol id="italic" viewBox="0 0 24 24"><path d="M10,5.5A1.5,1.5,0,0,0,11.5,7h.7L8.8,15H7.5a1.5,1.5,0,0,0,0,3h5a1.5,1.5,0,0,0,0-3h-.7l3.4-8h1.3A1.5,1.5,0,0,0,18,5.5,1.5,1.5,0,0,0,16.5,4h-5A1.5,1.5,0,0,0,10,5.5Z"/></symbol><symbol id="language" viewBox="0 0 24 24"><path d="M12,2A10,10,0,1,0,22,12,10,10,0,0,0,12,2Zm6.93,6H16a15.65,15.65,0,0,0-1.38-3.56A8,8,0,0,1,18.92,8ZM12,4a14.09,14.09,0,0,1,1.91,4H10.09A14.09,14.09,0,0,1,12,4ZM4.26,14a7.82,7.82,0,0,1,0-4H7.64a16.52,16.52,0,0,0-.14,2,16.52,16.52,0,0,0,.14,2Zm.82,2H8a15.65,15.65,0,0,0,1.38,3.56A8,8,0,0,1,5.08,16ZM8,8H5.08A8,8,0,0,1,9.41,4.44,15.65,15.65,0,0,0,8,8Zm4,12a14.09,14.09,0,0,1-1.91-4h3.82A14.09,14.09,0,0,1,12,20Zm2.34-6H9.66a14.71,14.71,0,0,1-.16-2,14.58,14.58,0,0,1,.16-2h4.68a14.58,14.58,0,0,1,.16,2A14.71,14.71,0,0,1,14.34,14Zm.25,5.56A15.65,15.65,0,0,0,16,16h3A8,8,0,0,1,14.59,19.56ZM16.36,14a16.52,16.52,0,0,0,.14-2,16.52,16.52,0,0,0-.14-2h3.38a7.82,7.82,0,0,1,0,4Z"/></symbol><symbol id="left" viewBox="0 0 24 24"><path d="m16.07 4.07a1.49 1.49 0 0 0 -2.12 0l-6.88 6.93a1.49 1.49 0 0 0 0 2.12l6.93 6.88a1.51 1.51 0 0 0 2.12 0 1.51 1.51 0 0 0 0-2.12l-5.88-5.88 5.83-5.82a1.51 1.51 0 0 0 0-2.11z"/></symbol><symbol id="level-1" viewBox="0 0 36 36"><circle cx="18" cy="18" fill="#fff" r="16"/><path d="m18 0a18 18 0 1 0 18 18 18 18 0 0 0 -18-18zm6.13 25.85-6.13-3.22-6.13 3.22 1.13-6.85-4.91-4.8 6.85-1 3.06-6.2 3.06 6.21 6.85 1-4.91 4.79z" fill="#0f82f2"/></symbol><symbol id="level-2" viewBox="0 0 36 36"><circle cx="18" cy="18" fill="#fff" r="16"/><path d="m18 0a18 18 0 1 0 18 18 18 18 0 0 0 -18-18zm-9.84 18.76.91-5.34-3.88-3.78 5.37-.78 2.44-4.86 2.39 4.86 5.37.78-3.88 3.78.91 5.34-4.79-2.52zm20.68 11.09-4.84-2.52-4.79 2.52.91-5.34-3.88-3.78 5.41-.73 2.35-4.91 2.44 4.91 5.37.78-3.88 3.78z" fill="#22ab24"/></symbol><symbol id="level-3" viewBox="0 0 36 36"><circle cx="18" cy="18" fill="#fff" r="16"/><path d="m18 0a18 18 0 1 0 18 18 18 18 0 0 0 -18-18zm-3.82 28.85-4.18-2.19-4.18 2.19.8-4.65-3.38-3.29 4.67-.68 2.09-4.23 2.09 4.23 4.67.68-3.38 3.29zm-.36-12 .8-4.65-3.38-3.29 4.67-.68 2.09-4.23 2.09 4.23 4.67.68-3.38 3.29.8 4.65-4.18-2.19zm16.36 12-4.18-2.19-4.18 2.19.8-4.65-3.38-3.29 4.67-.68 2.09-4.23 2.09 4.23 4.67.68-3.38 3.29z" fill="#fd8c00"/></symbol><symbol id="library" viewBox="0 0 24 24"><path d="m8.2 3.3-3-.5a1 1 0 0 0 -1.2.76l-3.1 17.74a1 1 0 0 0 .76 1.19l3 .5a1 1 0 0 0 1.19-.76l3.15-17.83a1 1 0 0 0 -.8-1.1zm-2 11.3a.5.5 0 0 1 -.58.4l-2-.3a.5.5 0 0 1 -.4-.58l1.38-7.92a.5.5 0 0 1 .58-.4l2 .3a.5.5 0 0 1 .4.58z"/><path d="m17 19h6v1h-6z"/><path d="m17 10h6v8h-6z"/><path d="m17 22a1 1 0 0 0 1 1h4a1 1 0 0 0 1-1v-1h-6z"/><path d="m17 8h6v1h-6z"/><path d="m22 5h-4a1 1 0 0 0 -1 1v1h6v-1a1 1 0 0 0 -1-1z"/><path d="m10 22a1 1 0 0 0 1 1h4a1 1 0 0 0 1-1v-1h-6z"/><path d="m15 1h-4a1 1 0 0 0 -1 1v1h6v-1a1 1 0 0 0 -1-1z"/><path d="m10 5h6v14h-6z"/></symbol><symbol id="lightbulb" viewBox="0 0 24 24"><path d="m9 19h6a0 0 0 0 1 0 0v2a2 2 0 0 1 -2 2h-2a2 2 0 0 1 -2-2v-2a0 0 0 0 1 0 0z"/><path d="m12 2a7 7 0 0 0 -7 7c0 2.79 4 6 4 9h2.5a17.9 17.9 0 0 0 -2.68-8.25.5.5 0 0 1 0-.5.5.5 0 0 1 .43-.25h5.5a.5.5 0 0 1 .43.25.5.5 0 0 1 0 .5 17.9 17.9 0 0 0 -2.68 8.25h2.5c0-3 4-6.21 4-9a7 7 0 0 0 -7-7z"/><path d="m10.1 10a22.89 22.89 0 0 1 1.9 4.64 22.89 22.89 0 0 1 1.9-4.64z"/></symbol><symbol id="lock" viewBox="0 0 24 24"><path d="m18 8h-1v-2a5 5 0 0 0 -10 0v2h-1a2 2 0 0 0 -2 2v10a2 2 0 0 0 2 2h12a2 2 0 0 0 2-2v-10a2 2 0 0 0 -2-2zm-5 7.72v2.28h-2v-2.28a2 2 0 1 1 2 0zm2-7.72h-6v-2a3 3 0 0 1 6 0z"/></symbol><symbol id="logo" viewBox="0 0 36 36"><path d="m17 31v-11.98-.02l-12 12z" fill="#fd8c00"/><path d="m4 4.5v.03 12.96 13.01l13-13z" fill="#cd0e66"/><path d="m31 5-12 12h12" fill="#22ab24"/><path d="m31 18h-13v13h13" fill="#0f82f2"/></symbol><symbol id="logout" viewBox="0 0 24 24"><path d="m10.79 16.29a1 1 0 0 0 1.41 0l3.59-3.59a1 1 0 0 0 0-1.41l-3.59-3.59a1 1 0 0 0 -1.41 0 1 1 0 0 0 0 1.41l1.88 1.89h-8.67a1 1 0 0 0 -1 1 1 1 0 0 0 1 1h8.67l-1.88 1.88a1 1 0 0 0 0 1.41zm8.21-13.29h-14a2 2 0 0 0 -2 2v3a1 1 0 0 0 1 1 1 1 0 0 0 1-1v-2a1 1 0 0 1 1-1h12a1 1 0 0 1 1 1v12a1 1 0 0 1 -1 1h-12a1 1 0 0 1 -1-1v-2a1 1 0 0 0 -1-1 1 1 0 0 0 -1 1v3a2 2 0 0 0 2 2h14a2 2 0 0 0 2-2v-14a2 2 0 0 0 -2-2z"/></symbol><symbol id="microsoft" viewBox="0 0 24 24"><path d="m3 3h8.5v8.5h-8.5z" fill="#f25022"/><path d="m3 12.5h8.5v8.5h-8.5z" fill="#00a4ef"/><path d="m12.5 3h8.5v8.5h-8.5z" fill="#7fba00"/><path d="m12.5 12.5h8.5v8.5h-8.5z" fill="#ffb900"/></symbol><symbol id="notes" viewBox="0 0 24 24"><path d="m6 2a2 2 0 0 0 -2 2v16a2 2 0 0 0 2 2h12a2 2 0 0 0 2-2v-11.17a2 2 0 0 0 -.59-1.41l-4.83-4.83a2 2 0 0 0 -1.41-.59zm7 6v-4.5l5.5 5.5h-4.5a1 1 0 0 1 -1-1z"/></symbol><symbol id="patreon" viewBox="0 0 24 24"><path d="m4 4h3v16h-3z" fill="#052d49"/><circle cx="14" cy="10" fill="#fff" r="6"/></symbol><symbol id="pause" viewBox="0 0 24 24"><path d="m8 19a2 2 0 0 0 2-2v-10a2 2 0 0 0 -2-2 2 2 0 0 0 -2 2v10a2 2 0 0 0 2 2zm6-12v10a2 2 0 0 0 2 2 2 2 0 0 0 2-2v-10a2 2 0 0 0 -2-2 2 2 0 0 0 -2 2z"/></symbol><symbol id="paypal" viewBox="0 0 24 24"><path d="m19.85 10.66a6.53 6.53 0 0 1 -.1 1.32c-.66 3.5-2.93 4.73-5.86 4.73h-.47a.74.74 0 0 0 -.75.66l-.67 4a.75.75 0 0 1 -.75.66h-2.08a.46.46 0 0 1 -.48-.46.41.41 0 0 1 0-.11l1.13-7.09h1.7c4.16 0 6.71-2.08 7.47-5.95a3.21 3.21 0 0 1 .86 2.24zm-11.15 3.4c.09-.66.37-1 1.13-1h1.8c3.59 0 5.67-1.6 6.33-5s-1.7-5.06-4.82-5.06h-5.77a.85.85 0 0 0 -.85.76c-1.79 11.62-2.36 14.65-2.36 15.5a.48.48 0 0 0 .37.56h3.22z"/></symbol><symbol id="pen" viewBox="0 0 24 24"><path d="m15.93 11.81-3.75-3.75-7.73 7.74-1.3 1.3a.49.49 0 0 0 -.15.36v3a.5.5 0 0 0 .5.5h3a.47.47 0 0 0 .35-.15l2.77-2.76 1.18-1.05 1.69-1.69z"/><path d="m21.59 10.44c0-.49-.45-.94-.93-1.44-.32-.31-.66-.64-.63-1s.34-.66.68-1a.78.78 0 0 0 .1-.15 1 1 0 0 0 .19-.52.94.94 0 0 0 -.26-.65l-2.37-2.39h-.07a1 1 0 0 0 -1.34 0l-.49.49-3.35 3.34 3.75 3.75 1.42-1.41 1 1-3.59 3.54a1 1 0 0 0 .72 1.71 1 1 0 0 0 .71-.3l3.42-3.43c.51-.54 1.02-1.05 1.04-1.54z"/></symbol><symbol id="person-1" viewBox="0 0 32 32"><path d="m2.5 7.24 10.8 10.8v-10.8z"/><path d="m14.02 18.04 10.8-10.8h-10.8z"/><path d="m16.9 21.64-5.4 5.4v-5.4l5.4-5.41z"/><path d="m17.62 16.23v7.93h7.92z"/><path d="m29.5 21.27h-5.4l5.4 5.41z"/><path d="m13.66 31.36v-5.41l-5.4 5.41z"/><path d="m10.65.87h5.4v5.4h-5.4z" transform="matrix(1 -.09 .09 1 -.26 1.18)"/></symbol><symbol id="person-2" viewBox="0 0 32 32"><path d="m19.44 15.46-7.97-7.97-7.97 7.97z"/><path d="m21.98.96-7.97 7.98 7.97 7.97z"/><path d="m9.66 1.33h5.43v5.43h-5.43z"/><path d="m11.47 24.15h7.97v-7.97z"/><path d="m20.17 21.62 5.43 5.43v-5.43l-5.43-5.44z"/><path d="m8.57 24.88v5.43l5.44-5.43z"/><path d="m23.07 31.04h5.43l-5.43-5.44z"/></symbol><symbol id="person-3" viewBox="0 0 32 32"><path d="m17.09 6.24 4.58 9.83 9.83-4.58z"/><path d="m22.77 20.18-4.58-9.83-9.83 4.58z"/><path d="m18.27 23.36 7.21 2.63-2.29-4.92-7.21-2.62z"/><path d="m5.17 14.52 3.13 6.7 6.7-3.13z"/><path d="m5.41 9.78-4.91 2.29 7.21 2.63z"/><path d="m25.24 30.72 4.92-2.29-7.21-2.62z"/><path d="m22.48 2.35h5.23v5.23h-5.23z" transform="matrix(.64278761 -.76604444 .76604444 .64278761 5.16 20.99)"/></symbol><symbol id="pinterest" viewBox="0 0 24 24"><path d="m12 2a10 10 0 0 0 -3.64 19.31 9.55 9.55 0 0 1 0-2.87c.18-.78 1.17-5 1.17-5a3.6 3.6 0 0 1 -.27-1.44c0-1.39.81-2.43 1.81-2.43a1.26 1.26 0 0 1 1.27 1.43 20.35 20.35 0 0 1 -.83 3.33 1.45 1.45 0 0 0 1.49 1.78c1.78 0 3.14-1.88 3.14-4.58a3.94 3.94 0 0 0 -4.14-4.07 4.33 4.33 0 0 0 -4.56 4.34 3.83 3.83 0 0 0 .75 2.28.32.32 0 0 1 .07.29l-.26 1.13c-.05.18-.15.22-.34.13-1.25-.58-2-2.4-2-3.87 0-3.16 2.29-6 6.61-6a5.87 5.87 0 0 1 6.17 5.77c0 3.45-2.18 6.22-5.19 6.22a2.69 2.69 0 0 1 -2.3-1.14l-.62 2.37a10.75 10.75 0 0 1 -1.33 2.57 10 10 0 1 0 3-19.55z"/></symbol><symbol id="play" viewBox="0 0 24 24"><path d="m7.5 6.17v11.66a1.12 1.12 0 0 0 1.73.94l9.16-5.77a1.13 1.13 0 0 0 0-1.91l-9.16-5.86a1.12 1.12 0 0 0 -1.73.94z"/></symbol><symbol id="power" viewBox="0 0 24 24"><path d="m14 3h7v7h-7z" opacity=".6"/><path d="m4 7h9v14h-9z" opacity=".6"/></symbol><symbol id="progress" viewBox="0 0 24 24"><circle cx="4.5" cy="12" r="2"/><circle cx="4.5" cy="6" r="2"/><circle cx="4.5" cy="18" r="2"/><path d="m9.5 19h11a1 1 0 0 0 1-1 1 1 0 0 0 -1-1h-11a1 1 0 0 0 -1 1 1 1 0 0 0 1 1z"/><path d="m9.5 13h11a1 1 0 0 0 1-1 1 1 0 0 0 -1-1h-11a1 1 0 0 0 -1 1 1 1 0 0 0 1 1z"/><path d="m8.5 6a1 1 0 0 0 1 1h11a1 1 0 0 0 1-1 1 1 0 0 0 -1-1h-11a1 1 0 0 0 -1 1z"/></symbol><symbol id="protractor" viewBox="0 0 24 24"><path d="m22.31 6.76a10.93 10.93 0 0 0 -7.74-3.22h-.07a11 11 0 0 0 -11 11v.07a11 11 0 0 0 3.22 7.74 1 1 0 0 0 1.41 0l14.18-14.18a1 1 0 0 0 0-1.41zm-14.81 13.39a8.92 8.92 0 0 1 -1.9-4.61h2.94a1 1 0 0 0 0-2h-2.94a9 9 0 0 1 1.91-4.62l2.08 2.08a1 1 0 0 0 .7.29 1 1 0 0 0 .71-.29 1 1 0 0 0 0-1.41l-2.08-2.08a8.93 8.93 0 0 1 4.62-1.91v2.94a1 1 0 0 0 2 0v-2.94a9 9 0 0 1 4.61 1.9z"/></symbol><symbol id="quiz" viewBox="0 0 24 24"><path d="m18 2h-8a4 4 0 0 0 -4 4 4 4 0 0 0 -4 4v8a4 4 0 0 0 4 4h8a4 4 0 0 0 4-4 4 4 0 0 0 4-4v-8a4 4 0 0 0 -4-4zm-2 16a2 2 0 0 1 -2 2h-8a2 2 0 0 1 -2-2v-8a2 2 0 0 1 2-2h8a2 2 0 0 1 2 2zm4-4a2 2 0 0 1 -2 2v-6a4 4 0 0 0 -4-4h-6a2 2 0 0 1 2-2h8a2 2 0 0 1 2 2z"/></symbol><symbol id="reddit" viewBox="0 0 24 24"><path d="m22 11.82a2.21 2.21 0 0 0 -3.75-1.59 11.44 11.44 0 0 0 -5.81-1.7l1.24-3.89 3.32.78a1.83 1.83 0 1 0 .13-.65l-3.59-.77a.31.31 0 0 0 -.37.21l-1.37 4.31a11.51 11.51 0 0 0 -6.09 1.68 2.2 2.2 0 1 0 -2.61 3.51 3.35 3.35 0 0 0 -.07.71c0 3.26 4 5.91 8.93 5.91s8.93-2.65 8.93-5.91a3.71 3.71 0 0 0 -.06-.67 2.22 2.22 0 0 0 1.17-1.93zm-14.35 1.51a1.32 1.32 0 1 1 1.35 1.31 1.32 1.32 0 0 1 -1.35-1.31zm7.55 3.89a4.37 4.37 0 0 1 -3.19 1 4.37 4.37 0 0 1 -3.19-1 .31.31 0 1 1 .44-.44 3.78 3.78 0 0 0 2.75.8 3.78 3.78 0 0 0 2.75-.8.31.31 0 1 1 .44.44zm-.2-2.58a1.31 1.31 0 1 1 1.32-1.31 1.32 1.32 0 0 1 -1.32 1.31z"/></symbol><symbol id="redo" viewBox="0 0 24 24"><path d="m18.4 10.6a10.47 10.47 0 0 0 -16.34 3.33 1.25 1.25 0 0 0 .75 1.71 1.23 1.23 0 0 0 1.5-.64 8 8 0 0 1 12.31-2.62l-1.91 1.91a1 1 0 0 0 .7 1.71h5.59a1 1 0 0 0 1-1v-5.59a1 1 0 0 0 -1.71-.71z"/></symbol><symbol id="reset" viewBox="0 0 24 24"><path d="m19 3h-2.5l-.71-.71a1 1 0 0 0 -.7-.29h-6.18a1 1 0 0 0 -.7.29l-.71.71h-2.5a1 1 0 0 0 0 2h14a1 1 0 0 0 0-2z"/><path d="m17 6h-10a2 2 0 0 0 -2 2v12a2 2 0 0 0 2 2h10a2 2 0 0 0 2-2v-12a2 2 0 0 0 -2-2zm-5 13a5 5 0 0 1 -4.12-2.17.75.75 0 0 1 .19-1 .74.74 0 0 1 1 .19 3.5 3.5 0 1 0 -.22-3.59l1.65 1.57h-3.5a.5.5 0 0 1 -.5-.5v-3.5l1.3 1.3a5 5 0 1 1 4.2 7.7z"/></symbol><symbol id="restart" viewBox="0 0 24 24"><path d="m5.71 5.7a1 1 0 0 0 -1.71.71v3.59a1 1 0 0 0 1 1h3.59a1 1 0 0 0 .7-1.71l-1.51-1.51a5.91 5.91 0 0 1 4.22-1.78 6 6 0 1 1 -5.43 8.53 1 1 0 0 0 -.88-.53 1 1 0 0 0 -.9 1.44 8 8 0 1 0 1.56-9.09z"/></symbol><symbol id="restore" viewBox="0 0 24 24"><path d="M24,0V24H0V0Z" fill="none"/><path d="M21,12.25A9,9,0,0,0,12,3V1.2a.49.49,0,0,0-.85-.35L8.35,3.64a.5.5,0,0,0,0,.71l2.8,2.79A.5.5,0,0,0,12,6.79V5a7,7,0,0,1,7,7.1A7.09,7.09,0,0,1,12.1,19,7,7,0,0,1,5,12,6.9,6.9,0,0,1,6.48,7.71,1,1,0,0,0,6.4,6.39a1,1,0,0,0-1.5.08A9,9,0,0,0,12.26,21,9.11,9.11,0,0,0,21,12.25Z"/></symbol><symbol id="right" viewBox="0 0 24 24"><path d="m7.93 4.07a1.5 1.5 0 0 0 0 2.11l5.83 5.82-5.83 5.82a1.51 1.51 0 0 0 0 2.12 1.51 1.51 0 0 0 2.12 0l6.88-6.89a1.48 1.48 0 0 0 0-2.11l-6.88-6.89a1.51 1.51 0 0 0 -2.12.02z"/></symbol><symbol id="ruler" viewBox="0 0 24 24"><path d="m17.66 2.1-1.06 1.06 1.59 1.59a.75.75 0 0 1 0 1.06.74.74 0 0 1 -1.06 0l-1.59-1.59-1.42 1.42.89.88a.75.75 0 0 1 0 1.06.77.77 0 0 1 -1.07 0l-.88-.88-1.41 1.41 1.59 1.59a.75.75 0 0 1 0 1.06.74.74 0 0 1 -1.06 0l-1.59-1.59-1.42 1.42.89.88a.75.75 0 0 1 0 1.06.77.77 0 0 1 -1.07 0l-.88-.88-1.41 1.41 1.59 1.59a.75.75 0 0 1 0 1.06.74.74 0 0 1 -1.06 0l-1.59-1.59-1.42 1.42.89.88a.75.75 0 1 1 -1.06 1.06l-.89-.88-1.06 1.06a1 1 0 0 0 0 1.41l2.83 2.83a1 1 0 0 0 1.41 0l15.56-15.56a1 1 0 0 0 0-1.41l-2.83-2.83a1 1 0 0 0 -1.41 0z"/></symbol><symbol id="search" viewBox="0 0 24 24"><path d="M21.6,19.4l-4-4a1.6,1.6,0,0,0-1.5-.3l-.8-.9A7,7,0,0,0,17,9.5,7.6,7.6,0,0,0,9.5,2,7.6,7.6,0,0,0,2,9.5,7.6,7.6,0,0,0,9.5,17a7,7,0,0,0,4.7-1.7l.9.8a1.6,1.6,0,0,0,.3,1.5l4,4a1.7,1.7,0,0,0,2.2,0A1.8,1.8,0,0,0,21.6,19.4ZM9.5,14A4.5,4.5,0,1,1,14,9.5,4.5,4.5,0,0,1,9.5,14Z"/></symbol><symbol id="settings" viewBox="0 0 24 24"><path d="M19.43,13a7.79,7.79,0,0,0,.07-1,7.79,7.79,0,0,0-.07-1l2.11-1.65a.5.5,0,0,0,.12-.64l-2-3.46a.5.5,0,0,0-.61-.22l-2.49,1a7.31,7.31,0,0,0-1.69-1l-.38-2.65A.49.49,0,0,0,14,2H10a.49.49,0,0,0-.49.42L9.13,5.07a7.68,7.68,0,0,0-1.69,1L5,5.05a.49.49,0,0,0-.61.22l-2,3.46a.49.49,0,0,0,.12.64L4.57,11a7.93,7.93,0,0,0-.07,1,7.93,7.93,0,0,0,.07,1L2.46,14.63a.5.5,0,0,0-.12.64l2,3.46A.5.5,0,0,0,5,19l2.49-1a7.31,7.31,0,0,0,1.69,1l.38,2.65A.49.49,0,0,0,10,22h4a.49.49,0,0,0,.49-.42l.38-2.65a7.68,7.68,0,0,0,1.69-1l2.49,1a.49.49,0,0,0,.61-.22l2-3.46a.5.5,0,0,0-.12-.64ZM12,15.5A3.5,3.5,0,1,1,15.5,12,3.5,3.5,0,0,1,12,15.5Z"/></symbol><symbol id="share" viewBox="0 0 24 24"><path d="m17 16.08a2.91 2.91 0 0 0 -2 .77l-7.09-4.15a3.27 3.27 0 0 0 .09-.7 3.27 3.27 0 0 0 -.09-.7l7.09-4.11a3 3 0 1 0 -1-2.19 3.27 3.27 0 0 0 .09.7l-7.09 4.11a3 3 0 1 0 0 4.38l7.12 4.16a2.82 2.82 0 0 0 -.08.65 2.92 2.92 0 1 0 2.96-2.92z"/></symbol><symbol id="snap-to-grid" viewBox="0 0 24 24"><path d="M15,12.9l2.12-2.12L15.73,9.37a1,1,0,0,0-1.41,0l-.71.71a1,1,0,0,0,0,1.41Z"/><path d="M11.49,13.61a1,1,0,0,0-1.41,0l-.71.71a1,1,0,0,0,0,1.41l1.41,1.42L12.9,15Z"/><path d="M20.68,14.32l-2.83-2.83-2.12,2.12,2.83,2.83a1.5,1.5,0,0,1-2.12,2.12l-2.83-2.83-2.12,2.12,2.83,2.83a4.5,4.5,0,0,0,6.36-6.36Z"/><path d="M12,10V3a1,1,0,0,0-2,0V5H7V3A1,1,0,0,0,5,3V5H3A1,1,0,0,0,3,7H5v3H3a1,1,0,0,0,0,2h7A2,2,0,0,0,12,10ZM7,7h3v3H7Z"/></symbol><symbol id="sqrt" viewBox="0 0 24 24"><path d="m13 7h8v12h-8z" opacity=".6"/><path d="m23 3h-11.88l-3.91 15c-.09.41-.18.85-.27 1.26h-.09c-.11-.41-.22-.85-.37-1.26l-2.55-6.84-2.93 1.16.42.89 1.58-.63 3.28 8.42h1.39l4.51-17h10.82z"/></symbol><symbol id="star" viewBox="0 0 24 24"><path d="m12 17.27 5.17 3.12a.5.5 0 0 0 .75-.54l-1.37-5.85 4.56-4a.5.5 0 0 0 -.29-.88l-6-.51-2.36-5.52a.5.5 0 0 0 -.92 0l-2.35 5.54-6 .51a.5.5 0 0 0 -.29.86l4.56 4-1.37 5.85a.5.5 0 0 0 .75.54z"/></symbol><symbol id="supervisor" viewBox="0 0 24 24"><path d="M16.5,12A2.5,2.5,0,1,0,14,9.5,2.49,2.49,0,0,0,16.5,12ZM9,11A3,3,0,1,0,6,8,3,3,0,0,0,9,11Zm7.5,3c-1.83,0-5.5.92-5.5,2.75V18a1,1,0,0,0,1,1h9a1,1,0,0,0,1-1V16.75C22,14.92,18.33,14,16.5,14ZM9,13c-2.33,0-7,1.17-7,3.5V18a1,1,0,0,0,1,1H9V16.75a3.94,3.94,0,0,1,2.37-3.47A12.28,12.28,0,0,0,9,13Z"/></symbol><symbol id="teacher" viewBox="0 0 24 24"><path d="m22.42 5.92-9-3.68a4.26 4.26 0 0 0 -2.82 0l-9 3.68c-.77.32-.77.84 0 1.16l3.83 1.57 6.38-2.65a.5.5 0 1 1 .38.92l-5.44 2.27 3.84 1.57a4.26 4.26 0 0 0 2.82 0l9-3.68c.78-.32.78-.84.01-1.16z"/><path d="m6 18h1v-2.27a10.37 10.37 0 0 1 -1-.42z"/><path d="m6 19-2 2c0 .55 1.12 1 2.5 1s2.5-.45 2.5-1l-2-2z"/><path d="m4 9.15v3.85c0 .89.76 1.69 2 2.31v-5.31z"/><path d="m12.7 11.94h-.45l-.25.06h-.06c-.15 0-.29 0-.43 0a4.68 4.68 0 0 1 -1.3-.27l-3.21-1.36v5.36a15.45 15.45 0 0 0 5 .77c4.42 0 8-1.57 8-3.5v-3.85l-6.21 2.54a4.47 4.47 0 0 1 -1.09.25z"/></symbol><symbol id="tiles" viewBox="0 0 24 24"><path d="m4 8h4v-4h-4zm6 12h4v-4h-4zm-6 0h4v-4h-4zm0-6h4v-4h-4zm6 0h4v-4h-4zm6-10v4h4v-4zm-6 4h4v-4h-4zm6 6h4v-4h-4zm0 6h4v-4h-4z"/></symbol><symbol id="title-io" viewBox="0 0 120 36"><g fill="#fff"><path d="m23.9 23.9-.9-11-4.3 11.1h-1.5l-4.4-11-.8 11h-1.7l1.1-13.8h2.3l4.3 11.2 4.3-11.3h2.3l1.1 13.8z"/><path d="m34.2 23.9-.2-1.3a4.48 4.48 0 0 1 -3.4 1.5 2.49 2.49 0 0 1 -2.8-2.2v-.5c0-2.4 2-3.3 6-3.7v-.4c0-1.2-.7-1.6-1.8-1.6a7.64 7.64 0 0 0 -3.3.8l-.2-1.5a9.46 9.46 0 0 1 3.7-.8c2.3 0 3.4.9 3.4 3.1v6.7zm-.3-4.8c-3.5.3-4.3 1.3-4.3 2.3a1.32 1.32 0 0 0 1.4 1.2 4.1 4.1 0 0 0 2.8-1.3z"/><path d="m41.6 24.1c-1.7 0-2.8-.6-2.8-2.5v-5.7h-1.4v-1.5h1.4v-3.2l1.7-.3v3.4h2.1l.2 1.5h-2.2v5.4c0 .8.3 1.3 1.3 1.3h.8l.2 1.5z"/><path d="m51.1 23.9v-6.5c0-1-.4-1.6-1.5-1.6a3.93 3.93 0 0 0 -2.8 1.5v6.6h-1.7v-14.2l1.8-.3v6.2a4.82 4.82 0 0 1 3.2-1.5 2.49 2.49 0 0 1 2.8 2.1v7.7z"/><path d="m56.7 12.4a1.1 1.1 0 1 1 1.1-1.1 1.11 1.11 0 0 1 -1.1 1.1zm-.9 11.5v-9.5h1.8v9.5z"/><path d="m64.1 27.5a8.89 8.89 0 0 1 -3.6-.7l.3-1.7a6.65 6.65 0 0 0 3.4.9c1.7 0 2.4-.9 2.4-2.2v-1.2a3.93 3.93 0 0 1 -2.9 1.3c-2.1 0-3.8-1.5-3.8-4.6s1.9-5.1 4.7-5.1a11.48 11.48 0 0 1 3.7.6v8.9c.1 2.3-1.2 3.8-4.2 3.8zm2.5-11.4a6.28 6.28 0 0 0 -1.9-.3c-1.9 0-2.9 1.1-2.9 3.5s.9 3.1 2.2 3.1a3.47 3.47 0 0 0 2.6-1.6z"/><path d="m75 24.1c-2.5 0-4.4-1.8-4.4-5s1.8-5 4.4-5 4.4 1.8 4.4 5-1.8 5-4.4 5zm0-8.4c-1.7 0-2.6 1.5-2.6 3.5s.9 3.5 2.6 3.5 2.6-1.5 2.6-3.5-.9-3.5-2.6-3.5z"/><path d="m87.7 23.9v-6.5c0-1-.4-1.6-1.5-1.6a3.93 3.93 0 0 0 -2.8 1.5v6.6h-1.7v-9.5h1.4l.2 1.4a5.43 5.43 0 0 1 3.4-1.6 2.49 2.49 0 0 1 2.8 2.2v7.5z"/></g><g fill="#cd0e66"><path d="m92.3 23.92v-2.38h2v2.39z"/><path d="m98 12.44a1.14 1.14 0 0 1 -1.15-1.11 1.17 1.17 0 0 1 1.15-1.15 1.14 1.14 0 0 1 1.12 1.14 1.1 1.1 0 0 1 -1.12 1.12zm-.9 11.47v-9.54h1.78v9.54z"/><path d="m105.66 24.09c-2.54 0-4.38-1.81-4.39-4.95s1.83-5 4.37-5 4.45 1.83 4.45 5-1.87 4.94-4.43 4.95zm0-8.44c-1.73 0-2.58 1.48-2.58 3.48s.91 3.48 2.59 3.48 2.64-1.49 2.63-3.49-.93-3.48-2.65-3.47z"/></g></symbol><symbol id="title" viewBox="0 0 100 36"><g fill="#fff"><path d="m22.9 24.9-.9-11-4.3 11.1h-1.5l-4.4-11-.8 11h-1.7l1.1-13.8h2.3l4.3 11.2 4.3-11.3h2.3l1.1 13.8z"/><path d="m33.2 24.9-.2-1.3a4.48 4.48 0 0 1 -3.4 1.5 2.49 2.49 0 0 1 -2.8-2.2v-.5c0-2.4 2-3.3 6-3.7v-.4c0-1.2-.7-1.6-1.8-1.6a7.64 7.64 0 0 0 -3.3.8l-.2-1.5a9.46 9.46 0 0 1 3.7-.8c2.3 0 3.4.9 3.4 3.1v6.7zm-.3-4.8c-3.5.3-4.3 1.3-4.3 2.3a1.32 1.32 0 0 0 1.4 1.2 4.1 4.1 0 0 0 2.8-1.3z"/><path d="m40.6 25.1c-1.7 0-2.8-.6-2.8-2.5v-5.7h-1.4v-1.5h1.4v-3.2l1.7-.3v3.4h2.1l.2 1.5h-2.2v5.4c0 .8.3 1.3 1.3 1.3h.8l.2 1.5z"/><path d="m50.1 24.9v-6.5c0-1-.4-1.6-1.5-1.6a3.93 3.93 0 0 0 -2.8 1.5v6.6h-1.7v-14.2l1.8-.3v6.2a4.82 4.82 0 0 1 3.2-1.5 2.49 2.49 0 0 1 2.8 2.1v7.7z"/><path d="m55.7 13.4a1.1 1.1 0 1 1 1.1-1.1 1.11 1.11 0 0 1 -1.1 1.1zm-.9 11.5v-9.5h1.8v9.5z"/><path d="m63.1 28.5a8.89 8.89 0 0 1 -3.6-.7l.3-1.7a6.65 6.65 0 0 0 3.4.9c1.7 0 2.4-.9 2.4-2.2v-1.2a3.93 3.93 0 0 1 -2.9 1.3c-2.1 0-3.8-1.5-3.8-4.6s1.9-5.1 4.7-5.1a11.48 11.48 0 0 1 3.7.6v8.9c.1 2.3-1.2 3.8-4.2 3.8zm2.5-11.4a6.28 6.28 0 0 0 -1.9-.3c-1.9 0-2.9 1.1-2.9 3.5s.9 3.1 2.2 3.1a3.47 3.47 0 0 0 2.6-1.6z"/><path d="m74 25.1c-2.5 0-4.4-1.8-4.4-5s1.8-5 4.4-5 4.4 1.8 4.4 5-1.8 5-4.4 5zm0-8.4c-1.7 0-2.6 1.5-2.6 3.5s.9 3.5 2.6 3.5 2.6-1.5 2.6-3.5-.9-3.5-2.6-3.5z"/><path d="m86.7 24.9v-6.5c0-1-.4-1.6-1.5-1.6a3.93 3.93 0 0 0 -2.8 1.5v6.6h-1.7v-9.5h1.4l.2 1.4a5.43 5.43 0 0 1 3.4-1.6 2.49 2.49 0 0 1 2.8 2.2v7.5z"/></g></symbol><symbol id="trophy" viewBox="0 0 24 24"><path d="M16,11.91A6,6,0,0,0,21,6a2,2,0,0,0-2-2H17V3a1,1,0,0,0-1-1H8A1,1,0,0,0,7,3V4H5A2,2,0,0,0,3,6a6,6,0,0,0,5,5.91c.72,2,1.79,3.39,3,3.89V18H10a1,1,0,0,0-1,1v1H8a1,1,0,0,0,0,2h8a1,1,0,0,0,0-2H15V19a1,1,0,0,0-1-1H13V15.8C14.24,15.3,15.31,13.87,16,11.91ZM17,6h2a4,4,0,0,1-2.35,3.63A19,19,0,0,0,17,6ZM5,6H7a19,19,0,0,0,.35,3.63A4,4,0,0,1,5,6Zm7,3.4-1.29.78a.13.13,0,0,1-.19-.13l.35-1.47-1.14-1a.12.12,0,0,1,.07-.22l1.5-.13.59-1.38a.13.13,0,0,1,.23,0l.58,1.38,1.51.13a.13.13,0,0,1,.07.22l-1.14,1,.34,1.47a.12.12,0,0,1-.19.13Z"/></symbol><symbol id="tumblr" viewBox="0 0 24 24"><path d="m18.26 16.57-.08-.05h-2.73c-.13 0-.13-.39-.13-.52v-4.76a.08.08 0 0 1 .08-.09h3.18a.08.08 0 0 0 .09-.08v-4.81a.09.09 0 0 0 -.09-.08h-3.17a.09.09 0 0 1 -.08-.08v-4a.09.09 0 0 0 -.08-.1h-6a1 1 0 0 0 -.95.86 4.6 4.6 0 0 1 -3.52 4.14h-.22l-.06.08v4a.08.08 0 0 0 .08.08h2.42v5.13c0 3.88 2.53 5.71 7.51 5.71 2 0 4.2-.71 4.86-1.58l.13-.17zm.28 3.55a5.71 5.71 0 0 1 -3.35 1.07h-.14c-4 0-4.74-3.08-4.74-4.91v-5.86a.08.08 0 0 0 -.08-.09h-2.32a.07.07 0 0 1 -.08-.08v-2.55l.05-.08a5.15 5.15 0 0 0 3.54-4.62c0-.14.13-.14.13-.14h2.88a.09.09 0 0 1 .08.08v4a.09.09 0 0 0 .08.08h3.17a.09.09 0 0 1 .09.08v3.17a.09.09 0 0 1 -.09.09h-3.18a.07.07 0 0 0 -.08.08v5.56c0 1.2.6 1.8 1.72 1.8a4 4 0 0 0 1.4-.28.08.08 0 0 1 .11 0l.83 2.48z"/></symbol><symbol id="twitter" viewBox="0 0 24 24"><path d="m22 5.84a8.09 8.09 0 0 1 -2.36.63 4 4 0 0 0 1.81-2.27 8.23 8.23 0 0 1 -2.63 1 4.09 4.09 0 0 0 -7 3.73 11.68 11.68 0 0 1 -8.46-4.27 4.09 4.09 0 0 0 1.28 5.45 4 4 0 0 1 -1.82-.55 4.1 4.1 0 0 0 3.27 4.1 4.29 4.29 0 0 1 -1.82.09 4.08 4.08 0 0 0 3.82 2.81 8.21 8.21 0 0 1 -6.09 1.73 11.63 11.63 0 0 0 17.91-10.36 8.64 8.64 0 0 0 2.09-2.09z"/></symbol><symbol id="underlined" viewBox="0 0 24 24"><path d="M12.8,17A6.2,6.2,0,0,0,18,10.8V4.3A1.3,1.3,0,0,0,16.8,3a1.3,1.3,0,0,0-1.3,1.3v6.6a3.5,3.5,0,1,1-7,.1V4.3A1.3,1.3,0,0,0,7.2,3,1.3,1.3,0,0,0,6,4.3V11A6.1,6.1,0,0,0,12.8,17ZM5,20a1,1,0,0,0,1,1H18a1,1,0,0,0,0-2H6A1,1,0,0,0,5,20Z"/></symbol><symbol id="undo" viewBox="0 0 24 24"><path d="m12.5 8a10.46 10.46 0 0 0 -6.9 2.6l-1.89-1.89a1 1 0 0 0 -1.71.7v5.59a1 1 0 0 0 1 1h5.59a1 1 0 0 0 .71-1.71l-1.91-1.91a8 8 0 0 1 12.31 2.62 1.23 1.23 0 0 0 1.5.64 1.25 1.25 0 0 0 .8-1.72 10.54 10.54 0 0 0 -9.5-5.92z"/></symbol><symbol id="up" viewBox="0 0 24 24"><path d="m19.93 16.07a1.49 1.49 0 0 0 0-2.12l-6.88-6.88a1.49 1.49 0 0 0 -2.12 0l-6.88 6.93a1.51 1.51 0 0 0 0 2.12 1.51 1.51 0 0 0 2.12 0l5.83-5.88 5.82 5.83a1.51 1.51 0 0 0 2.11 0z"/></symbol><symbol id="user" viewBox="0 0 24 24"><path d="m12 12a5 5 0 1 0 -5-5 5 5 0 0 0 5 5zm0 2c-3.34 0-10 1.79-10 5.33v1.34a1.29 1.29 0 0 0 1.25 1.33h17.5a1.29 1.29 0 0 0 1.25-1.33v-1.34c0-3.54-6.66-5.33-10-5.33z"/></symbol><symbol id="youtube" viewBox="0 0 24 24"><path d="m18.35 4.65c-3-.2-9.7-.2-12.7 0-3.24.23-3.65 2.19-3.65 7.35s.4 7.12 3.65 7.35c3 .2 9.69.2 12.7 0 3.24-.23 3.65-2.19 3.65-7.35s-.4-7.12-3.65-7.35zm-8.85 10.68v-6.66l6.67 3.33z"/></symbol></svg>