<svg viewBox="0 0 100 100" xmlns="http://www.w3.org/2000/svg"><symbol overflow="visible" viewBox="0 0 32 32" id="audio"><title>audio</title><polygon points="6 12 6 20 10 20 17 25 17 7 10 12 6 12"/><path d="M22.6,8.6,21.2,9.9A8.4,8.4,0,0,1,24,16a8.4,8.4,0,0,1-2.7,6.1l1.4,1.3A10.1,10.1,0,0,0,26,16,10.1,10.1,0,0,0,22.6,8.6Z"/><path d="M20,11.1l-1.4,1.4a4.9,4.9,0,0,1,.1,6.9h-.1L20,20.9a6.6,6.6,0,0,0,0-9.8Z"/></symbol><symbol overflow="visible" viewBox="0 0 32 32" id="bookmark"><title>bookmark</title><path id="bookmark-bookmark-icon" d="M22,26l-6-5.4L10,26V6H22V26Z"/></symbol><symbol overflow="visible" viewBox="0 0 60 60" id="circle"><title>circle</title><circle cx="30" cy="30" r="30"/></symbol><symbol overflow="visible" viewBox="0 0 32 32" id="creditcard"><title>creditcard</title><path id="creditcard-credit-card-5-icon" d="M5,12V10.7A1.6,1.6,0,0,1,6.5,9H25.4A1.6,1.6,0,0,1,27,10.6h0V12Zm22,3v6.4A1.6,1.6,0,0,1,25.4,23H6.6A1.6,1.6,0,0,1,5,21.4H5V15ZM11,19H7v1h4Zm3-2H7v1h7Zm10,0H21v1h3Z"/></symbol><symbol overflow="visible" viewBox="0 0 32 32" id="email"><title>email</title><path d="M16,16.6,6,9H26Zm0,2L6,11V23H26V11Z"/></symbol><symbol overflow="visible" viewBox="0 0 32 32" id="facebook"><title>facebook</title><path d="M24.9,6H7.1A1.1,1.1,0,0,0,6,7.1V24.9A1.1,1.1,0,0,0,7.1,26h9.6V18.3H14.1v-3h2.6V13a3.6,3.6,0,0,1,3.2-4h3v2.7H21.3c-1.3,0-1.5.6-1.5,1.5v1.9h3l-.4,3H19.8V26h5.1A1.1,1.1,0,0,0,26,24.9h0V7.1A1.1,1.1,0,0,0,24.9,6Z"/></symbol><symbol overflow="visible" viewBox="0 0 24 24" id="form-check"><title>form-check</title><path d="M8.4,22a31,31,0,0,0-4.1-7.7L7,12.5c1.3,2.1,2.3,2.4,3.1,4.5h.1a30.3,30.3,0,0,1,8-13.3L21,6c-3.2,3-6.4,7.9-8.5,15.5Z" fill="#31b304"/></symbol><symbol overflow="visible" viewBox="0 0 24 24" id="form-warn"><title>form-warn</title><path d="M13.7,4.2,22.3,19a2,2,0,0,1-1.7,3H3.5a2,2,0,0,1-1.7-3L10.3,4.2A2,2,0,0,1,13.7,4.2Z" fill="#b30469"/><path d="M12,16.6a1.7,1.7,0,1,1-1.6,1.7A1.6,1.6,0,0,1,12,16.6Zm-1.3-5.2V9h2.8v2.4l-.4,4.4H11.1Z" fill="#fff"/></symbol><symbol overflow="visible" viewBox="0 0 32 32" id="forum"><title>forum</title><path d="M22.3,24.1c-4.2,1-7.3-1.6-7.3-4.3s2.6-4.6,5.5-4.6S26,17.1,26,19.8a4,4,0,0,1-.9,2.6,7.2,7.2,0,0,0,.9,2.9A13.1,13.1,0,0,1,22.3,24.1Zm-8.9-4.3c0-3.4,3.2-6.2,7.1-6.2l2.1.3c0-4-4-6.9-8.3-6.9S6,9.8,6,13.8a6.1,6.1,0,0,0,1.4,3.9A10.9,10.9,0,0,1,6,22.2a20,20,0,0,0,5.5-1.8l1.9.3A5.5,5.5,0,0,1,13.4,19.8Z"/></symbol><symbol overflow="visible" viewBox="0 0 60 60" id="fox"><title>fox</title><g style="isolation:isolate"><g id="fox-Layer_1" data-name="Layer 1"><path d="M57.6,39.3c-2.2-9.1-15.3-8.1-27.6-8.1s-25.4-1-27.6,8.1c-.7,2.7,3.9,1.4,12.2,7.8S25.8,57.6,30,57.6,36.3,54,45.4,47.1,58.3,41.9,57.6,39.3Z" fill="#efefef"/><path d="M58,39.3a30.4,30.4,0,0,0-3.3-8c-.7-1.2-.7-1.9-.2-3.5,3.4-13-1.2-24.9-3.7-25.7S42,8.8,37.2,15.5c-1,1.4-1.5,1.5-2.8,1.3a26.3,26.3,0,0,0-8.7,0c-1.3.2-1.8.1-2.8-1.3C18,8.8,11.5,1.4,9.3,2S2.2,14.7,5.6,27.7c.4,1.7.5,2.3-.2,3.5a30.4,30.4,0,0,0-3.3,8c-.7,2.7,6.5-1.5,15.2,4.4,6.7,4.6,8.6,12.4,12.8,12.4s6.1-7.8,12.8-12.4C51.5,37.8,58.6,41.9,58,39.3Z" fill="#eb6100"/><path d="M18.4,17.1c-2.3-4.2-6.7-10-8-9.6s-4,8.7-1.5,17.7c.4,1.6,3.4.8,8.8-3.3C19.7,20.5,19.6,19.3,18.4,17.1Z" fill="#231815" opacity="0.3" style="mix-blend-mode:multiply"/><path d="M41.6,17.1c2.3-4.2,6.7-10,8-9.6s4,8.7,1.5,17.7c-.4,1.6-3.4.8-8.8-3.3C40.3,20.5,40.4,19.3,41.6,17.1Z" fill="#231815" opacity="0.3" style="mix-blend-mode:multiply"/><path d="M24.4,39.5c.5-.3-.7-4.6-2.1-5.6s-4.7-.6-5.2.1,1.2,1.9,3.2,3S23.9,39.8,24.4,39.5Z" fill="#362e2b"/><circle cx="21.5" cy="35.5" r="0.5" fill="#fff"/><path d="M35.6,39.5c-.5-.3.7-4.6,2.1-5.6s4.7-.6,5.2.1-1.2,1.9-3.2,3S36.1,39.8,35.6,39.5Z" fill="#362e2b"/><circle cx="38.5" cy="35.5" r="0.5" fill="#fff"/><path d="M33.2,51.6a3.2,3.2,0,0,1-6.4,0c0-1.5,1.4-2.5,3.2-2.5S33.2,50.1,33.2,51.6Z" fill="#362e2b"/></g></g></symbol><symbol overflow="visible" viewBox="0 0 32 32" id="fullscreen"><title>fullscreen</title><path d="M19,7l2.3,2.3-2.9,2.9,1.4,1.4,2.9-2.9L25,13V7ZM7,13l2.3-2.3,2.9,2.9,1.4-1.4L10.7,9.3,13,7H7Zm6,12-2.3-2.3,2.9-2.9-1.4-1.4L9.3,21.3,7,19v6Zm12-6-2.3,2.3-2.9-2.9-1.4,1.4,2.9,2.9L19,25h6Z"/></symbol><symbol overflow="visible" viewBox="0 0 32 32" id="github"><title>github</title><path d="M16,5a11,11,0,0,0-3.5,21.4c.5.1.7-.2.7-.5v-2c-3.1.7-3.7-1.3-3.7-1.3A2.9,2.9,0,0,0,8.3,21c-1-.7.1-.7.1-.7a2.3,2.3,0,0,1,1.7,1.1,2.3,2.3,0,0,0,3.2.9,2.3,2.3,0,0,1,.7-1.5c-2.4-.3-5-1.2-5-5.4a4.3,4.3,0,0,1,1.1-3,4,4,0,0,1,.1-2.9s.9-.3,3,1.1a10.4,10.4,0,0,1,5.5,0c2.1-1.4,3-1.1,3-1.1a4,4,0,0,1,.1,2.9,4.2,4.2,0,0,1,1.1,3c0,4.2-2.6,5.2-5,5.4a2.6,2.6,0,0,1,.8,2v3c0,.3.2.6.7.5A11,11,0,0,0,16,5Z"/></symbol><symbol overflow="visible" viewBox="0 0 32 32" id="glossary"><title>glossary</title><path d="M24,6H10.4A2.5,2.5,0,0,0,8,8.5v15A2.5,2.5,0,0,0,10.4,26H24V8H21v8l-2-2-2,2V8H10.8c-1.1,0-1.1-1,0-1H24Z"/></symbol><symbol overflow="visible" viewBox="0 0 32 32" id="google"><title>google</title><path id="google-Shape" d="M16.2,14.6V18H22c-.2,1.5-1.7,4.3-5.8,4.3a6.3,6.3,0,0,1,0-12.6h0a5.8,5.8,0,0,1,4.1,1.5L23,8.6A9.9,9.9,0,0,0,16.2,6,10.1,10.1,0,0,0,6,16H6A10.1,10.1,0,0,0,16.2,26h0c5.9,0,9.8-4.1,9.8-9.8a9,9,0,0,0-.2-1.7Z"/></symbol><symbol overflow="visible" viewBox="0 0 60 60" id="hexagon"><title>hexagon</title><path d="M33-2.5,57,11.4a6,6,0,0,1,3,5.2V44.3a6,6,0,0,1-3,5.2L33,63.3a6,6,0,0,1-6,0L3,49.5a6,6,0,0,1-3-5.2V16.5a6,6,0,0,1,3-5.2L27-2.5A6,6,0,0,1,33-2.5Z"/></symbol><symbol overflow="visible" viewBox="0 0 32 32" id="instagram"><title>instagram</title><path d="M16,7h4.4c3,.1,4.4,1.6,4.5,4.5.1,1.2.1,1.5.1,4.4s0,3.3-.1,4.4c-.1,3-1.5,4.4-4.5,4.5H11.6c-3-.1-4.4-1.6-4.5-4.5C7,19.3,7,18.9,7,16s0-3.3.1-4.4c.1-3,1.5-4.4,4.5-4.5Zm0-2H11.5c-4,.2-6.2,2.4-6.4,6.4C5,12.6,5,13,5,16s0,3.4.1,4.5c.2,4,2.4,6.2,6.4,6.4h9.1c4-.2,6.2-2.4,6.4-6.4.1-1.2.1-1.5.1-4.5s0-3.4-.1-4.5c-.2-4-2.4-6.2-6.4-6.4Zm0,5.4A5.6,5.6,0,1,0,21.6,16,5.6,5.6,0,0,0,16,10.4Zm0,9.3A3.7,3.7,0,1,1,19.7,16,3.7,3.7,0,0,1,16,19.7ZM21.9,8.8a1.3,1.3,0,1,0,1.3,1.3A1.3,1.3,0,0,0,21.9,8.8Z"/></symbol><symbol overflow="visible" viewBox="0 0 32 32" id="left"><title>left</title><path d="M19.3,22.8,17,25,8,16l9-9,2.3,2.3L12.5,16Z"/></symbol><symbol overflow="visible" viewBox="0 0 36 36" id="level-0"><title>level-0</title><circle cx="18" cy="18" r="16" fill="#fff" opacity="0.5"/><path d="M13.2,11.1l-2-.3h0a.5.5,0,0,0-.6.4L9.2,19.1h0a.5.5,0,0,0,.4.6l2,.3h0a.5.5,0,0,0,.6-.4l1.4-7.9h0A.5.5,0,0,0,13.2,11.1Z" fill="#b30469"/><path d="M18,0A18,18,0,1,0,36,18,18,18,0,0,0,18,0ZM11.9,27.2h0a1,1,0,0,1-1.2.8l-3-.5h0a1,1,0,0,1-.8-1.2L10,8.6h0a1,1,0,0,1,1.2-.8l3,.5A1,1,0,0,1,15,9.4ZM22,27a1,1,0,0,1-1,1H17a1,1,0,0,1-1-1V26h6Zm0-3H16V10h6ZM22,8H16V7a1,1,0,0,1,1-1h4a1,1,0,0,1,1,1Zm7,19a1,1,0,0,1-1,1H24a1,1,0,0,1-1-1V26h6Zm0-2H23V24h6Zm0-2H23V15h6Zm0-9H23V13h6Zm0-2H23V11a1,1,0,0,1,1-1h4a1,1,0,0,1,1,1Z" fill="#b30469"/></symbol><symbol overflow="visible" viewBox="0 0 36 36" id="level-1"><title>level-1</title><circle cx="18" cy="18" r="16" fill="#fff" opacity="0.5"/><path d="M18,0A18,18,0,1,0,36,18,18,18,0,0,0,18,0Zm6.1,25.9L18,22.6l-6.1,3.2L13,19l-5-4.8,6.8-1L18,7l3.1,6.2,6.8,1L23,19Z" fill="#1f7aff"/></symbol><symbol overflow="visible" viewBox="0 0 36 36" id="level-2"><title>level-2</title><circle cx="18" cy="18" r="16" fill="#fff" opacity="0.5"/><path d="M18,0A18,18,0,1,0,36,18,18,18,0,0,0,18,0ZM8.2,18.8l.9-5.3L5.2,9.6l5.4-.8L13,4l2.4,4.9,5.4.8-3.9,3.8.9,5.3L13,16.2ZM28.8,29.9,24,27.3l-4.8,2.5.9-5.3-3.9-3.8,5.4-.8L24,15.1l2.4,4.9,5.4.8-3.9,3.8Z" fill="#31b304"/></symbol><symbol overflow="visible" viewBox="0 0 36 36" id="level-3"><title>level-3</title><circle cx="18" cy="18" r="16" fill="#fff" opacity="0.5"/><path d="M18,0A18,18,0,1,0,36,18,18,18,0,0,0,18,0ZM14.2,28.9,10,26.7,5.8,28.9l.8-4.7L3.2,20.9l4.7-.7L10,16l2.1,4.2,4.7.7-3.4,3.3Zm-.4-12,.8-4.7L11.2,8.9l4.7-.7L18,4l2.1,4.2,4.7.7-3.4,3.3.8,4.7L18,14.7Zm16.4,12L26,26.7l-4.2,2.2.8-4.7-3.4-3.3,4.7-.7L26,16l2.1,4.2,4.7.7-3.4,3.3Z" fill="#ff941f"/></symbol><symbol overflow="visible" viewBox="0 0 32 32" id="library"><title>library</title><path d="M12.2,7.3l-3-.5A1,1,0,0,0,8,7.6H8L4.9,25.3a1,1,0,0,0,.8,1.2h0l3,.5a1,1,0,0,0,1.2-.8h0L13,8.4A1,1,0,0,0,12.2,7.3Zm-2,11.3a.5.5,0,0,1-.6.4h0l-2-.3a.5.5,0,0,1-.4-.6h0l1.4-7.9a.5.5,0,0,1,.6-.4h0l2,.3a.5.5,0,0,1,.4.6h0Z"/><rect x="21" y="23" width="6" height="1"/><rect x="21" y="14" width="6" height="8"/><path d="M21,26a1,1,0,0,0,1,1h4a1,1,0,0,0,1-1V25H21Z"/><rect x="21" y="12" width="6" height="1"/><path d="M26,9H22a1,1,0,0,0-1,1v1h6V10A1,1,0,0,0,26,9Z"/><path d="M14,26a1,1,0,0,0,1,1h4a1,1,0,0,0,1-1V25H14Z"/><path d="M19,5H15a1,1,0,0,0-1,1V7h6V6A1,1,0,0,0,19,5Z"/><rect x="14" y="9" width="6" height="14"/></symbol><symbol overflow="visible" viewBox="0 0 32 32" id="lightbulb"><title>lightbulb</title><path d="M13,25l1.6,1.7a1.1,1.1,0,0,0,.8.3h1.2a1.1,1.1,0,0,0,.8-.3L19,25V23H13Z"/><path d="M14.2,14A15.6,15.6,0,0,1,16,20a15.6,15.6,0,0,1,1.8-6Z"/><path d="M16,6c-3.5,0-7,2.3-7,6.6s4,6.2,4,9.4h2.4c0-3.9-.8-5.3-2.4-9h6.1c-1.7,3.7-2.4,5-2.4,9H19c0-3.2,4-5.3,4-9.4A6.7,6.7,0,0,0,16,6Z"/></symbol><symbol overflow="visible" viewBox="0 0 32 32" id="lock"><title>lock</title><path d="M21,14V11a5,5,0,0,0-10,0v3H8V26H24V14Zm-4,6.7V23H15V20.7a2,2,0,1,1,2,0ZM19,14H13V11a2.8,2.8,0,0,1,2.6-3H16a2.8,2.8,0,0,1,3,3Z"/></symbol><symbol overflow="visible" viewBox="0 0 36 36" id="logo-christmas"><title>logo-christmas</title><rect x="14.2" y="27.2" width="7.6" height="7.55" fill="#b0246b"/><polygon points="33.9 26.1 26.2 18.3 18.6 10.7 18.6 26.1 33.9 26.1" fill="#30b012"/><polygon points="17.4 10.8 2.1 26 17.4 26 17.4 10.8" fill="#30b012"/><polygon points="9.6 9.9 2 17.5 9.1 17.5 16.7 9.9 9.6 9.9" fill="#30b012"/><polygon points="19.3 9.9 26.1 16.6 26.1 9.9 19.3 9.9" fill="#30b012"/><polygon points="34 17.5 27.2 10.6 27.2 17.5 34 17.5" fill="#30b012"/><polygon points="18 1.5 10.7 8.8 25.3 8.8 18 1.5" fill="#30b012"/></symbol><symbol overflow="visible" viewBox="0 0 36 36" id="logo-earth-day"><title>logo-earth-day</title><polygon points="17 19 5 31 17 31 17 19" fill="#d9e021"/><polygon points="16.5 17.5 4 5 4 30 16.5 17.5" fill="#8cc63f"/><polygon points="31 5 19 17 31 17 31 5" fill="#22b573"/><rect x="18" y="18" width="13" height="13" fill="#39b54a"/></symbol><symbol overflow="visible" viewBox="0 0 36 36" id="logo-halloween"><title>logo-halloween</title><path d="M11,27V14H21.5c-1.8-3.8-5.2-6.3-9-6.3C6.7,7.7,2,13.5,2,20.7s4.7,13,10.5,13c3.9,0,7.4-2.7,9.2-6.7Z" fill="#c74f0e"/><path d="M23.5,8c-3.7,0-7,2.4-8.8,6H26V27H14.2c1.7,4.2,5.3,7,9.3,7C29.3,34,34,28.2,34,21S29.3,8,23.5,8Z" fill="#f48725"/><path d="M20,6.9l.3-.5a2.1,2.1,0,0,1,1.8-.9V1.6a6,6,0,0,0-5,2.5A6.1,6.1,0,0,0,16,6.9a11.7,11.7,0,0,1,2,.6A7.6,7.6,0,0,1,20,6.9Z" fill="#964a0f"/><path d="M28.2,20.7c0-6.5-4-11.9-9.1-12.4H17c-4.8.7-8.6,6-8.6,12.3s2.6,9.7,6.2,11.5a5.9,5.9,0,0,0,3.6,1,6.2,6.2,0,0,0,3.6-.9C25.5,30.5,28.2,26,28.2,20.7Zm-16.4,5V14.8l5.5,5.5Zm5.7-4.2v5H12.6Zm6.6,4.9H18.6V20.9h5.5Zm.1-6.6H19.3l4.9-5Z" fill="#f16913"/></symbol><symbol overflow="visible" viewBox="0 0 36 36" id="logo"><title>logo</title><polygon points="16.9 31 16.9 19 16.9 18.9 4.8 31 16.9 31" fill="#ff941f"/><polygon points="4 4.9 4 4.9 4 17.5 4 30.2 16.7 17.5 4 4.9" fill="#b30469"/><polyline points="31 4.9 18.9 16.9 31 16.9" fill="#31b304"/><polyline points="31 18.1 18.1 18.1 18.1 31 31 31" fill="#1f7aff"/></symbol><symbol overflow="visible" viewBox="0 0 32 32" id="logout"><title>logout</title><path d="M13,14V10.7l7,5.8-7,5.8V19H6V14Zm1-7V9H24V23H14v2H26V7Z"/></symbol><symbol overflow="visible" viewBox="0 0 44 44" id="next"><title>next</title><path id="next-share-4-icon" d="M29,18V10.5l12,12-12,12V27S7,27.2,4,11C9.7,18.7,29,18,29,18Z"/></symbol><symbol overflow="visible" viewBox="0 0 32 32" id="paypal"><title>paypal</title><path d="M24.3,14.1a7.3,7.3,0,0,1-.1,1.4c-.7,3.7-3.1,5-6.2,5h-.5a.8.8,0,0,0-.8.7L16,25.4a.8.8,0,0,1-.8.7H13a.5.5,0,0,1-.5-.5h0L13.7,18h1.8c4.4,0,7.1-2.2,7.9-6.3A3.4,3.4,0,0,1,24.3,14.1ZM12.5,17.7c.1-.7.4-1,1.2-1h1.9c3.8,0,6-1.7,6.7-5.3S20.5,6,17.2,6H11.1a.9.9,0,0,0-.9.8C8.3,19.1,7.7,22.3,7.7,23.2a.5.5,0,0,0,.4.6h3.4Z"/></symbol><symbol overflow="visible" viewBox="0 0 60 60" id="pentagon"><title>pentagon</title><path d="M33.5-3.1,59.4,15.7a6,6,0,0,1,2.2,6.7L51.7,52.9A6,6,0,0,1,46,57H14a6,6,0,0,1-5.7-4.1L-1.6,22.4A6,6,0,0,1,.6,15.7L26.5-3.1A6,6,0,0,1,33.5-3.1Z"/></symbol><symbol overflow="visible" viewBox="0 0 32 32" id="pinterest"><title>pinterest</title><path d="M16,5a11,11,0,0,0-4,21.2,10.7,10.7,0,0,1,0-3.1l1.3-5.5A3.9,3.9,0,0,1,13,16c0-1.5.9-2.7,2-2.7a1.4,1.4,0,0,1,1.4,1.6,23.5,23.5,0,0,1-.9,3.6,1.6,1.6,0,0,0,1.6,2c1.9,0,3.4-2,3.4-5A4.3,4.3,0,0,0,16,11a4.8,4.8,0,0,0-5,4.8,4.9,4.9,0,0,0,.8,2.5.4.4,0,0,1,.1.3l-.3,1.2c-.1.3-.2.3-.4.2S9,17.3,9,15.7c0-3.4,2.5-6.6,7.2-6.6S23,11.8,23,15.4s-2.4,6.9-5.7,6.9A3,3,0,0,1,14.8,21l-.7,2.6a8.7,8.7,0,0,1-1.4,2.9A12.6,12.6,0,0,0,16,27,11,11,0,0,0,16,5Z"/></symbol><symbol overflow="visible" viewBox="0 0 32 32" id="play"><title>play</title><path d="M8,25V7l16,9Z"/></symbol><symbol overflow="visible" viewBox="0 0 32 32" id="progress"><title>progress</title><rect x="13" y="15" width="12" height="2"/><rect x="13" y="21" width="12" height="2"/><rect x="13" y="9" width="12" height="2"/><circle cx="8" cy="10" r="2"/><circle cx="8" cy="16" r="2"/><circle cx="8" cy="22" r="2"/></symbol><symbol overflow="visible" viewBox="0 0 32 32" id="reddit"><title>reddit</title><path d="M28,15.8a2.7,2.7,0,0,0-2.7-2.7,2.5,2.5,0,0,0-1.8.8,13.8,13.8,0,0,0-7-2.1L18,7.2l4,.9h0a2.2,2.2,0,0,0,4.4,0A2.2,2.2,0,0,0,24.2,6a2.2,2.2,0,0,0-2,1.4l-4.4-1c-.1-.1-.3,0-.4.2l-1.6,5.2a14.3,14.3,0,0,0-7.3,2,2.9,2.9,0,0,0-1.8-.7A2.7,2.7,0,0,0,4,15.8,2.5,2.5,0,0,0,5.3,18c0,.3-.1.6-.1.9C5.2,22.8,10,26,15.9,26s10.8-3.2,10.8-7.1c0-.3-.1-.5-.1-.8A2.6,2.6,0,0,0,28,15.8ZM10.8,17.6A1.6,1.6,0,0,1,12.4,16a1.6,1.6,0,0,1,0,3.2A1.6,1.6,0,0,1,10.8,17.6Zm9,4.7c-.8.8-2,1.1-3.8,1.1h0c-1.8,0-3-.3-3.8-1.1a.4.4,0,0,1,0-.6h.5c.6.7,1.7,1,3.3,1h0c1.6,0,2.7-.3,3.3-1h.5A.4.4,0,0,1,19.8,22.3Zm-.2-3.1a1.6,1.6,0,0,1,0-3.2,1.6,1.6,0,0,1,0,3.2Z"/></symbol><symbol overflow="visible" viewBox="0 0 32 32" id="refresh"><title>refresh</title><path d="M25,17a9,9,0,0,0-8.6-9V5.4L10.8,9.7,16.4,14V11.5a5.6,5.6,0,1,1-6,5.5H7a9,9,0,0,0,18,0Z"/></symbol><symbol overflow="visible" viewBox="0 0 32 32" id="right"><title>right</title><path d="M12.8,9.3,15,7l9,9-9,9-2.3-2.2L19.5,16Z"/></symbol><symbol overflow="visible" viewBox="0 0 32 32" id="search"><title>search</title><path id="search-magnifier-icon" d="M26,23.4l-5.3-5.3a7.8,7.8,0,0,0,1.2-4.2A7.9,7.9,0,1,0,18,20.7L23.4,26ZM9,13.9a5,5,0,1,1,5.1,4.9H14A5,5,0,0,1,9,13.9Z"/></symbol><symbol overflow="visible" viewBox="0 0 32 32" id="settings"><title>settings</title><path id="settings-gear-5-icon" d="M26,17.3V14.7l-2.4-.9a7.9,7.9,0,0,0-.7-1.6L24,9.9,22.1,8,19.8,9.1l-1.6-.7L17.3,6H14.7l-.9,2.4-1.6.7L9.9,8,8,9.9l1.1,2.3a7.9,7.9,0,0,0-.7,1.6L6,14.7v2.7l2.4.9a7.9,7.9,0,0,0,.7,1.6L8,22.1,9.9,24l2.3-1.1,1.6.7.9,2.4h2.7l.9-2.4,1.6-.7L22.1,24,24,22.1l-1.1-2.3a7.9,7.9,0,0,0,.7-1.6ZM16,19.7A3.7,3.7,0,1,1,19.7,16,3.7,3.7,0,0,1,16,19.7Z"/></symbol><symbol overflow="visible" viewBox="0 0 60 60" id="square"><title>square</title><rect x="4" y="4" width="52" height="52" rx="6" ry="6" transform="translate(30 72.4) rotate(-135)"/></symbol><symbol overflow="visible" viewBox="0 0 32 32" id="star"><title>star</title><path d="M16,5.9l3.1,6.3,6.9,1L20.9,18l1.2,6.9L16,21.6,9.8,24.9,11.1,18,6,13.2l6.9-1Z"/></symbol><symbol overflow="visible" viewBox="0 0 32 32" id="teacher"><title>teacher</title><path d="M10,25H9L7,27c0,.6,1.1,1,2.5,1s2.5-.4,2.5-1Z"/><path d="M9,19.4V24h1V19.8Z"/><path d="M9,13.7l-2-.7v5.1l2,1.3Z"/><path d="M16,16.1l-6-2v5.8A15.9,15.9,0,0,0,16,21a14.5,14.5,0,0,0,9-2.9V13.1Z"/><path d="M28.3,10.9v-.7h-.2L16,6,3.9,10H3.7v.7h.2l4.6,1.5L15.8,10a.5.5,0,0,1,.3.9L10,13l6,2,12.1-4Z"/></symbol><symbol overflow="visible" viewBox="0 0 32 32" id="textbook"><title>textbook</title><path d="M16,8.7C13.1,6.9,8.6,6.1,4,6V23.7a28.8,28.8,0,0,1,10.7,2,3.2,3.2,0,0,0,2.7,0,28.8,28.8,0,0,1,10.7-2V6C23.4,6.1,18.9,6.9,16,8.7ZM15,23.6a34.1,34.1,0,0,0-9-1.8V8.1c5.2.4,7.5,1.5,9,2.3Zm11-1.8a34,34,0,0,0-9,1.8V10.4a14.2,14.2,0,0,1,4-1.6V15l1.5-1.5L24,15V8.3l2-.2Z"/></symbol><symbol overflow="visible" viewBox="0 0 100 36" id="title"><title>title</title><path d="M22.9,24.9l-.9-11L17.7,25H16.2L11.8,14,11,25H9.3l1.1-13.8h2.3L17,22.4l4.3-11.3h2.3l1.1,13.8Z" fill="#fff"/><path d="M33.2,24.9,33,23.6a4.5,4.5,0,0,1-3.4,1.5,2.5,2.5,0,0,1-2.8-2.2v-.5c0-2.4,2-3.3,6-3.7v-.4c0-1.2-.7-1.6-1.8-1.6a7.6,7.6,0,0,0-3.3.8L27.5,16a9.5,9.5,0,0,1,3.7-.8c2.3,0,3.4.9,3.4,3.1V25Zm-.3-4.8c-3.5.3-4.3,1.3-4.3,2.3A1.3,1.3,0,0,0,30,23.6h0a4.1,4.1,0,0,0,2.8-1.3Z" fill="#fff"/><path d="M40.6,25.1c-1.7,0-2.8-.6-2.8-2.5V16.9H36.4V15.4h1.4V12.2l1.7-.3v3.4h2.1l.2,1.5H39.6v5.4c0,.8.3,1.3,1.3,1.3h.8l.2,1.5Z" fill="#fff"/><path d="M50.1,24.9V18.4c0-1-.4-1.6-1.5-1.6a3.9,3.9,0,0,0-2.8,1.5v6.6H44.1V10.7l1.8-.3v6.2a4.8,4.8,0,0,1,3.2-1.5,2.5,2.5,0,0,1,2.8,2.1v7.7Z" fill="#fff"/><path d="M55.7,13.4a1.1,1.1,0,1,1,1.1-1.1A1.1,1.1,0,0,1,55.7,13.4Zm-.9,11.5V15.4h1.8v9.5Z" fill="#fff"/><path d="M63.1,28.5a8.9,8.9,0,0,1-3.6-.7l.3-1.7a6.7,6.7,0,0,0,3.4.9c1.7,0,2.4-.9,2.4-2.2V23.6a3.9,3.9,0,0,1-2.9,1.3c-2.1,0-3.8-1.5-3.8-4.6s1.9-5.1,4.7-5.1a11.5,11.5,0,0,1,3.7.6v8.9C67.4,27,66.1,28.5,63.1,28.5Zm2.5-11.4a6.3,6.3,0,0,0-1.9-.3c-1.9,0-2.9,1.1-2.9,3.5s.9,3.1,2.2,3.1a3.5,3.5,0,0,0,2.6-1.6Z" fill="#fff"/><path d="M74,25.1c-2.5,0-4.4-1.8-4.4-5s1.8-5,4.4-5,4.4,1.8,4.4,5S76.6,25.1,74,25.1Zm0-8.4c-1.7,0-2.6,1.5-2.6,3.5s.9,3.5,2.6,3.5,2.6-1.5,2.6-3.5S75.7,16.7,74,16.7Z" fill="#fff"/><path d="M86.7,24.9V18.4c0-1-.4-1.6-1.5-1.6a3.9,3.9,0,0,0-2.8,1.5v6.6H80.7V15.4h1.4l.2,1.4a5.4,5.4,0,0,1,3.4-1.6,2.5,2.5,0,0,1,2.8,2.2v7.5Z" fill="#fff"/></symbol><symbol overflow="visible" viewBox="0 0 32 32" id="trophy"><title>trophy</title><path id="trophy-trophy-7-icon" d="M17.2,20.1c.6-2.7,4.6-4.8,4.6-13H10.2c0,8.2,4,10.3,4.6,13ZM13.7,11l1.6-.2L16,9.4l.7,1.4,1.6.2-1.2,1.1.3,1.6L16,13l-1.4.8.3-1.6Zm-3.3,3.2.8,1.6A8.9,8.9,0,0,1,6,8.3H9.1a4.1,4.1,0,0,0,.1,1.1H7.3a7.6,7.6,0,0,0,3.1,4.9Zm9.2,9.5v1.2H12.5V23.8a2.4,2.4,0,0,0,2.4-2.4v-.2h2.3a2.4,2.4,0,0,0,2.4,2.6ZM26,8.3a8.9,8.9,0,0,1-5.2,7.6l.8-1.6a7.6,7.6,0,0,0,3.1-4.8H22.8a5.6,5.6,0,0,0,.1-1.1Z"/></symbol><symbol overflow="visible" viewBox="0 0 32 32" id="tumblr"><title>tumbler</title><path d="M22.9,21H19.8c-.1,0-.1-.5-.2-.6V15.2h3.7V9.7H19.7V5.1H13a1,1,0,0,0-1,.9c-.3,2.6-1.7,3.8-3.9,4.6H7.7V15h2.8v5.6c0,4.3,2.8,6.3,8.3,6.3,2.2,0,4.6-.8,5.3-1.7v-.2Zm.3,3.9a5.8,5.8,0,0,1-3.7,1.2h-.1c-4.5,0-5.3-3.4-5.3-5.4V14.3H11.4V11.3h0a5.9,5.9,0,0,0,4-5.1c0-.2.1-.2.1-.2h3.3v4.4h3.6v3.5H18.8a.1.1,0,0,0-.1.1v6.1c.1,1.3.7,2,1.9,2a4.5,4.5,0,0,0,1.6-.3h.1l.9,2.7Z"/></symbol><symbol overflow="visible" viewBox="0 0 32 32" id="twitter"><title>twitter</title><path d="M27,9.2a9,9,0,0,1-2.6.7,4.5,4.5,0,0,0,2-2.5,9,9,0,0,1-2.9,1.1,4.5,4.5,0,0,0-7.7,4.1A12.8,12.8,0,0,1,6.5,7.9a4.5,4.5,0,0,0,1.4,6,4.5,4.5,0,0,1-2-.6,4.5,4.5,0,0,0,3.6,4.5,4.5,4.5,0,0,1-2,.1A4.5,4.5,0,0,0,11.7,21,9.1,9.1,0,0,1,5,22.9,12.8,12.8,0,0,0,24.7,11.5,9.2,9.2,0,0,0,27,9.2Z"/></symbol><symbol overflow="visible" viewBox="0 0 32 32" id="user"><title>user</title><path d="M21.8,11.8A5.8,5.8,0,1,1,16,6h0A5.8,5.8,0,0,1,21.8,11.8Zm-1.3,6a7.4,7.4,0,0,1-9,0C8.1,19.3,6,24,6,26H26C26,24,23.8,19.3,20.5,17.8Z"/></symbol><symbol overflow="visible" viewBox="0 0 32 32" id="youtube"><title>youtube</title><path d="M23.6,7.2C20,6.9,12,6.9,8.4,7.2S4,9.8,4,16s.5,8.5,4.4,8.8,11.6.2,15.2,0S28,22.2,28,16,27.5,7.5,23.6,7.2ZM13,20V12l8,4Z"/></symbol></svg>