<svg viewBox="0 0 100 100" xmlns="http://www.w3.org/2000/svg"><symbol overflow="visible" viewBox="0 0 24 24" id="account"><title>account</title><path d="M12,12A4,4,0,1,0,8,8,4,4,0,0,0,12,12Zm0,2c-2.7,0-8,1.3-8,4v1a1,1,0,0,0,1,1H19a1.1,1.1,0,0,0,1-1V18C20,15.3,14.7,14,12,14Z"/></symbol><symbol overflow="visible" viewBox="0 0 24 24" id="audio"><title>audio</title><path d="M10.3,5.7,7,9H4a1.1,1.1,0,0,0-1,1v4a1.1,1.1,0,0,0,1,1H7l3.3,3.3a1,1,0,0,0,1.7-.7V6.4A1,1,0,0,0,10.3,5.7Z"/><path d="M15.6,7.9a1,1,0,1,0-1.3,1.5,3.4,3.4,0,0,1,0,5.2,1,1,0,0,0-.1,1.4.9.9,0,0,0,.7.4.9.9,0,0,0,.7-.3,5.4,5.4,0,0,0,0-8.2Z"/><path d="M18,5.3a.9.9,0,0,0-1.4.1,1,1,0,0,0,0,1.4,6.8,6.8,0,0,1,0,10.4,1,1,0,0,0,0,1.4.8.8,0,0,0,.7.4,1.1,1.1,0,0,0,.7-.3A9,9,0,0,0,18,5.3Z"/></symbol><symbol overflow="visible" viewBox="0 0 24 24" id="bookmark"><title>bookmark</title><path d="M16,2H8A2,2,0,0,0,6,4V22l6-6,6,6V4A2,2,0,0,0,16,2Z"/></symbol><symbol overflow="visible" viewBox="0 0 32 32" id="boost"><title>boost</title><polygon points="3.9 28.1 13.9 18.1 3.9 18.1 3.9 28.1"/><polygon points="13.9 17.4 8.9 12.4 3.9 17.4 13.9 17.4"/><polygon points="19.6 13.4 12.3 20.8 19.6 28.1 19.6 13.4"/><rect x="12.2" y="11" width="5.2" height="5.19" transform="translate(-5.3 14.4) rotate(-45)"/><polygon points="20.3 12.8 20.3 20.1 23.9 16.4 23.9 9.1 20.3 12.8"/><polygon points="23.9 8.1 20.3 4.4 20.3 11.8 23.9 8.1"/><polygon points="24.4 7.6 28.1 3.9 20.8 3.9 24.4 7.6"/></symbol><symbol overflow="visible" viewBox="0 0 24 24" id="check-white"><title>check-white</title><path d="M2,12.1l1.7-1.6a33.3,33.3,0,0,1,5.5,3.3A49.6,49.6,0,0,1,21.4,3.4L22,4.6c-4.3,3.8-7.4,7.9-11.9,16A105.8,105.8,0,0,0,2,12.1Z" fill="#fff"/></symbol><symbol overflow="visible" viewBox="0 0 24 24" id="close"><title>close</title><path d="M18.3,5.7h0a1,1,0,0,0-1.4,0L12,10.6,7.1,5.7a1,1,0,0,0-1.4,0h0a1,1,0,0,0,0,1.4L10.6,12,5.7,16.9a1,1,0,0,0,0,1.4h0a1,1,0,0,0,1.4,0L12,13.4l4.9,4.9a1,1,0,0,0,1.4,0h0a1,1,0,0,0,0-1.4L13.4,12l4.9-4.9A1,1,0,0,0,18.3,5.7Z"/></symbol><symbol overflow="visible" viewBox="0 0 32 32" id="core"><title>core</title><polygon points="26.5 13.2 19.2 5.8 11.8 13.2 26.5 13.2"/><rect x="24.2" y="6.2" width="5.2" height="5.19" transform="translate(1.6 21.6) rotate(-45)"/><polygon points="27.2 13.2 30.8 16.8 30.8 9.5 27.2 13.2"/><polygon points="11.8 23.8 21.8 13.8 11.8 13.8 11.8 23.8"/><polygon points="3.8 21.2 11.2 21.2 11.2 13.8 3.8 21.2"/><polygon points="6.2 21.8 1.2 26.8 6.2 26.8 11.2 21.8 6.2 21.8"/><polygon points="13.2 23.2 9.5 26.8 16.8 26.8 13.2 23.2"/></symbol><symbol overflow="visible" viewBox="0 0 24 24" id="creditcard"><title>creditcard</title><path d="M20,4H4A2,2,0,0,0,2,6V18a2,2,0,0,0,2,2H20a2,2,0,0,0,2-2V6A2,2,0,0,0,20,4ZM19,18H5a1,1,0,0,1-1-1V12H20v5A1.1,1.1,0,0,1,19,18ZM20,8H4V6H20Z"/></symbol><symbol overflow="visible" viewBox="0 0 24 24" id="email"><title>email</title><path d="M20,4H4A2,2,0,0,0,2,6V18a2,2,0,0,0,2,2H20a2,2,0,0,0,2-2V6A2,2,0,0,0,20,4Zm-.4,4.2-7.1,4.5a.9.9,0,0,1-1,0L4.4,8.2A.8.8,0,0,1,4,7.5a.9.9,0,0,1,1.3-.7L12,11l6.7-4.2a.9.9,0,0,1,1.3.7A.7.7,0,0,1,19.6,8.2Z"/></symbol><symbol overflow="visible" viewBox="0 0 24 24" id="eye"><title>eye</title><path d="M12,4A11.8,11.8,0,0,0,1,11.5a11.8,11.8,0,0,0,22,0A11.8,11.8,0,0,0,12,4Zm0,12.5a5,5,0,1,1,5-5A5,5,0,0,1,12,16.5Zm0-8a3,3,0,1,0,3,3A2.9,2.9,0,0,0,12,8.5Z"/></symbol><symbol overflow="visible" viewBox="0 0 24 24" id="facebook"><title>facebook</title><path d="M20,3H4A.9.9,0,0,0,3,4V20a.9.9,0,0,0,1,1h8.6V14.1H10.3V11.4h2.3V9.3a3.3,3.3,0,0,1,2.9-3.6h2.7V8.1H16.8c-1.2,0-1.4.6-1.4,1.4v1.7h2.7l-.3,2.7H15.4V21H20a.9.9,0,0,0,1-1h0V4a.9.9,0,0,0-1-1Z"/></symbol><symbol overflow="visible" viewBox="0 0 24 24" id="feedback"><title>feedback</title><path d="M20,3H4A2,2,0,0,0,2,5V16a2,2,0,0,0,2,2H6v5l5-5h9a2,2,0,0,0,2-2V5A2,2,0,0,0,20,3ZM7,12A1.5,1.5,0,0,1,7,9a1.5,1.5,0,0,1,0,3Zm5,0a1.5,1.5,0,1,1,1.5-1.5A1.5,1.5,0,0,1,12,12Zm5,0a1.5,1.5,0,1,1,1.5-1.5A1.5,1.5,0,0,1,17,12Z"/></symbol><symbol overflow="visible" viewBox="0 0 32 32" id="fermat"><title>fermat</title><polygon points="30.3 20.7 23 13.3 15.7 20.7 30.3 20.7"/><polygon points="15 5.7 15 20.3 22.3 13 15 5.7"/><polygon points="6.7 21.3 11.7 26.3 16.7 21.3 6.7 21.3"/><polygon points="17.3 26.3 22.3 21.3 17.3 21.3 12.3 26.3 17.3 26.3"/><rect x="7.7" y="15.2" width="5" height="5" transform="translate(-9.1 24.3) rotate(-79)"/><polygon points="13.2 15 14.2 10.1 8.3 14.1 13.2 15"/><polygon points="6.6 19.5 7.5 14.6 1.7 18.6 6.6 19.5"/></symbol><symbol overflow="visible" viewBox="0 0 24 24" id="form-check"><title>form-check</title><path d="M2,12.1l1.7-1.6a33.3,33.3,0,0,1,5.5,3.3A49.6,49.6,0,0,1,21.4,3.4L22,4.6c-4.3,3.8-7.4,7.9-11.9,16A105.8,105.8,0,0,0,2,12.1Z" fill="#31b304"/></symbol><symbol overflow="visible" viewBox="0 0 24 24" id="form-dropdown"><title>form-dropdown</title><path d="M18,7l2,2-8,8L4,9,6,7l6,6Z" fill="#4d4d4d"/></symbol><symbol overflow="visible" viewBox="0 0 24 24" id="form-warn"><title>form-warn</title><path d="M13.7,4.2,22.3,19a2,2,0,0,1-1.8,3H3.5a2,2,0,0,1-1.8-3L10.3,4.2A2,2,0,0,1,13.7,4.2Z" fill="#b30469"/><path d="M12,16.6a1.6,1.6,0,0,1,1.6,1.7,1.6,1.6,0,1,1-3.2,0A1.6,1.6,0,0,1,12,16.6Zm-1.3-5.2V9h2.8v2.4l-.4,4.4H11.1Z" fill="#fff"/></symbol><symbol overflow="visible" viewBox="0 0 44 44" id="fox"><title>fox</title><path d="M41.7,28.8C40.1,22.2,30.8,23,22,23S3.9,22.2,2.3,28.8c-.5,1.9,2.7,1,8.7,5.6S19,42,22,42s4.5-2.6,11-7.6S42.2,30.7,41.7,28.8Z" fill="#e6e6e6"/><path d="M42,28.8A19.8,19.8,0,0,0,39.6,23c-.5-.9-.4-1.3-.1-2.5,2.4-9.3-.9-17.9-2.7-18.5s-6.2,4.9-9.7,9.7c-.7,1-1,1.1-2,.9L22,12.4l-3.1.2c-1,.2-1.3.1-2-.9C13.4,6.9,8.8,1.6,7.2,2S2.1,11.2,4.5,20.5c.3,1.2.4,1.6-.1,2.5A19.8,19.8,0,0,0,2,28.8c-.4,1.9,4.6-1.1,10.9,3.2,4.7,3.3,6.1,8.9,9.1,8.9s4.4-5.6,9.1-8.9C37.4,27.7,42.4,30.7,42,28.8Z" fill="#ff8d2b"/><path d="M13.7,12.9C12.1,9.8,8.9,5.7,8,6S5.2,12.2,6.9,18.7c.3,1.2,2.4.6,6.3-2.3C14.6,15.3,14.5,14.4,13.7,12.9Z" fill="#c25a00"/><path d="M30.3,12.9C31.9,9.8,35.1,5.7,36,6s2.8,6.2,1.1,12.7c-.3,1.2-2.4.6-6.3-2.3C29.4,15.3,29.5,14.4,30.3,12.9Z" fill="#c25a00"/><path d="M24.2,37.7a2.2,2.2,0,0,1-2.3,2.1,2.3,2.3,0,0,1-2.3-2.1,2.1,2.1,0,0,1,2.3-1.8C23.2,35.9,24.2,36.6,24.2,37.7Z" fill="#242436"/><ellipse cx="28" cy="26" rx="1.9" ry="2" fill="#242436"/><ellipse cx="15.9" cy="26" rx="1.9" ry="2" fill="#242436"/></symbol><symbol overflow="visible" viewBox="0 0 24 24" id="fullscreen"><title>fullscreen</title><path d="M15.9,3.8l1.4,1.5L15.1,7.5a1,1,0,0,0,0,1.4h0a1,1,0,0,0,1.4,0l2.2-2.2,1.5,1.4a.4.4,0,0,0,.8-.3V3.5a.5.5,0,0,0-.5-.5H16.2A.4.4,0,0,0,15.9,3.8ZM3.8,8.1,5.3,6.7,7.5,8.9a1,1,0,0,0,1.4,0h0a1,1,0,0,0,0-1.4L6.7,5.3,8.1,3.9A.5.5,0,0,0,7.8,3H3.5a.5.5,0,0,0-.5.5V7.8A.4.4,0,0,0,3.8,8.1Zm4.3,12L6.7,18.7l2.2-2.2a1,1,0,0,0,0-1.4h0a1,1,0,0,0-1.4,0L5.3,17.3,3.9,15.8a.6.6,0,0,0-.9.4v4.3a.5.5,0,0,0,.5.5H7.8A.5.5,0,0,0,8.1,20.1Zm12-4.2-1.4,1.4-2.2-2.2a1,1,0,0,0-1.4,0h0a1,1,0,0,0,0,1.4l2.2,2.2-1.4,1.4a.5.5,0,0,0,.3.9h4.3a.5.5,0,0,0,.5-.5V16.2A.5.5,0,0,0,20.1,15.9Z"/></symbol><symbol overflow="visible" viewBox="0 0 24 24" id="functions"><title>functions</title><path d="M19.4,7.4,14.6,2.6A2,2,0,0,0,13.2,2H6A2,2,0,0,0,4,4V20a2,2,0,0,0,2,2H18a2,2,0,0,0,2-2V8.8A2,2,0,0,0,19.4,7.4ZM9.7,19.8h-1V18.6h1Zm1.9.3c0,.8-.4,1.1-1.2,1.1h-.3l-.2-.8h.4a.4.4,0,0,0,.4-.4V15.9h.9Zm-.4-4.8a.6.6,0,0,1,0-1.2.6.6,0,0,1,0,1.2ZM14,19.8a3.1,3.1,0,0,1-1.5-.3v-.8a3.3,3.3,0,0,0,1.4.4c.4,0,.6-.1.6-.4s-.1-.4-.7-.5-1.4-.5-1.4-1.2a1.3,1.3,0,0,1,1.4-1.2,2.9,2.9,0,0,1,1.4.3v.8a3.3,3.3,0,0,0-1.3-.4.5.5,0,0,0-.5.4c0,.2.2.3.7.5s1.4.5,1.4,1.2S15,19.8,14,19.8ZM14,9a1.1,1.1,0,0,1-1-1V3.5L18.5,9Z"/></symbol><symbol overflow="visible" viewBox="0 0 24 24" id="github"><title>github</title><path d="M12,2A10,10,0,0,0,8.8,21.5c.5.1.7-.2.7-.5V19.1C6.7,19.8,6.1,18,6.1,18A2.4,2.4,0,0,0,5,16.5c-.9-.6.1-.6.1-.6a2.1,2.1,0,0,1,1.5,1,2.1,2.1,0,0,0,2.9.9,2.3,2.3,0,0,1,.7-1.4c-2.2-.2-4.6-1.1-4.6-4.9a4.1,4.1,0,0,1,1-2.7,4.1,4.1,0,0,1,.1-2.7s.9-.2,2.8,1.1A10.1,10.1,0,0,1,12,6.8a10.9,10.9,0,0,1,2.5.4c1.9-1.3,2.8-1.1,2.8-1.1a4.1,4.1,0,0,1,.1,2.7,4.1,4.1,0,0,1,1,2.7c0,3.8-2.4,4.7-4.6,4.9a2.3,2.3,0,0,1,.7,1.9V21c0,.3.2.6.7.5A10,10,0,0,0,12,2Z"/></symbol><symbol overflow="visible" viewBox="0 0 24 24" id="glossary"><title>glossary</title><path d="M19,4H18v8L15.5,9.5,13,12V4H5A.9.9,0,0,1,6,3H19.5a.5.5,0,0,0,.5-.5.5.5,0,0,0-.5-.5H6A2,2,0,0,0,4,4V20a2,2,0,0,0,2,2H19a.9.9,0,0,0,1-1V5A.9.9,0,0,0,19,4Z"/></symbol><symbol overflow="visible" viewBox="0 0 24 24" id="google"><title>google</title><path d="M21.1,12.2a5.8,5.8,0,0,0-.2-1.9H12v3.6h5.1a4.4,4.4,0,0,1-1.9,2.9v2.4h3.1a9.3,9.3,0,0,0,2.8-7Z" fill="#4285f4"/><path d="M12,21.5a9.3,9.3,0,0,0,6.3-2.3l-3.1-2.4a5.3,5.3,0,0,1-3.2.9,5.5,5.5,0,0,1-5.3-3.9H3.5v2.5A9.5,9.5,0,0,0,12,21.5Z" fill="#34a853"/><path d="M6.7,13.8a5.6,5.6,0,0,1,0-3.6V7.7H3.5a10.4,10.4,0,0,0-1,4.3,10.4,10.4,0,0,0,1,4.3l3.2-2.5Z" fill="#fbbc05"/><path d="M12,6.3a5.2,5.2,0,0,1,3.6,1.4L18.4,5A9,9,0,0,0,12,2.5,9.5,9.5,0,0,0,3.5,7.7l3.2,2.5A5.5,5.5,0,0,1,12,6.3Z" fill="#ea4335"/><path d="M2.5,2.5h19v19H2.5Z" fill="none"/></symbol><symbol overflow="visible" viewBox="0 0 24 24" id="gplus"><title>gplus</title><polygon points="23 11 23 13 20.9 13 20.9 15.1 19 15.1 19 13 16.8 13 16.8 11 19 11 19 8.9 20.9 8.9 20.9 11 23 11"/><path d="M14.6,10.7a5.7,5.7,0,0,1,.1,1.3,6.1,6.1,0,0,1-.1,1.4,6.9,6.9,0,0,1-6.7,5.5,7.1,7.1,0,0,1-6.1-3.6A7.3,7.3,0,0,1,1,12,6.9,6.9,0,0,1,7.9,5.1a7,7,0,0,1,4.4,1.6L10,8.5a3.7,3.7,0,0,0-2.1-.6A4.2,4.2,0,0,0,4,10.7,5.1,5.1,0,0,0,3.8,12,5.9,5.9,0,0,0,4,13.4a4.1,4.1,0,0,0,3.9,2.7,3.6,3.6,0,0,0,2-.6,3.7,3.7,0,0,0,1.8-2.1H8V10.7h6.6Z"/></symbol><symbol overflow="visible" viewBox="0 0 24 24" id="instagram"><title>instagram</title><path d="M12,4.2h3.8c2.6.1,3.8,1.3,3.9,3.9a31.6,31.6,0,0,1,.1,3.8,31.6,31.6,0,0,1-.1,3.8c-.1,2.6-1.3,3.8-3.9,3.9H8.2c-2.6-.1-3.8-1.3-3.9-3.9A31.6,31.6,0,0,1,4.2,12a31.6,31.6,0,0,1,.1-3.8c.1-2.6,1.3-3.8,3.9-3.9Zm0-1.7H8.1c-3.5.1-5.4,2-5.5,5.5A32.6,32.6,0,0,0,2.5,12a32.6,32.6,0,0,0,.1,3.9c.1,3.5,2,5.4,5.5,5.5h7.8c3.5-.1,5.4-2,5.5-5.5a32.6,32.6,0,0,0,.1-3.9,32.6,32.6,0,0,0-.1-3.9c-.1-3.5-2-5.4-5.5-5.5Zm0,4.6A4.9,4.9,0,1,0,16.9,12,4.9,4.9,0,0,0,12,7.1Zm0,8.1A3.3,3.3,0,0,1,8.8,12,3.3,3.3,0,0,1,12,8.8,3.3,3.3,0,0,1,15.2,12,3.3,3.3,0,0,1,12,15.2Zm5.1-9.4a1.1,1.1,0,0,0-1.2,1.1,1.2,1.2,0,0,0,1.2,1.2,1.1,1.1,0,0,0,1.1-1.2A1.1,1.1,0,0,0,17.1,5.8Z"/></symbol><symbol overflow="visible" viewBox="0 0 24 24" id="javascript"><title>javascript</title><path d="M6.8,3H20V2H6.4A2.6,2.6,0,0,0,4,4.5v15A2.6,2.6,0,0,0,6.4,22H20V4H18V9L16.5,7.5,15,9V4H6.8C5.7,4,5.7,3,6.8,3ZM16,17.9c-1.2-.5-1.8-.9-1.8-1.9a1.9,1.9,0,0,1,2.1-1.9,3.3,3.3,0,0,1,1.9.5L18,15.9a2.9,2.9,0,0,0-1.6-.5c-.5,0-.7.1-.7.4s.1.5.9.8,1.9,1,1.9,2-1,1.9-2.2,1.9a4.8,4.8,0,0,1-2.2-.5l.2-1.3a4.1,4.1,0,0,0,2,.6c.4,0,.8-.2.8-.6S16.9,18.2,16,17.9Zm-5.1,1.3c.5,0,.8-.2.8-.9V14.2h1.6v4.3c0,1.5-.9,2-2.1,2h-.9l-.2-1.3Z"/></symbol><symbol overflow="visible" viewBox="0 0 24 24" id="left"><title>left</title><path d="M16.1,4.1h0a1.4,1.4,0,0,0-2.1,0L7.1,11a1.4,1.4,0,0,0,0,2.1L14,19.9a1.4,1.4,0,0,0,2.1,0h0a1.4,1.4,0,0,0,0-2.1L10.2,12l5.9-5.8A1.5,1.5,0,0,0,16.1,4.1Z"/></symbol><symbol overflow="visible" viewBox="0 0 36 36" id="level-0"><title>level-0</title><circle cx="18" cy="18" r="16" fill="#fff" opacity="0.5"/><path d="M13.2,11.1l-2-.3h0a.4.4,0,0,0-.6.4L9.2,19.1h0a.4.4,0,0,0,.4.6l2,.3h0a.4.4,0,0,0,.6-.4l1.4-7.9h0A.4.4,0,0,0,13.2,11.1Z" fill="#b30469"/><path d="M18,0A18,18,0,1,0,36,18,18.1,18.1,0,0,0,18,0ZM11.9,27.2h0a1,1,0,0,1-1.2.8l-3-.5h0a1,1,0,0,1-.8-1.2L10,8.6h0a1,1,0,0,1,1.2-.8l3,.5A1,1,0,0,1,15,9.4ZM22,27a.9.9,0,0,1-1,1H17a.9.9,0,0,1-1-1V26h6Zm0-3H16V10h6ZM22,8H16V7a.9.9,0,0,1,1-1h4a.9.9,0,0,1,1,1Zm7,19a.9.9,0,0,1-1,1H24a.9.9,0,0,1-1-1V26h6Zm0-2H23V24h6Zm0-2H23V15h6Zm0-9H23V13h6Zm0-2H23V11a.9.9,0,0,1,1-1h4a.9.9,0,0,1,1,1Z" fill="#b30469"/></symbol><symbol overflow="visible" viewBox="0 0 36 36" id="level-1"><title>level-1</title><circle cx="18" cy="18" r="16" fill="#fff" opacity="0.5"/><path d="M18,0A18,18,0,1,0,36,18,18.1,18.1,0,0,0,18,0Zm6.1,25.9L18,22.6l-6.1,3.3L13,19,8.1,14.2l6.8-1L18,7l3.1,6.2,6.8,1L23,19Z" fill="#1f7aff"/></symbol><symbol overflow="visible" viewBox="0 0 36 36" id="level-2"><title>level-2</title><circle cx="18" cy="18" r="16" fill="#fff" opacity="0.5"/><path d="M18,0A18,18,0,1,0,36,18,18.1,18.1,0,0,0,18,0ZM8.2,18.8l.9-5.4L5.2,9.6l5.4-.7L13,4l2.4,4.9,5.3.7-3.9,3.8,1,5.4L13,16.2ZM28.8,29.9,24,27.3l-4.8,2.6,1-5.4-3.9-3.8,5.3-.8L24,15.1l2.4,4.8,5.4.8-3.9,3.8Z" fill="#31b304"/></symbol><symbol overflow="visible" viewBox="0 0 36 36" id="level-3"><title>level-3</title><circle cx="18" cy="18" r="16" fill="#fff" opacity="0.5"/><path d="M18,0A18,18,0,1,0,36,18,18.1,18.1,0,0,0,18,0ZM14.2,28.9,10,26.7,5.8,28.9l.8-4.7L3.2,20.9l4.7-.7L10,16l2.1,4.2,4.7.7-3.4,3.3Zm-.4-12,.8-4.7L11.2,8.9l4.7-.7L18,4l2.1,4.2,4.7.7-3.4,3.3.8,4.7L18,14.7Zm16.4,12L26,26.7l-4.2,2.2.8-4.7-3.4-3.3,4.7-.7L26,16l2.1,4.2,4.7.7-3.4,3.3Z" fill="#ff941f"/></symbol><symbol overflow="visible" viewBox="0 0 28 28" id="library"><title>library</title><path d="M10.2,5.3l-3-.5A1,1,0,0,0,6,5.6H6L2.9,23.3a1,1,0,0,0,.8,1.2h0l3,.5a1,1,0,0,0,1.2-.8h0L11,6.4A1,1,0,0,0,10.2,5.3Zm-2,11.3a.4.4,0,0,1-.6.4h0l-2-.3a.4.4,0,0,1-.4-.6h0L6.6,8.2a.4.4,0,0,1,.6-.4h0l2,.3a.4.4,0,0,1,.4.6h0Z"/><rect x="19" y="21" width="6" height="1"/><rect x="19" y="12" width="6" height="8"/><path d="M19,24a.9.9,0,0,0,1,1h4a.9.9,0,0,0,1-1V23H19Z"/><rect x="19" y="10" width="6" height="1"/><path d="M24,7H20a.9.9,0,0,0-1,1V9h6V8A.9.9,0,0,0,24,7Z"/><path d="M12,24a.9.9,0,0,0,1,1h4a.9.9,0,0,0,1-1V23H12Z"/><path d="M17,3H13a.9.9,0,0,0-1,1V5h6V4A.9.9,0,0,0,17,3Z"/><rect x="12" y="7" width="6" height="14"/></symbol><symbol overflow="visible" viewBox="0 0 24 24" id="lightbulb"><title>lightbulb</title><path d="M9,19h6a0,0,0,0,1,0,0v2a2,2,0,0,1-2,2H11a2,2,0,0,1-2-2V19A0,0,0,0,1,9,19Z"/><path d="M12,2A7,7,0,0,0,5,9c0,2.8,4,6,4,9h2.5A17.2,17.2,0,0,0,8.8,9.8a.4.4,0,0,1,0-.5A.5.5,0,0,1,9.2,9h5.6a.5.5,0,0,1,.4.3.4.4,0,0,1,0,.5A17.2,17.2,0,0,0,12.5,18H15c0-3,4-6.2,4-9A7,7,0,0,0,12,2Z"/><path d="M10.1,10A22.8,22.8,0,0,1,12,14.6,22.8,22.8,0,0,1,13.9,10Z"/></symbol><symbol overflow="visible" viewBox="0 0 24 24" id="lock"><title>lock</title><path d="M18,8H17V6A5,5,0,0,0,7,6V8H6a2,2,0,0,0-2,2V20a2,2,0,0,0,2,2H18a2,2,0,0,0,2-2V10A2,2,0,0,0,18,8Zm-5,7.7V18H11V15.7A1.9,1.9,0,0,1,10,14a2,2,0,0,1,4,0A1.9,1.9,0,0,1,13,15.7ZM15,8H9V6a3,3,0,0,1,6,0Z"/></symbol><symbol overflow="visible" viewBox="0 0 36 36" id="logo"><title>logo</title><polygon points="17 31 17 19 17 19 5 31 17 31" fill="#ff941f"/><polygon points="4 4.5 4 4.5 4 17.5 4 30.5 17 17.5 4 4.5" fill="#b30469"/><polyline points="31 5 19 17 31 17" fill="#31b304"/><polyline points="31 18 18 18 18 31 31 31" fill="#1f7aff"/></symbol><symbol overflow="visible" viewBox="0 0 24 24" id="logout"><title>logout</title><path d="M10.8,16.3h0a1,1,0,0,0,1.4,0l3.6-3.6a1,1,0,0,0,0-1.4L12.2,7.7a1,1,0,0,0-1.4,0h0a1,1,0,0,0,0,1.4L12.7,11H4a1,1,0,0,0-1,1H3a1,1,0,0,0,1,1h8.7l-1.9,1.9A1,1,0,0,0,10.8,16.3ZM19,3H5A2,2,0,0,0,3,5V8A1,1,0,0,0,4,9H4A.9.9,0,0,0,5,8V6A.9.9,0,0,1,6,5H18a1,1,0,0,1,1,1V18a1.1,1.1,0,0,1-1,1H6a1,1,0,0,1-1-1V16a.9.9,0,0,0-1-1H4a1,1,0,0,0-1,1v3a2,2,0,0,0,2,2H19a2,2,0,0,0,2-2V5A2,2,0,0,0,19,3Z"/></symbol><symbol overflow="visible" viewBox="0 0 24 24" id="markdown"><title>markdown</title><path d="M15.3,17.9c0,.7.3,1.1.8,1.1a1,1,0,0,0,.8-.5V16.8l-.7-.2C15.7,16.6,15.3,17,15.3,17.9Z"/><path d="M19.4,7.4,14.6,2.6A2,2,0,0,0,13.2,2H6A2,2,0,0,0,4,4V20a2,2,0,0,0,2,2H18a2,2,0,0,0,2-2V8.8A2,2,0,0,0,19.4,7.4ZM7.1,19.8h-1V18.6h1Zm6.5,0h-1V17.2c0-.3-.1-.5-.4-.5a1.8,1.8,0,0,0-.9.4v2.7h-1V17.2c0-.3-.1-.5-.4-.5a1.8,1.8,0,0,0-.9.4v2.7H8V15.9h.9v.5a2.2,2.2,0,0,1,1.3-.6,1,1,0,0,1,1,.6,2.2,2.2,0,0,1,1.3-.6A1.1,1.1,0,0,1,13.6,17Zm4.3,0h-.8v-.6a1.4,1.4,0,0,1-1.2.6c-.8,0-1.4-.6-1.4-1.9s.7-2,1.6-2h.9V14.1h1ZM14,9a1.1,1.1,0,0,1-1-1V3.5L18.5,9Z"/></symbol><symbol overflow="visible" viewBox="0 0 24 24" id="others"><title>others</title><path d="M12,14.6A1.4,1.4,0,1,0,13.4,16,1.4,1.4,0,0,0,12,14.6Z"/><path d="M19.4,7.4,14.6,2.6A2,2,0,0,0,13.2,2H6A2,2,0,0,0,4,4V20a2,2,0,0,0,2,2H18a2,2,0,0,0,2-2V8.8A2,2,0,0,0,19.4,7.4ZM15,16v.4l.8.7c.1,0,.1.1.1.2l-.8,1.4h-.3l-1-.4-.7.4v1a.2.2,0,0,1-.2.2H11.2a.2.2,0,0,1-.2-.2v-1l-.7-.4-1,.4H8.9l-.8-1.4c0-.1,0-.2.1-.2l.8-.7v-.8l-.8-.7c-.1,0-.1-.1-.1-.2l.8-1.4h.3l1,.4.7-.4v-1l.2-.2h1.6l.2.2v1l.7.4,1-.4h.3l.8,1.4c0,.1,0,.2-.1.2l-.8.7ZM14,9a1.1,1.1,0,0,1-1-1V3.5L18.5,9Z"/></symbol><symbol overflow="visible" viewBox="0 0 24 24" id="paypal"><title>paypal</title><path d="M19.8,10.7a5.6,5.6,0,0,1,0,1.3c-.7,3.5-3,4.7-5.9,4.7h-.5a.7.7,0,0,0-.7.7L12,21.3a.8.8,0,0,1-.8.7h-2a.5.5,0,0,1-.5-.5h0l1.1-7.1h1.7c4.2,0,6.7-2,7.5-5.9A2.7,2.7,0,0,1,19.8,10.7ZM8.7,14.1c.1-.7.4-1,1.1-1h1.8c3.6,0,5.7-1.6,6.4-5S16.3,3,13.1,3H7.4a.9.9,0,0,0-.9.8C4.7,15.4,4.2,18.4,4.2,19.3a.4.4,0,0,0,.3.5H7.8Z"/></symbol><symbol overflow="visible" viewBox="0 0 32 32" id="person-1"><title>person-1</title><polygon points="3.5 7.9 13.5 17.9 13.5 7.9 3.5 7.9"/><polygon points="14.2 17.9 24.2 7.9 14.2 7.9 14.2 17.9"/><polygon points="16.8 21.2 11.8 26.2 11.8 21.2 16.8 16.2 16.8 21.2"/><polygon points="17.5 16.2 17.5 23.6 24.8 23.6 17.5 16.2"/><polygon points="28.5 20.9 23.5 20.9 28.5 25.9 28.5 20.9"/><polygon points="13.8 30.2 13.8 25.2 8.8 30.2 13.8 30.2"/><rect x="11" y="2" width="5" height="5" transform="translate(-0.3 1.2) rotate(-5)"/></symbol><symbol overflow="visible" viewBox="0 0 32 32" id="person-2"><title>person-2</title><polygon points="19.2 15.5 11.8 8.2 4.5 15.5 19.2 15.5"/><polygon points="21.5 2.2 14.2 9.5 21.5 16.8 21.5 2.2"/><rect x="10.2" y="2.5" width="5" height="5"/><polygon points="11.8 23.5 19.2 23.5 19.2 16.2 11.8 23.5"/><polygon points="19.8 21.2 24.8 26.2 24.8 21.2 19.8 16.2 19.8 21.2"/><polygon points="9.2 24.2 9.2 29.2 14.2 24.2 9.2 24.2"/><polygon points="22.5 29.8 27.5 29.8 22.5 24.8 22.5 29.8"/></symbol><symbol overflow="visible" viewBox="0 0 32 32" id="person-3"><title>person-3</title><polygon points="17 6.7 21.4 16.1 30.8 11.7 17 6.7"/><polygon points="22.5 20 18.1 10.6 8.7 15 22.5 20"/><polygon points="18.2 23 25.1 25.6 22.9 20.9 16 18.3 18.2 23"/><polygon points="5.6 14.6 8.6 21 15 18 5.6 14.6"/><polygon points="5.9 10.1 1.2 12.2 8.1 14.8 5.9 10.1"/><polygon points="24.8 30.1 29.5 27.9 22.6 25.4 24.8 30.1"/><rect x="22.2" y="2.9" width="5" height="5" transform="translate(4.7 20.9) rotate(-50)"/></symbol><symbol overflow="visible" viewBox="0 0 24 24" id="pinterest"><title>pinterest</title><path d="M12,2A10,10,0,0,0,2,12a9.9,9.9,0,0,0,6.4,9.3,9.4,9.4,0,0,1,0-2.9c.2-.7,1.2-4.9,1.2-4.9A3.6,3.6,0,0,1,9.3,12c0-1.4.8-2.4,1.8-2.4s1.2.6,1.2,1.4a19.3,19.3,0,0,1-.8,3.3A1.5,1.5,0,0,0,13,16.1c1.8,0,3.1-1.9,3.1-4.6a3.9,3.9,0,0,0-4.1-4,4.3,4.3,0,0,0-4.6,4.3,4,4,0,0,0,.8,2.3.4.4,0,0,1,.1.3L8,15.5c-.1.2-.2.2-.4.1s-2-2.4-2-3.8c0-3.2,2.3-6.1,6.6-6.1a5.9,5.9,0,0,1,6.2,5.8c0,3.4-2.2,6.2-5.2,6.2a2.7,2.7,0,0,1-2.3-1.1l-.6,2.3A11.3,11.3,0,0,1,9,21.6a15.4,15.4,0,0,0,3,.4A10,10,0,0,0,12,2Z"/></symbol><symbol overflow="visible" viewBox="0 0 24 24" id="play"><title>play</title><path d="M7.5,6.2V17.8a1.1,1.1,0,0,0,1.7,1l9.2-5.9a1.1,1.1,0,0,0,0-1.9L9.2,5.2A1.1,1.1,0,0,0,7.5,6.2Z"/></symbol><symbol overflow="visible" viewBox="0 0 24 24" id="progress"><title>progress</title><g style="isolation:isolate"><circle cx="4.5" cy="12" r="2" style="mix-blend-mode:multiply"/><circle cx="4.5" cy="6" r="2" style="mix-blend-mode:multiply"/><circle cx="4.5" cy="18" r="2" style="mix-blend-mode:multiply"/><path d="M9.5,19h11a1.1,1.1,0,0,0,1-1h0a1.1,1.1,0,0,0-1-1H9.5a1,1,0,0,0-1,1h0A1,1,0,0,0,9.5,19Z" style="mix-blend-mode:multiply"/><path d="M9.5,13h11a1,1,0,0,0,1-1h0a1,1,0,0,0-1-1H9.5a.9.9,0,0,0-1,1h0A.9.9,0,0,0,9.5,13Z" style="mix-blend-mode:multiply"/><path d="M8.5,6h0a.9.9,0,0,0,1,1h11a1,1,0,0,0,1-1h0a1,1,0,0,0-1-1H9.5A.9.9,0,0,0,8.5,6Z" style="mix-blend-mode:multiply"/></g></symbol><symbol overflow="visible" viewBox="0 0 24 24" id="reddit"><title>reddit</title><path d="M22,11.8a2.2,2.2,0,0,0-2.2-2.2,2,2,0,0,0-1.5.6,12,12,0,0,0-5.9-1.7l1.3-3.9,3.3.8h0a1.8,1.8,0,1,0,1.8-1.8,1.8,1.8,0,0,0-1.7,1.1L13.5,4c-.1-.1-.3,0-.3.2L11.8,8.5a11.5,11.5,0,0,0-6.1,1.7,2,2,0,0,0-1.5-.6A2.2,2.2,0,0,0,2,11.8a2.1,2.1,0,0,0,1.1,1.9c0,.2-.1.5-.1.7,0,3.3,4,5.9,9,5.9s8.9-2.6,8.9-5.9a2,2,0,0,0-.1-.7A2,2,0,0,0,22,11.8ZM7.6,13.3A1.3,1.3,0,0,1,9,12a1.3,1.3,0,0,1,1.3,1.3A1.3,1.3,0,0,1,9,14.6,1.3,1.3,0,0,1,7.6,13.3Zm7.6,3.9a4.2,4.2,0,0,1-3.2,1h0a4.2,4.2,0,0,1-3.2-1,.3.3,0,0,1,.4-.4,4.3,4.3,0,0,0,2.8.8h0a4.3,4.3,0,0,0,2.8-.8.3.3,0,0,1,.4.4ZM15,14.6a1.3,1.3,0,0,1-1.3-1.3A1.3,1.3,0,0,1,15,12a1.3,1.3,0,0,1,1.4,1.3A1.3,1.3,0,0,1,15,14.6Z"/></symbol><symbol overflow="visible" viewBox="0 0 24 24" id="reset"><title>reset</title><g style="isolation:isolate"><path d="M19,3H16.5l-.7-.7a1.1,1.1,0,0,0-.7-.3H8.9a1.1,1.1,0,0,0-.7.3L7.5,3H5A1.1,1.1,0,0,0,4,4,1.1,1.1,0,0,0,5,5H19a1.1,1.1,0,0,0,1-1A1.1,1.1,0,0,0,19,3Z" style="mix-blend-mode:multiply"/><path d="M17,6H7A2,2,0,0,0,5,8V20a2,2,0,0,0,2,2H17a2,2,0,0,0,2-2V8A2,2,0,0,0,17,6ZM12,19a4.8,4.8,0,0,1-4.1-2.2.7.7,0,0,1,.2-1,.6.6,0,0,1,1,.2A3.6,3.6,0,0,0,12,17.5a3.5,3.5,0,0,0,0-7,3.4,3.4,0,0,0-3.1,1.9L10.5,14H7a.5.5,0,0,1-.5-.5V10l1.3,1.3A5,5,0,0,1,12,9a5,5,0,0,1,0,10Z" style="mix-blend-mode:multiply"/></g></symbol><symbol overflow="visible" viewBox="0 0 24 24" id="right"><title>right</title><path d="M7.9,4.1h0a1.4,1.4,0,0,0,0,2.1L13.8,12,7.9,17.8a1.5,1.5,0,0,0,0,2.1h0a1.4,1.4,0,0,0,2.1,0l6.9-6.8a1.6,1.6,0,0,0,0-2.2L10,4.1A1.4,1.4,0,0,0,7.9,4.1Z"/></symbol><symbol overflow="visible" viewBox="0 0 24 24" id="search"><title>search</title><path d="M15.5,14h-.8l-.3-.3a6.6,6.6,0,0,0,1.5-5.3A6.7,6.7,0,0,0,10.3,3,6.6,6.6,0,0,0,3,10.3a6.7,6.7,0,0,0,5.4,5.6,6.6,6.6,0,0,0,5.3-1.5l.3.3v.8l4.2,4.3a1.1,1.1,0,0,0,1.5,0h0a1.1,1.1,0,0,0,0-1.5Zm-6,0A4.5,4.5,0,1,1,14,9.5,4.5,4.5,0,0,1,9.5,14Z"/></symbol><symbol overflow="visible" viewBox="0 0 24 24" id="settings"><title>settings</title><path d="M19.4,13a3.4,3.4,0,0,0,.1-1,3.4,3.4,0,0,0-.1-1l2.1-1.6a.6.6,0,0,0,.2-.7l-2-3.4c-.2-.2-.4-.3-.6-.2l-2.5,1a7.5,7.5,0,0,0-1.7-1l-.4-2.7c0-.2-.3-.4-.5-.4H10c-.2,0-.5.2-.5.4L9.1,5.1a7.5,7.5,0,0,0-1.7,1l-2.5-1c-.2-.1-.4,0-.6.2l-2,3.4a.7.7,0,0,0,.2.7L4.6,11a3.4,3.4,0,0,0-.1,1,3.4,3.4,0,0,0,.1,1L2.5,14.6a.6.6,0,0,0-.2.7l2,3.4a.6.6,0,0,0,.7.2l2.4-1a7.5,7.5,0,0,0,1.7,1l.4,2.7c0,.2.3.4.5.4h4c.2,0,.5-.2.5-.4l.4-2.7a14,14,0,0,0,1.7-.9L19,19c.3,0,.5,0,.7-.3l2-3.4a.7.7,0,0,0-.2-.7ZM12,15.5A3.5,3.5,0,1,1,15.5,12,3.5,3.5,0,0,1,12,15.5Z"/></symbol><symbol overflow="visible" viewBox="0 0 24 24" id="share"><title>share</title><path d="M17,16.1a3,3,0,0,0-2,.8L7.9,12.7A1.7,1.7,0,0,0,8,12a1.7,1.7,0,0,0-.1-.7L15,7.2A2.8,2.8,0,0,0,17,8a2.9,2.9,0,0,0,3-3,3,3,0,0,0-6,0,1.7,1.7,0,0,0,.1.7L7,9.8A2.8,2.8,0,0,0,5,9a3,3,0,0,0,0,6,2.8,2.8,0,0,0,2-.8l7.2,4.1a2,2,0,0,0-.1.7A2.9,2.9,0,1,0,17,16.1Z"/></symbol><symbol overflow="visible" viewBox="0 0 24 24" id="star"><title>star</title><path d="M12,17.3l5.2,3.1a.5.5,0,0,0,.7-.6L16.5,14l4.6-4a.5.5,0,0,0-.3-.9l-6-.5L12.5,3.1a.6.6,0,0,0-1,0L9.2,8.6l-6,.5a.5.5,0,0,0-.3.9l4.6,4L6.1,19.9a.5.5,0,0,0,.7.5Z"/></symbol><symbol overflow="visible" viewBox="0 0 28 28" id="teacher"><title>teacher</title><path d="M8,23H7L5,25c0,.6,1.1,1,2.5,1s2.5-.4,2.5-1Z"/><path d="M7,17.4V22H8V17.8Z"/><path d="M7,11.7l-2-.6v5a13.7,13.7,0,0,0,2,1.3Z"/><path d="M14,14.1l-6-2v5.8A16.4,16.4,0,0,0,14,19a14.3,14.3,0,0,0,9-2.9v-5Z"/><path d="M26.3,8.9c0-.1.1-.1.1-.2V8.3c0-.1-.1-.1-.1-.2h-.2L14,4,1.9,8H1.7c0,.1-.1.1-.1.2v.4c0,.1.1.1.1.2h.2l4.6,1.5L13.8,8a.6.6,0,0,1,.7.3.6.6,0,0,1-.3.7L8,11l6,2L26.1,9Z"/></symbol><symbol overflow="visible" viewBox="0 0 120 36" id="title-io"><title>title-io</title><path d="M23.9,23.9l-.9-11L18.7,24H17.2L12.8,13,12,24H10.3l1.1-13.8h2.3L18,21.4l4.3-11.3h2.3l1.1,13.8Z" fill="#fff"/><path d="M34.2,23.9,34,22.6a4.5,4.5,0,0,1-3.4,1.5,2.5,2.5,0,0,1-2.8-2.2v-.5c0-2.4,2-3.3,6-3.7v-.4c0-1.2-.7-1.6-1.8-1.6a7.6,7.6,0,0,0-3.3.8L28.5,15a9.5,9.5,0,0,1,3.7-.8c2.3,0,3.4.9,3.4,3.1V24Zm-.3-4.8c-3.5.3-4.3,1.3-4.3,2.3A1.3,1.3,0,0,0,31,22.6h0a4.1,4.1,0,0,0,2.8-1.3Z" fill="#fff"/><path d="M41.6,24.1c-1.7,0-2.8-.6-2.8-2.5V15.9H37.4V14.4h1.4V11.2l1.7-.3v3.4h2.1l.2,1.5H40.6v5.4c0,.8.3,1.3,1.3,1.3h.8l.2,1.5Z" fill="#fff"/><path d="M51.1,23.9V17.4c0-1-.4-1.6-1.5-1.6a3.9,3.9,0,0,0-2.8,1.5v6.6H45.1V9.7l1.8-.3v6.2a4.8,4.8,0,0,1,3.2-1.5,2.5,2.5,0,0,1,2.8,2.1v7.7Z" fill="#fff"/><path d="M56.7,12.4a1.1,1.1,0,1,1,1.1-1.1A1.1,1.1,0,0,1,56.7,12.4Zm-.9,11.5V14.4h1.8v9.5Z" fill="#fff"/><path d="M64.1,27.5a8.9,8.9,0,0,1-3.6-.7l.3-1.7a6.7,6.7,0,0,0,3.4.9c1.7,0,2.4-.9,2.4-2.2V22.6a3.9,3.9,0,0,1-2.9,1.3c-2.1,0-3.8-1.5-3.8-4.6s1.9-5.1,4.7-5.1a11.5,11.5,0,0,1,3.7.6v8.9C68.4,26,67.1,27.5,64.1,27.5Zm2.5-11.4a6.3,6.3,0,0,0-1.9-.3c-1.9,0-2.9,1.1-2.9,3.5s.9,3.1,2.2,3.1a3.5,3.5,0,0,0,2.6-1.6Z" fill="#fff"/><path d="M75,24.1c-2.5,0-4.4-1.8-4.4-5s1.8-5,4.4-5,4.4,1.8,4.4,5S77.6,24.1,75,24.1Zm0-8.4c-1.7,0-2.6,1.5-2.6,3.5s.9,3.5,2.6,3.5,2.6-1.5,2.6-3.5S76.7,15.7,75,15.7Z" fill="#fff"/><path d="M87.7,23.9V17.4c0-1-.4-1.6-1.5-1.6a3.9,3.9,0,0,0-2.8,1.5v6.6H81.7V14.4h1.4l.2,1.4a5.4,5.4,0,0,1,3.4-1.6,2.5,2.5,0,0,1,2.8,2.2v7.5Z" fill="#fff"/><path d="M92.3,23.9V21.5h2v2.4Z" fill="#b30469"/><path d="M98,12.4a1.2,1.2,0,0,1-1.2-1.1A1.2,1.2,0,0,1,98,10.2a1.1,1.1,0,0,1,0,2.2Zm-.9,11.5V14.4h1.8v9.5Z" fill="#b30469"/><path d="M105.7,24.1c-2.6,0-4.4-1.8-4.4-5s1.8-4.9,4.3-5,4.5,1.9,4.5,5S108.2,24.1,105.7,24.1Zm-.1-8.5c-1.7.1-2.5,1.5-2.5,3.5s.9,3.5,2.6,3.5,2.6-1.5,2.6-3.5S107.4,15.6,105.6,15.6Z" fill="#b30469"/></symbol><symbol overflow="visible" viewBox="0 0 100 36" id="title"><title>title</title><path d="M22.9,24.9l-.9-11L17.7,25H16.2L11.8,14,11,25H9.3l1.1-13.8h2.3L17,22.4l4.3-11.3h2.3l1.1,13.8Z" fill="#fff"/><path d="M33.2,24.9,33,23.6a4.5,4.5,0,0,1-3.4,1.5,2.5,2.5,0,0,1-2.8-2.2v-.5c0-2.4,2-3.3,6-3.7v-.4c0-1.2-.7-1.6-1.8-1.6a7.6,7.6,0,0,0-3.3.8L27.5,16a9.5,9.5,0,0,1,3.7-.8c2.3,0,3.4.9,3.4,3.1V25Zm-.3-4.8c-3.5.3-4.3,1.3-4.3,2.3A1.3,1.3,0,0,0,30,23.6h0a4.1,4.1,0,0,0,2.8-1.3Z" fill="#fff"/><path d="M40.6,25.1c-1.7,0-2.8-.6-2.8-2.5V16.9H36.4V15.4h1.4V12.2l1.7-.3v3.4h2.1l.2,1.5H39.6v5.4c0,.8.3,1.3,1.3,1.3h.8l.2,1.5Z" fill="#fff"/><path d="M50.1,24.9V18.4c0-1-.4-1.6-1.5-1.6a3.9,3.9,0,0,0-2.8,1.5v6.6H44.1V10.7l1.8-.3v6.2a4.8,4.8,0,0,1,3.2-1.5,2.5,2.5,0,0,1,2.8,2.1v7.7Z" fill="#fff"/><path d="M55.7,13.4a1.1,1.1,0,1,1,1.1-1.1A1.1,1.1,0,0,1,55.7,13.4Zm-.9,11.5V15.4h1.8v9.5Z" fill="#fff"/><path d="M63.1,28.5a8.9,8.9,0,0,1-3.6-.7l.3-1.7a6.7,6.7,0,0,0,3.4.9c1.7,0,2.4-.9,2.4-2.2V23.6a3.9,3.9,0,0,1-2.9,1.3c-2.1,0-3.8-1.5-3.8-4.6s1.9-5.1,4.7-5.1a11.5,11.5,0,0,1,3.7.6v8.9C67.4,27,66.1,28.5,63.1,28.5Zm2.5-11.4a6.3,6.3,0,0,0-1.9-.3c-1.9,0-2.9,1.1-2.9,3.5s.9,3.1,2.2,3.1a3.5,3.5,0,0,0,2.6-1.6Z" fill="#fff"/><path d="M74,25.1c-2.5,0-4.4-1.8-4.4-5s1.8-5,4.4-5,4.4,1.8,4.4,5S76.6,25.1,74,25.1Zm0-8.4c-1.7,0-2.6,1.5-2.6,3.5s.9,3.5,2.6,3.5,2.6-1.5,2.6-3.5S75.7,16.7,74,16.7Z" fill="#fff"/><path d="M86.7,24.9V18.4c0-1-.4-1.6-1.5-1.6a3.9,3.9,0,0,0-2.8,1.5v6.6H80.7V15.4h1.4l.2,1.4a5.4,5.4,0,0,1,3.4-1.6,2.5,2.5,0,0,1,2.8,2.2v7.5Z" fill="#fff"/></symbol><symbol overflow="visible" viewBox="0 0 24 24" id="tumblr"><title>tumbler</title><path d="M18.3,16.6H15.5c-.2,0-.2-.4-.2-.5V11.2h3.4V6.3H15.3v-4c0-.1,0-.1-.1-.1H9.3a1,1,0,0,0-1,.9C8.1,5.2,6.8,6.3,4.8,7H4.5v4H7v5.1C7,20.2,9.5,22,14.5,22c2,0,4.2-.7,4.9-1.6h.1Zm.2,3.5a5.4,5.4,0,0,1-3.3,1.1H15c-4,0-4.7-3.1-4.7-4.9V10.4H7.9a.1.1,0,0,1-.1-.1V7.7h.1A5.1,5.1,0,0,0,11.4,3a.2.2,0,0,1,.2-.2h2.8a.1.1,0,0,1,.1.1v4h3.3v3.2H14.5V16c0,1.2.6,1.8,1.7,1.8a3.2,3.2,0,0,0,1.4-.3c.1,0,.1,0,.1.1l.9,2.4Z"/></symbol><symbol overflow="visible" viewBox="0 0 24 24" id="twitter"><title>twitter</title><path d="M22,5.8a6.7,6.7,0,0,1-2.4.7,4.3,4.3,0,0,0,1.9-2.3,9.9,9.9,0,0,1-2.7,1A4.1,4.1,0,0,0,13,4.9a4.3,4.3,0,0,0-1.2,4A11.3,11.3,0,0,1,3.4,4.7a4,4,0,0,0,1.2,5.4,4.1,4.1,0,0,1-1.8-.5,4.3,4.3,0,0,0,3.3,4.1,3.7,3.7,0,0,1-1.8,0,4.1,4.1,0,0,0,3.8,2.9A8.8,8.8,0,0,1,2,18.3a11.6,11.6,0,0,0,16.1-3.5,12.1,12.1,0,0,0,1.8-6.9A7,7,0,0,0,22,5.8Z"/></symbol><symbol overflow="visible" viewBox="0 0 28 28" id="user"><title>user</title><circle cx="14" cy="9" r="5"/><path d="M14,16c-3.7,0-11,2-11,6v1.5A1.5,1.5,0,0,0,4.4,25H23.6A1.5,1.5,0,0,0,25,23.5V22C25,18,17.7,16,14,16Z"/></symbol><symbol overflow="visible" viewBox="0 0 24 24" id="youtube"><title>youtube</title><path d="M18.3,4.7a88.3,88.3,0,0,0-12.6,0C2.4,4.9,2,6.8,2,12s.4,7.1,3.7,7.3a88.3,88.3,0,0,0,12.6,0c3.3-.2,3.7-2.1,3.7-7.3S21.6,4.9,18.3,4.7ZM9.5,15.3V8.7L16.2,12Z"/></symbol></svg>