<svg viewBox="0 0 100 100" xmlns="http://www.w3.org/2000/svg"><symbol overflow="visible" viewBox="0 0 24 24" id="account"><path d="m12 12a4 4 0 1 0 -4-4 4 4 0 0 0 4 4zm0 2c-2.7 0-8 1.3-8 4v1a1 1 0 0 0 1 1h14a1.1 1.1 0 0 0 1-1v-1c0-2.7-5.3-4-8-4z"/></symbol><symbol overflow="visible" viewBox="0 0 24 24" id="activities"><path d="m20.78 11h-8.56a1.22 1.22 0 0 0 -1.22 1.22v8.56a1.22 1.22 0 0 0 1.22 1.22h8.56a1.22 1.22 0 0 0 1.22-1.22v-8.56a1.22 1.22 0 0 0 -1.22-1.22zm-7 9.17a.92.92 0 1 1 .92-.92.92.92 0 0 1 -.95.92zm0-5.5a.92.92 0 1 1 .92-.92.92.92 0 0 1 -.95.92zm2.75 2.75a.92.92 0 1 1 .92-.92.92.92 0 0 1 -.95.92zm2.75 2.75a.92.92 0 1 1 .92-.92.92.92 0 0 1 -.95.92zm0-5.5a.92.92 0 1 1 .92-.92.92.92 0 0 1 -.95.92z"/><path d="m21.57 4.39-2.63-.95a2.6 2.6 0 0 1 .06.56v6h1.78a2.22 2.22 0 0 1 .82.16l1.17-3.16a2 2 0 0 0 -1.2-2.61z"/><path d="m16.17 10h1.83v-6a2 2 0 0 0 -2-2h-2.8a4 4 0 0 1 .25.51z"/><path d="m15.11 10-2.6-7.15a2 2 0 0 0 -2.57-1.19l-7.51 2.73a2 2 0 0 0 -1.2 2.61l4.45 12.17a2 2 0 0 0 2.56 1.2l1.76-.64v-7.51a2.23 2.23 0 0 1 2.22-2.22z"/></symbol><symbol overflow="visible" viewBox="0 0 24 24" id="audio"><path d="m10.29 5.7-3.29 3.3h-3a1 1 0 0 0 -1 1v4a1 1 0 0 0 1 1h3l3.29 3.29a1 1 0 0 0 1.71-.71v-11.17a1 1 0 0 0 -1.71-.71z"/><path d="m15.61 7.87a1 1 0 0 0 -1.32 1.51 3.44 3.44 0 0 1 0 5.24 1 1 0 0 0 -.09 1.38 1 1 0 0 0 .75.34 1 1 0 0 0 .66-.24 5.46 5.46 0 0 0 0-8.26z"/><path d="m18 5.28a1 1 0 1 0 -1.33 1.49 7 7 0 0 1 0 10.46 1 1 0 0 0 -.08 1.41 1 1 0 0 0 1.41.08 9 9 0 0 0 0-13.44z"/></symbol><symbol overflow="visible" viewBox="0 0 24 24" id="bitcoin"><path d="M11.22,21V18.73h-.78V21H8.89V18.73H5l.39-2.23h.84a1.17,1.17,0,0,0,1.08-1.28V8.55A1,1,0,0,0,6.27,7.5H5V5.25H8.89V3h1.55V5.25h.78V3h1.56V5.29c3.35.11,4.68,1.34,5.06,2.72a2.81,2.81,0,0,1-1.62,3.34,3.25,3.25,0,0,1,2.78,3c0,2.61-2.09,4.36-6.22,4.36V21Zm-.78-8.25V16.5c3.09,0,5.21-.28,5.21-1.89S13.36,12.75,10.44,12.75Zm0-1.5c1.72,0,4.34-.12,4.34-1.87,0-1.5-1.61-1.88-4.34-1.88Z"/></symbol><symbol overflow="visible" viewBox="0 0 24 24" id="book"><path d="M21,4a11.8,11.8,0,0,0-3.5-.5A9.3,9.3,0,0,0,12,5,9.3,9.3,0,0,0,6.5,3.5,11.8,11.8,0,0,0,3,4,6.82,6.82,0,0,0,1,5V19.6a.54.54,0,0,0,.5.5.45.45,0,0,0,.25-.05A10.18,10.18,0,0,1,6.5,19,12,12,0,0,1,12,20.5,12,12,0,0,1,17.5,19a10.18,10.18,0,0,1,4.75,1.05.45.45,0,0,0,.25.05.54.54,0,0,0,.5-.5V5A6.82,6.82,0,0,0,21,4Zm0,13.5a11.62,11.62,0,0,0-3.5-.5A12,12,0,0,0,12,18.5,12,12,0,0,0,6.5,17a11.62,11.62,0,0,0-3.5.5V6a11.62,11.62,0,0,1,3.5-.5A12,12,0,0,1,12,7a12,12,0,0,1,5.5-1.5A11.62,11.62,0,0,1,21,6Z"/><path d="M13,8.83v1.66a9.28,9.28,0,0,1,4.5-1,11.69,11.69,0,0,1,2.5.26V8.24A13.5,13.5,0,0,0,17.5,8,11.51,11.51,0,0,0,13,8.83Z"/><path d="M13,11.49v1.66a9.28,9.28,0,0,1,4.5-1,11.69,11.69,0,0,1,2.5.26V10.9a13.5,13.5,0,0,0-2.5-.24A11.69,11.69,0,0,0,13,11.49Z"/><path d="M13,14.16v1.66a9.28,9.28,0,0,1,4.5-1,11.69,11.69,0,0,1,2.5.26V13.57a12.7,12.7,0,0,0-2.5-.24A11.51,11.51,0,0,0,13,14.16Z"/><path d="M4,8.24V9.76A11.69,11.69,0,0,1,6.5,9.5a9.28,9.28,0,0,1,4.5,1V8.83A11.51,11.51,0,0,0,6.5,8,13.5,13.5,0,0,0,4,8.24Z"/><path d="M4,10.9v1.52a11.69,11.69,0,0,1,2.5-.26,9.28,9.28,0,0,1,4.5,1V11.49a11.69,11.69,0,0,0-4.5-.83A13.5,13.5,0,0,0,4,10.9Z"/><path d="M4,13.57v1.52a11.69,11.69,0,0,1,2.5-.26,9.28,9.28,0,0,1,4.5,1V14.16a11.51,11.51,0,0,0-4.5-.83A12.7,12.7,0,0,0,4,13.57Z"/></symbol><symbol overflow="visible" viewBox="0 0 24 24" id="bookmark"><path d="m16 2h-8a2 2 0 0 0 -2 2v18l6-6 6 6v-18a2 2 0 0 0 -2-2z"/></symbol><symbol overflow="visible" viewBox="0 0 24 24" id="brackets"><path d="m8 6h8v12h-8z" opacity=".6"/><path d="m3 12a18.29 18.29 0 0 1 2.91-10l1.09.53a18.28 18.28 0 0 0 -2.5 9.47 18.28 18.28 0 0 0 2.5 9.47l-1.09.53a18.29 18.29 0 0 1 -2.91-10z"/><path d="m17 21.47a18.28 18.28 0 0 0 2.5-9.47 18.28 18.28 0 0 0 -2.5-9.47l1.09-.53a18.29 18.29 0 0 1 2.91 10 18.29 18.29 0 0 1 -2.91 10z"/></symbol><symbol overflow="visible" viewBox="0 0 24 24" id="brush"><path d="m7 14a3 3 0 0 0 -3 3 2 2 0 0 1 -2 2 5.17 5.17 0 0 0 4 2 4 4 0 0 0 4-4 3 3 0 0 0 -3-3zm13.71-9.37-1.34-1.34a1 1 0 0 0 -1.41 0l-9 9 2.79 2.71 9-9a1 1 0 0 0 -.04-1.37z"/></symbol><symbol overflow="visible" viewBox="0 0 24 24" id="check-white"><path d="m2 12.1 1.71-1.58a32.69 32.69 0 0 1 5.52 3.3 48 48 0 0 1 12.21-10.46l.56 1.28c-4.28 3.74-7.42 7.9-11.93 16a86.32 86.32 0 0 0 -8.07-8.54z" fill="#fff"/></symbol><symbol overflow="visible" viewBox="0 0 24 24" id="close"><path d="m18.3 5.71a1 1 0 0 0 -1.41 0l-4.89 4.88-4.89-4.89a1 1 0 0 0 -1.41 0 1 1 0 0 0 0 1.41l4.89 4.89-4.89 4.89a1 1 0 0 0 0 1.41 1 1 0 0 0 1.41 0l4.89-4.89 4.89 4.89a1 1 0 0 0 1.41 0 1 1 0 0 0 0-1.41l-4.89-4.89 4.89-4.89a1 1 0 0 0 0-1.4z"/></symbol><symbol overflow="visible" viewBox="0 0 24 24" id="color"><path d="m12 3a9 9 0 0 0 0 18 1.5 1.5 0 0 0 1.11-2.51 1.49 1.49 0 0 1 1.12-2.49h1.77a5 5 0 0 0 5-5c0-4.42-4-8-9-8zm-5.5 9a1.5 1.5 0 1 1 1.5-1.5 1.5 1.5 0 0 1 -1.5 1.5zm3-4a1.5 1.5 0 1 1 1.5-1.5 1.5 1.5 0 0 1 -1.5 1.5zm5 0a1.5 1.5 0 1 1 1.5-1.5 1.5 1.5 0 0 1 -1.5 1.5zm3 4a1.5 1.5 0 1 1 1.5-1.5 1.5 1.5 0 0 1 -1.5 1.5z"/></symbol><symbol overflow="visible" viewBox="0 0 24 24" id="compass"><path d="m5.06 21.67a1 1 0 0 0 .61 1.27 1 1 0 0 0 .33.06 1 1 0 0 0 .94-.67l4.38-12.4a4 4 0 0 1 -1.83-.84z"/><path d="m18.94 21.67-4.43-12.58a4 4 0 0 1 -1.83.84l4.38 12.4a1 1 0 0 0 .94.67 1 1 0 0 0 .33-.06 1 1 0 0 0 .61-1.27z"/><path d="m15 6a3 3 0 0 0 -2-2.83.53.53 0 0 0 0-.17v-1a1 1 0 0 0 -2 0v1a.53.53 0 0 0 0 .17 3 3 0 1 0 4 2.83zm-3 1a1 1 0 1 1 1-1 1 1 0 0 1 -1 1z"/></symbol><symbol overflow="visible" viewBox="0 0 24 24" id="controls"><path d="m3 18a1 1 0 0 0 1 1h5v-2h-5a1 1 0 0 0 -1 1zm0-12a1 1 0 0 0 1 1h9v-2h-9a1 1 0 0 0 -1 1zm10 14v-1h7a1 1 0 0 0 0-2h-7v-1a1 1 0 0 0 -2 0v4a1 1 0 0 0 2 0zm-6-10v1h-3a1 1 0 0 0 0 2h3v1a1 1 0 0 0 2 0v-4a1 1 0 0 0 -2 0zm14 2a1 1 0 0 0 -1-1h-9v2h9a1 1 0 0 0 1-1zm-5-3a1 1 0 0 0 1-1v-1h3a1 1 0 0 0 0-2h-3v-1a1 1 0 0 0 -2 0v4a1 1 0 0 0 1 1z"/></symbol><symbol overflow="visible" viewBox="0 0 24 24" id="creditcard"><path d="m20 4h-16a2 2 0 0 0 -2 2v12a2 2 0 0 0 2 2h16a2 2 0 0 0 2-2v-12a2 2 0 0 0 -2-2zm-1 14h-14a1 1 0 0 1 -1-1v-5h16v5a1 1 0 0 1 -1 1zm1-10h-16v-2h16z"/></symbol><symbol overflow="visible" viewBox="0 0 24 24" id="cursor"><path d="m8.3 3.21 9.47 8.84a.76.76 0 0 1 -.45 1.3l-4.12.35 2.8 6.21a1.2 1.2 0 0 1 -.6 1.58 1.19 1.19 0 0 1 -1.59-.61l-2.71-6.28-2.83 2.7a.75.75 0 0 1 -1.27-.55v-13a.77.77 0 0 1 1.3-.54z"/></symbol><symbol overflow="visible" viewBox="0 0 24 24" id="donate"><path d="m11 14a6 6 0 0 1 10.73-3.68 6.09 6.09 0 0 0 .27-2 5.46 5.46 0 0 0 -2.34-4.32 5.78 5.78 0 0 0 -7.66 1.09 5.8 5.8 0 0 0 -7.66-1.09 5.46 5.46 0 0 0 -2.34 4.28c-.13 3.88 3.3 7 8.55 11.74l.11.1a2 2 0 0 0 2.69 0l.1-.09.79-.72a6 6 0 0 1 -3.24-5.31z"/><path d="m17 9a5 5 0 1 0 5 5 5 5 0 0 0 -5-5zm.7 8.05v.29a.67.67 0 0 1 -.7.66.67.67 0 0 1 -.66-.66v-.34a2 2 0 0 1 -1.51-1.12.42.42 0 0 1 .4-.57h.12a.44.44 0 0 1 .41.3c.14.37.53.63 1.26.63 1 0 1.19-.49 1.19-.79s-.21-.81-1.33-1.07-2.09-.81-2.09-1.84a1.72 1.72 0 0 1 1.59-1.54v-.3a.67.67 0 0 1 .62-.7.67.67 0 0 1 .66.67v.33a1.75 1.75 0 0 1 1.34 1.11.42.42 0 0 1 -.4.56h-.13a.41.41 0 0 1 -.39-.31c-.11-.38-.43-.62-1.06-.62s-1.2.34-1.2.82.33.69 1.34.95 2.09.7 2.09 2c.01.87-.68 1.37-1.55 1.54z"/></symbol><symbol overflow="visible" viewBox="0 0 24 24" id="download"><path d="m19.35 10a7.49 7.49 0 0 0 -14-2 6 6 0 0 0 .65 12h13a5 5 0 0 0 .35-10zm-2.35 3-4.65 4.65a.5.5 0 0 1 -.71 0l-4.64-4.65h3v-4h4v4z"/></symbol><symbol overflow="visible" viewBox="0 0 24 24" id="email"><path d="m20 4h-16a2 2 0 0 0 -2 2v12a2 2 0 0 0 2 2h16a2 2 0 0 0 2-2v-12a2 2 0 0 0 -2-2zm-.4 4.25-7.07 4.42a1 1 0 0 1 -1.06 0l-7.07-4.42a.85.85 0 1 1 .9-1.44l6.7 4.19 6.7-4.19a.85.85 0 1 1 .9 1.44z"/></symbol><symbol overflow="visible" viewBox="0 0 24 24" id="eraser"><path d="m20.69 7.57-3.53-3.57a2 2 0 0 0 -2.83 0l-7.07 7.1-3.95 4a2 2 0 0 0 0 2.83l2.83 2.83a1 1 0 0 0 .7.29h2.83a1 1 0 0 0 .71-.29l3.24-3.25 7.07-7.07a2 2 0 0 0 0-2.87zm-7.78 7.77-1.76-1.76-1.77-1.77 6.36-6.37 3.54 3.56z"/></symbol><symbol overflow="visible" viewBox="0 0 24 24" id="eye"><path d="m12 4a11.83 11.83 0 0 0 -11 7.5 11.82 11.82 0 0 0 22 0 11.83 11.83 0 0 0 -11-7.5zm0 12.5a5 5 0 1 1 5-5 5 5 0 0 1 -5 5zm0-8a3 3 0 1 0 3 3 3 3 0 0 0 -3-3z"/></symbol><symbol overflow="visible" viewBox="0 0 24 24" id="facebook"><path d="m20 3h-16a1 1 0 0 0 -1 1v16a1 1 0 0 0 1 1h8.64v-6.93h-2.35v-2.7h2.34v-2.07a3.23 3.23 0 0 1 2.85-3.59 2.91 2.91 0 0 1 .66 0h2.07v2.42h-1.44c-1.17 0-1.35.54-1.35 1.35v1.71h2.7l-.36 2.7h-2.34v7.11h4.58a1 1 0 0 0 1-1v-16a1 1 0 0 0 -1-1z"/></symbol><symbol overflow="visible" viewBox="0 0 24 24" id="favourite"><path d="m13.35 20.13a2 2 0 0 1 -2.69 0l-.11-.1c-5.25-4.76-8.68-7.87-8.55-11.75a5.46 5.46 0 0 1 2.34-4.28 5.8 5.8 0 0 1 7.66 1.09 5.78 5.78 0 0 1 7.66-1.09 5.46 5.46 0 0 1 2.34 4.28c.14 3.88-3.3 7-8.55 11.76z"/></symbol><symbol overflow="visible" viewBox="0 0 24 24" id="feedback"><path d="m20 3h-16a2 2 0 0 0 -2 2v11a2 2 0 0 0 2 2h2v5l5-5h9a2 2 0 0 0 2-2v-11a2 2 0 0 0 -2-2zm-13 9a1.5 1.5 0 1 1 1.5-1.5 1.5 1.5 0 0 1 -1.5 1.5zm5 0a1.5 1.5 0 1 1 1.5-1.5 1.5 1.5 0 0 1 -1.5 1.5zm5 0a1.5 1.5 0 1 1 1.5-1.5 1.5 1.5 0 0 1 -1.5 1.5z"/></symbol><symbol overflow="visible" viewBox="0 0 24 24" id="flip"><path d="m9.71 15.88-3.88-3.88 3.88-3.88a1 1 0 1 0 -1.41-1.41l-4.59 4.59a1 1 0 0 0 0 1.41l4.59 4.59a1 1 0 0 0 1.41 0 1 1 0 0 0 0-1.42z"/><path d="m14.29 15.88 3.88-3.88-3.88-3.88a1 1 0 1 1 1.41-1.41l4.59 4.59a1 1 0 0 1 0 1.41l-4.59 4.59a1 1 0 0 1 -1.41 0 1 1 0 0 1 0-1.42z"/></symbol><symbol overflow="visible" viewBox="0 0 24 24" id="form-check"><path d="m2 12.1 1.71-1.58a32.69 32.69 0 0 1 5.52 3.3 48 48 0 0 1 12.21-10.46l.56 1.28c-4.28 3.74-7.42 7.9-11.93 16a86.32 86.32 0 0 0 -8.07-8.54z" fill="#22ab24"/></symbol><symbol overflow="visible" viewBox="0 0 24 24" id="form-dropdown"><path d="m19.93 7.5a1.48 1.48 0 0 0 -2.11 0l-5.82 5.82-5.82-5.82a1.49 1.49 0 0 0 -2.12 0 1.5 1.5 0 0 0 0 2.11l6.94 6.89a1.48 1.48 0 0 0 2.11 0l6.89-6.89a1.5 1.5 0 0 0 -.07-2.11z" fill="#4d4d4d"/></symbol><symbol overflow="visible" viewBox="0 0 24 24" id="form-warn"><path d="m13.73 4.22 8.54 14.78a2 2 0 0 1 -1.73 3h-17.08a2 2 0 0 1 -1.73-3l8.54-14.78a2 2 0 0 1 3.46 0z" fill="#cd0e66"/><path d="m12 16.59a1.67 1.67 0 1 1 -1.6 1.66 1.59 1.59 0 0 1 1.6-1.66zm-1.28-5.22-.1-2.37h2.76l-.1 2.37-.38 4.45h-1.8z" fill="#fff"/></symbol><symbol overflow="visible" viewBox="0 0 44 44" id="fox"><path d="m41.71 28.79c-1.6-6.54-10.94-5.79-19.71-5.79s-18.11-.74-19.71 5.8c-.48 1.92 2.75 1 8.73 5.63 6.46 5 8 7.58 11 7.58s4.52-2.61 11-7.58c5.98-4.61 9.17-3.72 8.69-5.64z" fill="#e6e6e6"/><path d="m42 28.79a21.89 21.89 0 0 0 -2.36-5.79 2.72 2.72 0 0 1 -.18-2.54c2.42-9.3-.83-17.9-2.67-18.46-1.55-.45-6.19 4.88-9.68 9.66-.73 1-1.05 1.11-2 1a18.73 18.73 0 0 0 -6.22 0c-.95.16-1.27.06-2-1-3.49-4.75-8.13-10.08-9.68-9.66-1.84.53-5.09 9.13-2.67 18.45a2.72 2.72 0 0 1 -.18 2.55 21.89 21.89 0 0 0 -2.36 5.79c-.44 1.92 4.65-1.08 10.87 3.21 4.78 3.28 6.12 8.9 9.13 8.9s4.35-5.62 9.13-8.9c6.22-4.29 11.31-1.29 10.87-3.21z" fill="#fd8c00"/><path d="m13.72 12.88c-1.61-3.05-4.78-7.17-5.72-6.88-1.12.37-2.84 6.24-1.08 12.72.32 1.16 2.4.57 6.28-2.34 1.44-1.06 1.34-1.95.52-3.5z" fill="#c25a00"/><path d="m30.28 12.88c1.61-3.05 4.78-7.17 5.72-6.88 1.12.37 2.84 6.24 1.08 12.72-.32 1.16-2.4.57-6.28-2.34-1.44-1.06-1.34-1.95-.52-3.5z" fill="#c25a00"/><g fill="#242436"><path d="m24.22 37.67a2.3 2.3 0 0 1 -4.58 0c0-1.1 1-1.79 2.29-1.79s2.29.69 2.29 1.79z"/><ellipse cx="27.95" cy="26" rx="1.9" ry="2"/><ellipse cx="15.9" cy="26" rx="1.9" ry="2"/></g></symbol><symbol overflow="visible" viewBox="0 0 24 24" id="fraction"><path d="m6 12h12" fill="none" stroke="#000" stroke-miterlimit="10"/><path d="m8 2h8v8h-8z" opacity=".6"/><path d="m8 14h8v8h-8z" opacity=".6"/></symbol><symbol overflow="visible" viewBox="0 0 24 24" id="fullscreen"><path d="m15.85 3.85 1.45 1.45-2.18 2.16a1 1 0 0 0 0 1.42 1 1 0 0 0 1.42 0l2.16-2.18 1.45 1.45a.5.5 0 0 0 .85-.36v-4.29a.5.5 0 0 0 -.5-.5h-4.29a.5.5 0 0 0 -.36.85zm-12 4.3 1.45-1.45 2.16 2.18a1 1 0 0 0 1.42 0 1 1 0 0 0 0-1.42l-2.18-2.16 1.45-1.45a.5.5 0 0 0 -.36-.85h-4.29a.5.5 0 0 0 -.5.5v4.29a.5.5 0 0 0 .85.36zm4.3 12-1.45-1.45 2.18-2.16a1 1 0 0 0 0-1.42 1 1 0 0 0 -1.42 0l-2.16 2.18-1.45-1.45a.5.5 0 0 0 -.85.36v4.29a.5.5 0 0 0 .5.5h4.29a.5.5 0 0 0 .36-.85zm12-4.3-1.45 1.45-2.16-2.18a1 1 0 0 0 -1.42 0 1 1 0 0 0 0 1.42l2.18 2.16-1.45 1.45a.5.5 0 0 0 .36.85h4.29a.5.5 0 0 0 .5-.5v-4.29a.5.5 0 0 0 -.85-.36z"/></symbol><symbol overflow="visible" viewBox="0 0 24 24" id="geo-circumcircle"><path d="m12 22a10 10 0 1 1 10-10 10 10 0 0 1 -10 10zm0-19a9 9 0 1 0 9 9 9 9 0 0 0 -9-9z"/><path d="m5.5 18.38a.46.46 0 0 1 -.38-.2.45.45 0 0 1 0-.53l9.77-14.27a.47.47 0 0 1 .41-.21.47.47 0 0 1 .39.25l5.51 10.15a.43.43 0 0 1 0 .4.44.44 0 0 1 -.31.27l-15.27 4.12a.25.25 0 0 1 -.12.02zm9.73-13.84-8.63 12.59 13.5-3.64z" opacity=".5"/></symbol><symbol overflow="visible" viewBox="0 0 24 24" id="geo-incircle"><path d="m14.24 18.77a5.89 5.89 0 1 1 5.88-5.88 5.89 5.89 0 0 1 -5.88 5.88zm0-10.77a4.89 4.89 0 1 0 4.88 4.89 4.89 4.89 0 0 0 -4.88-4.89z"/><path d="m2 22.5a.51.51 0 0 1 -.4-.2.51.51 0 0 1 0-.57l12.78-20a.49.49 0 0 1 .45-.23.49.49 0 0 1 .42.27l7.2 14.23a.51.51 0 0 1 0 .42.5.5 0 0 1 -.32.28l-20 5.78zm12.73-19.5-11.59 18.15 18.14-5.24z" opacity=".5"/></symbol><symbol overflow="visible" viewBox="0 0 24 24" id="geo-midpoint"><path d="m21 1.5a1.49 1.49 0 0 0 -1.35 2.14l-16 16a1.52 1.52 0 1 0 .71.71l16-16a1.5 1.5 0 1 0 .64-2.85z" opacity=".5"/><circle cx="12" cy="12" r="1.5"/></symbol><symbol overflow="visible" viewBox="0 0 24 24" id="geo-parallel"><path d="m3 22.5a.52.52 0 0 1 -.42-.22.51.51 0 0 1 .14-.7l18-12a.5.5 0 0 1 .56.84l-18 12a.57.57 0 0 1 -.28.08z" opacity=".5"/><path d="m21.42 2.72a.51.51 0 0 0 -.7-.14l-7.83 5.22a1.45 1.45 0 0 0 -.89-.3 1.49 1.49 0 0 0 -1.45 1.87l-7.83 5.21a.51.51 0 0 0 -.14.7.52.52 0 0 0 .42.22.57.57 0 0 0 .28-.08l7.83-5.22a1.45 1.45 0 0 0 .89.3 1.49 1.49 0 0 0 1.45-1.87l7.83-5.21a.51.51 0 0 0 .14-.7z"/></symbol><symbol overflow="visible" viewBox="0 0 24 24" id="geo-perp-bisector"><path d="m21 1.5a1.49 1.49 0 0 0 -1.35 2.14l-16 16a1.52 1.52 0 1 0 .71.71l16-16a1.5 1.5 0 1 0 .64-2.85z" opacity=".5"/><path d="m21 21.5a.47.47 0 0 1 -.35-.15l-18-18a.49.49 0 0 1 .7-.7l18 18a.48.48 0 0 1 0 .7.47.47 0 0 1 -.35.15z"/></symbol><symbol overflow="visible" viewBox="0 0 24 24" id="geo-perpendicular"><path d="m3 22.5a.52.52 0 0 1 -.42-.22.51.51 0 0 1 .14-.7l18-12a.5.5 0 0 1 .56.84l-18 12a.57.57 0 0 1 -.28.08z" opacity=".5"/><path d="m16.42 20.72-7.22-10.83a1.45 1.45 0 0 0 .3-.89 1.49 1.49 0 0 0 -1.87-1.45l-3.21-4.83a.5.5 0 0 0 -.84.56l3.22 4.83a1.45 1.45 0 0 0 -.3.89 1.49 1.49 0 0 0 1.87 1.45l7.21 10.83a.52.52 0 0 0 .42.22.57.57 0 0 0 .28-.08.51.51 0 0 0 .14-.7z"/></symbol><symbol overflow="visible" viewBox="0 0 24 24" id="geo-reflect"><path d="m12 22h-10v-12h6z" opacity=".5"/><path d="m22 12v-10h-12v6z"/><path d="m22 22.5a.47.47 0 0 1 -.35-.15l-20-20a.49.49 0 0 1 .7-.7l20 20a.48.48 0 0 1 0 .7.47.47 0 0 1 -.35.15z" opacity=".2"/></symbol><symbol overflow="visible" viewBox="0 0 24 24" id="geo-rotate"><circle cx="3" cy="3" opacity=".2" r="1.5"/><path d="m22.56 8.41-7.08 7.07-8.48-8.48 4.24-4.24z"/><g opacity=".5"><path d="m12 22h-10v-12h6z"/><path d="m23 12.69-.22-4.29-2.78 3.24 1.28-.25a20.64 20.64 0 0 1 -9.45 10.17.5.5 0 0 0 -.22.67.51.51 0 0 0 .45.27.53.53 0 0 0 .23-.06 21.55 21.55 0 0 0 9.94-10.73z" opacity=".4"/></g></symbol><symbol overflow="visible" viewBox="0 0 24 24" id="geo-translate"><path d="m22 14h-10v-12h6z"/><g opacity=".5"><path d="m12 22h-10v-12h6z"/><path d="m12 2-4.12 1.22 1.21.47-7.4 5.92a.5.5 0 0 0 -.08.7.48.48 0 0 0 .39.19.51.51 0 0 0 .31-.11l7.41-5.92.19 1.29z" opacity=".4"/><path d="m22 14-4.12 1.22 1.21.47-7.4 5.92a.5.5 0 0 0 -.08.7.48.48 0 0 0 .39.19.51.51 0 0 0 .31-.11l7.41-5.92.19 1.29z" opacity=".4"/></g></symbol><symbol overflow="visible" viewBox="0 0 24 24" id="github"><path d="m12 2a10 10 0 0 0 -3.16 19.49c.5.09.66-.22.66-.48v-1.86c-2.78.6-3.36-1.15-3.36-1.15a2.69 2.69 0 0 0 -1.14-1.5c-.91-.62.07-.6.07-.6a2.1 2.1 0 0 1 1.53 1 2.14 2.14 0 0 0 2.91.83 2.16 2.16 0 0 1 .63-1.34c-2.14-.22-4.52-1.08-4.52-4.91a3.89 3.89 0 0 1 1-2.69 3.57 3.57 0 0 1 .1-2.64s.84-.27 2.75 1a9.63 9.63 0 0 1 5 0c1.91-1.29 2.75-1 2.75-1a3.56 3.56 0 0 1 .1 2.64 3.89 3.89 0 0 1 1 2.69c0 3.84-2.34 4.68-4.57 4.93a2.39 2.39 0 0 1 .69 1.85v2.74c0 .26.16.58.67.48a10 10 0 0 0 -3.11-19.48z"/></symbol><symbol overflow="visible" viewBox="0 0 24 24" id="glossary"><path d="m19 4h-1v8l-2.5-2.5-2.5 2.5v-8h-8a1 1 0 0 1 1-1h13.5a.5.5 0 0 0 0-1h-13.5a2 2 0 0 0 -2 2v16a2 2 0 0 0 2 2h13a1 1 0 0 0 1-1v-16a1 1 0 0 0 -1-1z"/></symbol><symbol overflow="visible" viewBox="0 0 24 24" id="google"><path d="m21.12 12.22a11.14 11.14 0 0 0 -.17-2h-8.95v3.78h5.11a4.35 4.35 0 0 1 -1.89 2.86v2.34h3.07a9.3 9.3 0 0 0 2.83-7z" fill="#4285f4"/><path d="m12 21.5a9.07 9.07 0 0 0 6.29-2.3l-3.07-2.39a5.74 5.74 0 0 1 -8.54-3h-3.17v2.46a9.5 9.5 0 0 0 8.49 5.23z" fill="#34a853"/><path d="m6.68 13.81a5.79 5.79 0 0 1 0-3.62v-2.46h-3.17a9.53 9.53 0 0 0 0 8.54z" fill="#fbbc05"/><path d="m12 6.28a5.13 5.13 0 0 1 3.63 1.42l2.73-2.7a9.16 9.16 0 0 0 -6.36-2.5 9.5 9.5 0 0 0 -8.49 5.23l3.17 2.46a5.68 5.68 0 0 1 5.32-3.91z" fill="#ea4335"/></symbol><symbol overflow="visible" viewBox="0 0 24 24" id="grid"><path d="m20 2h-16a2 2 0 0 0 -2 2v16a2 2 0 0 0 2 2h16a2 2 0 0 0 2-2v-16a2 2 0 0 0 -2-2zm-12 18h-3a1 1 0 0 1 -1-1v-3h4zm0-6h-4v-4h4zm0-6h-4v-3a1 1 0 0 1 1-1h3zm6 12h-4v-4h4zm0-6h-4v-4h4zm0-6h-4v-4h4zm5 12h-3v-4h4v3a1 1 0 0 1 -1 1zm1-6h-4v-4h4zm0-6h-4v-4h3a1 1 0 0 1 1 1z"/></symbol><symbol overflow="visible" viewBox="0 0 24 24" id="hand"><path d="m19.5 10a1.5 1.5 0 0 0 -1.5 1.5v-1a1.5 1.5 0 0 0 -3 0v-1a1.5 1.5 0 0 0 -3 0v-6a1.5 1.5 0 0 0 -3 0v10.41l-4.12-2.35a1.5 1.5 0 0 0 -1.81 2.35l6.78 6.89a4 4 0 0 0 2.85 1.2h4.3a4 4 0 0 0 4-4v-6.5a1.5 1.5 0 0 0 -1.5-1.5z"/></symbol><symbol overflow="visible" viewBox="0 0 24 24" id="instagram"><path d="m12 4.21c2.54 0 2.84 0 3.84.06 2.57.11 3.78 1.34 3.89 3.89.05 1 .06 1.3.06 3.84s0 2.84-.06 3.84c-.11 2.55-1.31 3.78-3.89 3.89-1 .05-1.3.06-3.84.06s-2.84 0-3.84-.06c-2.58-.11-3.78-1.34-3.89-3.89 0-1-.06-1.3-.06-3.84s0-2.84.06-3.84c.11-2.55 1.31-3.78 3.89-3.89 1-.05 1.3-.06 3.84-.06zm0-1.71c-2.58 0-2.9 0-3.92.06-3.45.16-5.36 2.07-5.52 5.52-.05 1.02-.06 1.34-.06 3.92s0 2.9.06 3.92c.16 3.45 2.07 5.36 5.52 5.52 1 0 1.34.06 3.92.06s2.9 0 3.92-.06c3.44-.16 5.37-2.07 5.52-5.52 0-1 .06-1.34.06-3.92s0-2.9-.06-3.92c-.15-3.44-2.07-5.36-5.52-5.52-1.02-.05-1.34-.06-3.92-.06zm0 4.62a4.88 4.88 0 1 0 4.88 4.88 4.89 4.89 0 0 0 -4.88-4.88zm0 8.05a3.17 3.17 0 1 1 3.17-3.17 3.17 3.17 0 0 1 -3.17 3.17zm5.07-9.38a1.14 1.14 0 1 0 1.14 1.14 1.14 1.14 0 0 0 -1.14-1.14z"/></symbol><symbol overflow="visible" viewBox="0 0 24 24" id="language"><path d="M12,2A10,10,0,1,0,22,12,10,10,0,0,0,12,2Zm6.93,6H16a15.65,15.65,0,0,0-1.38-3.56A8,8,0,0,1,18.92,8ZM12,4a14.09,14.09,0,0,1,1.91,4H10.09A14.09,14.09,0,0,1,12,4ZM4.26,14a7.82,7.82,0,0,1,0-4H7.64a16.52,16.52,0,0,0-.14,2,16.52,16.52,0,0,0,.14,2Zm.82,2H8a15.65,15.65,0,0,0,1.38,3.56A8,8,0,0,1,5.08,16ZM8,8H5.08A8,8,0,0,1,9.41,4.44,15.65,15.65,0,0,0,8,8Zm4,12a14.09,14.09,0,0,1-1.91-4h3.82A14.09,14.09,0,0,1,12,20Zm2.34-6H9.66a14.71,14.71,0,0,1-.16-2,14.58,14.58,0,0,1,.16-2h4.68a14.58,14.58,0,0,1,.16,2A14.71,14.71,0,0,1,14.34,14Zm.25,5.56A15.65,15.65,0,0,0,16,16h3A8,8,0,0,1,14.59,19.56ZM16.36,14a16.52,16.52,0,0,0,.14-2,16.52,16.52,0,0,0-.14-2h3.38a7.82,7.82,0,0,1,0,4Z"/></symbol><symbol overflow="visible" viewBox="0 0 24 24" id="left"><path d="m16.07 4.07a1.49 1.49 0 0 0 -2.12 0l-6.88 6.93a1.49 1.49 0 0 0 0 2.12l6.93 6.88a1.51 1.51 0 0 0 2.12 0 1.51 1.51 0 0 0 0-2.12l-5.88-5.88 5.83-5.82a1.51 1.51 0 0 0 0-2.11z"/></symbol><symbol overflow="visible" viewBox="0 0 36 36" id="level-1"><circle cx="18" cy="18" fill="#fff" opacity=".5" r="16"/><path d="m18 0a18 18 0 1 0 18 18 18 18 0 0 0 -18-18zm6.13 25.85-6.13-3.22-6.13 3.22 1.13-6.85-4.91-4.8 6.85-1 3.06-6.2 3.06 6.21 6.85 1-4.91 4.79z" fill="#0f82f2"/></symbol><symbol overflow="visible" viewBox="0 0 36 36" id="level-2"><circle cx="18" cy="18" fill="#fff" opacity=".5" r="16"/><path d="m18 0a18 18 0 1 0 18 18 18 18 0 0 0 -18-18zm-9.84 18.76.91-5.34-3.88-3.78 5.37-.78 2.44-4.86 2.39 4.86 5.37.78-3.88 3.78.91 5.34-4.79-2.52zm20.68 11.09-4.84-2.52-4.79 2.52.91-5.34-3.88-3.78 5.41-.73 2.35-4.91 2.44 4.91 5.37.78-3.88 3.78z" fill="#22ab24"/></symbol><symbol overflow="visible" viewBox="0 0 36 36" id="level-3"><circle cx="18" cy="18" fill="#fff" opacity=".5" r="16"/><path d="m18 0a18 18 0 1 0 18 18 18 18 0 0 0 -18-18zm-3.82 28.85-4.18-2.19-4.18 2.19.8-4.65-3.38-3.29 4.67-.68 2.09-4.23 2.09 4.23 4.67.68-3.38 3.29zm-.36-12 .8-4.65-3.38-3.29 4.67-.68 2.09-4.23 2.09 4.23 4.67.68-3.38 3.29.8 4.65-4.18-2.19zm16.36 12-4.18-2.19-4.18 2.19.8-4.65-3.38-3.29 4.67-.68 2.09-4.23 2.09 4.23 4.67.68-3.38 3.29z" fill="#fd8c00"/></symbol><symbol overflow="visible" viewBox="0 0 24 24" id="library"><path d="m8.2 3.3-3-.5a1 1 0 0 0 -1.2.76l-3.1 17.74a1 1 0 0 0 .76 1.19l3 .5a1 1 0 0 0 1.19-.76l3.15-17.83a1 1 0 0 0 -.8-1.1zm-2 11.3a.5.5 0 0 1 -.58.4l-2-.3a.5.5 0 0 1 -.4-.58l1.38-7.92a.5.5 0 0 1 .58-.4l2 .3a.5.5 0 0 1 .4.58z"/><path d="m17 19h6v1h-6z"/><path d="m17 10h6v8h-6z"/><path d="m17 22a1 1 0 0 0 1 1h4a1 1 0 0 0 1-1v-1h-6z"/><path d="m17 8h6v1h-6z"/><path d="m22 5h-4a1 1 0 0 0 -1 1v1h6v-1a1 1 0 0 0 -1-1z"/><path d="m10 22a1 1 0 0 0 1 1h4a1 1 0 0 0 1-1v-1h-6z"/><path d="m15 1h-4a1 1 0 0 0 -1 1v1h6v-1a1 1 0 0 0 -1-1z"/><path d="m10 5h6v14h-6z"/></symbol><symbol overflow="visible" viewBox="0 0 24 24" id="lightbulb"><path d="m9 19h6a0 0 0 0 1 0 0v2a2 2 0 0 1 -2 2h-2a2 2 0 0 1 -2-2v-2a0 0 0 0 1 0 0z"/><path d="m12 2a7 7 0 0 0 -7 7c0 2.79 4 6 4 9h2.5a17.9 17.9 0 0 0 -2.68-8.25.5.5 0 0 1 0-.5.5.5 0 0 1 .43-.25h5.5a.5.5 0 0 1 .43.25.5.5 0 0 1 0 .5 17.9 17.9 0 0 0 -2.68 8.25h2.5c0-3 4-6.21 4-9a7 7 0 0 0 -7-7z"/><path d="m10.1 10a22.89 22.89 0 0 1 1.9 4.64 22.89 22.89 0 0 1 1.9-4.64z"/></symbol><symbol overflow="visible" viewBox="0 0 24 24" id="lock"><path d="m18 8h-1v-2a5 5 0 0 0 -10 0v2h-1a2 2 0 0 0 -2 2v10a2 2 0 0 0 2 2h12a2 2 0 0 0 2-2v-10a2 2 0 0 0 -2-2zm-5 7.72v2.28h-2v-2.28a2 2 0 1 1 2 0zm2-7.72h-6v-2a3 3 0 0 1 6 0z"/></symbol><symbol overflow="visible" viewBox="0 0 36 36" id="logo"><path d="m17 31v-11.98-.02l-12 12z" fill="#fd8c00"/><path d="m4 4.5v.03 12.96 13.01l13-13z" fill="#cd0e66"/><path d="m31 5-12 12h12" fill="#22ab24"/><path d="m31 18h-13v13h13" fill="#0f82f2"/></symbol><symbol overflow="visible" viewBox="0 0 24 24" id="logout"><path d="m10.79 16.29a1 1 0 0 0 1.41 0l3.59-3.59a1 1 0 0 0 0-1.41l-3.59-3.59a1 1 0 0 0 -1.41 0 1 1 0 0 0 0 1.41l1.88 1.89h-8.67a1 1 0 0 0 -1 1 1 1 0 0 0 1 1h8.67l-1.88 1.88a1 1 0 0 0 0 1.41zm8.21-13.29h-14a2 2 0 0 0 -2 2v3a1 1 0 0 0 1 1 1 1 0 0 0 1-1v-2a1 1 0 0 1 1-1h12a1 1 0 0 1 1 1v12a1 1 0 0 1 -1 1h-12a1 1 0 0 1 -1-1v-2a1 1 0 0 0 -1-1 1 1 0 0 0 -1 1v3a2 2 0 0 0 2 2h14a2 2 0 0 0 2-2v-14a2 2 0 0 0 -2-2z"/></symbol><symbol overflow="visible" viewBox="0 0 24 24" id="notes"><path d="m6 2a2 2 0 0 0 -2 2v16a2 2 0 0 0 2 2h12a2 2 0 0 0 2-2v-11.17a2 2 0 0 0 -.59-1.41l-4.83-4.83a2 2 0 0 0 -1.41-.59zm7 6v-4.5l5.5 5.5h-4.5a1 1 0 0 1 -1-1z"/></symbol><symbol overflow="visible" viewBox="0 0 24 24" id="patreon"><path d="m4 4h3v16h-3z" fill="#052d49"/><circle cx="14" cy="10" fill="#fff" r="6"/></symbol><symbol overflow="visible" viewBox="0 0 24 24" id="pause"><path d="m8 19a2 2 0 0 0 2-2v-10a2 2 0 0 0 -2-2 2 2 0 0 0 -2 2v10a2 2 0 0 0 2 2zm6-12v10a2 2 0 0 0 2 2 2 2 0 0 0 2-2v-10a2 2 0 0 0 -2-2 2 2 0 0 0 -2 2z"/></symbol><symbol overflow="visible" viewBox="0 0 24 24" id="paypal"><path d="m19.85 10.66a6.53 6.53 0 0 1 -.1 1.32c-.66 3.5-2.93 4.73-5.86 4.73h-.47a.74.74 0 0 0 -.75.66l-.67 4a.75.75 0 0 1 -.75.66h-2.08a.46.46 0 0 1 -.48-.46.41.41 0 0 1 0-.11l1.13-7.09h1.7c4.16 0 6.71-2.08 7.47-5.95a3.21 3.21 0 0 1 .86 2.24zm-11.15 3.4c.09-.66.37-1 1.13-1h1.8c3.59 0 5.67-1.6 6.33-5s-1.7-5.06-4.82-5.06h-5.77a.85.85 0 0 0 -.85.76c-1.79 11.62-2.36 14.65-2.36 15.5a.48.48 0 0 0 .37.56h3.22z"/></symbol><symbol overflow="visible" viewBox="0 0 24 24" id="pen"><path d="m15.93 11.81-3.75-3.75-7.73 7.74-1.3 1.3a.49.49 0 0 0 -.15.36v3a.5.5 0 0 0 .5.5h3a.47.47 0 0 0 .35-.15l2.77-2.76 1.18-1.05 1.69-1.69z"/><path d="m21.59 10.44c0-.49-.45-.94-.93-1.44-.32-.31-.66-.64-.63-1s.34-.66.68-1a.78.78 0 0 0 .1-.15 1 1 0 0 0 .19-.52.94.94 0 0 0 -.26-.65l-2.37-2.39h-.07a1 1 0 0 0 -1.34 0l-.49.49-3.35 3.34 3.75 3.75 1.42-1.41 1 1-3.59 3.54a1 1 0 0 0 .72 1.71 1 1 0 0 0 .71-.3l3.42-3.43c.51-.54 1.02-1.05 1.04-1.54z"/></symbol><symbol overflow="visible" viewBox="0 0 32 32" id="person-1"><path d="m2.5 7.24 10.8 10.8v-10.8z"/><path d="m14.02 18.04 10.8-10.8h-10.8z"/><path d="m16.9 21.64-5.4 5.4v-5.4l5.4-5.41z"/><path d="m17.62 16.23v7.93h7.92z"/><path d="m29.5 21.27h-5.4l5.4 5.41z"/><path d="m13.66 31.36v-5.41l-5.4 5.41z"/><path d="m10.65.87h5.4v5.4h-5.4z" transform="matrix(1 -.09 .09 1 -.26 1.18)"/></symbol><symbol overflow="visible" viewBox="0 0 32 32" id="person-2"><path d="m19.44 15.46-7.97-7.97-7.97 7.97z"/><path d="m21.98.96-7.97 7.98 7.97 7.97z"/><path d="m9.66 1.33h5.43v5.43h-5.43z"/><path d="m11.47 24.15h7.97v-7.97z"/><path d="m20.17 21.62 5.43 5.43v-5.43l-5.43-5.44z"/><path d="m8.57 24.88v5.43l5.44-5.43z"/><path d="m23.07 31.04h5.43l-5.43-5.44z"/></symbol><symbol overflow="visible" viewBox="0 0 32 32" id="person-3"><path d="m17.09 6.24 4.58 9.83 9.83-4.58z"/><path d="m22.77 20.18-4.58-9.83-9.83 4.58z"/><path d="m18.27 23.36 7.21 2.63-2.29-4.92-7.21-2.62z"/><path d="m5.17 14.52 3.13 6.7 6.7-3.13z"/><path d="m5.41 9.78-4.91 2.29 7.21 2.63z"/><path d="m25.24 30.72 4.92-2.29-7.21-2.62z"/><path d="m22.48 2.35h5.23v5.23h-5.23z" transform="matrix(.64278761 -.76604444 .76604444 .64278761 5.16 20.99)"/></symbol><symbol overflow="visible" viewBox="0 0 24 24" id="pinterest"><path d="m12 2a10 10 0 0 0 -3.64 19.31 9.55 9.55 0 0 1 0-2.87c.18-.78 1.17-5 1.17-5a3.6 3.6 0 0 1 -.27-1.44c0-1.39.81-2.43 1.81-2.43a1.26 1.26 0 0 1 1.27 1.43 20.35 20.35 0 0 1 -.83 3.33 1.45 1.45 0 0 0 1.49 1.78c1.78 0 3.14-1.88 3.14-4.58a3.94 3.94 0 0 0 -4.14-4.07 4.33 4.33 0 0 0 -4.56 4.34 3.83 3.83 0 0 0 .75 2.28.32.32 0 0 1 .07.29l-.26 1.13c-.05.18-.15.22-.34.13-1.25-.58-2-2.4-2-3.87 0-3.16 2.29-6 6.61-6a5.87 5.87 0 0 1 6.17 5.77c0 3.45-2.18 6.22-5.19 6.22a2.69 2.69 0 0 1 -2.3-1.14l-.62 2.37a10.75 10.75 0 0 1 -1.33 2.57 10 10 0 1 0 3-19.55z"/></symbol><symbol overflow="visible" viewBox="0 0 24 24" id="play"><path d="m7.5 6.17v11.66a1.12 1.12 0 0 0 1.73.94l9.16-5.77a1.13 1.13 0 0 0 0-1.91l-9.16-5.86a1.12 1.12 0 0 0 -1.73.94z"/></symbol><symbol overflow="visible" viewBox="0 0 24 24" id="power"><path d="m14 3h7v7h-7z" opacity=".6"/><path d="m4 7h9v14h-9z" opacity=".6"/></symbol><symbol overflow="visible" viewBox="0 0 24 24" id="progress"><circle cx="4.5" cy="12" r="2"/><circle cx="4.5" cy="6" r="2"/><circle cx="4.5" cy="18" r="2"/><path d="m9.5 19h11a1 1 0 0 0 1-1 1 1 0 0 0 -1-1h-11a1 1 0 0 0 -1 1 1 1 0 0 0 1 1z"/><path d="m9.5 13h11a1 1 0 0 0 1-1 1 1 0 0 0 -1-1h-11a1 1 0 0 0 -1 1 1 1 0 0 0 1 1z"/><path d="m8.5 6a1 1 0 0 0 1 1h11a1 1 0 0 0 1-1 1 1 0 0 0 -1-1h-11a1 1 0 0 0 -1 1z"/></symbol><symbol overflow="visible" viewBox="0 0 24 24" id="protractor"><path d="m22.31 6.76a10.93 10.93 0 0 0 -7.74-3.22h-.07a11 11 0 0 0 -11 11v.07a11 11 0 0 0 3.22 7.74 1 1 0 0 0 1.41 0l14.18-14.18a1 1 0 0 0 0-1.41zm-14.81 13.39a8.92 8.92 0 0 1 -1.9-4.61h2.94a1 1 0 0 0 0-2h-2.94a9 9 0 0 1 1.91-4.62l2.08 2.08a1 1 0 0 0 .7.29 1 1 0 0 0 .71-.29 1 1 0 0 0 0-1.41l-2.08-2.08a8.93 8.93 0 0 1 4.62-1.91v2.94a1 1 0 0 0 2 0v-2.94a9 9 0 0 1 4.61 1.9z"/></symbol><symbol overflow="visible" viewBox="0 0 24 24" id="reddit"><path d="m22 11.82a2.21 2.21 0 0 0 -3.75-1.59 11.44 11.44 0 0 0 -5.81-1.7l1.24-3.89 3.32.78a1.83 1.83 0 1 0 .13-.65l-3.59-.77a.31.31 0 0 0 -.37.21l-1.37 4.31a11.51 11.51 0 0 0 -6.09 1.68 2.2 2.2 0 1 0 -2.61 3.51 3.35 3.35 0 0 0 -.07.71c0 3.26 4 5.91 8.93 5.91s8.93-2.65 8.93-5.91a3.71 3.71 0 0 0 -.06-.67 2.22 2.22 0 0 0 1.17-1.93zm-14.35 1.51a1.32 1.32 0 1 1 1.35 1.31 1.32 1.32 0 0 1 -1.35-1.31zm7.55 3.89a4.37 4.37 0 0 1 -3.19 1 4.37 4.37 0 0 1 -3.19-1 .31.31 0 1 1 .44-.44 3.78 3.78 0 0 0 2.75.8 3.78 3.78 0 0 0 2.75-.8.31.31 0 1 1 .44.44zm-.2-2.58a1.31 1.31 0 1 1 1.32-1.31 1.32 1.32 0 0 1 -1.32 1.31z"/></symbol><symbol overflow="visible" viewBox="0 0 24 24" id="redo"><path d="m18.4 10.6a10.47 10.47 0 0 0 -16.34 3.33 1.25 1.25 0 0 0 .75 1.71 1.23 1.23 0 0 0 1.5-.64 8 8 0 0 1 12.31-2.62l-1.91 1.91a1 1 0 0 0 .7 1.71h5.59a1 1 0 0 0 1-1v-5.59a1 1 0 0 0 -1.71-.71z"/></symbol><symbol overflow="visible" viewBox="0 0 24 24" id="reset"><path d="m19 3h-2.5l-.71-.71a1 1 0 0 0 -.7-.29h-6.18a1 1 0 0 0 -.7.29l-.71.71h-2.5a1 1 0 0 0 0 2h14a1 1 0 0 0 0-2z"/><path d="m17 6h-10a2 2 0 0 0 -2 2v12a2 2 0 0 0 2 2h10a2 2 0 0 0 2-2v-12a2 2 0 0 0 -2-2zm-5 13a5 5 0 0 1 -4.12-2.17.75.75 0 0 1 .19-1 .74.74 0 0 1 1 .19 3.5 3.5 0 1 0 -.22-3.59l1.65 1.57h-3.5a.5.5 0 0 1 -.5-.5v-3.5l1.3 1.3a5 5 0 1 1 4.2 7.7z"/></symbol><symbol overflow="visible" viewBox="0 0 24 24" id="right"><path d="m7.93 4.07a1.5 1.5 0 0 0 0 2.11l5.83 5.82-5.83 5.82a1.51 1.51 0 0 0 0 2.12 1.51 1.51 0 0 0 2.12 0l6.88-6.89a1.48 1.48 0 0 0 0-2.11l-6.88-6.89a1.51 1.51 0 0 0 -2.12.02z"/></symbol><symbol overflow="visible" viewBox="0 0 24 24" id="ruler"><path d="m17.66 2.1-1.06 1.06 1.59 1.59a.75.75 0 0 1 0 1.06.74.74 0 0 1 -1.06 0l-1.59-1.59-1.42 1.42.89.88a.75.75 0 0 1 0 1.06.77.77 0 0 1 -1.07 0l-.88-.88-1.41 1.41 1.59 1.59a.75.75 0 0 1 0 1.06.74.74 0 0 1 -1.06 0l-1.59-1.59-1.42 1.42.89.88a.75.75 0 0 1 0 1.06.77.77 0 0 1 -1.07 0l-.88-.88-1.41 1.41 1.59 1.59a.75.75 0 0 1 0 1.06.74.74 0 0 1 -1.06 0l-1.59-1.59-1.42 1.42.89.88a.75.75 0 1 1 -1.06 1.06l-.89-.88-1.06 1.06a1 1 0 0 0 0 1.41l2.83 2.83a1 1 0 0 0 1.41 0l15.56-15.56a1 1 0 0 0 0-1.41l-2.83-2.83a1 1 0 0 0 -1.41 0z"/></symbol><symbol overflow="visible" viewBox="0 0 24 24" id="search"><path d="m15.5 14h-.79l-.28-.27a6.52 6.52 0 1 0 -.7.7l.27.28v.79l4.25 4.25a1.06 1.06 0 0 0 1.49 0 1.06 1.06 0 0 0 0-1.49zm-6 0a4.5 4.5 0 1 1 4.5-4.5 4.49 4.49 0 0 1 -4.5 4.5z"/></symbol><symbol overflow="visible" viewBox="0 0 24 24" id="settings"><path d="M19.43,13a7.79,7.79,0,0,0,.07-1,7.79,7.79,0,0,0-.07-1l2.11-1.65a.5.5,0,0,0,.12-.64l-2-3.46a.5.5,0,0,0-.61-.22l-2.49,1a7.31,7.31,0,0,0-1.69-1l-.38-2.65A.49.49,0,0,0,14,2H10a.49.49,0,0,0-.49.42L9.13,5.07a7.68,7.68,0,0,0-1.69,1L5,5.05a.49.49,0,0,0-.61.22l-2,3.46a.49.49,0,0,0,.12.64L4.57,11a7.93,7.93,0,0,0-.07,1,7.93,7.93,0,0,0,.07,1L2.46,14.63a.5.5,0,0,0-.12.64l2,3.46A.5.5,0,0,0,5,19l2.49-1a7.31,7.31,0,0,0,1.69,1l.38,2.65A.49.49,0,0,0,10,22h4a.49.49,0,0,0,.49-.42l.38-2.65a7.68,7.68,0,0,0,1.69-1l2.49,1a.49.49,0,0,0,.61-.22l2-3.46a.5.5,0,0,0-.12-.64ZM12,15.5A3.5,3.5,0,1,1,15.5,12,3.5,3.5,0,0,1,12,15.5Z"/></symbol><symbol overflow="visible" viewBox="0 0 24 24" id="share"><path d="m17 16.08a2.91 2.91 0 0 0 -2 .77l-7.09-4.15a3.27 3.27 0 0 0 .09-.7 3.27 3.27 0 0 0 -.09-.7l7.09-4.11a3 3 0 1 0 -1-2.19 3.27 3.27 0 0 0 .09.7l-7.09 4.11a3 3 0 1 0 0 4.38l7.12 4.16a2.82 2.82 0 0 0 -.08.65 2.92 2.92 0 1 0 2.96-2.92z"/></symbol><symbol overflow="visible" viewBox="0 0 24 24" id="sqrt"><path d="m13 7h8v12h-8z" opacity=".6"/><path d="m23 3h-11.88l-3.91 15c-.09.41-.18.85-.27 1.26h-.09c-.11-.41-.22-.85-.37-1.26l-2.55-6.84-2.93 1.16.42.89 1.58-.63 3.28 8.42h1.39l4.51-17h10.82z"/></symbol><symbol overflow="visible" viewBox="0 0 24 24" id="star"><path d="m12 17.27 5.17 3.12a.5.5 0 0 0 .75-.54l-1.37-5.85 4.56-4a.5.5 0 0 0 -.29-.88l-6-.51-2.36-5.52a.5.5 0 0 0 -.92 0l-2.35 5.54-6 .51a.5.5 0 0 0 -.29.86l4.56 4-1.37 5.85a.5.5 0 0 0 .75.54z"/></symbol><symbol overflow="visible" viewBox="0 0 24 24" id="teacher"><path d="m22.42 5.92-9-3.68a4.26 4.26 0 0 0 -2.82 0l-9 3.68c-.77.32-.77.84 0 1.16l3.83 1.57 6.38-2.65a.5.5 0 1 1 .38.92l-5.44 2.27 3.84 1.57a4.26 4.26 0 0 0 2.82 0l9-3.68c.78-.32.78-.84.01-1.16z"/><path d="m6 18h1v-2.27a10.37 10.37 0 0 1 -1-.42z"/><path d="m6 19-2 2c0 .55 1.12 1 2.5 1s2.5-.45 2.5-1l-2-2z"/><path d="m4 9.15v3.85c0 .89.76 1.69 2 2.31v-5.31z"/><path d="m12.7 11.94h-.45l-.25.06h-.06c-.15 0-.29 0-.43 0a4.68 4.68 0 0 1 -1.3-.27l-3.21-1.36v5.36a15.45 15.45 0 0 0 5 .77c4.42 0 8-1.57 8-3.5v-3.85l-6.21 2.54a4.47 4.47 0 0 1 -1.09.25z"/></symbol><symbol overflow="visible" viewBox="0 0 24 24" id="tiles"><path d="m4 8h4v-4h-4zm6 12h4v-4h-4zm-6 0h4v-4h-4zm0-6h4v-4h-4zm6 0h4v-4h-4zm6-10v4h4v-4zm-6 4h4v-4h-4zm6 6h4v-4h-4zm0 6h4v-4h-4z"/></symbol><symbol overflow="visible" viewBox="0 0 120 36" id="title-io"><g fill="#fff"><path d="m23.9 23.9-.9-11-4.3 11.1h-1.5l-4.4-11-.8 11h-1.7l1.1-13.8h2.3l4.3 11.2 4.3-11.3h2.3l1.1 13.8z"/><path d="m34.2 23.9-.2-1.3a4.48 4.48 0 0 1 -3.4 1.5 2.49 2.49 0 0 1 -2.8-2.2v-.5c0-2.4 2-3.3 6-3.7v-.4c0-1.2-.7-1.6-1.8-1.6a7.64 7.64 0 0 0 -3.3.8l-.2-1.5a9.46 9.46 0 0 1 3.7-.8c2.3 0 3.4.9 3.4 3.1v6.7zm-.3-4.8c-3.5.3-4.3 1.3-4.3 2.3a1.32 1.32 0 0 0 1.4 1.2 4.1 4.1 0 0 0 2.8-1.3z"/><path d="m41.6 24.1c-1.7 0-2.8-.6-2.8-2.5v-5.7h-1.4v-1.5h1.4v-3.2l1.7-.3v3.4h2.1l.2 1.5h-2.2v5.4c0 .8.3 1.3 1.3 1.3h.8l.2 1.5z"/><path d="m51.1 23.9v-6.5c0-1-.4-1.6-1.5-1.6a3.93 3.93 0 0 0 -2.8 1.5v6.6h-1.7v-14.2l1.8-.3v6.2a4.82 4.82 0 0 1 3.2-1.5 2.49 2.49 0 0 1 2.8 2.1v7.7z"/><path d="m56.7 12.4a1.1 1.1 0 1 1 1.1-1.1 1.11 1.11 0 0 1 -1.1 1.1zm-.9 11.5v-9.5h1.8v9.5z"/><path d="m64.1 27.5a8.89 8.89 0 0 1 -3.6-.7l.3-1.7a6.65 6.65 0 0 0 3.4.9c1.7 0 2.4-.9 2.4-2.2v-1.2a3.93 3.93 0 0 1 -2.9 1.3c-2.1 0-3.8-1.5-3.8-4.6s1.9-5.1 4.7-5.1a11.48 11.48 0 0 1 3.7.6v8.9c.1 2.3-1.2 3.8-4.2 3.8zm2.5-11.4a6.28 6.28 0 0 0 -1.9-.3c-1.9 0-2.9 1.1-2.9 3.5s.9 3.1 2.2 3.1a3.47 3.47 0 0 0 2.6-1.6z"/><path d="m75 24.1c-2.5 0-4.4-1.8-4.4-5s1.8-5 4.4-5 4.4 1.8 4.4 5-1.8 5-4.4 5zm0-8.4c-1.7 0-2.6 1.5-2.6 3.5s.9 3.5 2.6 3.5 2.6-1.5 2.6-3.5-.9-3.5-2.6-3.5z"/><path d="m87.7 23.9v-6.5c0-1-.4-1.6-1.5-1.6a3.93 3.93 0 0 0 -2.8 1.5v6.6h-1.7v-9.5h1.4l.2 1.4a5.43 5.43 0 0 1 3.4-1.6 2.49 2.49 0 0 1 2.8 2.2v7.5z"/></g><path d="m92.3 23.92v-2.38h2v2.39z" fill="#cd0e66"/><path d="m98 12.44a1.14 1.14 0 0 1 -1.15-1.11 1.17 1.17 0 0 1 1.15-1.15 1.14 1.14 0 0 1 1.12 1.14 1.1 1.1 0 0 1 -1.12 1.12zm-.9 11.47v-9.54h1.78v9.54z" fill="#cd0e66"/><path d="m105.66 24.09c-2.54 0-4.38-1.81-4.39-4.95s1.83-5 4.37-5 4.45 1.83 4.45 5-1.87 4.94-4.43 4.95zm0-8.44c-1.73 0-2.58 1.48-2.58 3.48s.91 3.48 2.59 3.48 2.64-1.49 2.63-3.49-.93-3.48-2.65-3.47z" fill="#cd0e66"/></symbol><symbol overflow="visible" viewBox="0 0 100 36" id="title"><g fill="#fff"><path d="m22.9 24.9-.9-11-4.3 11.1h-1.5l-4.4-11-.8 11h-1.7l1.1-13.8h2.3l4.3 11.2 4.3-11.3h2.3l1.1 13.8z"/><path d="m33.2 24.9-.2-1.3a4.48 4.48 0 0 1 -3.4 1.5 2.49 2.49 0 0 1 -2.8-2.2v-.5c0-2.4 2-3.3 6-3.7v-.4c0-1.2-.7-1.6-1.8-1.6a7.64 7.64 0 0 0 -3.3.8l-.2-1.5a9.46 9.46 0 0 1 3.7-.8c2.3 0 3.4.9 3.4 3.1v6.7zm-.3-4.8c-3.5.3-4.3 1.3-4.3 2.3a1.32 1.32 0 0 0 1.4 1.2 4.1 4.1 0 0 0 2.8-1.3z"/><path d="m40.6 25.1c-1.7 0-2.8-.6-2.8-2.5v-5.7h-1.4v-1.5h1.4v-3.2l1.7-.3v3.4h2.1l.2 1.5h-2.2v5.4c0 .8.3 1.3 1.3 1.3h.8l.2 1.5z"/><path d="m50.1 24.9v-6.5c0-1-.4-1.6-1.5-1.6a3.93 3.93 0 0 0 -2.8 1.5v6.6h-1.7v-14.2l1.8-.3v6.2a4.82 4.82 0 0 1 3.2-1.5 2.49 2.49 0 0 1 2.8 2.1v7.7z"/><path d="m55.7 13.4a1.1 1.1 0 1 1 1.1-1.1 1.11 1.11 0 0 1 -1.1 1.1zm-.9 11.5v-9.5h1.8v9.5z"/><path d="m63.1 28.5a8.89 8.89 0 0 1 -3.6-.7l.3-1.7a6.65 6.65 0 0 0 3.4.9c1.7 0 2.4-.9 2.4-2.2v-1.2a3.93 3.93 0 0 1 -2.9 1.3c-2.1 0-3.8-1.5-3.8-4.6s1.9-5.1 4.7-5.1a11.48 11.48 0 0 1 3.7.6v8.9c.1 2.3-1.2 3.8-4.2 3.8zm2.5-11.4a6.28 6.28 0 0 0 -1.9-.3c-1.9 0-2.9 1.1-2.9 3.5s.9 3.1 2.2 3.1a3.47 3.47 0 0 0 2.6-1.6z"/><path d="m74 25.1c-2.5 0-4.4-1.8-4.4-5s1.8-5 4.4-5 4.4 1.8 4.4 5-1.8 5-4.4 5zm0-8.4c-1.7 0-2.6 1.5-2.6 3.5s.9 3.5 2.6 3.5 2.6-1.5 2.6-3.5-.9-3.5-2.6-3.5z"/><path d="m86.7 24.9v-6.5c0-1-.4-1.6-1.5-1.6a3.93 3.93 0 0 0 -2.8 1.5v6.6h-1.7v-9.5h1.4l.2 1.4a5.43 5.43 0 0 1 3.4-1.6 2.49 2.49 0 0 1 2.8 2.2v7.5z"/></g></symbol><symbol overflow="visible" viewBox="0 0 24 24" id="tumbler"><path d="m18.26 16.57-.08-.05h-2.73c-.13 0-.13-.39-.13-.52v-4.76a.08.08 0 0 1 .08-.09h3.18a.08.08 0 0 0 .09-.08v-4.81a.09.09 0 0 0 -.09-.08h-3.17a.09.09 0 0 1 -.08-.08v-4a.09.09 0 0 0 -.08-.1h-6a1 1 0 0 0 -.95.86 4.6 4.6 0 0 1 -3.52 4.14h-.22l-.06.08v4a.08.08 0 0 0 .08.08h2.42v5.13c0 3.88 2.53 5.71 7.51 5.71 2 0 4.2-.71 4.86-1.58l.13-.17zm.28 3.55a5.71 5.71 0 0 1 -3.35 1.07h-.14c-4 0-4.74-3.08-4.74-4.91v-5.86a.08.08 0 0 0 -.08-.09h-2.32a.07.07 0 0 1 -.08-.08v-2.55l.05-.08a5.15 5.15 0 0 0 3.54-4.62c0-.14.13-.14.13-.14h2.88a.09.09 0 0 1 .08.08v4a.09.09 0 0 0 .08.08h3.17a.09.09 0 0 1 .09.08v3.17a.09.09 0 0 1 -.09.09h-3.18a.07.07 0 0 0 -.08.08v5.56c0 1.2.6 1.8 1.72 1.8a4 4 0 0 0 1.4-.28.08.08 0 0 1 .11 0l.83 2.48z"/></symbol><symbol overflow="visible" viewBox="0 0 24 24" id="tumblr"><path d="m18.26 16.57-.08-.05h-2.73c-.13 0-.13-.39-.13-.52v-4.76a.08.08 0 0 1 .08-.09h3.18a.08.08 0 0 0 .09-.08v-4.81a.09.09 0 0 0 -.09-.08h-3.17a.09.09 0 0 1 -.08-.08v-4a.09.09 0 0 0 -.08-.1h-6a1 1 0 0 0 -.95.86 4.6 4.6 0 0 1 -3.52 4.14h-.22l-.06.08v4a.08.08 0 0 0 .08.08h2.42v5.13c0 3.88 2.53 5.71 7.51 5.71 2 0 4.2-.71 4.86-1.58l.13-.17zm.28 3.55a5.71 5.71 0 0 1 -3.35 1.07h-.14c-4 0-4.74-3.08-4.74-4.91v-5.86a.08.08 0 0 0 -.08-.09h-2.32a.07.07 0 0 1 -.08-.08v-2.55l.05-.08a5.15 5.15 0 0 0 3.54-4.62c0-.14.13-.14.13-.14h2.88a.09.09 0 0 1 .08.08v4a.09.09 0 0 0 .08.08h3.17a.09.09 0 0 1 .09.08v3.17a.09.09 0 0 1 -.09.09h-3.18a.07.07 0 0 0 -.08.08v5.56c0 1.2.6 1.8 1.72 1.8a4 4 0 0 0 1.4-.28.08.08 0 0 1 .11 0l.83 2.48z"/></symbol><symbol overflow="visible" viewBox="0 0 24 24" id="twitter"><path d="m22 5.84a8.09 8.09 0 0 1 -2.36.63 4 4 0 0 0 1.81-2.27 8.23 8.23 0 0 1 -2.63 1 4.09 4.09 0 0 0 -7 3.73 11.68 11.68 0 0 1 -8.46-4.27 4.09 4.09 0 0 0 1.28 5.45 4 4 0 0 1 -1.82-.55 4.1 4.1 0 0 0 3.27 4.1 4.29 4.29 0 0 1 -1.82.09 4.08 4.08 0 0 0 3.82 2.81 8.21 8.21 0 0 1 -6.09 1.73 11.63 11.63 0 0 0 17.91-10.36 8.64 8.64 0 0 0 2.09-2.09z"/></symbol><symbol overflow="visible" viewBox="0 0 24 24" id="undo"><path d="m12.5 8a10.46 10.46 0 0 0 -6.9 2.6l-1.89-1.89a1 1 0 0 0 -1.71.7v5.59a1 1 0 0 0 1 1h5.59a1 1 0 0 0 .71-1.71l-1.91-1.91a8 8 0 0 1 12.31 2.62 1.23 1.23 0 0 0 1.5.64 1.25 1.25 0 0 0 .8-1.72 10.54 10.54 0 0 0 -9.5-5.92z"/></symbol><symbol overflow="visible" viewBox="0 0 24 24" id="user"><path d="m12 12a5 5 0 1 0 -5-5 5 5 0 0 0 5 5zm0 2c-3.34 0-10 1.79-10 5.33v1.34a1.29 1.29 0 0 0 1.25 1.33h17.5a1.29 1.29 0 0 0 1.25-1.33v-1.34c0-3.54-6.66-5.33-10-5.33z"/></symbol><symbol overflow="visible" viewBox="0 0 24 24" id="youtube"><path d="m18.35 4.65c-3-.2-9.7-.2-12.7 0-3.24.23-3.65 2.19-3.65 7.35s.4 7.12 3.65 7.35c3 .2 9.69.2 12.7 0 3.24-.23 3.65-2.19 3.65-7.35s-.4-7.12-3.65-7.35zm-8.85 10.68v-6.66l6.67 3.33z"/></symbol></svg>