<svg viewBox="0 0 100 100" xmlns="http://www.w3.org/2000/svg"><symbol overflow="visible" viewBox="0 0 100 100" id="abakus"><title>abakus</title><path d="M73,25.6H62.8a6,6,0,0,0-11.8,0H39.7a6,6,0,0,0-11.8,0H26.8V28h1.2a6,6,0,0,0,11.8,0H51a6,6,0,0,0,11.8,0H73V25.6ZM55.9,22.5a1.9,1.9,0,1,1,0,3.8C53.5,26.3,53.5,22.5,55.9,22.5Zm-23.2,0a1.9,1.9,0,1,1,0,3.8C30.3,26.3,30.3,22.5,32.7,22.5Z" fill-rule="evenodd"/><path d="M20.6,13.6c0-2.7,4.2-2.7,4.2,0V84.8H75.5V13.6c0-2.7,4.2-2.7,4.2,0,0,20.6,0,42.8,0,71.2h7a1.7,1.7,0,0,1,1.7,1.8,1.7,1.7,0,0,1-1.7,1.8H13.3a1.7,1.7,0,0,1-1.7-1.8,1.7,1.7,0,0,1,1.7-1.8h7.3C20.6,55.5,20.6,34,20.6,13.6Z" fill-rule="evenodd"/><rect x="16.6" y="63.3" width="5.1" height="2.39"/><rect x="78.4" y="63.3" width="5.1" height="2.39"/><rect x="16.6" y="44.1" width="5.1" height="2.39"/><rect x="78.4" y="44.1" width="5.1" height="2.39"/><rect x="16.6" y="25.6" width="5.1" height="2.39"/><rect x="78.4" y="25.6" width="5.1" height="2.39"/><path d="M73,44.1H71.5a6.1,6.1,0,0,0-5.9-4.8,6,6,0,0,0-5.7,4.1,6,6,0,0,0-11.4,0,6,6,0,0,0-5.7-4.1,6.1,6.1,0,0,0-5.9,4.8H26.8v2.4H36.9a6,6,0,0,0,11.6.6,6,6,0,0,0,11.4,0,6,6,0,0,0,11.6-.6H73V44.1ZM42.1,40.9c2.4,0,2.4,3.8,0,3.8A1.9,1.9,0,1,1,42.1,40.9Zm10.9,0c2.4,0,2.4,3.8,0,3.8A1.9,1.9,0,1,1,52.9,40.9Zm11.5,0c2.4,0,2.4,3.8,0,3.8A1.9,1.9,0,1,1,64.4,40.9Z" fill-rule="evenodd"/><path d="M73,63.3H71.5a6.1,6.1,0,0,0-5.9-4.8,6,6,0,0,0-5.7,4.1,6,6,0,0,0-5.7-4,6.1,6.1,0,0,0-5.9,4.8H39.7a6,6,0,0,0-11.8,0H26.8v2.4h1.2a6,6,0,0,0,11.8,0h8.6a6,6,0,0,0,5.9,4.7,6,6,0,0,0,5.7-4.1,6,6,0,0,0,5.7,4.1,6,6,0,0,0,5.9-4.7H73V63.3ZM33.1,60c2.4,0,2.4,3.8,0,3.8A1.9,1.9,0,1,1,33.1,60Zm20.3,0c2.4,0,2.4,3.8,0,3.8A1.9,1.9,0,1,1,53.3,60Zm11.3,0c2.4,0,2.4,3.8,0,3.8A1.9,1.9,0,1,1,64.6,60Z" fill-rule="evenodd"/></symbol><symbol overflow="visible" viewBox="0 0 100 100" id="art"><title>art</title><path d="M38.3,59.4c5.9.5,11-1.2,10.9-7.4l-2.3-2.1c-7,1.3-5.2,8.2-8.6,9.5ZM36.5,71.8c-.6-2.4.3-4.1,2.7-2.6h0c1.4.3,3.4.2,4.9.4,7.9,1,.8,14.3-7.9,4a1.2,1.2,0,0,1,.1-1.6l.2-.2Zm15.9,1.9a1.3,1.3,0,0,1,.8-1.2c.5-3.5,4.3-5.3,7.5-5.8,9.5-1.4,3.6,4.1,2.4,5.5-.6,6.9-9.2,6.7-10.7,2.3a1.1,1.1,0,0,1,.1-.8Zm16-11.2a1.2,1.2,0,0,1,0-.9h0v-.3a1.2,1.2,0,0,1,.1-.4c.2-1.9.6-4.2,2.7-4.8,12.4-3.7-1.9,23.6-2.7,6.5ZM63.8,43.7c-.6.5-2.2,1-1.7,1.9a10.6,10.6,0,0,1,1.7,4c.2,1,2.5,2.5,3.7,1.6s2.3-2.6,2.3-3.2a4.2,4.2,0,0,0-1-2.4c-.9-1.1-3.6-3.1-5-1.8ZM28,58.8c2.6-.2,2.5,1.4,3.7,2.6h.4c5.4,2.8-4.9,10.3-6.8,5.2S24,61.2,27,58.9a1.1,1.1,0,0,1,1-.1Z" fill-rule="evenodd"/><path d="M69.8,37.3l-2,2.5c6.1,2.6,10.6,9.2,11.4,15.7,1.5,12-5.7,21.1-16.4,25C44.1,87.3,22.1,76,18.3,56.9,12.5,28.1,44.3,18.4,50.7,26c2.8,3.4-3.1,8.5.9,12.4a30.9,30.9,0,0,1,2.2-2.8c-1.5-2.5,3.8-6.3-.4-11.4s-13.5-4-20-1.2C18.6,29.3,10.8,45.2,16.5,61.8S41.3,89,59.1,85.3c8-1.7,15.3-6,19.7-12.7,8.6-13.2,2.6-29.8-9-35.2Zm14-23.1C75.5,21,62,31.7,55,39.8c-3.1,3.6-4.1,5.6-7,9.4l2.1,2.1c3.7-2.9,5.8-4,9.4-7,8.1-7,18.9-20.5,25.7-28.8a.9.9,0,0,0-1.3-1.3ZM39.7,32.6c6.2-1.3,10.4,4.6,6.7,9.1s-11.2,3.3-12.3-1.9c-.7-3.5,2.2-6.5,5.6-7.3ZM43.2,36c-3.8-2.2-8.4,3.2-5,5s8.5-2.9,5-5Z" fill-rule="evenodd"/></symbol><symbol overflow="visible" viewBox="0 0 100 100" id="badge"><title>badge</title><path d="M35.7,60.4,29,78.8l2.9-.9,5.7-15.7,1.9,3.9,5.9-2.6,3.1,3,.2.7L41,88.3l-5.8-8.9L25.1,82.5l8-21.9,2.6-.2ZM45,32.3a4.4,4.4,0,0,0,2.9-2.1,1.1,1.1,0,0,1,1.1-.7h3.6a1.1,1.1,0,0,1,1.1,1.1c0,9.3,0,12.4,0,15.7a1.1,1.1,0,0,1-1.1,1.1H49.6a1.1,1.1,0,0,1-1.1-1.1c0-6.7,0,.1,0-11.1a6.2,6.2,0,0,1-3.3,1.2A1.1,1.1,0,0,1,44,35.3V33.4a1.1,1.1,0,0,1,1-1.1ZM39.4,43.4a.9.9,0,0,1-1.6.9A14,14,0,0,1,59.9,27.4a.9.9,0,0,1-1.3,1.3A12.2,12.2,0,0,0,39.4,43.4ZM66.9,60.6l8,21.9L64.8,79.5,59,88.3,51.2,66.9,53.1,65,59.6,83l1.7-2.5L55.2,63.8l5.3,2.4,2.8-5.8,3.6.3ZM50,11.7l3.9,3.8,4.9-2.2,2.3,4.9,5.4-.4L67,23l5.2,1.5-1.3,5.2,4.4,3.2-3,4.5,3,4.5-4.4,3.2,1.3,5.2L67,51.6,66.5,57l-5.4-.4-2.3,4.9-4.9-2.2L50,63l-3.9-3.8-4.9,2.2-2.3-4.9-5.4.4L33,51.6l-5.2-1.5,1.3-5.2-4.4-3.2,3-4.5-3-4.5,4.4-3.2-1.3-5.2L33,23l.5-5.4,5.4.4,2.3-4.9,4.9,2.2L50,11.7ZM50,21A16.4,16.4,0,1,1,33.6,37.3,16.4,16.4,0,0,1,50,21Z" fill-rule="evenodd"/></symbol><symbol overflow="visible" viewBox="0 0 100 100" id="bag"><title>bag</title><path d="M36.2,23.5c.7-8.4,17.1-8.8,23.3-5.6,3.7,1.9,4.3,4.2,4.4,7.6s-3.4,1.7-3.5,0-.2-3.3-2.6-4.5c-5-2.6-17.9-1.8-18.3,2.8-.2,2.6-.1,2.8-2,3.1s-1.5-2.5-1.5-3.4ZM66,54.5c.3,2.7.5,9.5.5,11.1,0,5.2-1.9,10.4-7.6,10.4-3.1,0-17.9.3-19.8-.3-4.3-1.2-5.6-5.8-5.6-10.1,0-1.6.2-8.5.5-11.1l-4-3.7c-1.3,4.9-5.1,29.6,4.1,29.6H65.9c9.2,0,5.4-24.7,4.1-29.6l-4,3.7ZM41.9,57.7c0,1.8-.3,5.3,3.1,5.3H55c3.5,0,3.1-3.6,3.1-5.4l-2.4.5c0,1.1.3,2.5-.7,2.5H45c-.9,0-.7-1.3-.7-2.4l-2.4-.4Zm-15-22.1c1-7,17.4-7.6,23.8-7.6s21.4,1,22.4,7.6-.7,10.6-.7,11l.7,2.3c3.5,1.1,6.6,3.1,8,6.5s2.2,10,2.3,14.2c.1,8.6-3.3,13.4-11.9,11.9a7.5,7.5,0,0,1-5.6,2.4H34.1a7.5,7.5,0,0,1-5.7-2.5c-8.6,1.7-11.9-3.4-11.8-11.8.1-4.2,1-11.1,2.3-14.2s4.6-5.4,8-6.5l.7-2.3c0-.4-1.8-3.9-.7-11Zm8.3-2.5c-5.1,1.5-5.1,2.4-5.1,6.8,0,9.2,6,13.4,14.1,14.7s16.5.5,21.7-4.3,4.6-8.5,3.8-14.2c-.2-1.2-2.1-2.2-4.8-3-7.6-2.3-22.3-2.2-29.6,0ZM74,77.3l-.4,1c5.5.4,6.4-3.3,6.4-8.7-.1-3.7-.9-10.1-2-12.9A7.6,7.6,0,0,0,74.1,53c1.4,6.5,2.1,18.1-.1,24.3ZM24.6,67.4A85.6,85.6,0,0,1,25.9,53a7.6,7.6,0,0,0-3.8,3.7c-1.4,3.5-3.5,15.9-.5,20.1,1,1.4,3,1.6,4.8,1.4a28.1,28.1,0,0,1-1.8-10.9Z" fill-rule="evenodd"/></symbol><symbol overflow="visible" viewBox="0 0 100 100" id="book"><title>book</title><path d="M84.9,63.5l.8,4L57.1,70.3c7.5-3.5,16.4-5.8,22.6-6l4.2-.2a1.3,1.3,0,0,0,1-.6ZM58.8,32.3a1.3,1.3,0,1,0,.7,2.5,55.8,55.8,0,0,1,8.3-1.7,1.3,1.3,0,0,0-.3-2.6,58.8,58.8,0,0,0-8.7,1.7Zm-17.5,0a1.3,1.3,0,1,1-.7,2.5,55.8,55.8,0,0,0-8.3-1.7,1.3,1.3,0,1,1,.3-2.6,58.8,58.8,0,0,1,8.7,1.7ZM49.1,71l.2-7.5c0-1.6,1.4-1.6,1.4,0l.2,7.5c8.6-6.9,20.9-9.1,28.8-9.3h2.5L75.4,23.3A46.5,46.5,0,0,0,51,28.9l-.3,11.7c0,1.3-1.4,1.3-1.4,0L49,28.9a46.4,46.4,0,0,0-24.4-5.6L17.9,61.9h1.8c7.9.1,20.6,2,29.5,9ZM74.3,50c.9,0,1.2,2,.3,2a54.8,54.8,0,0,0-18.7,3.5c-.9.4-1-1.6,0-2C61.7,51.1,68,50.3,74.3,50Zm-.6-4.2c.9,0,1.1,1.8.2,1.9a54.7,54.7,0,0,0-18.2,3.5c-.9.4-.9-1.5,0-1.9a54.9,54.9,0,0,1,17.9-3.5Zm-.5-3.9c.9,0,1.1,1.7.2,1.8a54.2,54.2,0,0,0-17.7,3.5c-.9.4-.9-1.4,0-1.8a54.9,54.9,0,0,1,17.5-3.5Zm-.5-3.7c.8,0,1.1,1.6.2,1.7a56.3,56.3,0,0,0-17.3,3.5c-.9.3-.9-1.4,0-1.7a57.9,57.9,0,0,1,17.1-3.5ZM25.7,50c-.9,0-1.2,2-.3,2a54.8,54.8,0,0,1,18.7,3.5c.9.4,1-1.6,0-2C38.3,51.1,32,50.3,25.7,50Zm.6-4.2c-.9,0-1.1,1.8-.3,1.9a54.7,54.7,0,0,1,18.2,3.5c.9.4.9-1.5,0-1.9a54.9,54.9,0,0,0-17.9-3.5Zm.5-3.9c-.9,0-1.1,1.7-.2,1.8a54.2,54.2,0,0,1,17.7,3.5c.9.4.9-1.4,0-1.8a54.9,54.9,0,0,0-17.5-3.5Zm.5-3.7c-.8,0-1.1,1.6-.2,1.7a56.3,56.3,0,0,1,17.3,3.5c.9.3.9-1.4,0-1.7a57.9,57.9,0,0,0-17.1-3.5Zm27.9,33a1.9,1.9,0,0,0-.2.6c-1.1,4.8-8.9,4.8-10,0a1.9,1.9,0,0,0-.3-.6,22,22,0,0,1,4.3,3.2,1.3,1.3,0,0,0,1.8,0,21.6,21.6,0,0,1,4.3-3.2ZM43,70.3,14.3,67.5l.8-3.6a1.3,1.3,0,0,0,.8.6h3.7A61.7,61.7,0,0,1,43,70.3ZM20.4,29.9l-1.2-.3h-.1A1.9,1.9,0,0,0,16.8,31L10.1,68.7V69a2,2,0,0,0,1.8,2.1l29.9,2.9c2.9,7.1,13.8,7.1,16.7,0l29.9-2.9h.2A2,2,0,0,0,90,68.8L83.2,31.1v-.2a2,2,0,0,0-2.4-1.4l-1.2.3-1.8-8.1a1.3,1.3,0,0,0-1.2-1h0A48.9,48.9,0,0,0,50,26.4a48.9,48.9,0,0,0-26.6-5.7,1.3,1.3,0,0,0-1.2,1.1l-1.7,8Z" fill-rule="evenodd"/></symbol><symbol overflow="visible" viewBox="0 0 100 100" id="books-1"><title>books-1</title><path d="M67.4,71.1a11.1,11.1,0,0,1-1.2-8.7L29.6,58c-7.5-.8-6.6,6.9-.6,7.7l38.3,5.4Zm1.8-8.3a7.8,7.8,0,0,0,1.5,7.7l5.6-30.8-4.8,22a1.5,1.5,0,0,1-1.6,1.2h-.7Zm-1-3.2h.7l9.4-42.9-36-4.6c-1.5-.2-2.6,1.1-3,2.3L26,55.2a11.1,11.1,0,0,1,3.8-.3l38.3,4.6Zm-46.5-.7L36.4,13.4c.9-2.6,3.2-4.8,6.2-4.4l37.6,4.8c1.9.2,1.3,2.3.6,4.9a12.4,12.4,0,0,0,.1,7,3.1,3.1,0,0,0,.4.8,1.6,1.6,0,0,1,.2,1.1L73.2,73.5a1.5,1.5,0,0,1-1.7,1.3l-42.8-6c-5.4-.8-8.6-5.8-7-9.9Z" fill-rule="evenodd"/><path d="M20.8,54.7,13.5,41.6c-3-5.4-.5-10.7,5-12.5l11.9-3.9L20.8,54.7ZM39.2,87.5,30,71.1l29.5,4.1L45.3,81.1c-2.7,1.1-3.9,3.3-3.3,5.3s1.2,2,2.7,1.4L83.5,71.3a6.7,6.7,0,0,1-1.9-5l-5.3,2.2,3.3-18.1L87,62.1c1.1,1.7-1,2.4-2.1,2.8-.9,2.8.3,4,2.3,5.6h0a1.6,1.6,0,0,1-.3,2.6L45.8,90.6a4.8,4.8,0,0,1-6.6-3.1Z" fill-rule="evenodd"/><path d="M46.6,18.8,70.9,22l-1,4.6L45.2,23.4l1.4-4.6Zm23,9.1L69.1,30l-25-3.2.6-2.2,24.8,3.1ZM59.1,44.8l-1.3-7.3-4.7,6.6,5.9.7Zm9.7-13.4L64.7,50,61.2,33.5,56.7,33,43.6,50.4l-6.2-.7,6.4-21.4,25.1,3.2Zm-8.3,21L48.3,50.9,51,47.2l8.8,1.1.7,4.1Z" fill-rule="evenodd"/></symbol><symbol overflow="visible" viewBox="0 0 100 100" id="books-2"><title>books-2</title><path d="M64.8,19.2H79.7a4.3,4.3,0,0,1,3,1.3h0a4.3,4.3,0,0,1,1.2,3V77.7a4.3,4.3,0,0,1-4.3,4.3H64.8a4.2,4.2,0,0,1-3-1.2h-.1a4.2,4.2,0,0,1-1.1-2.9V23.5a4.2,4.2,0,0,1,1.2-3h0a4.2,4.2,0,0,1,3-1.2ZM80.3,68.6V23.5a.7.7,0,0,0-.2-.5h0l-.5-.2H64.8l-.5.2h0a.7.7,0,0,0-.2.5V77.7a.7.7,0,0,0,.2.4h0l.5.2H79.7l.5-.2.2-.4h0V68.6Z" fill-rule="evenodd"/><path d="M31.2,28a1.8,1.8,0,1,1,3.5.6L30.8,52a1.8,1.8,0,0,1-3.5-.6L31.2,28Zm17.6,14a1.8,1.8,0,1,1,3.6,0V57.9a1.8,1.8,0,0,1-3.6,0V42.1Zm7.5,25.4v8.7H44.8V67.5ZM47.7,32.1a1.8,1.8,0,1,1,0-3.6h5.8a1.8,1.8,0,1,1,0,3.6ZM80.3,77.8h0V68.6H69.5a2.2,2.2,0,0,0-2.2,2.2v1.4h2c6.1,0,10.8,2.7,11,5.6h0Zm0-29.5V30H69.5a2.2,2.2,0,0,0-2.2,2.2v1.4h2c6,0,10.6,2.6,11,5.5H69.5a2.2,2.2,0,0,0-2.2,2.2v1.4h2c6.1,0,10.8,2.7,11,5.6ZM73,58.8a.9.9,0,0,1,1.8,0v5.4a.9.9,0,0,1-1.8,0V58.8Zm-3.2,0a.9.9,0,0,1,1.8,0v5.4a.9.9,0,0,1-1.8,0V58.8ZM24.2,69.7a1.8,1.8,0,1,1,3.5.6v.3a1.8,1.8,0,0,1-3.5-.6v-.3Z" fill-rule="evenodd"/><path d="M28.1,18.1l12.8,2.1a2.1,2.1,0,0,1,1.8,2.5L33.1,79.6a2.1,2.1,0,0,1-2.5,1.8L18,79.2h-.2a2.1,2.1,0,0,1-1.2-.8h-.1a2.1,2.1,0,0,1-.3-1.3v-.2l9.5-56.8a2.1,2.1,0,0,1,2.5-1.8Zm11.6,4.8L28.3,21,19,76.5l11.4,1.9,9.3-55.5Z" fill-rule="evenodd"/><path d="M44.1,19.6H57a2.1,2.1,0,0,1,2.1,2.1V79.4A2.1,2.1,0,0,1,57,81.6H44.1a2.1,2.1,0,0,1-2.1-2.1V21.7a2.1,2.1,0,0,1,2.1-2.1Zm.7,2.9H56.3V78.7H44.8V22.4Z" fill-rule="evenodd"/></symbol><symbol overflow="visible" viewBox="0 0 100 100" id="brain"><title>brain</title><path d="M78,43.1a1.8,1.8,0,0,1-2.8-2.3,7.8,7.8,0,0,1,3.1-2.4l1-.3c-1.2-3-3.1-4.6-4.9-6.2l-.7-.6c-4.3-3.7-9.8-5.1-15.3-6.5l-3.1-.8a25.3,25.3,0,0,0-13.7-.3A15.2,15.2,0,0,0,37,25.8a1.8,1.8,0,0,1-.8.6,7.8,7.8,0,0,0-2.4,3.3,1.8,1.8,0,0,1-3.4-1.2l.4-1a16.7,16.7,0,0,0-4.3,1.9A12.7,12.7,0,0,0,22.3,34h.1a1.8,1.8,0,0,1-.6,3.5h-1l-.7.2a6.9,6.9,0,0,0-3.2,3.3A13.6,13.6,0,0,0,15.3,46a11.5,11.5,0,0,0,.6,5.3,8.2,8.2,0,0,0,1.5,2.5v-.2a1.8,1.8,0,1,1,3.3,1.5,3.6,3.6,0,0,0-.3.9,2.8,2.8,0,0,0,0,.6,1.8,1.8,0,0,1,.1.5,2.8,2.8,0,0,0,.4.8,4,4,0,0,0,1.8,1.5l1.3.4a9.4,9.4,0,0,0,3.4-.2,16.3,16.3,0,0,0,4.1-1.5,1.8,1.8,0,0,1,2.4.7l.2.4h0l.3,1.2A7,7,0,0,0,35.6,64a9.3,9.3,0,0,0,4.1,2.4,16.4,16.4,0,0,0,6,.6c.8-.1,1.5-.7,2.6-1.7h.1a1.8,1.8,0,0,1,2.9.8c.3,1,.8,1.6,1.4,1.7a5.2,5.2,0,0,0,3.1-.5,1.8,1.8,0,0,1,2,.4L66.5,77h.2l-.6-3.2a18.9,18.9,0,0,1-3.7-1.5A1.8,1.8,0,0,1,64.1,69a12.7,12.7,0,0,0,8.3,1.6,14.3,14.3,0,0,0,7.7-4.4A10.3,10.3,0,0,0,82.2,62a4.6,4.6,0,0,0,.1-2.9l-.2-.4h-.1a4.3,4.3,0,0,0-2-1.4h-.3a14.7,14.7,0,0,0-6.7.1A43.7,43.7,0,0,0,60.7,62l-2.3,1.5a1.8,1.8,0,0,1-2.1-2.9l2.7-1.7a47.5,47.5,0,0,1,13.5-5.2,18.7,18.7,0,0,1,7.9-.1,8.8,8.8,0,0,0,4-3.2c.8-1.4.8-3.3-.2-6a5.3,5.3,0,0,0-1.5-2.2,3,3,0,0,0-1.1-.6h-.3a2.8,2.8,0,0,0-1.4.2A4.2,4.2,0,0,0,78,43.1Zm5.2-4.6a6.7,6.7,0,0,1,1.6,1,8.8,8.8,0,0,1,2.6,3.6c1.5,3.8,1.3,6.7,0,9a10.1,10.1,0,0,1-3.3,3.4l.8.9H85l.5.7c.8,1.4.8,3.6.2,5.7a14,14,0,0,1-3,5.6A17.9,17.9,0,0,1,73,74.1a14.8,14.8,0,0,1-3.2.2l.7,3.6A1.8,1.8,0,0,1,69.2,80l-2.9.6h0a1.8,1.8,0,0,1-1.7-.5L55.9,71a7.4,7.4,0,0,1-4.2.2A5,5,0,0,1,49,69.4a5.5,5.5,0,0,1-3.1,1.2,20,20,0,0,1-7.3-.8A12.9,12.9,0,0,1,33,66.4a8.3,8.3,0,0,1-2.1-4.2l-2.9.9a12.9,12.9,0,0,1-4.8.2,8.6,8.6,0,0,1-2.2-.7,7.6,7.6,0,0,1-3.3-2.8,6.5,6.5,0,0,1-.7-1.6,11.5,11.5,0,0,1-4.6-5.7,15.1,15.1,0,0,1-.8-6.9,17.3,17.3,0,0,1,2-6.4A11,11,0,0,1,18,34.7a16.6,16.6,0,0,1,6.7-8.3A24.1,24.1,0,0,1,34.8,23a18.5,18.5,0,0,1,5.8-2.8,28.8,28.8,0,0,1,15.6.3l3.1.8c5.9,1.5,11.8,3,16.7,7.3l.7.6c2.5,2.1,5.2,4.4,6.5,9.3Z"/><path d="M66.9,64.3a1.2,1.2,0,0,1-1.7.2c-1.5-1.2.8-3.6,3.6-3.2l.9.2c2-2.6,6.1-3.6,8.4-1.3A1.2,1.2,0,0,1,76.5,62c-1.2-1.2-3.5-.4-4.7.9,2.3,2.3,1,5.5-.7,4.7a1.2,1.2,0,0,1-.6-1.6c.6-1.3-2.4-3.3-3.7-1.7ZM41.3,34.7c-2.4-1.6-7.6,1.6-6.1,4.8a1.2,1.2,0,0,1-2.2,1c-2.6-5.6,5.5-10.8,9.7-7.7l1.1-.9a4.2,4.2,0,0,0-3-2.8,1.2,1.2,0,0,1,.8-2.3A6.7,6.7,0,0,1,46,30.7a6.6,6.6,0,0,1,3.6-.6,7.8,7.8,0,0,1,2.2-4.6,1.2,1.2,0,0,1,1.8,1.6c-1,1.2-2,2.7-1.4,4.3h0a1.2,1.2,0,0,1-1.7,1.5,4.1,4.1,0,0,0-4,.3c-1.3.7-2.9,1.6-3.4,3.5a1.2,1.2,0,0,1-2.3-.6,7.2,7.2,0,0,1,.5-1.3ZM24.1,42.2c-.7,1.6-3.9.3-1.3-2.3s5.6-2.4,7.7-.4a1.2,1.2,0,0,1-1.7,1.7c-1.3-1.2-4.1-.5-4.7.9ZM21,45.8a1.2,1.2,0,0,1,1.9,1.5c-1,1.3.7,4.8,3.3,3.5a1.2,1.2,0,0,1,1,2.2c-5,2.4-8.8-3.8-6.3-7.1Zm5.2,1.8a1.2,1.2,0,0,1,2-1.3c1.3,1.9,5.3,1.6,7.6,1.5s2.1-4,1.9-5.7a1.2,1.2,0,0,1,2.4-.3,8.7,8.7,0,0,1-.8,4.6,6.2,6.2,0,0,1,3.3.2c1.7-2.3,3.9-3.4,6.6-2.9a11.8,11.8,0,0,1,1.8-1.9c-.8-2.1-1.5-3.5-4.1-3.4a1.2,1.2,0,0,1-.1-2.4c3.5-.1,5.2,1.7,6.3,4.4l2.2-1.1a6,6,0,0,1,1.5-1.8l1-1.1a5,5,0,0,0,1.3-4.8l-1.2-1.1a1.2,1.2,0,0,1,1.8-1.6c2.2,2.4,4.5,2.6,7.5.5a1.2,1.2,0,1,1,1.4,1.9c-2.3,1.7-4.7,2.3-6.9,1.6A6.8,6.8,0,0,1,59.3,38c-.6.7-2,1.8-2.1,2.3h0a1.2,1.2,0,0,1-.7.9,12.1,12.1,0,0,0-5.9,4.3,1.2,1.2,0,0,1-1.4.5,3.9,3.9,0,0,0-2.7,0,6,6,0,0,0-2.6,2.4,1.2,1.2,0,0,1-1.6.5c-3.2-1.6-5.8,1.1-7.3,3.5A10.1,10.1,0,0,0,33.9,55a1.2,1.2,0,0,1-2.3-.7,13.1,13.1,0,0,1,2.1-4.1c-2.8.1-5.9-.2-7.5-2.6Zm33.3,6.1a1.2,1.2,0,1,1,.9-2.2A5.4,5.4,0,0,1,62.5,53a1.2,1.2,0,0,1-1.8,1.6,3.2,3.2,0,0,0-1.2-.9Zm11.7-9.1A1.2,1.2,0,0,1,73,43a7.2,7.2,0,0,1,2.1,4.4,6.3,6.3,0,0,1,2.2.8,5.5,5.5,0,0,1,5.2-2.8,1.2,1.2,0,0,1-.1,2.4,3.4,3.4,0,0,0-3.4,2.3,1.2,1.2,0,0,1-2.2,1,2.9,2.9,0,0,0-2.2-1.3,7.6,7.6,0,0,1-2.7,2.7,1.2,1.2,0,0,1-1.3-2c2.7-1.7,2.8-3.3.6-5.7ZM40,55a1.2,1.2,0,1,1,1.4-2c2.7,1.8,5.6,2.3,7.4-.8a5,5,0,0,0-2-.1,1.2,1.2,0,0,1-.3-2.4,8.2,8.2,0,0,1,8.7,5.6,1.2,1.2,0,0,1-2.3.8,6.3,6.3,0,0,0-2-2.8,6.4,6.4,0,0,1-6.1,3.6,9.2,9.2,0,0,1-.4,1.8c2.5-.2,5.4.5,6.6,2.8a1.2,1.2,0,0,1-2.1,1.1,3.1,3.1,0,0,0-2.1-1.4,8.3,8.3,0,0,0-3.7.1A10.7,10.7,0,0,1,41.1,63a1.2,1.2,0,0,1-1.5-1.9,7,7,0,0,0,2.8-4.9A11.8,11.8,0,0,1,40,55Zm16.4-6.6a1.2,1.2,0,0,1-1.1-2.1,7.4,7.4,0,0,1,2.2-.7c.6-4.5,4.4-7.1,8.8-6.7,1.3-3.4,5.5-4.4,8.9-2.6A1.2,1.2,0,0,1,74,38.3a4.2,4.2,0,0,0-4.8.3c-1.4,1.3-1,3.3-.1,5A1.2,1.2,0,0,1,67,44.8a8.4,8.4,0,0,1-1.1-3.6c-3-.2-5.6,1.4-6,4.6a6.4,6.4,0,0,1,3.2,2.7,1.2,1.2,0,0,1-2,1.3c-1.3-1.9-2.7-2.4-4.8-1.4Z"/></symbol><symbol overflow="visible" viewBox="0 0 100 100" id="bus-1"><title>bus-1</title><path d="M86.7,36.5a2.4,2.4,0,0,0-2.4-2.4H74.8a.7.7,0,0,0-.7.7V44a.7.7,0,0,0,.7.7H85.9a.7.7,0,0,0,.7-.7V36.5ZM44.9,47.2a.9.9,0,0,0,0,1.8h41a.9.9,0,0,0,0-1.8Zm3.8,16.4-5.8,2.3H28.3l-.8-5.2A8.9,8.9,0,0,0,18,54.1c-5.9.5-8.1,4.6-8.4,9.6-4.2,0-3.7.4-3.7-4a1,1,0,0,1,.9-1,2.2,2.2,0,0,0,1.7-2.1c0-8.4.2-10.8,17.4-11.9A2.3,2.3,0,0,0,28,43L30,34.1a1.3,1.3,0,0,1-1.2-1.3V30.3a1.3,1.3,0,0,1,1.3-1.3H86.5c3.3,0,6,3.4,6,7.6V55.9c0,1,0,1.9.6,2.1s1,.9,1,4A1.1,1.1,0,0,1,93,63l-11.4.6v-.4h0a9.1,9.1,0,1,0-18.3.4ZM42.2,49.2H34.5a1.1,1.1,0,1,1,0-2.2h7.6V34.9a.7.7,0,0,0-.7-.7H33.2a.8.8,0,0,0-.7.7l-1.9,9.9v18a.7.7,0,0,0,.7.7H41.4a.7.7,0,0,0,.7-.7V49.2ZM56.8,44V34.9a.7.7,0,0,0-.7-.7H45.6a.7.7,0,0,0-.7.7V44a.7.7,0,0,0,.7.7H56a.7.7,0,0,0,.7-.7Zm2.7-9.1V44a.7.7,0,0,0,.7.7H70.6a.7.7,0,0,0,.7-.7V34.9a.7.7,0,0,0-.7-.7H60.2a.7.7,0,0,0-.7.7Z" fill-rule="evenodd"/><path d="M72.1,55.3a7.9,7.9,0,1,1-5.6,13.5h0a7.9,7.9,0,0,1,5.6-13.5Zm2.5,5.4c-3.3-3.3-8.3,1.7-5,5h0c3.3,3.3,8.3-1.7,5-5ZM18.4,55.3a7.9,7.9,0,1,1-5.6,13.5h0a7.9,7.9,0,0,1,5.6-13.5Zm2.5,5.4c-3.3-3.3-8.3,1.7-5,5h0c3.3,3.3,8.3-1.7,5-5Zm51.2,1.6a.9.9,0,0,1,0,1.9.9.9,0,0,1,0-1.9Zm-53.7,0a.9.9,0,0,1,0,1.9.9.9,0,0,1,0-1.9Z" fill-rule="evenodd"/></symbol><symbol overflow="visible" viewBox="0 0 100 100" id="globe"><title>globe</title><path d="M71.5,91H36.9a2.4,2.4,0,0,1-.5-4.7l15.4-3.4V78.3A35.2,35.2,0,0,1,23.6,60.8h0c-4.9-8-5.8-18.3-3.5-26.8a35.2,35.2,0,0,1,15-20.6c-.7-1.2-2.1-3-.4-3.9s2.5,1.1,3.2,2.3L45,9.1c3-.8,4.3,3.8,1.2,4.6l-7.4,3h0A30.5,30.5,0,0,0,27.7,58.4h0A30.5,30.5,0,0,0,69.4,69.6h0l6.3-4.9c2.2-2.2,5.6,1.2,3.4,3.4l-5.9,4.8c.7,1.2,2.1,3,.4,4s-2.5-1.2-3.2-2.4a35.1,35.1,0,0,1-13.8,3.9v4.6l15.2,3.4a2.4,2.4,0,0,1-.3,4.8Z" fill-rule="evenodd"/><path d="M67.8,66.5h-.3a27,27,0,1,1-6.4-49.6c23.1,6.2,27.3,37.3,6.7,49.4ZM44.6,23.5,48.4,30a30.5,30.5,0,0,0,4.1-3.2,30.4,30.4,0,0,0-7.8-3.2ZM50,32.8,54.7,41l7.9-4.5a30.4,30.4,0,0,0-7.3-7.8A33.6,33.6,0,0,1,50,32.8Zm6.3,11L61,51.9a33.6,33.6,0,0,1,6.2-2.5,30.4,30.4,0,0,0-3.1-10.2l-7.9,4.5Zm6.3,11,3.7,6.4a30.4,30.4,0,0,0,1.1-8.4,30.5,30.5,0,0,0-4.8,1.9Zm.9,8.1-3.7-6.4a30.5,30.5,0,0,0-4.1,3.2,30.4,30.4,0,0,0,7.8,3.2Zm-5.3-9.3-4.7-8.2-7.9,4.5A30.4,30.4,0,0,0,53,57.7a33.7,33.7,0,0,1,5.3-4.2Zm-6.3-11-4.7-8.2a33.7,33.7,0,0,1-6.2,2.5A30.4,30.4,0,0,0,44,47.1l7.9-4.5Zm-6.3-11-3.7-6.4a30.4,30.4,0,0,0-1.1,8.4,30.5,30.5,0,0,0,4.8-2Zm.8-10.9a33.6,33.6,0,0,1,8.4,3.7,30.4,30.4,0,0,0,3.3-4.7,23.7,23.7,0,0,0-11.7.9Zm11,5.6a33.6,33.6,0,0,1,7.9,8.6l8.5-4.9a23.7,23.7,0,0,0-12.5-9.4,33.6,33.6,0,0,1-3.9,5.7ZM67,37.6a33.7,33.7,0,0,1,3.5,11.1,33.7,33.7,0,0,1,6.9-.5,23.7,23.7,0,0,0-1.9-15.5L67,37.6ZM70.7,52a33.7,33.7,0,0,1-1,9.1,23.7,23.7,0,0,0,6.6-9.6,30.5,30.5,0,0,0-5.7.5ZM61.8,65.7a33.7,33.7,0,0,1-8.4-3.7,30.4,30.4,0,0,0-3.3,4.7,23.7,23.7,0,0,0,11.7-.9ZM50.7,60.1a33.7,33.7,0,0,1-7.9-8.6l-8.5,4.9a23.7,23.7,0,0,0,12.5,9.4,33.6,33.6,0,0,1,3.9-5.7ZM41.2,48.7a33.7,33.7,0,0,1-3.5-11.1,33.7,33.7,0,0,1-6.9.5,23.7,23.7,0,0,0,1.9,15.5l8.5-4.9ZM37.5,34.4a33.6,33.6,0,0,1,1-9.1,23.7,23.7,0,0,0-6.7,9.7,30.5,30.5,0,0,0,5.7-.6Z" fill-rule="evenodd"/></symbol><symbol overflow="visible" viewBox="0 0 100 100" id="homework"><title>homework</title><path d="M37.1,27.4a1.8,1.8,0,0,1-1.9,1.9l-12.4-.5a251.1,251.1,0,0,0,1.4,56l53.6-2.9c-4.2-22.7-4-42-1.3-65l-40-1.6.6,12.1ZM32.6,75.8a1.2,1.2,0,1,1-.1-2.4L68.4,72a1.2,1.2,0,0,1,.1,2.4L32.6,75.8ZM31,60.1a1.2,1.2,0,0,1-.1-2.4l35.9-1.4a1.2,1.2,0,0,1,.1,2.4L31,60.1Zm.8,7.9a1.2,1.2,0,0,1-.1-2.4l35.9-1.4a1.2,1.2,0,0,1,.1,2.4L31.8,68Zm1.6-55.9a1.8,1.8,0,0,1,1.4-.5l43.7,1.7a1.8,1.8,0,0,1,1.9,2c-3,24.3-3.2,44,1.4,67.9a1.8,1.8,0,0,1-1.7,2.1L22.8,88.4a1.8,1.8,0,0,1-1.9-1.5c-2.7-18.8-3.7-41.3-1.5-60.2a2,2,0,0,1,.5-1.1L33.3,12.1ZM33,17.5l-7.7,7.7,8.1.3-.4-8ZM72,32.2c.2.2.4.2.4.6s0,.5-.4.6-3.8,1.2-4.5,1.4a20,20,0,0,1,.1,4.4c-.1,1.6-1.2,1.3-1.6.1a18.8,18.8,0,0,1-.9-3.9,17.1,17.1,0,0,1-3.7.6c-1-.1-.8-2.7-.2-2.7a16.6,16.6,0,0,0,3.4-.4c-.2-1.5-.3-2.9-.5-4.4s2.6-1.3,2.8-.1.2,2.6.3,3.9c1.3-.3,3.5-.7,4.6-.1ZM55.8,34.3l1.3,3.9c6.7.1,7.6,2.4.9,2.8a39.2,39.2,0,0,1,1.8,7.7.6.6,0,0,1-1.1.3,54.6,54.6,0,0,1-3.4-7.8l-4.2.3c-.4,2.2-.7,4.3-1,6.5-.6,3.7-3.8,3.2-3.3-.5.3-1.9.6-3.8,1-5.7l-3.3.2c-.8.1-1-3.3-.2-3.3l4.1-.2a135.2,135.2,0,0,0,1.9-13.9,1.6,1.6,0,0,1,3.2-.2,61.2,61.2,0,0,0,2.3,10ZM52.5,33c-.2,1.5-.4,3.3-.7,5.3h2.5c-.7-2-1.2-3.4-1.8-5.3Z"/></symbol><symbol overflow="visible" viewBox="0 0 100 100" id="laurels"><title>laurels</title><path d="M69.4,22a13.5,13.5,0,0,1-.1,2.3,36.7,36.7,0,0,1,5.8,9.6,6.1,6.1,0,0,0,2.2-4.6.9.9,0,0,0-1.8,0,3.6,3.6,0,0,1-.8,2.4,12.6,12.6,0,0,0-1-2.9c-1-2.2-1.8-4.2-.4-7.5a1.2,1.2,0,0,1,1.8-.5c4.4,3.3,8.1,8.2,4.4,13.2a15,15,0,0,1-3.3,3,34.7,34.7,0,0,1,1.2,13.7A7.4,7.4,0,0,0,82.6,48a.9.9,0,0,0-1.4-1.1,5.3,5.3,0,0,1-3,1.9,14.4,14.4,0,0,0,.7-2.5c.6-2.8,1.2-5.7,5-7.7a1.2,1.2,0,0,1,1.8.6C86.8,43,87.3,47,85.2,50s-4.9,3.4-8.1,3.4A34.2,34.2,0,0,1,73,64.2a7.8,7.8,0,0,0,6.6-1.7.9.9,0,0,0-1.2-1.3,5.5,5.5,0,0,1-3.8,1.4l.9-1.2c2.2-2.8,4.6-6,10.5-5.4a1.2,1.2,0,0,1,1.1,1.3c-.6,8.5-7.9,12.4-16,9.8A35.4,35.4,0,0,1,61.7,76l.2.2a13.3,13.3,0,0,0,8.6,1.3.9.9,0,0,0-.3-1.8,12.4,12.4,0,0,1-6-.4c4.1-1.6,7.7-5.9,14.8-2.2h0a1.2,1.2,0,0,1,.5,1.6C76.3,81.2,69.7,83.4,63,80a21.2,21.2,0,0,1-3.6-2.4h-.4a57.6,57.6,0,0,1-5.6,2.5,23.5,23.5,0,0,1,6.9,4,1.2,1.2,0,0,1-1.6,1.8c-2.2-2-5.3-3.3-8.6-4.5-3.3,1.3-6.4,2.5-8.6,4.5a1.2,1.2,0,0,1-1.6-1.8,23.5,23.5,0,0,1,6.9-4,57.5,57.5,0,0,1-5.6-2.5h-.4c-3.5,2.9-7.8,4.6-11.9,3.8a12.2,12.2,0,0,1-8.3-6.7,1.2,1.2,0,0,1,.5-1.6h0c7.1-3.7,10.8.6,14.8,2.2a12.4,12.4,0,0,1-6,.4.9.9,0,0,0-.3,1.8,13.3,13.3,0,0,0,8.6-1.3l.2-.2a35.4,35.4,0,0,1-9.4-9.1c-8.1,2.6-15.4-1.3-16-9.8a1.2,1.2,0,0,1,1.1-1.3c5.9-.6,8.4,2.6,10.5,5.4l.9,1.2a5.5,5.5,0,0,1-3.8-1.4.9.9,0,0,0-1.2,1.3A7.8,7.8,0,0,0,27,64.2a34.2,34.2,0,0,1-4.1-10.8c-5.3,0-9.4-2.6-9.5-8.2a17.5,17.5,0,0,1,1-5.9,1.2,1.2,0,0,1,1.8-.6c3.9,2,4.5,4.9,5,7.7a14.3,14.3,0,0,0,.7,2.5,5.3,5.3,0,0,1-3-1.9A.9.9,0,0,0,17.4,48a7.4,7.4,0,0,0,5.1,2.7,34.6,34.6,0,0,1,1.2-13.7,15,15,0,0,1-3.3-3c-3.8-5-.1-9.9,4.4-13.2a1.2,1.2,0,0,1,1.8.5c1.5,3.3.6,5.3-.4,7.5a12.6,12.6,0,0,0-1,2.9,3.6,3.6,0,0,1-.8-2.4.9.9,0,0,0-1.8,0,6.1,6.1,0,0,0,2.2,4.6,36.7,36.7,0,0,1,5.8-9.6c-.6-5.7,2.1-9.3,8-10.2a24.5,24.5,0,0,1,5-.2,1.2,1.2,0,0,1,1.1,1.6c-.9,3.7-2.3,6.6-4.3,8.4a9.6,9.6,0,0,1-8,2.2,34.3,34.3,0,0,0-5.2,8.7,13,13,0,0,0,2.7-2.7c2.1-2.5,4.2-5,9.9-4.4h0a1.2,1.2,0,0,1,.7,2.1c-4.3,3.8-3.9,9.6-14.4,8.2a32.1,32.1,0,0,0-1.3,11.1c1.3-4.2,2.2-9.2,6.8-10a1.5,1.5,0,0,1,1.5.3,1.3,1.3,0,0,1,.2,1.3c-1.2,5.7,2.2,10.7-8,12.6A31.8,31.8,0,0,0,29,62.8c.1-4-1.4-8.5,5.1-11.3h0a1.2,1.2,0,0,1,1.7,1.1c-.1,5.7,4.3,10.2-4.6,13.5a32.9,32.9,0,0,0,7.6,7.4c-1.5-3.4-3.8-6.7,1-12.1h0a1.2,1.2,0,0,1,2,.4c2,5.1,7.8,7,1.3,14.2,2.2,1.1,4.5,1.9,6.7,2.8.4.1.3.1.6,0,2.2-.8,4.4-1.7,6.7-2.8-6.5-7.2-.7-9.1,1.3-14.2a1.2,1.2,0,0,1,2-.4h0c4.7,5.3,2.6,8.3,1,12.1a32.8,32.8,0,0,0,7.6-7.4c-8.9-3.4-4.5-7.8-4.6-13.5a1.2,1.2,0,0,1,1.7-1.1h0c6.4,2.8,5,6.9,5.1,11.3a31.9,31.9,0,0,0,3.7-9.6c-10.3-1.9-6.7-7-8-12.8A1.2,1.2,0,0,1,68,38.9c5,.7,5.8,5.6,7.2,10.1A32,32,0,0,0,74,37.8c-10.5,1.4-10.1-4.4-14.4-8.2a1.2,1.2,0,0,1,.7-2.1h0c5.7-.6,7.8,1.9,9.9,4.4a13.1,13.1,0,0,0,2.7,2.7A34.4,34.4,0,0,0,67.6,26a9.6,9.6,0,0,1-8-2.2c-2.1-1.8-3.4-4.7-4.3-8.4a1.2,1.2,0,0,1,1.1-1.6C62.6,13.5,69,15,69.4,22Z" fill-rule="evenodd"/></symbol><symbol overflow="visible" viewBox="0 0 100 100" id="lightbulb"><title>lightbulb</title><path d="M61.7,55.7a16.8,16.8,0,1,0-23.4,0,12.5,12.5,0,0,1,3.8,7.8H57.9a12.5,12.5,0,0,1,3.8-7.8ZM54.8,85c-.2,1.9-2.2,3.4-4.8,3.4s-4.6-1.5-4.8-3.4l-1.4-.6a13.9,13.9,0,0,1-4.8-4.1,1.8,1.8,0,0,1-.5-3.5V74.2a1.8,1.8,0,0,1,.6-3.5H60.8a1.8,1.8,0,0,1,.6,3.5v2.6a1.8,1.8,0,0,1,1.2,1.7,1.9,1.9,0,0,1-1.7,1.8,13.9,13.9,0,0,1-4.8,4l-1.4.6ZM42.2,76.7H57.8V74.3H42.2v2.4Zm13.7,3.6H44.1a10.2,10.2,0,0,0,11.8,0ZM68.8,51.6a20.4,20.4,0,0,1-4.6,6.7,8.9,8.9,0,0,0-2.8,7,1.8,1.8,0,0,1-1.8,1.8H40.4a1.8,1.8,0,0,1-1.8-1.8,8.9,8.9,0,0,0-2.8-7,20.4,20.4,0,1,1,33-6.7ZM47.9,60.2a1.2,1.2,0,0,1-2.3.5L41,41.6a1.2,1.2,0,0,1,1.8-1.3l4,2.5,2.3-2.3a1.2,1.2,0,0,1,1.7,0l2.3,2.3,4-2.5A1.2,1.2,0,0,1,59,41.6h0L54.5,60.8a1.2,1.2,0,0,1-2.3-.5L56,43.9l-2.3,1.4a1.2,1.2,0,0,1-1.5-.1L50,43l-2.2,2.2h0a1.2,1.2,0,0,1-1.5.2L44,43.9l3.8,16.4ZM74.4,42.4c-.5.1-.8.6-.8,1.3s.3,1.2.8,1.3l6.8,1.2c.5.1.9-.4.9-1.1V42.3c0-.7-.4-1.2-.9-1.1l-6.8,1.2ZM31.9,60a1.4,1.4,0,0,1,1.8,1.8l-4,5.6c-.3.4-.9.4-1.4-.1l-1.9-1.9c-.5-.5-.6-1.1-.1-1.4l5.6-4ZM66.4,25.5a1.4,1.4,0,0,0,1.8,1.8l5.6-4c.4-.3.4-.9-.1-1.4L71.7,20c-.5-.5-1.1-.6-1.4-.1l-4,5.6ZM51.3,19.3c-.1.5-.6.8-1.3.8s-1.2-.3-1.3-.8l-1.2-6.8c-.1-.5.4-.9,1.1-.9h2.7c.7,0,1.2.4,1.1.9l-1.2,6.8ZM68.1,60a1.4,1.4,0,0,0-1.8,1.8l4,5.6c.3.4.9.4,1.4-.1l1.9-1.9c.5-.5.6-1.1.1-1.4l-5.6-4ZM33.6,25.5a1.4,1.4,0,0,1-1.8,1.8l-5.6-4c-.4-.3-.4-.9.1-1.4L28.3,20c.5-.5,1.1-.6,1.4-.1l4,5.6Zm-8,16.9c.5.1.8.6.8,1.3s-.3,1.2-.8,1.3l-6.8,1.2c-.5.1-.9-.4-.9-1.1V42.3c0-.7.4-1.2.9-1.1l6.8,1.2Z"/></symbol><symbol overflow="visible" viewBox="0 0 100 100" id="microscope"><title>microscope</title><path d="M68.8,67.2H60.4c.6,4.9,7.8,4.9,8.4,0ZM39.2,86.6A63.6,63.6,0,0,1,27.6,73.3a7.8,7.8,0,0,1-5.3-13c-1.4-8.2.8-16.9,8.5-25.3,2.5-2.7,5.8,1.1,4,3.1-6.3,6.8-7.9,13.4-6.7,19.6a7.8,7.8,0,0,1,6.3,12.4c6.3,7.3,15.3,11.6,23.6.7a7.7,7.7,0,0,1-1.2-3.7H50.7a1.8,1.8,0,0,1,0-3.6H78.5a1.8,1.8,0,0,1,0,3.6H72.3c-.4,6.1-6.5,7.2-6.5,7.2L56.8,86.6H78.5a1.8,1.8,0,0,1,0,3.6H21.5a1.8,1.8,0,0,1,0-3.6ZM28.1,69.8c5.6,0,5.6-8.4,0-8.4s-5.6,8.4,0,8.4Z" fill-rule="evenodd"/><path d="M54.5,37.9,47,42.3,50,47.4,57.5,43l-2.9-5.1Zm-8.9,1.9,7.5-4.3L43.9,19.6l-7.5,4.3,1.9,3.3a4.6,4.6,0,0,1,4.4,7.6l2.9,4.9Zm2.9,11.7c-1.4.8-3.5-1.3-1-2.7l-2.9-5.1c-2.3,1.3-3.7-1.1-1.4-2.5l-2.9-5a4.6,4.6,0,0,1-4.4-7.6l-2.6-4.6a1.4,1.4,0,0,1,.5-1.9l10-5.8a1.4,1.4,0,0,1,1.9.5l9.9,17.1c2.3-1.3,3.7,1.1,1.4,2.5l2.9,5.1c2.5-1.4,3.3,1.4,1.9,2.2l-1.7,1h0L48.5,51.5Zm-9.1-18a1.8,1.8,0,0,0,0-3.5,1.8,1.8,0,0,0,0,3.5ZM56,49.2l5.9-3.4a5.4,5.4,0,0,1,.7,2.3c1.5.5,3.7.8,3.2,2.5s-2.4.7-3.7.3a7.2,7.2,0,0,1-1.9,2.6c.5.9,1.7,2.5.3,3.3s-2.2-.9-2.7-1.9a7.2,7.2,0,0,1-3.2.4c-.3,1.3-.4,3.4-2.1,3s-.9-2.5-.6-4a5.4,5.4,0,0,1-1.7-1.8L56,49.2Zm-24-35,6.1-3.5a1.4,1.4,0,0,1,1.1-.1L40,10a1.4,1.4,0,0,1,1.4,2.5l-1.5.8-.4,1.9a1.4,1.4,0,0,1-.7.9l-2.5,1.4a1.4,1.4,0,0,1-1.2.1l-1.8-.6-1.9,1.1a1.4,1.4,0,0,1-1.4-2.5l1.2-.7h0a1.4,1.4,0,0,1,.7-.8Z" fill-rule="evenodd"/></symbol><symbol overflow="visible" viewBox="0 0 100 100" id="mortarboard"><title>mortarboard</title><path d="M75,43l1.9.8h0a4.1,4.1,0,0,1,2.4,2.5c1,2.3,2,7.1,3,12.4a3.2,3.2,0,0,1,2.1,2.9c-.1.9-.2.8-.3,1.1l5.8,14L82,78.5,80.8,64a3,3,0,0,1-1.9-2.8,2.4,2.4,0,0,1,1.1-2c-1-5.2-1.9-9.8-2.8-11.9s-3.6-2.7-5.7-3.5c-7.4-2.9-14.7-5.7-22.1-8.1-2.3-.8-.3-4.1,3.6-2.4L75,43Z" fill-rule="evenodd"/><path d="M50.1,21.5,91.3,34.1a.9.9,0,0,1,.1,1.7L77.2,42.1c-8-3.2-15.9-6.6-23.9-9.7s-8.1,2.7-5.9,3.7l21.9,9.5L50.2,54a.9.9,0,0,1-.7,0L8.6,35.8a.9.9,0,0,1,.1-1.7L49.6,21.5Zm-24.2,25L24.8,64.3a.4.4,0,0,0,.2.4h.4c8.4-2.1,17.6,2.1,24.2,11.3a.4.4,0,0,0,.6,0C56.8,66.9,66,62.7,74.4,64.8h.4a.4.4,0,0,0,.2-.4L73.8,46.6,51.5,56.5a4.1,4.1,0,0,1-3.3,0L25.9,46.6Z" fill-rule="evenodd"/></symbol><symbol overflow="visible" viewBox="0 0 100 100" id="museum"><title>museum</title><path d="M14.3,79.3H85.7v4.8H14.3V79.3ZM71.5,38.9h4.5L77.2,36h2.2V32.7l1.3-4.9L50,15.8l-30.6,12,1.3,4.9V36h2.2l1.2,2.9h4.5L29.8,36h4.9l1.2,2.9h4.5L41.6,36h4.9l1.2,2.9h4.5L53.5,36h4.9l1.2,2.9h4.5L65.3,36h4.9l1.2,2.9Zm5.5,31.1,1.5,2.9H69l1.5-2.9,1-29.4h4.5l1,29.4Zm-11.8,0,1.5,2.9H57.2l1.5-2.9,1-29.4h4.5l1,29.4Zm-11.8,0,1.5,2.9H45.3l1.5-2.9,1-29.4h4.5l1,29.4Zm-11.8,0,1.5,2.9H33.5l1.5-2.9,1-29.4h4.5l1,29.4ZM50,30.8a3.5,3.5,0,1,0-3.5-3.5A3.5,3.5,0,0,0,50,30.8ZM21.8,32.6h0L50,21.3,78.2,32.6Zm7.7,37.5L31,72.9H21.6l1.5-2.9,1-29.4h4.5l1,29.4Zm52.7,5v2.8H17.8V75Z" fill-rule="evenodd"/></symbol><symbol overflow="visible" viewBox="0 0 100 100" id="owl"><title>owl</title><path d="M62.5,30.4c5.5,0,5.5,8.4,0,8.4a4.2,4.2,0,0,1-3.8-5.9,1.9,1.9,0,1,0,2.1-2.1,4.2,4.2,0,0,1,1.7-.4ZM41.3,59.7a1.8,1.8,0,1,1-1.8,1.8,1.8,1.8,0,0,1,1.8-1.8Zm5.8-1.1a1.8,1.8,0,1,1-1.8,1.8,1.8,1.8,0,0,1,1.8-1.8Zm5.8,0a1.8,1.8,0,1,1-1.8,1.8,1.8,1.8,0,0,1,1.8-1.8Zm5.8,1.1a1.8,1.8,0,1,1-1.8,1.8,1.8,1.8,0,0,1,1.8-1.8ZM43.8,64.4A1.8,1.8,0,1,1,42,66.2a1.8,1.8,0,0,1,1.8-1.8Zm6.2-.7a1.8,1.8,0,1,1-1.8,1.8A1.8,1.8,0,0,1,50,63.7Zm6.2.7a1.8,1.8,0,1,1-1.8,1.8,1.8,1.8,0,0,1,1.8-1.8Zm-9.4,4.3a1.8,1.8,0,1,1-1.8,1.8,1.8,1.8,0,0,1,1.8-1.8Zm6.5,0a1.8,1.8,0,1,1-1.8,1.8,1.8,1.8,0,0,1,1.8-1.8ZM37.5,30.4c5.5,0,5.5,8.4,0,8.4a4.2,4.2,0,0,1-3.8-5.9,1.9,1.9,0,1,0,2.1-2.1,4.2,4.2,0,0,1,1.7-.4Z" fill-rule="evenodd"/><path d="M61.4,76.3a5.9,5.9,0,0,1,1.2,4.1H76.7a1.8,1.8,0,0,1,0,3.6H61a6.9,6.9,0,0,1-9.7,0H48.7A6.9,6.9,0,0,1,39,84H23.3a1.8,1.8,0,0,1,0-3.6H37.4a5.9,5.9,0,0,1,1.2-4.1L37.2,75l-.4,2.7h0C35.9,83,24,72.8,20.7,58.4c-1-4.3-1.8-12,3.1-13.5-.2-3.9.4-8.3,2.2-11.1a13.4,13.4,0,0,1,1.6-5.1C23.5,25.8,22.5,19.7,25,15h0a1.8,1.8,0,0,1,3.1-.2h0C32.5,22,41,14.2,50,14.2s17.5,7.8,21.8.6a1.8,1.8,0,0,1,3.2.3c2.3,4.8,1.6,10.6-2.6,13.5a11.5,11.5,0,0,1,1.6,5h0c1.8,2.9,2.5,7.3,2.2,11.2,8.7,2.7,1.5,27.3-10.4,34a1.8,1.8,0,0,1-2.6-1.2h0L62.8,75l-1.4,1.3ZM43.8,73.8a6.5,6.5,0,0,1,6.1,3.9h.2a6.7,6.7,0,0,1,8.3-3.6,29.4,29.4,0,0,0,4-4.1c.3-.8-1.3-21.8,10.2-25.1V40.2a11.7,11.7,0,0,1-14,5.2c-.7,3.7-3.3.8-5.6,3.8-.6.8-1.2,2.5-2.1,3-2.9,1.5-2.6-4.2-6.3-4.5-1.5-.1-2.6-.2-3-2.3a11.7,11.7,0,0,1-14-5.2V45c11.6,3.3,10,24.3,10.2,25.1a29.4,29.4,0,0,0,4,4.1,6.8,6.8,0,0,1,2.2-.4ZM37.5,23A11.6,11.6,0,0,1,48.7,37.6h2.7c-3-11,10.2-19.2,18.8-11.7,2-1.2,2.9-4,2.6-6.4-6,5.6-15.1-1.7-22.7-1.7s-16.7,7.3-22.7,1.7c-.3,2.4.6,5.2,2.6,6.4A11.5,11.5,0,0,1,37.5,23ZM50,47.1a7.1,7.1,0,0,1,4.7-3c-.8-1.3-3.5-3.5-5-3.2a9,9,0,0,0-4.5,3.2,7.1,7.1,0,0,1,4.7,3ZM68.1,28.9a8,8,0,1,0,0,11.3,8.1,8.1,0,0,0,0-11.3Zm-25,0a8,8,0,1,0,0,11.3,8.1,8.1,0,0,0,0-11.3ZM58.3,78.2c-2.5-2.3-7,1-4.3,3.5s7-1,4.3-3.5Zm-12.3,0c-2.5-2.3-7,1-4.3,3.5s7-1,4.3-3.5ZM75.7,48.7c-7.3,2.3-7.8,17-7.3,23.6l-2.1,2c-.8-6.9-.7-24.7,8.2-26l1.2.5Zm-50.2-.5c-4.6-.6-1.2,18.4,8.2,26,.1-.7.1-1.3.2-2-4.6-5-8.4-14-7.9-20.6.1-1.4.4-2.6,1-3.1l-1.5-.4Z" fill-rule="evenodd"/></symbol><symbol overflow="visible" viewBox="0 0 100 100" id="puzzle"><title>puzzle</title><path d="M86.9,20.7a117.9,117.9,0,0,1-13.3,1.4,1.3,1.3,0,0,1-.8-2.4,3.1,3.1,0,0,0,1.6-3.2,3.7,3.7,0,0,0-7.3.2,3.6,3.6,0,0,0,.5,1.9,3.8,3.8,0,0,0,1.3,1.1,1.3,1.3,0,0,1,.5,1.8c-.4.6-.9.6-1.5.6l-8.3-.2-4.7-.3c-.1,1.3-.2,2.9-.3,4.6s-.1,3.7-.2,5.5A6.3,6.3,0,0,1,61.7,33a6.5,6.5,0,0,1,1.6,2.3h.2a5.5,5.5,0,0,1,.2,1.4A6.1,6.1,0,0,1,62,41.5a6.3,6.3,0,0,1-7.2,1.5c.1,1.7.3,3.6.5,5.4s.4,3.2.6,4.5l4.7-.6,8.8-.8a1.3,1.3,0,0,1,1.3,1.2,1.5,1.5,0,0,1-.6,1.2h0a2.9,2.9,0,0,0-1.8,3.2,3.7,3.7,0,0,0,7.3-.2,3.2,3.2,0,0,0-2-3.1,1.3,1.3,0,0,1,.6-2.4l8.8.2,4.8.3c.1-1.3.3-2.9.3-4.6s.1-3.7.2-5.4a6.4,6.4,0,0,1-2.9.7,6.4,6.4,0,0,1-4.4-1.8,5.8,5.8,0,0,1-.3-8.6A6.3,6.3,0,0,1,88,30.8c-.1-1.7-.3-3.6-.5-5.5S87.1,22,86.9,20.7Z" fill-rule="evenodd"/><path d="M20.4,20.1c.1,1.3.2,3,.3,4.8s.2,6.5.2,8.6a1.3,1.3,0,0,1-1.3,1.3c-.9,0-1.1-.7-1.5-1.3a3,3,0,0,0-2.6-1.2,4,4,0,0,0-3.8,3.5,4,4,0,0,0,3.5,3.8,3.1,3.1,0,0,0,3.2-1.6,1.3,1.3,0,0,1,1.8-.3,1.4,1.4,0,0,1,.5,1.4c-.2,2.1-.5,5.4-.8,8.3s-.4,3.3-.6,4.6l4.6.7,5.4.6a6.3,6.3,0,0,1-.5-2.9,6.5,6.5,0,0,1,6.5-6,6.5,6.5,0,0,1,6,6.5,6.3,6.3,0,0,1-.7,2.9h5.4l4.6-.3c-.1-1.4-.2-3-.3-4.8s-.2-5.9-.1-8.1a2.3,2.3,0,0,1,.2-1.3,1.3,1.3,0,0,1,1.9-.3l.3.4a3.2,3.2,0,0,0,3.1,2,4,4,0,0,0,3.8-3.5,4,4,0,0,0-3.5-3.8,3.2,3.2,0,0,0-3.3,1.7,1.3,1.3,0,0,1-2.3-.2,3.8,3.8,0,0,1,0-1.6c.2-2.2.4-5.1.7-7.7s.4-3.4.7-4.7l-4.5-.7L41.8,20a6.3,6.3,0,0,1,.5,2.9,6.5,6.5,0,0,1-6.5,6,6.5,6.5,0,0,1-6-6.5,6.3,6.3,0,0,1,.7-2.9H25.1Z" fill-rule="evenodd"/><path d="M51.1,73.9a98.2,98.2,0,0,1-1.4,13,113.2,113.2,0,0,0-12-1.4,5.6,5.6,0,0,0,2.2-4.6c.2-4.7-5.9-8.8-10.3-4.7a6.3,6.3,0,0,0-2.1,4.3,5.6,5.6,0,0,0,1.9,4.7,113.8,113.8,0,0,0-11.7.7c-.3-2.9-.5-7-.5-10a6.3,6.3,0,0,0,7.3-1.1c4.5-4.2.6-10.5-4-10.6a6.4,6.4,0,0,0-2.9.5c.2-3,.7-7.2,1.2-10.1,3.7.6,10.1,1.2,13.3,1.4a1.3,1.3,0,0,0,.8-2.4,3.1,3.1,0,0,1-1.6-3.2A4,4,0,0,1,35,47a4,4,0,0,1,3.6,3.8,3.1,3.1,0,0,1-1.8,3,1.3,1.3,0,0,0,.1,2.3h.9c3.4,0,9.4-.2,13-.5.4,3.8.5,9.3.5,13.3a1.3,1.3,0,0,0,2.4.6,3.1,3.1,0,0,1,3.2-1.7c2.5,0,5.2,3.6,2.4,6.1a3.8,3.8,0,0,1-2.6,1.1,3.6,3.6,0,0,1-1.9-.5c-1-.6-1.3-1.9-2.2-2A1.3,1.3,0,0,0,51.1,73.9Z" fill-rule="evenodd"/></symbol><symbol overflow="visible" viewBox="0 0 100 100" id="quill"><title>quill</title><path d="M37.5,53.8H38c4.3-1.3,8.7-2.6,13.7-.1,5-2.5,9.3-1.2,13.7.1s6.2,1.8,9.3,1.1h0a1.2,1.2,0,0,1,1.4.7l8.7,19.4.7,1.6a1.2,1.2,0,0,1-1.1,1.6h0c-9.9,0-18.2-1.6-28.2.2a1.2,1.2,0,0,1-1.2-.6c-1.2-1.9-4.9-1.9-6.2,0a1.2,1.2,0,0,1-1.2.5h0c-6.2-1.1-11.8-.9-17.5-.6a15.9,15.9,0,0,0-2.1-2.8l.4-2,3.4-1c3.4-1.1,6.8-2.2,10.4-2.3a19.6,19.6,0,0,1,8.6,1.9V55.6c-4.8-2.3-9.3-.4-13.9.9a4.7,4.7,0,0,0-.3-1,3.9,3.9,0,0,0,1.2-1.7Zm19.9,8a1.2,1.2,0,1,1-.6-2.3,16.4,16.4,0,0,1,5.7-.3,34.8,34.8,0,0,1,5.2,1.1l.7.2,4.2,1a1.2,1.2,0,1,1-.5,2.3l-4.3-1-.7-.2a32.9,32.9,0,0,0-4.8-1,14,14,0,0,0-4.9.3Zm0,5a1.2,1.2,0,1,1-.6-2.3c5.5-1.3,10.1.1,14.9,1.7l3.7,1.1a1.2,1.2,0,1,1-.6,2.3L71,68.4c-4.5-1.4-8.7-2.8-13.6-1.6ZM46.5,59.4a1.2,1.2,0,0,1-.6,2.3,14,14,0,0,0-4.9-.3,32.9,32.9,0,0,0-4.8,1l-.7.2-2,.5a10.1,10.1,0,0,0,1.6-1.9l.7-1.1a33.7,33.7,0,0,1,4.9-1,16.4,16.4,0,0,1,5.7.3Zm0,5a1.2,1.2,0,1,1-.6,2.3c-4.9-1.2-9.1.2-13.6,1.6l-2.9.9a1.2,1.2,0,1,1-.8-2.3l3-.9c4.8-1.5,9.4-3,14.9-1.7ZM30.9,79.7l15.6-.6a1.8,1.8,0,0,1,1.7,1h0c.7,1.4,1.5,2.4,3.5,2.4s2.8-1,3.5-2.4a1.8,1.8,0,0,1,1.8-1l28.8,1.1a1.8,1.8,0,1,1-.1,3.6L57.8,82.8a6.7,6.7,0,0,1-6.2,3.4,6.7,6.7,0,0,1-6.2-3.4l-13.5.5a17.1,17.1,0,0,0-1-3.6Zm25-9.4c5.6-1.6,10.2-.3,15.6,1.4a45.7,45.7,0,0,0,10.3,2.4L74.2,57.2c-7.5,1.1-14.1-5.1-21.3-1.6V71.5l3-1.2ZM16.2,72.7h8.3l-.5,2.7H20.2a1.2,1.2,0,1,0,0,2.4h5.3c2.5,2.9,3.3,6.3,3.2,10H12.6a14.6,14.6,0,0,1,4.3-11.4l-.7-3.8ZM21,63.9l-1.3,5.2h3.4L24.3,64c2.6-1.6,5.9-1.8,7.8-4.7.8-1.3,1.6-3-.5-3.3s-3.7-.4-3.6-.7,5.9-2,6.1-2.7c3.2-10.1,6.8-19.5,7.5-28.2,0-.6-3.3.5-3.2.1s3.4-3.1,3.4-3.5c.7-13.3-1.9-9.8-8.7-.2A98.3,98.3,0,0,0,25.9,34c-1.8,3.7-2,4.3-1.3,7.3l.7,2.5-.4,1.3a11.2,11.2,0,0,1-2.5-3.2c-1,2.4-2.1,5.2-2.8,7.2C16.8,57.3,15.1,58,21,63.9Z"/></symbol><symbol overflow="visible" viewBox="0 0 100 100" id="robot"><title>robot</title><path d="M55.3,23.3a3.3,3.3,0,1,0,3.3,3.3,3.3,3.3,0,0,0-3.3-3.3Zm-2,26.5V47.9H46.7v1.8Zm0,6.6V54.5H46.7v1.8Zm0-3.3V50.9H46.7V53ZM45,23.3a3.3,3.3,0,1,1-3.3,3.3A3.3,3.3,0,0,1,45,23.3Z" fill-rule="evenodd"/><path d="M65.9,26.7h1.9a1.9,1.9,0,0,1,1.9-1.2,2.1,2.1,0,0,1,2.1,2.1,2.1,2.1,0,0,1-2.1,2.1,2.3,2.3,0,0,1-1.9-1.2H65.9a2.7,2.7,0,0,1-2.2,1.2h-.2v5.6a3.3,3.3,0,0,1-3.1,3.4H53v2.1h9.2a1.7,1.7,0,0,1,1.5,1.5h2.5a3.7,3.7,0,0,1,3.6,3.7h0a3.7,3.7,0,0,1-.8,2.3l2.7,5.3h1.1L76,46.8c0-.1-.2-.1.1-.2v-4a1.2,1.2,0,0,1,2.4,0v3.6h.9a1.2,1.2,0,0,0,.9-.4,1.2,1.2,0,0,0,.4-.8v-3a1.2,1.2,0,0,1,2.4,0v3a3.6,3.6,0,0,1-1.1,2.5,3.6,3.6,0,0,1-2.6,1.1h-1l-3.2,6.7a3.3,3.3,0,0,1,.3,1.4,3.3,3.3,0,0,1-6.6,0,3.3,3.3,0,0,1,.3-1.4l-2.9-5.8H63.5V63.3a1.2,1.2,0,0,1-1.3,1.4h-.5v5.4a4.2,4.2,0,0,1,0,8v5.5h2a.9.9,0,0,1,1,1v3.8h-12V85.8h0V75.9c0-.8.8-1.3,1.7-1.3H56V74H54.4a1.8,1.8,0,0,1-1.7-1.7V64.7H47.3v7.6A1.6,1.6,0,0,1,45.9,74H44.3v.6h1.6a1.2,1.2,0,0,1,1.4,1.3v9.9h0v2.6h-12V84.6c0-.7.6-1,1.3-1h1.7V78.1a4.2,4.2,0,0,1,0-8V64.7h-.2a1.5,1.5,0,0,1-1.6-1.4V49.4H34l-2.9,5.8a3.3,3.3,0,0,1-3,4.7,3.3,3.3,0,0,1-3.3-3.3,3.2,3.2,0,0,1,.3-1.4l-3.2-6.7h-1a4,4,0,0,1-2.7-1.1A3.7,3.7,0,0,1,17,45.1v-3a1.4,1.4,0,0,1,2.7,0v3a1.2,1.2,0,0,0,.4.8,1.2,1.2,0,0,0,.9.4h.9V42.6a1.2,1.2,0,0,1,2.4,0v4c.3.1.1.1.2.2l3.2,6.7h1.1l2.7-5.3a3.8,3.8,0,0,1-.8-2.3h0a3.7,3.7,0,0,1,3.6-3.7h2.5a1.7,1.7,0,0,1,1.5-1.5H47V38.6H39.9a3.5,3.5,0,0,1-3.4-3.4V29.8a3.2,3.2,0,0,1-1.8-1.3H32.5a2.3,2.3,0,0,1-1.9,1.1,2.1,2.1,0,0,1-2.1-2.1,2.1,2.1,0,0,1,2.1-2.1,1.9,1.9,0,0,1,1.9,1.2h2.2a2.6,2.6,0,0,1,1.8-1.5h0a13.4,13.4,0,0,1,4-9.5,13.6,13.6,0,0,1,19.2,0,13.5,13.5,0,0,1,4,9.6,2.4,2.4,0,0,1,2.2,1.5Zm-21.6,51h-3v6h3v-6Zm14.4,0h-3v6h3v-6ZM44.3,65h-3v6h3V65Zm14.4,0h-3v6h3V65ZM47.8,33.1h4.7a.9.9,0,1,0,0-1.8H47.8a.9.9,0,1,0,0,1.8ZM60.5,43.7h-21v18h21v-18ZM50.1,14.6a10.7,10.7,0,0,0-7.5,3.1,10.4,10.4,0,0,0-3.1,7.4V35.5H60.5c.1-.1,0-.2,0-.2V25.1A10.4,10.4,0,0,0,50.1,14.6Z" fill-rule="evenodd"/></symbol><symbol overflow="visible" viewBox="0 0 100 100" id="science"><title>science</title><path d="M77.8,15.2H63.4a8.9,8.9,0,0,1,1.7,5.3v5.2h2.6a1.2,1.2,0,0,1,0,2.4H65.1v2.7h1.7a1.2,1.2,0,0,1,0,2.4H65.1v2.7h1.7a1.2,1.2,0,0,1,0,2.4H65.1V41h2.6a1.2,1.2,0,0,1,0,2.4H65.1v2.7h1.7a1.2,1.2,0,0,1,0,2.4H65.1v2.7h1.7a1.2,1.2,0,0,1,0,2.4H65.1v2.7h2.6a1.2,1.2,0,0,1,0,2.4H65.1v4.4l-2.4-3.9V20.5a6.6,6.6,0,0,0-1-3.7,4.2,4.2,0,0,0-2.5-1.7,1.2,1.2,0,0,1,.2-2.4H81.8a1.2,1.2,0,0,1,.3,2.4c-2.7.7-3.6,3.1-3.6,5.4V79.3a7.9,7.9,0,0,1-15.3,3,8.2,8.2,0,0,0,2.3-.7,5.5,5.5,0,0,0,10.6-2.3V20.5a8.9,8.9,0,0,1,1.7-5.3ZM47.5,55.9H36.2L25,72.2h5.8a2.3,2.3,0,1,1,4.7,0H58.6L47.5,55.9ZM40.4,40.6a1.2,1.2,0,1,0,1.2,1.2,1.2,1.2,0,0,0-1.2-1.2Zm2.7,8.9a1.8,1.8,0,1,0,1.8,1.8,1.8,1.8,0,0,0-1.8-1.8Zm.6-14.2a1.2,1.2,0,1,0,1.2,1.2,1.2,1.2,0,0,0-1.2-1.2Zm5.2,31.3A1.4,1.4,0,1,0,50.3,68a1.4,1.4,0,0,0-1.4-1.4Zm-9.5-8.6a3.2,3.2,0,1,0,3.2,3.2,3.2,3.2,0,0,0-3.2-3.2ZM61.6,78.8H21.7c-4.3,0-5.8-4.8-3.9-7.9L32.1,47.7c0-22.3,0-8.2,0-20.2h-.7a1.8,1.8,0,0,1,0-3.6h6.1V21.2a1.1,1.1,0,0,1,.9-1.2H45a1.1,1.1,0,0,1,.9,1.2v2.7H52a1.8,1.8,0,0,1,0,3.6h-.7V47.7L65.5,70.8c2.1,3.3.3,8-3.9,8ZM37.5,27.5v3.4a1.1,1.1,0,0,0,.9,1.2H45a1.1,1.1,0,0,0,.9-1.2V27.5h1.8V48.2a1.8,1.8,0,0,0,.3.9L62.5,72.8c.4.6.6,2.4-.9,2.4H21.7c-1.4,0-1.2-1.8-.8-2.5L35.4,49.1a1.8,1.8,0,0,0,.3-.9s0-19.4,0-20.7Z" fill-rule="evenodd"/></symbol><symbol overflow="visible" viewBox="0 0 100 100" id="scroll"><title>scroll</title><path d="M71.8,58.8c4.7,5.3,10.3,7.9,16.3,9.8l-5.8,1.8,2.7,6c-6.6-2.8-12.5-6.1-16.9-12.9a6.7,6.7,0,0,0,3.7-4.7ZM67.1,41.1a24,24,0,0,1,1.4,4,29,29,0,0,1,.6,3.7c.2,1.4.3,3.3-.5,3.9l-6.7,5.9c-.9.8-2,.7-3.6.3a20.1,20.1,0,0,0,.5-5.7,17,17,0,0,0-8.1-11.8,19.9,19.9,0,0,0-9.2-3.1c-.1-.9-.3-2.7.1-3.1L47,30.3a10.9,10.9,0,0,1,4.1-.5,18.3,18.3,0,0,1,3.9.7,19.4,19.4,0,0,1,7.7,4.2h.8a18,18,0,0,1,2,2.6,25.3,25.3,0,0,1,1.6,3ZM61.8,61.2c-1,10.3,0,16.4,5.7,25.3L68.7,80l5.8,1.8c-4.3-5.6-7.3-11-7.6-19.5a6.4,6.4,0,0,0,2.6-8.3l-7.7,7.1Z" fill-rule="evenodd"/><path d="M81,21.9h-.1A184.9,184.9,0,0,1,67.3,36.4a20.3,20.3,0,0,0-2-2.6h0c4.3-4.1,8.4-8.4,12.2-12.9a11.9,11.9,0,0,0-11.5-4,103.8,103.8,0,0,1-9.2,11.5l-1.2-.4-2.5-.5a100.6,100.6,0,0,0,10.5-13h0a1.6,1.6,0,0,1,1.1-.7,16.3,16.3,0,0,1,9.4.7,15.7,15.7,0,0,1,5.4,3.8L82.5,15h0l.4-.3a1.6,1.6,0,0,1,2.3.5,23.3,23.3,0,0,1,3.5,12.4c0,4.4-1.3,8.3-4,10.1-4.3,3-8.8,6-13.2,9.4h-.1a25.4,25.4,0,0,0-.5-2.5l-.3-1c4.1-3.1,8.2-5.9,12.2-8.6,1.7-1.2,2.5-4.1,2.6-7.4a20.8,20.8,0,0,0-1.8-8.6l-2.5,3ZM54,47.7A136.3,136.3,0,0,1,36,59.1a24.1,24.1,0,0,1,2,4.8,26.6,26.6,0,0,1,1,9.9l5.3-6.1c3.7-4.1,7-7.6,11.2-11.6l.6-.6a26.9,26.9,0,0,1,0,4.7l-.2.2c-3.5,3.3-6.2,6.2-9.2,9.6S40,77.8,36.1,82.6l-.6.7h0l-.2.2a8.5,8.5,0,0,1-1.5,1.3,7.2,7.2,0,0,1-2,.9h-.1c-4,1.1-8.3-.2-11.8-2.9a21.3,21.3,0,0,1-7.4-10.5h0A23.4,23.4,0,0,1,11.8,61a10.2,10.2,0,0,1,5.3-7.3h0a185.3,185.3,0,0,0,20-12.2l1.7-1.3a17.4,17.4,0,0,1,4.6.6A161.2,161.2,0,0,1,23.4,54,10.8,10.8,0,0,1,26.1,56a19.4,19.4,0,0,1,5,9.5v.8q.1.6.1,1.2l2.7-2.1.8-.6a20.4,20.4,0,0,0-2.5-5.4v-.2A1.6,1.6,0,0,1,33,57,132.8,132.8,0,0,0,51.9,45.2l.3.2a13.3,13.3,0,0,1,1.8,2.1ZM27.6,71.3v-.2a8.2,8.2,0,0,0,.3-4.4v-.7l-.3-1.1-5.7,4a6.8,6.8,0,0,0,1.6,2.7h0a3.1,3.1,0,0,0,2.3,1.1H26a2.4,2.4,0,0,0,1.6-1.4Zm8.1-2.7a29.4,29.4,0,0,0-5.2,4.5l-.5.4a5.3,5.3,0,0,1-3.4,2.4h-.4a6.3,6.3,0,0,1-5.1-2.1h0a10.2,10.2,0,0,1-2.8-5.5,1.6,1.6,0,0,1,.8-1.7l7.1-5a13.7,13.7,0,0,0-2.6-3.5A5.3,5.3,0,0,0,19,56.6h-.5A7,7,0,0,0,15,61.7a20.1,20.1,0,0,0,.7,9.7h0A17.9,17.9,0,0,0,22,80.3c2.8,2.1,6,3.2,8.9,2.3H31l1.1-.5.9-.8h0l.7-.9a13.3,13.3,0,0,0,1.9-5,22.2,22.2,0,0,0,.2-6.9Z" fill-rule="evenodd"/></symbol><symbol overflow="visible" viewBox="0 0 100 100" id="tools-1"><title>tools-1</title><path d="M85.9,78.9V72.3h-3a5.3,5.3,0,0,0-.7-2.4h3.7V65.7H83.8a1.2,1.2,0,0,1,0-2.4h2.2V59.1H83.8a1.2,1.2,0,0,1,0-2.4h2.2V52.5H82.1a1.2,1.2,0,0,1,0-2.4h3.8V45.9H83.8a1.2,1.2,0,0,1,0-2.4h2.2V39.3H83.8a1.2,1.2,0,0,1,0-2.4h2.2V32.7H82.1a1.2,1.2,0,0,1,0-2.4h3.8V26.1H83.8a1.2,1.2,0,0,1,0-2.4h2.2V15.9L66.3,37.2l1.3-5L86.2,12.1a1.2,1.2,0,0,1,2.1.8V80.1a1.2,1.2,0,0,1-1.2,1.2H82.9V78.9ZM57.7,44l4-14.9-2.1-9.2-4.2-1.1-6.5,7L44.7,41.5l-2.5.2,4.5-16.8h0a1.2,1.2,0,0,1,.3-.5L58.4,12.1h0l.6-.4a1.2,1.2,0,0,1,1.4.9h0l3.6,16.2a1.2,1.2,0,0,1,0,.6L59.9,45.1,57.7,44Zm-9.9-2.5,3.5-12.9a1.2,1.2,0,0,1,2.3.6L50.3,41.9l-2.4-.3Zm4.8.7,3.3-12.4a1.2,1.2,0,0,1,2.3.6L54.9,43l-2.3-.6ZM75.1,63.6v-20L68,51.2l-.6-.7-1.1-1,9.1-9.9a1.2,1.2,0,0,1,2.1.8V67.2H76a30.9,30.9,0,0,0-.9-3.7Z"/><path d="M65.8,62.2a1.2,1.2,0,0,1-1.2-2.1l.9-.5a23.9,23.9,0,0,0-2.3-3.1l-1.7,1.7a1.2,1.2,0,0,1-1.7-1.7l1.7-1.7a24,24,0,0,0-3-2.3l-.5.9a1.2,1.2,0,0,1-2.1-1.2l.5-.9a23.7,23.7,0,0,0-3.6-1.5l-.3,1a1.2,1.2,0,0,1-2.3-.6l.3-1a23.9,23.9,0,0,0-3.8-.5V51a1.2,1.2,0,0,1-2.4,0V48.6a23.9,23.9,0,0,0-3.8.5l.3,1a1.2,1.2,0,0,1-2.3.6l-.3-1a23.7,23.7,0,0,0-3.6,1.5l.5.9a1.2,1.2,0,0,1-2.1,1.2l-.5-.9a23.9,23.9,0,0,0-3.1,2.3l1.7,1.7a1.2,1.2,0,0,1-1.7,1.7l-1.7-1.7a23.9,23.9,0,0,0-2.4,3.1l1,.6a1.2,1.2,0,0,1-1.2,2.1l-1-.6a23.7,23.7,0,0,0-1.5,3.6l1.1.3a1.2,1.2,0,0,1-.6,2.3l-1.1-.3a24,24,0,0,0-.5,5,1.8,1.8,0,0,1-1.8,1.8H15.3V84.8h9.6V81.9a1.2,1.2,0,0,1,2.4,0v2.8h4.1V83.6a1.2,1.2,0,0,1,2.4,0v1.2h4.1V83.6a1.2,1.2,0,0,1,2.4,0v1.2h4.1V81.9a1.2,1.2,0,0,1,2.4,0v2.8h4.1V83.6a1.2,1.2,0,0,1,2.4,0v1.2h4.1V83.6a1.2,1.2,0,0,1,2.4,0v1.2h4.1V81.9a1.2,1.2,0,0,1,2.4,0v2.8h9.6V74.3H71.1a1.8,1.8,0,0,1-1.8-1.8,24,24,0,0,0-.5-4.9l-1,.3a1.2,1.2,0,0,1-.6-2.3l1-.3a23.7,23.7,0,0,0-1.5-3.6l-.9.5Zm-1-9.1a27.4,27.4,0,0,1,8,17.6h4.7a1.8,1.8,0,0,1,1.8,1.8V86.6a1.8,1.8,0,0,1-1.8,1.8H13.5a1.8,1.8,0,0,1-1.8-1.8V72.5a1.8,1.8,0,0,1,1.8-1.8H18A27.5,27.5,0,0,1,64.9,53.1ZM45.4,70.7H56a10.8,10.8,0,0,0-21.2,0ZM58,74.3H32.9a1.8,1.8,0,0,1-1.8-1.8,14.4,14.4,0,0,1,28.7,0A1.8,1.8,0,0,1,58,74.3Z"/></symbol><symbol overflow="visible" viewBox="0 0 100 100" id="tools-2"><title>tools-2</title><path d="M75.7,18.8l5.5,5.5a5.7,5.7,0,0,1,0,8.1l-45,45a1.8,1.8,0,0,1-.8.5l-15.9,5a1.8,1.8,0,0,1-2.2-2.3l4.9-16a1.8,1.8,0,0,1,.4-.7l45-45a5.7,5.7,0,0,1,8.1,0ZM22.8,74.6l2.6,2.6L34,74.5,68.4,40.1l-1.7-1.7-33,33a1.2,1.2,0,0,1-1.7-1.7l33-33L63.3,35l-33,33a1.2,1.2,0,0,1-1.7-1.7l33-33-1.7-1.7L25.5,66l-2.7,8.6ZM78.7,26.9l-5.5-5.5a2.1,2.1,0,0,0-3,0L65,26.5,73.5,35l5.1-5.1a2.1,2.1,0,0,0,0-3ZM63.3,28.2l-1.7,1.7,8.5,8.5,1.7-1.7-8.5-8.5Z" fill-rule="evenodd"/><path d="M15.9,27.5,27.5,15.9a1.8,1.8,0,0,1,2.5,0L47.7,33.6l-6,6a.9.9,0,0,1-1-1.5l3.2-3.2-2-2-1.7,1.7A.9.9,0,1,1,39,33.3l1.7-1.7-2-2-3.2,3.2a.9.9,0,1,1-1.3-1.3l3.2-3.2-2-2L33.7,28a.9.9,0,1,1-1.3-1.3l1.7-1.7-2-2-3.2,3.2A.9.9,0,0,1,27.6,25l3.2-3.2-2-2-9,9L36.2,45.1l-2.5,2.5L15.9,30a1.8,1.8,0,0,1,0-2.5ZM66.4,52.3,84.1,70a1.8,1.8,0,0,1,0,2.5L72.5,84.1a1.8,1.8,0,0,1-2.5,0L52.3,66.4l2.5-2.5L71.3,80.2l9-9L78,69.1l-3.2,3.2A.9.9,0,0,1,73.6,71l3.2-3.2-2-2-1.7,1.7a.9.9,0,0,1-1.3-1.3l1.7-1.7-2-2-3.2,3.2A.9.9,0,0,1,67,64.4l3.2-3.2-2-2-1.7,1.7a.9.9,0,0,1-1.3-1.3l1.7-1.7-2-2-3.2,3.2a.9.9,0,0,1-1.5-.6l6.2-6.2Z" fill-rule="evenodd"/></symbol><symbol overflow="visible" viewBox="0 0 100 100" id="tools-3"><title>tools-3</title><path d="M77.9,20.8H71.5a.9.9,0,0,1,0-1.9h6.4v1.9Zm0,10.1H71.5a.9.9,0,0,1,0-1.9h6.4v1.9Zm0,10.1H71.5a.9.9,0,0,1,0-1.9h6.4v1.9Zm0,10.1H71.5a.9.9,0,0,1,0-1.9h6.4v1.9Zm0,10.1H71.5a.9.9,0,0,1,0-1.9h6.4V61Zm0,10.1H71.5a.9.9,0,0,1,0-1.9h6.4V71Zm0-45.3H74.5a.9.9,0,0,1,0-1.9h3.4v1.9Zm0,10.1H74.5a.9.9,0,0,1,0-1.9h3.4v1.9Zm0,10.1H74.5a.9.9,0,0,1,0-1.9h3.4v1.9Zm0,10.1H74.5a.9.9,0,0,1,0-1.9h3.4V56Zm0,10.1H74.5a.9.9,0,0,1,0-1.9h3.4V66Zm0,10.1H74.5a.9.9,0,0,1,0-1.9h3.4v1.9Zm0,5H71.5a.9.9,0,0,1,0-1.9h6.4v1.9Z" fill-rule="evenodd"/><path d="M25.3,85.6a.9.9,0,0,1,.9-1.6A21.8,21.8,0,0,0,48,84a.9.9,0,1,1,.9,1.6,23.6,23.6,0,0,1-23.7,0Z" fill-rule="evenodd"/><path d="M22.9,75.6a.8.8,0,1,0-.8-.8.8.8,0,0,0,.8.8Z" fill-rule="evenodd"/><path d="M19.1,70.9a.9.9,0,0,1,.4-.6h.7a.9.9,0,0,1,.6,1.2l-1.5,5.3a.9.9,0,0,1-.4.6h-.7a.9.9,0,0,1-.6-1.2l.5-1.7-1-.3a.9.9,0,0,1,.5-1.8l1,.3.5-1.7Z" fill-rule="evenodd"/><path d="M29.8,43.8a10.5,10.5,0,0,1,0-14.8h0a10.5,10.5,0,0,1,6.4-3V24.4a3,3,0,0,1-1.9-2.8V14.5a3,3,0,0,1,6,0v7.1a3,3,0,0,1-1.9,2.8V26a10.5,10.5,0,0,1,6.4,3h0a10.5,10.5,0,0,1,0,14.8l4.8,16.5h2.8a2,2,0,1,1,0,1.9H49.9l3,10.3a.7.7,0,0,1,.7.5l1.9,6.6a.8.8,0,0,1-.1.6l-.3.3v.3a.5.5,0,0,1,0,.4l-.3.3h-.3l.5,1.8a.9.9,0,0,1-1.8.5l-.5-1.8h-.3a.6.6,0,0,1-.7-.4v-.3a.7.7,0,0,1-.8-.5L49,74.4a.8.8,0,0,1,.1-.6l.3-.3L46.1,62.2H39.5V66A2.2,2.2,0,1,1,35,66V62.2H28.4L22,84.5l-1-3.3-1.8-.5,5.3-18.5H22.2a2,2,0,1,1,0-1.9H25l4.8-16.6ZM35,56.5a2.2,2.2,0,0,1,4.5,0v3.8h6.1l-6.6-23a1.5,1.5,0,0,1,1-1.8h.4a1.9,1.9,0,0,1,2.3,1.3l1.1,3.7.2-.3a7.6,7.6,0,0,0-1.3-9h0a7.6,7.6,0,0,0-10.7,0h0a7.6,7.6,0,0,0-1.3,9l.2.3,1.1-3.7a1.9,1.9,0,0,1,2.3-1.3h.4a1.5,1.5,0,0,1,1,1.8l-6.6,23H35V56.5Z" fill-rule="evenodd"/><path d="M81.8,89.2h-19V10.8H83.6V89.2Zm-1.8-7V14.3H66.3V85.7H80V82.2Z" fill-rule="evenodd"/></symbol><symbol overflow="visible" viewBox="0 0 100 100" id="trophy"><title>trophy</title><path d="M57.8,39.8A18.8,18.8,0,0,1,50,47a18.8,18.8,0,0,1-7.8-7.2A33,33,0,0,1,38,26.4c-.1-.6-.1-1.4-.2-2.3A43.7,43.7,0,0,0,37,18H63a43.7,43.7,0,0,0-.8,6.1c-.1.9-.1,1.7-.2,2.3a33,33,0,0,1-4.2,13.4ZM36.4,68.4a2.6,2.6,0,0,0,0,5.2H63.6a2.6,2.6,0,1,0-2-4.2c-6.4-.9-8.4-5.5-8.9-10.7,2-.6,3.3-2,3.3-3.6s-1.3-2.9-3.3-3.6c.2-3,1.6-3.2,4.9-4.3a36.7,36.7,0,0,0,13.9-8.8,34.2,34.2,0,0,0,9.1-16.3c.8-3.7,0-6.3-1.7-7.8a5.4,5.4,0,0,0-3-1.4,6.3,6.3,0,0,0-3.2.5,9.2,9.2,0,0,0-5,6.6H66.2a9.5,9.5,0,0,1,.9-3,1.8,1.8,0,0,0-.7-2.4l-.9-.2H34.5A1.8,1.8,0,0,0,33,17.1a9.7,9.7,0,0,1,.8,2.9H32.3a9.2,9.2,0,0,0-5-6.6,6.3,6.3,0,0,0-3.2-.5,5.4,5.4,0,0,0-3,1.4c-1.6,1.5-2.5,4.1-1.7,7.8a34.2,34.2,0,0,0,9.1,16.3,36.7,36.7,0,0,0,14,8.8c3.3,1.1,4.6,1.2,4.8,4.3-2,.7-3.3,2-3.3,3.6s1.4,2.9,3.3,3.6c-.5,5.2-2.5,9.8-8.9,10.7a2.6,2.6,0,0,0-2.1-1Zm10.4,1.2A12.5,12.5,0,0,0,50,64.3a12.5,12.5,0,0,0,3.2,5.3Zm19-46h3.4a1.8,1.8,0,0,0,1.8-1.6c.4-2.9,1.7-4.6,3.2-5.2a2.7,2.7,0,0,1,1.4-.2,1.8,1.8,0,0,1,1,.5c.8.7,1.1,2.1.6,4.4A30.6,30.6,0,0,1,68.9,36a33.2,33.2,0,0,1-8.4,6.1l.3-.4a36.5,36.5,0,0,0,4.7-14.9c.1-.8.2-1.6.2-2.4v-.8ZM39.5,42.1A33.2,33.2,0,0,1,31.1,36a30.6,30.6,0,0,1-8.2-14.6c-.5-2.3-.2-3.7.6-4.4a1.8,1.8,0,0,1,1-.5,2.7,2.7,0,0,1,1.4.2c1.4.6,2.8,2.3,3.2,5.2a1.8,1.8,0,0,0,1.8,1.6h3.4v.8c.1.8.1,1.6.2,2.4a36.5,36.5,0,0,0,4.7,14.9l.3.4ZM59.7,23.8a.9.9,0,0,0,0-1.8H40.3a.9.9,0,0,0,0,1.8Z" fill-rule="evenodd"/><polygon points="29.8 74.9 70.2 74.9 72.5 87.1 27.5 87.1 29.8 74.9 29.8 74.9" fill-rule="evenodd"/></symbol></svg>