<svg id="Layer_1" data-name="Layer 1" xmlns="http://www.w3.org/2000/svg" viewBox="0 0 80 80"><title>cube-0</title><rect width="80" height="80" fill="#242436"/><path d="M0,18H0V0H18A18.1,18.1,0,0,1,0,18Z" fill="#b30469"/><path d="M80,18h0A18.1,18.1,0,0,1,62,0H80Z" fill="#1f7aff"/><path d="M18,80H0V62H0A18.1,18.1,0,0,1,18,80Z" fill="#ff941f"/><path d="M80,80H62A18.1,18.1,0,0,1,80,62h0Z" fill="#31b304"/><g opacity="0.6"><path d="M4.3,12.8V11.3H6.4V5.1H4.6V4l1.3-.3.9-.5H8.1v8.1H10v1.5Z" fill="#fff"/></g><g opacity="0.6"><path d="M69.6,12.8V11.7L71.4,10l1.3-1.5a7.7,7.7,0,0,0,.9-1.3A2.7,2.7,0,0,0,73.9,6a1.6,1.6,0,0,0-.4-1.2,1.6,1.6,0,0,0-1.2-.4,1.7,1.7,0,0,0-1,.3l-.8.8-1-1a4.9,4.9,0,0,1,1.4-1.1A3.8,3.8,0,0,1,72.5,3l1.3.2.9.6a2.1,2.1,0,0,1,.6,1A2.1,2.1,0,0,1,75.6,6a2.7,2.7,0,0,1-.3,1.2,10,10,0,0,1-.8,1.4L73.4,9.9l-1.3,1.5H76v1.5Z" fill="#fff"/></g><g opacity="0.6"><path d="M7.6,76.8V74.3H3.4V73.1l3.8-5.9H9.3V73h1.2v1.3H9.3v2.5ZM5.1,73H7.6V70.8a3.8,3.8,0,0,1,.1-1v-1h0l-.4.7a3,3,0,0,0-.4.8Z" fill="#fff"/></g><g opacity="0.6"><path d="M72.6,76.9a3.6,3.6,0,0,1-1.9-.4,2.5,2.5,0,0,1-1.3-.9l.8-1.1,1,.7a2.5,2.5,0,0,0,1.3.3,1.6,1.6,0,0,0,1.2-.4,1.2,1.2,0,0,0,.5-1,1.5,1.5,0,0,0-.1-.7,1.2,1.2,0,0,0-.5-.5,1.9,1.9,0,0,0-.8-.3H71.4V71.2h1.2l.7-.3c.2-.2.4-.3.5-.5s.1-.4.1-.6a1.3,1.3,0,0,0-.4-1,1.5,1.5,0,0,0-1-.3l-1,.2a3.1,3.1,0,0,0-.9.7l-.9-1.1a5.7,5.7,0,0,1,1.3-.8,2.8,2.8,0,0,1,1.5-.4l1.3.2a3.1,3.1,0,0,1,1,.5,2.4,2.4,0,0,1,.6.8,1.8,1.8,0,0,1,.2,1,2.1,2.1,0,0,1-.4,1.4,2.5,2.5,0,0,1-1.2.8h0a3.9,3.9,0,0,1,1.4.8,2.1,2.1,0,0,1,.5,1.6,2,2,0,0,1-.2,1.1,2.2,2.2,0,0,1-.7.9l-1.1.5A2.7,2.7,0,0,1,72.6,76.9Z" fill="#fff"/></g><circle cx="40" cy="40" r="5" fill="#fff"/></svg>