<svg id="Layer_1" data-name="Layer 1" xmlns="http://www.w3.org/2000/svg" viewBox="0 0 80 80"><title>cube-1</title><rect width="80" height="80" transform="translate(0 80) rotate(-90)" fill="#242436"/><path d="M18,80H0V62H0A18.1,18.1,0,0,1,18,80Z" fill="#b30469"/><path d="M18,0h0A18.1,18.1,0,0,1,0,18H0V0Z" fill="#1f7aff"/><path d="M80,62V80H62A18.1,18.1,0,0,1,80,62Z" fill="#ff941f"/><path d="M80,0V18h0A18.1,18.1,0,0,1,62,0H80Z" fill="#31b304"/><g opacity="0.6"><path d="M12.8,75.7H11.3V73.6H5.1v1.8H4l-.3-1.3-.5-.9V71.9h8.1V70h1.5Z" fill="#fff"/></g><g opacity="0.6"><path d="M12.8,10.4H11.7L10,8.6,8.5,7.3,7.2,6.4A2.7,2.7,0,0,0,6,6.1a1.6,1.6,0,0,0-1.2.4,1.6,1.6,0,0,0-.4,1.2,1.7,1.7,0,0,0,.3,1,3,3,0,0,0,.8.8l-1,1A4.9,4.9,0,0,1,3.4,9.1,3.8,3.8,0,0,1,3,7.5a5.1,5.1,0,0,1,.2-1.3,3.5,3.5,0,0,1,.6-.9,2.1,2.1,0,0,1,1-.6A2.1,2.1,0,0,1,6,4.4a2.7,2.7,0,0,1,1.2.3l1.4.8L9.9,6.6l1.5,1.3c0-.2-.1-.5-.1-.8V4h1.5Z" fill="#fff"/></g><g opacity="0.6"><path d="M76.8,72.4H74.3v4.2H73.1l-5.9-3.8V70.7H73V69.5h1.3v1.2h2.5ZM73,74.9V72.4H68.8l.7.4.8.4Z" fill="#fff"/></g><g opacity="0.6"><path d="M76.9,7.4a3.6,3.6,0,0,1-.4,1.9,2.5,2.5,0,0,1-.9,1.3l-1.1-.8a3.6,3.6,0,0,0,.7-1,2.5,2.5,0,0,0,.3-1.3,1.6,1.6,0,0,0-.4-1.2,1.2,1.2,0,0,0-1-.5h-.7a1.2,1.2,0,0,0-.5.5,1.9,1.9,0,0,0-.3.8,6.1,6.1,0,0,0-.1,1.4H71.2a4.1,4.1,0,0,0-.1-1.2l-.3-.7c-.2-.2-.3-.4-.5-.5h-.6a1.3,1.3,0,0,0-1,.4,1.5,1.5,0,0,0-.3,1,3,3,0,0,0,.2,1,3.1,3.1,0,0,0,.7.9l-1.1.9A5.7,5.7,0,0,1,67.4,9,2.8,2.8,0,0,1,67,7.5a5.1,5.1,0,0,1,.2-1.3,3.1,3.1,0,0,1,.5-1,2.4,2.4,0,0,1,.8-.6,1.8,1.8,0,0,1,1-.2,2.1,2.1,0,0,1,1.4.4A2.5,2.5,0,0,1,71.7,6h.1a3.9,3.9,0,0,1,.8-1.4,2.1,2.1,0,0,1,1.6-.5,2,2,0,0,1,1.1.2,2.2,2.2,0,0,1,.9.7,3.7,3.7,0,0,1,.5,1.1A2.7,2.7,0,0,1,76.9,7.4Z" fill="#fff"/></g><path d="M63,40A25.9,25.9,0,0,0,37,14" fill="none" stroke="#fff" stroke-linecap="round" stroke-miterlimit="10" stroke-width="6"/><polygon points="29 14 41 21 41 7 29 14" fill="#fff"/></svg>