<svg id="Layer_1" data-name="Layer 1" xmlns="http://www.w3.org/2000/svg" viewBox="0 0 80 80"><title>cube-5</title><rect width="80" height="80" transform="translate(0 80) rotate(-90)" fill="#242436"/><path d="M62,80H80V62h0A18.1,18.1,0,0,0,62,80Z" fill="#b30469"/><path d="M62,0h0A18.1,18.1,0,0,0,80,18h0V0Z" fill="#1f7aff"/><path d="M0,62V80H18A18.1,18.1,0,0,0,0,62Z" fill="#ff941f"/><path d="M0,0V18H0A18.1,18.1,0,0,0,18,0H0Z" fill="#31b304"/><g opacity="0.6"><path d="M67.2,70h1.5v1.9h8.1v1.3l-.5.9L76,75.4H74.9V73.6H68.7v2.1H67.2Z" fill="#fff"/></g><g opacity="0.6"><path d="M67.3,4h1.4V7.1c0,.3-.1.6-.1.8l1.5-1.3,1.3-1.1,1.4-.8A2.7,2.7,0,0,1,74,4.4a2.1,2.1,0,0,1,1.2.3,2.1,2.1,0,0,1,1,.6,3.5,3.5,0,0,1,.6.9A5.1,5.1,0,0,1,77,7.5a3.8,3.8,0,0,1-.4,1.6,4.9,4.9,0,0,1-1.1,1.4l-1-1,.8-.8a1.7,1.7,0,0,0,.3-1,1.6,1.6,0,0,0-.4-1.2A1.6,1.6,0,0,0,74,6.1a2.7,2.7,0,0,0-1.2.3l-1.3.9L70,8.6l-1.7,1.8h-1Z" fill="#fff"/></g><g opacity="0.6"><path d="M3.2,70.7H5.7V69.5H7v1.2h5.8v2.1L6.9,76.6H5.7V72.4H3.2Zm6.5,2.4.8-.4.7-.4H7v2.5Z" fill="#fff"/></g><g opacity="0.6"><path d="M3.3,6.1A3.7,3.7,0,0,1,3.8,5a2.2,2.2,0,0,1,.9-.7,2,2,0,0,1,1.1-.2,2.1,2.1,0,0,1,1.6.5A3.9,3.9,0,0,1,8.2,6h.1a2.5,2.5,0,0,1,.8-1.2,2.1,2.1,0,0,1,1.4-.4,1.8,1.8,0,0,1,1,.2,2.4,2.4,0,0,1,.8.6,3.1,3.1,0,0,1,.5,1A5.1,5.1,0,0,1,13,7.5,2.8,2.8,0,0,1,12.6,9a5.7,5.7,0,0,1-.8,1.3l-1.1-.9a3.1,3.1,0,0,0,.7-.9,3,3,0,0,0,.2-1,1.5,1.5,0,0,0-.3-1,1.3,1.3,0,0,0-1-.4H9.7l-.5.5-.3.7a4.1,4.1,0,0,0-.1,1.2H7.5a4.9,4.9,0,0,0-.1-1.3,1.9,1.9,0,0,0-.3-.9,1.2,1.2,0,0,0-.5-.5H5.9a1.2,1.2,0,0,0-1,.5,1.6,1.6,0,0,0-.4,1.2,2.5,2.5,0,0,0,.3,1.3,3.6,3.6,0,0,0,.7,1l-1.1.8a2.5,2.5,0,0,1-.9-1.3,3.6,3.6,0,0,1-.4-1.9A2.7,2.7,0,0,1,3.3,6.1Z" fill="#fff"/></g><polygon points="14.5 14.5 18.1 28 28 18.1 14.5 14.5" fill="#fff"/><line x1="20.2" y1="20.2" x2="59.8" y2="59.8" fill="none" stroke="#fff" stroke-linecap="round" stroke-miterlimit="10" stroke-width="6"/><polygon points="65.5 65.5 61.9 52 52 61.9 65.5 65.5" fill="#fff"/></svg>