<svg id="Layer_1" data-name="Layer 1" xmlns="http://www.w3.org/2000/svg" viewBox="0 0 80 80"><title>cube-4</title><rect width="80" height="80" transform="translate(80 80) rotate(-180)" fill="#242436"/><path d="M80,18h0V0H62A18.1,18.1,0,0,0,80,18Z" fill="#b30469"/><path d="M0,18H0A18.1,18.1,0,0,0,18,0H0Z" fill="#1f7aff"/><path d="M62,80H80V62h0A18.1,18.1,0,0,0,62,80Z" fill="#ff941f"/><path d="M0,80H18A18.1,18.1,0,0,0,0,62H0Z" fill="#31b304"/><g opacity="0.6"><path d="M70,12.8V11.3h1.9V3.2h1.3l.9.5,1.3.3V5.1H73.6v6.2h2.1v1.5Z" fill="#fff"/></g><g opacity="0.6"><path d="M4,12.8V11.3H7.9L6.6,9.9,5.5,8.6a10,10,0,0,1-.8-1.4A2.7,2.7,0,0,1,4.4,6a2.1,2.1,0,0,1,.3-1.2,2.1,2.1,0,0,1,.6-1l.9-.6L7.5,3a3.8,3.8,0,0,1,1.6.4,4.9,4.9,0,0,1,1.4,1.1l-1,1a3,3,0,0,0-.8-.8,1.7,1.7,0,0,0-1-.3,1.6,1.6,0,0,0-1.2.4A1.6,1.6,0,0,0,6.1,6a2.7,2.7,0,0,0,.3,1.2,7.7,7.7,0,0,0,.9,1.3L8.6,10l1.8,1.7v1.1Z" fill="#fff"/></g><g opacity="0.6"><path d="M70.7,76.8V74.3H69.5V73h1.2V67.2h2.1l3.8,5.9v1.2H72.4v2.5Zm2.4-6.5a3,3,0,0,0-.4-.8l-.4-.7h0v1a3.8,3.8,0,0,1,.1,1V73h2.5Z" fill="#fff"/></g><g opacity="0.6"><path d="M6.1,76.7,5,76.2a2.2,2.2,0,0,1-.7-.9,2,2,0,0,1-.2-1.1,2.1,2.1,0,0,1,.5-1.6A3.9,3.9,0,0,1,6,71.8H6a2.5,2.5,0,0,1-1.2-.8,2.1,2.1,0,0,1-.4-1.4,1.8,1.8,0,0,1,.2-1,2.4,2.4,0,0,1,.6-.8,3.1,3.1,0,0,1,1-.5L7.5,67a2.8,2.8,0,0,1,1.5.4,5.7,5.7,0,0,1,1.3.8l-.9,1.1a3.1,3.1,0,0,0-.9-.7l-1-.2a1.5,1.5,0,0,0-1,.3,1.3,1.3,0,0,0-.4,1c0,.2.1.4.1.6s.3.3.5.5l.7.3H8.6v1.3H7.2a1.9,1.9,0,0,0-.8.3,1.2,1.2,0,0,0-.5.5,1.5,1.5,0,0,0-.1.7,1.2,1.2,0,0,0,.5,1,1.6,1.6,0,0,0,1.2.4,2.5,2.5,0,0,0,1.3-.3l1-.7.8,1.1a2.5,2.5,0,0,1-1.3.9,3.6,3.6,0,0,1-1.9.4A2.7,2.7,0,0,1,6.1,76.7Z" fill="#fff"/></g><polygon points="4 40 16 47 16 33 4 40" fill="#fff"/><line x1="12" y1="40" x2="68" y2="40" fill="none" stroke="#fff" stroke-linecap="round" stroke-miterlimit="10" stroke-width="6"/><polygon points="76 40 64 33 64 47 76 40" fill="#fff"/></svg>