<svg xmlns="http://www.w3.org/2000/svg" viewBox="0 0 650 120"><title>Artboard 5</title><path d="M68.3,43.2c.5-12.3-2.4-17.9-11.6-19.1-7-1-13.5,5.5-18.9,6-7.9-.6-13,3.2-11.5,9.6,1.5,4.7,7.5,9,19-.7,6.2-2.8,10.1,4,14.3,7.5C62.4,48.4,67.5,47.9,68.3,43.2Z"/><path d="M81.3,45.8c0,2-2.4,3.6-5.4,3.6s-5.3-1.6-5.3-3.6,2.4-3.6,5.3-3.6S81.3,43.8,81.3,45.8Z"/><path d="M79.2,38.2c0,1.5-1.7,2.6-3.9,2.6s-3.8-1.1-3.8-2.6,1.7-2.5,3.8-2.5S79.2,36.8,79.2,38.2Z"/><path d="M77.4,32.7c0,1.2-1.5,2.2-3.4,2.2s-3.3-1-3.3-2.2,1.5-2.3,3.3-2.3S77.4,31.4,77.4,32.7Z"/><path d="M74.2,28.7c0,.9-1.1,1.6-2.5,1.6s-2.5-.7-2.5-1.6S70.3,27,71.7,27,74.2,27.7,74.2,28.7Z"/><path d="M70.6,26.1c0,.7-.9,1.3-2,1.3s-1.9-.6-1.9-1.3.9-1.3,1.9-1.3S70.6,25.4,70.6,26.1Z"/><path d="M168.3,43.2c.5-12.3-2.4-17.9-11.6-19.1-7-1-13.5,5.5-18.9,6-7.9-.6-13,3.2-11.5,9.6,1.5,4.7,7.5,9,19-.7,6.2-2.8,10.1,4,14.3,7.5C162.4,48.4,167.5,47.9,168.3,43.2Z"/><path d="M181.3,45.8c0,2-2.4,3.6-5.4,3.6s-5.3-1.6-5.3-3.6,2.4-3.6,5.3-3.6S181.3,43.8,181.3,45.8Z"/><path d="M179.2,38.2c0,1.5-1.7,2.6-3.9,2.6s-3.8-1.1-3.8-2.6,1.7-2.5,3.8-2.5S179.2,36.8,179.2,38.2Z"/><path d="M177.4,32.7c0,1.2-1.5,2.2-3.4,2.2s-3.3-1-3.3-2.2,1.5-2.3,3.3-2.3S177.4,31.4,177.4,32.7Z"/><path d="M174.2,28.7c0,.9-1.1,1.6-2.5,1.6s-2.5-.7-2.5-1.6,1.1-1.7,2.5-1.7S174.2,27.7,174.2,28.7Z"/><path d="M170.6,26.1c0,.7-.9,1.3-2,1.3s-1.9-.6-1.9-1.3.9-1.3,1.9-1.3S170.6,25.4,170.6,26.1Z"/><path d="M268.3,43.2c.5-12.3-2.4-17.9-11.6-19.1-7-1-13.5,5.5-18.9,6-7.9-.6-13,3.2-11.5,9.6,1.5,4.7,7.5,9,19-.7,6.2-2.8,10.1,4,14.3,7.5C262.4,48.4,267.5,47.9,268.3,43.2Z"/><path d="M281.3,45.8c0,2-2.4,3.6-5.4,3.6s-5.3-1.6-5.3-3.6,2.4-3.6,5.3-3.6S281.3,43.8,281.3,45.8Z"/><path d="M279.2,38.2c0,1.5-1.7,2.6-3.9,2.6s-3.8-1.1-3.8-2.6,1.7-2.5,3.8-2.5S279.2,36.8,279.2,38.2Z"/><path d="M277.4,32.7c0,1.2-1.5,2.2-3.4,2.2s-3.3-1-3.3-2.2,1.5-2.3,3.3-2.3S277.4,31.4,277.4,32.7Z"/><path d="M274.2,28.7c0,.9-1.1,1.6-2.5,1.6s-2.5-.7-2.5-1.6,1.1-1.7,2.5-1.7S274.2,27.7,274.2,28.7Z"/><path d="M270.6,26.1c0,.7-.9,1.3-2,1.3s-1.9-.6-1.9-1.3.9-1.3,1.9-1.3S270.6,25.4,270.6,26.1Z"/><path d="M368.3,43.2c.5-12.3-2.4-17.9-11.6-19.1-7-1-13.5,5.5-18.9,6-7.9-.6-13,3.2-11.5,9.6,1.5,4.7,7.5,9,19-.7,6.2-2.8,10.1,4,14.3,7.5C362.4,48.4,367.5,47.9,368.3,43.2Z"/><path d="M381.3,45.8c0,2-2.4,3.6-5.4,3.6s-5.3-1.6-5.3-3.6,2.4-3.6,5.3-3.6S381.3,43.8,381.3,45.8Z"/><path d="M379.2,38.2c0,1.5-1.7,2.6-3.9,2.6s-3.8-1.1-3.8-2.6,1.7-2.5,3.8-2.5S379.2,36.8,379.2,38.2Z"/><path d="M377.4,32.7c0,1.2-1.5,2.2-3.4,2.2s-3.3-1-3.3-2.2,1.5-2.3,3.3-2.3S377.4,31.4,377.4,32.7Z"/><path d="M374.2,28.7c0,.9-1.1,1.6-2.5,1.6s-2.5-.7-2.5-1.6,1.1-1.7,2.5-1.7S374.2,27.7,374.2,28.7Z"/><path d="M370.6,26.1c0,.7-.9,1.3-2,1.3s-1.9-.6-1.9-1.3.9-1.3,1.9-1.3S370.6,25.4,370.6,26.1Z"/><path d="M468.3,43.2c.5-12.3-2.4-17.9-11.6-19.1-7-1-13.5,5.5-18.9,6-7.9-.6-13,3.2-11.5,9.6,1.5,4.7,7.5,9,19-.7,6.2-2.8,10.1,4,14.3,7.5C462.4,48.4,467.5,47.9,468.3,43.2Z"/><path d="M481.3,45.8c0,2-2.4,3.6-5.4,3.6s-5.3-1.6-5.3-3.6,2.4-3.6,5.3-3.6S481.3,43.8,481.3,45.8Z"/><path d="M479.2,38.2c0,1.5-1.7,2.6-3.9,2.6s-3.8-1.1-3.8-2.6,1.7-2.5,3.8-2.5S479.2,36.8,479.2,38.2Z"/><path d="M477.4,32.7c0,1.2-1.5,2.2-3.4,2.2s-3.3-1-3.3-2.2,1.5-2.3,3.3-2.3S477.4,31.4,477.4,32.7Z"/><path d="M474.2,28.7c0,.9-1.1,1.6-2.5,1.6s-2.5-.7-2.5-1.6,1.1-1.7,2.5-1.7S474.2,27.7,474.2,28.7Z"/><path d="M470.6,26.1c0,.7-.9,1.3-2,1.3s-1.9-.6-1.9-1.3.9-1.3,1.9-1.3S470.6,25.4,470.6,26.1Z"/><path d="M568.3,43.2c.5-12.3-2.4-17.9-11.6-19.1-7-1-13.5,5.5-18.9,6-7.9-.6-13,3.2-11.5,9.6,1.5,4.7,7.5,9,19-.7,6.2-2.8,10.1,4,14.3,7.5C562.4,48.4,567.5,47.9,568.3,43.2Z"/><path d="M581.3,45.8c0,2-2.4,3.6-5.4,3.6s-5.3-1.6-5.3-3.6,2.4-3.6,5.3-3.6S581.3,43.8,581.3,45.8Z"/><path d="M579.2,38.2c0,1.5-1.7,2.6-3.9,2.6s-3.8-1.1-3.8-2.6,1.7-2.5,3.8-2.5S579.2,36.8,579.2,38.2Z"/><path d="M577.4,32.7c0,1.2-1.5,2.2-3.4,2.2s-3.3-1-3.3-2.2,1.5-2.3,3.3-2.3S577.4,31.4,577.4,32.7Z"/><path d="M574.2,28.7c0,.9-1.1,1.6-2.5,1.6s-2.5-.7-2.5-1.6,1.1-1.7,2.5-1.7S574.2,27.7,574.2,28.7Z"/><path d="M570.6,26.1c0,.7-.9,1.3-2,1.3s-1.9-.6-1.9-1.3.9-1.3,1.9-1.3S570.6,25.4,570.6,26.1Z"/><path d="M9.6,73.5C5.4,77,1.5,83.8-4.7,81c-11.5-9.7-17.5-5.4-19-.7-1.5,6.4,3.6,10.2,11.5,9.6,5.4.5,11.9,7,18.9,6,9.2-1.2,12.1-6.8,11.6-19.1C17.5,72.1,12.4,71.6,9.6,73.5Z"/><path d="M25.9,77.8c-2.9,0-5.3-1.6-5.3-3.6s2.4-3.6,5.3-3.6,5.4,1.6,5.4,3.6S28.9,77.8,25.9,77.8Z"/><path d="M25.3,84.3c-2.1,0-3.8-1.1-3.8-2.5s1.7-2.6,3.8-2.6,3.9,1.1,3.9,2.6S27.5,84.3,25.3,84.3Z"/><path d="M24,89.6c-1.8,0-3.3-1-3.3-2.3s1.5-2.2,3.3-2.2,3.4,1,3.4,2.2S25.9,89.6,24,89.6Z"/><path d="M21.7,93c-1.4,0-2.5-.7-2.5-1.7s1.1-1.6,2.5-1.6,2.5.7,2.5,1.6S23.1,93,21.7,93Z"/><path d="M18.6,95.2c-1,0-1.9-.6-1.9-1.3s.9-1.3,1.9-1.3,2,.6,2,1.3S19.7,95.2,18.6,95.2Z"/><path d="M109.6,73.5c-4.2,3.5-8.1,10.3-14.3,7.5-11.5-9.7-17.5-5.4-19-.7-1.5,6.4,3.6,10.2,11.5,9.6,5.4.5,11.9,7,18.9,6,9.2-1.2,12.1-6.8,11.6-19.1C117.5,72.1,112.4,71.6,109.6,73.5Z"/><path d="M125.9,77.8c-2.9,0-5.3-1.6-5.3-3.6s2.4-3.6,5.3-3.6,5.4,1.6,5.4,3.6S128.9,77.8,125.9,77.8Z"/><path d="M125.3,84.3c-2.1,0-3.8-1.1-3.8-2.5s1.7-2.6,3.8-2.6,3.9,1.1,3.9,2.6S127.5,84.3,125.3,84.3Z"/><path d="M124,89.6c-1.8,0-3.3-1-3.3-2.3s1.5-2.2,3.3-2.2,3.4,1,3.4,2.2S125.9,89.6,124,89.6Z"/><path d="M121.7,93c-1.4,0-2.5-.7-2.5-1.7s1.1-1.6,2.5-1.6,2.5.7,2.5,1.6S123.1,93,121.7,93Z"/><path d="M118.6,95.2c-1,0-1.9-.6-1.9-1.3s.9-1.3,1.9-1.3,2,.6,2,1.3S119.7,95.2,118.6,95.2Z"/><path d="M209.6,73.5c-4.2,3.5-8.1,10.3-14.3,7.5-11.5-9.7-17.5-5.4-19-.7-1.5,6.4,3.6,10.2,11.5,9.6,5.4.5,11.9,7,18.9,6,9.2-1.2,12.1-6.8,11.6-19.1C217.5,72.1,212.4,71.6,209.6,73.5Z"/><path d="M225.9,77.8c-2.9,0-5.3-1.6-5.3-3.6s2.4-3.6,5.3-3.6,5.4,1.6,5.4,3.6S228.9,77.8,225.9,77.8Z"/><path d="M225.3,84.3c-2.1,0-3.8-1.1-3.8-2.5s1.7-2.6,3.8-2.6,3.9,1.1,3.9,2.6S227.5,84.3,225.3,84.3Z"/><path d="M224,89.6c-1.8,0-3.3-1-3.3-2.3s1.5-2.2,3.3-2.2,3.4,1,3.4,2.2S225.9,89.6,224,89.6Z"/><path d="M221.7,93c-1.4,0-2.5-.7-2.5-1.7s1.1-1.6,2.5-1.6,2.5.7,2.5,1.6S223.1,93,221.7,93Z"/><path d="M218.6,95.2c-1,0-1.9-.6-1.9-1.3s.9-1.3,1.9-1.3,2,.6,2,1.3S219.7,95.2,218.6,95.2Z"/><path d="M309.6,73.5c-4.2,3.5-8.1,10.3-14.3,7.5-11.5-9.7-17.5-5.4-19-.7-1.5,6.4,3.6,10.2,11.5,9.6,5.4.5,11.9,7,18.9,6,9.2-1.2,12.1-6.8,11.6-19.1C317.5,72.1,312.4,71.6,309.6,73.5Z"/><path d="M325.9,77.8c-2.9,0-5.3-1.6-5.3-3.6s2.4-3.6,5.3-3.6,5.4,1.6,5.4,3.6S328.9,77.8,325.9,77.8Z"/><path d="M325.3,84.3c-2.1,0-3.8-1.1-3.8-2.5s1.7-2.6,3.8-2.6,3.9,1.1,3.9,2.6S327.5,84.3,325.3,84.3Z"/><path d="M324,89.6c-1.8,0-3.3-1-3.3-2.3s1.5-2.2,3.3-2.2,3.4,1,3.4,2.2S325.9,89.6,324,89.6Z"/><path d="M321.7,93c-1.4,0-2.5-.7-2.5-1.7s1.1-1.6,2.5-1.6,2.5.7,2.5,1.6S323.1,93,321.7,93Z"/><path d="M318.6,95.2c-1,0-1.9-.6-1.9-1.3s.9-1.3,1.9-1.3,2,.6,2,1.3S319.7,95.2,318.6,95.2Z"/><path d="M409.6,73.5c-4.2,3.5-8.1,10.3-14.3,7.5-11.5-9.7-17.5-5.4-19-.7-1.5,6.4,3.6,10.2,11.5,9.6,5.4.5,11.9,7,18.9,6,9.2-1.2,12.1-6.8,11.6-19.1C417.5,72.1,412.4,71.6,409.6,73.5Z"/><path d="M425.9,77.8c-2.9,0-5.3-1.6-5.3-3.6s2.4-3.6,5.3-3.6,5.4,1.6,5.4,3.6S428.9,77.8,425.9,77.8Z"/><path d="M425.3,84.3c-2.1,0-3.8-1.1-3.8-2.5s1.7-2.6,3.8-2.6,3.9,1.1,3.9,2.6S427.5,84.3,425.3,84.3Z"/><path d="M424,89.6c-1.8,0-3.3-1-3.3-2.3s1.5-2.2,3.3-2.2,3.4,1,3.4,2.2S425.9,89.6,424,89.6Z"/><path d="M421.7,93c-1.4,0-2.5-.7-2.5-1.7s1.1-1.6,2.5-1.6,2.5.7,2.5,1.6S423.1,93,421.7,93Z"/><path d="M418.6,95.2c-1,0-1.9-.6-1.9-1.3s.9-1.3,1.9-1.3,2,.6,2,1.3S419.7,95.2,418.6,95.2Z"/><path d="M509.6,73.5c-4.2,3.5-8.1,10.3-14.3,7.5-11.5-9.7-17.5-5.4-19-.7-1.5,6.4,3.6,10.2,11.5,9.6,5.4.5,11.9,7,18.9,6,9.2-1.2,12.1-6.8,11.6-19.1C517.5,72.1,512.4,71.6,509.6,73.5Z"/><path d="M525.9,77.8c-2.9,0-5.3-1.6-5.3-3.6s2.4-3.6,5.3-3.6,5.4,1.6,5.4,3.6S528.9,77.8,525.9,77.8Z"/><path d="M525.3,84.3c-2.1,0-3.8-1.1-3.8-2.5s1.7-2.6,3.8-2.6,3.9,1.1,3.9,2.6S527.5,84.3,525.3,84.3Z"/><path d="M524,89.6c-1.8,0-3.3-1-3.3-2.3s1.5-2.2,3.3-2.2,3.4,1,3.4,2.2S525.9,89.6,524,89.6Z"/><path d="M521.7,93c-1.4,0-2.5-.7-2.5-1.7s1.1-1.6,2.5-1.6,2.5.7,2.5,1.6S523.1,93,521.7,93Z"/><path d="M518.6,95.2c-1,0-1.9-.6-1.9-1.3s.9-1.3,1.9-1.3,2,.6,2,1.3S519.7,95.2,518.6,95.2Z"/><path d="M668.3,43.2c.5-12.3-2.4-17.9-11.6-19.1-7-1-13.5,5.5-18.9,6-7.9-.6-13,3.2-11.5,9.6,1.5,4.7,7.5,9,19-.7,6.2-2.8,10.1,4,14.3,7.5C662.4,48.4,667.5,47.9,668.3,43.2Z"/><path d="M609.6,73.5c-4.2,3.5-8.1,10.3-14.3,7.5-11.5-9.7-17.5-5.4-19-.7-1.5,6.4,3.6,10.2,11.5,9.6,5.4.5,11.9,7,18.9,6,9.2-1.2,12.1-6.8,11.6-19.1C617.5,72.1,612.4,71.6,609.6,73.5Z"/><path d="M625.9,77.8c-2.9,0-5.3-1.6-5.3-3.6s2.4-3.6,5.3-3.6,5.4,1.6,5.4,3.6S628.9,77.8,625.9,77.8Z"/><path d="M625.3,84.3c-2.1,0-3.8-1.1-3.8-2.5s1.7-2.6,3.8-2.6,3.9,1.1,3.9,2.6S627.5,84.3,625.3,84.3Z"/><path d="M624,89.6c-1.8,0-3.3-1-3.3-2.3s1.5-2.2,3.3-2.2,3.4,1,3.4,2.2S625.9,89.6,624,89.6Z"/><path d="M621.7,93c-1.4,0-2.5-.7-2.5-1.7s1.1-1.6,2.5-1.6,2.5.7,2.5,1.6S623.1,93,621.7,93Z"/><path d="M618.6,95.2c-1,0-1.9-.6-1.9-1.3s.9-1.3,1.9-1.3,2,.6,2,1.3S619.7,95.2,618.6,95.2Z"/></svg>