<svg id="Layer_1" data-name="Layer 1" xmlns="http://www.w3.org/2000/svg" viewBox="0 0 130 240"><title>picker-1</title><g opacity="0.5"><polygon points="62.9 63.5 32.4 10.9 8.5 90.8 46.6 93 67.2 127.2 121 65.9 62.9 63.5" fill="#b30469"/></g><polygon points="67.2 168 6.8 160.9 56.5 227.9 81.1 198.7 120.8 202.7 104 122.9 67.2 168" fill="#b30469"/><path d="M72.1,187l7-13.1h2.5L83,187H80.8l-.3-3.7H76.3L74.4,187Zm5.9-7.3-.9,2h3.3v-2c-.1-.7-.1-1.3-.2-2s-.1-1.3-.1-2.1h-.1l-.9,2.1A18.6,18.6,0,0,1,78,179.7Z" fill="#fff"/><path d="M85.9,179.1l1.6-5.9h2.1l-.8,2.4-1.5,3.5Z" fill="#fff"/><path d="M47.7,83l7-13.1h2.6L58.7,83H56.4l-.2-3.7H51.9L50.1,83Zm6-7.3-1,2h3.4l-.2-2c0-.7-.1-1.3-.1-2a13.4,13.4,0,0,1-.1-2.1h-.1l-.9,2.1Z" fill="#fff"/></svg>