<svg id="Layer_1" data-name="Layer 1" xmlns="http://www.w3.org/2000/svg" viewBox="0 0 130 240"><title>picker-2</title><g opacity="0.5"><ellipse cx="64.2" cy="60.4" rx="31.7" ry="47" transform="translate(-23.8 55.7) rotate(-40.2)" fill="#941d88"/></g><ellipse cx="65.1" cy="173.5" rx="61.9" ry="41.7" transform="translate(-103.6 96.9) rotate(-45)" fill="#941d88"/><path d="M57.2,180l2.6-13.1h3.8a5.3,5.3,0,0,1,3,.8,2.3,2.3,0,0,1,1.2,2.2,2.7,2.7,0,0,1-.9,2.1,3.5,3.5,0,0,1-.9.7l-1.1.4h0a3.9,3.9,0,0,1,1.7.9,2.4,2.4,0,0,1,.6,1.7,3.8,3.8,0,0,1-.4,1.9,3.7,3.7,0,0,1-1.2,1.3,4.9,4.9,0,0,1-1.8.8l-2.1.2Zm2.5-1.7h2a4.6,4.6,0,0,0,2.5-.6,2.2,2.2,0,0,0,.3-3.3,3.3,3.3,0,0,0-1.9-.5h-2Zm1.2-5.9h1.6a3.7,3.7,0,0,0,2.3-.6,1.9,1.9,0,0,0,.8-1.6A1.4,1.4,0,0,0,65,169a3.2,3.2,0,0,0-1.9-.4H61.6Z" fill="#fff"/><path d="M70.5,172.1l1.6-5.9h2.1l-.8,2.4-1.5,3.5Z" fill="#fff"/><path d="M58.9,67l2.6-13.1h3.7a5.7,5.7,0,0,1,3.1.8,2.3,2.3,0,0,1,1.2,2.2,2,2,0,0,1-.3,1.1,2.1,2.1,0,0,1-.6,1l-.9.7-1.1.4h0a3.5,3.5,0,0,1,1.6.9,2.1,2.1,0,0,1,.7,1.7,3.8,3.8,0,0,1-.5,1.9A2.8,2.8,0,0,1,67.3,66a4.9,4.9,0,0,1-1.8.8l-2.2.2Zm2.5-1.7h1.9a4.8,4.8,0,0,0,2.6-.6,2.2,2.2,0,0,0,.3-3.3,3.6,3.6,0,0,0-1.9-.5H62.2Zm1.1-5.9h1.6a3.8,3.8,0,0,0,2.4-.6,1.9,1.9,0,0,0,.8-1.6,1.4,1.4,0,0,0-.6-1.2,3.4,3.4,0,0,0-1.9-.4H63.3Z" fill="#fff"/></svg>