<svg xmlns="http://www.w3.org/2000/svg" viewBox="0 0 150 150"><title>Artboard 4</title><rect width="150" height="150" fill="#1f7aff"/><rect x="-17" y="-18" width="40" height="40" rx="20" ry="20" fill="#242436"/><rect x="31" y="-18" width="40" height="40" rx="20" ry="20" fill="#242436"/><rect x="79" y="-18" width="40" height="40" rx="20" ry="20" fill="#242436"/><rect x="127" y="-18" width="40" height="40" rx="20" ry="20" fill="#242436"/><rect x="-17" y="79" width="40" height="40" rx="20" ry="20" fill="#242436"/><rect x="31" y="79" width="40" height="40" rx="20" ry="20" fill="#242436"/><rect x="79" y="79" width="40" height="40" rx="20" ry="20" fill="#242436"/><rect x="127" y="79" width="40" height="40" rx="20" ry="20" fill="#242436"/><rect x="-17" y="30" width="40" height="40" rx="20" ry="20" fill="#242436"/><rect x="31" y="30" width="40" height="40" rx="20" ry="20" fill="#242436"/><rect x="79" y="30" width="40" height="40" rx="20" ry="20" fill="#242436"/><rect x="127" y="30" width="40" height="40" rx="20" ry="20" fill="#242436"/><rect x="-17" y="128" width="40" height="40" rx="20" ry="20" fill="#242436"/><rect x="31" y="128" width="40" height="40" rx="20" ry="20" fill="#242436"/><rect x="79" y="128" width="40" height="40" rx="20" ry="20" fill="#242436"/><rect x="127" y="128" width="40" height="40" rx="20" ry="20" fill="#242436"/><rect x="7" y="103" width="40" height="40" rx="20" ry="20" fill="#31b304"/><rect x="55" y="103" width="40" height="40" rx="20" ry="20" fill="#ff941f"/><rect x="103" y="103" width="40" height="40" rx="20" ry="20" fill="#31b304"/><rect x="7" y="55" width="40" height="40" rx="20" ry="20" fill="#ff941f"/><rect x="55" y="55" width="40" height="40" rx="20" ry="20" fill="#31b304"/><rect x="103" y="55" width="40" height="40" rx="20" ry="20" fill="#ff941f"/><rect x="7" y="7" width="40" height="40" rx="20" ry="20" fill="#31b304"/><rect x="55" y="7" width="40" height="40" rx="20" ry="20" fill="#ff941f"/><rect x="103" y="7" width="40" height="40" rx="20" ry="20" fill="#31b304"/><rect x="65" y="17" width="20" height="20" rx="10" ry="10" fill="#1f7aff"/><rect x="113" y="17" width="20" height="20" rx="10" ry="10" fill="#1f7aff"/><rect x="17" y="17" width="20" height="20" rx="10" ry="10" fill="#1f7aff"/><rect x="65" y="65" width="20" height="20" rx="10" ry="10" fill="#1f7aff"/><rect x="113" y="65" width="20" height="20" rx="10" ry="10" fill="#1f7aff"/><rect x="17" y="65" width="20" height="20" rx="10" ry="10" fill="#1f7aff"/><rect x="65" y="113" width="20" height="20" rx="10" ry="10" fill="#1f7aff"/><rect x="113" y="113" width="20" height="20" rx="10" ry="10" fill="#1f7aff"/><rect x="17" y="113" width="20" height="20" rx="10" ry="10" fill="#1f7aff"/><rect x="-7" y="-8" width="20" height="20" rx="10" ry="10" fill="#1f7aff"/><rect x="-7" y="89" width="20" height="20" rx="10" ry="10" fill="#1f7aff"/><rect x="41" y="89" width="20" height="20" rx="10" ry="10" fill="#1f7aff"/><rect x="-7" y="40" width="20" height="20" rx="10" ry="10" fill="#1f7aff"/><rect x="41" y="-8" width="20" height="20" rx="10" ry="10" fill="#1f7aff"/><rect x="41" y="40" width="20" height="20" rx="10" ry="10" fill="#1f7aff"/><rect x="-7" y="138" width="20" height="20" rx="10" ry="10" fill="#1f7aff"/><rect x="41" y="138" width="20" height="20" rx="10" ry="10" fill="#1f7aff"/><rect x="89" y="-8" width="20" height="20" rx="10" ry="10" fill="#1f7aff"/><rect x="89" y="89" width="20" height="20" rx="10" ry="10" fill="#1f7aff"/><rect x="137" y="89" width="20" height="20" rx="10" ry="10" fill="#1f7aff"/><rect x="89" y="40" width="20" height="20" rx="10" ry="10" fill="#1f7aff"/><rect x="137" y="-8" width="20" height="20" rx="10" ry="10" fill="#1f7aff"/><rect x="137" y="40" width="20" height="20" rx="10" ry="10" fill="#1f7aff"/><rect x="89" y="138" width="20" height="20" rx="10" ry="10" fill="#1f7aff"/><rect x="137" y="138" width="20" height="20" rx="10" ry="10" fill="#1f7aff"/></svg>