<svg xmlns="http://www.w3.org/2000/svg" viewBox="0 0 150 150"><title>Artboard 3</title><rect width="150" height="150" fill="#65023b"/><rect x="7" y="103" width="40" height="40" fill="#ff941f"/><rect x="55" y="103" width="40" height="40" fill="#b30469"/><rect x="103" y="103" width="40" height="40" fill="#ff941f"/><rect x="7" y="55" width="40" height="40" fill="#b30469"/><rect x="55" y="55" width="40" height="40" fill="#ff941f"/><rect x="103" y="55" width="40" height="40" fill="#b30469"/><rect x="7" y="7" width="40" height="40" fill="#ff941f"/><rect x="55" y="7" width="40" height="40" fill="#b30469"/><rect x="103" y="7" width="40" height="40" fill="#ff941f"/><rect x="15" y="111" width="24" height="24" fill="#b30469"/><rect x="63" y="111" width="24" height="24" fill="#ff941f"/><rect x="111" y="111" width="24" height="24" fill="#b30469"/><rect x="15" y="63" width="24" height="24" fill="#ff941f"/><rect x="63" y="63" width="24" height="24" fill="#b30469"/><rect x="111" y="63" width="24" height="24" fill="#ff941f"/><rect x="15" y="15" width="24" height="24" fill="#b30469"/><rect x="63" y="15" width="24" height="24" fill="#ff941f"/><rect x="111" y="15" width="24" height="24" fill="#b30469"/><rect x="23" y="119" width="8" height="8" fill="#ff941f"/><rect x="71" y="119" width="8" height="8" fill="#b30469"/><rect x="119" y="119" width="8" height="8" fill="#ff941f"/><rect x="23" y="71" width="8" height="8" fill="#b30469"/><rect x="71" y="71" width="8" height="8" fill="#ff941f"/><rect x="119" y="71" width="8" height="8" fill="#b30469"/><rect x="23" y="23" width="8" height="8" fill="#ff941f"/><rect x="71" y="23" width="8" height="8" fill="#b30469"/><rect x="119" y="23" width="8" height="8" fill="#ff941f"/></svg>