<svg id="Layer_1" data-name="Layer 1" xmlns="http://www.w3.org/2000/svg" viewBox="0 0 80 80"><title>cube-7</title><rect width="80" height="80" transform="translate(80 0) rotate(90)" fill="#242436"/><path d="M18,0H0V18H0A18.1,18.1,0,0,0,18,0Z" fill="#b30469"/><path d="M18,80h0A18.1,18.1,0,0,0,0,62H0V80Z" fill="#1f7aff"/><path d="M80,18V0H62A18.1,18.1,0,0,0,80,18Z" fill="#ff941f"/><path d="M80,80V62h0A18.1,18.1,0,0,0,62,80H80Z" fill="#31b304"/><g opacity="0.6"><path d="M12.8,10H11.3V8.1H3.2V6.8l.5-.9L4,4.6H5.1V6.4h6.2V4.3h1.5Z" fill="#fff"/></g><g opacity="0.6"><path d="M12.7,76H11.3V72.9c0-.3.1-.6.1-.8L9.9,73.4,8.6,74.5l-1.4.8a2.7,2.7,0,0,1-1.2.3,2.1,2.1,0,0,1-1.2-.3,2.1,2.1,0,0,1-1-.6,3.5,3.5,0,0,1-.6-.9A5.1,5.1,0,0,1,3,72.5a3.8,3.8,0,0,1,.4-1.6,4.9,4.9,0,0,1,1.1-1.4l1,1-.8.8a1.7,1.7,0,0,0-.3,1,1.6,1.6,0,0,0,.4,1.2,1.6,1.6,0,0,0,1.2.4,2.7,2.7,0,0,0,1.2-.3l1.3-.9L10,71.4l1.7-1.8h1Z" fill="#fff"/></g><g opacity="0.6"><path d="M76.8,9.3H74.3v1.2H73V9.3H67.2V7.2l5.9-3.8h1.2V7.6h2.5ZM70.3,6.9l-.8.4-.7.4H73V5.1Z" fill="#fff"/></g><g opacity="0.6"><path d="M76.7,73.9a3.7,3.7,0,0,1-.5,1.1,2.2,2.2,0,0,1-.9.7,2,2,0,0,1-1.1.2,2.1,2.1,0,0,1-1.6-.5,3.9,3.9,0,0,1-.8-1.4h-.1a2.5,2.5,0,0,1-.8,1.2,2.1,2.1,0,0,1-1.4.4,1.8,1.8,0,0,1-1-.2,2.4,2.4,0,0,1-.8-.6,3.1,3.1,0,0,1-.5-1,5.1,5.1,0,0,1-.2-1.3,2.8,2.8,0,0,1,.4-1.5,5.7,5.7,0,0,1,.8-1.3l1.1.9a3.1,3.1,0,0,0-.7.9,3,3,0,0,0-.2,1,1.5,1.5,0,0,0,.3,1,1.3,1.3,0,0,0,1,.4h.6c.2-.1.3-.3.5-.5l.3-.7a4.1,4.1,0,0,0,.1-1.2h1.3a4.9,4.9,0,0,0,.1,1.3,1.9,1.9,0,0,0,.3.9,1.2,1.2,0,0,0,.5.5h.7a1.2,1.2,0,0,0,1-.5,1.6,1.6,0,0,0,.4-1.2,2.5,2.5,0,0,0-.3-1.3,3.6,3.6,0,0,0-.7-1l1.1-.8a2.5,2.5,0,0,1,.9,1.3,3.6,3.6,0,0,1,.4,1.9A2.7,2.7,0,0,1,76.7,73.9Z" fill="#fff"/></g><polygon points="14.5 65.5 28 61.9 18.1 52 14.5 65.5" fill="#fff"/><line x1="20.2" y1="59.8" x2="59.8" y2="20.2" fill="none" stroke="#fff" stroke-linecap="round" stroke-miterlimit="10" stroke-width="6"/><polygon points="65.5 14.5 52 18.1 61.9 28 65.5 14.5" fill="#fff"/></svg>