<svg id="Layer_1" data-name="Layer 1" xmlns="http://www.w3.org/2000/svg" viewBox="0 0 130 240"><title>picker-3</title><g opacity="0.5"><path d="M88.5,16C77.9,16,71.2,20.1,65,29.8,58.8,20.1,52.4,16,41.5,16,26.8,16,15,27.5,15,41.6c0,11.2,5.3,22.6,15.3,35.6,7.3,9.4,15,17,32.6,34.1l2.1,2.1,2.1-2.1C84.7,94.2,92.4,86.6,99.7,77.2c10-13,15.3-24.4,15.3-35.6C115,27.5,103.2,16,88.5,16Z" fill="#7635a8"/></g><path d="M59.7,222.6c9.2-5.2,13-12.2,13.6-23.7,10.2,5.4,17.8,5.8,27.3.4,12.7-7.3,17.3-23.1,10.3-35.4-5.6-9.7-15.9-17-31-23.3-11-4.5-21.5-7.4-45.2-13.4l-2.8-.8-.8,2.8c-6.9,23.6-9.7,34-11.4,45.8-2.3,16.2-1.2,28.8,4.3,38.5C31,225.8,46.9,229.9,59.7,222.6Z" fill="#7635a8"/><path d="M55.9,179.2a6.6,6.6,0,0,1-2.1-.3,7.2,7.2,0,0,1-1.5-1.1,4.6,4.6,0,0,1-.9-1.7,7.8,7.8,0,0,1-.3-2.2,8.1,8.1,0,0,1,.5-3.1,7.2,7.2,0,0,1,1.4-2.6,5.5,5.5,0,0,1,2.2-1.8,5,5,0,0,1,2.7-.7,4.2,4.2,0,0,1,2,.5,5,5,0,0,1,1.4,1.5l-1.5,1.1a3.8,3.8,0,0,0-.9-.9,2.1,2.1,0,0,0-1.1-.4,2.8,2.8,0,0,0-1.8.6,4,4,0,0,0-1.5,1.4,6.1,6.1,0,0,0-.9,2,7.8,7.8,0,0,0-.3,2.2,6.6,6.6,0,0,0,.1,1.5,2.7,2.7,0,0,0,.6,1.2,2.2,2.2,0,0,0,.9.7,2.9,2.9,0,0,0,1.4.3,3.1,3.1,0,0,0,1.3-.3l1.2-.8.9,1.4a11.1,11.1,0,0,1-1.6,1.1A5.4,5.4,0,0,1,55.9,179.2Z" fill="#fff"/><path d="M63.2,171.1l1.6-5.9h2.1l-.8,2.4-1.5,3.5Z" fill="#fff"/><path d="M64.5,66.2a6.4,6.4,0,0,1-2-.3A4.2,4.2,0,0,1,61,64.8a4.6,4.6,0,0,1-.9-1.7,5.4,5.4,0,0,1-.4-2.2,10.6,10.6,0,0,1,.5-3.1,7.4,7.4,0,0,1,1.5-2.6,6,6,0,0,1,2.1-1.8,5.5,5.5,0,0,1,2.8-.7,4.6,4.6,0,0,1,2,.5,4.7,4.7,0,0,1,1.3,1.5l-1.5,1.1a2.4,2.4,0,0,0-.8-.9,2.1,2.1,0,0,0-1.1-.4,3.3,3.3,0,0,0-1.9.6,4.7,4.7,0,0,0-1.4,1.4,6.1,6.1,0,0,0-.9,2,5.4,5.4,0,0,0-.4,2.2,6.1,6.1,0,0,0,.2,1.5,4.3,4.3,0,0,0,.5,1.2l1,.7a2.8,2.8,0,0,0,1.3.3,3.5,3.5,0,0,0,1.4-.3l1.1-.8,1,1.4-1.6,1.1A5.6,5.6,0,0,1,64.5,66.2Z" fill="#fff"/></svg>