<svg id="Layer_1" data-name="Layer 1" xmlns="http://www.w3.org/2000/svg" viewBox="0 0 130 240"><title>picker-4</title><g opacity="0.5"><polygon points="92.7 19 92.7 68 76.8 68 76.8 31.8 54.4 31.8 54.4 68 36.3 68 36.3 19 13.9 19 13.9 68 13.9 90.4 36.3 90.4 54.4 90.4 76.8 90.4 92.7 90.4 115.1 90.4 115.1 68 115.1 19 92.7 19" fill="#574ec7"/></g><polygon points="36.3 193 36.3 144 52.2 144 52.2 225 74.6 225 74.6 144 92.7 144 92.7 193 115.1 193 115.1 144 115.1 121.7 92.7 121.7 74.6 121.7 52.2 121.7 36.3 121.7 13.9 121.7 13.9 144 13.9 193 36.3 193" fill="#574ec7"/><path d="M97.8,80l2.6-13.1H103a6.2,6.2,0,0,1,4.2,1.3,4.9,4.9,0,0,1,1.5,3.8,11.6,11.6,0,0,1-.5,3.4,7,7,0,0,1-1.5,2.5,6,6,0,0,1-2.2,1.6,8.8,8.8,0,0,1-2.9.5Zm2.5-1.7h1.2a5.9,5.9,0,0,0,2-.4,4,4,0,0,0,1.6-1.2,5,5,0,0,0,1-1.9,7.5,7.5,0,0,0,.4-2.6,3.7,3.7,0,0,0-.9-2.7,4,4,0,0,0-2.6-.8h-.8Z" fill="#fff"/><path d="M18.1,141l2.6-13.1h2.7a6.6,6.6,0,0,1,4.2,1.3A5.2,5.2,0,0,1,29,133a9,9,0,0,1-.5,3.4,6.8,6.8,0,0,1-1.4,2.5,6.3,6.3,0,0,1-2.3,1.6,8.4,8.4,0,0,1-2.9.5Zm2.5-1.7h1.3a6.5,6.5,0,0,0,2-.4,4.4,4.4,0,0,0,1.5-1.2,7.2,7.2,0,0,0,1.1-1.9,10.9,10.9,0,0,0,.3-2.6,3.7,3.7,0,0,0-.9-2.7,4,4,0,0,0-2.6-.8h-.8Z" fill="#fff"/><path d="M31.6,133.1l1.6-5.9h2.1l-.8,2.4L33,133.1Z" fill="#fff"/></svg>