<svg xmlns="http://www.w3.org/2000/svg" viewBox="0 0 150 150"><title>Artboard 1</title><rect width="150" height="150" fill="#1f7aff"/><rect x="7" y="103" width="40" height="40" rx="20" ry="20" fill="#31b304"/><rect x="55" y="103" width="40" height="40" rx="20" ry="20" fill="#31b304"/><rect x="103" y="103" width="40" height="40" rx="20" ry="20" fill="#31b304"/><rect x="7" y="55" width="40" height="40" rx="20" ry="20" fill="#31b304"/><rect x="55" y="55" width="40" height="40" rx="20" ry="20" fill="#31b304"/><rect x="103" y="55" width="40" height="40" rx="20" ry="20" fill="#31b304"/><rect x="7" y="7" width="40" height="40" rx="20" ry="20" fill="#31b304"/><rect x="55" y="7" width="40" height="40" rx="20" ry="20" fill="#31b304"/><rect x="103" y="7" width="40" height="40" rx="20" ry="20" fill="#31b304"/><rect x="41" y="-7" width="20" height="20" rx="10" ry="10" fill="#242436"/><rect x="89" y="-7" width="20" height="20" rx="10" ry="10" fill="#242436"/><rect x="137" y="-7" width="20" height="20" rx="10" ry="10" fill="#242436"/><rect x="-7" y="-7" width="20" height="20" rx="10" ry="10" fill="#242436"/><rect x="41" y="41" width="20" height="20" rx="10" ry="10" fill="#242436"/><rect x="89" y="41" width="20" height="20" rx="10" ry="10" fill="#242436"/><rect x="137" y="41" width="20" height="20" rx="10" ry="10" fill="#242436"/><rect x="-7" y="41" width="20" height="20" rx="10" ry="10" fill="#242436"/><rect x="41" y="89" width="20" height="20" rx="10" ry="10" fill="#242436"/><rect x="89" y="89" width="20" height="20" rx="10" ry="10" fill="#242436"/><rect x="137" y="89" width="20" height="20" rx="10" ry="10" fill="#242436"/><rect x="-7" y="89" width="20" height="20" rx="10" ry="10" fill="#242436"/><rect x="41" y="137" width="20" height="20" rx="10" ry="10" fill="#242436"/><rect x="89" y="137" width="20" height="20" rx="10" ry="10" fill="#242436"/><rect x="137" y="137" width="20" height="20" rx="10" ry="10" fill="#242436"/><rect x="-7" y="137" width="20" height="20" rx="10" ry="10" fill="#242436"/><rect x="65" y="17" width="20" height="20" rx="10" ry="10" fill="#ff941f"/><rect x="113" y="17" width="20" height="20" rx="10" ry="10" fill="#ff941f"/><rect x="17" y="17" width="20" height="20" rx="10" ry="10" fill="#ff941f"/><rect x="65" y="65" width="20" height="20" rx="10" ry="10" fill="#ff941f"/><rect x="113" y="65" width="20" height="20" rx="10" ry="10" fill="#ff941f"/><rect x="17" y="65" width="20" height="20" rx="10" ry="10" fill="#ff941f"/><rect x="65" y="113" width="20" height="20" rx="10" ry="10" fill="#ff941f"/><rect x="113" y="113" width="20" height="20" rx="10" ry="10" fill="#ff941f"/><rect x="17" y="113" width="20" height="20" rx="10" ry="10" fill="#ff941f"/></svg>