<svg xmlns="http://www.w3.org/2000/svg" viewBox="0 0 150 150"><title>Artboard 2</title><rect x="7" y="103" width="40" height="40" fill="#ff941f"/><rect x="15" y="111" width="24" height="24" fill="#b30469"/><rect x="23" y="119" width="8" height="8" fill="#ff941f"/><rect x="47" y="135" width="8" height="8" fill="#86034f"/><rect x="47" y="127" width="8" height="8" fill="#65023b"/><rect x="47" y="119" width="8" height="8" fill="#86034f"/><rect x="47" y="111" width="8" height="8" fill="#65023b"/><rect x="47" y="103" width="8" height="8" fill="#86034f"/><rect x="47" y="95" width="8" height="8" fill="#65023b"/><rect x="39" y="95" width="8" height="8" fill="#86034f"/><rect x="31" y="95" width="8" height="8" fill="#65023b"/><rect x="23" y="95" width="8" height="8" fill="#86034f"/><rect x="15" y="95" width="8" height="8" fill="#65023b"/><rect x="7" y="95" width="8" height="8" fill="#86034f"/><rect x="55" y="103" width="40" height="40" fill="#ff941f"/><rect x="63" y="111" width="24" height="24" fill="#b30469"/><rect x="71" y="119" width="8" height="8" fill="#ff941f"/><rect x="95" y="135" width="8" height="8" fill="#86034f"/><rect x="95" y="127" width="8" height="8" fill="#65023b"/><rect x="95" y="119" width="8" height="8" fill="#86034f"/><rect x="95" y="111" width="8" height="8" fill="#65023b"/><rect x="95" y="103" width="8" height="8" fill="#86034f"/><rect x="95" y="95" width="8" height="8" fill="#65023b"/><rect x="87" y="95" width="8" height="8" fill="#86034f"/><rect x="79" y="95" width="8" height="8" fill="#65023b"/><rect x="71" y="95" width="8" height="8" fill="#86034f"/><rect x="63" y="95" width="8" height="8" fill="#65023b"/><rect x="55" y="95" width="8" height="8" fill="#86034f"/><rect x="103" y="103" width="40" height="40" fill="#ff941f"/><rect x="111" y="111" width="24" height="24" fill="#b30469"/><rect x="119" y="119" width="8" height="8" fill="#ff941f"/><rect x="143" y="135" width="8" height="8" fill="#86034f"/><rect x="143" y="127" width="8" height="8" fill="#65023b"/><rect x="143" y="119" width="8" height="8" fill="#86034f"/><rect x="143" y="111" width="8" height="8" fill="#65023b"/><rect x="143" y="103" width="8" height="8" fill="#86034f"/><rect x="143" y="95" width="8" height="8" fill="#65023b"/><rect x="-1" y="135" width="8" height="8" fill="#86034f"/><rect x="-1" y="127" width="8" height="8" fill="#65023b"/><rect x="-1" y="119" width="8" height="8" fill="#86034f"/><rect x="-1" y="111" width="8" height="8" fill="#65023b"/><rect x="-1" y="103" width="8" height="8" fill="#86034f"/><rect x="-1" y="95" width="8" height="8" fill="#65023b"/><rect x="135" y="95" width="8" height="8" fill="#86034f"/><rect x="127" y="95" width="8" height="8" fill="#65023b"/><rect x="119" y="95" width="8" height="8" fill="#86034f"/><rect x="111" y="95" width="8" height="8" fill="#65023b"/><rect x="103" y="95" width="8" height="8" fill="#86034f"/><rect x="7" y="55" width="40" height="40" fill="#ff941f"/><rect x="15" y="63" width="24" height="24" fill="#b30469"/><rect x="23" y="71" width="8" height="8" fill="#ff941f"/><rect x="47" y="87" width="8" height="8" fill="#86034f"/><rect x="47" y="79" width="8" height="8" fill="#65023b"/><rect x="47" y="71" width="8" height="8" fill="#86034f"/><rect x="47" y="63" width="8" height="8" fill="#65023b"/><rect x="47" y="55" width="8" height="8" fill="#86034f"/><rect x="47" y="47" width="8" height="8" fill="#65023b"/><rect x="39" y="47" width="8" height="8" fill="#86034f"/><rect x="31" y="47" width="8" height="8" fill="#65023b"/><rect x="23" y="47" width="8" height="8" fill="#86034f"/><rect x="15" y="47" width="8" height="8" fill="#65023b"/><rect x="7" y="47" width="8" height="8" fill="#86034f"/><rect x="55" y="55" width="40" height="40" fill="#ff941f"/><rect x="63" y="63" width="24" height="24" fill="#b30469"/><rect x="71" y="71" width="8" height="8" fill="#ff941f"/><rect x="95" y="87" width="8" height="8" fill="#86034f"/><rect x="95" y="79" width="8" height="8" fill="#65023b"/><rect x="95" y="71" width="8" height="8" fill="#86034f"/><rect x="95" y="63" width="8" height="8" fill="#65023b"/><rect x="95" y="55" width="8" height="8" fill="#86034f"/><rect x="95" y="47" width="8" height="8" fill="#65023b"/><rect x="87" y="47" width="8" height="8" fill="#86034f"/><rect x="79" y="47" width="8" height="8" fill="#65023b"/><rect x="71" y="47" width="8" height="8" fill="#86034f"/><rect x="63" y="47" width="8" height="8" fill="#65023b"/><rect x="55" y="47" width="8" height="8" fill="#86034f"/><rect x="103" y="55" width="40" height="40" fill="#ff941f"/><rect x="111" y="63" width="24" height="24" fill="#b30469"/><rect x="119" y="71" width="8" height="8" fill="#ff941f"/><rect x="143" y="87" width="8" height="8" fill="#86034f"/><rect x="143" y="79" width="8" height="8" fill="#65023b"/><rect x="143" y="71" width="8" height="8" fill="#86034f"/><rect x="143" y="63" width="8" height="8" fill="#65023b"/><rect x="143" y="55" width="8" height="8" fill="#86034f"/><rect x="143" y="47" width="8" height="8" fill="#65023b"/><rect x="-1" y="87" width="8" height="8" fill="#86034f"/><rect x="-1" y="79" width="8" height="8" fill="#65023b"/><rect x="-1" y="71" width="8" height="8" fill="#86034f"/><rect x="-1" y="63" width="8" height="8" fill="#65023b"/><rect x="-1" y="55" width="8" height="8" fill="#86034f"/><rect x="-1" y="47" width="8" height="8" fill="#65023b"/><rect x="135" y="47" width="8" height="8" fill="#86034f"/><rect x="127" y="47" width="8" height="8" fill="#65023b"/><rect x="119" y="47" width="8" height="8" fill="#86034f"/><rect x="111" y="47" width="8" height="8" fill="#65023b"/><rect x="103" y="47" width="8" height="8" fill="#86034f"/><rect x="7" y="7" width="40" height="40" fill="#ff941f"/><rect x="15" y="15" width="24" height="24" fill="#b30469"/><rect x="23" y="23" width="8" height="8" fill="#ff941f"/><rect x="47" y="39" width="8" height="8" fill="#86034f"/><rect x="47" y="31" width="8" height="8" fill="#65023b"/><rect x="47" y="23" width="8" height="8" fill="#86034f"/><rect x="47" y="15" width="8" height="8" fill="#65023b"/><rect x="47" y="7" width="8" height="8" fill="#86034f"/><rect x="47" y="-1" width="8" height="8" fill="#65023b"/><rect x="39" y="-1" width="8" height="8" fill="#86034f"/><rect x="31" y="-1" width="8" height="8" fill="#65023b"/><rect x="23" y="-1" width="8" height="8" fill="#86034f"/><rect x="15" y="-1" width="8" height="8" fill="#65023b"/><rect x="7" y="-1" width="8" height="8" fill="#86034f"/><rect x="55" y="7" width="40" height="40" fill="#ff941f"/><rect x="63" y="15" width="24" height="24" fill="#b30469"/><rect x="71" y="23" width="8" height="8" fill="#ff941f"/><rect x="95" y="39" width="8" height="8" fill="#86034f"/><rect x="95" y="31" width="8" height="8" fill="#65023b"/><rect x="95" y="23" width="8" height="8" fill="#86034f"/><rect x="95" y="15" width="8" height="8" fill="#65023b"/><rect x="95" y="7" width="8" height="8" fill="#86034f"/><rect x="95" y="-1" width="8" height="8" fill="#65023b"/><rect x="87" y="-1" width="8" height="8" fill="#86034f"/><rect x="79" y="-1" width="8" height="8" fill="#65023b"/><rect x="71" y="-1" width="8" height="8" fill="#86034f"/><rect x="63" y="-1" width="8" height="8" fill="#65023b"/><rect x="55" y="-1" width="8" height="8" fill="#86034f"/><rect x="103" y="7" width="40" height="40" fill="#ff941f"/><rect x="111" y="15" width="24" height="24" fill="#b30469"/><rect x="119" y="23" width="8" height="8" fill="#ff941f"/><rect x="143" y="39" width="8" height="8" fill="#86034f"/><rect x="143" y="31" width="8" height="8" fill="#65023b"/><rect x="143" y="23" width="8" height="8" fill="#86034f"/><rect x="143" y="15" width="8" height="8" fill="#65023b"/><rect x="143" y="7" width="8" height="8" fill="#86034f"/><rect x="143" y="-1" width="8" height="8" fill="#65023b"/><rect x="-1" y="39" width="8" height="8" fill="#86034f"/><rect x="-1" y="31" width="8" height="8" fill="#65023b"/><rect x="-1" y="23" width="8" height="8" fill="#86034f"/><rect x="-1" y="15" width="8" height="8" fill="#65023b"/><rect x="-1" y="7" width="8" height="8" fill="#86034f"/><rect x="-1" y="-1" width="8" height="8" fill="#65023b"/><rect x="135" y="-1" width="8" height="8" fill="#86034f"/><rect x="127" y="-1" width="8" height="8" fill="#65023b"/><rect x="119" y="-1" width="8" height="8" fill="#86034f"/><rect x="111" y="-1" width="8" height="8" fill="#65023b"/><rect x="103" y="-1" width="8" height="8" fill="#86034f"/><rect x="47" y="143" width="8" height="8" fill="#65023b"/><rect x="39" y="143" width="8" height="8" fill="#86034f"/><rect x="31" y="143" width="8" height="8" fill="#65023b"/><rect x="23" y="143" width="8" height="8" fill="#86034f"/><rect x="15" y="143" width="8" height="8" fill="#65023b"/><rect x="7" y="143" width="8" height="8" fill="#86034f"/><rect x="95" y="143" width="8" height="8" fill="#65023b"/><rect x="87" y="143" width="8" height="8" fill="#86034f"/><rect x="79" y="143" width="8" height="8" fill="#65023b"/><rect x="71" y="143" width="8" height="8" fill="#86034f"/><rect x="63" y="143" width="8" height="8" fill="#65023b"/><rect x="55" y="143" width="8" height="8" fill="#86034f"/><rect x="143" y="143" width="8" height="8" fill="#65023b"/><rect x="-1" y="143" width="8" height="8" fill="#65023b"/><rect x="135" y="143" width="8" height="8" fill="#86034f"/><rect x="127" y="143" width="8" height="8" fill="#65023b"/><rect x="119" y="143" width="8" height="8" fill="#86034f"/><rect x="111" y="143" width="8" height="8" fill="#65023b"/><rect x="103" y="143" width="8" height="8" fill="#86034f"/></svg>