<svg width="200" height="200">
  <path d="M55,69.2a1.4,1.4,0,0,0-1.1.5L16.6,104.3A31.2,31.2,0,0,0,7,125.1C6.5,133,9.2,141,16.4,146h0a29.1,29.1,0,0,0,17.1,5.6h.1l.7-.2h0c5.8.2,10.9-2.2,15.4-5.1-.9,6.2-1.8,7.7-3,13.1s-3.5,7-6,9.6a1.7,1.7,0,0,0,1.2,3H69.1a1.8,1.8,0,0,0,1.2-3c-2.6-2.6-4.9-3.1-6.7-9.6s-2.3-7.1-3.1-13.3c13,8.3,29.3,6.5,38-4.4a23,23,0,0,0,5.3-19.3A33.8,33.8,0,0,0,93,103.8L56.2,69.7A1.5,1.5,0,0,0,55,69.2Z" opacity="0.5" fill="#1f7aff"/>
  <path d="M55,69.2a1.4,1.4,0,0,0-1.1.5L16.6,104.3A31.2,31.2,0,0,0,7,125.1C6.5,133,9.2,141,16.4,146h0a29.1,29.1,0,0,0,17.1,5.6h.1l.7-.2h0c5.8.2,10.9-2.2,15.4-5.1-.9,6.2-1.8,7.7-3,13.1s-3.5,7-6,9.6a1.7,1.7,0,0,0,1.2,3H69.1a1.8,1.8,0,0,0,1.2-3c-2.6-2.6-4.9-3.1-6.7-9.6s-2.3-7.1-3.1-13.3c13,8.3,29.3,6.5,38-4.4a23,23,0,0,0,5.3-19.3A33.8,33.8,0,0,0,93,103.8L56.2,69.7A1.5,1.5,0,0,0,55,69.2Z" class="image" fill="#1f7aff"/>

  <line style="display: none" x1="56" y1="172" x2="135.6" y2="137.5" stroke="#000" stroke-linecap="round" stroke-width="2"/>
  <polygon style="display: none" class="arrow-head" points="146 133 134 145.3 134.9 137.8 128.8 133.4 146 133"/>

  <g class="reveal" data-when="t1">
    <path d="M136.1,83l7-13.1h2.5L147,83h-2.2l-.3-3.7h-4.2L138.4,83Zm5.9-7.3-.9,2h3.3v-2c-.1-.7-.1-1.3-.2-2s-.1-1.3-.1-2.1h-.1a22,22,0,0,1-.9,2.1A18.6,18.6,0,0,1,142,75.7Z" fill="#fff"/>
    <path d="M149.9,75.1l1.6-5.9h2.1l-.8,2.4-1.5,3.5Z" fill="#fff"/>
    <path d="M47.7,123l7-13.1h2.6L58.7,123H56.4l-.2-3.7H51.9L50.1,123Zm6-7.3-1,2h3.4l-.2-2c0-.7-.1-1.3-.1-2a13.4,13.4,0,0,1-.1-2.1h-.1l-.9,2.1Z" fill="#fff"/>
  </g>
</svg>
