<svg width="200" height="200">
  <polygon points="4 39.1 51.6 142.1 107.2 56.1 58.3 68.5 4 39.1" fill="#258dab" opacity="0.5"/>
  <polygon points="4 39.1 51.6 142.1 107.2 56.1 58.3 68.5 4 39.1" fill="#258dab" class="image"/>
  <line style="display: none" x1="147" y1="-3" x2="41" y2="204" stroke="#000" stroke-linecap="round" stroke-width="2"/>

  <g class="reveal" data-when="t2">
    <path d="M114.2,134l2.6-13.1h3.8a5.3,5.3,0,0,1,3,.8,2.3,2.3,0,0,1,1.2,2.2,2.7,2.7,0,0,1-.9,2.1,3.5,3.5,0,0,1-.9.7l-1.1.4h0a3.9,3.9,0,0,1,1.7.9,2.4,2.4,0,0,1,.6,1.7,3.8,3.8,0,0,1-.4,1.9,3.7,3.7,0,0,1-1.2,1.3,4.9,4.9,0,0,1-1.8.8l-2.1.2Zm2.5-1.7h2a4.6,4.6,0,0,0,2.5-.6,2.2,2.2,0,0,0,.3-3.3,3.3,3.3,0,0,0-1.9-.5h-2Zm1.2-5.9h1.6a3.7,3.7,0,0,0,2.3-.6,1.9,1.9,0,0,0,.8-1.6,1.4,1.4,0,0,0-.6-1.2,3.2,3.2,0,0,0-1.9-.4h-1.5Z" fill="#fff"/>
    <path d="M127.5,126.1l1.6-5.9h2.1l-.8,2.4-1.5,3.5Z" fill="#fff"/>
    <path d="M47.9,98l2.6-13.1h3.7a5.7,5.7,0,0,1,3.1.8,2.3,2.3,0,0,1,1.2,2.2,2,2,0,0,1-.3,1.1,2.1,2.1,0,0,1-.6,1l-.9.7-1.1.4h0a3.5,3.5,0,0,1,1.6.9,2.1,2.1,0,0,1,.7,1.7,3.8,3.8,0,0,1-.5,1.9A2.8,2.8,0,0,1,56.3,97a4.9,4.9,0,0,1-1.8.8l-2.2.2Zm2.5-1.7h1.9a4.8,4.8,0,0,0,2.6-.6,2.2,2.2,0,0,0,.3-3.3,3.6,3.6,0,0,0-1.9-.5H51.2Zm1.1-5.9h1.6a3.8,3.8,0,0,0,2.4-.6,1.9,1.9,0,0,0,.8-1.6,1.4,1.4,0,0,0-.6-1.2,3.4,3.4,0,0,0-1.9-.4H52.3Z" fill="#fff"/>
  </g>
</svg>
