<svg width="200" height="200">
  <rect x="11.2" y="11.5" width="100" height="100" rx="50" ry="50" style="transform: translate(-20px,40px) rotate(-30deg)" fill="#cc3450" opacity="0.5"/>
  <rect x="11.2" y="11.5" width="100" height="100" rx="50" ry="50" style="transform: translate(-20px,40px) rotate(-30deg)" fill="#cc3450" class="image"/>
  <g class="reveal" data-when="t1 t2 t3" fill="#fff">
    <path d="M130.9,138.2a6.6,6.6,0,0,1-2.1-.3,7.2,7.2,0,0,1-1.5-1.1,4.6,4.6,0,0,1-.9-1.7,7.8,7.8,0,0,1-.3-2.2,8.1,8.1,0,0,1,.5-3.1,7.2,7.2,0,0,1,1.4-2.6,5.5,5.5,0,0,1,2.2-1.8,5,5,0,0,1,2.7-.7,4.2,4.2,0,0,1,2,.5,5,5,0,0,1,1.4,1.5l-1.5,1.1-.9-.9a2.1,2.1,0,0,0-1.1-.4,2.8,2.8,0,0,0-1.8.6,4,4,0,0,0-1.5,1.4,6.1,6.1,0,0,0-.9,2,7.8,7.8,0,0,0-.3,2.2,6.6,6.6,0,0,0,.1,1.5,2.7,2.7,0,0,0,.6,1.2,2.2,2.2,0,0,0,.9.7,2.9,2.9,0,0,0,1.4.3,3.1,3.1,0,0,0,1.3-.3l1.2-.8.9,1.4a11.1,11.1,0,0,1-1.6,1.1A5.4,5.4,0,0,1,130.9,138.2Z"/>
    <path d="M138.2,130.1l1.6-5.9h2.1l-.8,2.4-1.5,3.5Z"/>
    <path d="M59.5,67.2a6.4,6.4,0,0,1-2-.3A4.2,4.2,0,0,1,56,65.8a4.6,4.6,0,0,1-.9-1.7,5.4,5.4,0,0,1-.4-2.2,10.6,10.6,0,0,1,.5-3.1,7.4,7.4,0,0,1,1.5-2.6,6,6,0,0,1,2.1-1.8,5.5,5.5,0,0,1,2.8-.7,4.6,4.6,0,0,1,2,.5,4.7,4.7,0,0,1,1.3,1.5l-1.5,1.1a2.4,2.4,0,0,0-.8-.9,2.1,2.1,0,0,0-1.1-.4,3.3,3.3,0,0,0-1.9.6,4.7,4.7,0,0,0-1.4,1.4,6.1,6.1,0,0,0-.9,2,5.4,5.4,0,0,0-.4,2.2,6.1,6.1,0,0,0,.2,1.5,4.3,4.3,0,0,0,.5,1.2l1,.7a2.8,2.8,0,0,0,1.3.3,3.5,3.5,0,0,0,1.4-.3l1.1-.8,1,1.4-1.6,1.1A5.6,5.6,0,0,1,59.5,67.2Z"/>
  </g>
</svg>
