<svg xmlns="http://www.w3.org/2000/svg" width="240" height="130" viewBox="0 0 240 130"><title>look-and-say</title><text transform="translate(91.8 16.94)" font-size="18" fill="#1f7aff" font-family="SourceSansPro-SemiBold, Source Sans Pro" font-weight="700">111<tspan x="27.7" y="0" fill="#31b304">22</tspan><tspan x="46.17" y="0" fill="#ff941f">1</tspan></text><text transform="translate(91.8 123.94)" font-size="18" fill="#1f7aff" font-family="SourceSansPro-SemiBold, Source Sans Pro" font-weight="700">31<tspan x="18.47" y="0" fill="#31b304">22</tspan><tspan x="36.93" y="0" fill="#ff941f" letter-spacing="0em">11</tspan></text><text transform="translate(2.13 69.94)" font-size="18" fill="#1f7aff" font-family="SourceSansPro-SemiBold, Source Sans Pro" font-weight="700">Th<tspan x="19.87" y="0" letter-spacing="-0.01em">r</tspan><tspan x="26.41" y="0">ee ones,</tspan><tspan x="90.05" y="0" fill="#ff941f"> </tspan><tspan x="93.65" y="0" fill="#31b304">t</tspan><tspan x="100.15" y="0" fill="#31b304" letter-spacing="-0.01em">w</tspan><tspan x="113.51" y="0" fill="#31b304">o t</tspan><tspan x="133.49" y="0" fill="#31b304" letter-spacing="-0.01em">w</tspan><tspan x="146.84" y="0" fill="#31b304" letter-spacing="0em">o</tspan><tspan x="156.65" y="0" fill="#31b304" letter-spacing="0em">s, </tspan><tspan x="172.96" y="0" fill="#ff941f">one one</tspan></text><line x1="107" y1="22" x2="61.3" y2="46.93" fill="none" stroke="#1f7aff" stroke-linecap="round" stroke-miterlimit="10" stroke-width="2"/><polygon points="52 52 62.18 39.5 61.99 46.55 68.02 50.21 52 52" fill="#1f7aff"/><line x1="128" y1="22" x2="129.95" y2="41.46" fill="none" stroke="#31b304" stroke-linecap="round" stroke-miterlimit="10" stroke-width="2"/><polygon points="131 52 123.45 37.76 129.87 40.67 135.58 36.54 131 52" fill="#31b304"/><line x1="142" y1="22" x2="190.59" y2="47.13" fill="none" stroke="#ff941f" stroke-linecap="round" stroke-miterlimit="10" stroke-width="2"/><polygon points="200 52 183.94 50.56 189.89 46.77 189.54 39.73 200 52" fill="#ff941f"/><line x1="70" y1="76" x2="95.16" y2="98.88" fill="none" stroke="#1f7aff" stroke-linecap="round" stroke-miterlimit="10" stroke-width="2"/><polygon points="103 106 87.86 100.47 94.58 98.34 96.06 91.45 103 106" fill="#1f7aff"/><line x1="21" y1="76" x2="83.32" y2="103.7" fill="none" stroke="#1f7aff" stroke-linecap="round" stroke-miterlimit="10" stroke-width="2"/><polygon points="93 108 76.89 107.51 82.6 103.38 81.84 96.37 93 108" fill="#1f7aff"/><line x1="111" y1="76" x2="112.95" y2="95.46" fill="none" stroke="#31b304" stroke-linecap="round" stroke-miterlimit="10" stroke-width="2"/><polygon points="114 106 106.45 91.76 112.87 94.67 118.58 90.54 114 106" fill="#31b304"/><line x1="152" y1="76" x2="131.23" y2="98.26" fill="none" stroke="#31b304" stroke-linecap="round" stroke-miterlimit="10" stroke-width="2"/><polygon points="124 106 129.72 90.93 131.77 97.68 138.64 99.25 124 106" fill="#31b304"/><line x1="192" y1="76" x2="145.34" y2="101" fill="none" stroke="#ff941f" stroke-linecap="round" stroke-miterlimit="10" stroke-width="2"/><polygon points="136 106 146.28 93.58 146.03 100.63 152.03 104.33 136 106" fill="#ff941f"/><line x1="227" y1="76" x2="157.73" y2="105.81" fill="none" stroke="#ff941f" stroke-linecap="round" stroke-miterlimit="10" stroke-width="2"/><polygon points="148 110 159.3 98.5 158.46 105.5 164.12 109.7 148 110" fill="#ff941f"/><line x1="3" y1="76" x2="46" y2="76" fill="none" stroke="#1f7aff" stroke-linecap="round" stroke-miterlimit="10" stroke-width="2"/><line x1="52" y1="76" x2="90" y2="76" fill="none" stroke="#1f7aff" stroke-linecap="round" stroke-miterlimit="10" stroke-width="2"/><line x1="97" y1="76" x2="125" y2="76" fill="none" stroke="#31b304" stroke-linecap="round" stroke-miterlimit="10" stroke-width="2"/><line x1="130" y1="76" x2="170" y2="76" fill="none" stroke="#31b304" stroke-linecap="round" stroke-miterlimit="10" stroke-width="2"/><line x1="176" y1="76" x2="203" y2="76" fill="none" stroke="#ff941f" stroke-linecap="round" stroke-miterlimit="10" stroke-width="2"/><line x1="91" y1="22" x2="117" y2="22" fill="none" stroke="#1f7aff" stroke-linecap="round" stroke-miterlimit="10" stroke-width="2"/><line x1="120" y1="22" x2="137" y2="22" fill="none" stroke="#31b304" stroke-linecap="round" stroke-miterlimit="10" stroke-width="2"/><line x1="140" y1="22" x2="148" y2="22" fill="none" stroke="#ff941f" stroke-linecap="round" stroke-miterlimit="10" stroke-width="2"/><line x1="210" y1="76" x2="237" y2="76" fill="none" stroke="#ff941f" stroke-linecap="round" stroke-miterlimit="10" stroke-width="2"/></svg>