<svg height="130" viewBox="0 0 240 130" width="240" xmlns="http://www.w3.org/2000/svg"><text fill="#1f7aff" font-family="SourceSansPro-SemiBold, Source Sans Pro" font-size="18" font-weight="700" transform="translate(91.8 16.94)">111<tspan fill="#31b304" x="27.7" y="0">22</tspan><tspan fill="#ff941f" x="46.17" y="0">1</tspan></text><text fill="#1f7aff" font-family="SourceSansPro-SemiBold, Source Sans Pro" font-size="18" font-weight="700" transform="translate(91.8 123.94)">31<tspan fill="#31b304" x="18.47" y="0">22</tspan><tspan fill="#ff941f" letter-spacing="0em" x="36.93" y="0">11</tspan></text><text fill="#1f7aff" font-family="SourceSansPro-SemiBold, Source Sans Pro" font-size="18" font-weight="700" transform="translate(2.13 69.94)">Th<tspan letter-spacing="-.01em" x="19.87" y="0">r</tspan><tspan x="26.41" y="0">ee ones,</tspan><tspan fill="#ff941f" x="90.05" y="0"></tspan><tspan fill="#31b304" x="93.65" y="0">t</tspan><tspan fill="#31b304" letter-spacing="-.01em" x="100.15" y="0">w</tspan><tspan fill="#31b304" x="113.51" y="0">o t</tspan><tspan fill="#31b304" letter-spacing="-.01em" x="133.49" y="0">w</tspan><tspan fill="#31b304" letter-spacing="0em" x="146.84" y="0">o</tspan><tspan fill="#31b304" letter-spacing="0em" x="156.65" y="0">s, </tspan><tspan fill="#ff941f" x="172.96" y="0">one one</tspan></text><path d="m107 22-45.7 24.93" fill="none" stroke="#1f7aff" stroke-linecap="round" stroke-miterlimit="10" stroke-width="2"/><path d="m52 52 10.18-12.5-.19 7.05 6.03 3.66z" fill="#1f7aff"/><path d="m128 22 1.95 19.46" fill="none" stroke="#31b304" stroke-linecap="round" stroke-miterlimit="10" stroke-width="2"/><path d="m131 52-7.55-14.24 6.42 2.91 5.71-4.13z" fill="#31b304"/><path d="m142 22 48.59 25.13" fill="none" stroke="#ff941f" stroke-linecap="round" stroke-miterlimit="10" stroke-width="2"/><path d="m200 52-16.06-1.44 5.95-3.79-.35-7.04z" fill="#ff941f"/><path d="m70 76 25.16 22.88" fill="none" stroke="#1f7aff" stroke-linecap="round" stroke-miterlimit="10" stroke-width="2"/><path d="m103 106-15.14-5.53 6.72-2.13 1.48-6.89z" fill="#1f7aff"/><path d="m21 76 62.32 27.7" fill="none" stroke="#1f7aff" stroke-linecap="round" stroke-miterlimit="10" stroke-width="2"/><path d="m93 108-16.11-.49 5.71-4.13-.76-7.01z" fill="#1f7aff"/><path d="m111 76 1.95 19.46" fill="none" stroke="#31b304" stroke-linecap="round" stroke-miterlimit="10" stroke-width="2"/><path d="m114 106-7.55-14.24 6.42 2.91 5.71-4.13z" fill="#31b304"/><path d="m152 76-20.77 22.26" fill="none" stroke="#31b304" stroke-linecap="round" stroke-miterlimit="10" stroke-width="2"/><path d="m124 106 5.72-15.07 2.05 6.75 6.87 1.57z" fill="#31b304"/><path d="m192 76-46.66 25" fill="none" stroke="#ff941f" stroke-linecap="round" stroke-miterlimit="10" stroke-width="2"/><path d="m136 106 10.28-12.42-.25 7.05 6 3.7z" fill="#ff941f"/><path d="m227 76-69.27 29.81" fill="none" stroke="#ff941f" stroke-linecap="round" stroke-miterlimit="10" stroke-width="2"/><path d="m148 110 11.3-11.5-.84 7 5.66 4.2z" fill="#ff941f"/><g fill="none" stroke-linecap="round" stroke-miterlimit="10" stroke-width="2"><path d="m3 76h43" stroke="#1f7aff"/><path d="m52 76h38" stroke="#1f7aff"/><path d="m97 76h28" stroke="#31b304"/><path d="m130 76h40" stroke="#31b304"/><path d="m176 76h27" stroke="#ff941f"/><path d="m91 22h26" stroke="#1f7aff"/><path d="m120 22h17" stroke="#31b304"/><path d="m140 22h8" stroke="#ff941f"/><path d="m210 76h27" stroke="#ff941f"/></g></svg>