<svg height="130" viewBox="0 0 400 130" width="400" xmlns="http://www.w3.org/2000/svg" xmlns:xlink="http://www.w3.org/1999/xlink"><radialGradient id="a" cx="168.6098" cy="69.5939" gradientUnits="userSpaceOnUse" r="38.3103"><stop offset="0" stop-color="#6f48a3"/><stop offset=".39" stop-color="#6b459f"/><stop offset=".81" stop-color="#5e3a93"/><stop offset=".99" stop-color="#56348c"/></radialGradient><text font-family="BrunoJBStd, Bruno JB Std" font-size="24" letter-spacing="-.06em" transform="translate(135.01 23.46)">P<tspan letter-spacing=".02em" x="13.03" y="0">r</tspan><tspan letter-spacing="0em" x="20.26" y="0">ime Suspects:</tspan></text><text font-family="BrunoJBStd-Bold, Bruno JB Std" font-size="10.8" font-weight="700" transform="translate(9.05 96.51)">2’</text><text font-family="BrunoJBStd-Bold, Bruno JB Std" font-size="10.8" font-weight="700" transform="translate(9.05 70.51)">4’</text><text font-family="BrunoJBStd-Bold, Bruno JB Std" font-size="10.8" font-weight="700" transform="translate(9.05 42.51)">6’</text><path d="m3.5 124.5h391.45" fill="none" stroke="#000" stroke-linecap="round" stroke-miterlimit="10"/><path d="m3.5 102.21h4" fill="none" stroke="#000" stroke-linecap="round" stroke-miterlimit="10" stroke-width=".5"/><path d="m3.5 98.5h391.45" fill="none" stroke="#000" stroke-linecap="round" stroke-miterlimit="10"/><path d="m3.5 72.5h391.45" fill="none" stroke="#000" stroke-linecap="round" stroke-miterlimit="10"/><path d="m3.55 44.5h391.45" fill="none" stroke="#000" stroke-linecap="round" stroke-miterlimit="10"/><path d="m105.72 103.88a2.51 2.51 0 0 1 2.66 2.48q-.21 7.1-.59 14.2a3 3 0 0 1 -2.81 2.7 529.67 529.67 0 0 1 -59.37 0 2.94 2.94 0 0 1 -1.92-.85 2.59 2.59 0 0 1 -.88-1.8q-.31-5.69-.51-11.37-.12-3.51 2.48-4.93c11.29-6.38 19.94-11.88 25.65-15.92s8.57-7.2 8.57-9.39a10.12 10.12 0 0 0 -.16-1.86 2.27 2.27 0 0 0 -1.06-1.33 4.72 4.72 0 0 0 -2.68-.63 5.55 5.55 0 0 0 -3 .76 4.52 4.52 0 0 0 -1.62 1.51 11.49 11.49 0 0 0 -.82 2.12 14.26 14.26 0 0 1 -.51 1.55c-.27.69-1.22 1-2.84 1q-10.28 0-20.55.17a2.54 2.54 0 0 1 -1.76-.62 2.07 2.07 0 0 1 -.72-1.67c.13-7 3.3-12.63 9.24-17s13.68-6.79 23.32-6.78 17 2.12 22.06 5.92a19.11 19.11 0 0 1 7.95 15.62 13.12 13.12 0 0 1 -3.43 9.08q-1.92 2.23-3.7 4a42.4 42.4 0 0 1 -5.13 4.11c-5.35 3.73-10.16 6.88-14.41 9.36q13.28-.12 26.54-.43z" fill="#a6e058"/><path d="m74.47 61c-.52-1.16-1.16-2.45-2.37-2.84a4.23 4.23 0 0 0 -2.23.07 6.93 6.93 0 0 0 -1.94.7 2.88 2.88 0 0 0 -1.33 1.53 7.93 7.93 0 0 0 -1.26-3.18 33.68 33.68 0 0 0 -12.34 5.3 14.53 14.53 0 0 0 1.43 4 6.14 6.14 0 0 0 4.1 3.17 7.69 7.69 0 0 0 4.32-.75 4 4 0 0 0 2.37-2.07v.07a4 4 0 0 0 4.57 3 4.37 4.37 0 0 0 1.93-.25 2.41 2.41 0 0 0 1.64-1.76 4.56 4.56 0 0 1 -4 1.37 5.64 5.64 0 0 0 4-2.55 5.09 5.09 0 0 1 -3.54 1.93 12.46 12.46 0 0 0 4.22-3 4 4 0 0 0 1.07-1.81 4.9 4.9 0 0 0 -.64-2.93z" opacity=".15"/><path d="m65.31 81a8.7 8.7 0 0 0 -.13 2.1 3.93 3.93 0 0 1 -.45 2 2.8 2.8 0 0 1 -1.8 1.18 5.07 5.07 0 0 1 -2.19-.09 3.13 3.13 0 0 1 -2.2-1.48 3.7 3.7 0 0 1 -.18-1.93 4.62 4.62 0 0 1 .7-2.52 4.66 4.66 0 0 1 2.94-1.35 21.41 21.41 0 0 1 4.57-.57.7.7 0 0 1 .55.17c.43.51-.43.83-.74 1a2.24 2.24 0 0 0 -1.07 1.49z" fill="#ff3672"/><path d="m58.54 84.7a3 3 0 0 1 -.21-1.52 4.92 4.92 0 0 0 1.67 1.55 3.1 3.1 0 0 0 3.29-.09 3.31 3.31 0 0 0 1.14-2.12 9.65 9.65 0 0 0 0-2.46h-.44a4.18 4.18 0 0 0 -2.87 4 3.64 3.64 0 0 1 3.13-4.76c-.14-.18 0-.51.18-.66a.59.59 0 0 1 .17-.1 12.1 12.1 0 0 1 2-.13.7.7 0 0 1 .55.17c.43.51-.43.83-.74 1a2.24 2.24 0 0 0 -1 1.45 8.7 8.7 0 0 0 -.13 2.1 3.93 3.93 0 0 1 -.45 2 2.84 2.84 0 0 1 -1.8 1.18 5.07 5.07 0 0 1 -2.19-.09 3.13 3.13 0 0 1 -2.3-1.52z" fill="#e22d60"/><path d="m64.7 78.05a20 20 0 0 0 1.93-1 1.84 1.84 0 0 0 .54-.49 2.08 2.08 0 0 1 .79 1 2.31 2.31 0 0 1 -.35 2 3 3 0 0 1 -1.75 1.15 2.65 2.65 0 0 1 -2.13-.34 1.76 1.76 0 0 1 -.66-1.92 4.48 4.48 0 0 0 1.63-.4z" fill="#ffffad"/><path d="m61.06 80.31a2.12 2.12 0 0 1 -1.39 1 3 3 0 0 1 -1.67-.2 2.25 2.25 0 0 1 -1.17-1 1.19 1.19 0 0 1 .17-1.37 1.31 1.31 0 0 1 1-.29 8.83 8.83 0 0 1 1 .16 5.25 5.25 0 0 0 1 .07c.25 0 .75-.18 1-.05.49.26.27 1.31.06 1.68z" fill="#ffffad"/><path d="m52.25 78.13a2.4 2.4 0 0 1 -1.31-2.5c.09-.52.45-1.06 1-1.06s.88.52 1.08 1a2.29 2.29 0 0 0 .81 1.29c.61.34 1.81.45.62 1.14a2.38 2.38 0 0 1 -2.2.13z" fill="#ffffad"/><path d="m51.17 73.11a1 1 0 0 1 -.48-.07.68.68 0 0 1 -.34-.26.67.67 0 0 1 0-.5.87.87 0 0 1 .49-.62.55.55 0 0 1 .7.22 1 1 0 0 1 .07.3c.01.47.13.82-.44.93z" fill="#ffffad"/><path d="m62.54 78.19a11.78 11.78 0 0 1 -6.63-.83 7.44 7.44 0 0 1 -2.61-1.78c-1.43-1.62-1.75-3.92-2-6.07a10.85 10.85 0 0 0 .26 4.21 7.43 7.43 0 0 0 2.16 3.59 8.29 8.29 0 0 0 2.76 1.52 11.39 11.39 0 0 0 7.07.09 11.16 11.16 0 0 0 5.72-4.1c-1 .66-1.93 1.46-3 2a11.78 11.78 0 0 1 -3.73 1.37z" fill="#bc3846"/><path d="m51.06 69.81c-.24.19-.39.55-.69.55a.42.42 0 0 1 -.37-.22.66.66 0 0 1 -.06-.44 1.21 1.21 0 0 1 .65-.83 1.61 1.61 0 0 1 1.52 0c.34.18 1.3 1.62.46 1.61-.57-.03-.63-1.38-1.51-.67z" fill="#bc3846"/><path d="m68 74.78a1.37 1.37 0 0 1 1.25-.91 1.47 1.47 0 0 1 1.32.85c.2.46 0 2.13-.57 1.22-.51-.75-1-1.62-2-1.16z" fill="#bc3846"/><path d="m69.46 58.56a3.79 3.79 0 0 1 3.94 1.18 4.86 4.86 0 0 1 1 4.1 6.68 6.68 0 0 1 -2.24 3.64 5.46 5.46 0 0 1 -2.3 1.25 3.43 3.43 0 0 1 -2.55-.32 3.84 3.84 0 0 1 -1.64-3.18c-.12-2.53 1.17-5.82 3.79-6.67z" fill="#f6e3c5"/><path d="m69.56 60a2.58 2.58 0 0 1 2.44-.32 2.44 2.44 0 0 1 1.19 1.32 4.12 4.12 0 0 1 .32 1.77 5 5 0 0 1 -.84 2.75 3.4 3.4 0 0 1 -2.43 1.45 2.62 2.62 0 0 1 -2.46-1.27 3.66 3.66 0 0 1 -.32-1.88 5.09 5.09 0 0 1 2.1-3.82z" fill="#fef7e7"/><path d="m69.53 60.75a1.48 1.48 0 0 1 1.3-.69 2.69 2.69 0 0 1 1.43.5 1.63 1.63 0 0 1 .88 1.25 1.18 1.18 0 0 1 -.8 1 2 2 0 0 1 -1.34-.01c-.8-.3-2-1.06-1.47-2.05z" fill="#fff"/><path d="m67.84 62.27a1.41 1.41 0 0 1 2.08 1.54 1.5 1.5 0 0 1 -1.61 1 1.34 1.34 0 0 1 -.47-2.54z" fill="#29adff"/><path d="m69.64 63.06a1.19 1.19 0 0 1 -1.52 1.51 1.15 1.15 0 0 1 -.73-.73 1.19 1.19 0 0 1 1.51-1.51 1.12 1.12 0 0 1 .74.73z" fill="#0394dd"/><path d="m69.6 63.14a1.13 1.13 0 0 1 -1.39 1.39 1.1 1.1 0 0 1 -.78-.78 1.13 1.13 0 1 1 2.17-.61z" fill="#29adff"/><path d="m69.1 63.15a.66.66 0 0 1 -.89.88.59.59 0 0 1 -.28-.28.66.66 0 0 1 .89-.88.59.59 0 0 1 .28.28z" fill="#303030"/><path d="m69.31 62.2a.84.84 0 0 1 -1.13 1.12.7.7 0 0 1 -.36-.36.84.84 0 0 1 1.18-1.12.78.78 0 0 1 .31.36z" fill="#fff" opacity=".4"/><path d="m59.07 55.92a5.35 5.35 0 0 1 5.22 1 7.24 7.24 0 0 1 1.82 5 10 10 0 0 1 -.34 3.28 5.23 5.23 0 0 1 -1.77 2.73 6.1 6.1 0 0 1 -3.11 1 5.75 5.75 0 0 1 -4.3-1.06 5.12 5.12 0 0 1 -1.44-2.28c-.29-.86-.82-1.31-1-2.21a7.06 7.06 0 0 1 .71-4.22 9.21 9.21 0 0 1 2.36-2.34 6.84 6.84 0 0 1 1.85-.9z" fill="#f6e3c5"/><path d="m55.51 60.28a5.83 5.83 0 0 1 6.17-3.44 3.79 3.79 0 0 1 2.53 1.69 5.73 5.73 0 0 1 .53 3.18 3.9 3.9 0 0 1 -.59 2.29 3.77 3.77 0 0 1 -1.45 1 5.83 5.83 0 0 1 -3.51.73 7.14 7.14 0 0 1 -2.69-1.43 3.26 3.26 0 0 1 -1.19-2.38 4.06 4.06 0 0 1 .2-1.64z" fill="#fef7e7"/><path d="m59.05 57.72a1.39 1.39 0 0 1 1-.6 4.13 4.13 0 0 1 2.45.57 3.41 3.41 0 0 1 1.32 1 1.35 1.35 0 0 1 .11 1.54 1.84 1.84 0 0 1 -1.8.44 5 5 0 0 1 -1.69-.54c-.63-.4-1.87-1.59-1.39-2.41z" fill="#fff"/><path d="m55.8 59.15a1.81 1.81 0 0 1 2.68 2 1.94 1.94 0 0 1 -2.07 1.28 1.73 1.73 0 0 1 -.61-3.28z" fill="#29adff"/><path d="m58.09 60.1a1.54 1.54 0 0 1 -2 2 1.49 1.49 0 0 1 -.86-.86 1.55 1.55 0 0 1 2-2 1.47 1.47 0 0 1 .86.86z" fill="#0394dd"/><path d="m58 60.19a1.46 1.46 0 0 1 -1.85 1.86 1.44 1.44 0 0 1 -.9-.9 1.46 1.46 0 0 1 1.85-1.85 1.38 1.38 0 0 1 .9.89z" fill="#29adff"/><path d="m57.42 60.28a.85.85 0 0 1 -1.14 1.14.7.7 0 0 1 -.36-.36.85.85 0 0 1 1.14-1.14.74.74 0 0 1 .36.36z" fill="#303030"/><path d="m57.76 59.26a1.07 1.07 0 1 1 -.74-.74 1.07 1.07 0 0 1 .74.74z" fill="#fff" opacity=".4"/><path d="m65.56 54.88a11.14 11.14 0 0 0 -6.22-2.46 32.72 32.72 0 0 0 -6.78.22 5.35 5.35 0 0 1 2.95-.75 5.25 5.25 0 0 0 -3.42-.44 7.74 7.74 0 0 1 5.22-.17 3.93 3.93 0 0 0 -3-1.46 18.91 18.91 0 0 1 7.07.88 7.49 7.49 0 0 1 4.8 4.94 2.19 2.19 0 0 0 -1.42-1.42" fill="#8b269c"/><path d="m76 54a4.11 4.11 0 0 1 2.43 0 4.16 4.16 0 0 0 -4-.49 6 6 0 0 1 3.46-.51 6.51 6.51 0 0 0 -4.72.38 19.55 19.55 0 0 0 -4 2.65 21.76 21.76 0 0 1 3.35-1.4 7.44 7.44 0 0 1 5.49.26 2.3 2.3 0 0 0 -2.01-.89z" fill="#8b269c"/><g fill="#80ad44"><path d="m87.31 57.38a5.48 5.48 0 0 0 -1.81 3.33 4 4 0 0 0 3.06 4.34 5.27 5.27 0 0 0 3.24-.78 6.05 6.05 0 0 0 3-3.28 3.28 3.28 0 0 0 .14-.76 31 31 0 0 0 -7.63-2.85z"/><path d="m77.77 75.78a2.27 2.27 0 0 1 1.06 1.33 10.12 10.12 0 0 1 .17 1.89 6 6 0 0 1 -1.74 3.56 2.83 2.83 0 0 0 1.58.07 4 4 0 0 0 2.1-1.63 5.1 5.1 0 0 0 .88-4.4 3.32 3.32 0 0 0 -3.56-2.33 3.65 3.65 0 0 0 -1.82 1 3.49 3.49 0 0 1 1.33.51z"/><path d="m64.43 94.82a2.65 2.65 0 0 0 2.46.14 2.78 2.78 0 0 0 1.11-1.24 3.63 3.63 0 0 0 .09-3.33 2.46 2.46 0 0 0 -.17-.27c-1.49 1-3.14 2.1-4.93 3.26a3.52 3.52 0 0 0 1.44 1.44z"/><path d="m100.59 74.41a3 3 0 0 0 2.63 1.16 3.85 3.85 0 0 0 2.33-1.16 18.74 18.74 0 0 0 -2.55-6.78 6.67 6.67 0 0 0 -2.64 3.37 3.85 3.85 0 0 0 .23 3.41z"/><path d="m97.21 86.4a4.64 4.64 0 0 0 2 3.9q1.58-1.58 3.25-3.52a14.37 14.37 0 0 0 2.54-4.17 5.8 5.8 0 0 0 -4.16-.62 4.93 4.93 0 0 0 -3.63 4.41z"/><path d="m86.88 95.05a4.11 4.11 0 0 0 -2.28 2.84 6.33 6.33 0 0 0 0 3q3-1.92 6.3-4.18a2.76 2.76 0 0 0 -.55-1 3.1 3.1 0 0 0 -3.47-.66z"/><path d="m48.19 104.89a3.69 3.69 0 0 0 4 .37 2.81 2.81 0 0 0 1.25-1.32 3.34 3.34 0 0 0 0-2.35 4.38 4.38 0 0 0 -1-1.65c-1.7 1-3.47 2-5.33 3.1a3.7 3.7 0 0 0 1.08 1.85z"/><path d="m45.72 112.84a3.22 3.22 0 0 0 -3.36-2.28c.09 2.65.21 5.3.34 8a2.46 2.46 0 0 0 .47-.1 3.91 3.91 0 0 0 2.4-2.24 5.2 5.2 0 0 0 .15-3.38z"/><path d="m62.34 112.72a4.48 4.48 0 0 1 -1.27 2.52 3.72 3.72 0 0 1 -2 1.28c-2.81.51-4.48-3.91-2.86-5.85 1.87-2.25 6.38-1.19 6.13 2.05z"/><path d="m68.56 120.22a4.42 4.42 0 0 0 -4.38.3 4.09 4.09 0 0 0 -1.63 3.41q4.2.1 8.39.13a3.76 3.76 0 0 0 -.25-1.72 4.12 4.12 0 0 0 -2.13-2.12z"/><path d="m89.37 118.39a5.86 5.86 0 0 0 -3.52 2.43 11.26 11.26 0 0 0 -1.51 3.18h.08l.17-.44a3.43 3.43 0 0 0 -.09.44c3.41-.06 6.82-.16 10.23-.28a4.2 4.2 0 0 0 0-1.8 4.78 4.78 0 0 0 -5.36-3.53z"/><path d="m107.9 118.13c.17-3.28.3-6.56.41-9.84l-.32-.08a4.74 4.74 0 0 0 -3.31.75 5.37 5.37 0 0 0 -2.45 4.08 5 5 0 0 0 2 4.31 4.75 4.75 0 0 0 3.67.78z"/><path d="m88.78 106.35a4 4 0 0 0 1.41 3.87 5.5 5.5 0 0 0 4.06 1.11 6 6 0 0 0 4.27-2.43 4.69 4.69 0 0 0 .36-4.79l-.06-.11c-2.85 0-5.69.1-8.53.13a4.2 4.2 0 0 0 -1.51 2.22z"/><path d="m92.5 71.73a4 4 0 0 0 -1.61-2 2.72 2.72 0 0 0 -4 1.66l.62-.61a6.08 6.08 0 0 0 -1.77 3.49 3.83 3.83 0 0 0 1.93 3.83 3.72 3.72 0 0 0 4.51-1.44 5.4 5.4 0 0 0 .32-4.93z"/><path d="m76.28 89.43a5.53 5.53 0 0 0 -.93 5.12 4.19 4.19 0 0 0 5 2.22 4.81 4.81 0 0 0 3.18-4.62c0-1.63-1.15-4-2.74-4.7s-3.59.64-4.51 1.98z"/><path d="m66.18 104a5.12 5.12 0 0 0 -.07 3.28 3.61 3.61 0 0 0 2.28 2.29 2.81 2.81 0 0 0 3-.92 3.32 3.32 0 0 0 .54-2.3c-.12-1.16-.7-4-1.81-4.72-1.7-1.07-3.45.93-3.94 2.37z"/><path d="m75.8 115.12a3.23 3.23 0 0 0 2.61 1.48 3.2 3.2 0 0 0 2.82-1.9c1-2.3-.56-6-3.4-5.81s-3.3 4.34-2.03 6.23z"/><path d="m86.39 83.85a4.48 4.48 0 0 0 .08 2.59 3 3 0 0 0 1.77 1.84 2.92 2.92 0 0 0 3-.74c1.44-1.47 1-4.37-.25-5.86-1.71-1.93-4.15.37-4.6 2.17z"/><path d="m76.63 67.73a3.27 3.27 0 0 0 1.86 2.49 3 3 0 0 0 3.12-.66 3.82 3.82 0 0 0 1.09-3.06c-.14-1.54-1.52-4.23-3.42-4s-2.94 3.5-2.65 5.23z"/><path d="m45.52 77.6a2.87 2.87 0 0 0 2.86-2.3 4.84 4.84 0 0 0 -1-3.77 3 3 0 0 0 -1.57-1.18 19.67 19.67 0 0 0 -2.19 6.2 3 3 0 0 0 1.9 1.05z"/></g><path d="m105 123.26a3.31 3.31 0 0 0 .55-.08c-.59-.06-1.18-.13-1.77-.22-3.9-.61-7.69-1.78-11.59-2.38-11.72-1.83-23.66 1.45-35.5.79a21.06 21.06 0 0 1 -7.62-1.59 9.59 9.59 0 0 1 -5.25-5.52 10 10 0 0 1 1.62-8.32c1.24-1.85 3-3.09 4.52-4.59-1.66 1-3.37 2-5.16 3s-2.56 2.59-2.48 4.93q.2 5.69.51 11.37a2.59 2.59 0 0 0 .88 1.8 2.94 2.94 0 0 0 1.92.85 529.67 529.67 0 0 0 59.37-.04z" opacity=".15"/><path d="m97.9 62.08a29.54 29.54 0 0 0 -12.23-5c1.46.69 3.17 1.24 4.36 1.89a32.38 32.38 0 0 1 6.14 4.23c3.7 3.32 6.39 8.14 5.93 13.09a19.73 19.73 0 0 1 -2.83 7.71 53.39 53.39 0 0 1 -20.46 20.2c.19 0 .38-.06.56-.09 4.2-2.47 8.94-5.57 14.22-9.25a42.4 42.4 0 0 0 5.13-4.11q1.78-1.74 3.7-4a13.12 13.12 0 0 0 3.43-9.08 19.11 19.11 0 0 0 -7.95-15.59z" opacity=".15"/><path d="m78.13 83.46a7.34 7.34 0 0 0 1.69-4.4 4.58 4.58 0 0 0 -2.16-4 4 4 0 0 0 -4 .28 6.36 6.36 0 0 1 1.42-.16 4.72 4.72 0 0 1 2.68.63 2.27 2.27 0 0 1 1.06 1.33 10.12 10.12 0 0 1 .18 1.86q0 3.33-8.56 9.42c-3.19 2.26-7.31 5-12.29 8a64.84 64.84 0 0 0 16.5-9.72 19.28 19.28 0 0 0 3.48-3.24z" opacity=".15"/><path d="m62.5 73.1c0 .32.1.69.39.83l.11.07a1 1 0 0 0 .73-.17 1.33 1.33 0 0 0 .75-.7c.27-1.13-2.22-2.23-1.98-.03z" fill="#5f740d"/><path d="m78.05 58.42a.67.67 0 0 0 -.9-.19l.17.33-.69-.48c-.32.18-.36.62-.35 1a1 1 0 0 0 .23.77.78.78 0 0 0 .67.1 1.35 1.35 0 0 0 .84-.55.88.88 0 0 0 .03-.98z" fill="#80ad44"/><path d="m56.62 71.89a.79.79 0 0 0 -1 .28 1 1 0 0 0 0 1.06.82.82 0 0 0 .38.38.93.93 0 0 0 .94-.3 1.1 1.1 0 0 0 .34-1.17.76.76 0 0 0 -1-.31" fill="#5f740d"/><g fill="#fff"><path d="m74 72.33c1.35-.46.63-2.58-.66-2.27-1.47.35-.81 2.76.66 2.27z" opacity=".2"/><path d="m92.21 65.87a.89.89 0 1 0 -.67 1.65.88.88 0 1 0 .4-1.71" opacity=".2"/><path d="m94.9 79.55a.91.91 0 0 0 1 .17c1-.3 1.71-2 .39-2.35-1.03-.3-2 1.42-1.39 2.18z" opacity=".2"/><path d="m84.78 79.41a.87.87 0 0 1 -.45 1.67.89.89 0 0 1 -.67-1 .91.91 0 0 1 .94-.73" opacity=".2"/><path d="m87.28 90.56a.87.87 0 0 0 -1.1.77.89.89 0 0 0 .82.89.87.87 0 0 0 .17-1.73" opacity=".2"/><path d="m72.06 96a1.34 1.34 0 0 1 -1.18 1.35 1.37 1.37 0 0 1 -1.42-1.12 1.31 1.31 0 1 1 2.6-.23z" opacity=".2"/><path d="m76.83 99.93a1 1 0 1 0 .56 1 1 1 0 0 0 -1-1" opacity=".2"/><path d="m60.92 99.45-1.08-.23a1.07 1.07 0 0 0 -.45 1.26 1.06 1.06 0 0 0 1.15.66 1 1 0 0 0 .8-1 1 1 0 0 0 -1-.88" opacity=".2"/><path d="m50.16 109.17a1.19 1.19 0 0 0 -.07.72.7.7 0 0 0 .45.53 1.21 1.21 0 0 0 1-.27c.56-.37 1.8-1.6.75-2.2-.74-.42-1.9.59-2.13 1.22z" opacity=".2"/><path d="m67.38 112.29a.94.94 0 0 0 -1.44-.09 1.13 1.13 0 0 0 .16 1.51 1.4 1.4 0 0 0 1.58.08 1 1 0 0 0 .51-.94.85.85 0 0 0 -.53-.59 1.59 1.59 0 0 0 -.81-.08" opacity=".2"/><path d="m83.86 107.32a1 1 0 0 0 -1.37.34 1 1 0 1 0 1.08-.49" opacity=".2"/><path d="m91.15 113.77-.85-.39c-.33.26-.7.6-.67 1a.87.87 0 0 0 .51.69 2.18 2.18 0 0 0 .88.15 1.79 1.79 0 0 0 .72-.12.78.78 0 0 0 .47-.53.8.8 0 0 0 -.49-.8 2.35 2.35 0 0 0 -1-.16" opacity=".2"/><path d="m100.67 109.71a.83.83 0 0 0 -1 .07 1.58 1.58 0 0 0 -.49.87 1 1 0 0 0 .19 1 .85.85 0 0 0 1 0 1.91 1.91 0 0 0 .65-.9 1.15 1.15 0 0 0 .11-.81.46.46 0 0 0 -.66-.28" opacity=".2"/><path d="m99.05 117.14-.79-.6a1.92 1.92 0 0 0 -.77 1.29 1.06 1.06 0 0 0 .51 1.17 1 1 0 0 0 .69 0 1.27 1.27 0 0 0 .86-1.22 1.13 1.13 0 0 0 -1-1" opacity=".2"/><path d="m105.72 103.88q-13.2.3-26.39.34c-.22.73 1.52 1.59 2.83 1.47a31.51 31.51 0 0 0 3.77-1c4-.84 8.1 1.44 12.22 1.35 2.36-.06 4.72-.89 7-.37a19.18 19.18 0 0 1 3.19 1.25c0-.2 0-.41 0-.61a2.51 2.51 0 0 0 -2.62-2.43z" opacity=".2"/><path d="m80.24 103.59a1.5 1.5 0 0 0 -.87.52z" opacity=".2"/></g><path d="m43.28 80a2.07 2.07 0 0 0 .72 1.67 2.54 2.54 0 0 0 1.76.63c3.41 0 6.82-.06 10.23-.08l.28-.22a19.37 19.37 0 0 1 -5.59-.26 6.15 6.15 0 0 1 -4.6-8.74 20.14 20.14 0 0 1 3-5l2.07-2.79c.32-.43.66-1 .44-1.47l-.05-.06c-5.31 4.32-8.14 9.73-8.26 16.32z" opacity=".15"/><path d="m203.55 50.5a6.14 6.14 0 0 0 2.29-1.13 2.88 2.88 0 0 0 -.26-4.84 5.75 5.75 0 0 0 -3-.84c-.65 0-1.43-.06-1.73-.63a1.13 1.13 0 0 1 .34-1.3 2.78 2.78 0 0 1 1.34-.54c2.87-.52 6.12.29 7.92 2.59a10 10 0 0 1 1.59 3.37 9.76 9.76 0 0 1 .45 4.6 7.93 7.93 0 0 1 -3.46 5 15.86 15.86 0 0 1 -5.71 2.22 33.09 33.09 0 0 1 -9.57.71c.33 0 1.32-2.42 1.46-2.74a20 20 0 0 0 1-3c.13-.53.24-1.06.32-1.6.06-.35 0-1.32.2-1.59s2.41.22 3 .24a12.29 12.29 0 0 0 3.82-.52z" fill="#a3b81f"/><path d="m200.68 59.48c.89-.12 1.77-.27 2.64-.47l.37-.08a34.3 34.3 0 0 0 .11-4.86 8 8 0 0 0 -.74-3.45 11.7 11.7 0 0 1 -1.77.31 6.12 6.12 0 0 1 .43.93 9 9 0 0 1 .4 3.78 8.65 8.65 0 0 1 -1.44 3.84z" fill="#fcca72"/><path d="m205.56 49.58a6.1 6.1 0 0 1 -1 .56 6.65 6.65 0 0 1 .79 1.71 15.4 15.4 0 0 1 .48 3.83 7.86 7.86 0 0 1 -.11 2 2.54 2.54 0 0 1 -.3.78 16.48 16.48 0 0 0 2.38-1 7.48 7.48 0 0 0 0-1.83 12.36 12.36 0 0 0 -2.24-6.05z" fill="#fcca72"/><path d="m207 46.57a2.36 2.36 0 0 1 .05.6 1.1 1.1 0 0 1 0 .16 8.12 8.12 0 0 1 2.94.41 8.44 8.44 0 0 1 2.57 1.4 14.64 14.64 0 0 0 -.45-2c-.06-.2-.13-.4-.19-.6a9.36 9.36 0 0 0 -1.14-.26 8.64 8.64 0 0 0 -3.78.29z" fill="#fcca72"/><path d="m202.55 41.22a2.78 2.78 0 0 0 -1.34.54 1.13 1.13 0 0 0 -.34 1.3c.3.57 1.08.61 1.73.63a6.74 6.74 0 0 1 2.22.44 3.44 3.44 0 0 1 1.07-2.21 4.6 4.6 0 0 1 .72-.53 9.43 9.43 0 0 0 -4.06-.17z" fill="#fcca72"/><path d="m208.94 54.71a10.9 10.9 0 0 1 -6.74 1.29 5.13 5.13 0 0 1 -2.24-.87 2.9 2.9 0 0 1 -1.21-2 2.73 2.73 0 0 1 .87-2.13c-.69-.06-2.63-.54-2.86-.22s-.14 1.24-.2 1.59c-.08.54-.19 1.07-.32 1.6a20 20 0 0 1 -1 3c-.14.32-1.13 2.76-1.46 2.74a33.09 33.09 0 0 0 9.57-.71 15.86 15.86 0 0 0 5.73-2.27 8.22 8.22 0 0 0 3.34-4.46 18.36 18.36 0 0 1 -3.48 2.44z" opacity=".15"/><path d="m204.75 52.31a6 6 0 0 0 3.22-2.2 3.88 3.88 0 0 0 .45-3.77 6.29 6.29 0 0 1 -.47-1 1 1 0 0 1 .17-1 .86.86 0 0 1 .87-.17 1.52 1.52 0 0 1 .72.58 4.22 4.22 0 0 1 .43 3.35 8.67 8.67 0 0 1 -3.14 5.37 5.65 5.65 0 0 1 -6 .58c-.84-.47-1-1.74.17-1.44a6.91 6.91 0 0 0 3.58-.3z" fill="#fff" opacity=".15"/><path d="m135.38 49.8a7.39 7.39 0 0 1 -2.72-1.35 3.74 3.74 0 0 1 -1.41-2.61 3.7 3.7 0 0 1 1.75-3.12 6.74 6.74 0 0 1 3.54-1c.77 0 1.69-.06 2.05-.74a1.32 1.32 0 0 0 -.41-1.55 3.19 3.19 0 0 0 -1.58-.63c-3.41-.62-7.27.34-9.4 3.07a11.78 11.78 0 0 0 -1.89 4 11.82 11.82 0 0 0 -.54 5.46 9.52 9.52 0 0 0 4.11 5.88 19.06 19.06 0 0 0 6.8 2.7 40.14 40.14 0 0 0 11.36.84c-.39 0-1.57-2.87-1.73-3.25a22.77 22.77 0 0 1 -1.22-3.6c-.16-.63-.29-1.26-.39-1.9-.07-.42 0-1.56-.23-1.88s-2.86.26-3.54.27a14.7 14.7 0 0 1 -4.55-.59z" fill="#a3b81f"/><path d="m138.78 60.45c-1.05-.15-2.09-.32-3.13-.55l-.44-.1a42.62 42.62 0 0 1 -.13-5.76 9.54 9.54 0 0 1 .88-4.1 13.58 13.58 0 0 0 2.1.37 6.14 6.14 0 0 0 -.5 1.1 10.68 10.68 0 0 0 -.49 4.49 10.43 10.43 0 0 0 1.71 4.55z" fill="#fcca72"/><path d="m133 48.7a7.83 7.83 0 0 0 1.2.67 7.22 7.22 0 0 0 -.94 2 17.79 17.79 0 0 0 -.57 4.55 9.39 9.39 0 0 0 .12 2.37 3.1 3.1 0 0 0 .37.92 18.43 18.43 0 0 1 -2.83-1.15 8.37 8.37 0 0 1 -.06-2.18 14.63 14.63 0 0 1 2.71-7.18z" fill="#fcca72"/><path d="m131.31 45.13a3.35 3.35 0 0 0 -.06.71v.19a9.84 9.84 0 0 0 -3.49.49 10.1 10.1 0 0 0 -3 1.66 15.57 15.57 0 0 1 .53-2.32c.07-.24.15-.48.23-.72a10.17 10.17 0 0 1 1.35-.31 10.3 10.3 0 0 1 4.44.3z" fill="#fcca72"/><path d="m136.57 38.79a3.19 3.19 0 0 1 1.58.63 1.32 1.32 0 0 1 .41 1.55c-.36.68-1.28.72-2.05.74a7.91 7.91 0 0 0 -2.64.53 4 4 0 0 0 -1.27-2.63 4.62 4.62 0 0 0 -.85-.62 11 11 0 0 1 4.82-.2z" fill="#fcca72"/><path d="m129 54.79a12.86 12.86 0 0 0 8 1.52 6.16 6.16 0 0 0 2.65-1 3.43 3.43 0 0 0 1.43-2.39 3.18 3.18 0 0 0 -1-2.52c.82-.08 3.12-.64 3.4-.26s.16 1.46.23 1.88c.1.64.23 1.27.39 1.9a22.77 22.77 0 0 0 1.22 3.6c.16.38 1.34 3.27 1.73 3.25a40.14 40.14 0 0 1 -11.36-.84 19.06 19.06 0 0 1 -6.8-2.7 9.73 9.73 0 0 1 -4-5.29 21.62 21.62 0 0 0 4.11 2.85z" opacity=".15"/><path d="m134 51.94a7.16 7.16 0 0 1 -3.82-2.61 4.61 4.61 0 0 1 -.53-4.47 8.83 8.83 0 0 0 .56-1.16 1.22 1.22 0 0 0 -.2-1.21 1 1 0 0 0 -1-.19 1.82 1.82 0 0 0 -.85.68 5 5 0 0 0 -.51 4 10.35 10.35 0 0 0 3.73 6.36 6.74 6.74 0 0 0 7.1.69c1-.56 1.19-2.06-.2-1.72a8 8 0 0 1 -4.28-.37z" fill="#fff" opacity=".15"/><path d="m184 109.88a7.61 7.61 0 0 1 .25 5.28 19.76 19.76 0 0 1 -2.31 4.87c3-1.18 7.15-.68 9 2a1.26 1.26 0 0 1 -1.31.91 2.35 2.35 0 0 1 -1.57-.72 1.16 1.16 0 0 1 -.51 1.55 2.16 2.16 0 0 1 -1.86.06 6.45 6.45 0 0 1 -1.6-1.06.89.89 0 0 1 .36 1 1 1 0 0 1 -.85.73c-.58 0-1-.46-1.48-.83a4.45 4.45 0 0 0 -3.23-1 .36.36 0 0 1 -.32-.6 7.29 7.29 0 0 0 1.25-1.73 4.31 4.31 0 0 0 .2-3.8 7 7 0 0 0 -2.34-2.39l-2-1.47a12.43 12.43 0 0 0 8.32-2.8z" fill="#fc44ea"/><path d="m155.19 109.88a7.67 7.67 0 0 0 -.25 5.28 20.51 20.51 0 0 0 2.31 4.87c-3-1.18-7.15-.68-9 2a1.26 1.26 0 0 0 1.31.91 2.35 2.35 0 0 0 1.57-.72 1.16 1.16 0 0 0 .51 1.55 2.16 2.16 0 0 0 1.86.06 6.45 6.45 0 0 0 1.6-1.06.88.88 0 0 0 -.35 1 1 1 0 0 0 .84.73c.58 0 1-.46 1.48-.83a4.46 4.46 0 0 1 3.24-1 .36.36 0 0 0 .31-.6 7.29 7.29 0 0 1 -1.25-1.73 4.35 4.35 0 0 1 -.2-3.8 7 7 0 0 1 2.34-2.39l2-1.47a12.43 12.43 0 0 1 -8.32-2.8z" fill="#fc44ea"/><path d="m204.54 93.8c-.14 6.34-3.65 11.58-10.25 15.75s-14.84 6.45-24.81 6.45c-13.43 0-23.28-3.67-29.67-10.17-3.33-3.45-5.06-6.87-5.15-10.3a1.76 1.76 0 0 1 .62-1.48 2.24 2.24 0 0 1 1.55-.54q11.07.21 22.14.27a3.47 3.47 0 0 1 2.23 1c.74.66 1.28 1.12 1.62 1.37 1.08.7 3.11 1 6.11 1s5.12-.47 6.4-1.42a4.32 4.32 0 0 0 1.94-3.58c0-2.76-2.59-4.13-7.79-4.13q-6.73 0-13.48 0a2.78 2.78 0 0 1 -1.93-.76 2.34 2.34 0 0 1 -.81-1.78c0-2.53 0-5 0-7.58a3.84 3.84 0 0 1 2.14-3.76l14.89-7.19q-14.11 0-28.24.27a2.56 2.56 0 0 1 -1.9-.72 2.31 2.31 0 0 1 -.76-1.78q.2-6.69.52-13.37a2.7 2.7 0 0 1 .88-1.84 2.86 2.86 0 0 1 1.91-.84q26.88-1.24 53.76 0a2.86 2.86 0 0 1 1.91.84 2.65 2.65 0 0 1 .88 1.83q.3 6 .48 12a4.39 4.39 0 0 1 -2 3.72c-4.11 2.43-8.26 4.93-12.43 7.46 12.88 2.9 19.46 9.32 19.24 19.28z" fill="url(#a)"/><path d="m162.82 96.12c-.34-.25-.88-.71-1.62-1.37a3.47 3.47 0 0 0 -2.23-1c-3.63 0-7.25 0-10.88-.1a6.21 6.21 0 0 0 2.25.87 47.93 47.93 0 0 0 5.23.19 32.86 32.86 0 0 1 7.93 1.75 3.32 3.32 0 0 1 -.68-.34z" opacity=".15"/><path d="m175.33 95.75c-1.28 1-3.42 1.42-6.4 1.42a20.46 20.46 0 0 1 -4.36-.38 23.68 23.68 0 0 0 9 1.43c2.66-.23 5.54-1.59 6.36-4.16s-.76-5.27-3-6.61-5-1.55-7.61-1.49-5.28.34-7.85-.16c-2.15-.42-4.41-1.61-5-3.69-.54-1.79.27-3.7 1.24-5.31s2.24-3.17 4-3.66 3.68.1 5.09-.93c.72-.52 1.16-1.39 1.94-1.83 1.33-.76 3 .05 4.36.67a12.28 12.28 0 0 0 5.34 1.2 7.42 7.42 0 0 0 5-2 6.2 6.2 0 0 0 1.16-6.86 5.61 5.61 0 0 0 -.52-3.66 19.66 19.66 0 0 1 -12.48 7c-.52.07-1 .12-1.56.16h.31l-14.95 7.24a3.84 3.84 0 0 0 -2.14 3.76v7.58a2.34 2.34 0 0 0 .81 1.78 2.74 2.74 0 0 0 1.93.75q6.74 0 13.48 0c5.2 0 7.8 1.37 7.79 4.13a4.32 4.32 0 0 1 -1.94 3.62z" opacity=".15"/><path d="m140.79 49.5a2.7 2.7 0 0 0 -.88 1.84q-.33 6.69-.52 13.37a2.28 2.28 0 0 0 .76 1.78 2.56 2.56 0 0 0 1.9.72q4.37-.09 8.73-.14a2.82 2.82 0 0 0 -1.71-.66c-1.37-.12-2.76.12-4.14.08a4.69 4.69 0 0 1 -3.66-1.49 5.85 5.85 0 0 1 -.78-3.78q.09-3.18.28-6.37c.09-1.41.28-3 1.35-4 1.25-1.16 3.09-1 4.72-1a13.84 13.84 0 0 0 6.29-1.42l.25-.17q-5.34.15-10.68.4a2.86 2.86 0 0 0 -1.91.84z" opacity=".15"/><path d="m191.6 49.13c1.49 0 3.08 0 4.38.84a6.17 6.17 0 0 1 2.35 3.85 15.12 15.12 0 0 1 -2.9 12.46 26.16 26.16 0 0 1 -6.17 5.78q4.25-2.57 8.45-5a4.39 4.39 0 0 0 2-3.72q-.18-6-.48-12a2.65 2.65 0 0 0 -.88-1.83 2.86 2.86 0 0 0 -1.91-.84c-2.54-.12-5.09-.22-7.63-.3a6.43 6.43 0 0 0 2.79.76z" fill="#fff" opacity=".15"/><path d="m185.34 74.48-.23.13.25-.12z" fill="#fff" opacity=".15"/><path d="m169.48 116h1a82 82 0 0 1 -13.05-2.49 42.66 42.66 0 0 1 -11.65-4.82 22 22 0 0 1 -8.54-9.33c-.82-1.85-1.21-4.74.7-5.82h-1.12a2.24 2.24 0 0 0 -1.55.54 1.76 1.76 0 0 0 -.62 1.48c.09 3.43 1.82 6.85 5.15 10.3 6.4 6.44 16.25 10.14 29.68 10.14z" opacity=".15"/><path d="m204.54 93.8c.22-9.77-6.13-16.12-18.55-19.16a.91.91 0 0 0 .15.34c.72 1 3.67 1.77 4.77 2.39q2.46 1.36 4.77 3c2.29 1.58 4.55 3.42 5.65 5.91a16.14 16.14 0 0 1 .94 6.6c0 3 0 6.11-1.41 8.88s-4.11 5-6.79 6.87c-1.85 1.27-3.77 2.48-5.5 3.91a39.51 39.51 0 0 0 5.72-3c6.6-4.16 10.11-9.4 10.25-15.74z" fill="#fff" opacity=".15"/><path d="m167.25 112.32a42.43 42.43 0 0 0 12.86-.89 33.54 33.54 0 0 0 18.34-12.43c-2.11 3.59-4.35 7.31-7.71 9.81-3.18 2.37-7.08 3.4-10.88 4a55.4 55.4 0 0 1 -22.73-1.3 21.87 21.87 0 0 1 -7-2.93 10.18 10.18 0 0 1 -4.38-6.11c.19.87 1.46 2.15 2 2.9a6.89 6.89 0 0 0 1.79 1.78 24.88 24.88 0 0 0 5.46 2.85 40.81 40.81 0 0 0 12.25 2.32z" fill="#fff" opacity=".15"/><path d="m188.07 78.35a18.35 18.35 0 0 1 11.23 11.06 17.88 17.88 0 0 1 -2.22 15.53 18 18 0 0 0 .92-15.82 22 22 0 0 0 -11.54-11.27 4.48 4.48 0 0 1 3.26 1.15" fill="#fff" opacity=".15"/><path d="m184.28 107.79c3.26-1.64 6.46-3.76 8.53-6.8a13.1 13.1 0 0 0 -.64-15.58 6.18 6.18 0 0 1 3.31 3c2.37 4.21 1.06 9.75-2.09 13.61s-7.78 6.22-12.41 7.73a21 21 0 0 1 -9.83 1.19c4.59.72 9-1.08 13.13-3.15z" fill="#fff" opacity=".15"/><path d="m161.7 66.52a7 7 0 0 0 -1.82-.56 7.63 7.63 0 0 1 -3.14-1.69 10.63 10.63 0 0 1 -2.1-2.93c-.38.86.23 2.08.7 2.8a8.13 8.13 0 0 0 4.29 3.24h2.84a1.79 1.79 0 0 0 -.77-.86z" opacity=".15"/><path d="m171.05 49.07c.16.3 0 1 0 1.3a7.35 7.35 0 0 0 1 3.08 9.42 9.42 0 0 0 3.3 3.28 7.53 7.53 0 0 0 4.93 1.2 4.63 4.63 0 0 0 3.82-3.08 5 5 0 0 1 -4.22 1.66 5.63 5.63 0 0 0 4.44-2.51 7.1 7.1 0 0 1 -2.93 1.46 6.26 6.26 0 0 0 4.21-5.43 7.2 7.2 0 0 0 0-1h-14.6z" opacity=".15"/><path d="m157.86 50a6.48 6.48 0 0 0 1.45 3.1 5.36 5.36 0 0 0 5.49 1.4 6 6 0 0 1 -2.66.48 4.89 4.89 0 0 0 4.15-.55 4.29 4.29 0 0 1 -3.62 1 4 4 0 0 0 4.07.11 6 6 0 0 0 2.66-3.1 7.06 7.06 0 0 0 .6-3.44h-12.27a9.26 9.26 0 0 0 .13 1z" opacity=".15"/><path d="m184.2 58.8c-2.45 2.9-5 5.9-8.41 7.16-2.46.92-5.12.81-7.72.7a31.84 31.84 0 0 1 -7.78-1 8.62 8.62 0 0 1 -5.69-4.39 7 7 0 0 0 3 4.48 14.87 14.87 0 0 0 5 1.9 29.29 29.29 0 0 0 8.63.9 16 16 0 0 0 8.24-2.78 13.1 13.1 0 0 0 5.14-7.58c-.34.37-.12.27-.41.61z" fill="#ae0718"/><path d="m184.56 58.21a12.84 12.84 0 0 1 -3.37 6.06 13.41 13.41 0 0 1 -1.77 1.52 14.42 14.42 0 0 1 -3.84 1.93 17.57 17.57 0 0 1 -4.4.85 29.73 29.73 0 0 1 -8.64-.9 14.9 14.9 0 0 1 -4.94-1.9 7 7 0 0 1 -3-4.48 8.65 8.65 0 0 0 5.69 4.4 32.89 32.89 0 0 0 7.78 1 21.76 21.76 0 0 0 7.07-.48l.65-.23a13.66 13.66 0 0 0 4.37-2.79 44 44 0 0 0 4-4.35c.33-.39.11-.28.4-.63z" fill="#ae0718"/><path d="m184.56 58.21a12.84 12.84 0 0 1 -3.37 6.06 13.41 13.41 0 0 1 -1.77 1.52 14.42 14.42 0 0 1 -3.84 1.93 17.57 17.57 0 0 1 -4.4.85 23.7 23.7 0 0 1 -3.86-.08 37.31 37.31 0 0 1 -4.78-.82l-1.18-.29a13.43 13.43 0 0 1 -3.76-1.61 7 7 0 0 1 -3-4.48 8.65 8.65 0 0 0 5.69 4.4 16 16 0 0 0 1.72.4 38.26 38.26 0 0 0 5.46.55h.6a21.76 21.76 0 0 0 7.07-.48l.65-.23a13.66 13.66 0 0 0 4.37-2.79 44 44 0 0 0 4-4.35c.33-.34.11-.23.4-.58z" fill="#ee4645"/><path d="m180.33 71.14c-1.47.56-3.14-.42-4-1.85a7.64 7.64 0 0 1 -.71-1.57 13.54 13.54 0 0 1 -.44-1.54l.65-.23a13.66 13.66 0 0 0 4.37-2.79 6.4 6.4 0 0 1 1 1.11 5.65 5.65 0 0 1 1.14 2.61c.26 1.72-.53 3.7-2.01 4.26z" fill="#f6e3c5"/><path d="m167.47 66.64a10.34 10.34 0 0 1 -.12 1.67v.18a3.88 3.88 0 0 1 -.42 1.44 2.78 2.78 0 0 1 -1.21 1.07 5 5 0 0 1 -3.17.39 2.1 2.1 0 0 1 -1.23-.55 1.88 1.88 0 0 1 -.44-1 3.86 3.86 0 0 1 .09-1.17 6.49 6.49 0 0 1 .39-1.25c.06-.16.13-.31.2-.46a8.28 8.28 0 0 1 .45-.83 38.26 38.26 0 0 0 5.46.51z" fill="#fad2b9"/><path d="m174.57 58.62c0 2.2-2.54 4-5.68 4s-5.67-1.78-5.67-4 2.54-2.95 5.67-2.95 5.68.75 5.68 2.95z" fill="#ffbf41"/><path d="m170.59 59.65a.91.91 0 0 1 .52-.83c.49-.23 2 .66 1.26 1.5-.18.2-.74.08-1 .07a.74.74 0 0 1 -.78-.74z" fill="#963232"/><path d="m166.71 59.56a.9.9 0 0 0 -.52-.83c-.49-.23-2 .66-1.25 1.5.18.2.74.08.95.07s.81-.12.82-.74z" fill="#963232"/><path d="m174.57 58.62a2.77 2.77 0 0 0 0-.42v.09a6 6 0 0 1 -.89 1.42 5.32 5.32 0 0 1 -1.34 1.29 4.13 4.13 0 0 1 -1.74.55 26 26 0 0 1 -3.18.24 7.4 7.4 0 0 1 -1.94-.12 2 2 0 0 1 -.35-.1 7.11 7.11 0 0 0 3.76 1c3.11.03 5.68-1.75 5.68-3.95z" opacity=".15"/><path d="m168.23 56.13a.61.61 0 0 1 .3 0 .32.32 0 0 1 .21.23c0 .21-.16.37-.33.46a9.76 9.76 0 0 1 -3.52 1.36c-.24 0-.8 0-.67-.47s.63-.52.85-.65a7.1 7.1 0 0 1 2-.8 6.37 6.37 0 0 1 1.16-.13z" fill="#fff" opacity=".15"/><path d="m170.39 56.51a.61.61 0 0 1 0 .38.64.64 0 0 1 -.2.37.33.33 0 0 1 -.37.08.77.77 0 0 1 -.19-.21c-.36-.56.52-1.13.76-.62z" fill="#fff" opacity=".15"/><path d="m176.29 69.29c.9 1.43 2.57 2.41 4 1.85a3.75 3.75 0 0 0 2-3.51 7.86 7.86 0 0 1 -1 .87 5.34 5.34 0 0 1 -3 1.12 3.41 3.41 0 0 1 -1.53-.33 3.61 3.61 0 0 1 -1.06-.81 7.75 7.75 0 0 0 .59.81z" fill="#fef7e7"/><path d="m181.69 65a6.33 6.33 0 0 0 -.5-.77 6.4 6.4 0 0 0 -1-1.11 13.66 13.66 0 0 1 -4.4 2.88l-.65.23c.06.27.13.53.2.8a1.78 1.78 0 0 1 .77-.45 5.22 5.22 0 0 1 1.37-.13 3.12 3.12 0 0 0 1.35-.25c.31-.15.58-.4.88-.58a4.4 4.4 0 0 1 1.98-.62z" opacity=".15"/><path d="m161.79 66.49a4.35 4.35 0 0 1 1.08.38 5.67 5.67 0 0 0 2.16.77c.54 0 1.06-.18 1.6-.21a5.65 5.65 0 0 1 .82 0 7.3 7.3 0 0 0 0-.81 38.26 38.26 0 0 1 -5.46-.55c-.06.15-.13.29-.2.42z" opacity=".15"/><path d="m167 69.58a7.83 7.83 0 0 1 -2.83.91 4.22 4.22 0 0 1 -2.17-.25 2.72 2.72 0 0 1 -1.16-1 3.49 3.49 0 0 0 0 .56 1.88 1.88 0 0 0 .44 1 2.1 2.1 0 0 0 1.23.55 5 5 0 0 0 3.17-.39 2.78 2.78 0 0 0 1.18-1.08 2.13 2.13 0 0 0 .14-.3z" fill="#fef7e7"/><path d="m173.54 44.62a7 7 0 0 1 2.15-.79 13.56 13.56 0 0 1 4-.51 5.47 5.47 0 0 1 3.64 1.51c1.44 1.5 1.56 3.87 1 5.88a8.27 8.27 0 0 1 -2.05 3.79 5.35 5.35 0 0 1 -3.91 1.64 7.1 7.1 0 0 1 -3.64-1.45 8.58 8.58 0 0 1 -3.2-3.74 5 5 0 0 1 0-3.6 6.48 6.48 0 0 1 2.01-2.73z" fill="#f6e3c5"/><path d="m172.37 47.81a3.75 3.75 0 0 1 1.63-2.25 7 7 0 0 1 2.61-1 7.9 7.9 0 0 1 3.65 0 4.49 4.49 0 0 1 2.81 2.2 6 6 0 0 1 .5 2.05 6.16 6.16 0 0 1 -.11 2 4.17 4.17 0 0 1 -1.91 2.43 5.5 5.5 0 0 1 -3 .71 6.56 6.56 0 0 1 -6.12-5.16 1.41 1.41 0 0 1 .21-1.33" fill="#fef7e7"/><path d="m177.89 45.1a3.09 3.09 0 0 1 1.5.54 2.85 2.85 0 0 1 1.06 2.09 3.62 3.62 0 0 1 -1.51 3.27 3.22 3.22 0 0 1 -3.5 0 5.25 5.25 0 0 1 -1.78-2.58c-.27-.67-.55-1.7.15-2.21a6.67 6.67 0 0 1 2.35-1 5.3 5.3 0 0 1 1.73-.11z" fill="#fff"/><path d="m176.17 46.19a1.61 1.61 0 0 1 -2.09 2.08 1.53 1.53 0 0 1 -.89-.89 1.61 1.61 0 0 1 2.09-2.08 1.53 1.53 0 0 1 .89.89z" fill="#f958f1"/><path d="m175.91 46.36a1.3 1.3 0 0 1 -1.66 1.64 1.25 1.25 0 0 1 -.8-.8 1.3 1.3 0 0 1 1.66-1.65 1.25 1.25 0 0 1 .8.81z" fill="#fc44ea"/><path d="m175.77 46.48a1.13 1.13 0 1 1 -.78-.79 1.11 1.11 0 0 1 .78.79z" fill="#f958f1"/><path d="m175.66 46.51a1 1 0 1 1 -.7-.7 1 1 0 0 1 .7.7z" fill="#fff" opacity=".4"/><path d="m175 46.05v-.07a.08.08 0 0 1 .08 0 .11.11 0 0 1 0 .13c0 .07-.14.4-.25.35s.17-.35.17-.41z" fill="#fff" opacity=".4"/><path d="m175.26 46.47a.3.3 0 0 1 .21.08.13.13 0 0 1 0 .13.17.17 0 0 1 -.12 0c-.08 0-.24 0-.29-.11s.13-.1.2-.1z" fill="#fff" opacity=".4"/><path d="m173.92 47a.13.13 0 0 0 0 .07.06.06 0 0 0 0 .07.09.09 0 0 0 .07 0c.06 0 .26-.18.23-.28s-.22.14-.3.14z" fill="#fff" opacity=".4"/><path d="m174.24 47.39s0 .07 0 .1a.09.09 0 0 0 .12 0 .29.29 0 0 0 .11-.32c-.07-.17-.21.16-.23.22z" fill="#fff" opacity=".4"/><path d="m174.71 47.52h.05a.08.08 0 0 0 0 0c0-.06 0-.23-.09-.25s.01.2.04.25z" fill="#fff" opacity=".4"/><path d="m175.42 46.89a.14.14 0 0 1 .08.14.18.18 0 0 1 -.11.08.22.22 0 0 1 -.16 0 .14.14 0 0 1 -.06-.22c.07-.07.19-.03.25 0z" fill="#fff" opacity=".4"/><path d="m174.52 46a.13.13 0 0 1 .07 0 .19.19 0 0 1 0 .08c0 .06 0 .38-.08.23a.34.34 0 0 1 .01-.31z" fill="#fff" opacity=".4"/><path d="m173.83 46.62c-.05 0-.09.09-.06.14a.13.13 0 0 0 .11.06c.09 0 .31 0 .3-.15s-.27-.1-.35-.05z" fill="#fff" opacity=".4"/><path d="m175.22 46.54a.6.6 0 0 1 -.78.79.59.59 0 0 1 -.3-.3.6.6 0 0 1 .78-.79.55.55 0 0 1 .3.3z" fill="#282828"/><path d="m174.52 46.13a.4.4 0 0 1 -.52.52.39.39 0 1 1 .32-.72.33.33 0 0 1 .2.2z" fill="#fff"/><path d="m175.24 47.12a.2.2 0 0 1 -.25.26.23.23 0 0 1 -.15-.15.2.2 0 0 1 .26-.25.17.17 0 0 1 .14.14z" fill="#fff"/><path d="m179.92 35.84a15.41 15.41 0 0 1 6.2-.07 7.39 7.39 0 0 0 -5.05 2.87 4.33 4.33 0 0 1 3.23-1.1 12.63 12.63 0 0 1 3.42.76 10.38 10.38 0 0 0 -5.6 1.76 2.27 2.27 0 0 1 1.87-.55c.67.07 1.32.28 2 .35a2.29 2.29 0 0 0 1.88-.53 10.18 10.18 0 0 1 -3.64 2 5.34 5.34 0 0 1 -4.06-.39 13.62 13.62 0 0 0 -2-1.25 3.47 3.47 0 0 0 -2.64.19 7.78 7.78 0 0 0 -2.16 1.63c.22-.21.34-.74.52-1a7 7 0 0 1 .75-.95c.41-.47.78-1 1.21-1.43a8.5 8.5 0 0 1 4.07-2.29z" fill="#ffbf41"/><path d="m167.4 44.6a5.86 5.86 0 0 0 -1.82-.67 11.39 11.39 0 0 0 -3.37-.43 4.64 4.64 0 0 0 -3.08 1.28 5.24 5.24 0 0 0 -.87 5 7.05 7.05 0 0 0 1.73 3.2 4.52 4.52 0 0 0 3.3 1.38 5.85 5.85 0 0 0 3.07-1.22 7.18 7.18 0 0 0 2.7-3.16 4.12 4.12 0 0 0 0-3 5.39 5.39 0 0 0 -1.66-2.38z" fill="#f6e3c5"/><path d="m168.38 47.29a3.22 3.22 0 0 0 -1.34-1.9 6 6 0 0 0 -2.21-.86 6.63 6.63 0 0 0 -3.07 0 3.77 3.77 0 0 0 -2.37 1.86 4.63 4.63 0 0 0 -.42 1.73 4.85 4.85 0 0 0 .09 1.7 3.48 3.48 0 0 0 1.61 2 4.56 4.56 0 0 0 2.56.6 5.51 5.51 0 0 0 5.16-4.35 1.18 1.18 0 0 0 -.18-1.13" fill="#fef7e7"/><path d="m163.72 45a2.67 2.67 0 0 0 -1.26.46 2.46 2.46 0 0 0 -.9 1.77 3.07 3.07 0 0 0 1.28 2.71 2.7 2.7 0 0 0 2.95.05 4.56 4.56 0 0 0 1.51-2.18c.22-.57.46-1.44-.14-1.87a5.68 5.68 0 0 0 -2-.87 4.47 4.47 0 0 0 -1.44-.07z" fill="#fff"/><path d="m165.16 46a1.34 1.34 0 0 0 1.71 1.71 1.31 1.31 0 0 0 .84-.83 1.36 1.36 0 0 0 -1.71-1.73 1.31 1.31 0 0 0 -.84.85z" fill="#f958f1"/><path d="m165.38 46.13a1.1 1.1 0 0 0 1.35 1.35 1.08 1.08 0 0 0 .76-.75 1.1 1.1 0 0 0 -1.35-1.36 1.08 1.08 0 0 0 -.76.76z" fill="#fc44ea"/><path d="m165.51 46.17a1 1 0 0 0 1.18 1.18 1 1 0 1 0 -.52-1.84.94.94 0 0 0 -.66.66z" fill="#f958f1"/><path d="m165.67 46a.86.86 0 0 0 1.16 1.16.74.74 0 0 0 .37-.37.87.87 0 0 0 -1.2-1.13.78.78 0 0 0 -.33.34z" fill="#fff" opacity=".4"/><path d="m166.17 45.81a.21.21 0 0 0 0-.06.09.09 0 0 0 -.07 0s0 .07 0 .11.13.34.22.3-.12-.3-.15-.35z" fill="#fff" opacity=".4"/><path d="m165.94 46.16a.22.22 0 0 0 -.17.07.09.09 0 0 0 0 .11s.07 0 .1 0 .21 0 .25-.09-.12-.08-.18-.09z" fill="#fff" opacity=".4"/><path d="m167.07 46.61a.09.09 0 0 1 0 .06 0 0 0 0 1 0 .06s0 0 0 0-.22-.15-.2-.24.13.09.2.12z" fill="#fff" opacity=".4"/><path d="m166.8 46.94s0 .06 0 .08-.07 0-.1 0a.26.26 0 0 1 -.09-.27c.06-.12.17.14.19.19z" fill="#fff" opacity=".4"/><path d="m166.41 47.05s0 0 0 0c0-.06 0-.2.08-.22s-.06.17-.08.22z" fill="#fff" opacity=".4"/><path d="m165.81 46.52s-.08.07-.07.11a.14.14 0 0 0 .1.07.2.2 0 0 0 .13 0 .12.12 0 0 0 .05-.19c-.02-.06-.16-.02-.21.01z" fill="#fff" opacity=".4"/><path d="m166.57 45.75a.07.07 0 0 0 -.06 0s0 0 0 .07 0 .32.07.19a.3.3 0 0 0 -.01-.26z" fill="#fff" opacity=".4"/><path d="m167.15 46.29a.1.1 0 0 1 0 .12.16.16 0 0 1 -.09.05c-.08 0-.27 0-.25-.13s.28-.08.34-.04z" fill="#fff" opacity=".4"/><path d="m166 46.22a.51.51 0 0 0 .66.67.49.49 0 0 0 .25-.26.5.5 0 0 0 -.66-.66.47.47 0 0 0 -.25.25z" fill="#282828"/><path d="m166.56 45.89a.33.33 0 0 0 .43.43.3.3 0 0 0 .19-.19.33.33 0 0 0 -.43-.43.3.3 0 0 0 -.19.19z" fill="#fff"/><path d="m166 46.71a.17.17 0 0 0 .21.22.22.22 0 0 0 .13-.12.18.18 0 0 0 -.22-.22.16.16 0 0 0 -.12.12z" fill="#fff"/><path d="m162 37.19a13 13 0 0 0 -5.23-.06 6.22 6.22 0 0 1 4.23 2.43 3.64 3.64 0 0 0 -2.73-.93 10.62 10.62 0 0 0 -2.88.64 8.75 8.75 0 0 1 4.72 1.48 1.91 1.91 0 0 0 -1.57-.46c-.57.06-1.11.24-1.68.29a1.9 1.9 0 0 1 -1.58-.45 8.44 8.44 0 0 0 3.07 1.7 4.49 4.49 0 0 0 3.43-.33 12.16 12.16 0 0 1 1.66-1 2.93 2.93 0 0 1 2.23.16 6.4 6.4 0 0 1 1.86 1.34 5.75 5.75 0 0 1 -.43-.86 8.3 8.3 0 0 0 -.64-.8c-.35-.4-.66-.83-1-1.21a7.17 7.17 0 0 0 -3.46-1.94z" fill="#ffbf41"/><path d="m187.39 53.07-.65.12a.36.36 0 0 0 .11.44.66.66 0 0 0 .46.11.57.57 0 0 0 .36-.13.31.31 0 0 0 .08-.36.21.21 0 0 0 -.34 0" fill="#fff" opacity=".15"/><path d="m187.39 56.28-.59-.28a2.06 2.06 0 0 1 -.44.62.91.91 0 0 0 -.28.7.8.8 0 0 0 .74.57 1.27 1.27 0 0 0 1-.26.9.9 0 0 0 .26-1 .69.69 0 0 0 -.91-.35l.1-.07" fill="#fff" opacity=".15"/><path d="m189.79 54.5a.74.74 0 0 0 -1 .33.76.76 0 0 0 .49 1 .8.8 0 0 0 1-.58.83.83 0 0 0 -.62-1" fill="#fff" opacity=".15"/><path d="m157.67 53.9a.69.69 0 0 0 -.91 0 .72.72 0 0 0 0 1 .73.73 0 0 0 1-.16.76.76 0 0 0 -.2-1" fill="#fff" opacity=".15"/><path d="m156.85 57.68-.6-.35a.75.75 0 0 0 -.25.67.64.64 0 0 0 .54.47.51.51 0 0 0 .53-.45.45.45 0 0 0 -.47-.47" fill="#fff" opacity=".15"/><path d="m160.08 56.71-.58.12a.56.56 0 0 0 .14.78.55.55 0 0 0 .76-.22.57.57 0 0 0 -.3-.74" fill="#fff" opacity=".15"/><path d="m167.17 74.58-.85.17a.83.83 0 0 0 .41 1 .7.7 0 0 0 .94-.38.61.61 0 0 0 -.59-.77" fill="#fff" opacity=".15"/><path d="m163.75 76.37a.61.61 0 0 0 .11.49.51.51 0 0 0 .51.15.66.66 0 0 0 .27-1.1c-.37-.34-.84.09-.89.46z" fill="#fff" opacity=".15"/><path d="m166.52 76.75-.35-.08a.33.33 0 0 0 -.11.36.38.38 0 0 0 .3.25.35.35 0 0 0 .38-.28.26.26 0 0 0 -.34-.26" fill="#fff" opacity=".15"/><path d="m168.23 76.49-.35-.15a.43.43 0 0 0 -.25.43.41.41 0 0 0 .36.35.39.39 0 0 0 .39-.29.35.35 0 0 0 -.24-.41" fill="#fff" opacity=".15"/><path d="m165.09 77.86-.33-.09a.56.56 0 0 0 -.1.64.51.51 0 0 0 .58.25.47.47 0 0 0 .31-.54.43.43 0 0 0 -.55-.27" fill="#fff" opacity=".15"/><path d="m167.46 78.23-.33-.21a.42.42 0 0 0 -.16.43.38.38 0 0 0 .35.29.33.33 0 0 0 .34-.29.3.3 0 0 0 -.28-.33v-.12" fill="#fff" opacity=".15"/><path d="m253.77 101.84a7.41 7.41 0 0 0 6.15 3.41 8.32 8.32 0 0 0 5.54-1.61 5.52 5.52 0 0 0 1.9-4.41 5.27 5.27 0 0 0 -1.92-4.35 7.36 7.36 0 0 0 -4.74-1.55 9.07 9.07 0 0 0 -4.7 1.16 8 8 0 0 1 -2.39 1.16q-9.15 0-18.31-.1a2 2 0 0 1 -1.43-.63 1.86 1.86 0 0 1 -.6-1.28c0-.23 0-.45 0-.67 1.16-10.69 2.57-21.45 4.14-32.26a4.72 4.72 0 0 1 1.45-2.9 4.39 4.39 0 0 1 2.9-1.2q21.22-.88 42.46.19a2.46 2.46 0 0 1 1.73.85 2.77 2.77 0 0 1 .79 1.84q.29 6.69.45 13.37a2.36 2.36 0 0 1 -.69 1.79 2.23 2.23 0 0 1 -1.72.72q-14.52-.32-29-.25l-.78 5.82c3.37-2.21 8-3.32 14-3.29a23.6 23.6 0 0 1 16 6.48 20.15 20.15 0 0 1 6.94 16c-.11 6.48-3.2 12-9 16.75s-13.3 7.26-22.49 7.25-16.49-2.4-22-6.74-8.4-9.44-8.52-15.33a1.94 1.94 0 0 1 .57-1.44 1.85 1.85 0 0 1 1.41-.59q9.27.17 18.55.22a4 4 0 0 1 3.31 1.59z" fill="#f36f48"/><path d="m261.49 81.17a14 14 0 0 1 5.43 0 8.84 8.84 0 0 1 3.26 1.19 4.6 4.6 0 0 1 2 2.72 1.61 1.61 0 0 1 -.39 1.65 2 2 0 0 1 -1.67.08 31.78 31.78 0 0 1 -5.04-1.81 10.42 10.42 0 0 0 -3.5-1.21 6 6 0 0 0 -3.52 1 17.41 17.41 0 0 0 -2.85 2.37 11.86 11.86 0 0 0 .84-1.91c.24-.54.44-1.11.72-1.62a5.36 5.36 0 0 1 2.63-1.8 11 11 0 0 1 2.09-.66z" fill="#ec5f34"/><path d="m272.56 89.37a13.85 13.85 0 0 0 -8.19-2.67 15 15 0 0 0 -8.26 2.52 1.76 1.76 0 0 0 -.82.93c-.36 1.41 1.77.37 2.28.24a30.51 30.51 0 0 1 3.55-.7 52.14 52.14 0 0 1 7.39-.39h2.06c.43.03 1.68-.15 1.99.07z" fill="#ec5f34"/><path d="m256.12 84a10 10 0 0 1 5.19-2.43 17.59 17.59 0 0 1 5.79.1 8 8 0 0 1 3.8 1.39 7.07 7.07 0 0 1 2.28 4.26 2.91 2.91 0 0 1 .07 1.06 1.15 1.15 0 0 1 -.57.85 1.9 1.9 0 0 1 -1.11 0 39.69 39.69 0 0 0 -10.83.06 8.23 8.23 0 0 0 -3.4.83c-.5.3-.94.69-1.46 1-1.88.88-2.43-1.12-2.08-2.6a8.45 8.45 0 0 1 2.32-4.52z" fill="#241b1c"/><path d="m260.74 89.31a56.42 56.42 0 0 1 7.9-.38c0-.25 0-.49 0-.74a5.06 5.06 0 0 0 -.88-3.09 2.74 2.74 0 0 0 -2.85-1.1c-.74.25-1.38.9-2.17.86a10.15 10.15 0 0 1 -1.28-.35 2.29 2.29 0 0 0 -2.18 1.09 5.6 5.6 0 0 0 -.73 4 13.48 13.48 0 0 1 2.19-.29z" fill="#f03f76"/><path d="m259.63 86.29a1.22 1.22 0 0 1 .87-1c.83-.22 1.65.48 2.51.44a4 4 0 0 0 1.72-.76 1.75 1.75 0 0 1 1.79-.22 1.34 1.34 0 0 1 .54.86 2.61 2.61 0 0 1 -.07 1 2.06 2.06 0 0 1 -.82 1.35 2.57 2.57 0 0 1 -1.8.12l-2.58-.44c-.88-.1-2.34-.03-2.16-1.35z" fill="#fff" opacity=".2"/><path d="m262.2 86.2a1.84 1.84 0 0 0 1.8-.2c.23-.16.46-.38.73-.31a.48.48 0 0 1 .3.55.74.74 0 0 1 -.46.5 2 2 0 0 1 -.69.12c-.51 0-1 0-1.54 0s-1-.06-1.07-.53c-.16-.55.65-.26.93-.13z" fill="#fff" opacity=".2"/><path d="m258.55 89.65a13.48 13.48 0 0 1 2.19-.34c1-.1 2.06-.2 3.09-.27a1 1 0 0 0 -.66-.35 16.16 16.16 0 0 0 -2-.13 3.47 3.47 0 0 1 -1.87-.55 1.75 1.75 0 0 1 -.68-1 6.59 6.59 0 0 0 -.07 2.64z" fill="#fff" opacity=".2"/><path d="m259.4 82.05a9.57 9.57 0 0 0 -2.74 1.48 4.76 4.76 0 0 0 .8 1.39 1.35 1.35 0 0 0 1 .58 1.26 1.26 0 0 0 1-.79 2.91 2.91 0 0 0 -.06-2.66z" fill="#fdfef8"/><path d="m261.29 83.49c.48 0 .86-.43 1-.89a2.13 2.13 0 0 0 .07-1.17c-.36 0-.72.07-1.07.13a10.58 10.58 0 0 0 -1.24.28 2.51 2.51 0 0 0 .45 1.16 1.15 1.15 0 0 0 .79.49z" fill="#fdfef8"/><path d="m265.84 82.55a1.56 1.56 0 0 0 .21-1 20.44 20.44 0 0 0 -2.35-.14c0 .13 0 .25.05.34a1.56 1.56 0 0 0 .86 1.32 1.11 1.11 0 0 0 1.23-.52z" fill="#fdfef8"/><path d="m267.1 81.66-.63-.1a3.76 3.76 0 0 0 .45 1.43.84.84 0 0 0 .26.27.71.71 0 0 0 .62 0 1.75 1.75 0 0 0 1-1.22 14.22 14.22 0 0 0 -1.7-.38z" fill="#fdfef8"/><path d="m257.81 87.09a.86.86 0 0 0 -.32.52 6.92 6.92 0 0 0 -.21 2.57h.06a5.9 5.9 0 0 1 1.88-.64 5.35 5.35 0 0 0 -.4-1.81 1.24 1.24 0 0 0 -.38-.54.58.58 0 0 0 -.63-.1z" fill="#fdfef8"/><path d="m260.74 89.31 1.51-.14a1.69 1.69 0 0 0 -.51-.91 1.31 1.31 0 0 0 -.84-.4 1.21 1.21 0 0 0 -.94.52 1.66 1.66 0 0 0 -.32 1.06c.36-.06.74-.09 1.1-.13z" fill="#fdfef8"/><path d="m267.87 88.91a1 1 0 0 0 0-.3 1.56 1.56 0 0 0 -.46-1 1.38 1.38 0 0 0 -1.41-.31 1.34 1.34 0 0 0 -.72 1.65c.85-.04 1.72-.06 2.59-.04z" fill="#fdfef8"/><path d="m269 86a.7.7 0 0 0 -.69.39 2.15 2.15 0 0 0 -.2.83 12.4 12.4 0 0 0 -.12 1.68c.61 0 1.22 0 1.83.11a2.26 2.26 0 0 0 0-.26 9.79 9.79 0 0 0 -.18-1.79 1.76 1.76 0 0 0 -.18-.59.68.68 0 0 0 -.46-.37z" fill="#fdfef8"/><path d="m264.41 64.7a6.92 6.92 0 0 0 2 4.36 8.49 8.49 0 0 0 7 2.51 6.74 6.74 0 0 0 2.82-.94 4.81 4.81 0 0 0 1.94-2.22 5.63 5.63 0 0 1 -3.93 1.93 4.06 4.06 0 0 0 2.26-3.34 6.8 6.8 0 0 0 -1-4.08 7.71 7.71 0 0 0 -4.15-3.56 5.34 5.34 0 0 0 -6.52 3 5.41 5.41 0 0 0 -.42 2.34z" fill="#cf4322"/><path d="m265.35 65.31a5.79 5.79 0 0 0 3 3.52 7 7 0 0 0 4.68.43 3.85 3.85 0 0 0 2.2-1.26 3.65 3.65 0 0 0 .54-2.87 6.46 6.46 0 0 0 -3.77-4.72 6.39 6.39 0 0 0 -5.5.27c-1.4.84-1.5 3.23-1.15 4.63z" fill="#f6e3c5"/><path d="m266.43 65.79a5 5 0 0 0 4.28 2.42 4 4 0 0 0 2.58-.79 3.49 3.49 0 0 0 .89-4 4.61 4.61 0 0 0 -3.31-2.6c-1.14-.25-3.22-.3-4.13.64a4 4 0 0 0 -.31 4.33z" fill="#fef7e7"/><path d="m265.21 63.57a3.15 3.15 0 1 0 2.47-2.47 3.15 3.15 0 0 0 -2.47 2.47z" fill="#29adff"/><path d="m266.86 63.61a1.55 1.55 0 0 0 2 2 1.46 1.46 0 0 0 .86-.86 1.56 1.56 0 0 0 -2-2 1.48 1.48 0 0 0 -.86.86z" fill="#3a2275"/><path d="m265.61 63.51a1.21 1.21 0 0 1 1.54-1.51 1.16 1.16 0 0 1 .74.74 1.2 1.2 0 0 1 -1.53 1.53 1.18 1.18 0 0 1 -.75-.76z" fill="#fff"/><path d="m259.65 64.7a7 7 0 0 1 -2 4.36 8.52 8.52 0 0 1 -7 2.51 6.74 6.74 0 0 1 -2.82-.94 4.93 4.93 0 0 1 -1.94-2.22 5.63 5.63 0 0 0 3.93 1.93 4.08 4.08 0 0 1 -2.3-3.35 6.87 6.87 0 0 1 1-4.08 7.71 7.71 0 0 1 4.15-3.56 5.34 5.34 0 0 1 6.52 3 5.42 5.42 0 0 1 .46 2.35z" fill="#cf4322"/><path d="m258.7 65.31a5.79 5.79 0 0 1 -3 3.52 7 7 0 0 1 -4.68.43 3.85 3.85 0 0 1 -2.2-1.26 3.65 3.65 0 0 1 -.54-2.87 6.45 6.45 0 0 1 3.78-4.76 6.37 6.37 0 0 1 5.49.27c1.45.88 1.56 3.27 1.15 4.67z" fill="#f6e3c5"/><path d="m257.62 65.79a5 5 0 0 1 -4.28 2.42 4 4 0 0 1 -2.58-.79 3.51 3.51 0 0 1 -.89-4 4.63 4.63 0 0 1 3.31-2.6c1.14-.25 3.22-.3 4.13.64a4 4 0 0 1 .31 4.33z" fill="#fef7e7"/><path d="m258.84 63.57a3.15 3.15 0 1 1 -2.47-2.47 3.15 3.15 0 0 1 2.47 2.47z" fill="#29adff"/><path d="m257.2 63.61a1.55 1.55 0 0 1 -2 2 1.45 1.45 0 0 1 -.87-.86 1.56 1.56 0 0 1 2-2 1.49 1.49 0 0 1 .87.86z" fill="#3a2275"/><path d="m258.44 63.51a1.21 1.21 0 0 0 -1.54-1.51 1.16 1.16 0 0 0 -.74.74 1.2 1.2 0 0 0 1.53 1.53 1.15 1.15 0 0 0 .75-.76z" fill="#fff"/><path d="m264.41 72.41a1 1 0 0 0 .68.49.73.73 0 0 0 .7-.51 1.11 1.11 0 0 0 -.11-.9 2.68 2.68 0 0 0 -.61-.69c-.39-.34-1.05-.8-1.14 0a2.56 2.56 0 0 0 .48 1.61z" fill="#241b1c"/><path d="m260.22 72.56a1 1 0 0 1 -.67.49.73.73 0 0 1 -.71-.5 1.14 1.14 0 0 1 .11-.9 2.74 2.74 0 0 1 .62-.7c.39-.34 1-.8 1.13 0a2.54 2.54 0 0 1 -.48 1.61z" fill="#241b1c"/><path d="m282.93 116.9c5.83-4.71 8.92-10.27 9-16.75a20.15 20.15 0 0 0 -6.94-16 23.6 23.6 0 0 0 -16-6.48c-6 0-10.67 1.08-14 3.29l.75-5.82q14.5-.06 29 .25a2.23 2.23 0 0 0 1.72-.72 2.36 2.36 0 0 0 .69-1.79q-.17-6.67-.45-13.37a2.77 2.77 0 0 0 -.79-1.84 2.46 2.46 0 0 0 -1.73-.85q-21.24-1.06-42.46-.19a4.39 4.39 0 0 0 -2.9 1.2 4.72 4.72 0 0 0 -1.45 2.9c-1.57 10.81-3 21.57-4.14 32.26v.67a1.86 1.86 0 0 0 .6 1.28 2 2 0 0 0 1.43.63q9.15.08 18.31.1a8 8 0 0 0 2.43-1.18 9.07 9.07 0 0 1 4.74-1.16 7.36 7.36 0 0 1 4.74 1.55 5.27 5.27 0 0 1 1.92 4.35 5.52 5.52 0 0 1 -1.9 4.41 8.32 8.32 0 0 1 -5.54 1.61 7.41 7.41 0 0 1 -6.15-3.41 4 4 0 0 0 -3.31-1.57q-9.27-.06-18.55-.22a1.85 1.85 0 0 0 -1.41.59 1.94 1.94 0 0 0 -.57 1.44c.12 5.89 3 11 8.52 15.33s12.79 6.73 22 6.74 16.6-2.55 22.44-7.25zm-40.32.18a24.26 24.26 0 0 1 -10.32-11.6 3.51 3.51 0 0 1 -.16-3.07c.63-1.06 2.05-1.23 3.28-1.3 5.09-.26 10.39-.49 15.09 1.5a8.77 8.77 0 0 0 2.4.83h.21a12.58 12.58 0 0 0 6.71 3 8.35 8.35 0 0 0 7.93-3.56 7 7 0 0 0 -1.07-8.5 6.45 6.45 0 0 0 -2.56-1.5 8.09 8.09 0 0 0 -4.41-.39 13.56 13.56 0 0 0 -1.95.57 18.14 18.14 0 0 1 -3.36 1 96.87 96.87 0 0 1 -15.49-.83 5.51 5.51 0 0 1 -2.85-.86c-1.41-1.1-1.39-3.21-1.23-5a158.15 158.15 0 0 1 2.85-20.35 19.76 19.76 0 0 1 2.93-7.51 7.45 7.45 0 0 1 1.8-1.76 2.11 2.11 0 0 0 .34.16 7.21 7.21 0 0 0 2.85.32c2-.06 4-.18 6.06-.32 3.54-.25 7.09-.56 10.64-.67 1.79-.06 3.58-.06 5.37 0a12.16 12.16 0 0 0 1.34.07h.17a3.11 3.11 0 0 0 .67.07c3.73 0 7.47.06 11.2.27a5.22 5.22 0 0 1 3.51 1.09 5.06 5.06 0 0 1 1.1 3.28 50 50 0 0 1 0 8.12 4.54 4.54 0 0 1 -.94 2.82 4.52 4.52 0 0 1 -2.95 1c-7.85.75-15.74-.55-23.63-.54-1.44 0-3.1.16-3.91 1.35a4.68 4.68 0 0 0 -.57 2.38l-.21 3.9a1.42 1.42 0 0 0 .29 1.17c.46.41 1.18.07 1.7-.26a23.53 23.53 0 0 1 20.22-2.27c5.35 1.9 9.51 6.07 12.39 11a18.44 18.44 0 0 1 1.56 13.88c-1.87 7.07-8.65 12.12-15.46 14.77a37.83 37.83 0 0 1 -21.57 1.33 34.17 34.17 0 0 1 -9.97-3.59z" fill="#ec5f34"/><path d="m274.3 53.59a9 9 0 0 0 -10.15 4.21.79.79 0 0 0 .83.82 1.85 1.85 0 0 0 1.34-.61 9.75 9.75 0 0 0 .93-1.19 8 8 0 0 1 8.48-2.71 6 6 0 0 0 -1.43-.52z" fill="#2a2122"/><path d="m248.09 54.34a9 9 0 0 1 10.71 2.48.78.78 0 0 1 -.68.94 1.87 1.87 0 0 1 -1.43-.38 11.76 11.76 0 0 1 -1.11-1 7.94 7.94 0 0 0 -8.81-1.27 5.8 5.8 0 0 1 1.32-.77z" fill="#2a2122"/><path d="m270.08 53.71a20.68 20.68 0 0 0 -2.65 1.56 7.09 7.09 0 0 0 -2.08 2.25 1.13 1.13 0 0 1 -.23.34c-.16.14-.51.15-.52-.13s.26-.47.36-.61a7.79 7.79 0 0 1 1-1.18 7.9 7.9 0 0 1 2.52-1.72 7.5 7.5 0 0 1 1.6-.51z" fill="#fff" opacity=".2"/><path d="m255.52 54.61a7.15 7.15 0 0 1 2.59 1.78.61.61 0 0 1 .18.32.25.25 0 0 1 -.18.29.27.27 0 0 1 -.25-.18 2.81 2.81 0 0 1 -.1-.31 1.32 1.32 0 0 0 -.61-.58 25 25 0 0 0 -2.54-1.38 9.14 9.14 0 0 0 -2.78-.68c.44-.46 1.15-.08 1.63.05a14.65 14.65 0 0 1 2.06.69z" fill="#fff" opacity=".2"/><path d="m246.27 103.39c2.9.8 5.51 2.39 8.23 3.68s5.73 2.29 8.7 1.8a9 9 0 0 0 7.4-10.46 4.35 4.35 0 0 1 -.13-1.82 1.16 1.16 0 0 1 1.35-.93 1.54 1.54 0 0 1 .79 1 11.8 11.8 0 0 1 -13.85 15.68c-3-.73-5.5-2.55-8.17-4s-5.77-2.62-8.71-1.84c-.93.24-1.8.67-2.75.82a2.91 2.91 0 0 1 -1.75-.17c-.93-.52-.67-.5-.34-1.3a4.65 4.65 0 0 1 1.65-1.84c2.12-1.44 5.31-1.25 7.58-.62z" fill="#fff" opacity=".15"/><path d="m236.06 86.13a6.28 6.28 0 0 0 .08 2.73c.53 1.62 2.24 2.54 3.85 3.11a23.57 23.57 0 0 0 7.71 1.36 3.12 3.12 0 0 0 1.45-.23 1.16 1.16 0 0 0 .7-1.18c-.14-.81-1.22-1-2-1-2.92 0-6.21-.4-8-2.7a7.93 7.93 0 0 1 -1.29-5.6c.17-1.95.71-3.85.9-5.81a3.38 3.38 0 0 0 -.2-1.84c-.44-.89-1.57-1.14-2.06-.19-.32.64-.06 2.24-.14 3-.37 2.76-.68 5.55-1 8.35z" fill="#fff" opacity=".15"/><path d="m280.58 58.28a4.86 4.86 0 0 1 3.7 2 5.48 5.48 0 0 1 .62 2.47 23.33 23.33 0 0 1 -.52 6.92c-.12.53-.37 1.16-.91 1.23a1 1 0 0 1 -.94-.8 3.06 3.06 0 0 1 .11-1.34 20 20 0 0 0 .49-4.57 5.06 5.06 0 0 0 -.54-2.55 4.61 4.61 0 0 0 -3.29-1.88 24.76 24.76 0 0 1 -3.85-.65c-.29-.1-.61-.28-.65-.58-.14-1 1.51-.48 2-.44 1.25.13 2.52.04 3.78.19z" fill="#fff" opacity=".15"/><path d="m242.94 60.32a.82.82 0 0 0 -.91 0 .78.78 0 0 0 -.27.91.74.74 0 1 0 .83-1" fill="#fff" opacity=".15"/><path d="m240.49 62.06a1.93 1.93 0 0 0 -.78.4 1 1 0 0 0 -.34.78.66.66 0 0 0 .55.6.92.92 0 0 0 .76-.43 1.06 1.06 0 0 0 .28-.79.53.53 0 0 0 -.62-.44" fill="#fff" opacity=".15"/><path d="m242.37 62.89-.77-.35a1 1 0 0 0 -.32 1 .82.82 0 0 0 .77.62.7.7 0 0 0 .67-.67.6.6 0 0 0 -.72-.57" fill="#fff" opacity=".15"/><path d="m281.43 87.87-.84-.31a.91.91 0 0 0 -.45 1.28.92.92 0 0 0 1.36.15.93.93 0 0 0 -.14-1.36" fill="#fff" opacity=".15"/><path d="m279.78 90-.78-.37a1.54 1.54 0 0 0 -.82 1.14.8.8 0 0 0 .25.77.74.74 0 0 0 .53.08 1.16 1.16 0 0 0 .87-.72 1.19 1.19 0 0 0 -.16-1.12" fill="#fff" opacity=".15"/><path d="m319.68 58.08h47.64a2 2 0 0 1 1.61.75 2.69 2.69 0 0 1 .62 1.79v13.83a10.71 10.71 0 0 1 -1.07 4.8l-20.06 42.53a3.56 3.56 0 0 1 -3.39 2.16h-18.58a2.06 2.06 0 0 1 -1.65-2.94l21.3-43.65h-26.42a2 2 0 0 1 -1.57-.76 2.6 2.6 0 0 1 -.66-1.78v-14.19a2.62 2.62 0 0 1 .66-1.79 2 2 0 0 1 1.57-.75z" fill="#ff4577"/><path d="m331 79.78a5 5 0 0 1 2.44-.47 5.58 5.58 0 0 1 1.57 1 3.88 3.88 0 0 0 5.32-1.2 2.22 2.22 0 0 1 .61-.8 1.17 1.17 0 0 1 1.16.06 5 5 0 0 1 .91.81 6.79 6.79 0 0 0 3.63 2 4.84 4.84 0 0 0 3.95-1 3.72 3.72 0 0 1 1.08-.82 2.84 2.84 0 0 1 1.81.16 7.44 7.44 0 0 0 3 .37 3.53 3.53 0 0 0 2.58-1.48 1.31 1.31 0 0 0 .14-1.39 1.74 1.74 0 0 0 -.65-.52c-1.87-1-3.85-2.09-6-2.1-2.36 0-4.51 1.27-6.74 2a15.9 15.9 0 0 1 -10.9-.3c-1.95-.78-3.93-2-6-1.56a8.09 8.09 0 0 0 -2.77 1.46 1.69 1.69 0 0 0 -.69.74c-.17.53.5.86.77 1.22a4.72 4.72 0 0 0 1.27 1.25 4.4 4.4 0 0 0 3.51.57z" fill="#ff4577"/><path d="m352.28 77a3.06 3.06 0 0 0 2.17 1.73 4.26 4.26 0 0 0 2.8-.4 1.81 1.81 0 0 0 1.05-1.1 1.42 1.42 0 0 0 -.56-1.35 3.55 3.55 0 0 0 -1.41-.6 6.56 6.56 0 0 1 -1.46-.47c-.59-.31-1.69-1.27-2.25-.42a2.83 2.83 0 0 0 -.34 2.61z" fill="#fef7e7"/><path d="m354.37 74.75a.66.66 0 0 1 0 .46c-.06.15-.15.28-.2.43a1.18 1.18 0 0 0 .34 1.21 1.6 1.6 0 0 0 1.24.39 2.52 2.52 0 0 0 1.22-.5.76.76 0 0 0 .38-.55.75.75 0 0 0 -.38-.57c-.45-.3-1-.46-1.42-.79a9.06 9.06 0 0 0 -.76-.63.81.81 0 0 0 -.93 0c-.14.14-.12.34.1.36s.31-.01.41.19z" fill="#fff"/><path d="m351.17 75.38a1.48 1.48 0 0 0 -.69-.52h-.1a3.31 3.31 0 0 0 -1.16.34 3.67 3.67 0 0 1 -.82.46.25.25 0 0 1 -.24-.07 3.63 3.63 0 0 1 -1.43 1c-.58.16-2.16-.28-2.16.59a3.31 3.31 0 0 0 .89 2.33 2.7 2.7 0 0 0 2.08.57 4.41 4.41 0 0 0 3.75-3.08 2 2 0 0 0 -.12-1.62z" fill="#fef7e7"/><path d="m345.26 76.9a4.83 4.83 0 0 1 .5.77 1.56 1.56 0 0 0 .62.65 1.38 1.38 0 0 0 .9.07 2.7 2.7 0 0 0 1.72-1.31 1.52 1.52 0 0 0 .24-.92.81.81 0 0 0 -.57-.7.85.85 0 0 0 -.6.11 6 6 0 0 0 -.53.34 6.31 6.31 0 0 1 -2.84.84s.13.12.17.13a1.37 1.37 0 0 0 .39.02z" fill="#fff"/><path d="m333.58 78a2.56 2.56 0 0 0 1.56 1.85 3.16 3.16 0 0 0 2.45-.07 4.18 4.18 0 0 0 1.84-1.67.79.79 0 0 0 .15-.51.59.59 0 0 0 -.42-.43 2.31 2.31 0 0 0 -.64 0 6.62 6.62 0 0 1 -3.44-.94c-.23-.14-.46-.4-.71-.3s-.41.4-.52.58a2.24 2.24 0 0 0 -.27 1.49z" fill="#fef7e7"/><path d="m334.39 77.16a1 1 0 0 0 .61.84 1.13 1.13 0 0 0 .55 0 2.41 2.41 0 0 0 1.33-.62c.12-.11.24-.28.16-.43s-.16-.14-.27-.17l-1.77-.48c-.18-.06-.48-.25-.57 0a2.07 2.07 0 0 0 -.04.86z" fill="#fff"/><path d="m327.69 78.74a3.47 3.47 0 0 0 3 .41 3.1 3.1 0 0 0 2-2.29 1.86 1.86 0 0 0 -.25-1.46 2.24 2.24 0 0 0 -1.38-.74 5.85 5.85 0 0 0 -3.43.35 4.08 4.08 0 0 0 -1.49.91c-.27.35.08 1 .26 1.37a3.78 3.78 0 0 0 1.29 1.45z" fill="#fef7e7"/><path d="m327.36 77.21a1.7 1.7 0 0 0 1.23.44 1.06 1.06 0 0 0 1-.78 1.16 1.16 0 0 0 -.08-.66 1.56 1.56 0 0 0 -.65-.8 1.39 1.39 0 0 0 -1-.19 1.63 1.63 0 0 0 -.76.39 2.14 2.14 0 0 0 -.58.62 3.31 3.31 0 0 1 .41.5 2.67 2.67 0 0 0 .43.48z" fill="#fff"/><path d="m324.25 77.77a5.4 5.4 0 0 1 5.45-3.85c1.73.13 3.27 1.11 4.86 1.81a16.54 16.54 0 0 0 13.6-.19c1.09-.52 2.12-1.16 3.25-1.58a5.18 5.18 0 0 1 3.55-.21c1 .35 1.75 1.19 2.72 1.59a3.67 3.67 0 0 0 3 0c.51-.26 1-.7 1.58-.49a1.12 1.12 0 0 1 .41 1.49 2.75 2.75 0 0 1 -2.86 1.43 7.76 7.76 0 0 1 -3.14-1.32 8.86 8.86 0 0 0 -3.1-1.4c-2.07-.34-4 .83-6 1.62a16.91 16.91 0 0 1 -12.17.12 22 22 0 0 0 -4.57-1.61c-1.6-.23-3.47.29-4.2 1.73-.26.5-.36 1.07-.62 1.56a1.36 1.36 0 0 1 -1.32.84c-.5-.09-.6-.98-.44-1.54z" fill="#94355f"/><path d="m346.2 52.78a5.7 5.7 0 0 1 2.15-1.6.54.54 0 0 0 .57.4c1.17 0 2.31-.42 3.49-.48a14.37 14.37 0 0 1 4.24.39.63.63 0 0 0 .78-.51 3.46 3.46 0 0 1 1.41 1.81 2.54 2.54 0 0 1 -.75 2.74 3.86 3.86 0 0 1 -2.06.65 14.41 14.41 0 0 1 -4.25 0 9.85 9.85 0 0 0 -3.68.7 2.68 2.68 0 0 1 -1.37.12 1.76 1.76 0 0 1 -1.05-1 3.21 3.21 0 0 1 .52-3.22z" fill="#3a2275"/><path d="m357.58 54.39a2.17 2.17 0 0 0 .82-2.69 2.57 2.57 0 0 0 -2-1 21.48 21.48 0 0 0 -7.67.2 4.27 4.27 0 0 0 -2.27 1.16 2.19 2.19 0 0 0 -.3 2.55 2.6 2.6 0 0 0 2.42.74l5-.25a9.32 9.32 0 0 0 4-.71z" fill="#56348c"/><path d="m349.94 53.14a24.22 24.22 0 0 0 6.42-.47c.45-.09 1-.25 1.12-.62a.81.81 0 0 0 -.37-.94 2.86 2.86 0 0 0 -1.13-.38 18 18 0 0 0 -7.13.2 2 2 0 0 0 -1.43.83c-.29.61.32 1.32 1.05 1.51a4.83 4.83 0 0 0 2.26-.16" fill="#6f48a3"/><path d="m325.41 53.34a5.86 5.86 0 0 1 2.15-1.59.53.53 0 0 0 .58.39c1.16 0 2.31-.42 3.49-.48a14.79 14.79 0 0 1 4.24.4.63.63 0 0 0 .77-.51 3.48 3.48 0 0 1 1.41 1.8 2.57 2.57 0 0 1 -.74 2.75 4 4 0 0 1 -2.06.65 14.76 14.76 0 0 1 -4.25 0 9.9 9.9 0 0 0 -3.69.7 2.57 2.57 0 0 1 -1.37.11 1.77 1.77 0 0 1 -1.05-1 3.25 3.25 0 0 1 .52-3.22z" fill="#3a2275"/><path d="m336.79 55a2.17 2.17 0 0 0 .82-2.7 2.58 2.58 0 0 0 -2-1 21.48 21.48 0 0 0 -7.67.2 4.14 4.14 0 0 0 -2.27 1.16 2.19 2.19 0 0 0 -.31 2.54 2.63 2.63 0 0 0 2.43.75l5-.26a9.3 9.3 0 0 0 4-.69z" fill="#56348c"/><path d="m329.16 53.71a24.25 24.25 0 0 0 6.42-.47c.45-.1.95-.25 1.12-.63a.81.81 0 0 0 -.38-.93 2.86 2.86 0 0 0 -1.13-.38 18 18 0 0 0 -7.12.19c-.58.14-1.22.35-1.44.83s.32 1.32 1.06 1.51a4.79 4.79 0 0 0 2.25-.15" fill="#6f48a3"/><path d="m368.93 58.83a2 2 0 0 0 -1.61-.75h-47.64a2 2 0 0 0 -1.57.75 2.62 2.62 0 0 0 -.66 1.79v14.21a2.6 2.6 0 0 0 .66 1.78 2.33 2.33 0 0 0 .41.37 2.3 2.3 0 0 0 .44.23 4.73 4.73 0 0 0 -.14-2 44.56 44.56 0 0 1 -1.08-10.8 6.32 6.32 0 0 1 1-3.9c1.26-1.54 3.54-1.65 5.53-1.63l34.43.3c2.34 0 4.88.11 6.71 1.58a7.92 7.92 0 0 1 2.59 5.74c.36 4.94-1.67 9.71-3.66 14.26q-5.48 12.54-11 25.08c-2.16 4.94-4.58 10.19-9.18 13-3.25 2-7.17 2.52-11 3a12.1 12.1 0 0 1 -5.26-.14 5.1 5.1 0 0 1 -2.06-1.35 5.45 5.45 0 0 1 .7-1.87l9.75-17.78a14.4 14.4 0 0 0 2.22-6.09 7.12 7.12 0 0 0 -.11-1.53l-13.6 27.92a2.05 2.05 0 0 0 1.65 2.92h18.55a3.56 3.56 0 0 0 3.39-2.16l20.06-42.53a10.71 10.71 0 0 0 1.07-4.8v-13.81a2.69 2.69 0 0 0 -.59-1.79z" fill="#fff" opacity=".2"/><path d="m360.08 67.69a8.1 8.1 0 0 0 -1.08-6.61 7.68 7.68 0 0 0 -5.35-3.31 7 7 0 0 0 -5 1.23 7.13 7.13 0 0 0 -2.85 4.59 6.61 6.61 0 0 0 1.37 5.31 6.35 6.35 0 0 0 4.52 2 13.43 13.43 0 0 0 4.91-.91 9.33 9.33 0 0 0 2.11-1 4.19 4.19 0 0 0 1.56-1.79" fill="#e6ddd8"/><path d="m358.89 67.27a8.79 8.79 0 0 0 -.26-4.11 5.77 5.77 0 0 0 -2.36-3.16 6.11 6.11 0 0 0 -4-.62 6.48 6.48 0 0 0 -3.14 1.2 4.48 4.48 0 0 0 -1.77 3 4.59 4.59 0 0 0 1.35 3.6 6.16 6.16 0 0 0 3.3 1.61 8.77 8.77 0 0 0 5.73-1 3.07 3.07 0 0 0 1.3-1.15" fill="#f9f9f9"/><path d="m357.43 65.09a3.48 3.48 0 0 0 -.57-3 3.91 3.91 0 0 0 -2.54-1.44 6 6 0 0 0 -2.89.36 3.66 3.66 0 0 0 -2.07 1.51 3.15 3.15 0 0 0 .11 3.05 4 4 0 0 0 2.37 1.74 7.35 7.35 0 0 0 2.88.09 4 4 0 0 0 2-.71 2 2 0 0 0 .71-2" fill="#fff"/><path d="m351.39 64.15a1.91 1.91 0 1 0 1.9-2.11 2 2 0 0 0 -1.9 2.11z" fill="#20aed2"/><path d="m352.44 64.15a.86.86 0 1 0 .85-1 .9.9 0 0 0 -.85 1z" fill="#231f1e"/><path d="m352.2 62.88a1.25 1.25 0 1 0 1.25-1.14 1.2 1.2 0 0 0 -1.25 1.14z" fill="#fff" opacity=".3"/><path d="m357.43 71.42a6.88 6.88 0 0 1 -4.08 1.06 7.88 7.88 0 0 1 -4.16-1.38 7.74 7.74 0 0 1 -2.81-3.64c-.08-.21-.11-.51.07-.58s.26 0 .37.14a10.17 10.17 0 0 0 5.08 2.44 9.7 9.7 0 0 0 5.49-.75 4.41 4.41 0 0 0 1.31-.83 2.52 2.52 0 0 1 .51-.47c.35-.23.91-.08.79.46a5.52 5.52 0 0 1 -.59 1.34 6 6 0 0 1 -1.98 2.21z" fill="#94355f"/><path d="m354.13 69.05a8.47 8.47 0 0 1 -5.25-1.29c-.67-.43-1.3-1-2-1.36a.67.67 0 0 0 -.57-.12.56.56 0 0 0 -.27.62 1.18 1.18 0 0 0 .38.61 4.9 4.9 0 0 0 1.36.84 18.38 18.38 0 0 0 2.91 1.2 11.24 11.24 0 0 0 6.92-.39c.71-.26 2.48-.78 2.49-1.86a.92.92 0 0 0 -.31-.67c-.26-.16-.49.06-.69.22a10.65 10.65 0 0 1 -1.4 1 8.76 8.76 0 0 1 -3.57 1.2z" fill="#e7ba83"/><path d="m339.29 68.26a8.06 8.06 0 0 0 -1.05-6.61 7.62 7.62 0 0 0 -5.35-3.31 7.12 7.12 0 0 0 -5 1.22 7.22 7.22 0 0 0 -2.85 4.6 6.6 6.6 0 0 0 1.38 5.3 6.32 6.32 0 0 0 4.58 2.05 13.52 13.52 0 0 0 4.91-.92 9.25 9.25 0 0 0 2.1-1 4.16 4.16 0 0 0 1.56-1.78" fill="#e6ddd8"/><path d="m338.11 67.84a8.66 8.66 0 0 0 -.27-4.11 5.69 5.69 0 0 0 -2.36-3.13 6.1 6.1 0 0 0 -4-.63 6.77 6.77 0 0 0 -3.15 1.2 4.5 4.5 0 0 0 -1.77 3 4.59 4.59 0 0 0 1.35 3.59 6.15 6.15 0 0 0 3.3 1.61 8.75 8.75 0 0 0 5.73-.94 3.08 3.08 0 0 0 1.3-1.15" fill="#f9f9f9"/><path d="m336.65 65.65a3.44 3.44 0 0 0 -.58-3 3.9 3.9 0 0 0 -2.54-1.45 6.17 6.17 0 0 0 -2.88.36 3.66 3.66 0 0 0 -2.08 1.52 3.16 3.16 0 0 0 .12 3 3.89 3.89 0 0 0 2.36 1.74 7.21 7.21 0 0 0 2.89.1 4 4 0 0 0 2-.71 2 2 0 0 0 .71-2" fill="#fff"/><path d="m330.61 64.71a1.91 1.91 0 1 0 1.9-2.1 2 2 0 0 0 -1.9 2.1z" fill="#20aed2"/><ellipse cx="332.51" cy="64.71" fill="#231f1e" rx=".85" ry=".94"/><ellipse cx="332.66" cy="63.44" fill="#fff" opacity=".3" rx="1.25" ry="1.14"/><path d="m336.64 72a6.78 6.78 0 0 1 -4.07 1.07 7.71 7.71 0 0 1 -7-5c-.08-.2-.11-.5.07-.58s.27 0 .37.14a10 10 0 0 0 5.1 2.37 9.65 9.65 0 0 0 5.5-.74 4.52 4.52 0 0 0 1.3-.84 3.74 3.74 0 0 1 .51-.47c.35-.22.91-.07.8.46a6.91 6.91 0 0 1 -2.58 3.59z" fill="#94355f"/><path d="m333.35 69.61a8.38 8.38 0 0 1 -5.25-1.28c-.68-.44-1.31-1-2-1.37a.7.7 0 0 0 -.57-.12.57.57 0 0 0 -.26.63 1.1 1.1 0 0 0 .37.61 5.05 5.05 0 0 0 1.36.84 19.81 19.81 0 0 0 2.91 1.2 11.16 11.16 0 0 0 6.92-.4c.71-.26 2.48-.77 2.49-1.85a.86.86 0 0 0 -.3-.67c-.26-.17-.49 0-.7.22a11.64 11.64 0 0 1 -1.4 1 8.51 8.51 0 0 1 -3.57 1.19z" fill="#e7ba83"/><path d="m338.85 73.28a.94.94 0 0 0 1 .8c.78-.1 2-1.79 1.08-2.36s-2.22.71-2.08 1.56z" fill="#94355f"/><path d="m343.48 71.81a4.4 4.4 0 0 0 -.1 1.14 1.49 1.49 0 0 0 .46 1 .91.91 0 0 0 1.06.11 1.17 1.17 0 0 0 .36-1.2 1.6 1.6 0 0 0 -.66-1.09 1 1 0 0 0 -1.2.1" fill="#94355f"/><path d="m319.09 63.37a5.89 5.89 0 0 1 3.21-3.37 2.21 2.21 0 0 1 1.31-.2 1 1 0 0 1 .83.91c0 .67-.79 1-1.36 1.33-1.8 1.06-2.25 3.5-1.93 5.56s1.2 4 1.37 6.09c.05.66-.13 1.53-.79 1.62s-1-.56-1.26-1.12a19.4 19.4 0 0 1 -1.42-5.75c-.15-1.69-.57-3.44.04-5.07z" fill="#fff" opacity=".2"/><path d="m359.7 81.66a2.26 2.26 0 0 0 -1.35-.19 1.2 1.2 0 0 0 -1 .87 1.11 1.11 0 0 0 .95 1.26 1.48 1.48 0 0 0 1.45-.83 1 1 0 0 0 .11-.68.5.5 0 0 0 -.52-.39" fill="#fff" opacity=".2"/><path d="m348 85a2.62 2.62 0 0 0 -1.16 1.82 1.4 1.4 0 0 0 .39 1.51c.49.32 1.13 0 1.62-.3a13.44 13.44 0 0 0 1.28-1c1.68-1.39-.81-2.74-2.13-2.03z" fill="#fff" opacity=".2"/><path d="m355.06 93.11c2.07.09 3-3.81.62-4.19-2.07-.34-2.79 4.08-.62 4.19z" fill="#fff" opacity=".2"/><path d="m364.25 68.23a1.26 1.26 0 0 0 -1.13-.44 1.29 1.29 0 0 0 -1 .7 1.4 1.4 0 0 0 .33 1.59 1.6 1.6 0 0 0 1.63.28 1.47 1.47 0 0 0 .92-1.36 1.14 1.14 0 0 0 -1.21-1.06" fill="#fff" opacity=".2"/><path d="m363.48 62.32-1.42-.25a1.16 1.16 0 1 0 1.73 0" fill="#fff" opacity=".2"/><path d="m344.76 91.68-1.37-.18a1.36 1.36 0 0 0 -.16 1.92 1.25 1.25 0 0 0 1.88-.15 1.18 1.18 0 0 0 -.69-1.72" fill="#fff" opacity=".2"/><g fill="none" stroke="#000" stroke-linecap="round" stroke-miterlimit="10" stroke-width=".5"><path d="m3.5 105.93h4"/><path d="m3.5 109.64h4"/><path d="m3.5 113.36h4"/><path d="m3.5 117.07h4"/><path d="m3.5 120.79h4"/><path d="m3.5 76.21h4"/><path d="m3.5 79.93h4"/><path d="m3.5 83.64h4"/><path d="m3.5 87.36h4"/><path d="m3.5 91.07h4"/><path d="m3.5 94.79h4"/><path d="m3.5 48.5h4"/><path d="m3.5 52.5h4"/><path d="m3.5 56.5h4"/><path d="m3.5 60.5h4"/><path d="m3.5 64.5h4"/><path d="m3.5 68.5h4"/></g></svg>