<svg height="75" viewBox="0 0 85 75" width="85" xmlns="http://www.w3.org/2000/svg"><path d="m71.86 18.81h-.2z" fill="#3f3946"/><path d="m71.6 18.78h-.15l-.71-.24c-1.67-.52-3.1-.82-3.1-.82s-.57-.66-1.27-4.73a9.7 9.7 0 0 0 -2.72-4.4c-1-3.44 1-5.11 1-5.11a16.19 16.19 0 0 1 3.35 2.83c1.36 1.62.85 6.78 1.41 9.68a3.83 3.83 0 0 0 1.19 2.32 2.1 2.1 0 0 0 1 .47z" fill="#3f3946"/><path d="m69.59 61.23c-.17 0-1.35 0-1.74 0a18.22 18.22 0 0 0 -.65-1.8c-.51-1.4-3.15-.3-3.87-.5s-1.76-.43-2.48-2.48a6.14 6.14 0 0 1 2.11-7 9 9 0 0 0 2.12-2.31s-.76 4.72-.82 5.62.22 3.46.82 4 2.28.72 3.16.78 1.26.9 1.44 1.8.12 1.93-.09 1.89z" fill="#9d9fb3"/><g fill="#4a4350"><path d="m52.59 61.63c0 1.32-1.05 1.15-3 1.4s-10.91.29-12.39.23-1.78-1.32-3.59-2c-1.41-.56-4-.29-5.25-1.16a1.54 1.54 0 0 1 -.65-1c-.21-.21-.43-.45-.65-.71l-.47-.74-.15-.27c-.06-.09-.11-.19-.16-.28-.31-.57-.6-1.19-.88-1.81l-.13-.31a2.88 2.88 0 0 1 -.13-.31c-.4-.92-.73-1.8-1-2.49-.06-.15-.1-.29-.15-.42a.64.64 0 0 0 0-.07l-.15-.42-.07-.27a.62.62 0 0 0 0-.1 309063205120 309063205120 0 0 0 0-.06 13 13 0 0 1 1.36-8.64c3.73-6.7 11.33-9.35 16.28-9.44a30.43 30.43 0 0 0 6.86-1.11 10.34 10.34 0 0 1 .59 1.74c.47 1.94.62 5-2.42 6.6-4.66 2.43-7 10.54-5 12.56 1.59 1.6 6.15 3.8 8 5.11a1.18 1.18 0 0 0 .82.81 9.44 9.44 0 0 0 2.26 2.39 2.92 2.92 0 0 1 .07.77z"/><path d="m76.82 31.39s-4.22 1.41-5-.22.74-3.58 2-3.88a4.46 4.46 0 0 1 2.91.81s0 0 0 0 .07-.1.13-.19v-.06a1.71 1.71 0 0 1 .11-.14l.11-.15.15-.16.16-.14a1.52 1.52 0 0 1 .64-.38h.16a23.17 23.17 0 0 0 -2.75-5.74c-.73-.94-2.47-1.73-4.15-2.3l-5-.51-2.64-9.75c-2.69-2.85-6.44-5.3-6.92-5.1-.73.31-.8 7-.1 11.47s5.22 7.55 5.22 7.55v.08c0 .18.1.63.22 1.27s.33 1.62.59 2.65c.49 2 6.34 6.75 7.69 7.82.18.13.27.21.27.21s.09.08.23.23c.94-.73 2.08-.68 4-.68s3.06-1.6 3.54-3.13a4.05 4.05 0 0 1 -1.57.44zm-11.74-11.13c-.26.6-1.26-.24-1.81-1.2s-.92 1.47-1.36.91a58.41 58.41 0 0 1 -3.91-5.57 3.48 3.48 0 0 1 -.5-1.25c0-1.17-.13-7.9 0-8.35s.68.25 2.71 1.87a15.46 15.46 0 0 1 4.42 7.28 41.73 41.73 0 0 1 .77 4.18 4.76 4.76 0 0 1 -.32 2.13zm4.51 4.74a3.73 3.73 0 0 1 -1.11-3.84 4.28 4.28 0 0 1 3.8 2.23 11.23 11.23 0 0 1 .65 3.08 5 5 0 0 1 -3.34-1.47z"/><path d="m66.47 18.26 5 .5a35.22 35.22 0 0 0 -3.81-1.05s-.57-.66-1.27-4.73a9.7 9.7 0 0 0 -2.72-4.4z"/></g><g fill="#c8c2c9"><path d="m79.42 30.19a4.2 4.2 0 0 1 -1 .75 7.85 7.85 0 0 0 .39-2.64 7.71 7.71 0 0 0 -.22-.83q-.09-.3-.21-.66a.75.75 0 0 1 .43.09 2.09 2.09 0 0 1 .61 3.29z"/><path d="m78.78 28.3a11.07 11.07 0 0 0 -.43-1.49c-.82.05-1.53 1.29-1.53 1.29a4.46 4.46 0 0 0 -2.91-.81c-1.31.3-2.8 2.24-2 3.88s5 .22 5 .22a4.05 4.05 0 0 0 1.57-.45 7.85 7.85 0 0 0 .3-2.64z"/><path d="m72.28 23.41a4.28 4.28 0 0 0 -3.8-2.23 3.73 3.73 0 0 0 1.11 3.82 5 5 0 0 0 3.34 1.47 11.23 11.23 0 0 0 -.65-3.06zm-.58 1.27a1.65 1.65 0 0 1 -2.26-1.68 1.74 1.74 0 0 1 1.56-.26c.86.38.89 1.06.7 1.94z"/><path d="m27.73 59.09-.27.13s-2.72 1.52-4.46-.22c-1.53-1.58-3.17-3.36-3-5.43a3.52 3.52 0 0 1 .15-.76 2.94 2.94 0 0 1 2.94-2 3.45 3.45 0 0 1 .56 0c0 .27.1.53.16.79a6.17 6.17 0 0 0 .16.65c0 .16.08.32.13.47s.07.24.11.36l.15.44a.76.76 0 0 0 0 .11c.11.3.22.59.34.87l.18.41c.06.14.13.28.19.41a14.76 14.76 0 0 0 1.05 1.68l.18.29.21.29.11.16c.15.21.3.4.45.59a6 6 0 0 0 .66.76z"/><path d="m27.07 58.3a36.32 36.32 0 0 1 -3.35-7.51 16.79 16.79 0 0 0 3.35 7.51z"/></g><path d="m52.46 60.81a4 4 0 0 0 -2.26-2.39 9.44 9.44 0 0 0 2.26 2.39z" fill="#4a4350"/><path d="m70.86 34.75c-.85.66-1.54 2-2.47 4.58-1.29 3.61-2.15 6.05-3.31 7.84a14 14 0 0 0 -2.43.75 19.11 19.11 0 0 0 -3.1 1.56c-2.95 1.85-1 6-.17 8.62.58 1.91 4.91 2.71 7.09 3 .75.09 1.25.13 1.25.13h.13a1.18 1.18 0 0 1 -.38 1.26 5.48 5.48 0 0 1 -2 .54c-2.52.36-6.43.5-6.8.24a3.57 3.57 0 0 1 -2-2.33c-.44-1.63-3.47-2.28-3.57-5.13a6.71 6.71 0 0 1 -3.61 1 1.24 1.24 0 0 0 -.11.8c-1.87-1.31-6.43-3.51-8-5.11-2-2 .37-10.13 5-12.56 3-1.59 2.89-4.66 2.42-6.6a10.34 10.34 0 0 0 -.59-1.74c3.42-.92 6.6-2.24 7.8-3.3 1.89-1.67 5.25-5.21 5.76-5.74l.07-.07v.08c0 .18.1.63.22 1.27s.33 1.62.59 2.65c.49 2 6.34 6.75 7.69 7.82.18.13.27.21.27.21s.11.08.25.23z" fill="#c8c2c9"/><path d="m59.38 58.1c.78 2.57 8.34 3.13 8.34 3.13h.13a16.62 16.62 0 0 0 -.65-1.81c-.51-1.4-3.15-.3-3.87-.5s-1.76-.43-2.48-2.48a6.14 6.14 0 0 1 2.11-7 8.84 8.84 0 0 0 2.12-2.31 17.37 17.37 0 0 0 -5.53 2.31c-2.95 1.89-.95 6.08-.17 8.66z" fill="#c8c2c9"/><path d="m61.91 17.25c.4-1 1.33-2 1.34-1.26s1.27 1.81 2.18 2.13a41.73 41.73 0 0 0 -.77-4.18 15.46 15.46 0 0 0 -4.42-7.28c-2-1.62-2.58-2.32-2.71-1.87s0 7.18 0 8.35a3.48 3.48 0 0 0 .5 1.25c.26.42 3.5 3.88 3.88 2.86z" fill="#aea3b3"/><path d="m63.25 16c0-.75-.94.23-1.34 1.26s-3.62-2.45-3.91-2.86a58.41 58.41 0 0 0 3.91 5.6c.44.56.8-1.88 1.36-.91s1.55 1.8 1.81 1.2a4.76 4.76 0 0 0 .35-2.14c-.91-.35-2.16-1.52-2.18-2.15z" fill="#888aa3"/><path d="m71 22.74a1.74 1.74 0 0 0 -1.59.24 1.65 1.65 0 0 0 2.26 1.7c.22-.88.19-1.56-.67-1.94zm-.41 1.39a.45.45 0 0 1 -.45-.45.45.45 0 1 1 .9 0 .45.45 0 0 1 -.42.45z" fill="#414042"/><path d="m70.62 23.22a.46.46 0 0 0 -.45.46.45.45 0 0 0 .9 0 .46.46 0 0 0 -.45-.46z" fill="#fff"/><path d="m27.72 59c0 .07-.26.2-.26.2s-2.72 1.54-4.46-.2c-1.53-1.58-3.17-3.36-3-5.43.38-1.82.95.53 1 1s1.34 1.65 2.63 2.25a9.59 9.59 0 0 0 2.79.76h.09c1.04.93 1.28 1.91 1.21 1.42z" fill="#a09da8"/><path d="m61.91 22.58a.67.67 0 0 1 .2 1.25c-1.6 1-3 2.92-5.57 5.54-1.83 1.87-4.51 3.07-7.7 4-3.79 1-8.3 1.65-13 2.42-8.75 1.38-11.33 17.21-11.33 17.21l-.51-.77c-.24-.39-.55-.91-.88-1.48a3.45 3.45 0 0 1 .56 0 13 13 0 0 1 1.36-8.64c3.73-6.7 11.33-9.35 16.28-9.44a30.43 30.43 0 0 0 6.86-1.11c3.42-.92 6.6-2.24 7.8-3.3 1.89-1.67 5.25-5.21 5.76-5.74h.13z" fill="#231f20" opacity=".34"/><path d="m71.86 18.81h-.2z" fill="#231f20"/><path d="m78.39 30.94c-.48 1.53-1.5 3.13-3.54 3.13s-3 0-4 .68-1.54 2-2.47 4.58c-1.29 3.61-2.15 6.05-3.31 7.84s-.76 4.72-.82 5.62.22 3.46.82 4 2.28.72 3.16.78 1.26.9 1.44 1.8.12 1.86-.09 1.82-1.35 0-1.74 0a1.18 1.18 0 0 1 -.38 1.26 5.48 5.48 0 0 1 -2 .54c.11-.06 1.75-1 1-1.92a.2.2 0 0 0 -.06-.07c-.9-1-1.1-.31-3.48-1.4s-4.05-2.3-3.55-5 .66-4.3 2.63-6c.21-.19.43-.4.65-.64a27.23 27.23 0 0 0 4.87-8.72 11.77 11.77 0 0 1 2.84-4.89 1.36 1.36 0 0 1 .71-.42c.65-.06 3.94-.16 5-.81s2.15-1.56 2.32-2.18z" fill="#fff" opacity=".37"/><path d="m79.42 30.19a4.2 4.2 0 0 1 -1 .75c.17-.62 1.12-.79 1-1.56a3.58 3.58 0 0 0 -.62-1.77.56.56 0 0 0 -.23-.14c-.39-.16-1-.18-1-.26a17.21 17.21 0 0 0 -1.78-4.71c-.79-1.15-3.85-2.94-4.83-3.78a1.9 1.9 0 0 1 -.2-.18c-.09-.1-.13-.17-.11-.22a2.1 2.1 0 0 0 1 .47h-.15c1.68.57 3.42 1.36 4.15 2.3a23.17 23.17 0 0 1 2.75 5.74.75.75 0 0 1 .43.09 2.09 2.09 0 0 1 .59 3.27z" fill="#fff" opacity=".37"/><path d="m32.55 47.16s13.11-2.39 14.6 10.16a18.23 18.23 0 0 0 -14.6-10.16z" fill="#231f20" opacity=".34"/><path d="m77.05 28.84a1.66 1.66 0 0 1 -1-.07c-.53-.24-.64-.54-.39-.65a.52.52 0 0 1 .68.22.72.72 0 0 0 .73.25.6.6 0 0 0 .41-.58c0-.15 0-.48.24-.36s.35.33.16.54a3.46 3.46 0 0 1 -.83.65z" fill="#414042"/><path d="m13.68 24h.22z" fill="#3f3946"/><path d="m14 24h.16l.79-.26c1.87-.59 3.46-.92 3.46-.92s.59-.82 1.39-5.32a10.89 10.89 0 0 1 3-4.91c1.12-3.84-1.12-5.7-1.12-5.7a18 18 0 0 0 -3.68 3.17c-1.52 1.81-1 7.56-1.58 10.79a4.25 4.25 0 0 1 -1.32 2.59 2.35 2.35 0 0 1 -1.1.56z" fill="#3f3946"/><path d="m16.2 71.26h1.95c.12-.56.44-1.21.72-2 .57-1.56 3.51-.34 4.31-.56s2-.47 2.77-2.76a6.87 6.87 0 0 0 -2.35-7.76 9.82 9.82 0 0 1 -2.36-2.57s.85 5.25.92 6.26-.24 3.86-.92 4.51-2.54.79-3.52.87-1.4 1-1.6 2-.12 2.05.08 2.01z" fill="#9d9fb3"/><g fill="#4a4350"><path d="m35.15 71.71c0 1.47 1.18 1.28 3.34 1.57s12.15.31 13.8.25 2-1.47 4-2.27c1.57-.61 4.47-.32 5.85-1.29a1.67 1.67 0 0 0 .72-1.17 9.42 9.42 0 0 0 .72-.79c.18-.25.36-.53.53-.82a129443850654476.4 129443850654476.4 0 0 1 .34-.62c.35-.63.68-1.32 1-2 0-.12.11-.23.16-.35s.1-.23.14-.34c.44-1 .81-2 1.09-2.78l.17-.47a.24.24 0 0 1 0-.08 4.38 4.38 0 0 0 .16-.47 1.35 1.35 0 0 0 .09-.26v-.11a.06.06 0 0 0 0 0 14.4 14.4 0 0 0 -1.45-9.71c-4.16-7.47-12.63-10.42-18.15-10.52a34.42 34.42 0 0 1 -7.66-1.23 10.12 10.12 0 0 0 -.65 1.93c-.53 2.17-.7 5.59 2.69 7.36 5.19 2.7 7.81 11.75 5.6 14-1.76 1.79-6.85 4.24-8.93 5.7a1.32 1.32 0 0 1 -.92.9 10.45 10.45 0 0 1 -2.49 2.66 2.89 2.89 0 0 0 -.15.91z"/><path d="m6.4 37.51c.54 1.71 1.67 3.49 3.95 3.49 2.12 0 3.4-.06 4.44.76l.26-.26.3-.24c1.5-1.19 8-6.47 8.57-8.71.29-1.15.5-2.17.65-2.95s.22-1.22.25-1.42a.62.62 0 0 0 0-.09s5.05-3.41 5.82-8.4.7-12.44-.11-12.78c-.53-.23-4.72 2.5-7.72 5.68l-3.12 10.79-5.56.62c-1.86.63-3.81 1.51-4.62 2.56a25.64 25.64 0 0 0 -3.06 6.4h.17a1.75 1.75 0 0 1 .72.41c.06.06.12.11.17.17a1.45 1.45 0 0 1 .17.18l.13.15.11.16v.07l.15.22a.08.08 0 0 1 0 0s1.78-1.24 3.24-.9 3.12 2.49 2.29 4.32-5.45.26-5.45.26a4.5 4.5 0 0 1 -1.75-.49zm14.45-14.29a43.61 43.61 0 0 1 .85-4.65c.26-1.91 2.66-6.31 4.92-8.11s2.88-2.59 3-2.09 0 8 0 9.3a3.9 3.9 0 0 1 -.56 1.4 61.47 61.47 0 0 1 -4.32 6.21c-.49.62-.89-2.09-1.51-1s-1.72 2-2 1.34a5.28 5.28 0 0 1 -.38-2.4zm-8.37 9.33a12.38 12.38 0 0 1 .73-3.42 4.79 4.79 0 0 1 4.24-2.5 4.18 4.18 0 0 1 -1.25 4.29 5.56 5.56 0 0 1 -3.72 1.63z"/><path d="m19.69 23.38-5.56.62a40.13 40.13 0 0 1 4.25-1.18s.62-.82 1.42-5.32c.26-1.54 1.49-3.28 3-4.91z"/></g><g fill="#c8c2c9"><path d="m5.25 36.68a4.61 4.61 0 0 0 1.15.83 8.6 8.6 0 0 1 -.4-2.94 6.61 6.61 0 0 1 .24-.92c.07-.23.14-.47.24-.74a.84.84 0 0 0 -.48.09 2.33 2.33 0 0 0 -.75 3.68z"/><path d="m6 34.57a11.68 11.68 0 0 1 .48-1.66c.91.06 1.7 1.44 1.7 1.44a5 5 0 0 1 3.24-.9c1.46.33 3.12 2.49 2.29 4.32s-5.56.23-5.56.23a4.29 4.29 0 0 1 -1.75-.5 8.63 8.63 0 0 1 -.4-2.93z"/><path d="m12.48 32.55a5.56 5.56 0 0 0 3.72-1.63 4.18 4.18 0 0 0 1.25-4.29 4.79 4.79 0 0 0 -4.24 2.5 12.38 12.38 0 0 0 -.73 3.42zm2.12-4.18a1.93 1.93 0 0 1 1.77.27 1.84 1.84 0 0 1 -2.52 1.9c-.2-.99-.18-1.74.75-2.17z"/><path d="m62.85 68.88.3.14s3 1.7 4.94-.28c1.71-1.77 3.54-3.75 3.3-6a4.51 4.51 0 0 0 -.17-.86 3.26 3.26 0 0 0 -3.22-2.29 4.4 4.4 0 0 0 -.63 0c0 .29-.1.59-.17.88l-.18.72-.15.52-.12.4c-.06.16-.11.33-.17.49a1.12 1.12 0 0 1 0 .13c-.11.32-.24.65-.37 1l-.21.47-.21.45a18.27 18.27 0 0 1 -1 1.87l-.21.32-.22.32-.13.18c-.17.24-.34.45-.51.66a5.49 5.49 0 0 1 -.87.88z"/><path d="m63.58 68c1.89-2.68 3.7-8.26 3.74-8.38a18.69 18.69 0 0 1 -3.74 8.38z"/></g><path d="m35.3 70.8a4.44 4.44 0 0 1 2.51-2.67 10.45 10.45 0 0 1 -2.51 2.67z" fill="#4a4350"/><path d="m14.79 41.76c1 .74 1.72 2.2 2.75 5.1 1.44 4 2.4 6.75 3.7 8.74a15.7 15.7 0 0 1 2.7.83 22.3 22.3 0 0 1 3.45 1.74c3.29 2.07 1.07 6.73.19 9.6-.64 2.14-5.47 3-7.9 3.35-.84.1-1.39.14-1.39.14h-.14a1.31 1.31 0 0 0 .42 1.4 6 6 0 0 0 2.27.6c2.8.4 7.16.55 7.56.27a3.94 3.94 0 0 0 2.19-2.6c.49-1.81 3.87-2.53 4-5.71a7.47 7.47 0 0 0 4 1.12 1.45 1.45 0 0 1 .13.89c2.08-1.46 7.17-3.91 8.93-5.7 2.21-2.24-.41-11.29-5.6-14-3.39-1.77-3.22-5.19-2.69-7.36a10.12 10.12 0 0 1 .64-1.92c-3.81-1-7.35-2.49-8.7-3.68-2.09-1.86-5.85-5.8-6.41-6.4l-.08-.08a.62.62 0 0 1 0 .09c0 .2-.11.71-.25 1.42s-.36 1.8-.65 2.95c-.55 2.24-7.07 7.52-8.57 8.71l-.3.24z" fill="#c8c2c9"/><path d="m27.58 67.77c-.87 2.87-9.29 3.5-9.29 3.5h-.14a20.62 20.62 0 0 1 .72-2c.57-1.56 3.51-.34 4.31-.56s2-.47 2.77-2.76a6.87 6.87 0 0 0 -2.35-7.76 9.67 9.67 0 0 1 -2.36-2.57 19.25 19.25 0 0 1 6.15 2.57c3.29 2.05 1.07 6.72.19 9.58z" fill="#c8c2c9"/><path d="m24.76 22.26c-.44-1.14-1.47-2.24-1.49-1.41s-1.42 2-2.42 2.37a43.61 43.61 0 0 1 .85-4.65c.26-1.91 2.66-6.31 4.92-8.11s2.88-2.59 3-2.09 0 8 0 9.3a3.9 3.9 0 0 1 -.56 1.4c-.26.47-3.87 4.32-4.3 3.19z" fill="#aea3b3"/><path d="m23.27 20.85c0-.83 1.05.27 1.49 1.41s4-2.72 4.32-3.18a61.47 61.47 0 0 1 -4.32 6.21c-.49.62-.89-2.09-1.51-1s-1.72 2-2 1.34a5.28 5.28 0 0 1 -.38-2.39c.98-.37 2.38-1.68 2.4-2.39z" fill="#888aa3"/><path d="m13.85 30.54a1.84 1.84 0 0 0 2.52-1.9 1.93 1.93 0 0 0 -1.77-.27c-.93.43-.95 1.18-.75 2.17zm.7-1.12a.51.51 0 0 1 .51-.51.5.5 0 0 1 .5.51.5.5 0 0 1 -.5.5.5.5 0 0 1 -.51-.5z" fill="#414042"/><path d="m15.06 28.91a.5.5 0 0 1 .5.51.5.5 0 0 1 -.5.5.5.5 0 0 1 -.51-.5.51.51 0 0 1 .51-.51z" fill="#fff"/><path d="m62.86 68.8c0 .08.29.22.29.22s3 1.7 4.94-.28c1.71-1.77 3.54-3.75 3.3-6-.42-2-1.06.58-1.13 1.14s-1.51 1.84-2.94 2.51a10.49 10.49 0 0 1 -3.1.84h-.11c-1.06 1.01-1.32 2.09-1.25 1.57z" fill="#a09da8"/><path d="m24.76 28.19a.76.76 0 0 0 -.22 1.4c1.78 1.07 3.37 3.26 6.22 6.18 2 2.08 5 3.42 8.58 4.4a145.64 145.64 0 0 0 14.5 2.7c9.7 1.58 12.57 19.23 12.57 19.23l.53-.87 1-1.65a4.4 4.4 0 0 0 -.63 0 14.4 14.4 0 0 0 -1.5-9.58c-4.16-7.47-12.63-10.42-18.15-10.52a34.42 34.42 0 0 1 -7.66-1.23c-3.81-1-7.35-2.49-8.7-3.68-2.09-1.86-5.85-5.8-6.41-6.4h-.15z" fill="#231f20" opacity=".34"/><path d="m13.68 24h.22z" fill="#231f20"/><path d="m6.4 37.51c.54 1.71 1.67 3.49 3.95 3.49 2.12 0 3.4-.06 4.44.76s1.72 2.2 2.75 5.1c1.44 4 2.4 6.75 3.7 8.74s.85 5.25.92 6.26-.24 3.86-.92 4.51-2.54.79-3.52.87-1.4 1-1.6 2-.14 2.06.09 2 1.51 0 1.95 0a1.31 1.31 0 0 0 .42 1.4 6 6 0 0 0 2.27.6c-.12-.07-1.95-1.08-1.16-2.14a.39.39 0 0 1 .08-.1c1-1.13 1.23-.34 3.88-1.56s4.52-2.56 3.95-5.61-.73-4.79-2.93-6.71a9.51 9.51 0 0 1 -.72-.71 30.25 30.25 0 0 1 -5.43-9.72 13 13 0 0 0 -3.16-5.45 1.6 1.6 0 0 0 -.8-.46c-.71-.06-4.38-.18-5.51-.91s-2.46-1.66-2.65-2.36z" fill="#fff" opacity=".37"/><path d="m5.25 36.68a4.61 4.61 0 0 0 1.15.83c-.19-.69-1.25-.88-1.13-1.73a4.12 4.12 0 0 1 .68-2 .71.71 0 0 1 .26-.15c.44-.18 1.17-.2 1.13-.3a19 19 0 0 1 2-5.26c.87-1.28 4.28-3.27 5.38-4.2a2.12 2.12 0 0 0 .21-.2c.1-.11.15-.19.13-.25a2.35 2.35 0 0 1 -1.06.58h.16c-1.86.63-3.81 1.51-4.62 2.56a25.64 25.64 0 0 0 -3.06 6.4.84.84 0 0 0 -.48.04 2.33 2.33 0 0 0 -.75 3.68z" fill="#fff" opacity=".37"/><path d="m57.48 55.59s-14.61-2.66-16.27 11.32c0 0 3.92-9.73 16.27-11.32z" fill="#231f20" opacity=".34"/><path d="m7.9 35.17a1.8 1.8 0 0 0 1.16-.08c.59-.26.72-.6.44-.72a.58.58 0 0 0 -.76.25.81.81 0 0 1 -.81.28.69.69 0 0 1 -.46-.65c0-.17 0-.54-.27-.4s-.38.36-.18.59a3.34 3.34 0 0 0 .88.73z" fill="#414042"/></svg>