<svg height="75" viewBox="0 0 85 75" width="85" xmlns="http://www.w3.org/2000/svg"><g opacity=".8"><path d="m5.16 60.7c.61 2.87 1.51 2.3 3.68 5.09 1.44 1.86 5.31 2.75 8.56 2.91a18.72 18.72 0 0 0 2.12 0 9.89 9.89 0 0 1 1.27 0c4.93.42 17.36 3 18.56 1.34a2.11 2.11 0 0 0 -.88-3.34h.84c3 0 13.13.15 14.64 0a2.88 2.88 0 0 1 1 .12c2.42.59 7.14 3.12 8.31 3.33 1.35.25 5.84 2.08 7 .13a1.33 1.33 0 0 0 -.5-1.81 3.71 3.71 0 0 0 -1-.45c.11 0 .41.07.8.11 1.72.21 5.25.38 2-2.19a4.85 4.85 0 0 0 -3.2-1 2.46 2.46 0 0 1 -1-.28 1.26 1.26 0 0 1 -.69-1.06 4.29 4.29 0 0 1 0-.5c0-1 .4-1.56 2.58-3a16.86 16.86 0 0 0 5.75-6.53 7.71 7.71 0 0 0 .62-2.57s5.71-1.09 6-4.18-3.87-6.31-4-6.65-1.26-2.5-5.42-4.28l-1.73-2.13a.17.17 0 0 0 0-.07s0-.06 0-.1c.17-1.62 1.27-14.11-2.87-16.32a3.54 3.54 0 0 0 -1.83-.64 5.64 5.64 0 0 0 0 3.71c.55 1.88-.2 6.29-.32 8.06a3.39 3.39 0 0 0 0 .54c-.47-1.31-4.31-10-7.76-10.5-3.79-.55 5.88 18 5.63 19.21a2.46 2.46 0 0 0 0 .37c0 1 .69 1.75-.43 2.9a2 2 0 0 1 -.34.24c-2 1.07-9.63 1.41-10.76 2.3s-23-4.56-29.7 0c-4.85 3.29-7.86 9.3-8.89 13.64a10.25 10.25 0 0 0 -.31 4s-1.88-.25-2.13-1.8a4.68 4.68 0 0 0 -4.73-3.08 5.72 5.72 0 0 0 -.87 4.48z" fill="#c96753"/><path d="m63.43 37.68a2.46 2.46 0 0 0 0 .37c1.29.85.42-.49 1-.74a4.69 4.69 0 0 1 2 0 12.54 12.54 0 0 0 .49-2.46 10.3 10.3 0 0 1 .55-2.38s-.71-1.73-1.88-4.09a3.39 3.39 0 0 0 0 .54c-.47-1.31-4.31-10-7.76-10.5-3.83-.5 5.85 18.03 5.6 19.26z" fill="#c96753"/><path d="m72.79 42.74s1.65-4.54-3.94-3.83c0 0-1.19 5.49 3.94 3.83z" fill="#d8b69b"/><path d="m58 20.56a54.91 54.91 0 0 0 4.39 11.52 12.89 12.89 0 0 0 3.51 4.62 37.12 37.12 0 0 0 -1.48-8.06c-1-3.21-2.65-6.55-5.35-8.31-.01-.01-1.24-1.23-1.07.23z" fill="#d7997e"/><path d="m63.41 64.17c.15 1.07 1.39 2.12 3.89.57a1.26 1.26 0 0 1 -.69-1.06 4.29 4.29 0 0 1 0-.5c0-1 .4-1.56 2.58-3a16.86 16.86 0 0 0 5.81-6.61l-.8-.57s-.83 3.76-5.86 5.69c-3.97 1.56-5.1 4.19-4.93 5.48z" fill="#ab5754"/><path d="m76.73 50a3.77 3.77 0 0 0 2.83-1.49 5 5 0 0 0 1.51-.32c2.43-.93 2.39-3.5.85-4.3a2 2 0 0 0 -1.15-.23c-1.23.13-2.11 1.33-2.2 1.29a5.08 5.08 0 0 0 -5 1.11c-1.75 1.63 1.43 3.94 3.16 3.94z" fill="#d8b69b"/><path d="m38.47 66.74s-2-1-7.07-1.28c0 0 5.12.52 6.68-2.78l15.42.89a3.39 3.39 0 0 0 .73 3.17s-15.14.26-15.76 0z" fill="#ab5754"/><path d="m63.18 64.78c0 .42 4.15 3.43 5 3.68a6.24 6.24 0 0 0 1.51.06 3.71 3.71 0 0 0 -1-.45c.11 0 .41.07.8.11 1.72.21 5.25.38 2-2.19a4.85 4.85 0 0 0 -3.2-1s-1.6-.07-1.68-1.34a4.29 4.29 0 0 1 0-.5c-.26.13-.72.4-1.18.66-.62.35-1.52.18-2 .33a1.07 1.07 0 0 0 -.25.64z" fill="#b58f7f"/><path d="m72 42.16a7.36 7.36 0 0 0 -.23-2c-.22-.34-.67-.7-2-.51l-.51.09s-.16 1.36.31 1.82c.65.6 2.43.6 2.43.6z" fill="#3c3440"/><path d="m54.14 66.74c2.42.59 7.92 3.25 9.09 3.46 1.35.25 5.84 2.08 7 .13.73-1.65-1.22-2.18-1.53-2.26.11 0 .41.07.8.11a3.71 3.71 0 0 0 -.85-.12s-5.07-2.37-5.19-3.28.19-1.2-.37-1.32-2 .43-3.28.45c-2.53 0-5.91-.54-6.26-.34s-.69.96.59 3.17z" fill="#d8b69b"/><path d="m20.38 69.08a2.67 2.67 0 0 0 1.25.43c5.25.49 17 2.16 18.15.59 1.33-1.78-1-4.12-2.91-4.24a33.62 33.62 0 0 0 -4.77-.35l-9.71-.63a2.8 2.8 0 0 0 -2.94 2.12 1.86 1.86 0 0 0 .93 2.08z" fill="#d8b69b"/><path d="m34.1 65.59s5.66-12.41-3.45-13.59c0 0 16.41 0 5.19 13.87z" fill="#ab5754"/><path d="m70.12 40.74a.36.36 0 1 0 .36-.35.35.35 0 0 0 -.36.35z" fill="#fff"/><path d="m79.19 46.38c.06 0 .19-.6.5-.73s.9-.55.45-.79a.66.66 0 0 0 -1 .5c-.09.4 0 .64-.14.64s-.45-.4-.8-.51-.89.06-.75.33.47.15.94.27a3.15 3.15 0 0 1 .8.29z" fill="#78563f"/><path d="m63 41s-.72 5.91 4.33 8.56 8.29 1.44 8.29 1.44a9.91 9.91 0 0 1 -1.11 3.53s-1.6-2.31-3.51-2.53-7.56-1.89-8.84-5.66.48-5.19.48-5.19z" fill="#ab5754"/><path d="m19.45 67s-3-.64-4-2.1-2.45-3.71-2.45-3.71-3.27 1.81-1.78 4.67 8.27 2.8 8.92 2.84-.69-1.7-.69-1.7z" fill="#75383c"/><path d="m5.16 60.7c.61 2.87 1.51 2.3 3.68 5.09 1.44 1.86 5.31 2.75 8.56 2.91-1.36-.34-4.85-2.84-4.85-2.84l.4-.59v-4.08s-1.88-.25-2.13-1.8a4.68 4.68 0 0 0 -4.73-3.08 5.72 5.72 0 0 0 -.93 4.39z" fill="#4d343d"/><path d="m58 20.56a54.91 54.91 0 0 0 4.39 11.52c1.19.15.25-.2.45-1s-.57-2.05.25-1.19 1.3-1.15 1.33-1.27c-1-3.21-2.65-6.55-5.35-8.31-.01.01-1.24-1.21-1.07.25z" fill="#e8cab0"/><path d="m65.56 28.92.8 2.13a3.75 3.75 0 0 0 1.64 1.77 6.14 6.14 0 0 1 1 .27c.68.24 1.37.55 1.55.63a.17.17 0 0 0 0-.07s0-.06 0-.1c.17-1.62 1.27-14.11-2.87-16.32a3.54 3.54 0 0 0 -1.83-.64 5.64 5.64 0 0 0 0 3.71c.66 2.14-.37 7.48-.29 8.62z" fill="#ed8e71" opacity=".29"/><path d="m13.26 57.14c1.47-3.4 6.91-11.43 9.69-12.43 4.81-1.73 9.18 1.48 9.18 1.48 10.1-2.84 19.54 1.08 19.54 1.08.82-1.6 3.06-2.53 5.64-3.35a21.13 21.13 0 0 0 5.3-2.72c-2 1.07-9.63 1.41-10.76 2.3s-23-4.56-29.7 0c-4.85 3.29-7.86 9.3-8.89 13.64z" fill="#fff" opacity=".37"/><path d="m65.89 16.61a3.09 3.09 0 0 1 1.89 2.24c.87 1 1.66 5 1.49 7.25s-.3 7-.3 7l1.55.63a.17.17 0 0 0 0-.07s0-.06 0-.1c.17-1.62 1.27-14.11-2.87-16.32a3.54 3.54 0 0 0 -1.76-.63z" fill="#ab5754"/></g><path d="m13.81 69.48s-1.26.68-4.71-.34-7.54-5.71-7.89-8 .58-2.14 1.14-1.94a2 2 0 0 1 .95.8s4.9 6.88 10.5 8.39l.15 1z" fill="#d8b69b"/><path d="m13.8 68.43-2.41-.31a5.5 5.5 0 0 1 -1.31-.53c-.28-.24-1.6-1-1.6-1l-2.48-1.54.42-.65-2.09-1s-1.49-1.79-1.49-2.31a2 2 0 0 1 .46-1.09s4.64 5.81 10.5 8.43z" fill="#ab5754"/><path d="m53.65 70.17c0 .28-.53 1-1.89.88a18.88 18.88 0 0 0 -1.92-.05c-.32 0-3.24-.34-3.4-2.22s-.63-7.29.63-7.84a22.73 22.73 0 0 0 3.05-1.94s-.07 8 .59 8.56 1.78.35 2 1a9.83 9.83 0 0 0 .82 1.35.5.5 0 0 1 .12.26z" fill="#ab5754"/><path d="m60.78 45.15a18.44 18.44 0 0 1 -3.73 2.47l-.88.49s-.35 1.08-.86 2.4c-.13.33-.27.68-.42 1a1.17 1.17 0 0 1 0 .11.14.14 0 0 0 0 .06 11.28 11.28 0 0 1 -1.89 3.16c-1.46 1.44-2.74 4.43-4.61 6.67a7.43 7.43 0 0 0 -1.47 6.08c.24.93 1.73 1.55 2.3 1.89s.45 1.25.73 2.2l.11.32c.38.94-.06.53-.79.74l-.26.09c-.87.42-4.4.21-5.68-.42a2.12 2.12 0 0 1 -1.25-1.79 4.88 4.88 0 0 0 -.2-.66c-.37-.93-2-2.08-3.14-3.31a14.7 14.7 0 0 1 -2.1-4.3c-2.29 1.71-9.65 1.89-9.85 2.31s-1.06 2-.84 2.3 1.25.42 2.51.47a6.5 6.5 0 0 1 3.57 1.63c.17.35 1.14 1.68 1.71 2.59a6 6 0 0 1 .38.66c.29.67 0 .5-1 1s-11.57-.48-14.12-.45a5.35 5.35 0 0 1 -4.68-2.4 1.62 1.62 0 0 1 -.1-.18 5.07 5.07 0 0 1 -.45-1.85 11 11 0 0 1 -3.88-1.6 23.31 23.31 0 0 1 -6.59-6.83c-.31-.65 1-13.31 12.91-18s25.27-2.13 25.27-2.13a2.39 2.39 0 0 1 -.21-1.4c.19-1.77 1.46-4.21 1.47-5.52 0-1.71-4.23-3.8-6.08-4.61s-1.27-6.09-1.57-7.9-1.87-6-1.57-7 2.78-.45 4 .33 4.13 2.23 4.13 2.23a35.07 35.07 0 0 1 -.54-3.85c0-.73 1.37-.34 2-.43s3.36 1.19 4.89 3.28 2.58 10.6 2.82 11.93a3.42 3.42 0 0 0 .95 1.61c.21.22.42.42.61.59.37.32.65.52.65.52a22.07 22.07 0 0 1 3.39 2.49 5 5 0 0 1 1.85 3c.39 1.23 1.11 2.58 1.92 4.54a11.94 11.94 0 0 1 .73 2.45 4.53 4.53 0 0 1 -.14 3.02z" fill="#c96753"/><path d="m56.17 48.11s-.55 1.7-1.28 3.43c.3-.76 0-1 0-1.56s-1.72-.83-5.16-1.48-8-4.89-8-4.89-.86.61-8.08.07a27.18 27.18 0 0 0 -19.85 6.32c-2.43 2-5.12 8.21-5.87 10.48s2.07 6.17 2.07 6.17a.63.63 0 0 1 -.12.18 23.31 23.31 0 0 1 -6.58-6.83c-.31-.65 1-13.31 12.91-18s25.27-2.13 25.27-2.13a2.39 2.39 0 0 1 -.21-1.4c4.22 8.22 11.09 9.62 14.79 9.6z" fill="#ab5754"/><path d="m51.31 39.63a18 18 0 0 0 -2-1c-.7-.31-2-1.1-2-1.7a23 23 0 0 1 .69-2.68s2.43-.36 3.14 1.35a7.82 7.82 0 0 1 .17 4.03z" fill="#d8b69b"/><path d="m45.15 29.87c.11.81-.92.54-.92.54s-6.11-2.87-6.73-4.41a40.47 40.47 0 0 1 -1.5-5.51c0-.18-.07-.34-.09-.49s-.05-.31-.06-.43c-.12-1.18-1.58-5.75-1.3-5.65a28.25 28.25 0 0 1 3.18 1.19 12.37 12.37 0 0 1 3.95 2.57l.55.55c1.07 1.05 2.79 2.68 2.91 4.18.15 1.79-.14 6.66.01 7.46z" fill="#d8b69b"/><path d="m60.91 42.14a2.71 2.71 0 0 0 -.76-.31c-1.07-.17-1.28-2.54-2.33-3.82s-.83-3-1.66-4a9.14 9.14 0 0 0 -3.79-2.8 27.85 27.85 0 0 1 -4.8-2.36c.27-.3 2-.44 4.19-.36.21.22.42.42.61.59.37.32.65.52.65.52a22.07 22.07 0 0 1 3.39 2.49 5 5 0 0 1 1.85 3c.39 1.23 1.11 2.58 1.92 4.54a11.94 11.94 0 0 1 .73 2.51z" fill="#ed8e71" opacity=".29"/><path d="m41.48 40a4 4 0 0 1 .13-3 7.12 7.12 0 0 0 4.13 6.29 7.55 7.55 0 0 0 3.44.23 4.05 4.05 0 0 0 3.09 3.74l3.89.86c.9.19-10.91.88-14.68-8.12z" fill="#d8b69b"/><path d="m53.67 42.73c-1.42 1.47.4 4.31 2.91 4a5 5 0 0 0 2.42-1.73s1 .65 1.3.57a2.06 2.06 0 0 0 1.32-2c.06-1.5-.39-2-1.09-2-1.18.06-1.53 2-1.53 2s-3-3.27-5.33-.84z" fill="#d8b69b"/><path d="m56.84 42.53c-.19 0-.37.18-.26.33a3.21 3.21 0 0 0 2.42 1.29c.59 0 1.38-1 1.61-1.79 0-.18 0-.28-.2-.18a1.76 1.76 0 0 0 -.75.75c-.1.17-.31.56-.41.78a.19.19 0 0 1 -.18.11c-.06 0-.09 0-.14-.07a5.39 5.39 0 0 0 -2.09-1.22z" fill="#78563f"/><path d="m48.13 35.79s1.21-1 2.18-.17a2.31 2.31 0 0 1 .69 2.11s-1.73.47-2.37-.28-.73-1.16-.5-1.66z" fill="#231f20"/><path d="m45.15 29.87c.11.81-.92.54-.92.54s-6.11-2.87-6.73-4.41a40.47 40.47 0 0 1 -1.5-5.51 20.19 20.19 0 0 1 1.76 3.51 4.24 4.24 0 0 0 1.24 1.86c.66.31 4.09 3.53 4.79 3.18s.4-1.12.43-2.76.78-2.9.21-4a31.75 31.75 0 0 0 -1.68-3.17 8.9 8.9 0 0 1 -.5-.89c1.07 1.05 2.79 2.68 2.91 4.18.13 1.8-.16 6.67-.01 7.47z" fill="#d7997e"/><path d="m41.79 24c-.08-.38-1.23-1.15-2-2.31s-3.87-1.69-3.87-1.69c0-.17-.05-.31-.06-.43-.12-1.18-1.58-5.75-1.3-5.65a28.25 28.25 0 0 1 3.18 1.19 4.55 4.55 0 0 1 .6.87c.57 1.19 2.22 2.18 2.49 3.14s1 2.77 1.44 4-.4 1.24-.48.88z" fill="#e8cab0"/><path d="m52.37 29.11a39 39 0 0 0 -4.8-.23c-1.1-.4-1.16-3.17-1.5-7.64-.15-2-4.42-5.26-4.42-5.26a35.07 35.07 0 0 1 -.54-3.85c0-.73 1.37-.34 2-.43s3.36 1.21 4.89 3.3 2.58 10.6 2.82 11.93a4.57 4.57 0 0 0 1.55 2.18z" fill="#ab5754"/><path d="m49 72.83c-.87.42-4.4.21-5.68-.42a2.12 2.12 0 0 1 -1.25-1.79s1.77 1.69 3.26 1.69l.59-.39a1 1 0 0 0 1.09.49c.84 0 1.8-.29 1.79-.62 0 0 .48.38.83.21s.31-.32.31-.32l.11.32c.45 1-.14.41-1.05.83z" fill="#d8b69b"/><path d="m53.65 70.17c0 .28-.53 1-1.89.88a18.88 18.88 0 0 0 -1.92-.05l-.06-.34a23.23 23.23 0 0 0 2.8 0c.58-.11.84-.25.86-.44a.39.39 0 0 1 .13-.27.5.5 0 0 1 .08.22z" fill="#b58f7f"/><path d="m33.1 73.32c-1 .51-11.55-.49-14.07-.46a5.35 5.35 0 0 1 -4.68-2.4 1.62 1.62 0 0 1 -.1-.18 10.77 10.77 0 0 0 5.29 2c2.66 0 4.6-.35 6 .1a7.64 7.64 0 0 0 3.54.34c.45-.16.45-.66 1.67-.6s1.75.33 1.9.06a1.61 1.61 0 0 1 1.08-.56 6 6 0 0 1 .38.66c.32.72 0 .53-1.01 1.04z" fill="#d8b69b"/><path d="m26.81 64.66s-2.25-8.24-8.81-8.08c0 0 3.88-1.23 5.45-.1a9.35 9.35 0 0 1 4.4 7.92z" fill="#ed8e71" opacity=".29"/><path d="m55.31 50.51c-.13.33-.27.68-.42 1a1.17 1.17 0 0 1 0 .11.14.14 0 0 0 0 .06 11.28 11.28 0 0 1 -1.89 3.16c-1.46 1.44-2.74 4.43-4.61 6.67a7.43 7.43 0 0 0 -1.47 6.08c.24.93 1.73 1.55 2.3 1.89s.45 1.25.73 2.2l.11.32c.38.94-.06.53-.79.74l-.36-.12c0-.17-.19-2-.94-2.66s-2.09-.7-2.31-3.13 1.66-6.83 3.69-8.83a12.67 12.67 0 0 0 3.07-4 11.64 11.64 0 0 1 2.58-3.19 2.6 2.6 0 0 1 .31-.3z" fill="#ed8e71" opacity=".29"/><circle cx="49.23" cy="36.3" fill="#f1f2f2" r=".34"/></svg>