<svg height="75" viewBox="0 0 85 75" width="85" xmlns="http://www.w3.org/2000/svg"><path d="m19.44 64.25s-2.77-1.25-3.58-2.73c0 0-1.33-1.5-1.33-2.33s-.46-2.71-.46-3.73a4.46 4.46 0 0 1 .86-2.61c.28-.13 1.59-1 1.72-.35s1.35 1.5 1.35 1.5-.55 6.23 1.44 10.25z" fill="#cbc5b7"/><path d="m81.83 20.59c-.68 1.56-4 9-8 11.72-3.8 2.58-6.26 3-6 4a.64.64 0 0 0 .06.18 33.47 33.47 0 0 0 2.8 5.32 21.37 21.37 0 0 1 2.72 5.26 7.93 7.93 0 0 1 -.26 2.69 4.09 4.09 0 0 1 -2 2.67l-1.92 1-.48.23-.88.41a16.45 16.45 0 0 1 -1.58.57 6.09 6.09 0 0 1 -4.85-.34 14.38 14.38 0 0 1 -2-1.38c-2.46-2-4.42-4.79-4.66-7.06a28.39 28.39 0 0 0 -.84-3.74 5 5 0 0 1 .05-3.59s0 0 0 0l.11-.19a15.37 15.37 0 0 0 -1.68-5.78c-1.43-2.35-5-11.14-5-13.92s.09-5.75 1.27-6.38 2.48.59 6 3.58 7.48 10.83 7.71 16.51l.6 1.03a0 0 0 0 1 0 0c.14-.31 3.18-6.84 6.35-9.76 2.28-2.12 6.94-5.43 9-6.09s4.19-2.44 4.56-1.44-.39 2.91-1.08 4.5z" fill="#ebe2d1"/><path d="m69.49 66.58c-.79.46-5.27.43-6.22.39a5.69 5.69 0 0 1 -1.81-.39 4.35 4.35 0 0 1 -1 1.42c-.56.45-2.61.21-6.81-.08-3.49-.24-5.37-2.84-6.82-3.67a1.47 1.47 0 0 0 -.83-.25c-1.58.07-6.76-.32-6.76-.32s3 1 3.23 2.5-2.14 1.69-2.73 1.91-13.66 1.06-16.88-1-5.7-5.09-5.2-8.23c.16-1 .1-2.36.26-3.93.31-3.07 1.48-7.1 6.9-11.82 8.18-7.11 19.59-3.53 23.79-2.78a7.76 7.76 0 0 0 1.6.13h.35.39.22a6.69 6.69 0 0 0 .75-.22h.07a4.14 4.14 0 0 0 1.91-1.54s0 0 0 0a1.07 1.07 0 0 0 .11-.19l1 1 10.74 10.49 1.32 1.32.7.7.55.54.2.2.68.68a1.92 1.92 0 0 1 0 .2 6.65 6.65 0 0 1 -.42 1.66v.1a3.17 3.17 0 0 1 -.25.4c-1 1.34-3.62 3.49-3.77 4.28a12.91 12.91 0 0 0 .24 3.28l1-.17c4.09.4 4.28 2.92 3.49 3.39z" fill="#ebe2d1"/><path d="m81.83 20.59c-.68 1.56-4 9-8 11.72-3.8 2.58-6.26 3-6 4a6.71 6.71 0 0 0 -2-1.38c-1.32-.6-2.16-.71-2.5-.93s-.32-.64-.32-.64c.14-.31 3.18-6.84 6.35-9.76 2.28-2.12 6.94-5.43 9-6.09s4.19-2.44 4.56-1.44-.41 2.93-1.09 4.52z" fill="#d5c9be"/><path d="m61.48 44.73s.64-3.08-.66-4.51a4 4 0 0 0 -2.26-1.49s-1.65 3.77 2.92 6z" fill="#e5a097"/><path d="m58.7 33.79v.87s-.74-.44-2.77-2c-1.44-1.1-3.86-4.87-5.52-8.51a25.87 25.87 0 0 1 -1.56-4.22c-.84-3.39-.06-6.68 1.07-6.59.62 0 2.6 2.21 3 2.74.89 1.17 1.77 2.34 2.56 3.53a20.78 20.78 0 0 1 3.22 6.82 17.74 17.74 0 0 1 0 7.36z" fill="#d6706c"/><path d="m76 28a10.29 10.29 0 0 1 -1.11 1.07 33.14 33.14 0 0 1 -7.31 4.29 4.23 4.23 0 0 1 -.85.28.75.75 0 0 1 -.73-1.26 62.54 62.54 0 0 0 5.09-6.48 3.84 3.84 0 0 1 .36-.45c2-2.17 10.09-9 10.35-8.14s-4.23 8.96-5.8 10.69z" fill="#d6706c"/><path d="m68.13 51.49s-3.77-3.58-6.1-.6c-1.93 2.47 3.39 5.41 6.31 2.8 0 0 4.54.12 5.3-2.08s-3.21-4.26-5.51-.12z" fill="#d5c9be"/><path d="m69.2 53.67a4 4 0 0 1 -.46 1.78 2.33 2.33 0 0 1 -.26.38c-.31.37-1.61.67-3.32.69-2.87 0-6.9-.76-9.41-3.48-2.75-3-3.38-7.5-4.14-10.26-.35-1.27-.73-2.16-1.36-2.36h.35.39.22a3.45 3.45 0 0 0 .75-.22h.07a14 14 0 0 0 .34 2.73 16 16 0 0 0 5.07 8.76 10.76 10.76 0 0 0 1.93 1.31 10.67 10.67 0 0 0 4.05 1.28 12.55 12.55 0 0 0 4.81-.45l.27-.09c.35-.11.57-.2.65-.23v.23z" fill="#cbc5b7"/><path d="m60.48 43a2 2 0 0 0 .3-2.2 4 4 0 0 0 -1.89-1.66 4.5 4.5 0 0 0 -.19 2.42 2.14 2.14 0 0 0 1.78 1.44z" fill="#414042"/><path d="m60.3 41a.43.43 0 1 1 -.42-.42.42.42 0 0 1 .42.42z" fill="#fff"/><path d="m68.25 52.21s-1.26-.52-1.46-.56-1.06-.38-1-.47a1.09 1.09 0 0 1 1 0c.4.19 1.29.83 1.73.71a2.47 2.47 0 0 0 1.19-1c.24-.36.42-.72.48-.57a1.15 1.15 0 0 1 -.48.94 6.23 6.23 0 0 0 -1.15 1 6.09 6.09 0 0 1 -.22 1.28c-.09.06.08-.94-.09-1.33z" fill="#e5a097"/><path d="m76 28a10.29 10.29 0 0 1 -1.11 1.07c-.57 0-1-.44-1.88-.27-1.46.28-2.45 1.72-3 1.53s0-.87.71-1.76a7.72 7.72 0 0 0 .83-3.14c2-2.17 10.09-9 10.35-8.14s-4.33 8.98-5.9 10.71z" fill="#ea9286"/><path d="m57.05 30.35c-.29 1-1.06-.42-1.69-1.53s-.85.4-1.29 0-3.47-4.41-3.66-4.66a25.87 25.87 0 0 1 -1.56-4.22c-.84-3.39-.06-6.68 1.07-6.59.62 0 2.6 2.21 3 2.74.89 1.17 1.77 2.34 2.56 3.53 1.41 3.57 1.82 7 1.57 7.55s.27 2.19 0 3.18z" fill="#ea9286"/><g fill="#cbc5b7"><path d="m69.49 66.58c-.79.46-5.27.43-6.22.39a5.69 5.69 0 0 1 -1.81-.39 1.6 1.6 0 0 0 -.41-1.94c-1-.75-.33-2.58-.35-3s.48-1.51 2-2.52a8.47 8.47 0 0 0 2.39-2.53.46.46 0 0 0 0-.08s2.58-2.85 3.57-1a2.33 2.33 0 0 1 -.26.38c-1 1.34-3.62 3.49-3.77 4.28a12.91 12.91 0 0 0 .37 3.19l1-.17c4.09.4 4.28 2.92 3.49 3.39z"/><path d="m33.46 51.49c-.78-.05-1.26 0-1.26 0a2.83 2.83 0 0 1 1.26 0z"/><path d="m47 63.94-.17.31a1.47 1.47 0 0 0 -.83-.25c-1.58.07-6.76-.32-6.76-.32s-11.42-.59-14.15-.31a48.15 48.15 0 0 1 11.65-2c4.93-.06.74-8.86-3.31-9.85 3.36.21 12.24 1.86 13.57 12.42z"/></g><path d="m55.06 39.3a24.76 24.76 0 0 1 -1 2.43 2.1 2.1 0 0 1 -.24.42 1.82 1.82 0 0 1 -1.52.68 6.92 6.92 0 0 1 -.78 0c-2.19-.17-6.12-1.23-13.41-2.22-12-1.61-20.11 14.85-20.11 14.85v-.53c.31-3.07 1.48-7.1 6.9-11.82 8.1-7.11 19.51-3.53 23.71-2.78a7.76 7.76 0 0 0 1.6.13h.35.39.22a6.69 6.69 0 0 0 .75-.22h.07a4.14 4.14 0 0 0 1.91-1.54s0 0 0 0l.11-.19a15.37 15.37 0 0 0 -1.68-5.78c-1.43-2.35-5-11.14-5-13.92s.09-5.75 1.27-6.38c-3.07 6.92 4.9 19.87 6.45 21.45 1.11.91.71 3.29.01 5.42z" fill="#fff" opacity=".62"/><path d="m45.9 57.64a53.68 53.68 0 0 1 -1.82 10.22c-.28 1-2.37 1.76-3.2 2.35a8.09 8.09 0 0 1 -1.21.68 8.23 8.23 0 0 1 -2.49.67c-.18 0-.43 0-.74.07-2 .21-6.36.81-10.06 1-4.27.16-5.26.06-5.6-.53s.57-1.15.57-1.15l-4.35.16c.25 1.15-.8 2.24-2.65 2.77s-3.95-1-3.95-1a9 9 0 0 1 -2 .07 1.37 1.37 0 0 1 -1-.39c-.51-.71-.8-2.08.06-2.69 1.43-1 1.45-4.32 1.25-6a93.69 93.69 0 0 0 -3.53-14.3 14.12 14.12 0 0 1 .58-10.97l-.07-.08a3.07 3.07 0 0 1 -.25-.26l-.31-.38a5.89 5.89 0 0 1 -.94-5.09 10 10 0 0 1 .51-1.57 11.28 11.28 0 0 1 1.3-2.31 13.55 13.55 0 0 1 2.63-8.65s.45-7.6 4.82-11.83 6.11-3.73 6-3.24-2.1 6.6-2.1 6.6c.36-.35 6.17-6 7.7-7.83s2.47-1.14 2.7-.49.22 7.1-1.63 12.21-5.94 6-5.94 6a7.49 7.49 0 0 1 2.91 2.67 9.24 9.24 0 0 1 .81 6.18 5.73 5.73 0 0 1 -.39 1.2s2.49 3.2 8.25 5c16.96 5.33 14.24 17.6 14.14 20.91z" fill="#e4c8bc"/><path d="m26 11-.15.71c-.87 3.65-2.08 6-3.89 7a27.32 27.32 0 0 1 -5.51 1.58s-.5-.42.62-3.87a16.56 16.56 0 0 1 1.56-3.31 29.3 29.3 0 0 1 1.69-2.48c.1-.14.21-.27.31-.4a64.06 64.06 0 0 1 5-5.48.49.49 0 0 1 .85.34 26 26 0 0 1 -.48 5.91z" fill="#e37d7b"/><path d="m5.13 40.07a7.23 7.23 0 0 0 8 3.8c8.87-1.87 11.39-11.58 11.39-11.58l-1-.56s-2 7.53-9.55 8.82c-3.19.55-7.67-3.41-7.67-3.41z" fill="#d5bbb1"/><path d="m10.43 62.59c-.45 2.75.1 5.6-1.4 7.39a2.41 2.41 0 0 0 -.62 3 1.37 1.37 0 0 1 -1-.39c-.51-.71-.8-2.08.06-2.69 1.43-1 1.45-4.32 1.25-6a93.69 93.69 0 0 0 -3.53-14.3 14.12 14.12 0 0 1 .57-11l-.07-.08a3.07 3.07 0 0 1 -.25-.26l-.31-.38c.76 0 1.45.14 1.6.46 0 0-1.41 9 2.3 15.63-.03.03 1.84 5.87 1.4 8.62z" fill="#fff" opacity=".37"/><path d="m12.48 28.09a1.54 1.54 0 0 0 .54-1c0-.59.58-2.76 2.06-2.66s2.59 1.26 3 1.26-.9 5.31-5.6 2.4z" fill="#fee9dc"/><path d="m11.57 39.42a4.1 4.1 0 0 1 -4-2 1.83 1.83 0 0 1 -1.23.23 2.84 2.84 0 0 1 -.66-.07c-2.52-.57-3.06-4.93-.87-5.88l.24-.1a3.27 3.27 0 0 1 2.14-.1 2.85 2.85 0 0 1 1.3.85 5.2 5.2 0 0 1 6.54 2.92c.72 1.63-.47 4.05-3.46 4.15z" fill="#fee9dc"/><path d="m13.62 27.69s0-2.12 1.21-2.48 2.15.46 2.46.49a2.48 2.48 0 0 1 -3.67 1.99z" fill="#414042"/><path d="m15.8 26.27a.49.49 0 1 1 -.49-.49.49.49 0 0 1 .49.49z" fill="#fee9dc"/><path d="m19.41 5.19c-.13.48-2.1 6.6-2.1 6.6s-1.78 1.6-3.94 7.6a9.87 9.87 0 0 0 -4.76.87s.45-7.6 4.82-11.83 6.11-3.73 5.98-3.24z" fill="#d5bbb1"/><path d="m26 11a41.72 41.72 0 0 1 -2.83 4.32c-1.2 1.61-4.21 2.07-4.64 1.26s0-2.81.1-3.45v-.17a27.42 27.42 0 0 1 1.66-2.31c.1-.14.21-.27.31-.4a64.06 64.06 0 0 1 5-5.48.49.49 0 0 1 .85.34 26 26 0 0 1 -.45 5.89z" fill="#e59993"/><path d="m21.39 70.84 1.43-1.9s0 0 0 0a10.09 10.09 0 0 1 3.84-1 .17.17 0 0 0 0-.33 15.18 15.18 0 0 0 -4.2 0c-2.26.46-3.91 2-5.47 1.93a.17.17 0 0 0 -.17.18l.18 1.28a.15.15 0 0 0 .17.15l4.11-.19a.15.15 0 0 0 .11-.12z" fill="#a47178" opacity=".47"/><path d="m35.26 52.92s-7.87-1.9-11 5.15a6.43 6.43 0 0 0 4.15 8.77s-6.36-10.17 6.85-13.92z" fill="#fff" opacity=".37"/><path d="m10.4 72.9a3.39 3.39 0 0 1 .84-2.47c1-1 2-7 2-8.73s-.81-3.69-1-5a25.64 25.64 0 0 0 -.07 4.43c.23 1.38-.71 7.56-1.67 8.72a4.24 4.24 0 0 0 -.91 3.15z" fill="#a47178" opacity=".47"/><path d="m7.89 34.75s.28.46.94-.11a9.64 9.64 0 0 1 1.82-1.14c.38-.24-.06-1.07-.6-.67s-1 1.59-1.73 1.36a1.5 1.5 0 0 1 -.82-1.19c-.08-.55-.66-.85-.83-.52s.06.73.42 1.16a7.92 7.92 0 0 0 .8 1.11z" fill="#cc98a5"/><path d="m19.41 5.19c-4.67 1.18-7.91 9.16-8.41 11.44s1.24 2.74 1.24 2.74a22.53 22.53 0 0 0 -1.36 4.63c0 1.08-1.66 1.36-2.9 4.36-.39.94-.52 2.61-.69 2.74l-.07.06c-4.28 3.24-1 7.22-1 7.22l-.52.19a3.07 3.07 0 0 1 -.25-.26c-3-.67-3.6-5.8-1-6.92l.29-.12a11.28 11.28 0 0 1 1.26-2.36 13.55 13.55 0 0 1 2.63-8.65s.45-7.6 4.82-11.83 6.09-3.73 5.96-3.24z" fill="#fff" opacity=".37"/><path d="m50.62 63c-1 2.24-4.31 4.67-5.67 6.38a3.75 3.75 0 0 1 -1.54 1.07 6.84 6.84 0 0 1 -2 .11h-.17a13.7 13.7 0 0 0 -1.42 0c0-.11 1.65-.51 1.47-1.07s2.94-3.47 3.23-4.35a19.88 19.88 0 0 0 .48-6.28 3.64 3.64 0 0 1 2.59-2.2c.45-.16.77-.24.77-.24s3.24 4.35 2.26 6.58z" fill="#fee9dc"/><path d="m17 71.11s-.36-5.65.65-8.24 2.52-7 2.81-7.39-.29-2.55 0-2.56a2.31 2.31 0 0 1 1.21 3.48c-1.28 2.21-4.66 10-4 14.71z" fill="#a47178" opacity=".47"/><path d="m46.58 62.32c0 2.18-.17 2.09-1 3.2a36.57 36.57 0 0 0 -2.27 4 2.17 2.17 0 0 1 -1.89 1.06h-.17a13.7 13.7 0 0 0 -1.42 0c0-.11 1.65-.51 1.47-1.07s2.94-3.47 3.23-4.35a19.88 19.88 0 0 0 .47-6.3 3.64 3.64 0 0 1 2.59-2.2c.45-.16.77-.24.77-.24-1.88 4.45-1.78 3.72-1.78 5.9z" fill="#d5bbb1"/></svg>