<svg xmlns="http://www.w3.org/2000/svg" width="85" height="75" viewBox="0 0 85 75"><title>Artboard 3</title><g style="isolation:isolate"><path d="M19.44,64.25S16.67,63,15.86,61.52c0,0-1.33-1.5-1.33-2.33s-.46-2.71-.46-3.73a4.46,4.46,0,0,1,.86-2.61c.28-.13,1.59-1,1.72-.35S18,54,18,54,17.45,60.23,19.44,64.25Z" fill="#cbc5b7"/><path d="M81.83,20.59c-.68,1.56-4,9-8,11.72-3.8,2.58-6.26,3-6,4a.64.64,0,0,0,.06.18,33.47,33.47,0,0,0,2.8,5.32,21.37,21.37,0,0,1,2.72,5.26,7.93,7.93,0,0,1-.26,2.69,4.09,4.09,0,0,1-2,2.67l-1.92,1h0l-.48.23-.88.41a16.45,16.45,0,0,1-1.58.57,6.09,6.09,0,0,1-4.85-.34,14.38,14.38,0,0,1-2-1.38h0c-2.46-2-4.42-4.79-4.66-7.06a28.39,28.39,0,0,0-.84-3.74,5,5,0,0,1,.05-3.59h0s0,0,0,0l.11-.19,0,0a15.37,15.37,0,0,0-1.68-5.78c-1.43-2.35-5-11.14-5-13.92s.09-5.75,1.27-6.38,2.48.59,6,3.58,7.48,10.83,7.71,16.51L63,33.38a0,0,0,0,1,0,0c.14-.31,3.18-6.84,6.35-9.76,2.28-2.12,6.94-5.43,9-6.09s4.19-2.44,4.56-1.44S82.52,19,81.83,20.59Z" fill="#ebe2d1"/><path d="M69.49,66.58c-.79.46-5.27.43-6.22.39a5.69,5.69,0,0,1-1.81-.39,4.35,4.35,0,0,1-1,1.42c-.56.45-2.61.21-6.81-.08-3.49-.24-5.37-2.84-6.82-3.67A1.47,1.47,0,0,0,46,64c-1.58.07-6.76-.32-6.76-.32s3,1,3.23,2.5-2.14,1.69-2.73,1.91-13.66,1.06-16.88-1S17.16,62,17.66,58.86c.16-1,.1-2.36.26-3.93.31-3.07,1.48-7.1,6.9-11.82C33,36,44.41,39.58,48.61,40.33a7.76,7.76,0,0,0,1.6.13h.35l.39,0,.22,0h0a6.69,6.69,0,0,0,.75-.22l.07,0a4.14,4.14,0,0,0,1.91-1.54h0s0,0,0,0a1.07,1.07,0,0,0,.11-.19l0,0,1,1L65.75,50l1.32,1.32h0l.7.7h0l.55.54.2.2.68.68v0a1.92,1.92,0,0,1,0,.2,6.65,6.65,0,0,1-.42,1.66l0,.1a3.17,3.17,0,0,1-.25.4l0,0c-1,1.34-3.62,3.49-3.77,4.28A12.91,12.91,0,0,0,65,63.36l1-.17C70.09,63.59,70.28,66.11,69.49,66.58Z" fill="#ebe2d1"/><path d="M81.83,20.59c-.68,1.56-4,9-8,11.72-3.8,2.58-6.26,3-6,4a6.71,6.71,0,0,0-2-1.38c-1.32-.6-2.16-.71-2.5-.93s-.32-.64-.32-.64h0c.14-.31,3.18-6.84,6.35-9.76,2.28-2.12,6.94-5.43,9-6.09s4.19-2.44,4.56-1.44S82.51,19,81.83,20.59Z" fill="#d5c9be"/><path d="M61.48,44.73s.64-3.08-.66-4.51a4,4,0,0,0-2.26-1.49S56.91,42.5,61.48,44.73Z" fill="#e5a097"/><path d="M58.7,33.79v.87s-.74-.44-2.77-2c-1.44-1.1-3.86-4.87-5.52-8.51h0a25.87,25.87,0,0,1-1.56-4.22c-.84-3.39-.06-6.68,1.07-6.59.62,0,2.6,2.21,3,2.74.89,1.17,1.77,2.34,2.56,3.53a20.78,20.78,0,0,1,3.22,6.82A17.74,17.74,0,0,1,58.7,33.79Z" fill="#d6706c"/><path d="M76,28a10.29,10.29,0,0,1-1.11,1.07,33.14,33.14,0,0,1-7.31,4.29,4.23,4.23,0,0,1-.85.28A.75.75,0,0,1,66,32.38a62.54,62.54,0,0,0,5.09-6.48,3.84,3.84,0,0,1,.36-.45h0c2-2.17,10.09-9,10.35-8.14S77.57,26.27,76,28Z" fill="#d6706c"/><path d="M68.13,51.49s-3.77-3.58-6.1-.6c-1.93,2.47,3.39,5.41,6.31,2.8,0,0,4.54.12,5.3-2.08S70.43,47.35,68.13,51.49Z" fill="#d5c9be"/><path d="M69.2,53.67a4,4,0,0,1-.46,1.78,2.33,2.33,0,0,1-.26.38l0,0c-.31.37-1.61.67-3.32.69-2.87,0-6.9-.76-9.41-3.48-2.75-3-3.38-7.5-4.14-10.26-.35-1.27-.73-2.16-1.36-2.36h.35l.39,0,.22,0h0a3.45,3.45,0,0,0,.75-.22l.07,0a14,14,0,0,0,.34,2.73,16,16,0,0,0,5.07,8.76A10.76,10.76,0,0,0,59.37,53h0a10.67,10.67,0,0,0,4.05,1.28h0a12.55,12.55,0,0,0,4.81-.45h0l.27-.09h0c.35-.11.57-.2.65-.23h0v.23Z" fill="#cbc5b7"/><path d="M60.48,43a2,2,0,0,0,.3-2.2,4,4,0,0,0-1.89-1.66,4.5,4.5,0,0,0-.19,2.42A2.14,2.14,0,0,0,60.48,43Z" fill="#414042"/><path d="M60.3,41a.43.43,0,1,1-.42-.42A.42.42,0,0,1,60.3,41Z" fill="#fff"/><path d="M68.25,52.21s-1.26-.52-1.46-.56-1.06-.38-1-.47a1.09,1.09,0,0,1,1,0c.4.19,1.29.83,1.73.71a2.47,2.47,0,0,0,1.19-1c.24-.36.42-.72.48-.57a1.15,1.15,0,0,1-.48.94,6.23,6.23,0,0,0-1.15,1,6.09,6.09,0,0,1-.22,1.28C68.25,53.6,68.42,52.6,68.25,52.21Z" fill="#e5a097"/><path d="M76,28a10.29,10.29,0,0,1-1.11,1.07c-.57,0-1-.44-1.88-.27-1.46.28-2.45,1.72-3,1.53s0-.87.71-1.76a7.72,7.72,0,0,0,.83-3.14h0c2-2.17,10.09-9,10.35-8.14S77.57,26.27,76,28Z" fill="#ea9286"/><path d="M57.05,30.35c-.29,1-1.06-.42-1.69-1.53s-.85.4-1.29,0-3.47-4.41-3.66-4.66h0a25.87,25.87,0,0,1-1.56-4.22c-.84-3.39-.06-6.68,1.07-6.59.62,0,2.6,2.21,3,2.74.89,1.17,1.77,2.34,2.56,3.53,1.41,3.57,1.82,7,1.57,7.55S57.32,29.36,57.05,30.35Z" fill="#ea9286"/><path d="M69.49,66.58c-.79.46-5.27.43-6.22.39a5.69,5.69,0,0,1-1.81-.39,1.6,1.6,0,0,0-.41-1.94c-1-.75-.33-2.58-.35-3s.48-1.51,2-2.52a8.47,8.47,0,0,0,2.39-2.53.46.46,0,0,0,0-.08s2.58-2.85,3.57-1c0,0,0,0,0,0a2.33,2.33,0,0,1-.26.38l0,0c-1,1.34-3.62,3.49-3.77,4.28A12.91,12.91,0,0,0,65,63.36l1-.17C70.09,63.59,70.28,66.11,69.49,66.58Z" fill="#cbc5b7"/><path d="M33.46,51.49c-.78-.05-1.26,0-1.26,0A2.83,2.83,0,0,1,33.46,51.49Z" fill="#cbc5b7"/><path d="M47,63.94l-.17.31A1.47,1.47,0,0,0,46,64c-1.58.07-6.76-.32-6.76-.32s-11.42-.59-14.15-.31a48.15,48.15,0,0,1,11.65-2c4.93-.06.74-8.86-3.31-9.85C36.79,51.73,45.67,53.38,47,63.94Z" fill="#cbc5b7"/><path d="M55.06,39.3a24.76,24.76,0,0,1-1,2.43,2.1,2.1,0,0,1-.24.42,1.82,1.82,0,0,1-1.52.68,6.92,6.92,0,0,1-.78,0c-2.19-.17-6.12-1.23-13.41-2.22C26.11,39,18,55.46,18,55.46l0-.53c.31-3.07,1.48-7.1,6.9-11.82C33,36,44.41,39.58,48.61,40.33a7.76,7.76,0,0,0,1.6.13h.35l.39,0,.22,0h0a6.69,6.69,0,0,0,.75-.22l.07,0a4.14,4.14,0,0,0,1.91-1.54h0s0,0,0,0l.11-.19,0,0a15.37,15.37,0,0,0-1.68-5.78c-1.43-2.35-5-11.14-5-13.92s.09-5.75,1.27-6.38c-3.07,6.92,4.9,19.87,6.45,21.45C56.16,34.79,55.76,37.17,55.06,39.3Z" fill="#fff" opacity="0.62" style="mix-blend-mode:soft-light"/><path d="M45.9,57.64a53.68,53.68,0,0,1-1.82,10.22c-.28,1-2.37,1.76-3.2,2.35a8.09,8.09,0,0,1-1.21.68,8.23,8.23,0,0,1-2.49.67c-.18,0-.43,0-.74.07-2,.21-6.36.81-10.06,1-4.27.16-5.26.06-5.6-.53s.57-1.15.57-1.15L17,71.11c.25,1.15-.8,2.24-2.65,2.77s-3.95-1-3.95-1a9,9,0,0,1-2,.07,1.37,1.37,0,0,1-1-.39c-.51-.71-.8-2.08.06-2.69,1.43-1,1.45-4.32,1.25-6a93.69,93.69,0,0,0-3.53-14.3A14.12,14.12,0,0,1,5.76,38.6l-.07-.08a3.07,3.07,0,0,1-.25-.26l-.31-.38a5.89,5.89,0,0,1-.94-5.09,10,10,0,0,1,.51-1.57A11.28,11.28,0,0,1,6,28.91a13.55,13.55,0,0,1,2.63-8.65s.45-7.6,4.82-11.83,6.11-3.73,6-3.24-2.1,6.6-2.1,6.6l0,0c.36-.35,6.17-6,7.7-7.83s2.47-1.14,2.7-.49.22,7.1-1.63,12.21-5.94,6-5.94,6a7.49,7.49,0,0,1,2.91,2.67,9.24,9.24,0,0,1,.81,6.18h0a5.73,5.73,0,0,1-.39,1.2h0s2.49,3.2,8.25,5C48.72,42.06,46,54.33,45.9,57.64Z" fill="#e4c8bc"/><path d="M26,11l-.15.71c-.87,3.65-2.08,6-3.89,7a27.32,27.32,0,0,1-5.51,1.58s-.5-.42.62-3.87a16.56,16.56,0,0,1,1.56-3.31,29.3,29.3,0,0,1,1.69-2.48c.1-.14.21-.27.31-.4a64.06,64.06,0,0,1,5-5.48.49.49,0,0,1,.85.34A26,26,0,0,1,26,11Z" fill="#e37d7b"/><path d="M5.13,40.07a7.23,7.23,0,0,0,8,3.8C22,42,24.52,32.29,24.52,32.29l-1-.56s-2,7.53-9.55,8.82c-3.19.55-7.67-3.41-7.67-3.41Z" fill="#d5bbb1"/><path d="M10.43,62.59c-.45,2.75.1,5.6-1.4,7.39a2.41,2.41,0,0,0-.62,3,1.37,1.37,0,0,1-1-.39c-.51-.71-.8-2.08.06-2.69,1.43-1,1.45-4.32,1.25-6a93.69,93.69,0,0,0-3.53-14.3A14.12,14.12,0,0,1,5.76,38.6l-.07-.08a3.07,3.07,0,0,1-.25-.26l-.31-.38c.76,0,1.45.14,1.6.46,0,0-1.41,9,2.3,15.63C9,54,10.87,59.84,10.43,62.59Z" fill="#fff" opacity="0.37" style="mix-blend-mode:soft-light"/><path d="M12.48,28.09a1.54,1.54,0,0,0,.54-1c0-.59.58-2.76,2.06-2.66s2.59,1.26,3,1.26S17.18,31,12.48,28.09Z" fill="#fee9dc"/><path d="M11.57,39.42a4.1,4.1,0,0,1-4-2,1.83,1.83,0,0,1-1.23.23,2.84,2.84,0,0,1-.66-.07c-2.52-.57-3.06-4.93-.87-5.88l.24-.1a3.27,3.27,0,0,1,2.14-.1,2.85,2.85,0,0,1,1.3.85,5.2,5.2,0,0,1,6.54,2.92C15.75,36.9,14.56,39.32,11.57,39.42Z" fill="#fee9dc"/><path d="M13.62,27.69s0-2.12,1.21-2.48,2.15.46,2.46.49A2.48,2.48,0,0,1,13.62,27.69Z" fill="#414042"/><path d="M15.8,26.27a.49.49,0,1,1-.49-.49A.49.49,0,0,1,15.8,26.27Z" fill="#fee9dc"/><path d="M19.41,5.19c-.13.48-2.1,6.6-2.1,6.6s-1.78,1.6-3.94,7.6a9.87,9.87,0,0,0-4.76.87s.45-7.6,4.82-11.83S19.54,4.7,19.41,5.19Z" fill="#d5bbb1"/><path d="M26,11a41.72,41.72,0,0,1-2.83,4.32c-1.2,1.61-4.21,2.07-4.64,1.26s0-2.81.1-3.45l0-.17a27.42,27.42,0,0,1,1.66-2.31c.1-.14.21-.27.31-.4a64.06,64.06,0,0,1,5-5.48.49.49,0,0,1,.85.34A26,26,0,0,1,26,11Z" fill="#e59993"/><path d="M21.39,70.84l1.43-1.9s0,0,0,0a10.09,10.09,0,0,1,3.84-1,.17.17,0,0,0,0-.33,15.18,15.18,0,0,0-4.2,0c-2.26.46-3.91,2-5.47,1.93a.17.17,0,0,0-.17.18L17,71a.15.15,0,0,0,.17.15l4.11-.19A.15.15,0,0,0,21.39,70.84Z" fill="#a47178" opacity="0.47"/><path d="M35.26,52.92s-7.87-1.9-11,5.15a6.43,6.43,0,0,0,4.15,8.77S22.05,56.67,35.26,52.92Z" fill="#fff" opacity="0.37" style="mix-blend-mode:soft-light"/><path d="M10.4,72.9a3.39,3.39,0,0,1,.84-2.47c1-1,2-7,2-8.73s-.81-3.69-1-5a25.64,25.64,0,0,0-.07,4.43c.23,1.38-.71,7.56-1.67,8.72A4.24,4.24,0,0,0,9.59,73Z" fill="#a47178" opacity="0.47"/><path d="M7.89,34.75s.28.46.94-.11a9.64,9.64,0,0,1,1.82-1.14c.38-.24-.06-1.07-.6-.67s-1,1.59-1.73,1.36A1.5,1.5,0,0,1,7.5,33c-.08-.55-.66-.85-.83-.52s.06.73.42,1.16A7.92,7.92,0,0,0,7.89,34.75Z" fill="#cc98a5"/><path d="M19.41,5.19C14.74,6.37,11.5,14.35,11,16.63s1.24,2.74,1.24,2.74A22.53,22.53,0,0,0,10.88,24c0,1.08-1.66,1.36-2.9,4.36-.39.94-.52,2.61-.69,2.74l-.07.06c-4.28,3.24-1,7.22-1,7.22l-.52.19a3.07,3.07,0,0,1-.25-.26c-3-.67-3.6-5.8-1-6.92l.29-.12A11.28,11.28,0,0,1,6,28.91a13.55,13.55,0,0,1,2.63-8.65s.45-7.6,4.82-11.83S19.54,4.7,19.41,5.19Z" fill="#fff" opacity="0.37" style="mix-blend-mode:soft-light"/><path d="M50.62,63c-1,2.24-4.31,4.67-5.67,6.38a3.75,3.75,0,0,1-1.54,1.07,6.84,6.84,0,0,1-2,.11h-.17a13.7,13.7,0,0,0-1.42,0c0-.11,1.65-.51,1.47-1.07s2.94-3.47,3.23-4.35A19.88,19.88,0,0,0,45,58.86a3.64,3.64,0,0,1,2.59-2.2c.45-.16.77-.24.77-.24S51.6,60.77,50.62,63Z" fill="#fee9dc"/><path d="M17,71.11s-.36-5.65.65-8.24,2.52-7,2.81-7.39-.29-2.55,0-2.56a2.31,2.31,0,0,1,1.21,3.48c-1.28,2.21-4.66,10-4,14.71Z" fill="#a47178" opacity="0.47"/><path d="M46.58,62.32c0,2.18-.17,2.09-1,3.2a36.57,36.57,0,0,0-2.27,4,2.17,2.17,0,0,1-1.89,1.06h-.17a13.7,13.7,0,0,0-1.42,0c0-.11,1.65-.51,1.47-1.07s2.94-3.47,3.23-4.35A19.88,19.88,0,0,0,45,58.86a3.64,3.64,0,0,1,2.59-2.2c.45-.16.77-.24.77-.24C46.48,60.87,46.58,60.14,46.58,62.32Z" fill="#d5bbb1"/></g></svg>