<svg height="75" viewBox="0 0 85 75" width="85" xmlns="http://www.w3.org/2000/svg"><path d="m81.42 63.55c-.79 1.88-3.12 2.29-5.1 2.68-.57.11-1.1.22-1.57.36-2.09.62-20 .82-20 .82l-.91.12c-.39.82-2 1.84-4.41 1.84s-2.33-1.17-2.33-1.17a4.57 4.57 0 0 1 -2.67 0c-1.31-.46-.31-1.93.31-3s0-4-.62-6.14-1-2.14-5.46-8.55c-3.69-5.28-3.32-8.75-2.43-10.83.07-.17.14-.32.21-.47.13-.25.26-.48.39-.68a7.53 7.53 0 0 0 1.17-4.25 6.49 6.49 0 0 1 -3.12-2.4c-.94-2.85 1.65-5.28 1.65-5.28a20.17 20.17 0 0 0 2.6-3.75c.84-1.65 4.39-3.27 5.54-3.75l.33-.1a26.94 26.94 0 0 0 .71-13.62 1.14 1.14 0 0 1 .9-.44c2.71.95 4.59 8.73 4.71 9.22 2.31-3.91 6.86-4.53 8.21-5a1.3 1.3 0 0 1 1.31 0 5.59 5.59 0 0 1 1.36 2.6c.85 2.43-1.81 7.16-3.72 9.3s-4.24 4-4.09 4.44c1.2 3.57-1.64 7.16-1.64 7.16a1.15 1.15 0 0 0 .17.33c1.32 1.81 7.69 2.2 15.95 6.22 8.74 4.23 11.13 14.67 11.13 14.67a.08.08 0 0 1 0 0 2.22 2.22 0 0 1 2.79-.47c.36.26-.35 7.73-1.37 10.14z" fill="#4b4c65"/><path d="m39.17 28.8s2-1.55 3.62-1c2 .64 2.68 2.14 2.26 3.5s-3.22 3.15-5.19.85l-.86-1.15a2.65 2.65 0 0 1 -3.38.9c-1.79-.9-1.71-4.77 1.38-4.83 0 0 2 .05 2.17 1.73z" fill="#8f93b6"/><path d="m44.58 27.07s.35-2.83 2.21-2.95 2.32.85 2.32.85-.37 4.11-4.53 2.1z" fill="#8f93b6"/><path d="m45.46 26.74s0-2 1.84-2.06a2.37 2.37 0 0 1 1.2.41s-.16 2.96-3.04 1.65z" fill="#231f20"/><path d="m61 13.22a9.79 9.79 0 0 1 -1.66 4.78 8.71 8.71 0 0 1 -2.08 2.23 24.9 24.9 0 0 1 -6.26 2.69v-1.13s-.49-4.75 1.3-7.38a4.24 4.24 0 0 1 .54-.65 13.33 13.33 0 0 1 1.75-1.45c2.1-1.49 4.33-2.27 4.92-2.09a1.59 1.59 0 0 1 1.49 1.63 8.49 8.49 0 0 1 0 1.37z" fill="#8f93b6"/><path d="m47.74 25.59a.37.37 0 0 1 -.37.37.38.38 0 0 1 0-.75.37.37 0 0 1 .37.38z" fill="#fff"/><path d="m59.63 17.55-.29.43a8.71 8.71 0 0 1 -2.08 2.23 24.9 24.9 0 0 1 -6.26 2.71v-1.13s-.49-4.75 1.3-7.38c-.07.35-.15 1-.25 1.76-.22 1.84 0 4 .37 4.5s4.07-.59 5-1.33 1.35-1.24 2.21-1.79z" fill="#6f708c"/><path d="m61 11.85a20.45 20.45 0 0 1 -1.72 3.66c-1.28 2.1-5.08 4-5.75 3.45s1-6.38 1.11-6.66c2.1-1.49 4.33-2.27 4.92-2.09a1.59 1.59 0 0 1 1.44 1.64z" fill="#b1a9bf"/><path d="m48.65 65.28a4.37 4.37 0 0 0 -1.56 2.92 4.57 4.57 0 0 1 -2.67 0c-1.31-.46-.31-1.93.31-3s0-4-.62-6.14-1-2.14-5.46-8.55c-4-5.7-3.24-9.28-2.22-11.3-.35 3.18-.3 5 2.22 9.33 3 5 9.64 12.07 10 13.75a6.58 6.58 0 0 1 0 2.99z" fill="#42435a"/><path d="m81.51 63.57c-.79 1.87-3.05 2.39-5.19 2.66a14.35 14.35 0 0 0 3.07-2.43 5.1 5.1 0 0 1 -.09-1.19c0-.56 1.71-2.51 1.89-4.06 0 0-.72.12-.58-.59s.16-4.11 2.18-4.6c.63.45-.26 7.79-1.28 10.21z" fill="#8f93b6"/><g fill="#42435a"><path d="m57.13 67.21s-.32-3.69 2.61-4.06 1.23-1 1.23-1c-3.31-2-4.15-6.47-.82-8.34a12.23 12.23 0 0 1 5-1.62.42.42 0 0 0 .06-.82c-1.66-.42-4.27-.36-6.92 2.48s-3 5.32-3.15 8.92a7.69 7.69 0 0 1 -1.3 4.8z"/><path d="m53.07 33.22c-2.11 1.64-9.49 2.6-11.29 3a6.9 6.9 0 0 0 -4 2 8.47 8.47 0 0 0 -1.5 3 6 6 0 0 1 -.06-1.49c.07-.17.14-.32.21-.47.13-.25.26-.48.39-.68a7.53 7.53 0 0 0 1.18-4.3c7.41 1.8 14.78-1.64 14.78-1.64l.17.33z"/><path d="m39.13 30.23a.15.15 0 0 1 -.28 0 3.67 3.67 0 0 0 -1.06-1.84c-.21-.2.2-.48.35-.29.83 1.11.91.95.91.95a4.53 4.53 0 0 0 1.63-.5c.31-.14.32.63 0 .64a1.68 1.68 0 0 0 -1.55 1.04z"/></g><path d="m80 53.84-.3.53-1.2-2.89c-6.96-14.17-18.07-14.48-22.5-16.22s-4-2.26-4-2.26l.73-.31a1.15 1.15 0 0 0 .17.33c1.32 1.81 7.69 2.2 15.95 6.22 8.76 4.2 11.15 14.64 11.15 14.64a.08.08 0 0 1 0-.04z" fill="#fff" opacity=".22"/><path d="m51.32 14.14a44.27 44.27 0 0 0 -2.92 6.53 4.58 4.58 0 0 0 -3.75-1.57l.35-.1a26.94 26.94 0 0 0 .71-13.62 1.14 1.14 0 0 1 .9-.44c2.71.95 4.59 8.73 4.71 9.22z" fill="#42435a"/><path d="m58.49 21c-1.91 2.14-4.24 4-4.09 4.44 1.2 3.57-1.64 7.16-1.64 7.16l-.76.4s2.92-4.93 1-7.17a1.44 1.44 0 0 1 .6-1.67c1-.62 5.29-3.2 7.3-7.56 2.09-4.52-.13-7.42-.13-7.42a5.59 5.59 0 0 1 1.36 2.6c.93 2.39-1.73 7.12-3.64 9.22z" fill="#fff" opacity=".22"/><path d="m79.69 54.37s-2.5 9.11-5.37 11.19c0 0 4.17-.46 5.37-11.19z" fill="#42435a"/><path d="m72.33 64c-.55 2.54-1.33 2-3.33 4.52-1.28 1.66-4.73 2.45-7.63 2.59-.66 0-1.31 0-1.89 0a9.25 9.25 0 0 0 -1.13 0c-4.4.38-15.48 2.64-16.55 1.2a1.88 1.88 0 0 1 .78-3h-.74c-2.67 0-11.72.13-13.06 0a2.94 2.94 0 0 0 -.86.1c-2.16.53-6.37 2.79-7.41 3-1.21.22-5.21 1.85-6.21.11a1.19 1.19 0 0 1 .5-1.52 3 3 0 0 1 .91-.4l-.71.1c-1.54.18-4.68.33-1.83-2a4.33 4.33 0 0 1 2.83-.87 2.29 2.29 0 0 0 .89-.25 1.16 1.16 0 0 0 .61-1 3.34 3.34 0 0 0 0-.44c0-.85-.35-1.39-2.31-2.71a15 15 0 0 1 -5.15-5.86 6.85 6.85 0 0 1 -.59-2.31s-5.08-1-5.39-3.73 3.49-5.53 3.57-5.88 1.12-2.23 4.83-3.81l1.54-1.9a.24.24 0 0 1 0-.07s0 0 0-.09c-.15-1.44-1.14-12.58 2.56-14.55a3.13 3.13 0 0 1 1.63-.57 5 5 0 0 1 0 3.3c-.49 1.68.18 5.62.28 7.2a2.77 2.77 0 0 1 0 .47.18.18 0 0 0 0 0c.43-1.17 3.85-8.91 6.92-9.36 3.38-.49-5.23 16-5 17.13a1.84 1.84 0 0 1 0 .33c0 .91-.61 1.56.39 2.58a1.06 1.06 0 0 0 .3.22c1.81.95 8.59 1.26 9.59 2s20.48-4.06 26.48 0c4.33 2.94 7 8.3 7.93 12.17a9.06 9.06 0 0 1 .28 3.61s1.68-.22 1.9-1.6a4.17 4.17 0 0 1 4.22-2.75 5.14 5.14 0 0 1 .85 4.04z" fill="#4b4c65"/><path d="m20.37 43.45a1.84 1.84 0 0 1 0 .33c-1.15.76-.37-.44-.9-.66a4.22 4.22 0 0 0 -1.79 0 11.25 11.25 0 0 1 -.44-2.2 9.2 9.2 0 0 0 -.49-2.12s.63-1.54 1.67-3.64a2.77 2.77 0 0 1 0 .47.18.18 0 0 0 0 0c.43-1.17 3.85-8.91 6.92-9.36 3.42-.44-5.19 16.08-4.97 17.18z" fill="#42435a"/><path d="m12 48s-1.47-4.05 3.51-3.41c.02-.04 1.08 4.85-3.51 3.41z" fill="#8f93b6"/><path d="m25.22 28.18a48.76 48.76 0 0 1 -3.92 10.27 11.39 11.39 0 0 1 -3.13 4.12 33 33 0 0 1 1.33-7.19c.88-2.86 2.35-5.84 4.76-7.42 0 .04 1.1-1.08.96.22z" fill="#6f708c"/><path d="m20.38 67.07c-.13 1-1.24 1.89-3.46.51a1.16 1.16 0 0 0 .61-1 3.34 3.34 0 0 0 0-.44c0-.85-.35-1.39-2.31-2.71a15 15 0 0 1 -5.15-5.86l.68-.47s.75 3.35 5.23 5.07c3.55 1.41 4.56 3.75 4.4 4.9z" fill="#42435a"/><path d="m8.5 54.46a3.35 3.35 0 0 1 -2.5-1.32 4.58 4.58 0 0 1 -1.34-.29c-2.19-.85-2.16-3.13-.79-3.85a1.77 1.77 0 0 1 1-.21c1.13.13 1.93 1.21 2 1.21a4.54 4.54 0 0 1 4.43 1c1.58 1.37-1.3 3.4-2.8 3.46z" fill="#8f93b6"/><path d="m42.62 69.36s1.8-.86 6.31-1.14c0 0-4.57.47-6-2.48l-13.75.79a3 3 0 0 1 -.65 2.83s13.54.26 14.09 0z" fill="#42435a"/><path d="m20.59 67.61c0 .37-3.7 3.06-4.45 3.28a4.93 4.93 0 0 1 -1.34.11 3 3 0 0 1 .91-.4l-.71.1c-1.54.18-4.68.33-1.83-2a4.33 4.33 0 0 1 2.83-.87s1.43-.07 1.5-1.2a3.34 3.34 0 0 0 0-.44l1.05.59c.55.31 1.35.16 1.79.29a.89.89 0 0 1 .25.54z" fill="#303142"/><path d="m12.69 47.45a6.18 6.18 0 0 1 .21-1.8c.19-.31.59-.62 1.77-.45l.46.08s.14 1.21-.27 1.62-2.17.55-2.17.55z" fill="#231f20"/><path d="m28.65 69.36c-2.16.53-7.06 2.9-8.1 3.09-1.21.22-5.21 1.85-6.21.11-.65-1.47 1.09-1.94 1.37-2l-.71.1a3.47 3.47 0 0 1 .75-.11s4.52-2.12 4.63-2.93-.16-1.07.33-1.17 1.77.38 2.93.4c2.25 0 5.27-.48 5.58-.31s.57.85-.57 2.82z" fill="#38394d"/><path d="m58.76 71.45a2.38 2.38 0 0 1 -1.12.38c-4.68.44-15.16 1.93-16.19.53-1.18-1.59.86-3.68 2.6-3.79a33 33 0 0 1 4.25-.31l8.7-.56a2.49 2.49 0 0 1 2.62 1.87 1.66 1.66 0 0 1 -.86 1.88z" fill="#38394d"/><path d="m46.52 68.34s-5.05-11.07 3.08-12.13c0 0-14.64 0-4.63 12.36z" fill="#42435a"/><path d="m14.4 46.18a.32.32 0 1 1 -.32-.32.31.31 0 0 1 .32.32z" fill="#fff"/><g fill="#42435a"><path d="m6.31 51.21c-.06 0-.17-.53-.44-.66s-.81-.48-.41-.7a.59.59 0 0 1 .85.44c.08.36 0 .58.13.58s.4-.36.71-.45.79 0 .67.28-.42.14-.82.3a2.92 2.92 0 0 0 -.69.21z"/><path d="m20.79 46.36s.64 5.28-3.87 7.64-7.43 1.31-7.43 1.31a8.91 8.91 0 0 0 1 3.14s1.42-2 3.15-2.2 6.74-1.68 7.88-5-.43-4.63-.43-4.63z"/><path d="m59.58 69.57s2.65-.57 3.6-1.87 2.2-3.29 2.2-3.29 2.87 1.59 1.54 4.16-7.37 2.5-8 2.54.66-1.54.66-1.54z"/></g><path d="m72.33 64c-.55 2.54-1.33 2-3.33 4.52-1.28 1.66-4.73 2.45-7.63 2.59a23.29 23.29 0 0 0 4.33-2.54l-.36-.52v-3.64s1.68-.22 1.9-1.6a4.17 4.17 0 0 1 4.22-2.75 5.14 5.14 0 0 1 .87 3.94z" fill="#8f93b6"/><path d="m25.22 28.18a48.76 48.76 0 0 1 -3.92 10.27c-1.06.14-.22-.18-.4-.87s.51-1.83-.22-1.06-1.16-1-1.18-1.14c.88-2.86 2.35-5.84 4.76-7.42 0 .04 1.1-1.08.96.22z" fill="#8f93b6"/><path d="m18.47 35.63a.18.18 0 0 0 0 0s-.33.91-.71 1.9a3.36 3.36 0 0 1 -1.45 1.54 4.92 4.92 0 0 0 -.88.24c-.61.21-1.23.49-1.38.56a.24.24 0 0 1 0-.07s0 0 0-.09c-.15-1.44-1.14-12.58 2.56-14.55a3.13 3.13 0 0 1 1.63-.57 5 5 0 0 1 0 3.3c-.62 1.97.3 6.73.23 7.74z" fill="#4b4c65"/><path d="m65.1 60.8c-1.31-3-6.16-10.19-8.64-11.08-4.28-1.55-8.18 1.28-8.18 1.28a29.46 29.46 0 0 0 -17.43 1c-.73-1.42-2.72-2.26-5-3a18.91 18.91 0 0 1 -4.72-2.43c1.81.95 8.59 1.26 9.59 2s20.48-4.06 26.48 0c4.3 3 6.99 8.36 7.9 12.23z" fill="#fff" opacity=".22"/><path d="m18.17 24.66a2.74 2.74 0 0 0 -1.68 2c-.78.87-1.49 4.44-1.33 6.46s.26 6.24.26 6.24l-1.42.56a.24.24 0 0 1 0-.07s0 0 0-.09c-.15-1.44-1.14-12.58 2.56-14.55a3.13 3.13 0 0 1 1.61-.55z" fill="#42435a"/></svg>