<svg xmlns="http://www.w3.org/2000/svg" width="85" height="75" viewBox="0 0 85 75"><title>Artboard 4</title><g style="isolation:isolate"><path d="M81.42,63.55c-.79,1.88-3.12,2.29-5.1,2.68h0c-.57.11-1.1.22-1.57.36-2.09.62-20,.82-20,.82l-.91.12c-.39.82-2,1.84-4.41,1.84s-2.33-1.17-2.33-1.17a4.57,4.57,0,0,1-2.67,0c-1.31-.46-.31-1.93.31-3s0-4-.62-6.14-1-2.14-5.46-8.55c-3.69-5.28-3.32-8.75-2.43-10.83.07-.17.14-.32.21-.47h0c.13-.25.26-.48.39-.68A7.53,7.53,0,0,0,38,34.28a6.49,6.49,0,0,1-3.12-2.4c-.94-2.85,1.65-5.28,1.65-5.28a20.17,20.17,0,0,0,2.6-3.75c.84-1.65,4.39-3.27,5.54-3.75L45,19a26.94,26.94,0,0,0,.71-13.62,1.14,1.14,0,0,1,.9-.44c2.71.95,4.59,8.73,4.71,9.22v0c2.31-3.91,6.86-4.53,8.21-5a1.3,1.3,0,0,1,1.31,0h0a5.59,5.59,0,0,1,1.36,2.6c.85,2.43-1.81,7.16-3.72,9.3s-4.24,4-4.09,4.44c1.2,3.57-1.64,7.16-1.64,7.16a1.15,1.15,0,0,0,.17.33c1.32,1.81,7.69,2.2,15.95,6.22C77.61,43.44,80,53.88,80,53.88a.08.08,0,0,1,0,0h0a2.22,2.22,0,0,1,2.79-.47C83.15,53.67,82.44,61.14,81.42,63.55Z" fill="#4b4c65"/><path d="M39.17,28.8s2-1.55,3.62-1c2,.64,2.68,2.14,2.26,3.5s-3.22,3.15-5.19.85L39,31a2.65,2.65,0,0,1-3.38.9C33.83,31,33.91,27.13,37,27.07,37,27.07,39,27.12,39.17,28.8Z" fill="#8f93b6"/><path d="M44.58,27.07s.35-2.83,2.21-2.95,2.32.85,2.32.85S48.74,29.08,44.58,27.07Z" fill="#8f93b6"/><path d="M45.46,26.74s0-2,1.84-2.06a2.37,2.37,0,0,1,1.2.41S48.34,28.05,45.46,26.74Z" fill="#231f20"/><path d="M61,13.22A9.79,9.79,0,0,1,59.34,18h0a8.71,8.71,0,0,1-2.08,2.23A24.9,24.9,0,0,1,51,22.92V21.79s-.49-4.75,1.3-7.38h0a4.24,4.24,0,0,1,.54-.65,13.33,13.33,0,0,1,1.75-1.45c2.1-1.49,4.33-2.27,4.92-2.09A1.59,1.59,0,0,1,61,11.85,8.49,8.49,0,0,1,61,13.22Z" fill="#8f93b6"/><path d="M47.74,25.59a.37.37,0,0,1-.37.37.38.38,0,0,1,0-.75A.37.37,0,0,1,47.74,25.59Z" fill="#fff"/><path d="M59.63,17.55l-.29.43a8.71,8.71,0,0,1-2.08,2.23A24.9,24.9,0,0,1,51,22.92V21.79s-.49-4.75,1.3-7.38c-.07.35-.15,1-.25,1.76-.22,1.84,0,4,.37,4.5s4.07-.59,5-1.33S58.77,18.1,59.63,17.55Z" fill="#6f708c"/><path d="M61,11.85a20.45,20.45,0,0,1-1.72,3.66c-1.28,2.1-5.08,4-5.75,3.45s1-6.38,1.11-6.66c2.1-1.49,4.33-2.27,4.92-2.09A1.59,1.59,0,0,1,61,11.85Z" fill="#b1a9bf"/><path d="M48.65,65.28a4.37,4.37,0,0,0-1.56,2.92,4.57,4.57,0,0,1-2.67,0c-1.31-.46-.31-1.93.31-3s0-4-.62-6.14-1-2.14-5.46-8.55c-4-5.7-3.24-9.28-2.22-11.3-.35,3.18-.3,5,2.22,9.33,3,5,9.64,12.07,10,13.75A6.58,6.58,0,0,1,48.65,65.28Z" fill="#42435a"/><path d="M81.51,63.57c-.79,1.87-3.05,2.39-5.19,2.66a14.35,14.35,0,0,0,3.07-2.43,5.1,5.1,0,0,1-.09-1.19c0-.56,1.71-2.51,1.89-4.06,0,0-.72.12-.58-.59s.16-4.11,2.18-4.6C83.42,53.81,82.53,61.15,81.51,63.57Z" fill="#8f93b6"/><path d="M57.13,67.21s-.32-3.69,2.61-4.06,1.23-1,1.23-1c-3.31-2-4.15-6.47-.82-8.34a12.23,12.23,0,0,1,5-1.62.42.42,0,0,0,.06-.82c-1.66-.42-4.27-.36-6.92,2.48s-3,5.32-3.15,8.92a7.69,7.69,0,0,1-1.3,4.8Z" fill="#42435a"/><path d="M53.07,33.22c-2.11,1.64-9.49,2.6-11.29,3a6.9,6.9,0,0,0-4,2,8.47,8.47,0,0,0-1.5,3,6,6,0,0,1-.06-1.49c.07-.17.14-.32.21-.47h0c.13-.25.26-.48.39-.68A7.53,7.53,0,0,0,38,34.28c7.41,1.8,14.78-1.64,14.78-1.64l.17.33Z" fill="#42435a"/><path d="M39.13,30.23a.15.15,0,0,1-.28,0,3.67,3.67,0,0,0-1.06-1.84c-.21-.2.2-.48.35-.29.83,1.11.91.95.91.95a4.53,4.53,0,0,0,1.63-.5c.31-.14.32.63,0,.64A1.68,1.68,0,0,0,39.13,30.23Z" fill="#42435a"/><path d="M80,53.84l-.3.53-1.2-2.89C71.54,37.31,60.43,37,56,35.26S52,33,52,33l.73-.31a1.15,1.15,0,0,0,.17.33c1.32,1.81,7.69,2.2,15.95,6.22C77.61,43.44,80,53.88,80,53.88A.08.08,0,0,1,80,53.84Z" fill="#fff" opacity="0.22" style="mix-blend-mode:soft-light"/><path d="M51.32,14.14a44.27,44.27,0,0,0-2.92,6.53,4.58,4.58,0,0,0-3.75-1.57L45,19a26.94,26.94,0,0,0,.71-13.62,1.14,1.14,0,0,1,.9-.44c2.71.95,4.59,8.73,4.71,9.22Z" fill="#42435a"/><path d="M58.49,21c-1.91,2.14-4.24,4-4.09,4.44,1.2,3.57-1.64,7.16-1.64,7.16L52,33s2.92-4.93,1-7.17a1.44,1.44,0,0,1,.6-1.67c1-.62,5.29-3.2,7.3-7.56,2.09-4.52-.13-7.42-.13-7.42h0a5.59,5.59,0,0,1,1.36,2.6C63.06,14.17,60.4,18.9,58.49,21Z" fill="#fff" opacity="0.22" style="mix-blend-mode:soft-light"/><path d="M79.69,54.37s-2.5,9.11-5.37,11.19C74.32,65.56,78.49,65.1,79.69,54.37Z" fill="#42435a"/><path d="M72.33,64C71.78,66.54,71,66,69,68.52c-1.28,1.66-4.73,2.45-7.63,2.59-.66,0-1.31,0-1.89,0a9.25,9.25,0,0,0-1.13,0c-4.4.38-15.48,2.64-16.55,1.2a1.88,1.88,0,0,1,.78-3h-.74c-2.67,0-11.72.13-13.06,0a2.94,2.94,0,0,0-.86.1c-2.16.53-6.37,2.79-7.41,3-1.21.22-5.21,1.85-6.21.11A1.19,1.19,0,0,1,14.8,71a3,3,0,0,1,.91-.4l-.71.1c-1.54.18-4.68.33-1.83-2A4.33,4.33,0,0,1,16,67.83a2.29,2.29,0,0,0,.89-.25,1.16,1.16,0,0,0,.61-1,3.34,3.34,0,0,0,0-.44c0-.85-.35-1.39-2.31-2.71a15,15,0,0,1-5.15-5.86,6.85,6.85,0,0,1-.59-2.31s-5.08-1-5.39-3.73S7.55,46,7.63,45.65s1.12-2.23,4.83-3.81L14,39.94a.24.24,0,0,1,0-.07s0,0,0-.09c-.15-1.44-1.14-12.58,2.56-14.55a3.13,3.13,0,0,1,1.63-.57,5,5,0,0,1,0,3.3c-.49,1.68.18,5.62.28,7.2a2.77,2.77,0,0,1,0,.47.18.18,0,0,0,0,0c.43-1.17,3.85-8.91,6.92-9.36,3.38-.49-5.23,16-5,17.13a1.84,1.84,0,0,1,0,.33c0,.91-.61,1.56.39,2.58a1.06,1.06,0,0,0,.3.22h0c1.81.95,8.59,1.26,9.59,2s20.48-4.06,26.48,0c4.33,2.94,7,8.3,7.93,12.17a9.06,9.06,0,0,1,.28,3.61s1.68-.22,1.9-1.6a4.17,4.17,0,0,1,4.22-2.75A5.14,5.14,0,0,1,72.33,64Z" fill="#4b4c65"/><path d="M20.37,43.45a1.84,1.84,0,0,1,0,.33c-1.15.76-.37-.44-.9-.66a4.22,4.22,0,0,0-1.79,0,11.25,11.25,0,0,1-.44-2.2,9.2,9.2,0,0,0-.49-2.12s.63-1.54,1.67-3.64a2.77,2.77,0,0,1,0,.47.18.18,0,0,0,0,0c.43-1.17,3.85-8.91,6.92-9.36C28.76,25.83,20.15,42.35,20.37,43.45Z" fill="#42435a"/><path d="M12,48s-1.47-4.05,3.51-3.41C15.53,44.55,16.59,49.44,12,48Z" fill="#8f93b6"/><path d="M25.22,28.18A48.76,48.76,0,0,1,21.3,38.45a11.39,11.39,0,0,1-3.13,4.12,33,33,0,0,1,1.33-7.19h0c.88-2.86,2.35-5.84,4.76-7.42C24.26,28,25.36,26.88,25.22,28.18Z" fill="#6f708c"/><path d="M20.38,67.07c-.13,1-1.24,1.89-3.46.51a1.16,1.16,0,0,0,.61-1,3.34,3.34,0,0,0,0-.44c0-.85-.35-1.39-2.31-2.71a15,15,0,0,1-5.15-5.86l.68-.47s.75,3.35,5.23,5.07C19.53,63.58,20.54,65.92,20.38,67.07Z" fill="#42435a"/><path d="M8.5,54.46A3.35,3.35,0,0,1,6,53.14a4.58,4.58,0,0,1-1.34-.29h0C2.47,52,2.5,49.72,3.87,49a1.77,1.77,0,0,1,1-.21h0C6,48.92,6.8,50,6.87,50a4.54,4.54,0,0,1,4.43,1C12.88,52.37,10,54.4,8.5,54.46Z" fill="#8f93b6"/><path d="M42.62,69.36s1.8-.86,6.31-1.14c0,0-4.57.47-6-2.48l-13.75.79a3,3,0,0,1-.65,2.83S42.07,69.62,42.62,69.36Z" fill="#42435a"/><path d="M20.59,67.61c0,.37-3.7,3.06-4.45,3.28A4.93,4.93,0,0,1,14.8,71a3,3,0,0,1,.91-.4l-.71.1c-1.54.18-4.68.33-1.83-2A4.33,4.33,0,0,1,16,67.83s1.43-.07,1.5-1.2a3.34,3.34,0,0,0,0-.44l1.05.59c.55.31,1.35.16,1.79.29A.89.89,0,0,1,20.59,67.61Z" fill="#303142"/><path d="M12.69,47.45a6.18,6.18,0,0,1,.21-1.8c.19-.31.59-.62,1.77-.45l.46.08s.14,1.21-.27,1.62S12.69,47.45,12.69,47.45Z" fill="#231f20"/><path d="M28.65,69.36c-2.16.53-7.06,2.9-8.1,3.09-1.21.22-5.21,1.85-6.21.11-.65-1.47,1.09-1.94,1.37-2l-.71.1a3.47,3.47,0,0,1,.75-.11s4.52-2.12,4.63-2.93-.16-1.07.33-1.17,1.77.38,2.93.4c2.25,0,5.27-.48,5.58-.31S29.79,67.39,28.65,69.36Z" fill="#38394d"/><path d="M58.76,71.45a2.38,2.38,0,0,1-1.12.38c-4.68.44-15.16,1.93-16.19.53-1.18-1.59.86-3.68,2.6-3.79a33,33,0,0,1,4.25-.31L57,67.7a2.49,2.49,0,0,1,2.62,1.87A1.66,1.66,0,0,1,58.76,71.45Z" fill="#38394d"/><path d="M46.52,68.34S41.47,57.27,49.6,56.21c0,0-14.64,0-4.63,12.36Z" fill="#42435a"/><path d="M14.4,46.18a.32.32,0,1,1-.32-.32A.31.31,0,0,1,14.4,46.18Z" fill="#fff"/><path d="M6.31,51.21c-.06,0-.17-.53-.44-.66s-.81-.48-.41-.7a.59.59,0,0,1,.85.44c.08.36,0,.58.13.58s.4-.36.71-.45.79,0,.67.28S7.4,50.84,7,51A2.92,2.92,0,0,0,6.31,51.21Z" fill="#42435a"/><path d="M20.79,46.36s.64,5.28-3.87,7.64-7.43,1.31-7.43,1.31a8.91,8.91,0,0,0,1,3.14s1.42-2,3.15-2.2,6.74-1.68,7.88-5-.43-4.63-.43-4.63Z" fill="#42435a"/><path d="M59.58,69.57s2.65-.57,3.6-1.87,2.2-3.29,2.2-3.29,2.87,1.59,1.54,4.16-7.37,2.5-8,2.54S59.58,69.57,59.58,69.57Z" fill="#42435a"/><path d="M72.33,64C71.78,66.54,71,66,69,68.52c-1.28,1.66-4.73,2.45-7.63,2.59a23.29,23.29,0,0,0,4.33-2.54l-.36-.52V64.41s1.68-.22,1.9-1.6a4.17,4.17,0,0,1,4.22-2.75A5.14,5.14,0,0,1,72.33,64Z" fill="#8f93b6"/><path d="M25.22,28.18A48.76,48.76,0,0,1,21.3,38.45c-1.06.14-.22-.18-.4-.87s.51-1.83-.22-1.06-1.16-1-1.18-1.14h0c.88-2.86,2.35-5.84,4.76-7.42C24.26,28,25.36,26.88,25.22,28.18Z" fill="#8f93b6"/><path d="M18.47,35.63a.18.18,0,0,0,0,0s-.33.91-.71,1.9a3.36,3.36,0,0,1-1.45,1.54,4.92,4.92,0,0,0-.88.24h0c-.61.21-1.23.49-1.38.56l0,0a.24.24,0,0,1,0-.07s0,0,0-.09c-.15-1.44-1.14-12.58,2.56-14.55a3.13,3.13,0,0,1,1.63-.57,5,5,0,0,1,0,3.3C17.62,29.86,18.54,34.62,18.47,35.63Z" fill="#4b4c65"/><path d="M65.1,60.8c-1.31-3-6.16-10.19-8.64-11.08C52.18,48.17,48.28,51,48.28,51a29.46,29.46,0,0,0-17.43,1c-.73-1.42-2.72-2.26-5-3a18.91,18.91,0,0,1-4.72-2.43c1.81.95,8.59,1.26,9.59,2s20.48-4.06,26.48,0C61.5,51.57,64.19,56.93,65.1,60.8Z" fill="#fff" opacity="0.22" style="mix-blend-mode:soft-light"/><path d="M18.17,24.66a2.74,2.74,0,0,0-1.68,2c-.78.87-1.49,4.44-1.33,6.46s.26,6.24.26,6.24h0L14,39.92l0,0a.24.24,0,0,1,0-.07s0,0,0-.09c-.15-1.44-1.14-12.58,2.56-14.55A3.13,3.13,0,0,1,18.17,24.66Z" fill="#42435a"/></g></svg>