<svg height="75" viewBox="0 0 85 75" width="85" xmlns="http://www.w3.org/2000/svg"><path d="m72.38 50.81a47.85 47.85 0 0 1 -1.62 9.12c-.25.94-2.12 1.58-2.87 2.1a6.09 6.09 0 0 1 -1.08.61 6.92 6.92 0 0 1 -2.22.6l-.66.06c-1.75.19-5.68.73-9 .85-3.82.14-4.71.06-5-.47s.51-1 .51-1l-3.89.18c.23 1-.71 2-2.37 2.47s-3.52-.88-3.52-.88a7.81 7.81 0 0 1 -1.78.07 1.23 1.23 0 0 1 -.87-.35c-.46-.63-.71-1.86.06-2.4 1.28-.9 1.29-3.86 1.11-5.4a83.77 83.77 0 0 0 -3.18-12.8 12.61 12.61 0 0 1 .48-9.77l-.06-.07-.23-.24c-.09-.11-.19-.22-.27-.34a5.26 5.26 0 0 1 -.84-4.55 8.2 8.2 0 0 1 .45-1.4 10.81 10.81 0 0 1 1.15-2.07 12 12 0 0 1 2.35-7.72s.4-6.79 4.31-10.57 5.45-3.33 5.34-2.9-1.88 5.9-1.88 5.9c.32-.31 5.51-5.32 6.88-7s2.2-1 2.41-.43a28.4 28.4 0 0 1 -1.39 10.89c-1.68 4.64-5.31 5.37-5.31 5.37a6.65 6.65 0 0 1 2.61 2.38 8.3 8.3 0 0 1 .73 5.53 5.09 5.09 0 0 1 -.35 1.08 15.69 15.69 0 0 0 7.38 4.47c15.15 4.75 12.75 15.72 12.62 18.68z" fill="#803e42"/><path d="m54.58 9.09c0 .21-.09.42-.14.64-.78 3.27-1.86 5.36-3.44 6.27a24.7 24.7 0 0 1 -5 1.41s-.4-.41.6-3.41a14.62 14.62 0 0 1 1.4-3 24.07 24.07 0 0 1 1.5-2.22l.28-.36a56.45 56.45 0 0 1 4.46-4.89.44.44 0 0 1 .76.29 23.43 23.43 0 0 1 -.42 5.27z" fill="#e37d7b"/><path d="m36 35.11a6.44 6.44 0 0 0 7.12 3.39c8-1.68 10.2-10.34 10.2-10.34l-.93-.5s-1.79 6.73-8.53 7.88c-2.85.49-6.86-3-6.86-3z" fill="#75383c"/><path d="m40.69 55.23c-.4 2.45.09 5-1.25 6.6a2.14 2.14 0 0 0 -.55 2.67 1.23 1.23 0 0 1 -.87-.35c-.46-.63-.71-1.86.06-2.4 1.28-.9 1.29-3.86 1.11-5.4a83.77 83.77 0 0 0 -3.19-12.78 12.61 12.61 0 0 1 .48-9.77l-.06-.07-.23-.24c-.09-.11-.19-.22-.27-.34.68 0 1.29.13 1.43.41 0 0-1.26 8 2 14 .09-.03 1.74 5.21 1.34 7.67z" fill="#fff" opacity=".37"/><path d="m42.52 24.41a1.43 1.43 0 0 0 .48-.91c0-.53.52-2.46 1.84-2.37s2.31 1.12 2.67 1.12-.78 4.75-4.99 2.16z" fill="#fee9dc"/><path d="m41.71 34.53a3.65 3.65 0 0 1 -3.54-1.76 1.67 1.67 0 0 1 -1.1.21 2.23 2.23 0 0 1 -.59-.06c-2.26-.51-2.73-4.41-.78-5.26l.22-.08a2.84 2.84 0 0 1 1.91-.09 2.54 2.54 0 0 1 1.16.75 4.65 4.65 0 0 1 5.84 2.61c.62 1.43-.45 3.59-3.12 3.68z" fill="#9b5259"/><path d="m43.54 24.05s0-1.9 1.09-2.22 1.91.41 2.19.44a2.22 2.22 0 0 1 -3.28 1.78z" fill="#414042"/><path d="m45.49 22.78a.44.44 0 1 1 -.44-.44.44.44 0 0 1 .44.44z" fill="#fee9dc"/><path d="m48.72 3.94c-.12.43-1.88 5.9-1.88 5.9s-1.59 1.43-3.52 6.79a8.8 8.8 0 0 0 -4.25.78s.4-6.79 4.31-10.57 5.45-3.33 5.34-2.9z" fill="#75383c"/><path d="m54.58 9.09a37.65 37.65 0 0 1 -2.53 3.91c-1.07 1.44-3.76 1.84-4.14 1.12s0-2.51.08-3.07v-.16a24.48 24.48 0 0 1 1.51-2.11l.28-.36a56.45 56.45 0 0 1 4.46-4.89.44.44 0 0 1 .76.29 23.43 23.43 0 0 1 -.42 5.27z" fill="#e59993"/><path d="m50.49 62.6 1.27-1.7a9 9 0 0 1 3.43-.93.15.15 0 0 0 0-.29 13.11 13.11 0 0 0 -3.75 0c-2 .41-3.49 1.75-4.89 1.72a.14.14 0 0 0 -.15.16l.11 1.13a.14.14 0 0 0 .15.13l3.68-.17a.14.14 0 0 0 .15-.05z" fill="#a47178" opacity=".47"/><path d="m62.88 46.59s-7-1.7-9.86 4.6a5.74 5.74 0 0 0 3.7 7.81s-5.64-9.07 6.16-12.41z" fill="#fff" opacity=".37"/><path d="m40.67 64.43a3 3 0 0 1 .74-2.2c.89-.93 1.83-6.23 1.79-7.79a35.39 35.39 0 0 0 -.88-4.51 22.76 22.76 0 0 0 -.06 4c.2 1.23-.64 6.75-1.5 7.79a3.82 3.82 0 0 0 -.82 2.82z" fill="#a47178" opacity=".47"/><path d="m38.42 30.36s.26.4.84-.1a8.72 8.72 0 0 1 1.63-1c.34-.22 0-1-.53-.6s-.91 1.42-1.55 1.21a1.29 1.29 0 0 1 -.73-1.07c-.08-.49-.6-.76-.75-.47s.06.65.38 1a7.57 7.57 0 0 0 .71 1.03z" fill="#cc98a5"/><path d="m48.72 3.94c-4.17 1.06-7.07 8.19-7.5 10.23s1.11 2.45 1.11 2.45a19.35 19.35 0 0 0 -1.23 4.08c0 1-1.49 1.22-2.6 3.9-.35.84-.46 2.34-.62 2.45l-.06.05c-3.82 2.89-.89 6.46-.89 6.46l-.47.17-.23-.24c-2.65-.6-3.21-5.19-.91-6.19l.25-.1a10.81 10.81 0 0 1 1.15-2.07 12 12 0 0 1 2.35-7.72s.4-6.79 4.31-10.57 5.45-3.33 5.34-2.9z" fill="#fff" opacity=".37"/><path d="m76.6 55.6c-.87 2-3.85 4.17-5.07 5.71a3.41 3.41 0 0 1 -1.37.95 6.18 6.18 0 0 1 -1.79.1h-.15a11 11 0 0 0 -1.27 0c0-.1 1.47-.45 1.31-1s2.64-3.1 2.89-3.89a17.6 17.6 0 0 0 .41-5.6 3.29 3.29 0 0 1 2.31-2c.41-.15.69-.22.69-.22s2.91 3.95 2.04 5.95z" fill="#4d343d"/><path d="m46.56 62.84s-.31-5.05.59-7.36 2.25-6.23 2.51-6.6-.26-2.28 0-2.29a2.06 2.06 0 0 1 1.08 3.1c-1.14 2-4.17 8.94-3.59 13.15z" fill="#a47178" opacity=".47"/><path d="m73 55c0 1.94-.15 1.86-.9 2.85a34.1 34.1 0 0 0 -2 3.57 2 2 0 0 1 -1.69 1h-.15a11 11 0 0 0 -1.27 0c0-.1 1.47-.45 1.31-1s2.64-3.1 2.89-3.89a17.6 17.6 0 0 0 .41-5.6 3.29 3.29 0 0 1 2.31-2c.41-.15.69-.22.69-.22-1.7 3.98-1.6 3.29-1.6 5.29z" fill="#452e36"/><path d="m79.89 63.87c-.6 2.78-1.47 2.22-3.56 4.92-1.4 1.8-5.13 2.65-8.27 2.81-.72 0-1.42 0-2 0a10.9 10.9 0 0 0 -1.23 0c-4.83.4-16.83 2.89-17.97 1.33a2 2 0 0 1 .84-3.23h-.8c-2.89 0-12.69.15-14.14 0a3.18 3.18 0 0 0 -.94.11c-2.34.58-6.9 3-8 3.23-1.3.23-5.64 2-6.72.12a1.3 1.3 0 0 1 .49-1.75 3.2 3.2 0 0 1 1-.43l-.78.11c-1.67.2-5.07.36-2-2.12a4.71 4.71 0 0 1 3.09-.97 2.42 2.42 0 0 0 1-.27 1.22 1.22 0 0 0 .66-1c0-.18 0-.34 0-.48 0-.93-.39-1.51-2.5-2.94a16.15 16.15 0 0 1 -5.61-6.31 7.42 7.42 0 0 1 -.63-2.5s-5.51-1-5.84-4 3.73-6.15 3.81-6.5 1.21-2.4 5.21-4.11l1.66-2.06v-.07s0-.06 0-.1c-.14-1.56-1.21-13.66 2.79-15.77a3.42 3.42 0 0 1 1.77-.62 5.45 5.45 0 0 1 0 3.59c-.53 1.82.19 6.08.3 7.79a3.35 3.35 0 0 1 0 .52c.48-1.17 4.18-9.61 7.48-10.09 3.66-.53-5.67 17.36-5.43 18.55a2.38 2.38 0 0 1 0 .36c0 1-.66 1.69.42 2.8a1.27 1.27 0 0 0 .33.23c2 1 9.3 1.37 10.39 2.22s22.18-4.4 28.69 0c4.69 3.18 7.59 9 8.59 13.18a9.84 9.84 0 0 1 .29 3.91s1.83-.24 2.07-1.74a4.51 4.51 0 0 1 4.56-3 5.55 5.55 0 0 1 .98 4.28z" fill="#803e42"/><path d="m23.6 41.63a2.38 2.38 0 0 1 0 .36c-1.24.82-.4-.48-1-.71a4.37 4.37 0 0 0 -1.93 0 12.06 12.06 0 0 1 -.48-2.38 10 10 0 0 0 -.53-2.3s.69-1.67 1.81-4a3.35 3.35 0 0 1 0 .52c.53-1.12 4.23-9.56 7.53-10.04 3.69-.53-5.64 17.36-5.4 18.55z" fill="#4d343d"/><path d="m14.55 46.52s-1.59-4.39 3.81-3.7c0 0 1.14 5.3-3.81 3.7z" fill="#ce9e92"/><path d="m28.85 25.1a53.17 53.17 0 0 1 -4.24 11.12 12.47 12.47 0 0 1 -3.39 4.46 35.61 35.61 0 0 1 1.43-7.78c1-3.1 2.55-6.33 5.17-8 0-.04 1.18-1.22 1.03.2z" fill="#ce9e92"/><path d="m23.61 67.22c-.14 1-1.34 2-3.75.55a1.22 1.22 0 0 0 .66-1c0-.18 0-.34 0-.48 0-.93-.39-1.51-2.5-2.94a16.15 16.15 0 0 1 -5.57-6.35l.74-.51s.81 3.61 5.67 5.51c3.83 1.44 4.92 4 4.75 5.22z" fill="#75383c"/><path d="m10.75 53.56a3.64 3.64 0 0 1 -2.75-1.43 5.68 5.68 0 0 1 -1.45-.31c-2.34-.91-2.3-3.39-.82-4.16a2 2 0 0 1 1.12-.22c1.19.12 2 1.28 2.13 1.24a4.93 4.93 0 0 1 4.8 1.07c1.71 1.55-1.4 3.74-3.03 3.81z" fill="#9b5259"/><path d="m47.7 69.7s1.95-.93 6.84-1.24c0 0-4.95.51-6.46-2.67l-14.9.85a3.26 3.26 0 0 1 -.7 3.06s14.63.3 15.22 0z" fill="#75383c"/><path d="m23.83 67.81c0 .4-4 3.31-4.82 3.55a5.77 5.77 0 0 1 -1.45.06 3.2 3.2 0 0 1 1-.43l-.78.11c-1.67.2-5.07.36-2-2.12a4.71 4.71 0 0 1 3.12-.98s1.55-.07 1.62-1.29c0-.18 0-.34 0-.48.24.12.69.38 1.13.63.6.34 1.47.18 1.94.32a1 1 0 0 1 .24.63z" fill="#452e36"/><path d="m15.28 46a7.3 7.3 0 0 1 .22-2c.21-.32.65-.66 1.93-.49l.5.09s.14 1.31-.3 1.76c-.63.64-2.35.64-2.35.64z" fill="#3c3440"/><path d="m32.57 69.7c-2.34.57-7.65 3.14-8.78 3.35-1.3.23-5.64 2-6.72.12-.7-1.59 1.18-2.11 1.49-2.18l-.78.11a3.44 3.44 0 0 1 .82-.1s4.9-2.29 5-3.17-.18-1.16.36-1.27 1.92.41 3.17.43c2.44 0 5.71-.52 6-.33s.68.91-.56 3.04z" fill="#4d343d"/><path d="m65.19 72a2.68 2.68 0 0 1 -1.22.41c-5.07.48-16.41 2.08-17.53.57-1.28-1.72.93-4 2.81-4.1a35.37 35.37 0 0 1 4.61-.34l9.38-.61a2.72 2.72 0 0 1 2.84 2 1.81 1.81 0 0 1 -.89 2.07z" fill="#4d343d"/><path d="m51.93 68.6s-5.47-12 3.33-13.14c0 0-15.85 0-5 13.39z" fill="#75383c"/><path d="m17.13 44.59a.34.34 0 1 1 -.34-.34.34.34 0 0 1 .34.34z" fill="#fff"/><path d="m8.37 50c-.06 0-.18-.58-.48-.71s-.87-.53-.44-.77a.64.64 0 0 1 .92.49c.09.38.05.62.13.62s.44-.39.78-.49.86 0 .73.31-.46.15-.91.27a3 3 0 0 0 -.73.28z" fill="#803e42"/><path d="m24.05 44.79s.69 5.71-4.18 8.27-8 1.42-8 1.42a9.45 9.45 0 0 0 1.07 3.4s1.55-2.2 3.41-2.38 7.31-1.82 8.55-5.46-.47-5-.47-5z" fill="#75383c"/><path d="m66.08 69.93s2.86-.62 3.89-2 2.38-3.56 2.38-3.56 3.12 1.72 1.68 4.51-8 2.71-8.61 2.75.66-1.7.66-1.7z" fill="#75383c"/><path d="m79.89 63.87c-.6 2.78-1.47 2.22-3.56 4.92-1.4 1.8-5.13 2.65-8.27 2.81 1.32-.33 4.69-2.75 4.69-2.75l-.4-.56v-4s1.83-.24 2.07-1.74a4.51 4.51 0 0 1 4.56-3 5.55 5.55 0 0 1 .91 4.32z" fill="#4d343d"/><path d="m28.85 25.1a53.17 53.17 0 0 1 -4.24 11.12c-1.15.15-.24-.19-.44-.94s.55-2-.24-1.16-1.25-1.12-1.28-1.22c1-3.1 2.55-6.33 5.17-8 0-.04 1.18-1.22 1.03.2z" fill="#d7b7ac"/><path d="m21.54 33.17s-.36 1-.77 2.07a3.6 3.6 0 0 1 -1.57 1.66 5.75 5.75 0 0 0 -1 .26c-.66.23-1.33.53-1.5.61v-.07s0-.06 0-.1c-.18-1.5-1.25-13.6 2.75-15.71a3.42 3.42 0 0 1 1.77-.62 5.45 5.45 0 0 1 0 3.59c-.6 2.05.4 7.21.32 8.31z" fill="#75383c"/><path d="m72.06 60.43c-1.42-3.29-6.68-11-9.36-12-4.64-1.67-8.87 1.43-8.87 1.43-9.75-2.74-18.88 1-18.88 1-.79-1.55-3-2.45-5.45-3.24a20 20 0 0 1 -5.11-2.62c2 1 9.3 1.37 10.39 2.22s22.18-4.4 28.69 0c4.69 3.21 7.59 9.01 8.59 13.21z" fill="#fff" opacity=".37"/><path d="m21.22 21.27a3 3 0 0 0 -1.83 2.17c-.83.95-1.61 4.82-1.44 7s.29 6.76.29 6.76l-1.5.61v-.07s0-.06 0-.1c-.22-1.54-1.29-13.64 2.71-15.75a3.42 3.42 0 0 1 1.77-.62z" fill="#4d343d"/></svg>