<?xml version="1.0" encoding="UTF-8"?>
<svg viewBox="0 0 280 243" xmlns="http://www.w3.org/2000/svg">
<title>Artboard 1</title>
<polygon points="140 0 0 243 280 243" fill="#b30469"/>
<polygon points="140 0 137.81 3.8 142.19 3.8" fill="#ddd"/>
<polygon points="137.81 3.8 135.63 7.59 140 7.59" fill="#ddd"/>
<polygon points="142.19 3.8 140 7.59 144.38 7.59" fill="#ddd"/>
<polygon points="135.63 7.59 133.44 11.39 137.81 11.39" fill="#ddd"/>
<polygon points="133.44 11.39 131.25 15.19 135.63 15.19" fill="#ddd"/>
<polygon points="137.81 11.39 135.63 15.19 140 15.19" fill="#ddd"/>
<polygon points="144.38 7.59 142.19 11.39 146.56 11.39" fill="#ddd"/>
<polygon points="142.19 11.39 140 15.19 144.38 15.19" fill="#ddd"/>
<polygon points="146.56 11.39 144.38 15.19 148.75 15.19" fill="#ddd"/>
<polygon points="131.25 15.19 129.06 18.98 133.44 18.98" fill="#ddd"/>
<polygon points="129.06 18.98 126.88 22.78 131.25 22.78" fill="#ddd"/>
<polygon points="133.44 18.98 131.25 22.78 135.63 22.78" fill="#ddd"/>
<polygon points="126.88 22.78 124.69 26.58 129.06 26.58" fill="#ddd"/>
<polygon points="124.69 26.58 122.5 30.38 126.88 30.38" fill="#ddd"/>
<polygon points="129.06 26.58 126.88 30.38 131.25 30.38" fill="#ddd"/>
<polygon points="135.63 22.78 133.44 26.58 137.81 26.58" fill="#ddd"/>
<polygon points="133.44 26.58 131.25 30.38 135.63 30.38" fill="#ddd"/>
<polygon points="137.81 26.58 135.63 30.38 140 30.38" fill="#ddd"/>
<polygon points="148.75 15.19 146.56 18.98 150.94 18.98" fill="#ddd"/>
<polygon points="146.56 18.98 144.38 22.78 148.75 22.78" fill="#ddd"/>
<polygon points="150.94 18.98 148.75 22.78 153.13 22.78" fill="#ddd"/>
<polygon points="144.38 22.78 142.19 26.58 146.56 26.58" fill="#ddd"/>
<polygon points="142.19 26.58 140 30.38 144.38 30.38" fill="#ddd"/>
<polygon points="146.56 26.58 144.38 30.38 148.75 30.38" fill="#ddd"/>
<polygon points="153.13 22.78 150.94 26.58 155.31 26.58" fill="#ddd"/>
<polygon points="150.94 26.58 148.75 30.38 153.13 30.38" fill="#ddd"/>
<polygon points="155.31 26.58 153.13 30.38 157.5 30.38" fill="#ddd"/>
<polygon points="122.5 30.38 120.31 34.17 124.69 34.17" fill="#ddd"/>
<polygon points="120.31 34.17 118.13 37.97 122.5 37.97" fill="#ddd"/>
<polygon points="124.69 34.17 122.5 37.97 126.88 37.97" fill="#ddd"/>
<polygon points="118.13 37.97 115.94 41.77 120.31 41.77" fill="#ddd"/>
<polygon points="115.94 41.77 113.75 45.56 118.13 45.56" fill="#ddd"/>
<polygon points="120.31 41.77 118.13 45.56 122.5 45.56" fill="#ddd"/>
<polygon points="126.88 37.97 124.69 41.77 129.06 41.77" fill="#ddd"/>
<polygon points="124.69 41.77 122.5 45.56 126.88 45.56" fill="#ddd"/>
<polygon points="129.06 41.77 126.88 45.56 131.25 45.56" fill="#ddd"/>
<polygon points="113.75 45.56 111.56 49.36 115.94 49.36" fill="#ddd"/>
<polygon points="111.56 49.36 109.38 53.16 113.75 53.16" fill="#ddd"/>
<polygon points="115.94 49.36 113.75 53.16 118.13 53.16" fill="#ddd"/>
<polygon points="109.38 53.16 107.19 56.95 111.56 56.95" fill="#ddd"/>
<polygon points="107.19 56.95 105 60.75 109.38 60.75" fill="#ddd"/>
<polygon points="111.56 56.95 109.38 60.75 113.75 60.75" fill="#ddd"/>
<polygon points="118.13 53.16 115.94 56.95 120.31 56.95" fill="#ddd"/>
<polygon points="115.94 56.95 113.75 60.75 118.13 60.75" fill="#ddd"/>
<polygon points="120.31 56.95 118.13 60.75 122.5 60.75" fill="#ddd"/>
<polygon points="131.25 45.56 129.06 49.36 133.44 49.36" fill="#ddd"/>
<polygon points="129.06 49.36 126.88 53.16 131.25 53.16" fill="#ddd"/>
<polygon points="133.44 49.36 131.25 53.16 135.63 53.16" fill="#ddd"/>
<polygon points="126.88 53.16 124.69 56.95 129.06 56.95" fill="#ddd"/>
<polygon points="124.69 56.95 122.5 60.75 126.88 60.75" fill="#ddd"/>
<polygon points="129.06 56.95 126.88 60.75 131.25 60.75" fill="#ddd"/>
<polygon points="135.63 53.16 133.44 56.95 137.81 56.95" fill="#ddd"/>
<polygon points="133.44 56.95 131.25 60.75 135.63 60.75" fill="#ddd"/>
<polygon points="137.81 56.95 135.63 60.75 140 60.75" fill="#ddd"/>
<polygon points="157.5 30.38 155.31 34.17 159.69 34.17" fill="#ddd"/>
<polygon points="155.31 34.17 153.13 37.97 157.5 37.97" fill="#ddd"/>
<polygon points="159.69 34.17 157.5 37.97 161.88 37.97" fill="#ddd"/>
<polygon points="153.13 37.97 150.94 41.77 155.31 41.77" fill="#ddd"/>
<polygon points="150.94 41.77 148.75 45.56 153.13 45.56" fill="#ddd"/>
<polygon points="155.31 41.77 153.13 45.56 157.5 45.56" fill="#ddd"/>
<polygon points="161.88 37.97 159.69 41.77 164.06 41.77" fill="#ddd"/>
<polygon points="159.69 41.77 157.5 45.56 161.88 45.56" fill="#ddd"/>
<polygon points="164.06 41.77 161.88 45.56 166.25 45.56" fill="#ddd"/>
<polygon points="148.75 45.56 146.56 49.36 150.94 49.36" fill="#ddd"/>
<polygon points="146.56 49.36 144.38 53.16 148.75 53.16" fill="#ddd"/>
<polygon points="150.94 49.36 148.75 53.16 153.13 53.16" fill="#ddd"/>
<polygon points="144.38 53.16 142.19 56.95 146.56 56.95" fill="#ddd"/>
<polygon points="142.19 56.95 140 60.75 144.38 60.75" fill="#ddd"/>
<polygon points="146.56 56.95 144.38 60.75 148.75 60.75" fill="#ddd"/>
<polygon points="153.13 53.16 150.94 56.95 155.31 56.95" fill="#ddd"/>
<polygon points="150.94 56.95 148.75 60.75 153.13 60.75" fill="#ddd"/>
<polygon points="155.31 56.95 153.13 60.75 157.5 60.75" fill="#ddd"/>
<polygon points="166.25 45.56 164.06 49.36 168.44 49.36" fill="#ddd"/>
<polygon points="164.06 49.36 161.88 53.16 166.25 53.16" fill="#ddd"/>
<polygon points="168.44 49.36 166.25 53.16 170.63 53.16" fill="#ddd"/>
<polygon points="161.88 53.16 159.69 56.95 164.06 56.95" fill="#ddd"/>
<polygon points="159.69 56.95 157.5 60.75 161.88 60.75" fill="#ddd"/>
<polygon points="164.06 56.95 161.88 60.75 166.25 60.75" fill="#ddd"/>
<polygon points="170.63 53.16 168.44 56.95 172.81 56.95" fill="#ddd"/>
<polygon points="168.44 56.95 166.25 60.75 170.63 60.75" fill="#ddd"/>
<polygon points="172.81 56.95 170.63 60.75 175 60.75" fill="#ddd"/>
<polygon points="105 60.75 102.81 64.55 107.19 64.55" fill="#ddd"/>
<polygon points="102.81 64.55 100.63 68.34 105 68.34" fill="#ddd"/>
<polygon points="107.19 64.55 105 68.34 109.38 68.34" fill="#ddd"/>
<polygon points="100.63 68.34 98.44 72.14 102.81 72.14" fill="#ddd"/>
<polygon points="98.44 72.14 96.25 75.94 100.63 75.94" fill="#ddd"/>
<polygon points="102.81 72.14 100.63 75.94 105 75.94" fill="#ddd"/>
<polygon points="109.38 68.34 107.19 72.14 111.56 72.14" fill="#ddd"/>
<polygon points="107.19 72.14 105 75.94 109.38 75.94" fill="#ddd"/>
<polygon points="111.56 72.14 109.38 75.94 113.75 75.94" fill="#ddd"/>
<polygon points="96.25 75.94 94.06 79.73 98.44 79.73" fill="#ddd"/>
<polygon points="94.06 79.73 91.88 83.53 96.25 83.53" fill="#ddd"/>
<polygon points="98.44 79.73 96.25 83.53 100.63 83.53" fill="#ddd"/>
<polygon points="91.88 83.53 89.69 87.33 94.06 87.33" fill="#ddd"/>
<polygon points="89.69 87.33 87.5 91.13 91.88 91.13" fill="#ddd"/>
<polygon points="94.06 87.33 91.88 91.13 96.25 91.13" fill="#ddd"/>
<polygon points="100.63 83.53 98.44 87.33 102.81 87.33" fill="#ddd"/>
<polygon points="98.44 87.33 96.25 91.13 100.63 91.13" fill="#ddd"/>
<polygon points="102.81 87.33 100.63 91.13 105 91.13" fill="#ddd"/>
<polygon points="113.75 75.94 111.56 79.73 115.94 79.73" fill="#ddd"/>
<polygon points="111.56 79.73 109.38 83.53 113.75 83.53" fill="#ddd"/>
<polygon points="115.94 79.73 113.75 83.53 118.13 83.53" fill="#ddd"/>
<polygon points="109.38 83.53 107.19 87.33 111.56 87.33" fill="#ddd"/>
<polygon points="107.19 87.33 105 91.13 109.38 91.13" fill="#ddd"/>
<polygon points="111.56 87.33 109.38 91.13 113.75 91.13" fill="#ddd"/>
<polygon points="118.13 83.53 115.94 87.33 120.31 87.33" fill="#ddd"/>
<polygon points="115.94 87.33 113.75 91.13 118.13 91.13" fill="#ddd"/>
<polygon points="120.31 87.33 118.13 91.13 122.5 91.13" fill="#ddd"/>
<polygon points="87.5 91.13 85.31 94.92 89.69 94.92" fill="#ddd"/>
<polygon points="85.31 94.92 83.13 98.72 87.5 98.72" fill="#ddd"/>
<polygon points="89.69 94.92 87.5 98.72 91.88 98.72" fill="#ddd"/>
<polygon points="83.13 98.72 80.94 102.52 85.31 102.52" fill="#ddd"/>
<polygon points="80.94 102.52 78.75 106.31 83.13 106.31" fill="#ddd"/>
<polygon points="85.31 102.52 83.13 106.31 87.5 106.31" fill="#ddd"/>
<polygon points="91.88 98.72 89.69 102.52 94.06 102.52" fill="#ddd"/>
<polygon points="89.69 102.52 87.5 106.31 91.88 106.31" fill="#ddd"/>
<polygon points="94.06 102.52 91.88 106.31 96.25 106.31" fill="#ddd"/>
<polygon points="78.75 106.31 76.56 110.11 80.94 110.11" fill="#ddd"/>
<polygon points="76.56 110.11 74.38 113.91 78.75 113.91" fill="#ddd"/>
<polygon points="80.94 110.11 78.75 113.91 83.13 113.91" fill="#ddd"/>
<polygon points="74.38 113.91 72.19 117.7 76.56 117.7" fill="#ddd"/>
<polygon points="72.19 117.7 70 121.5 74.38 121.5" fill="#ddd"/>
<polygon points="76.56 117.7 74.38 121.5 78.75 121.5" fill="#ddd"/>
<polygon points="83.13 113.91 80.94 117.7 85.31 117.7" fill="#ddd"/>
<polygon points="80.94 117.7 78.75 121.5 83.13 121.5" fill="#ddd"/>
<polygon points="85.31 117.7 83.13 121.5 87.5 121.5" fill="#ddd"/>
<polygon points="96.25 106.31 94.06 110.11 98.44 110.11" fill="#ddd"/>
<polygon points="94.06 110.11 91.88 113.91 96.25 113.91" fill="#ddd"/>
<polygon points="98.44 110.11 96.25 113.91 100.63 113.91" fill="#ddd"/>
<polygon points="91.88 113.91 89.69 117.7 94.06 117.7" fill="#ddd"/>
<polygon points="89.69 117.7 87.5 121.5 91.88 121.5" fill="#ddd"/>
<polygon points="94.06 117.7 91.88 121.5 96.25 121.5" fill="#ddd"/>
<polygon points="100.63 113.91 98.44 117.7 102.81 117.7" fill="#ddd"/>
<polygon points="98.44 117.7 96.25 121.5 100.63 121.5" fill="#ddd"/>
<polygon points="102.81 117.7 100.63 121.5 105 121.5" fill="#ddd"/>
<polygon points="122.5 91.13 120.31 94.92 124.69 94.92" fill="#ddd"/>
<polygon points="120.31 94.92 118.13 98.72 122.5 98.72" fill="#ddd"/>
<polygon points="124.69 94.92 122.5 98.72 126.88 98.72" fill="#ddd"/>
<polygon points="118.13 98.72 115.94 102.52 120.31 102.52" fill="#ddd"/>
<polygon points="115.94 102.52 113.75 106.31 118.13 106.31" fill="#ddd"/>
<polygon points="120.31 102.52 118.13 106.31 122.5 106.31" fill="#ddd"/>
<polygon points="126.88 98.72 124.69 102.52 129.06 102.52" fill="#ddd"/>
<polygon points="124.69 102.52 122.5 106.31 126.88 106.31" fill="#ddd"/>
<polygon points="129.06 102.52 126.88 106.31 131.25 106.31" fill="#ddd"/>
<polygon points="113.75 106.31 111.56 110.11 115.94 110.11" fill="#ddd"/>
<polygon points="111.56 110.11 109.38 113.91 113.75 113.91" fill="#ddd"/>
<polygon points="115.94 110.11 113.75 113.91 118.13 113.91" fill="#ddd"/>
<polygon points="109.38 113.91 107.19 117.7 111.56 117.7" fill="#ddd"/>
<polygon points="107.19 117.7 105 121.5 109.38 121.5" fill="#ddd"/>
<polygon points="111.56 117.7 109.38 121.5 113.75 121.5" fill="#ddd"/>
<polygon points="118.13 113.91 115.94 117.7 120.31 117.7" fill="#ddd"/>
<polygon points="115.94 117.7 113.75 121.5 118.13 121.5" fill="#ddd"/>
<polygon points="120.31 117.7 118.13 121.5 122.5 121.5" fill="#ddd"/>
<polygon points="131.25 106.31 129.06 110.11 133.44 110.11" fill="#ddd"/>
<polygon points="129.06 110.11 126.88 113.91 131.25 113.91" fill="#ddd"/>
<polygon points="133.44 110.11 131.25 113.91 135.63 113.91" fill="#ddd"/>
<polygon points="126.88 113.91 124.69 117.7 129.06 117.7" fill="#ddd"/>
<polygon points="124.69 117.7 122.5 121.5 126.88 121.5" fill="#ddd"/>
<polygon points="129.06 117.7 126.88 121.5 131.25 121.5" fill="#ddd"/>
<polygon points="135.63 113.91 133.44 117.7 137.81 117.7" fill="#ddd"/>
<polygon points="133.44 117.7 131.25 121.5 135.63 121.5" fill="#ddd"/>
<polygon points="137.81 117.7 135.63 121.5 140 121.5" fill="#ddd"/>
<polygon points="175 60.75 172.81 64.55 177.19 64.55" fill="#ddd"/>
<polygon points="172.81 64.55 170.63 68.34 175 68.34" fill="#ddd"/>
<polygon points="177.19 64.55 175 68.34 179.38 68.34" fill="#ddd"/>
<polygon points="170.63 68.34 168.44 72.14 172.81 72.14" fill="#ddd"/>
<polygon points="168.44 72.14 166.25 75.94 170.63 75.94" fill="#ddd"/>
<polygon points="172.81 72.14 170.63 75.94 175 75.94" fill="#ddd"/>
<polygon points="179.38 68.34 177.19 72.14 181.56 72.14" fill="#ddd"/>
<polygon points="177.19 72.14 175 75.94 179.38 75.94" fill="#ddd"/>
<polygon points="181.56 72.14 179.38 75.94 183.75 75.94" fill="#ddd"/>
<polygon points="166.25 75.94 164.06 79.73 168.44 79.73" fill="#ddd"/>
<polygon points="164.06 79.73 161.88 83.53 166.25 83.53" fill="#ddd"/>
<polygon points="168.44 79.73 166.25 83.53 170.63 83.53" fill="#ddd"/>
<polygon points="161.88 83.53 159.69 87.33 164.06 87.33" fill="#ddd"/>
<polygon points="159.69 87.33 157.5 91.13 161.88 91.13" fill="#ddd"/>
<polygon points="164.06 87.33 161.88 91.13 166.25 91.13" fill="#ddd"/>
<polygon points="170.63 83.53 168.44 87.33 172.81 87.33" fill="#ddd"/>
<polygon points="168.44 87.33 166.25 91.13 170.63 91.13" fill="#ddd"/>
<polygon points="172.81 87.33 170.63 91.13 175 91.13" fill="#ddd"/>
<polygon points="183.75 75.94 181.56 79.73 185.94 79.73" fill="#ddd"/>
<polygon points="181.56 79.73 179.38 83.53 183.75 83.53" fill="#ddd"/>
<polygon points="185.94 79.73 183.75 83.53 188.13 83.53" fill="#ddd"/>
<polygon points="179.38 83.53 177.19 87.33 181.56 87.33" fill="#ddd"/>
<polygon points="177.19 87.33 175 91.13 179.38 91.13" fill="#ddd"/>
<polygon points="181.56 87.33 179.38 91.13 183.75 91.13" fill="#ddd"/>
<polygon points="188.13 83.53 185.94 87.33 190.31 87.33" fill="#ddd"/>
<polygon points="185.94 87.33 183.75 91.13 188.13 91.13" fill="#ddd"/>
<polygon points="190.31 87.33 188.13 91.13 192.5 91.13" fill="#ddd"/>
<polygon points="157.5 91.13 155.31 94.92 159.69 94.92" fill="#ddd"/>
<polygon points="155.31 94.92 153.13 98.72 157.5 98.72" fill="#ddd"/>
<polygon points="159.69 94.92 157.5 98.72 161.88 98.72" fill="#ddd"/>
<polygon points="153.13 98.72 150.94 102.52 155.31 102.52" fill="#ddd"/>
<polygon points="150.94 102.52 148.75 106.31 153.13 106.31" fill="#ddd"/>
<polygon points="155.31 102.52 153.13 106.31 157.5 106.31" fill="#ddd"/>
<polygon points="161.88 98.72 159.69 102.52 164.06 102.52" fill="#ddd"/>
<polygon points="159.69 102.52 157.5 106.31 161.88 106.31" fill="#ddd"/>
<polygon points="164.06 102.52 161.88 106.31 166.25 106.31" fill="#ddd"/>
<polygon points="148.75 106.31 146.56 110.11 150.94 110.11" fill="#ddd"/>
<polygon points="146.56 110.11 144.38 113.91 148.75 113.91" fill="#ddd"/>
<polygon points="150.94 110.11 148.75 113.91 153.13 113.91" fill="#ddd"/>
<polygon points="144.38 113.91 142.19 117.7 146.56 117.7" fill="#ddd"/>
<polygon points="142.19 117.7 140 121.5 144.38 121.5" fill="#ddd"/>
<polygon points="146.56 117.7 144.38 121.5 148.75 121.5" fill="#ddd"/>
<polygon points="153.13 113.91 150.94 117.7 155.31 117.7" fill="#ddd"/>
<polygon points="150.94 117.7 148.75 121.5 153.13 121.5" fill="#ddd"/>
<polygon points="155.31 117.7 153.13 121.5 157.5 121.5" fill="#ddd"/>
<polygon points="166.25 106.31 164.06 110.11 168.44 110.11" fill="#ddd"/>
<polygon points="164.06 110.11 161.88 113.91 166.25 113.91" fill="#ddd"/>
<polygon points="168.44 110.11 166.25 113.91 170.63 113.91" fill="#ddd"/>
<polygon points="161.88 113.91 159.69 117.7 164.06 117.7" fill="#ddd"/>
<polygon points="159.69 117.7 157.5 121.5 161.88 121.5" fill="#ddd"/>
<polygon points="164.06 117.7 161.88 121.5 166.25 121.5" fill="#ddd"/>
<polygon points="170.63 113.91 168.44 117.7 172.81 117.7" fill="#ddd"/>
<polygon points="168.44 117.7 166.25 121.5 170.63 121.5" fill="#ddd"/>
<polygon points="172.81 117.7 170.63 121.5 175 121.5" fill="#ddd"/>
<polygon points="192.5 91.13 190.31 94.92 194.69 94.92" fill="#ddd"/>
<polygon points="190.31 94.92 188.13 98.72 192.5 98.72" fill="#ddd"/>
<polygon points="194.69 94.92 192.5 98.72 196.88 98.72" fill="#ddd"/>
<polygon points="188.13 98.72 185.94 102.52 190.31 102.52" fill="#ddd"/>
<polygon points="185.94 102.52 183.75 106.31 188.13 106.31" fill="#ddd"/>
<polygon points="190.31 102.52 188.13 106.31 192.5 106.31" fill="#ddd"/>
<polygon points="196.88 98.72 194.69 102.52 199.06 102.52" fill="#ddd"/>
<polygon points="194.69 102.52 192.5 106.31 196.88 106.31" fill="#ddd"/>
<polygon points="199.06 102.52 196.88 106.31 201.25 106.31" fill="#ddd"/>
<polygon points="183.75 106.31 181.56 110.11 185.94 110.11" fill="#ddd"/>
<polygon points="181.56 110.11 179.38 113.91 183.75 113.91" fill="#ddd"/>
<polygon points="185.94 110.11 183.75 113.91 188.13 113.91" fill="#ddd"/>
<polygon points="179.38 113.91 177.19 117.7 181.56 117.7" fill="#ddd"/>
<polygon points="177.19 117.7 175 121.5 179.38 121.5" fill="#ddd"/>
<polygon points="181.56 117.7 179.38 121.5 183.75 121.5" fill="#ddd"/>
<polygon points="188.13 113.91 185.94 117.7 190.31 117.7" fill="#ddd"/>
<polygon points="185.94 117.7 183.75 121.5 188.13 121.5" fill="#ddd"/>
<polygon points="190.31 117.7 188.13 121.5 192.5 121.5" fill="#ddd"/>
<polygon points="201.25 106.31 199.06 110.11 203.44 110.11" fill="#ddd"/>
<polygon points="199.06 110.11 196.88 113.91 201.25 113.91" fill="#ddd"/>
<polygon points="203.44 110.11 201.25 113.91 205.63 113.91" fill="#ddd"/>
<polygon points="196.88 113.91 194.69 117.7 199.06 117.7" fill="#ddd"/>
<polygon points="194.69 117.7 192.5 121.5 196.88 121.5" fill="#ddd"/>
<polygon points="199.06 117.7 196.88 121.5 201.25 121.5" fill="#ddd"/>
<polygon points="205.63 113.91 203.44 117.7 207.81 117.7" fill="#ddd"/>
<polygon points="203.44 117.7 201.25 121.5 205.63 121.5" fill="#ddd"/>
<polygon points="207.81 117.7 205.63 121.5 210 121.5" fill="#ddd"/>
<polygon points="70 121.5 67.81 125.3 72.19 125.3" fill="#ddd"/>
<polygon points="67.81 125.3 65.63 129.09 70 129.09" fill="#ddd"/>
<polygon points="72.19 125.3 70 129.09 74.38 129.09" fill="#ddd"/>
<polygon points="65.63 129.09 63.44 132.89 67.81 132.89" fill="#ddd"/>
<polygon points="63.44 132.89 61.25 136.69 65.63 136.69" fill="#ddd"/>
<polygon points="67.81 132.89 65.63 136.69 70 136.69" fill="#ddd"/>
<polygon points="74.38 129.09 72.19 132.89 76.56 132.89" fill="#ddd"/>
<polygon points="72.19 132.89 70 136.69 74.38 136.69" fill="#ddd"/>
<polygon points="76.56 132.89 74.38 136.69 78.75 136.69" fill="#ddd"/>
<polygon points="61.25 136.69 59.06 140.48 63.44 140.48" fill="#ddd"/>
<polygon points="59.06 140.48 56.88 144.28 61.25 144.28" fill="#ddd"/>
<polygon points="63.44 140.48 61.25 144.28 65.63 144.28" fill="#ddd"/>
<polygon points="56.88 144.28 54.69 148.08 59.06 148.08" fill="#ddd"/>
<polygon points="54.69 148.08 52.5 151.88 56.88 151.88" fill="#ddd"/>
<polygon points="59.06 148.08 56.88 151.88 61.25 151.88" fill="#ddd"/>
<polygon points="65.63 144.28 63.44 148.08 67.81 148.08" fill="#ddd"/>
<polygon points="63.44 148.08 61.25 151.88 65.63 151.88" fill="#ddd"/>
<polygon points="67.81 148.08 65.63 151.88 70 151.88" fill="#ddd"/>
<polygon points="78.75 136.69 76.56 140.48 80.94 140.48" fill="#ddd"/>
<polygon points="76.56 140.48 74.38 144.28 78.75 144.28" fill="#ddd"/>
<polygon points="80.94 140.48 78.75 144.28 83.13 144.28" fill="#ddd"/>
<polygon points="74.38 144.28 72.19 148.08 76.56 148.08" fill="#ddd"/>
<polygon points="72.19 148.08 70 151.88 74.38 151.88" fill="#ddd"/>
<polygon points="76.56 148.08 74.38 151.88 78.75 151.88" fill="#ddd"/>
<polygon points="83.13 144.28 80.94 148.08 85.31 148.08" fill="#ddd"/>
<polygon points="80.94 148.08 78.75 151.88 83.13 151.88" fill="#ddd"/>
<polygon points="85.31 148.08 83.13 151.88 87.5 151.88" fill="#ddd"/>
<polygon points="52.5 151.88 50.31 155.67 54.69 155.67" fill="#ddd"/>
<polygon points="50.31 155.67 48.13 159.47 52.5 159.47" fill="#ddd"/>
<polygon points="54.69 155.67 52.5 159.47 56.88 159.47" fill="#ddd"/>
<polygon points="48.13 159.47 45.94 163.27 50.31 163.27" fill="#ddd"/>
<polygon points="45.94 163.27 43.75 167.06 48.13 167.06" fill="#ddd"/>
<polygon points="50.31 163.27 48.13 167.06 52.5 167.06" fill="#ddd"/>
<polygon points="56.88 159.47 54.69 163.27 59.06 163.27" fill="#ddd"/>
<polygon points="54.69 163.27 52.5 167.06 56.88 167.06" fill="#ddd"/>
<polygon points="59.06 163.27 56.88 167.06 61.25 167.06" fill="#ddd"/>
<polygon points="43.75 167.06 41.56 170.86 45.94 170.86" fill="#ddd"/>
<polygon points="41.56 170.86 39.38 174.66 43.75 174.66" fill="#ddd"/>
<polygon points="45.94 170.86 43.75 174.66 48.13 174.66" fill="#ddd"/>
<polygon points="39.38 174.66 37.19 178.45 41.56 178.45" fill="#ddd"/>
<polygon points="37.19 178.45 35 182.25 39.38 182.25" fill="#ddd"/>
<polygon points="41.56 178.45 39.38 182.25 43.75 182.25" fill="#ddd"/>
<polygon points="48.13 174.66 45.94 178.45 50.31 178.45" fill="#ddd"/>
<polygon points="45.94 178.45 43.75 182.25 48.13 182.25" fill="#ddd"/>
<polygon points="50.31 178.45 48.13 182.25 52.5 182.25" fill="#ddd"/>
<polygon points="61.25 167.06 59.06 170.86 63.44 170.86" fill="#ddd"/>
<polygon points="59.06 170.86 56.88 174.66 61.25 174.66" fill="#ddd"/>
<polygon points="63.44 170.86 61.25 174.66 65.63 174.66" fill="#ddd"/>
<polygon points="56.88 174.66 54.69 178.45 59.06 178.45" fill="#ddd"/>
<polygon points="54.69 178.45 52.5 182.25 56.88 182.25" fill="#ddd"/>
<polygon points="59.06 178.45 56.88 182.25 61.25 182.25" fill="#ddd"/>
<polygon points="65.63 174.66 63.44 178.45 67.81 178.45" fill="#ddd"/>
<polygon points="63.44 178.45 61.25 182.25 65.63 182.25" fill="#ddd"/>
<polygon points="67.81 178.45 65.63 182.25 70 182.25" fill="#ddd"/>
<polygon points="87.5 151.88 85.31 155.67 89.69 155.67" fill="#ddd"/>
<polygon points="85.31 155.67 83.13 159.47 87.5 159.47" fill="#ddd"/>
<polygon points="89.69 155.67 87.5 159.47 91.88 159.47" fill="#ddd"/>
<polygon points="83.13 159.47 80.94 163.27 85.31 163.27" fill="#ddd"/>
<polygon points="80.94 163.27 78.75 167.06 83.13 167.06" fill="#ddd"/>
<polygon points="85.31 163.27 83.13 167.06 87.5 167.06" fill="#ddd"/>
<polygon points="91.88 159.47 89.69 163.27 94.06 163.27" fill="#ddd"/>
<polygon points="89.69 163.27 87.5 167.06 91.88 167.06" fill="#ddd"/>
<polygon points="94.06 163.27 91.88 167.06 96.25 167.06" fill="#ddd"/>
<polygon points="78.75 167.06 76.56 170.86 80.94 170.86" fill="#ddd"/>
<polygon points="76.56 170.86 74.38 174.66 78.75 174.66" fill="#ddd"/>
<polygon points="80.94 170.86 78.75 174.66 83.13 174.66" fill="#ddd"/>
<polygon points="74.38 174.66 72.19 178.45 76.56 178.45" fill="#ddd"/>
<polygon points="72.19 178.45 70 182.25 74.38 182.25" fill="#ddd"/>
<polygon points="76.56 178.45 74.38 182.25 78.75 182.25" fill="#ddd"/>
<polygon points="83.13 174.66 80.94 178.45 85.31 178.45" fill="#ddd"/>
<polygon points="80.94 178.45 78.75 182.25 83.13 182.25" fill="#ddd"/>
<polygon points="85.31 178.45 83.13 182.25 87.5 182.25" fill="#ddd"/>
<polygon points="96.25 167.06 94.06 170.86 98.44 170.86" fill="#ddd"/>
<polygon points="94.06 170.86 91.88 174.66 96.25 174.66" fill="#ddd"/>
<polygon points="98.44 170.86 96.25 174.66 100.63 174.66" fill="#ddd"/>
<polygon points="91.88 174.66 89.69 178.45 94.06 178.45" fill="#ddd"/>
<polygon points="89.69 178.45 87.5 182.25 91.88 182.25" fill="#ddd"/>
<polygon points="94.06 178.45 91.88 182.25 96.25 182.25" fill="#ddd"/>
<polygon points="100.63 174.66 98.44 178.45 102.81 178.45" fill="#ddd"/>
<polygon points="98.44 178.45 96.25 182.25 100.63 182.25" fill="#ddd"/>
<polygon points="102.81 178.45 100.63 182.25 105 182.25" fill="#ddd"/>
<polygon points="35 182.25 32.81 186.05 37.19 186.05" fill="#ddd"/>
<polygon points="32.81 186.05 30.63 189.84 35 189.84" fill="#ddd"/>
<polygon points="37.19 186.05 35 189.84 39.38 189.84" fill="#ddd"/>
<polygon points="30.63 189.84 28.44 193.64 32.81 193.64" fill="#ddd"/>
<polygon points="28.44 193.64 26.25 197.44 30.63 197.44" fill="#ddd"/>
<polygon points="32.81 193.64 30.63 197.44 35 197.44" fill="#ddd"/>
<polygon points="39.38 189.84 37.19 193.64 41.56 193.64" fill="#ddd"/>
<polygon points="37.19 193.64 35 197.44 39.38 197.44" fill="#ddd"/>
<polygon points="41.56 193.64 39.38 197.44 43.75 197.44" fill="#ddd"/>
<polygon points="26.25 197.44 24.06 201.23 28.44 201.23" fill="#ddd"/>
<polygon points="24.06 201.23 21.88 205.03 26.25 205.03" fill="#ddd"/>
<polygon points="28.44 201.23 26.25 205.03 30.63 205.03" fill="#ddd"/>
<polygon points="21.88 205.03 19.69 208.83 24.06 208.83" fill="#ddd"/>
<polygon points="19.69 208.83 17.5 212.63 21.88 212.63" fill="#ddd"/>
<polygon points="24.06 208.83 21.88 212.63 26.25 212.63" fill="#ddd"/>
<polygon points="30.63 205.03 28.44 208.83 32.81 208.83" fill="#ddd"/>
<polygon points="28.44 208.83 26.25 212.63 30.63 212.63" fill="#ddd"/>
<polygon points="32.81 208.83 30.63 212.63 35 212.63" fill="#ddd"/>
<polygon points="43.75 197.44 41.56 201.23 45.94 201.23" fill="#ddd"/>
<polygon points="41.56 201.23 39.38 205.03 43.75 205.03" fill="#ddd"/>
<polygon points="45.94 201.23 43.75 205.03 48.13 205.03" fill="#ddd"/>
<polygon points="39.38 205.03 37.19 208.83 41.56 208.83" fill="#ddd"/>
<polygon points="37.19 208.83 35 212.63 39.38 212.63" fill="#ddd"/>
<polygon points="41.56 208.83 39.38 212.63 43.75 212.63" fill="#ddd"/>
<polygon points="48.13 205.03 45.94 208.83 50.31 208.83" fill="#ddd"/>
<polygon points="45.94 208.83 43.75 212.63 48.13 212.63" fill="#ddd"/>
<polygon points="50.31 208.83 48.13 212.63 52.5 212.63" fill="#ddd"/>
<polygon points="17.5 212.63 15.31 216.42 19.69 216.42" fill="#ddd"/>
<polygon points="15.31 216.42 13.13 220.22 17.5 220.22" fill="#ddd"/>
<polygon points="19.69 216.42 17.5 220.22 21.88 220.22" fill="#ddd"/>
<polygon points="13.13 220.22 10.94 224.02 15.31 224.02" fill="#ddd"/>
<polygon points="10.94 224.02 8.75 227.81 13.13 227.81" fill="#ddd"/>
<polygon points="15.31 224.02 13.13 227.81 17.5 227.81" fill="#ddd"/>
<polygon points="21.88 220.22 19.69 224.02 24.06 224.02" fill="#ddd"/>
<polygon points="19.69 224.02 17.5 227.81 21.88 227.81" fill="#ddd"/>
<polygon points="24.06 224.02 21.88 227.81 26.25 227.81" fill="#ddd"/>
<polygon points="8.75 227.81 6.56 231.61 10.94 231.61" fill="#ddd"/>
<polygon points="6.56 231.61 4.38 235.41 8.75 235.41" fill="#ddd"/>
<polygon points="10.94 231.61 8.75 235.41 13.13 235.41" fill="#ddd"/>
<polygon points="4.38 235.41 2.19 239.2 6.56 239.2" fill="#ddd"/>
<polygon points="2.19 239.2 0 243 4.38 243" fill="#ddd"/>
<polygon points="6.56 239.2 4.38 243 8.75 243" fill="#ddd"/>
<polygon points="13.13 235.41 10.94 239.2 15.31 239.2" fill="#ddd"/>
<polygon points="10.94 239.2 8.75 243 13.13 243" fill="#ddd"/>
<polygon points="15.31 239.2 13.13 243 17.5 243" fill="#ddd"/>
<polygon points="26.25 227.81 24.06 231.61 28.44 231.61" fill="#ddd"/>
<polygon points="24.06 231.61 21.88 235.41 26.25 235.41" fill="#ddd"/>
<polygon points="28.44 231.61 26.25 235.41 30.63 235.41" fill="#ddd"/>
<polygon points="21.88 235.41 19.69 239.2 24.06 239.2" fill="#ddd"/>
<polygon points="19.69 239.2 17.5 243 21.88 243" fill="#ddd"/>
<polygon points="24.06 239.2 21.88 243 26.25 243" fill="#ddd"/>
<polygon points="30.63 235.41 28.44 239.2 32.81 239.2" fill="#ddd"/>
<polygon points="28.44 239.2 26.25 243 30.63 243" fill="#ddd"/>
<polygon points="32.81 239.2 30.63 243 35 243" fill="#ddd"/>
<polygon points="52.5 212.63 50.31 216.42 54.69 216.42" fill="#ddd"/>
<polygon points="50.31 216.42 48.13 220.22 52.5 220.22" fill="#ddd"/>
<polygon points="54.69 216.42 52.5 220.22 56.88 220.22" fill="#ddd"/>
<polygon points="48.13 220.22 45.94 224.02 50.31 224.02" fill="#ddd"/>
<polygon points="45.94 224.02 43.75 227.81 48.13 227.81" fill="#ddd"/>
<polygon points="50.31 224.02 48.13 227.81 52.5 227.81" fill="#ddd"/>
<polygon points="56.88 220.22 54.69 224.02 59.06 224.02" fill="#ddd"/>
<polygon points="54.69 224.02 52.5 227.81 56.88 227.81" fill="#ddd"/>
<polygon points="59.06 224.02 56.88 227.81 61.25 227.81" fill="#ddd"/>
<polygon points="43.75 227.81 41.56 231.61 45.94 231.61" fill="#ddd"/>
<polygon points="41.56 231.61 39.38 235.41 43.75 235.41" fill="#ddd"/>
<polygon points="45.94 231.61 43.75 235.41 48.13 235.41" fill="#ddd"/>
<polygon points="39.38 235.41 37.19 239.2 41.56 239.2" fill="#ddd"/>
<polygon points="37.19 239.2 35 243 39.38 243" fill="#ddd"/>
<polygon points="41.56 239.2 39.38 243 43.75 243" fill="#ddd"/>
<polygon points="48.13 235.41 45.94 239.2 50.31 239.2" fill="#ddd"/>
<polygon points="45.94 239.2 43.75 243 48.13 243" fill="#ddd"/>
<polygon points="50.31 239.2 48.13 243 52.5 243" fill="#ddd"/>
<polygon points="61.25 227.81 59.06 231.61 63.44 231.61" fill="#ddd"/>
<polygon points="59.06 231.61 56.88 235.41 61.25 235.41" fill="#ddd"/>
<polygon points="63.44 231.61 61.25 235.41 65.63 235.41" fill="#ddd"/>
<polygon points="56.88 235.41 54.69 239.2 59.06 239.2" fill="#ddd"/>
<polygon points="54.69 239.2 52.5 243 56.88 243" fill="#ddd"/>
<polygon points="59.06 239.2 56.88 243 61.25 243" fill="#ddd"/>
<polygon points="65.63 235.41 63.44 239.2 67.81 239.2" fill="#ddd"/>
<polygon points="63.44 239.2 61.25 243 65.63 243" fill="#ddd"/>
<polygon points="67.81 239.2 65.63 243 70 243" fill="#ddd"/>
<polygon points="105 182.25 102.81 186.05 107.19 186.05" fill="#ddd"/>
<polygon points="102.81 186.05 100.63 189.84 105 189.84" fill="#ddd"/>
<polygon points="107.19 186.05 105 189.84 109.38 189.84" fill="#ddd"/>
<polygon points="100.63 189.84 98.44 193.64 102.81 193.64" fill="#ddd"/>
<polygon points="98.44 193.64 96.25 197.44 100.63 197.44" fill="#ddd"/>
<polygon points="102.81 193.64 100.63 197.44 105 197.44" fill="#ddd"/>
<polygon points="109.38 189.84 107.19 193.64 111.56 193.64" fill="#ddd"/>
<polygon points="107.19 193.64 105 197.44 109.38 197.44" fill="#ddd"/>
<polygon points="111.56 193.64 109.38 197.44 113.75 197.44" fill="#ddd"/>
<polygon points="96.25 197.44 94.06 201.23 98.44 201.23" fill="#ddd"/>
<polygon points="94.06 201.23 91.88 205.03 96.25 205.03" fill="#ddd"/>
<polygon points="98.44 201.23 96.25 205.03 100.63 205.03" fill="#ddd"/>
<polygon points="91.88 205.03 89.69 208.83 94.06 208.83" fill="#ddd"/>
<polygon points="89.69 208.83 87.5 212.63 91.88 212.63" fill="#ddd"/>
<polygon points="94.06 208.83 91.88 212.63 96.25 212.63" fill="#ddd"/>
<polygon points="100.63 205.03 98.44 208.83 102.81 208.83" fill="#ddd"/>
<polygon points="98.44 208.83 96.25 212.63 100.63 212.63" fill="#ddd"/>
<polygon points="102.81 208.83 100.63 212.63 105 212.63" fill="#ddd"/>
<polygon points="113.75 197.44 111.56 201.23 115.94 201.23" fill="#ddd"/>
<polygon points="111.56 201.23 109.38 205.03 113.75 205.03" fill="#ddd"/>
<polygon points="115.94 201.23 113.75 205.03 118.13 205.03" fill="#ddd"/>
<polygon points="109.38 205.03 107.19 208.83 111.56 208.83" fill="#ddd"/>
<polygon points="107.19 208.83 105 212.63 109.38 212.63" fill="#ddd"/>
<polygon points="111.56 208.83 109.38 212.63 113.75 212.63" fill="#ddd"/>
<polygon points="118.13 205.03 115.94 208.83 120.31 208.83" fill="#ddd"/>
<polygon points="115.94 208.83 113.75 212.63 118.13 212.63" fill="#ddd"/>
<polygon points="120.31 208.83 118.13 212.63 122.5 212.63" fill="#ddd"/>
<polygon points="87.5 212.63 85.31 216.42 89.69 216.42" fill="#ddd"/>
<polygon points="85.31 216.42 83.13 220.22 87.5 220.22" fill="#ddd"/>
<polygon points="89.69 216.42 87.5 220.22 91.88 220.22" fill="#ddd"/>
<polygon points="83.13 220.22 80.94 224.02 85.31 224.02" fill="#ddd"/>
<polygon points="80.94 224.02 78.75 227.81 83.13 227.81" fill="#ddd"/>
<polygon points="85.31 224.02 83.13 227.81 87.5 227.81" fill="#ddd"/>
<polygon points="91.88 220.22 89.69 224.02 94.06 224.02" fill="#ddd"/>
<polygon points="89.69 224.02 87.5 227.81 91.88 227.81" fill="#ddd"/>
<polygon points="94.06 224.02 91.88 227.81 96.25 227.81" fill="#ddd"/>
<polygon points="78.75 227.81 76.56 231.61 80.94 231.61" fill="#ddd"/>
<polygon points="76.56 231.61 74.38 235.41 78.75 235.41" fill="#ddd"/>
<polygon points="80.94 231.61 78.75 235.41 83.13 235.41" fill="#ddd"/>
<polygon points="74.38 235.41 72.19 239.2 76.56 239.2" fill="#ddd"/>
<polygon points="72.19 239.2 70 243 74.38 243" fill="#ddd"/>
<polygon points="76.56 239.2 74.38 243 78.75 243" fill="#ddd"/>
<polygon points="83.13 235.41 80.94 239.2 85.31 239.2" fill="#ddd"/>
<polygon points="80.94 239.2 78.75 243 83.13 243" fill="#ddd"/>
<polygon points="85.31 239.2 83.13 243 87.5 243" fill="#ddd"/>
<polygon points="96.25 227.81 94.06 231.61 98.44 231.61" fill="#ddd"/>
<polygon points="94.06 231.61 91.88 235.41 96.25 235.41" fill="#ddd"/>
<polygon points="98.44 231.61 96.25 235.41 100.63 235.41" fill="#ddd"/>
<polygon points="91.88 235.41 89.69 239.2 94.06 239.2" fill="#ddd"/>
<polygon points="89.69 239.2 87.5 243 91.88 243" fill="#ddd"/>
<polygon points="94.06 239.2 91.88 243 96.25 243" fill="#ddd"/>
<polygon points="100.63 235.41 98.44 239.2 102.81 239.2" fill="#ddd"/>
<polygon points="98.44 239.2 96.25 243 100.63 243" fill="#ddd"/>
<polygon points="102.81 239.2 100.63 243 105 243" fill="#ddd"/>
<polygon points="122.5 212.63 120.31 216.42 124.69 216.42" fill="#ddd"/>
<polygon points="120.31 216.42 118.13 220.22 122.5 220.22" fill="#ddd"/>
<polygon points="124.69 216.42 122.5 220.22 126.88 220.22" fill="#ddd"/>
<polygon points="118.13 220.22 115.94 224.02 120.31 224.02" fill="#ddd"/>
<polygon points="115.94 224.02 113.75 227.81 118.13 227.81" fill="#ddd"/>
<polygon points="120.31 224.02 118.13 227.81 122.5 227.81" fill="#ddd"/>
<polygon points="126.88 220.22 124.69 224.02 129.06 224.02" fill="#ddd"/>
<polygon points="124.69 224.02 122.5 227.81 126.88 227.81" fill="#ddd"/>
<polygon points="129.06 224.02 126.88 227.81 131.25 227.81" fill="#ddd"/>
<polygon points="113.75 227.81 111.56 231.61 115.94 231.61" fill="#ddd"/>
<polygon points="111.56 231.61 109.38 235.41 113.75 235.41" fill="#ddd"/>
<polygon points="115.94 231.61 113.75 235.41 118.13 235.41" fill="#ddd"/>
<polygon points="109.38 235.41 107.19 239.2 111.56 239.2" fill="#ddd"/>
<polygon points="107.19 239.2 105 243 109.38 243" fill="#ddd"/>
<polygon points="111.56 239.2 109.38 243 113.75 243" fill="#ddd"/>
<polygon points="118.13 235.41 115.94 239.2 120.31 239.2" fill="#ddd"/>
<polygon points="115.94 239.2 113.75 243 118.13 243" fill="#ddd"/>
<polygon points="120.31 239.2 118.13 243 122.5 243" fill="#ddd"/>
<polygon points="131.25 227.81 129.06 231.61 133.44 231.61" fill="#ddd"/>
<polygon points="129.06 231.61 126.88 235.41 131.25 235.41" fill="#ddd"/>
<polygon points="133.44 231.61 131.25 235.41 135.63 235.41" fill="#ddd"/>
<polygon points="126.88 235.41 124.69 239.2 129.06 239.2" fill="#ddd"/>
<polygon points="124.69 239.2 122.5 243 126.88 243" fill="#ddd"/>
<polygon points="129.06 239.2 126.88 243 131.25 243" fill="#ddd"/>
<polygon points="135.63 235.41 133.44 239.2 137.81 239.2" fill="#ddd"/>
<polygon points="133.44 239.2 131.25 243 135.63 243" fill="#ddd"/>
<polygon points="137.81 239.2 135.63 243 140 243" fill="#ddd"/>
<polygon points="210 121.5 207.81 125.3 212.19 125.3" fill="#ddd"/>
<polygon points="207.81 125.3 205.63 129.09 210 129.09" fill="#ddd"/>
<polygon points="212.19 125.3 210 129.09 214.38 129.09" fill="#ddd"/>
<polygon points="205.63 129.09 203.44 132.89 207.81 132.89" fill="#ddd"/>
<polygon points="203.44 132.89 201.25 136.69 205.63 136.69" fill="#ddd"/>
<polygon points="207.81 132.89 205.63 136.69 210 136.69" fill="#ddd"/>
<polygon points="214.38 129.09 212.19 132.89 216.56 132.89" fill="#ddd"/>
<polygon points="212.19 132.89 210 136.69 214.38 136.69" fill="#ddd"/>
<polygon points="216.56 132.89 214.38 136.69 218.75 136.69" fill="#ddd"/>
<polygon points="201.25 136.69 199.06 140.48 203.44 140.48" fill="#ddd"/>
<polygon points="199.06 140.48 196.88 144.28 201.25 144.28" fill="#ddd"/>
<polygon points="203.44 140.48 201.25 144.28 205.63 144.28" fill="#ddd"/>
<polygon points="196.88 144.28 194.69 148.08 199.06 148.08" fill="#ddd"/>
<polygon points="194.69 148.08 192.5 151.88 196.88 151.88" fill="#ddd"/>
<polygon points="199.06 148.08 196.88 151.88 201.25 151.88" fill="#ddd"/>
<polygon points="205.63 144.28 203.44 148.08 207.81 148.08" fill="#ddd"/>
<polygon points="203.44 148.08 201.25 151.88 205.63 151.88" fill="#ddd"/>
<polygon points="207.81 148.08 205.63 151.88 210 151.88" fill="#ddd"/>
<polygon points="218.75 136.69 216.56 140.48 220.94 140.48" fill="#ddd"/>
<polygon points="216.56 140.48 214.38 144.28 218.75 144.28" fill="#ddd"/>
<polygon points="220.94 140.48 218.75 144.28 223.13 144.28" fill="#ddd"/>
<polygon points="214.38 144.28 212.19 148.08 216.56 148.08" fill="#ddd"/>
<polygon points="212.19 148.08 210 151.88 214.38 151.88" fill="#ddd"/>
<polygon points="216.56 148.08 214.38 151.88 218.75 151.88" fill="#ddd"/>
<polygon points="223.13 144.28 220.94 148.08 225.31 148.08" fill="#ddd"/>
<polygon points="220.94 148.08 218.75 151.88 223.13 151.88" fill="#ddd"/>
<polygon points="225.31 148.08 223.13 151.88 227.5 151.88" fill="#ddd"/>
<polygon points="192.5 151.88 190.31 155.67 194.69 155.67" fill="#ddd"/>
<polygon points="190.31 155.67 188.13 159.47 192.5 159.47" fill="#ddd"/>
<polygon points="194.69 155.67 192.5 159.47 196.88 159.47" fill="#ddd"/>
<polygon points="188.13 159.47 185.94 163.27 190.31 163.27" fill="#ddd"/>
<polygon points="185.94 163.27 183.75 167.06 188.13 167.06" fill="#ddd"/>
<polygon points="190.31 163.27 188.13 167.06 192.5 167.06" fill="#ddd"/>
<polygon points="196.88 159.47 194.69 163.27 199.06 163.27" fill="#ddd"/>
<polygon points="194.69 163.27 192.5 167.06 196.88 167.06" fill="#ddd"/>
<polygon points="199.06 163.27 196.88 167.06 201.25 167.06" fill="#ddd"/>
<polygon points="183.75 167.06 181.56 170.86 185.94 170.86" fill="#ddd"/>
<polygon points="181.56 170.86 179.38 174.66 183.75 174.66" fill="#ddd"/>
<polygon points="185.94 170.86 183.75 174.66 188.13 174.66" fill="#ddd"/>
<polygon points="179.38 174.66 177.19 178.45 181.56 178.45" fill="#ddd"/>
<polygon points="177.19 178.45 175 182.25 179.38 182.25" fill="#ddd"/>
<polygon points="181.56 178.45 179.38 182.25 183.75 182.25" fill="#ddd"/>
<polygon points="188.13 174.66 185.94 178.45 190.31 178.45" fill="#ddd"/>
<polygon points="185.94 178.45 183.75 182.25 188.13 182.25" fill="#ddd"/>
<polygon points="190.31 178.45 188.13 182.25 192.5 182.25" fill="#ddd"/>
<polygon points="201.25 167.06 199.06 170.86 203.44 170.86" fill="#ddd"/>
<polygon points="199.06 170.86 196.88 174.66 201.25 174.66" fill="#ddd"/>
<polygon points="203.44 170.86 201.25 174.66 205.63 174.66" fill="#ddd"/>
<polygon points="196.88 174.66 194.69 178.45 199.06 178.45" fill="#ddd"/>
<polygon points="194.69 178.45 192.5 182.25 196.88 182.25" fill="#ddd"/>
<polygon points="199.06 178.45 196.88 182.25 201.25 182.25" fill="#ddd"/>
<polygon points="205.63 174.66 203.44 178.45 207.81 178.45" fill="#ddd"/>
<polygon points="203.44 178.45 201.25 182.25 205.63 182.25" fill="#ddd"/>
<polygon points="207.81 178.45 205.63 182.25 210 182.25" fill="#ddd"/>
<polygon points="227.5 151.88 225.31 155.67 229.69 155.67" fill="#ddd"/>
<polygon points="225.31 155.67 223.13 159.47 227.5 159.47" fill="#ddd"/>
<polygon points="229.69 155.67 227.5 159.47 231.88 159.47" fill="#ddd"/>
<polygon points="223.13 159.47 220.94 163.27 225.31 163.27" fill="#ddd"/>
<polygon points="220.94 163.27 218.75 167.06 223.13 167.06" fill="#ddd"/>
<polygon points="225.31 163.27 223.13 167.06 227.5 167.06" fill="#ddd"/>
<polygon points="231.88 159.47 229.69 163.27 234.06 163.27" fill="#ddd"/>
<polygon points="229.69 163.27 227.5 167.06 231.88 167.06" fill="#ddd"/>
<polygon points="234.06 163.27 231.88 167.06 236.25 167.06" fill="#ddd"/>
<polygon points="218.75 167.06 216.56 170.86 220.94 170.86" fill="#ddd"/>
<polygon points="216.56 170.86 214.38 174.66 218.75 174.66" fill="#ddd"/>
<polygon points="220.94 170.86 218.75 174.66 223.13 174.66" fill="#ddd"/>
<polygon points="214.38 174.66 212.19 178.45 216.56 178.45" fill="#ddd"/>
<polygon points="212.19 178.45 210 182.25 214.38 182.25" fill="#ddd"/>
<polygon points="216.56 178.45 214.38 182.25 218.75 182.25" fill="#ddd"/>
<polygon points="223.13 174.66 220.94 178.45 225.31 178.45" fill="#ddd"/>
<polygon points="220.94 178.45 218.75 182.25 223.13 182.25" fill="#ddd"/>
<polygon points="225.31 178.45 223.13 182.25 227.5 182.25" fill="#ddd"/>
<polygon points="236.25 167.06 234.06 170.86 238.44 170.86" fill="#ddd"/>
<polygon points="234.06 170.86 231.88 174.66 236.25 174.66" fill="#ddd"/>
<polygon points="238.44 170.86 236.25 174.66 240.63 174.66" fill="#ddd"/>
<polygon points="231.88 174.66 229.69 178.45 234.06 178.45" fill="#ddd"/>
<polygon points="229.69 178.45 227.5 182.25 231.88 182.25" fill="#ddd"/>
<polygon points="234.06 178.45 231.88 182.25 236.25 182.25" fill="#ddd"/>
<polygon points="240.63 174.66 238.44 178.45 242.81 178.45" fill="#ddd"/>
<polygon points="238.44 178.45 236.25 182.25 240.63 182.25" fill="#ddd"/>
<polygon points="242.81 178.45 240.63 182.25 245 182.25" fill="#ddd"/>
<polygon points="175 182.25 172.81 186.05 177.19 186.05" fill="#ddd"/>
<polygon points="172.81 186.05 170.63 189.84 175 189.84" fill="#ddd"/>
<polygon points="177.19 186.05 175 189.84 179.38 189.84" fill="#ddd"/>
<polygon points="170.63 189.84 168.44 193.64 172.81 193.64" fill="#ddd"/>
<polygon points="168.44 193.64 166.25 197.44 170.63 197.44" fill="#ddd"/>
<polygon points="172.81 193.64 170.63 197.44 175 197.44" fill="#ddd"/>
<polygon points="179.38 189.84 177.19 193.64 181.56 193.64" fill="#ddd"/>
<polygon points="177.19 193.64 175 197.44 179.38 197.44" fill="#ddd"/>
<polygon points="181.56 193.64 179.38 197.44 183.75 197.44" fill="#ddd"/>
<polygon points="166.25 197.44 164.06 201.23 168.44 201.23" fill="#ddd"/>
<polygon points="164.06 201.23 161.88 205.03 166.25 205.03" fill="#ddd"/>
<polygon points="168.44 201.23 166.25 205.03 170.63 205.03" fill="#ddd"/>
<polygon points="161.88 205.03 159.69 208.83 164.06 208.83" fill="#ddd"/>
<polygon points="159.69 208.83 157.5 212.63 161.88 212.63" fill="#ddd"/>
<polygon points="164.06 208.83 161.88 212.63 166.25 212.63" fill="#ddd"/>
<polygon points="170.63 205.03 168.44 208.83 172.81 208.83" fill="#ddd"/>
<polygon points="168.44 208.83 166.25 212.63 170.63 212.63" fill="#ddd"/>
<polygon points="172.81 208.83 170.63 212.63 175 212.63" fill="#ddd"/>
<polygon points="183.75 197.44 181.56 201.23 185.94 201.23" fill="#ddd"/>
<polygon points="181.56 201.23 179.38 205.03 183.75 205.03" fill="#ddd"/>
<polygon points="185.94 201.23 183.75 205.03 188.13 205.03" fill="#ddd"/>
<polygon points="179.38 205.03 177.19 208.83 181.56 208.83" fill="#ddd"/>
<polygon points="177.19 208.83 175 212.63 179.38 212.63" fill="#ddd"/>
<polygon points="181.56 208.83 179.38 212.63 183.75 212.63" fill="#ddd"/>
<polygon points="188.13 205.03 185.94 208.83 190.31 208.83" fill="#ddd"/>
<polygon points="185.94 208.83 183.75 212.63 188.13 212.63" fill="#ddd"/>
<polygon points="190.31 208.83 188.13 212.63 192.5 212.63" fill="#ddd"/>
<polygon points="157.5 212.63 155.31 216.42 159.69 216.42" fill="#ddd"/>
<polygon points="155.31 216.42 153.13 220.22 157.5 220.22" fill="#ddd"/>
<polygon points="159.69 216.42 157.5 220.22 161.88 220.22" fill="#ddd"/>
<polygon points="153.13 220.22 150.94 224.02 155.31 224.02" fill="#ddd"/>
<polygon points="150.94 224.02 148.75 227.81 153.13 227.81" fill="#ddd"/>
<polygon points="155.31 224.02 153.13 227.81 157.5 227.81" fill="#ddd"/>
<polygon points="161.88 220.22 159.69 224.02 164.06 224.02" fill="#ddd"/>
<polygon points="159.69 224.02 157.5 227.81 161.88 227.81" fill="#ddd"/>
<polygon points="164.06 224.02 161.88 227.81 166.25 227.81" fill="#ddd"/>
<polygon points="148.75 227.81 146.56 231.61 150.94 231.61" fill="#ddd"/>
<polygon points="146.56 231.61 144.38 235.41 148.75 235.41" fill="#ddd"/>
<polygon points="150.94 231.61 148.75 235.41 153.13 235.41" fill="#ddd"/>
<polygon points="144.38 235.41 142.19 239.2 146.56 239.2" fill="#ddd"/>
<polygon points="142.19 239.2 140 243 144.38 243" fill="#ddd"/>
<polygon points="146.56 239.2 144.38 243 148.75 243" fill="#ddd"/>
<polygon points="153.13 235.41 150.94 239.2 155.31 239.2" fill="#ddd"/>
<polygon points="150.94 239.2 148.75 243 153.13 243" fill="#ddd"/>
<polygon points="155.31 239.2 153.13 243 157.5 243" fill="#ddd"/>
<polygon points="166.25 227.81 164.06 231.61 168.44 231.61" fill="#ddd"/>
<polygon points="164.06 231.61 161.88 235.41 166.25 235.41" fill="#ddd"/>
<polygon points="168.44 231.61 166.25 235.41 170.63 235.41" fill="#ddd"/>
<polygon points="161.88 235.41 159.69 239.2 164.06 239.2" fill="#ddd"/>
<polygon points="159.69 239.2 157.5 243 161.88 243" fill="#ddd"/>
<polygon points="164.06 239.2 161.88 243 166.25 243" fill="#ddd"/>
<polygon points="170.63 235.41 168.44 239.2 172.81 239.2" fill="#ddd"/>
<polygon points="168.44 239.2 166.25 243 170.63 243" fill="#ddd"/>
<polygon points="172.81 239.2 170.63 243 175 243" fill="#ddd"/>
<polygon points="192.5 212.63 190.31 216.42 194.69 216.42" fill="#ddd"/>
<polygon points="190.31 216.42 188.13 220.22 192.5 220.22" fill="#ddd"/>
<polygon points="194.69 216.42 192.5 220.22 196.88 220.22" fill="#ddd"/>
<polygon points="188.13 220.22 185.94 224.02 190.31 224.02" fill="#ddd"/>
<polygon points="185.94 224.02 183.75 227.81 188.13 227.81" fill="#ddd"/>
<polygon points="190.31 224.02 188.13 227.81 192.5 227.81" fill="#ddd"/>
<polygon points="196.88 220.22 194.69 224.02 199.06 224.02" fill="#ddd"/>
<polygon points="194.69 224.02 192.5 227.81 196.88 227.81" fill="#ddd"/>
<polygon points="199.06 224.02 196.88 227.81 201.25 227.81" fill="#ddd"/>
<polygon points="183.75 227.81 181.56 231.61 185.94 231.61" fill="#ddd"/>
<polygon points="181.56 231.61 179.38 235.41 183.75 235.41" fill="#ddd"/>
<polygon points="185.94 231.61 183.75 235.41 188.13 235.41" fill="#ddd"/>
<polygon points="179.38 235.41 177.19 239.2 181.56 239.2" fill="#ddd"/>
<polygon points="177.19 239.2 175 243 179.38 243" fill="#ddd"/>
<polygon points="181.56 239.2 179.38 243 183.75 243" fill="#ddd"/>
<polygon points="188.13 235.41 185.94 239.2 190.31 239.2" fill="#ddd"/>
<polygon points="185.94 239.2 183.75 243 188.13 243" fill="#ddd"/>
<polygon points="190.31 239.2 188.13 243 192.5 243" fill="#ddd"/>
<polygon points="201.25 227.81 199.06 231.61 203.44 231.61" fill="#ddd"/>
<polygon points="199.06 231.61 196.88 235.41 201.25 235.41" fill="#ddd"/>
<polygon points="203.44 231.61 201.25 235.41 205.63 235.41" fill="#ddd"/>
<polygon points="196.88 235.41 194.69 239.2 199.06 239.2" fill="#ddd"/>
<polygon points="194.69 239.2 192.5 243 196.88 243" fill="#ddd"/>
<polygon points="199.06 239.2 196.88 243 201.25 243" fill="#ddd"/>
<polygon points="205.63 235.41 203.44 239.2 207.81 239.2" fill="#ddd"/>
<polygon points="203.44 239.2 201.25 243 205.63 243" fill="#ddd"/>
<polygon points="207.81 239.2 205.63 243 210 243" fill="#ddd"/>
<polygon points="245 182.25 242.81 186.05 247.19 186.05" fill="#ddd"/>
<polygon points="242.81 186.05 240.63 189.84 245 189.84" fill="#ddd"/>
<polygon points="247.19 186.05 245 189.84 249.38 189.84" fill="#ddd"/>
<polygon points="240.63 189.84 238.44 193.64 242.81 193.64" fill="#ddd"/>
<polygon points="238.44 193.64 236.25 197.44 240.63 197.44" fill="#ddd"/>
<polygon points="242.81 193.64 240.63 197.44 245 197.44" fill="#ddd"/>
<polygon points="249.38 189.84 247.19 193.64 251.56 193.64" fill="#ddd"/>
<polygon points="247.19 193.64 245 197.44 249.38 197.44" fill="#ddd"/>
<polygon points="251.56 193.64 249.38 197.44 253.75 197.44" fill="#ddd"/>
<polygon points="236.25 197.44 234.06 201.23 238.44 201.23" fill="#ddd"/>
<polygon points="234.06 201.23 231.88 205.03 236.25 205.03" fill="#ddd"/>
<polygon points="238.44 201.23 236.25 205.03 240.63 205.03" fill="#ddd"/>
<polygon points="231.88 205.03 229.69 208.83 234.06 208.83" fill="#ddd"/>
<polygon points="229.69 208.83 227.5 212.63 231.88 212.63" fill="#ddd"/>
<polygon points="234.06 208.83 231.88 212.63 236.25 212.63" fill="#ddd"/>
<polygon points="240.63 205.03 238.44 208.83 242.81 208.83" fill="#ddd"/>
<polygon points="238.44 208.83 236.25 212.63 240.63 212.63" fill="#ddd"/>
<polygon points="242.81 208.83 240.63 212.63 245 212.63" fill="#ddd"/>
<polygon points="253.75 197.44 251.56 201.23 255.94 201.23" fill="#ddd"/>
<polygon points="251.56 201.23 249.38 205.03 253.75 205.03" fill="#ddd"/>
<polygon points="255.94 201.23 253.75 205.03 258.13 205.03" fill="#ddd"/>
<polygon points="249.38 205.03 247.19 208.83 251.56 208.83" fill="#ddd"/>
<polygon points="247.19 208.83 245 212.63 249.38 212.63" fill="#ddd"/>
<polygon points="251.56 208.83 249.38 212.63 253.75 212.63" fill="#ddd"/>
<polygon points="258.13 205.03 255.94 208.83 260.31 208.83" fill="#ddd"/>
<polygon points="255.94 208.83 253.75 212.63 258.13 212.63" fill="#ddd"/>
<polygon points="260.31 208.83 258.13 212.63 262.5 212.63" fill="#ddd"/>
<polygon points="227.5 212.63 225.31 216.42 229.69 216.42" fill="#ddd"/>
<polygon points="225.31 216.42 223.13 220.22 227.5 220.22" fill="#ddd"/>
<polygon points="229.69 216.42 227.5 220.22 231.88 220.22" fill="#ddd"/>
<polygon points="223.13 220.22 220.94 224.02 225.31 224.02" fill="#ddd"/>
<polygon points="220.94 224.02 218.75 227.81 223.13 227.81" fill="#ddd"/>
<polygon points="225.31 224.02 223.13 227.81 227.5 227.81" fill="#ddd"/>
<polygon points="231.88 220.22 229.69 224.02 234.06 224.02" fill="#ddd"/>
<polygon points="229.69 224.02 227.5 227.81 231.88 227.81" fill="#ddd"/>
<polygon points="234.06 224.02 231.88 227.81 236.25 227.81" fill="#ddd"/>
<polygon points="218.75 227.81 216.56 231.61 220.94 231.61" fill="#ddd"/>
<polygon points="216.56 231.61 214.38 235.41 218.75 235.41" fill="#ddd"/>
<polygon points="220.94 231.61 218.75 235.41 223.13 235.41" fill="#ddd"/>
<polygon points="214.38 235.41 212.19 239.2 216.56 239.2" fill="#ddd"/>
<polygon points="212.19 239.2 210 243 214.38 243" fill="#ddd"/>
<polygon points="216.56 239.2 214.38 243 218.75 243" fill="#ddd"/>
<polygon points="223.13 235.41 220.94 239.2 225.31 239.2" fill="#ddd"/>
<polygon points="220.94 239.2 218.75 243 223.13 243" fill="#ddd"/>
<polygon points="225.31 239.2 223.13 243 227.5 243" fill="#ddd"/>
<polygon points="236.25 227.81 234.06 231.61 238.44 231.61" fill="#ddd"/>
<polygon points="234.06 231.61 231.88 235.41 236.25 235.41" fill="#ddd"/>
<polygon points="238.44 231.61 236.25 235.41 240.63 235.41" fill="#ddd"/>
<polygon points="231.88 235.41 229.69 239.2 234.06 239.2" fill="#ddd"/>
<polygon points="229.69 239.2 227.5 243 231.88 243" fill="#ddd"/>
<polygon points="234.06 239.2 231.88 243 236.25 243" fill="#ddd"/>
<polygon points="240.63 235.41 238.44 239.2 242.81 239.2" fill="#ddd"/>
<polygon points="238.44 239.2 236.25 243 240.63 243" fill="#ddd"/>
<polygon points="242.81 239.2 240.63 243 245 243" fill="#ddd"/>
<polygon points="262.5 212.63 260.31 216.42 264.69 216.42" fill="#ddd"/>
<polygon points="260.31 216.42 258.13 220.22 262.5 220.22" fill="#ddd"/>
<polygon points="264.69 216.42 262.5 220.22 266.88 220.22" fill="#ddd"/>
<polygon points="258.13 220.22 255.94 224.02 260.31 224.02" fill="#ddd"/>
<polygon points="255.94 224.02 253.75 227.81 258.13 227.81" fill="#ddd"/>
<polygon points="260.31 224.02 258.13 227.81 262.5 227.81" fill="#ddd"/>
<polygon points="266.88 220.22 264.69 224.02 269.06 224.02" fill="#ddd"/>
<polygon points="264.69 224.02 262.5 227.81 266.88 227.81" fill="#ddd"/>
<polygon points="269.06 224.02 266.88 227.81 271.25 227.81" fill="#ddd"/>
<polygon points="253.75 227.81 251.56 231.61 255.94 231.61" fill="#ddd"/>
<polygon points="251.56 231.61 249.38 235.41 253.75 235.41" fill="#ddd"/>
<polygon points="255.94 231.61 253.75 235.41 258.13 235.41" fill="#ddd"/>
<polygon points="249.38 235.41 247.19 239.2 251.56 239.2" fill="#ddd"/>
<polygon points="247.19 239.2 245 243 249.38 243" fill="#ddd"/>
<polygon points="251.56 239.2 249.38 243 253.75 243" fill="#ddd"/>
<polygon points="258.13 235.41 255.94 239.2 260.31 239.2" fill="#ddd"/>
<polygon points="255.94 239.2 253.75 243 258.13 243" fill="#ddd"/>
<polygon points="260.31 239.2 258.13 243 262.5 243" fill="#ddd"/>
<polygon points="271.25 227.81 269.06 231.61 273.44 231.61" fill="#ddd"/>
<polygon points="269.06 231.61 266.88 235.41 271.25 235.41" fill="#ddd"/>
<polygon points="273.44 231.61 271.25 235.41 275.63 235.41" fill="#ddd"/>
<polygon points="266.88 235.41 264.69 239.2 269.06 239.2" fill="#ddd"/>
<polygon points="264.69 239.2 262.5 243 266.88 243" fill="#ddd"/>
<polygon points="269.06 239.2 266.88 243 271.25 243" fill="#ddd"/>
<polygon points="275.63 235.41 273.44 239.2 277.81 239.2" fill="#ddd"/>
<polygon points="273.44 239.2 271.25 243 275.63 243" fill="#ddd"/>
<polygon points="277.81 239.2 275.63 243 280 243" fill="#ddd"/>
</svg>
