<svg viewBox="0 0 280 243" xmlns="http://www.w3.org/2000/svg"><path d="m140 0-140 243h280z" fill="#b30469"/><g fill="#ddd"><path d="m140 0-2.19 3.8h4.38z"/><path d="m137.81 3.8-2.18 3.79h4.37z"/><path d="m142.19 3.8-2.19 3.79h4.38z"/><path d="m135.63 7.59-2.19 3.8h4.37z"/><path d="m133.44 11.39-2.19 3.8h4.38z"/><path d="m137.81 11.39-2.18 3.8h4.37z"/><path d="m144.38 7.59-2.19 3.8h4.37z"/><path d="m142.19 11.39-2.19 3.8h4.38z"/><path d="m146.56 11.39-2.18 3.8h4.37z"/><path d="m131.25 15.19-2.19 3.79h4.38z"/><path d="m129.06 18.98-2.18 3.8h4.37z"/><path d="m133.44 18.98-2.19 3.8h4.38z"/><path d="m126.88 22.78-2.19 3.8h4.37z"/><path d="m124.69 26.58-2.19 3.8h4.38z"/><path d="m129.06 26.58-2.18 3.8h4.37z"/><path d="m135.63 22.78-2.19 3.8h4.37z"/><path d="m133.44 26.58-2.19 3.8h4.38z"/><path d="m137.81 26.58-2.18 3.8h4.37z"/><path d="m148.75 15.19-2.19 3.79h4.38z"/><path d="m146.56 18.98-2.18 3.8h4.37z"/><path d="m150.94 18.98-2.19 3.8h4.38z"/><path d="m144.38 22.78-2.19 3.8h4.37z"/><path d="m142.19 26.58-2.19 3.8h4.38z"/><path d="m146.56 26.58-2.18 3.8h4.37z"/><path d="m153.13 22.78-2.19 3.8h4.37z"/><path d="m150.94 26.58-2.19 3.8h4.38z"/><path d="m155.31 26.58-2.18 3.8h4.37z"/><path d="m122.5 30.38-2.19 3.79h4.38z"/><path d="m120.31 34.17-2.18 3.8h4.37z"/><path d="m124.69 34.17-2.19 3.8h4.38z"/><path d="m118.13 37.97-2.19 3.8h4.37z"/><path d="m115.94 41.77-2.19 3.79h4.38z"/><path d="m120.31 41.77-2.18 3.79h4.37z"/><path d="m126.88 37.97-2.19 3.8h4.37z"/><path d="m124.69 41.77-2.19 3.79h4.38z"/><path d="m129.06 41.77-2.18 3.79h4.37z"/><path d="m113.75 45.56-2.19 3.8h4.38z"/><path d="m111.56 49.36-2.18 3.8h4.37z"/><path d="m115.94 49.36-2.19 3.8h4.38z"/><path d="m109.38 53.16-2.19 3.79h4.37z"/><path d="m107.19 56.95-2.19 3.8h4.38z"/><path d="m111.56 56.95-2.18 3.8h4.37z"/><path d="m118.13 53.16-2.19 3.79h4.37z"/><path d="m115.94 56.95-2.19 3.8h4.38z"/><path d="m120.31 56.95-2.18 3.8h4.37z"/><path d="m131.25 45.56-2.19 3.8h4.38z"/><path d="m129.06 49.36-2.18 3.8h4.37z"/><path d="m133.44 49.36-2.19 3.8h4.38z"/><path d="m126.88 53.16-2.19 3.79h4.37z"/><path d="m124.69 56.95-2.19 3.8h4.38z"/><path d="m129.06 56.95-2.18 3.8h4.37z"/><path d="m135.63 53.16-2.19 3.79h4.37z"/><path d="m133.44 56.95-2.19 3.8h4.38z"/><path d="m137.81 56.95-2.18 3.8h4.37z"/><path d="m157.5 30.38-2.19 3.79h4.38z"/><path d="m155.31 34.17-2.18 3.8h4.37z"/><path d="m159.69 34.17-2.19 3.8h4.38z"/><path d="m153.13 37.97-2.19 3.8h4.37z"/><path d="m150.94 41.77-2.19 3.79h4.38z"/><path d="m155.31 41.77-2.18 3.79h4.37z"/><path d="m161.88 37.97-2.19 3.8h4.37z"/><path d="m159.69 41.77-2.19 3.79h4.38z"/><path d="m164.06 41.77-2.18 3.79h4.37z"/><path d="m148.75 45.56-2.19 3.8h4.38z"/><path d="m146.56 49.36-2.18 3.8h4.37z"/><path d="m150.94 49.36-2.19 3.8h4.38z"/><path d="m144.38 53.16-2.19 3.79h4.37z"/><path d="m142.19 56.95-2.19 3.8h4.38z"/><path d="m146.56 56.95-2.18 3.8h4.37z"/><path d="m153.13 53.16-2.19 3.79h4.37z"/><path d="m150.94 56.95-2.19 3.8h4.38z"/><path d="m155.31 56.95-2.18 3.8h4.37z"/><path d="m166.25 45.56-2.19 3.8h4.38z"/><path d="m164.06 49.36-2.18 3.8h4.37z"/><path d="m168.44 49.36-2.19 3.8h4.38z"/><path d="m161.88 53.16-2.19 3.79h4.37z"/><path d="m159.69 56.95-2.19 3.8h4.38z"/><path d="m164.06 56.95-2.18 3.8h4.37z"/><path d="m170.63 53.16-2.19 3.79h4.37z"/><path d="m168.44 56.95-2.19 3.8h4.38z"/><path d="m172.81 56.95-2.18 3.8h4.37z"/><path d="m105 60.75-2.19 3.8h4.38z"/><path d="m102.81 64.55-2.18 3.79h4.37z"/><path d="m107.19 64.55-2.19 3.79h4.38z"/><path d="m100.63 68.34-2.19 3.8h4.37z"/><path d="m98.44 72.14-2.19 3.8h4.38z"/><path d="m102.81 72.14-2.18 3.8h4.37z"/><path d="m109.38 68.34-2.19 3.8h4.37z"/><path d="m107.19 72.14-2.19 3.8h4.38z"/><path d="m111.56 72.14-2.18 3.8h4.37z"/><path d="m96.25 75.94-2.19 3.79h4.38z"/><path d="m94.06 79.73-2.18 3.8h4.37z"/><path d="m98.44 79.73-2.19 3.8h4.38z"/><path d="m91.88 83.53-2.19 3.8h4.37z"/><path d="m89.69 87.33-2.19 3.8h4.38z"/><path d="m94.06 87.33-2.18 3.8h4.37z"/><path d="m100.63 83.53-2.19 3.8h4.37z"/><path d="m98.44 87.33-2.19 3.8h4.38z"/><path d="m102.81 87.33-2.18 3.8h4.37z"/><path d="m113.75 75.94-2.19 3.79h4.38z"/><path d="m111.56 79.73-2.18 3.8h4.37z"/><path d="m115.94 79.73-2.19 3.8h4.38z"/><path d="m109.38 83.53-2.19 3.8h4.37z"/><path d="m107.19 87.33-2.19 3.8h4.38z"/><path d="m111.56 87.33-2.18 3.8h4.37z"/><path d="m118.13 83.53-2.19 3.8h4.37z"/><path d="m115.94 87.33-2.19 3.8h4.38z"/><path d="m120.31 87.33-2.18 3.8h4.37z"/><path d="m87.5 91.13-2.19 3.79h4.38z"/><path d="m85.31 94.92-2.18 3.8h4.37z"/><path d="m89.69 94.92-2.19 3.8h4.38z"/><path d="m83.13 98.72-2.19 3.8h4.37z"/><path d="m80.94 102.52-2.19 3.79h4.38z"/><path d="m85.31 102.52-2.18 3.79h4.37z"/><path d="m91.88 98.72-2.19 3.8h4.37z"/><path d="m89.69 102.52-2.19 3.79h4.38z"/><path d="m94.06 102.52-2.18 3.79h4.37z"/><path d="m78.75 106.31-2.19 3.8h4.38z"/><path d="m76.56 110.11-2.18 3.8h4.37z"/><path d="m80.94 110.11-2.19 3.8h4.38z"/><path d="m74.38 113.91-2.19 3.79h4.37z"/><path d="m72.19 117.7-2.19 3.8h4.38z"/><path d="m76.56 117.7-2.18 3.8h4.37z"/><path d="m83.13 113.91-2.19 3.79h4.37z"/><path d="m80.94 117.7-2.19 3.8h4.38z"/><path d="m85.31 117.7-2.18 3.8h4.37z"/><path d="m96.25 106.31-2.19 3.8h4.38z"/><path d="m94.06 110.11-2.18 3.8h4.37z"/><path d="m98.44 110.11-2.19 3.8h4.38z"/><path d="m91.88 113.91-2.19 3.79h4.37z"/><path d="m89.69 117.7-2.19 3.8h4.38z"/><path d="m94.06 117.7-2.18 3.8h4.37z"/><path d="m100.63 113.91-2.19 3.79h4.37z"/><path d="m98.44 117.7-2.19 3.8h4.38z"/><path d="m102.81 117.7-2.18 3.8h4.37z"/><path d="m122.5 91.13-2.19 3.79h4.38z"/><path d="m120.31 94.92-2.18 3.8h4.37z"/><path d="m124.69 94.92-2.19 3.8h4.38z"/><path d="m118.13 98.72-2.19 3.8h4.37z"/><path d="m115.94 102.52-2.19 3.79h4.38z"/><path d="m120.31 102.52-2.18 3.79h4.37z"/><path d="m126.88 98.72-2.19 3.8h4.37z"/><path d="m124.69 102.52-2.19 3.79h4.38z"/><path d="m129.06 102.52-2.18 3.79h4.37z"/><path d="m113.75 106.31-2.19 3.8h4.38z"/><path d="m111.56 110.11-2.18 3.8h4.37z"/><path d="m115.94 110.11-2.19 3.8h4.38z"/><path d="m109.38 113.91-2.19 3.79h4.37z"/><path d="m107.19 117.7-2.19 3.8h4.38z"/><path d="m111.56 117.7-2.18 3.8h4.37z"/><path d="m118.13 113.91-2.19 3.79h4.37z"/><path d="m115.94 117.7-2.19 3.8h4.38z"/><path d="m120.31 117.7-2.18 3.8h4.37z"/><path d="m131.25 106.31-2.19 3.8h4.38z"/><path d="m129.06 110.11-2.18 3.8h4.37z"/><path d="m133.44 110.11-2.19 3.8h4.38z"/><path d="m126.88 113.91-2.19 3.79h4.37z"/><path d="m124.69 117.7-2.19 3.8h4.38z"/><path d="m129.06 117.7-2.18 3.8h4.37z"/><path d="m135.63 113.91-2.19 3.79h4.37z"/><path d="m133.44 117.7-2.19 3.8h4.38z"/><path d="m137.81 117.7-2.18 3.8h4.37z"/><path d="m175 60.75-2.19 3.8h4.38z"/><path d="m172.81 64.55-2.18 3.79h4.37z"/><path d="m177.19 64.55-2.19 3.79h4.38z"/><path d="m170.63 68.34-2.19 3.8h4.37z"/><path d="m168.44 72.14-2.19 3.8h4.38z"/><path d="m172.81 72.14-2.18 3.8h4.37z"/><path d="m179.38 68.34-2.19 3.8h4.37z"/><path d="m177.19 72.14-2.19 3.8h4.38z"/><path d="m181.56 72.14-2.18 3.8h4.37z"/><path d="m166.25 75.94-2.19 3.79h4.38z"/><path d="m164.06 79.73-2.18 3.8h4.37z"/><path d="m168.44 79.73-2.19 3.8h4.38z"/><path d="m161.88 83.53-2.19 3.8h4.37z"/><path d="m159.69 87.33-2.19 3.8h4.38z"/><path d="m164.06 87.33-2.18 3.8h4.37z"/><path d="m170.63 83.53-2.19 3.8h4.37z"/><path d="m168.44 87.33-2.19 3.8h4.38z"/><path d="m172.81 87.33-2.18 3.8h4.37z"/><path d="m183.75 75.94-2.19 3.79h4.38z"/><path d="m181.56 79.73-2.18 3.8h4.37z"/><path d="m185.94 79.73-2.19 3.8h4.38z"/><path d="m179.38 83.53-2.19 3.8h4.37z"/><path d="m177.19 87.33-2.19 3.8h4.38z"/><path d="m181.56 87.33-2.18 3.8h4.37z"/><path d="m188.13 83.53-2.19 3.8h4.37z"/><path d="m185.94 87.33-2.19 3.8h4.38z"/><path d="m190.31 87.33-2.18 3.8h4.37z"/><path d="m157.5 91.13-2.19 3.79h4.38z"/><path d="m155.31 94.92-2.18 3.8h4.37z"/><path d="m159.69 94.92-2.19 3.8h4.38z"/><path d="m153.13 98.72-2.19 3.8h4.37z"/><path d="m150.94 102.52-2.19 3.79h4.38z"/><path d="m155.31 102.52-2.18 3.79h4.37z"/><path d="m161.88 98.72-2.19 3.8h4.37z"/><path d="m159.69 102.52-2.19 3.79h4.38z"/><path d="m164.06 102.52-2.18 3.79h4.37z"/><path d="m148.75 106.31-2.19 3.8h4.38z"/><path d="m146.56 110.11-2.18 3.8h4.37z"/><path d="m150.94 110.11-2.19 3.8h4.38z"/><path d="m144.38 113.91-2.19 3.79h4.37z"/><path d="m142.19 117.7-2.19 3.8h4.38z"/><path d="m146.56 117.7-2.18 3.8h4.37z"/><path d="m153.13 113.91-2.19 3.79h4.37z"/><path d="m150.94 117.7-2.19 3.8h4.38z"/><path d="m155.31 117.7-2.18 3.8h4.37z"/><path d="m166.25 106.31-2.19 3.8h4.38z"/><path d="m164.06 110.11-2.18 3.8h4.37z"/><path d="m168.44 110.11-2.19 3.8h4.38z"/><path d="m161.88 113.91-2.19 3.79h4.37z"/><path d="m159.69 117.7-2.19 3.8h4.38z"/><path d="m164.06 117.7-2.18 3.8h4.37z"/><path d="m170.63 113.91-2.19 3.79h4.37z"/><path d="m168.44 117.7-2.19 3.8h4.38z"/><path d="m172.81 117.7-2.18 3.8h4.37z"/><path d="m192.5 91.13-2.19 3.79h4.38z"/><path d="m190.31 94.92-2.18 3.8h4.37z"/><path d="m194.69 94.92-2.19 3.8h4.38z"/><path d="m188.13 98.72-2.19 3.8h4.37z"/><path d="m185.94 102.52-2.19 3.79h4.38z"/><path d="m190.31 102.52-2.18 3.79h4.37z"/><path d="m196.88 98.72-2.19 3.8h4.37z"/><path d="m194.69 102.52-2.19 3.79h4.38z"/><path d="m199.06 102.52-2.18 3.79h4.37z"/><path d="m183.75 106.31-2.19 3.8h4.38z"/><path d="m181.56 110.11-2.18 3.8h4.37z"/><path d="m185.94 110.11-2.19 3.8h4.38z"/><path d="m179.38 113.91-2.19 3.79h4.37z"/><path d="m177.19 117.7-2.19 3.8h4.38z"/><path d="m181.56 117.7-2.18 3.8h4.37z"/><path d="m188.13 113.91-2.19 3.79h4.37z"/><path d="m185.94 117.7-2.19 3.8h4.38z"/><path d="m190.31 117.7-2.18 3.8h4.37z"/><path d="m201.25 106.31-2.19 3.8h4.38z"/><path d="m199.06 110.11-2.18 3.8h4.37z"/><path d="m203.44 110.11-2.19 3.8h4.38z"/><path d="m196.88 113.91-2.19 3.79h4.37z"/><path d="m194.69 117.7-2.19 3.8h4.38z"/><path d="m199.06 117.7-2.18 3.8h4.37z"/><path d="m205.63 113.91-2.19 3.79h4.37z"/><path d="m203.44 117.7-2.19 3.8h4.38z"/><path d="m207.81 117.7-2.18 3.8h4.37z"/><path d="m70 121.5-2.19 3.8h4.38z"/><path d="m67.81 125.3-2.18 3.79h4.37z"/><path d="m72.19 125.3-2.19 3.79h4.38z"/><path d="m65.63 129.09-2.19 3.8h4.37z"/><path d="m63.44 132.89-2.19 3.8h4.38z"/><path d="m67.81 132.89-2.18 3.8h4.37z"/><path d="m74.38 129.09-2.19 3.8h4.37z"/><path d="m72.19 132.89-2.19 3.8h4.38z"/><path d="m76.56 132.89-2.18 3.8h4.37z"/><path d="m61.25 136.69-2.19 3.79h4.38z"/><path d="m59.06 140.48-2.18 3.8h4.37z"/><path d="m63.44 140.48-2.19 3.8h4.38z"/><path d="m56.88 144.28-2.19 3.8h4.37z"/><path d="m54.69 148.08-2.19 3.8h4.38z"/><path d="m59.06 148.08-2.18 3.8h4.37z"/><path d="m65.63 144.28-2.19 3.8h4.37z"/><path d="m63.44 148.08-2.19 3.8h4.38z"/><path d="m67.81 148.08-2.18 3.8h4.37z"/><path d="m78.75 136.69-2.19 3.79h4.38z"/><path d="m76.56 140.48-2.18 3.8h4.37z"/><path d="m80.94 140.48-2.19 3.8h4.38z"/><path d="m74.38 144.28-2.19 3.8h4.37z"/><path d="m72.19 148.08-2.19 3.8h4.38z"/><path d="m76.56 148.08-2.18 3.8h4.37z"/><path d="m83.13 144.28-2.19 3.8h4.37z"/><path d="m80.94 148.08-2.19 3.8h4.38z"/><path d="m85.31 148.08-2.18 3.8h4.37z"/><path d="m52.5 151.88-2.19 3.79h4.38z"/><path d="m50.31 155.67-2.18 3.8h4.37z"/><path d="m54.69 155.67-2.19 3.8h4.38z"/><path d="m48.13 159.47-2.19 3.8h4.37z"/><path d="m45.94 163.27-2.19 3.79h4.38z"/><path d="m50.31 163.27-2.18 3.79h4.37z"/><path d="m56.88 159.47-2.19 3.8h4.37z"/><path d="m54.69 163.27-2.19 3.79h4.38z"/><path d="m59.06 163.27-2.18 3.79h4.37z"/><path d="m43.75 167.06-2.19 3.8h4.38z"/><path d="m41.56 170.86-2.18 3.8h4.37z"/><path d="m45.94 170.86-2.19 3.8h4.38z"/><path d="m39.38 174.66-2.19 3.79h4.37z"/><path d="m37.19 178.45-2.19 3.8h4.38z"/><path d="m41.56 178.45-2.18 3.8h4.37z"/><path d="m48.13 174.66-2.19 3.79h4.37z"/><path d="m45.94 178.45-2.19 3.8h4.38z"/><path d="m50.31 178.45-2.18 3.8h4.37z"/><path d="m61.25 167.06-2.19 3.8h4.38z"/><path d="m59.06 170.86-2.18 3.8h4.37z"/><path d="m63.44 170.86-2.19 3.8h4.38z"/><path d="m56.88 174.66-2.19 3.79h4.37z"/><path d="m54.69 178.45-2.19 3.8h4.38z"/><path d="m59.06 178.45-2.18 3.8h4.37z"/><path d="m65.63 174.66-2.19 3.79h4.37z"/><path d="m63.44 178.45-2.19 3.8h4.38z"/><path d="m67.81 178.45-2.18 3.8h4.37z"/><path d="m87.5 151.88-2.19 3.79h4.38z"/><path d="m85.31 155.67-2.18 3.8h4.37z"/><path d="m89.69 155.67-2.19 3.8h4.38z"/><path d="m83.13 159.47-2.19 3.8h4.37z"/><path d="m80.94 163.27-2.19 3.79h4.38z"/><path d="m85.31 163.27-2.18 3.79h4.37z"/><path d="m91.88 159.47-2.19 3.8h4.37z"/><path d="m89.69 163.27-2.19 3.79h4.38z"/><path d="m94.06 163.27-2.18 3.79h4.37z"/><path d="m78.75 167.06-2.19 3.8h4.38z"/><path d="m76.56 170.86-2.18 3.8h4.37z"/><path d="m80.94 170.86-2.19 3.8h4.38z"/><path d="m74.38 174.66-2.19 3.79h4.37z"/><path d="m72.19 178.45-2.19 3.8h4.38z"/><path d="m76.56 178.45-2.18 3.8h4.37z"/><path d="m83.13 174.66-2.19 3.79h4.37z"/><path d="m80.94 178.45-2.19 3.8h4.38z"/><path d="m85.31 178.45-2.18 3.8h4.37z"/><path d="m96.25 167.06-2.19 3.8h4.38z"/><path d="m94.06 170.86-2.18 3.8h4.37z"/><path d="m98.44 170.86-2.19 3.8h4.38z"/><path d="m91.88 174.66-2.19 3.79h4.37z"/><path d="m89.69 178.45-2.19 3.8h4.38z"/><path d="m94.06 178.45-2.18 3.8h4.37z"/><path d="m100.63 174.66-2.19 3.79h4.37z"/><path d="m98.44 178.45-2.19 3.8h4.38z"/><path d="m102.81 178.45-2.18 3.8h4.37z"/><path d="m35 182.25-2.19 3.8h4.38z"/><path d="m32.81 186.05-2.18 3.79h4.37z"/><path d="m37.19 186.05-2.19 3.79h4.38z"/><path d="m30.63 189.84-2.19 3.8h4.37z"/><path d="m28.44 193.64-2.19 3.8h4.38z"/><path d="m32.81 193.64-2.18 3.8h4.37z"/><path d="m39.38 189.84-2.19 3.8h4.37z"/><path d="m37.19 193.64-2.19 3.8h4.38z"/><path d="m41.56 193.64-2.18 3.8h4.37z"/><path d="m26.25 197.44-2.19 3.79h4.38z"/><path d="m24.06 201.23-2.18 3.8h4.37z"/><path d="m28.44 201.23-2.19 3.8h4.38z"/><path d="m21.88 205.03-2.19 3.8h4.37z"/><path d="m19.69 208.83-2.19 3.8h4.38z"/><path d="m24.06 208.83-2.18 3.8h4.37z"/><path d="m30.63 205.03-2.19 3.8h4.37z"/><path d="m28.44 208.83-2.19 3.8h4.38z"/><path d="m32.81 208.83-2.18 3.8h4.37z"/><path d="m43.75 197.44-2.19 3.79h4.38z"/><path d="m41.56 201.23-2.18 3.8h4.37z"/><path d="m45.94 201.23-2.19 3.8h4.38z"/><path d="m39.38 205.03-2.19 3.8h4.37z"/><path d="m37.19 208.83-2.19 3.8h4.38z"/><path d="m41.56 208.83-2.18 3.8h4.37z"/><path d="m48.13 205.03-2.19 3.8h4.37z"/><path d="m45.94 208.83-2.19 3.8h4.38z"/><path d="m50.31 208.83-2.18 3.8h4.37z"/><path d="m17.5 212.63-2.19 3.79h4.38z"/><path d="m15.31 216.42-2.18 3.8h4.37z"/><path d="m19.69 216.42-2.19 3.8h4.38z"/><path d="m13.13 220.22-2.19 3.8h4.37z"/><path d="m10.94 224.02-2.19 3.79h4.38z"/><path d="m15.31 224.02-2.18 3.79h4.37z"/><path d="m21.88 220.22-2.19 3.8h4.37z"/><path d="m19.69 224.02-2.19 3.79h4.38z"/><path d="m24.06 224.02-2.18 3.79h4.37z"/><path d="m8.75 227.81-2.19 3.8h4.38z"/><path d="m6.56 231.61-2.18 3.8h4.37z"/><path d="m10.94 231.61-2.19 3.8h4.38z"/><path d="m4.38 235.41-2.19 3.79h4.37z"/><path d="m2.19 239.2-2.19 3.8h4.38z"/><path d="m6.56 239.2-2.18 3.8h4.37z"/><path d="m13.13 235.41-2.19 3.79h4.37z"/><path d="m10.94 239.2-2.19 3.8h4.38z"/><path d="m15.31 239.2-2.18 3.8h4.37z"/><path d="m26.25 227.81-2.19 3.8h4.38z"/><path d="m24.06 231.61-2.18 3.8h4.37z"/><path d="m28.44 231.61-2.19 3.8h4.38z"/><path d="m21.88 235.41-2.19 3.79h4.37z"/><path d="m19.69 239.2-2.19 3.8h4.38z"/><path d="m24.06 239.2-2.18 3.8h4.37z"/><path d="m30.63 235.41-2.19 3.79h4.37z"/><path d="m28.44 239.2-2.19 3.8h4.38z"/><path d="m32.81 239.2-2.18 3.8h4.37z"/><path d="m52.5 212.63-2.19 3.79h4.38z"/><path d="m50.31 216.42-2.18 3.8h4.37z"/><path d="m54.69 216.42-2.19 3.8h4.38z"/><path d="m48.13 220.22-2.19 3.8h4.37z"/><path d="m45.94 224.02-2.19 3.79h4.38z"/><path d="m50.31 224.02-2.18 3.79h4.37z"/><path d="m56.88 220.22-2.19 3.8h4.37z"/><path d="m54.69 224.02-2.19 3.79h4.38z"/><path d="m59.06 224.02-2.18 3.79h4.37z"/><path d="m43.75 227.81-2.19 3.8h4.38z"/><path d="m41.56 231.61-2.18 3.8h4.37z"/><path d="m45.94 231.61-2.19 3.8h4.38z"/><path d="m39.38 235.41-2.19 3.79h4.37z"/><path d="m37.19 239.2-2.19 3.8h4.38z"/><path d="m41.56 239.2-2.18 3.8h4.37z"/><path d="m48.13 235.41-2.19 3.79h4.37z"/><path d="m45.94 239.2-2.19 3.8h4.38z"/><path d="m50.31 239.2-2.18 3.8h4.37z"/><path d="m61.25 227.81-2.19 3.8h4.38z"/><path d="m59.06 231.61-2.18 3.8h4.37z"/><path d="m63.44 231.61-2.19 3.8h4.38z"/><path d="m56.88 235.41-2.19 3.79h4.37z"/><path d="m54.69 239.2-2.19 3.8h4.38z"/><path d="m59.06 239.2-2.18 3.8h4.37z"/><path d="m65.63 235.41-2.19 3.79h4.37z"/><path d="m63.44 239.2-2.19 3.8h4.38z"/><path d="m67.81 239.2-2.18 3.8h4.37z"/><path d="m105 182.25-2.19 3.8h4.38z"/><path d="m102.81 186.05-2.18 3.79h4.37z"/><path d="m107.19 186.05-2.19 3.79h4.38z"/><path d="m100.63 189.84-2.19 3.8h4.37z"/><path d="m98.44 193.64-2.19 3.8h4.38z"/><path d="m102.81 193.64-2.18 3.8h4.37z"/><path d="m109.38 189.84-2.19 3.8h4.37z"/><path d="m107.19 193.64-2.19 3.8h4.38z"/><path d="m111.56 193.64-2.18 3.8h4.37z"/><path d="m96.25 197.44-2.19 3.79h4.38z"/><path d="m94.06 201.23-2.18 3.8h4.37z"/><path d="m98.44 201.23-2.19 3.8h4.38z"/><path d="m91.88 205.03-2.19 3.8h4.37z"/><path d="m89.69 208.83-2.19 3.8h4.38z"/><path d="m94.06 208.83-2.18 3.8h4.37z"/><path d="m100.63 205.03-2.19 3.8h4.37z"/><path d="m98.44 208.83-2.19 3.8h4.38z"/><path d="m102.81 208.83-2.18 3.8h4.37z"/><path d="m113.75 197.44-2.19 3.79h4.38z"/><path d="m111.56 201.23-2.18 3.8h4.37z"/><path d="m115.94 201.23-2.19 3.8h4.38z"/><path d="m109.38 205.03-2.19 3.8h4.37z"/><path d="m107.19 208.83-2.19 3.8h4.38z"/><path d="m111.56 208.83-2.18 3.8h4.37z"/><path d="m118.13 205.03-2.19 3.8h4.37z"/><path d="m115.94 208.83-2.19 3.8h4.38z"/><path d="m120.31 208.83-2.18 3.8h4.37z"/><path d="m87.5 212.63-2.19 3.79h4.38z"/><path d="m85.31 216.42-2.18 3.8h4.37z"/><path d="m89.69 216.42-2.19 3.8h4.38z"/><path d="m83.13 220.22-2.19 3.8h4.37z"/><path d="m80.94 224.02-2.19 3.79h4.38z"/><path d="m85.31 224.02-2.18 3.79h4.37z"/><path d="m91.88 220.22-2.19 3.8h4.37z"/><path d="m89.69 224.02-2.19 3.79h4.38z"/><path d="m94.06 224.02-2.18 3.79h4.37z"/><path d="m78.75 227.81-2.19 3.8h4.38z"/><path d="m76.56 231.61-2.18 3.8h4.37z"/><path d="m80.94 231.61-2.19 3.8h4.38z"/><path d="m74.38 235.41-2.19 3.79h4.37z"/><path d="m72.19 239.2-2.19 3.8h4.38z"/><path d="m76.56 239.2-2.18 3.8h4.37z"/><path d="m83.13 235.41-2.19 3.79h4.37z"/><path d="m80.94 239.2-2.19 3.8h4.38z"/><path d="m85.31 239.2-2.18 3.8h4.37z"/><path d="m96.25 227.81-2.19 3.8h4.38z"/><path d="m94.06 231.61-2.18 3.8h4.37z"/><path d="m98.44 231.61-2.19 3.8h4.38z"/><path d="m91.88 235.41-2.19 3.79h4.37z"/><path d="m89.69 239.2-2.19 3.8h4.38z"/><path d="m94.06 239.2-2.18 3.8h4.37z"/><path d="m100.63 235.41-2.19 3.79h4.37z"/><path d="m98.44 239.2-2.19 3.8h4.38z"/><path d="m102.81 239.2-2.18 3.8h4.37z"/><path d="m122.5 212.63-2.19 3.79h4.38z"/><path d="m120.31 216.42-2.18 3.8h4.37z"/><path d="m124.69 216.42-2.19 3.8h4.38z"/><path d="m118.13 220.22-2.19 3.8h4.37z"/><path d="m115.94 224.02-2.19 3.79h4.38z"/><path d="m120.31 224.02-2.18 3.79h4.37z"/><path d="m126.88 220.22-2.19 3.8h4.37z"/><path d="m124.69 224.02-2.19 3.79h4.38z"/><path d="m129.06 224.02-2.18 3.79h4.37z"/><path d="m113.75 227.81-2.19 3.8h4.38z"/><path d="m111.56 231.61-2.18 3.8h4.37z"/><path d="m115.94 231.61-2.19 3.8h4.38z"/><path d="m109.38 235.41-2.19 3.79h4.37z"/><path d="m107.19 239.2-2.19 3.8h4.38z"/><path d="m111.56 239.2-2.18 3.8h4.37z"/><path d="m118.13 235.41-2.19 3.79h4.37z"/><path d="m115.94 239.2-2.19 3.8h4.38z"/><path d="m120.31 239.2-2.18 3.8h4.37z"/><path d="m131.25 227.81-2.19 3.8h4.38z"/><path d="m129.06 231.61-2.18 3.8h4.37z"/><path d="m133.44 231.61-2.19 3.8h4.38z"/><path d="m126.88 235.41-2.19 3.79h4.37z"/><path d="m124.69 239.2-2.19 3.8h4.38z"/><path d="m129.06 239.2-2.18 3.8h4.37z"/><path d="m135.63 235.41-2.19 3.79h4.37z"/><path d="m133.44 239.2-2.19 3.8h4.38z"/><path d="m137.81 239.2-2.18 3.8h4.37z"/><path d="m210 121.5-2.19 3.8h4.38z"/><path d="m207.81 125.3-2.18 3.79h4.37z"/><path d="m212.19 125.3-2.19 3.79h4.38z"/><path d="m205.63 129.09-2.19 3.8h4.37z"/><path d="m203.44 132.89-2.19 3.8h4.38z"/><path d="m207.81 132.89-2.18 3.8h4.37z"/><path d="m214.38 129.09-2.19 3.8h4.37z"/><path d="m212.19 132.89-2.19 3.8h4.38z"/><path d="m216.56 132.89-2.18 3.8h4.37z"/><path d="m201.25 136.69-2.19 3.79h4.38z"/><path d="m199.06 140.48-2.18 3.8h4.37z"/><path d="m203.44 140.48-2.19 3.8h4.38z"/><path d="m196.88 144.28-2.19 3.8h4.37z"/><path d="m194.69 148.08-2.19 3.8h4.38z"/><path d="m199.06 148.08-2.18 3.8h4.37z"/><path d="m205.63 144.28-2.19 3.8h4.37z"/><path d="m203.44 148.08-2.19 3.8h4.38z"/><path d="m207.81 148.08-2.18 3.8h4.37z"/><path d="m218.75 136.69-2.19 3.79h4.38z"/><path d="m216.56 140.48-2.18 3.8h4.37z"/><path d="m220.94 140.48-2.19 3.8h4.38z"/><path d="m214.38 144.28-2.19 3.8h4.37z"/><path d="m212.19 148.08-2.19 3.8h4.38z"/><path d="m216.56 148.08-2.18 3.8h4.37z"/><path d="m223.13 144.28-2.19 3.8h4.37z"/><path d="m220.94 148.08-2.19 3.8h4.38z"/><path d="m225.31 148.08-2.18 3.8h4.37z"/><path d="m192.5 151.88-2.19 3.79h4.38z"/><path d="m190.31 155.67-2.18 3.8h4.37z"/><path d="m194.69 155.67-2.19 3.8h4.38z"/><path d="m188.13 159.47-2.19 3.8h4.37z"/><path d="m185.94 163.27-2.19 3.79h4.38z"/><path d="m190.31 163.27-2.18 3.79h4.37z"/><path d="m196.88 159.47-2.19 3.8h4.37z"/><path d="m194.69 163.27-2.19 3.79h4.38z"/><path d="m199.06 163.27-2.18 3.79h4.37z"/><path d="m183.75 167.06-2.19 3.8h4.38z"/><path d="m181.56 170.86-2.18 3.8h4.37z"/><path d="m185.94 170.86-2.19 3.8h4.38z"/><path d="m179.38 174.66-2.19 3.79h4.37z"/><path d="m177.19 178.45-2.19 3.8h4.38z"/><path d="m181.56 178.45-2.18 3.8h4.37z"/><path d="m188.13 174.66-2.19 3.79h4.37z"/><path d="m185.94 178.45-2.19 3.8h4.38z"/><path d="m190.31 178.45-2.18 3.8h4.37z"/><path d="m201.25 167.06-2.19 3.8h4.38z"/><path d="m199.06 170.86-2.18 3.8h4.37z"/><path d="m203.44 170.86-2.19 3.8h4.38z"/><path d="m196.88 174.66-2.19 3.79h4.37z"/><path d="m194.69 178.45-2.19 3.8h4.38z"/><path d="m199.06 178.45-2.18 3.8h4.37z"/><path d="m205.63 174.66-2.19 3.79h4.37z"/><path d="m203.44 178.45-2.19 3.8h4.38z"/><path d="m207.81 178.45-2.18 3.8h4.37z"/><path d="m227.5 151.88-2.19 3.79h4.38z"/><path d="m225.31 155.67-2.18 3.8h4.37z"/><path d="m229.69 155.67-2.19 3.8h4.38z"/><path d="m223.13 159.47-2.19 3.8h4.37z"/><path d="m220.94 163.27-2.19 3.79h4.38z"/><path d="m225.31 163.27-2.18 3.79h4.37z"/><path d="m231.88 159.47-2.19 3.8h4.37z"/><path d="m229.69 163.27-2.19 3.79h4.38z"/><path d="m234.06 163.27-2.18 3.79h4.37z"/><path d="m218.75 167.06-2.19 3.8h4.38z"/><path d="m216.56 170.86-2.18 3.8h4.37z"/><path d="m220.94 170.86-2.19 3.8h4.38z"/><path d="m214.38 174.66-2.19 3.79h4.37z"/><path d="m212.19 178.45-2.19 3.8h4.38z"/><path d="m216.56 178.45-2.18 3.8h4.37z"/><path d="m223.13 174.66-2.19 3.79h4.37z"/><path d="m220.94 178.45-2.19 3.8h4.38z"/><path d="m225.31 178.45-2.18 3.8h4.37z"/><path d="m236.25 167.06-2.19 3.8h4.38z"/><path d="m234.06 170.86-2.18 3.8h4.37z"/><path d="m238.44 170.86-2.19 3.8h4.38z"/><path d="m231.88 174.66-2.19 3.79h4.37z"/><path d="m229.69 178.45-2.19 3.8h4.38z"/><path d="m234.06 178.45-2.18 3.8h4.37z"/><path d="m240.63 174.66-2.19 3.79h4.37z"/><path d="m238.44 178.45-2.19 3.8h4.38z"/><path d="m242.81 178.45-2.18 3.8h4.37z"/><path d="m175 182.25-2.19 3.8h4.38z"/><path d="m172.81 186.05-2.18 3.79h4.37z"/><path d="m177.19 186.05-2.19 3.79h4.38z"/><path d="m170.63 189.84-2.19 3.8h4.37z"/><path d="m168.44 193.64-2.19 3.8h4.38z"/><path d="m172.81 193.64-2.18 3.8h4.37z"/><path d="m179.38 189.84-2.19 3.8h4.37z"/><path d="m177.19 193.64-2.19 3.8h4.38z"/><path d="m181.56 193.64-2.18 3.8h4.37z"/><path d="m166.25 197.44-2.19 3.79h4.38z"/><path d="m164.06 201.23-2.18 3.8h4.37z"/><path d="m168.44 201.23-2.19 3.8h4.38z"/><path d="m161.88 205.03-2.19 3.8h4.37z"/><path d="m159.69 208.83-2.19 3.8h4.38z"/><path d="m164.06 208.83-2.18 3.8h4.37z"/><path d="m170.63 205.03-2.19 3.8h4.37z"/><path d="m168.44 208.83-2.19 3.8h4.38z"/><path d="m172.81 208.83-2.18 3.8h4.37z"/><path d="m183.75 197.44-2.19 3.79h4.38z"/><path d="m181.56 201.23-2.18 3.8h4.37z"/><path d="m185.94 201.23-2.19 3.8h4.38z"/><path d="m179.38 205.03-2.19 3.8h4.37z"/><path d="m177.19 208.83-2.19 3.8h4.38z"/><path d="m181.56 208.83-2.18 3.8h4.37z"/><path d="m188.13 205.03-2.19 3.8h4.37z"/><path d="m185.94 208.83-2.19 3.8h4.38z"/><path d="m190.31 208.83-2.18 3.8h4.37z"/><path d="m157.5 212.63-2.19 3.79h4.38z"/><path d="m155.31 216.42-2.18 3.8h4.37z"/><path d="m159.69 216.42-2.19 3.8h4.38z"/><path d="m153.13 220.22-2.19 3.8h4.37z"/><path d="m150.94 224.02-2.19 3.79h4.38z"/><path d="m155.31 224.02-2.18 3.79h4.37z"/><path d="m161.88 220.22-2.19 3.8h4.37z"/><path d="m159.69 224.02-2.19 3.79h4.38z"/><path d="m164.06 224.02-2.18 3.79h4.37z"/><path d="m148.75 227.81-2.19 3.8h4.38z"/><path d="m146.56 231.61-2.18 3.8h4.37z"/><path d="m150.94 231.61-2.19 3.8h4.38z"/><path d="m144.38 235.41-2.19 3.79h4.37z"/><path d="m142.19 239.2-2.19 3.8h4.38z"/><path d="m146.56 239.2-2.18 3.8h4.37z"/><path d="m153.13 235.41-2.19 3.79h4.37z"/><path d="m150.94 239.2-2.19 3.8h4.38z"/><path d="m155.31 239.2-2.18 3.8h4.37z"/><path d="m166.25 227.81-2.19 3.8h4.38z"/><path d="m164.06 231.61-2.18 3.8h4.37z"/><path d="m168.44 231.61-2.19 3.8h4.38z"/><path d="m161.88 235.41-2.19 3.79h4.37z"/><path d="m159.69 239.2-2.19 3.8h4.38z"/><path d="m164.06 239.2-2.18 3.8h4.37z"/><path d="m170.63 235.41-2.19 3.79h4.37z"/><path d="m168.44 239.2-2.19 3.8h4.38z"/><path d="m172.81 239.2-2.18 3.8h4.37z"/><path d="m192.5 212.63-2.19 3.79h4.38z"/><path d="m190.31 216.42-2.18 3.8h4.37z"/><path d="m194.69 216.42-2.19 3.8h4.38z"/><path d="m188.13 220.22-2.19 3.8h4.37z"/><path d="m185.94 224.02-2.19 3.79h4.38z"/><path d="m190.31 224.02-2.18 3.79h4.37z"/><path d="m196.88 220.22-2.19 3.8h4.37z"/><path d="m194.69 224.02-2.19 3.79h4.38z"/><path d="m199.06 224.02-2.18 3.79h4.37z"/><path d="m183.75 227.81-2.19 3.8h4.38z"/><path d="m181.56 231.61-2.18 3.8h4.37z"/><path d="m185.94 231.61-2.19 3.8h4.38z"/><path d="m179.38 235.41-2.19 3.79h4.37z"/><path d="m177.19 239.2-2.19 3.8h4.38z"/><path d="m181.56 239.2-2.18 3.8h4.37z"/><path d="m188.13 235.41-2.19 3.79h4.37z"/><path d="m185.94 239.2-2.19 3.8h4.38z"/><path d="m190.31 239.2-2.18 3.8h4.37z"/><path d="m201.25 227.81-2.19 3.8h4.38z"/><path d="m199.06 231.61-2.18 3.8h4.37z"/><path d="m203.44 231.61-2.19 3.8h4.38z"/><path d="m196.88 235.41-2.19 3.79h4.37z"/><path d="m194.69 239.2-2.19 3.8h4.38z"/><path d="m199.06 239.2-2.18 3.8h4.37z"/><path d="m205.63 235.41-2.19 3.79h4.37z"/><path d="m203.44 239.2-2.19 3.8h4.38z"/><path d="m207.81 239.2-2.18 3.8h4.37z"/><path d="m245 182.25-2.19 3.8h4.38z"/><path d="m242.81 186.05-2.18 3.79h4.37z"/><path d="m247.19 186.05-2.19 3.79h4.38z"/><path d="m240.63 189.84-2.19 3.8h4.37z"/><path d="m238.44 193.64-2.19 3.8h4.38z"/><path d="m242.81 193.64-2.18 3.8h4.37z"/><path d="m249.38 189.84-2.19 3.8h4.37z"/><path d="m247.19 193.64-2.19 3.8h4.38z"/><path d="m251.56 193.64-2.18 3.8h4.37z"/><path d="m236.25 197.44-2.19 3.79h4.38z"/><path d="m234.06 201.23-2.18 3.8h4.37z"/><path d="m238.44 201.23-2.19 3.8h4.38z"/><path d="m231.88 205.03-2.19 3.8h4.37z"/><path d="m229.69 208.83-2.19 3.8h4.38z"/><path d="m234.06 208.83-2.18 3.8h4.37z"/><path d="m240.63 205.03-2.19 3.8h4.37z"/><path d="m238.44 208.83-2.19 3.8h4.38z"/><path d="m242.81 208.83-2.18 3.8h4.37z"/><path d="m253.75 197.44-2.19 3.79h4.38z"/><path d="m251.56 201.23-2.18 3.8h4.37z"/><path d="m255.94 201.23-2.19 3.8h4.38z"/><path d="m249.38 205.03-2.19 3.8h4.37z"/><path d="m247.19 208.83-2.19 3.8h4.38z"/><path d="m251.56 208.83-2.18 3.8h4.37z"/><path d="m258.13 205.03-2.19 3.8h4.37z"/><path d="m255.94 208.83-2.19 3.8h4.38z"/><path d="m260.31 208.83-2.18 3.8h4.37z"/><path d="m227.5 212.63-2.19 3.79h4.38z"/><path d="m225.31 216.42-2.18 3.8h4.37z"/><path d="m229.69 216.42-2.19 3.8h4.38z"/><path d="m223.13 220.22-2.19 3.8h4.37z"/><path d="m220.94 224.02-2.19 3.79h4.38z"/><path d="m225.31 224.02-2.18 3.79h4.37z"/><path d="m231.88 220.22-2.19 3.8h4.37z"/><path d="m229.69 224.02-2.19 3.79h4.38z"/><path d="m234.06 224.02-2.18 3.79h4.37z"/><path d="m218.75 227.81-2.19 3.8h4.38z"/><path d="m216.56 231.61-2.18 3.8h4.37z"/><path d="m220.94 231.61-2.19 3.8h4.38z"/><path d="m214.38 235.41-2.19 3.79h4.37z"/><path d="m212.19 239.2-2.19 3.8h4.38z"/><path d="m216.56 239.2-2.18 3.8h4.37z"/><path d="m223.13 235.41-2.19 3.79h4.37z"/><path d="m220.94 239.2-2.19 3.8h4.38z"/><path d="m225.31 239.2-2.18 3.8h4.37z"/><path d="m236.25 227.81-2.19 3.8h4.38z"/><path d="m234.06 231.61-2.18 3.8h4.37z"/><path d="m238.44 231.61-2.19 3.8h4.38z"/><path d="m231.88 235.41-2.19 3.79h4.37z"/><path d="m229.69 239.2-2.19 3.8h4.38z"/><path d="m234.06 239.2-2.18 3.8h4.37z"/><path d="m240.63 235.41-2.19 3.79h4.37z"/><path d="m238.44 239.2-2.19 3.8h4.38z"/><path d="m242.81 239.2-2.18 3.8h4.37z"/><path d="m262.5 212.63-2.19 3.79h4.38z"/><path d="m260.31 216.42-2.18 3.8h4.37z"/><path d="m264.69 216.42-2.19 3.8h4.38z"/><path d="m258.13 220.22-2.19 3.8h4.37z"/><path d="m255.94 224.02-2.19 3.79h4.38z"/><path d="m260.31 224.02-2.18 3.79h4.37z"/><path d="m266.88 220.22-2.19 3.8h4.37z"/><path d="m264.69 224.02-2.19 3.79h4.38z"/><path d="m269.06 224.02-2.18 3.79h4.37z"/><path d="m253.75 227.81-2.19 3.8h4.38z"/><path d="m251.56 231.61-2.18 3.8h4.37z"/><path d="m255.94 231.61-2.19 3.8h4.38z"/><path d="m249.38 235.41-2.19 3.79h4.37z"/><path d="m247.19 239.2-2.19 3.8h4.38z"/><path d="m251.56 239.2-2.18 3.8h4.37z"/><path d="m258.13 235.41-2.19 3.79h4.37z"/><path d="m255.94 239.2-2.19 3.8h4.38z"/><path d="m260.31 239.2-2.18 3.8h4.37z"/><path d="m271.25 227.81-2.19 3.8h4.38z"/><path d="m269.06 231.61-2.18 3.8h4.37z"/><path d="m273.44 231.61-2.19 3.8h4.38z"/><path d="m266.88 235.41-2.19 3.79h4.37z"/><path d="m264.69 239.2-2.19 3.8h4.38z"/><path d="m269.06 239.2-2.18 3.8h4.37z"/><path d="m275.63 235.41-2.19 3.79h4.37z"/><path d="m273.44 239.2-2.19 3.8h4.38z"/><path d="m277.81 239.2-2.18 3.8h4.37z"/></g></svg>