<svg height="200" viewBox="0 0 530 200" width="530" xmlns="http://www.w3.org/2000/svg"><path d="m91 13v16h-20v16h-20v16h-20v16h-20v16h110v-16-16-16-16-16z" fill="#242436" opacity=".6"/><path d="m23 68c0-7.19 1.5-19.21 15.6-13.14" fill="none" stroke="#b30469" stroke-linecap="round" stroke-miterlimit="10" stroke-width="2"/><path d="m46 59-12.83-1.35 4.81-2.96-.19-5.63z" fill="#b30469"/><path d="m3 84c0-7.19 1.5-19.21 15.6-13.14" fill="none" stroke="#b30469" stroke-linecap="round" stroke-miterlimit="10" stroke-width="2"/><path d="m26 75-12.83-1.35 4.81-2.96-.19-5.63z" fill="#b30469"/><path d="m43 52c0-7.19 1.5-19.21 15.6-13.14" fill="none" stroke="#b30469" stroke-linecap="round" stroke-miterlimit="10" stroke-width="2"/><path d="m66 43-12.83-1.35 4.81-2.96-.19-5.63z" fill="#b30469"/><path d="m63 36c0-7.19 1.5-19.21 15.6-13.14" fill="none" stroke="#b30469" stroke-linecap="round" stroke-miterlimit="10" stroke-width="2"/><path d="m86 27-12.83-1.35 4.81-2.96-.19-5.63z" fill="#b30469"/><path d="m83 20c0-7.19 1.5-19.21 15.6-13.14" fill="none" stroke="#b30469" stroke-linecap="round" stroke-miterlimit="10" stroke-width="2"/><path d="m106 11-12.83-1.35 4.81-2.96-.19-5.63z" fill="#b30469"/><path d="m226 13v16h-20v16h-20v16h-20v16h-20v16h110v-16-16-16-16-16z" fill="#242436" opacity=".6"/><path d="m138 84c5.41-22.52 13.24-36.12 35.22-28.36" fill="none" stroke="#ff941f" stroke-linecap="round" stroke-miterlimit="10" stroke-width="2"/><path d="m181 59-12.9-.09 4.49-3.41-.73-5.6z" fill="#ff941f"/><path d="m293 67c5.41-22.52 13.24-36.12 35.22-28.36" fill="none" stroke="#ff941f" stroke-linecap="round" stroke-miterlimit="10" stroke-width="2"/><path d="m336 42-12.9-.09 4.5-3.41-.74-5.6z" fill="#ff941f"/><path d="m448 52c5.41-22.52 13.24-36.12 35.22-28.36" fill="none" stroke="#ff941f" stroke-linecap="round" stroke-miterlimit="10" stroke-width="2"/><path d="m491 27-12.9-.09 4.5-3.41-.74-5.6z" fill="#ff941f"/><path d="m63 142c5.41-22.52 13.24-36.12 35.22-28.36" fill="none" stroke="#ff941f" stroke-linecap="round" stroke-miterlimit="10" stroke-width="2"/><path d="m106 117-12.9-.09 4.49-3.41-.73-5.6z" fill="#ff941f"/><path d="m138 189c5.41-22.52 13.24-36.12 35.22-28.36" fill="none" stroke="#ff941f" stroke-linecap="round" stroke-miterlimit="10" stroke-width="2"/><path d="m181 164-12.9-.09 4.49-3.41-.73-5.6z" fill="#ff941f"/><path d="m273 190c5.41-22.52 13.24-36.12 35.22-28.36" fill="none" stroke="#ff941f" stroke-linecap="round" stroke-miterlimit="10" stroke-width="2"/><path d="m316 165-12.9-.09 4.5-3.41-.74-5.6z" fill="#ff941f"/><path d="m428 174c5.41-22.52 13.24-36.12 35.22-28.36" fill="none" stroke="#ff941f" stroke-linecap="round" stroke-miterlimit="10" stroke-width="2"/><path d="m471 149-12.9-.09 4.5-3.41-.74-5.6z" fill="#ff941f"/><path d="m333 142c5.41-22.52 13.24-36.12 35.22-28.36" fill="none" stroke="#ff941f" stroke-linecap="round" stroke-miterlimit="10" stroke-width="2"/><path d="m376 117-12.9-.09 4.5-3.41-.74-5.6z" fill="#ff941f"/><path d="m468 141c5.41-22.52 13.24-36.12 35.22-28.36" fill="none" stroke="#ff941f" stroke-linecap="round" stroke-miterlimit="10" stroke-width="2"/><path d="m511 116-12.9-.09 4.5-3.41-.74-5.6z" fill="#ff941f"/><path d="m178 158c5.41-22.52 13.24-36.12 35.22-28.36" fill="none" stroke="#ff941f" stroke-linecap="round" stroke-miterlimit="10" stroke-width="2"/><path d="m221 133-12.9-.09 4.49-3.41-.73-5.6z" fill="#ff941f"/><path d="m178 52c0-7.19 1.5-19.21 15.6-13.14" fill="none" stroke="#b30469" stroke-linecap="round" stroke-miterlimit="10" stroke-width="2"/><path d="m201 43-12.83-1.35 4.81-2.96-.19-5.63z" fill="#b30469"/><path d="m198 36c0-7.19 1.5-19.21 15.6-13.14" fill="none" stroke="#b30469" stroke-linecap="round" stroke-miterlimit="10" stroke-width="2"/><path d="m221 27-12.83-1.35 4.81-2.96-.19-5.63z" fill="#b30469"/><path d="m218 20c0-7.19 1.5-19.21 15.6-13.14" fill="none" stroke="#b30469" stroke-linecap="round" stroke-miterlimit="10" stroke-width="2"/><path d="m241 11-12.83-1.35 4.81-2.96-.19-5.63z" fill="#b30469"/><path d="m361 13v16h-20v16h-20v16h-20v16h-20v16h110v-16-16-16-16-16z" fill="#242436" opacity=".6"/><path d="m273 84c0-7.19 1.5-19.21 15.6-13.14" fill="none" stroke="#b30469" stroke-linecap="round" stroke-miterlimit="10" stroke-width="2"/><path d="m296 75-12.83-1.35 4.81-2.96-.19-5.63z" fill="#b30469"/><path d="m333 36c0-7.19 1.5-19.21 15.6-13.14" fill="none" stroke="#b30469" stroke-linecap="round" stroke-miterlimit="10" stroke-width="2"/><path d="m356 27-12.83-1.35 4.81-2.96-.19-5.63z" fill="#b30469"/><path d="m353 20c0-7.19 1.5-19.21 15.6-13.14" fill="none" stroke="#b30469" stroke-linecap="round" stroke-miterlimit="10" stroke-width="2"/><path d="m376 11-12.83-1.35 4.81-2.96-.19-5.63z" fill="#b30469"/><path d="m496 13v16h-20v16h-20v16h-20v16h-20v16h110v-16-16-16-16-16z" fill="#242436" opacity=".6"/><path d="m428 68c0-7.19 1.5-19.21 15.6-13.14" fill="none" stroke="#b30469" stroke-linecap="round" stroke-miterlimit="10" stroke-width="2"/><path d="m451 59-12.83-1.35 4.81-2.96-.19-5.63z" fill="#b30469"/><path d="m408 84c0-7.19 1.5-19.21 15.6-13.14" fill="none" stroke="#b30469" stroke-linecap="round" stroke-miterlimit="10" stroke-width="2"/><path d="m431 75-12.83-1.35 4.81-2.96-.19-5.63z" fill="#b30469"/><path d="m488 20c0-7.19 1.5-19.21 15.6-13.14" fill="none" stroke="#b30469" stroke-linecap="round" stroke-miterlimit="10" stroke-width="2"/><path d="m511 11-12.83-1.35 4.81-2.96-.19-5.63z" fill="#b30469"/><path d="m91 119v16h-20v16h-20v16h-20v16h-20v16h110v-16-16-16-16-16z" fill="#242436" opacity=".6"/><path d="m23 174c0-7.19 1.5-19.21 15.6-13.14" fill="none" stroke="#b30469" stroke-linecap="round" stroke-miterlimit="10" stroke-width="2"/><path d="m46 165-12.83-1.35 4.81-2.96-.19-5.63z" fill="#b30469"/><path d="m3 190c0-7.19 1.5-19.21 15.6-13.14" fill="none" stroke="#b30469" stroke-linecap="round" stroke-miterlimit="10" stroke-width="2"/><path d="m26 181-12.83-1.35 4.81-2.96-.19-5.63z" fill="#b30469"/><path d="m43 158c0-7.19 1.5-19.21 15.6-13.14" fill="none" stroke="#b30469" stroke-linecap="round" stroke-miterlimit="10" stroke-width="2"/><path d="m66 149-12.83-1.35 4.81-2.96-.19-5.63z" fill="#b30469"/><path d="m226 119v16h-20v16h-20v16h-20v16h-20v16h110v-16-16-16-16-16z" fill="#242436" opacity=".6"/><path d="m218 126c0-7.19 1.5-19.21 15.6-13.14" fill="none" stroke="#b30469" stroke-linecap="round" stroke-miterlimit="10" stroke-width="2"/><path d="m241 117-12.83-1.35 4.81-2.96-.19-5.63z" fill="#b30469"/><path d="m361 119v16h-20v16h-20v16h-20v16h-20v16h110v-16-16-16-16-16z" fill="#242436" opacity=".6"/><path d="m313 158c0-7.19 1.5-19.21 15.6-13.14" fill="none" stroke="#b30469" stroke-linecap="round" stroke-miterlimit="10" stroke-width="2"/><path d="m336 149-12.83-1.35 4.81-2.96-.19-5.63z" fill="#b30469"/><path d="m496 119v16h-20v16h-20v16h-20v16h-20v16h110v-16-16-16-16-16z" fill="#242436" opacity=".6"/><path d="m408 190c0-7.19 1.5-19.21 15.6-13.14" fill="none" stroke="#b30469" stroke-linecap="round" stroke-miterlimit="10" stroke-width="2"/><path d="m431 181-12.83-1.35 4.81-2.96-.19-5.63z" fill="#b30469"/></svg>