<svg x="0px" y="0px" viewBox="0 0 640 400" class="frame fill">

<path class="water" d="M619.3,164.7l-44.2-7.4l-51.2-18.7L472.7,110l-68.6-20.6l-68.6-10.6l-66.3,4.9l-66.3,12.9l-56.6,21.5
	l-48.6,25.5l-50,12.8L0,157.1v35.4l8.3-0.8l31-3.6l37.1,1.4l44.2,10.5l37.6,10.8l37.6,11.8l36.5,19.6l26.5,23.6l21,33.4l11,35.4
	l4.7,35.9l-2.7,29.5h39.5l0.7-27.3l4.9-35.5l8.9-28.2l14.9-28.2l35.1-25.7l37.1-17.7l45.9-19.7l51.9-13.7l65.3-6l43.3,4v-37.6
	L619.3,164.7z M302.7,177l-4.3,37.7l-6,24.4l-4.9,1.9l-36.1-28.7l-38.7-21.9l-36.5-13.4l-36.1-8.5l19.7-13.1l54.2-19.9l75.8-12.4
	l13.7,5.3L302.7,177z M455,190l-49.7,18.7l-60,30l-14-2.7l1.7-60.9l7.1-54.3l52.5,6.5l61.4,18.3l43.3,20.7l8.3,8.8L455,190z"/>

<rect class="bridge" x="304.1" y="333.1" transform="matrix(-7.022157e-02 0.9975 -0.9975 -7.022157e-02 698.9611 74.7749)" width="21" height="60"/>
<rect class="bridge" x="306.1" y="145.1" transform="matrix(2.311544e-02 0.9997 -0.9997 2.311544e-02 484.3976 -145.465)" width="21" height="60"/>
<rect class="bridge" x="214.1" y="187.1" transform="matrix(0.8505 0.5259 -0.5259 0.8505 147.7746 -85.6866)" width="21" height="60"/>
<rect class="bridge" x="399.1" y="82.1" transform="matrix(0.974 0.2264 -0.2264 0.974 36.0236 -89.8306)" width="21" height="60"/>
<rect class="bridge" x="408.1" y="193.1" transform="matrix(0.9432 -0.3322 0.3322 0.9432 -50.3463 151.7198)" width="21" height="60"/>
<rect class="bridge" x="218.1" y="84.1" transform="matrix(0.9813 -0.1923 0.1923 0.9813 -17.6834 46.1074)" width="21" height="60"/>

<rect x="194.7" y="150.1" transform="matrix(0.9164 0.4004 -0.4004 0.9164 83.3241 -69.5814)" fill="#eee" width="27" height="29"/>
<rect x="255.6" y="134.7" transform="matrix(0.9979 -6.540180e-02 6.540180e-02 0.9979 -8.9057 18.337)" fill="#eee" width="40" height="21"/>
<rect x="461.7" y="160.8" transform="matrix(0.4142 0.9102 -0.9102 0.4142 430.3787 -327.0054)" fill="#eee" width="15" height="20"/>
<rect x="352.4" y="180.9" transform="matrix(0.4318 0.902 -0.902 0.4318 391.4367 -212.5788)" fill="#eee" width="24" height="47"/>
<rect x="421.4" y="156.5" transform="matrix(0.9945 -0.1045 0.1045 0.9945 -15.4927 46.4006)" fill="#eee" width="27" height="29"/>
<rect x="351.4" y="129.5" transform="matrix(-0.1496 0.9887 -0.9887 -0.1496 561.9343 -195.2767)" fill="#eee" width="27" height="29"/>
<rect x="270.7" y="202.8" transform="matrix(-0.7227 0.6912 -0.6912 -0.7227 626.4043 174.3495)" fill="#eee" width="15" height="20"/>
<rect x="216.8" y="257.8" transform="matrix(0.6823 0.7311 -0.7311 0.6823 272.2569 -81.8157)" fill="#eee" width="27" height="29"/>
<rect x="238.9" y="286.9" transform="matrix(0.4698 0.8828 -0.8828 0.4698 399.8651 -63.043)" fill="#eee" width="27" height="29"/>
<rect x="254.4" y="320.9" transform="matrix(0.423 0.9061 -0.9061 0.423 458.4907 -49.1791)" fill="#eee" width="27" height="29"/>
<rect x="95.3" y="96.2" transform="matrix(0.8043 -0.5943 0.5943 0.8043 -44.4832 86.294)" fill="#eee" width="27" height="29"/>
<rect x="130.1" y="76.7" transform="matrix(0.9307 -0.3659 0.3659 0.9307 -23.4251 58.856)" fill="#eee" width="27" height="29"/>
<rect x="169.7" y="63.3" transform="matrix(0.9485 -0.3167 0.3167 0.9485 -15.2048 62.0014)" fill="#eee" width="27" height="29"/>
<rect x="44.6" y="119.7" transform="matrix(0.9663 -0.2576 0.2576 0.9663 -31.3511 21.0355)" fill="#eee" width="40" height="21"/>
<rect x="10.4" y="99.9" transform="matrix(0.9999 -1.414569e-02 1.414569e-02 0.9999 -1.7434 0.3299)" fill="#eee" width="24" height="47"/>
<rect x="10.7" y="199.8" transform="matrix(0.9951 -9.852698e-02 9.852698e-02 0.9951 -20.3241 4.379)" fill="#eee" width="46.9" height="16.3"/>
<rect x="235.7" y="376.8" fill="#eee" width="46.9" height="16.3"/>
<rect x="326" y="45" transform="matrix(0.9976 -6.975647e-02 6.975647e-02 0.9976 -3.3252 23.8258)" fill="#eee" width="27" height="29"/>
<rect x="367.2" y="49.7" transform="matrix(0.9986 5.233596e-02 -5.233596e-02 0.9986 3.881 -19.8375)" fill="#eee" width="27" height="29"/>
<rect x="250" y="51" transform="matrix(0.9976 -6.975647e-02 6.975647e-02 0.9976 -3.9288 18.5389)" fill="#eee" width="27" height="29"/>
<rect x="494.4" y="66.6" transform="matrix(0.8421 0.5393 -0.5393 0.8421 128.292 -259.8242)" fill="#eee" width="27" height="45.3"/>
<rect x="523.8" y="100.7" transform="matrix(0.9177 0.3973 -0.3973 0.9177 89.9736 -203.9937)" fill="#eee" width="27" height="29"/>
<rect x="563.1" y="117.2" transform="matrix(0.9372 0.3487 -0.3487 0.9372 82.1031 -192.7836)" fill="#eee" width="27" height="29"/>
<rect x="603.5" y="126.9" transform="matrix(0.9627 0.2707 -0.2707 0.9627 60.4061 -161.8494)" fill="#eee" width="27" height="22.4"/>
<rect x="442" y="57" transform="matrix(0.9587 0.2843 -0.2843 0.9587 40.5411 -128.2438)" fill="#eee" width="40" height="37"/>
<rect x="110.6" y="212.3" transform="matrix(0.9867 0.1624 -0.1624 0.9867 38.4682 -17.1446)" fill="#eee" width="27" height="29"/>
<rect x="147.7" y="226.3" transform="matrix(0.9545 0.2981 -0.2981 0.9545 78.2314 -39.222)" fill="#eee" width="40" height="21"/>
<rect x="69.5" y="203.1" transform="matrix(0.973 0.2308 -0.2308 0.973 52.4521 -13.2722)" fill="#eee" width="27" height="29"/>
<rect x="129.5" y="259.7" transform="matrix(0.9815 0.1914 -0.1914 0.9815 55.8529 -24.7359)" fill="#eee" width="53" height="34"/>
<rect x="11" y="242.6" transform="matrix(0.9815 0.1914 -0.1914 0.9815 49.5541 -3.8149)" fill="#eee" width="67" height="24"/>
<rect x="49.5" y="80.5" transform="matrix(0.9994 -3.489950e-02 3.489950e-02 0.9994 -3.2778 2.2565)" fill="#eee" width="27" height="29"/>
<rect x="134" y="30" transform="matrix(0.9976 -6.975647e-02 6.975647e-02 0.9976 -2.7465 10.396)" fill="#eee" width="27" height="29"/>
<rect x="170.6" y="8.7" transform="matrix(0.9986 5.233590e-02 -5.233590e-02 0.9986 1.858 -9.5938)" fill="#eee" width="27" height="44"/>
<rect x="53" y="44" transform="matrix(0.9976 -6.975647e-02 6.975647e-02 0.9976 -3.9204 4.7799)" fill="#eee" width="27" height="29"/>
<rect x="3.8" y="48.9" transform="matrix(-1.542559e-02 0.9999 -0.9999 -1.542559e-02 89.5785 38.6342)" fill="#eee" width="44" height="29"/>
<rect x="113.7" y="5.8" transform="matrix(0.9994 3.489964e-02 -3.489964e-02 0.9994 0.571 -4.7788)" fill="#eee" width="46.9" height="16.3"/>
<rect x="56.3" y="6.3" transform="matrix(0.9994 -3.489963e-02 3.489963e-02 0.9994 -0.6784 2.6857)" fill="#eee" width="40.6" height="29"/>
<rect x="16.2" y="5.7" transform="matrix(0.9986 5.233596e-02 -5.233596e-02 0.9986 1.0972 -1.5279)" fill="#eee" width="27" height="29"/>
<rect x="571.7" y="211.8" transform="matrix(0.9346 -0.3556 0.3556 0.9346 -42.2081 222.8792)" fill="#eee" width="27" height="29"/>
<rect x="496.8" y="221.6" transform="matrix(0.9346 -0.3556 0.3556 0.9346 -50.6151 196.898)" fill="#eee" width="27" height="29"/>
<rect x="531.8" y="212.6" transform="matrix(0.971 -0.2391 0.2391 0.971 -38.4829 136.9335)" fill="#eee" width="27" height="29"/>
<rect x="447.1" y="243.4" transform="matrix(0.2748 0.9615 -0.9615 0.2748 588.1718 -264.0223)" fill="#eee" width="44" height="29"/>
<rect x="601.6" y="219.7" transform="matrix(3.681944e-02 0.9993 -0.9993 3.681944e-02 828.7692 -399.4838)" fill="#eee" width="40" height="21"/>
<rect x="394.4" y="262.8" transform="matrix(-0.8053 0.5929 -0.5929 -0.8053 900.8162 258.7004)" fill="#eee" width="27" height="29"/>
<rect x="365.3" y="286.7" transform="matrix(-0.5246 0.8514 -0.8514 -0.5246 834.0316 136.7267)" fill="#eee" width="27" height="29"/>
<rect x="351.4" y="323.2" transform="matrix(-0.2358 0.9718 -0.9718 -0.2358 779.0886 62.7271)" fill="#eee" width="27" height="29"/>
<rect x="576.5" y="77.7" transform="matrix(0.9815 0.1914 -0.1914 0.9815 29.2809 -113.6629)" fill="#eee" width="53" height="34"/>
<rect x="8.1" y="357.5" transform="matrix(5.094785e-02 0.9987 -0.9987 5.094785e-02 392.0239 331.4958)" fill="#eee" width="27" height="29"/>
<rect x="52.7" y="284.7" transform="matrix(-7.114301e-02 0.9975 -0.9975 -7.114301e-02 369.2642 254.4609)" fill="#eee" width="27" height="29"/>
<rect x="9.5" y="275.4" transform="matrix(5.094785e-02 0.9987 -0.9987 5.094785e-02 311.391 252.1479)" fill="#eee" width="27" height="29"/>
<rect x="9.2" y="316.8" transform="matrix(-7.114301e-02 0.9975 -0.9975 -7.114301e-02 354.7035 332.2369)" fill="#eee" width="27" height="29"/>
<rect x="78.8" y="366.2" transform="matrix(-0.9984 5.728294e-02 -5.728294e-02 -0.9984 206.2594 755.5436)" fill="#eee" width="27" height="29"/>
<rect x="44.6" y="353" transform="matrix(-0.9979 -6.481336e-02 6.481336e-02 -0.9979 92.2175 738.0895)" fill="#eee" width="27" height="29"/>
<rect x="154.8" y="364.2" transform="matrix(-0.9984 5.728294e-02 -5.728294e-02 -0.9984 358.0803 747.092)" fill="#eee" width="27" height="29"/>
<rect x="117.6" y="366" transform="matrix(-0.9979 -6.481336e-02 6.481336e-02 -0.9979 237.184 768.792)" fill="#eee" width="27" height="29"/>
<rect x="192.2" y="355.9" transform="matrix(2.792146e-02 -0.9996 0.9996 2.792146e-02 -162.0366 574.0789)" fill="#eee" width="44" height="29"/>
<rect x="565.8" y="367.6" transform="matrix(0.9976 -6.975647e-02 6.975647e-02 0.9976 -25.0222 42.7267)" fill="#eee" width="67" height="24"/>
<rect x="606" y="259" fill="#eee" width="27" height="29"/>
<rect x="479.4" y="361.5" transform="matrix(0.9945 -0.1045 0.1045 0.9945 -36.6033 53.5863)" fill="#eee" width="27" height="29"/>
<rect x="517.6" y="365.7" transform="matrix(0.9994 3.489950e-02 -3.489950e-02 0.9994 13.4564 -18.5336)" fill="#eee" width="40" height="21"/>
<rect x="437.3" y="363.5" transform="matrix(0.9994 -3.489950e-02 3.489950e-02 0.9994 -12.9179 15.963)" fill="#eee" width="27" height="29"/>
<rect x="386.6" y="372.7" transform="matrix(0.9994 -3.566528e-02 3.566528e-02 0.9994 -13.4079 14.7461)" fill="#eee" width="40" height="21"/>
<rect x="585.5" y="308.7" transform="matrix(5.348533e-02 0.9986 -0.9986 5.348533e-02 904.4891 -302.7786)" fill="#eee" width="53" height="34"/>
<rect x="555.2" y="326.7" transform="matrix(0.9986 5.233596e-02 -5.233596e-02 0.9986 18.6357 -29.2971)" fill="#eee" width="27" height="29"/>
<rect x="438" y="324" transform="matrix(0.9976 -6.975647e-02 6.975647e-02 0.9976 -22.5144 32.3182)" fill="#eee" width="27" height="29"/>
<rect x="475.2" y="321.7" transform="matrix(0.9986 5.233596e-02 -5.233596e-02 0.9986 18.2644 -25.117)" fill="#eee" width="27" height="29"/>
<rect x="551.8" y="253.9" transform="matrix(-0.9771 -0.2128 0.2128 -0.9771 1077.2667 652.8009)" fill="#eee" width="44" height="29"/>
<rect x="554.1" y="289.2" transform="matrix(-0.12 0.9928 -0.9928 -0.12 937.1429 -223.3689)" fill="#eee" width="27" height="29"/>
<rect x="84.2" y="299.9" transform="matrix(4.408571e-02 -0.999 0.999 4.408571e-02 -212.5757 406.5415)" fill="#eee" width="44" height="29"/>
<rect x="130.6" y="302.3" transform="matrix(0.9867 0.1624 -0.1624 0.9867 53.347 -19.1977)" fill="#eee" width="27" height="29"/>
<rect x="404.4" y="335.2" transform="matrix(-0.9969 7.837562e-02 -7.837562e-02 -0.9969 861.8836 665.5521)" fill="#eee" width="27" height="29"/>
<rect x="508.7" y="274.8" transform="matrix(-0.167 -0.986 0.986 -0.167 342.0489 854.9213)" fill="#eee" width="46.9" height="16.3"/>
<rect x="482.7" y="278.8" transform="matrix(-2.517164e-02 -0.9997 0.9997 -2.517164e-02 232.0399 800.2042)" fill="#eee" width="46.9" height="16.3"/>
<rect x="381.1" y="9.1" transform="matrix(-0.9988 4.866528e-02 -4.866528e-02 -0.9988 829.7026 21.908)" fill="#eee" width="67" height="24"/>
<rect x="511.3" y="6.4" transform="matrix(-0.9996 -2.969916e-02 2.969916e-02 -0.9996 1048.7432 57.4252)" fill="#eee" width="27" height="29"/>
<rect x="458.1" y="7.3" transform="matrix(-0.9889 0.1489 -0.1489 -0.9889 953.5862 -35.7806)" fill="#eee" width="40" height="21"/>
<rect x="549.5" y="7.3" transform="matrix(-0.9999 1.377745e-02 -1.377745e-02 -0.9999 1126.1906 35.8641)" fill="#eee" width="27" height="29"/>
<rect x="587.3" y="9.1" transform="matrix(-0.9999 1.454365e-02 -1.454365e-02 -0.9999 1214.722 30.3009)" fill="#eee" width="40" height="21"/>
<rect x="604.7" y="40.8" transform="matrix(0.9982 -6.036947e-02 6.036947e-02 0.9982 -2.208 37.4185)" fill="#eee" width="27" height="29"/>
<rect x="243.4" y="10" transform="matrix(8.689240e-02 0.9962 -0.9962 8.689240e-02 261.1335 -235.9777)" fill="#eee" width="31.9" height="29"/>
<rect x="207.8" y="8" transform="matrix(0.9986 -5.259272e-02 5.259272e-02 0.9986 -0.8697 11.6911)" fill="#eee" width="27.7" height="28.7"/>
<rect x="325.8" y="9.2" transform="matrix(0.9921 0.1254 -0.1254 0.9921 5.7148 -43.4314)" fill="#eee" width="44" height="29"/>
<rect x="286" y="5.8" transform="matrix(0.9869 -0.1615 0.1615 0.9869 0.6531 48.6459)" fill="#eee" width="27" height="29"/>
<rect x="571" y="43.1" transform="matrix(-0.9988 4.866528e-02 -4.866528e-02 -0.9988 1168.4454 78.2507)" fill="#eee" width="24.5" height="20.5"/>
<rect x="484" y="37.1" transform="matrix(-0.4013 -0.916 0.916 -0.4013 652.0462 520.9103)" fill="#eee" width="24.5" height="20.5"/>

<g class="paths"></g>

<g class="error">
	<circle fill="#004bb8" cx="20" cy="20" r="20"/>
	<path opacity="0.5" fill="#F2F2F2" d="M15.3,20.9c-1.9,2.2-4.3,2.5-6.9,1.7c-0.8-0.3-1.2-0.8-1.4-1.7c-0.1-1.3-0.3-2.5-0.5-4.1
		c1.4,1.4,2.8,2.1,4.5,2c1.7-0.1,3.1-0.9,4.2-2.3c1.2,1.5,2.6,2.4,4.4,2.3c1.8,0,3.3-0.8,4.4-2.3c3,3.4,6.7,2.6,8.9-0.1
		c-0.3,1.9-0.4,3.5-0.8,5.1c-0.1,0.4-0.6,0.6-1,0.9c-2.3,1.2-5,0.6-7.1-1.5C23,22.3,21.5,23,19.7,23C17.9,23,16.4,22.3,15.3,20.9z"/>
	<path opacity="0.5" fill="#F2F2F2" d="M15.3,29.9c-1.9,2.2-4.3,2.5-6.9,1.7c-0.8-0.3-1.2-0.8-1.4-1.7c-0.1-1.3-0.3-2.5-0.5-4.1
		c1.4,1.4,2.8,2.1,4.5,2c1.7-0.1,3.1-0.9,4.2-2.3c1.2,1.5,2.6,2.4,4.4,2.3c1.8,0,3.3-0.8,4.4-2.3c3,3.4,6.7,2.6,8.9-0.1
		c-0.3,1.9-0.4,3.5-0.8,5.1c-0.1,0.4-0.6,0.6-1,0.9c-2.3,1.2-5,0.6-7.1-1.5C23,31.3,21.5,32,19.7,32C17.9,32,16.4,31.3,15.3,29.9z"/>
	<polygon opacity="0.5" fill="#F2F2F2" points="24.7,6.2 22.6,4.1 19.8,6.9 16.9,4.1 14.8,6.2 17.7,9 14.8,11.8 16.9,13.9 19.8,11.1 22.6,13.9 24.7,11.8 21.9,9 	"/>
</g>

</svg>
