<svg x="0px" y="0px" viewBox="0 0 200 200">

<polygon style="opacity: 0" fill="#006DD9" points="29,57 100,23 175,57 140,175 60,175"/>

<line style="stroke: #999" stroke-width="2" x1="29" y1="57" x2="100" y2="23"/>
<line style="stroke: #999" stroke-width="2" x1="100" y1="23" x2="175" y2="57"/>
<line style="stroke: #999" stroke-width="2" x1="175" y1="57" x2="100" y2="81"/>
<line style="stroke: #999" stroke-width="2" x1="100" y1="81" x2="29" y2="57"/>
<line style="stroke: #999" stroke-width="2" x1="29" y1="57" x2="60" y2="175"/>
<line style="stroke: #999" stroke-width="2" x1="60" y1="175" x2="140" y2="175"/>
<line style="stroke: #999" stroke-width="2" x1="140" y1="175" x2="175" y2="57"/>
<line style="stroke: #999" stroke-width="2" x1="60" y1="175" x2="100" y2="81"/>
<line style="stroke: #999" stroke-width="2" x1="100" y1="81" x2="140" y2="175"/>
<line style="stroke: #999" stroke-width="2" x1="100" y1="23" x2="100" y2="81"/>

<circle style="fill: #999" stroke="#FFFFFF" stroke-width="2" cx="29" cy="57" r="7"/>
<circle style="fill: #999" stroke="#FFFFFF" stroke-width="2" cx="60" cy="175" r="7"/>
<circle style="fill: #999" stroke="#FFFFFF" stroke-width="2" cx="140" cy="175" r="7"/>
<circle style="fill: #999" stroke="#FFFFFF" stroke-width="2" cx="175" cy="57" r="7"/>
<circle style="fill: #999" stroke="#FFFFFF" stroke-width="2" cx="100" cy="81" r="7"/>
<circle style="fill: #999" stroke="#FFFFFF" stroke-width="2" cx="100" cy="23" r="7"/>

</svg>
