<svg id="konigsberg" x="0px" y="0px" viewBox="50 0 200 180">
<rect class="background" fill="#EEEEEE" width="300" height="180"/>
<path class="water" fill="#6AB0CE" d="M300,69.1l-9.7,0.1l-20.7-3.5l-24-8.8l-24-13.4l-32.2-9.7l-32.2-5l-31.1,2.3l-31.1,6.1L68.5,47.3l-22.8,12
	l-23.5,6L0,65.7v16.6l3.9-0.4l14.5-1.7l17.4,0.7l20.7,4.9l17.6,5.1l17.6,5.5l17.1,9.2l12.4,11.1l9.8,15.6l5.1,16.6l2.2,17.1
	l-1.3,14.1h18.5l0.3-13l2.3-16.7l4.2-13.3l7-13.2l16.4-12.1l17.4-8.3l21.5-9.2l24.3-6.4l30.6-2.8l20.3,1.9V69.1z M141.9,75l-2,17.7
	l-2.8,11.4l-2.3,0.9l-16.9-13.5L99.6,81.2l-17.1-6.3l-16.9-4l9.2-6.1l25.4-9.3l35.5-5.8l6.4,2.5L141.9,75z M213.3,81.1L190,89.8
	l-28.1,14.1l-6.5-1.2l0.8-28.5l3.3-25.5l24.6,3.1l28.8,8.6l20.3,9.7l3.9,4.1L213.3,81.1z"/>

<rect class="bridge" x="142.6" y="147.2" transform="matrix(-7.022157e-02 0.9975 -0.9975 -7.022157e-02 318.6603 25.4188)" fill="#F7931E" width="9.8" height="28.1"/>
<rect class="bridge" x="143.5" y="61" transform="matrix(2.311544e-02 0.9997 -0.9997 2.311544e-02 220.0633 -75.0248)" fill="#F7931E" width="9.8" height="28.1"/>
<rect class="bridge" x="99.4" y="79.7" transform="matrix(0.8505 0.5259 -0.5259 0.8505 64.9124 -40.8354)" fill="#F7931E" width="9.8" height="28.1"/>
<rect class="bridge" x="188.1" y="30.5" transform="matrix(0.974 0.2264 -0.2264 0.974 15.1008 -42.5422)" fill="#F7931E" width="9.8" height="28.1"/>
<rect class="bridge" x="191.3" y="82.5" transform="matrix(0.9432 -0.3322 0.3322 0.9432 -20.9426 70.6645)" fill="#F7931E" width="9.8" height="28.1"/>
<rect class="bridge" x="101.2" y="31.4" transform="matrix(0.9813 -0.1923 0.1923 0.9813 -6.769 21.2711)" fill="#F7931E" width="9.8" height="28.1"/>

<path class="edge" fill="none" stroke="#B30469" stroke-width="2" d="M94,143c-4.2-33.2,16.5-65.6,26-72"/>
<path class="edge" fill="none" stroke="#B30469" stroke-width="2" d="M180,71c13.5,14,30,48.8,23,72"/>
<path class="edge" fill="none" stroke="#B30469" stroke-width="2" d="M203,143c-24.5,25.1-84.5,25.1-109,0"/>
<path class="edge" fill="none" stroke="#B30469" stroke-width="2" d="M120,71c-22.5-32.5-26.3-51.2,29-58"/>
<path class="edge" fill="none" stroke="#B30469" stroke-width="2" d="M149,13c16.2-2.2,73.5,1.8,31,58"/>
<path class="edge" fill="none" stroke="#B30469" stroke-width="2" d="M120,71c14.4,5,43.2,6.9,60,0"/>

<path class="trace" fill="none" stroke="#1F7AFF" stroke-width="6" d="M120,71c-22.5-32.5-26.3-51.2,29-58c16.2-2.2,73.5,1.8,31,58
	c13.5,14,30,48.8,23,72c-24.5,25.1-84.5,25.1-109,0C89.8,109.8,110.5,77.4,120,71c14.4,5,43.2,6.9,60,0"/>

<circle class="vertex" stroke-width="2" fill="#B30469" stroke="#FFFFFF" cx="149" cy="13" r="7"/>
<circle class="vertex" stroke-width="2" fill="#B30469" stroke="#FFFFFF" cx="120" cy="71" r="7"/>
<circle class="vertex" stroke-width="2" fill="#B30469" stroke="#FFFFFF" cx="180" cy="71" r="7"/>
<circle class="vertex" stroke-width="2" fill="#B30469" stroke="#FFFFFF" cx="203" cy="143" r="7"/>
<circle class="vertex" stroke-width="2" fill="#B30469" stroke="#FFFFFF" cx="94" cy="143" r="7"/>
</svg>
