<svg viewBox="0 0 380 260"  width="380" height="260" style="max-width: 380px;">
  <defs>
    <linearGradient id="tile" x1="0" y1="-1" x2="0" y2="1" gradientTransform="rotate(70)">
      <stop offset="0" stop-color="#b29e89"></stop>
      <stop offset="0.15" stop-color="#c7b299"></stop>
      <stop offset="0.3" stop-color="#b29e89"></stop>
      <stop offset="0.45" stop-color="#c7b299"></stop>
      <stop offset="0.6" stop-color="#b29e89"></stop>
    </linearGradient>
  </defs>

  <g class="tiles"></g>

  <g opacity="0.2">
    <line x1="40" y1="90" x2="340" y2="90" stroke="#736357"/>
    <line x1="40" y1="100" x2="340" y2="100" stroke="#736357"/>
    <line x1="40" y1="80" x2="340" y2="80" stroke="#736357"/>
    <line x1="40" y1="70" x2="340" y2="70" stroke="#736357"/>
    <line x1="40" y1="60" x2="340" y2="60" stroke="#736357"/>
    <line x1="40" y1="50" x2="340" y2="50" stroke="#736357"/>
    <line x1="40" y1="150" x2="340" y2="150" stroke="#736357"/>
    <line x1="40" y1="160" x2="340" y2="160" stroke="#736357"/>
    <line x1="40" y1="140" x2="340" y2="140" stroke="#736357"/>
    <line x1="40" y1="130" x2="340" y2="130" stroke="#736357"/>
    <line x1="40" y1="120" x2="340" y2="120" stroke="#736357"/>
    <line x1="40" y1="110" x2="340" y2="110" stroke="#736357"/>
    <line x1="40" y1="210" x2="340" y2="210" stroke="#736357"/>
    <line x1="40" y1="220" x2="340" y2="220" stroke="#736357"/>
    <line x1="40" y1="200" x2="340" y2="200" stroke="#736357"/>
    <line x1="40" y1="190" x2="340" y2="190" stroke="#736357"/>
    <line x1="40" y1="180" x2="340" y2="180" stroke="#736357"/>
    <line x1="40" y1="170" x2="340" y2="170" stroke="#736357"/>
    <line x1="40" y1="40" x2="340" y2="40" stroke="#736357"/>
    <line x1="90" y1="220" x2="90" y2="40" stroke="#736357"/>
    <line x1="100" y1="220" x2="100" y2="40" stroke="#736357"/>
    <line x1="80"  y1="220" x2="80" y2="40" stroke="#736357"/>
    <line x1="70"  y1="220" x2="70" y2="40" stroke="#736357"/>
    <line x1="60"  y1="220" x2="60" y2="40" stroke="#736357"/>
    <line x1="50"  y1="220" x2="50" y2="40" stroke="#736357"/>
    <line x1="150" y1="220" x2="150" y2="40" stroke="#736357"/>
    <line x1="160" y1="220" x2="160" y2="40" stroke="#736357"/>
    <line x1="140" y1="220" x2="140" y2="40" stroke="#736357"/>
    <line x1="130" y1="220" x2="130" y2="40" stroke="#736357"/>
    <line x1="120" y1="220" x2="120" y2="40" stroke="#736357"/>
    <line x1="110" y1="220" x2="110" y2="40" stroke="#736357"/>
    <line x1="210" y1="220" x2="210" y2="40" stroke="#736357"/>
    <line x1="220" y1="220" x2="220" y2="40" stroke="#736357"/>
    <line x1="200" y1="220" x2="200" y2="40" stroke="#736357"/>
    <line x1="190" y1="220" x2="190" y2="40" stroke="#736357"/>
    <line x1="180" y1="220" x2="180" y2="40" stroke="#736357"/>
    <line x1="170" y1="220" x2="170" y2="40" stroke="#736357"/>
    <line x1="270" y1="220" x2="270" y2="40" stroke="#736357"/>
    <line x1="280" y1="220" x2="280" y2="40" stroke="#736357"/>
    <line x1="260" y1="220" x2="260" y2="40" stroke="#736357"/>
    <line x1="250" y1="220" x2="250" y2="40" stroke="#736357"/>
    <line x1="240" y1="220" x2="240" y2="40" stroke="#736357"/>
    <line x1="230" y1="220" x2="230" y2="40" stroke="#736357"/>
    <line x1="330" y1="220" x2="330" y2="40" stroke="#736357"/>
    <line x1="340" y1="220" x2="340" y2="40" stroke="#736357"/>
    <line x1="320" y1="220" x2="320" y2="40" stroke="#736357"/>
    <line x1="310" y1="220" x2="310" y2="40" stroke="#736357"/>
    <line x1="300" y1="220" x2="300" y2="40" stroke="#736357"/>
    <line x1="290" y1="220" x2="290" y2="40" stroke="#736357"/>
    <line x1="40"  y1="220" x2="40" y2="40" stroke="#736357"/>
  </g>

  <polygon points="340 40 40 40 0 0 380 0 340 40" fill="gray"/>
  <polygon points="40 220 340 220 380 260 0 260 40 220" fill="#ccc"/>
  <polygon points="40 220 40 40 0 0 0 260 40 220" fill="#999"/>
  <polygon points="340 40 340 220 380 260 380 0 340 40" fill="#b3b3b3"/>

  <path d="M129.9,40H96.8L81.3,15h38.6Z" fill="#4d4d4d"/>
  <path d="M209.1,27h-36l-1.2-12h38.7Z" fill="#4d4d4d"/>
  <path d="M293.2,27h-36l4.9-12h38.7Z" fill="#4d4d4d"/>
  <path d="M368,157v43.3L340,184V151Z" fill="#666"/>
  <path d="M368,51.3V94.6l-12,3.6V59.3Z" fill="#666"/>
  <path d="M115.8,248H74.6l2.2-12h40.4Z" fill="#666"/>
  <path d="M211.8,248H170.7l0.4-12h40.4Z" fill="#666"/>
  <path d="M307.9,248H266.7l-1.4-12h40.4Z" fill="#666"/>
  <path d="M27,147.2v37.8l-12,6.4V149.2Z" fill="#666"/>
  <path d="M27,68.2V106l-12-2.8V61Z" fill="#666"/>

  <g>
    <path d="M268.3,146.9s-0.4,8.7-5.1,6.4-7.2-.8-8.9,3-8.7,6.8-6.1,10,1.5,5.9-.6,7,0,4.4,1.5,5.5-0.4,3.2-4.2,2.7-6.3,2.7-1.1,4.2,5.7,3.8.8,5.7-4.2,4.5,0,5.5-4,5.9,2.3,6.1-3.4,6.6,1.9,5.7,5.5,2.8,3,6.8,8,6.3,8,6.3,4.4,5.3,10.6,3.8,3.6-1.9,6.6,5.5,7.2,8.7,10.2,4.9,4.9-3.8,8.9-2.7,5.3-1.9,5.3-4.5,1.5-4.4,5.9-1.7,3.2,2.7,5.1.4,6.8-2.1,6.8-3.4,3.4-.4,4.9.9,2.7-3.8,2.7-5.5,6.3-5.3,4.5-8.7-3.2-7.4.3-9.9,4.1-3.6,2.4-6.3-0.8-4.4-.4-7.8,1.5-4.4-.4-6.8,2.3-5.5,0-9.3S332,164.3,328,160s-4.7-1.9-3.6-7.6-1.9-9.3-7-7.8-16.3,1.4-18.4-.3-6.3-4.4-7.8-2.3-6.3,7.8-11,2.8-8-.2-8.3,1.1S268.3,146.9,268.3,146.9Z" fill="#717d3a" opacity="0.8"/>
    <path d="M283.9,156s-8.7-1.7-7.8,5.5-1.7,2.8-6.6,1.5-9.5,4.4-5.5,8.3-1.5,7.8-4.7,7.8-8.1,5.1-2.5,8.3,7.6,5.9,4,9.3-5.9,6.6-.9,7.4,10.6,0.4,6.8,6.4-2.8,8,3.2,7.6,12.5,1.5,14,4.2,4,8.5,8.7,2.7,11.7-9.5,16.7-7.2,11.4-1.9,9.5-8.1-3.8-12.5,2.3-11.7,8.9-.8,3.4-9.1-6.6-11.2-5.1-12.7,5.3-4.7,0-6.8-5.9-3.6-4.2-7-1.7-8.9-6.4-4.7-10.2,6.8-10.2.2-7.8-6.4-8.9-2.7S283.9,156,283.9,156Z" fill="#638437" opacity="0.8"/>
    <path d="M283.6,170.7s13.6-8.9,10.9-1.3,1,5,5.7,3.4,8.7,2.5,6,5-5.9,4.9-1.7,5.9,10.6,8.7,6.5,8.6-12.2-2.2-7.5,2.2,3.4,12.4.2,9.9-12.1-4.7-10.2.5-5.2,10.4-8.6,5.4-3.2-11.4-8.9-9.7-9.9-3-6-7,5.7-6.4,2.2-10.7-2-7,2.7-7.9S275.7,166,283.6,170.7Z" fill="#577538"/>
    <path d="M260.8,196.7s-7.2-2.8-2.5-7.5-2-6,1.5-8.8-4.2-6.3.9-9.8,3.4-9.9,7.8-9.3" fill="none" stroke="#000" stroke-miterlimit="10" stroke-width="0.66" opacity="0.7"/>
    <path d="M283.3,170.8s6.8-4,11.4,1.1" fill="none" stroke="#000" stroke-miterlimit="10" stroke-width="0.66" opacity="0.9"/>
    <path d="M281.4,154.7s6.1,3,10.4,0,3.6-.3,4.5,1.3,4-5,7-2.7,4.5,0.3,4.7,3" fill="none" stroke="#000" stroke-miterlimit="10" stroke-width="0.66" opacity="0.7"/>
    <path d="M312.7,166.6s4.7,4.4,1.7,8.5" fill="none" stroke="#000" stroke-miterlimit="10" stroke-width="0.66" opacity="0.7"/>
    <path d="M318.7,177.6s7.6,4.5,3,6.8-3.6,4-2.1,7.4,0.7,2.5-1.3,4.9" fill="none" stroke="#000" stroke-miterlimit="10" stroke-width="0.66" opacity="0.7"/>
    <path d="M276.7,181.8s-2.1,4,0,5.4-0.2-.3,0,5,0.4,6.3,2.8,8.1" fill="none" stroke="#000" stroke-miterlimit="10" stroke-width="0.66" opacity="0.9"/>
    <path d="M294.7,185.2l-2.5,3.4" fill="none" stroke="#000" stroke-miterlimit="10" stroke-width="0.66"/>
    <path d="M286,198.6s0.8,5.5,4.4,4.2,4.2-1.9,7,.2,3.2,0,4.7-2.7,4.9-3,4.5-4.5" fill="none" stroke="#000" stroke-miterlimit="10" stroke-width="0.66" opacity="0.9"/>
    <path d="M305.8,185.2s2.5,3.4,0,5.9" fill="none" stroke="#000" stroke-miterlimit="10" stroke-width="0.66" opacity="0.9"/>
    <path d="M266.6,203.8s-0.4,8.8,2.8,6.9,1.2,3.6,6.3,3.8,2.8,7.4,8.9,5.9,6.6-2.8,10-.8,3.8,0.4,4.9-2.5,2.9-3.4,7.3-1.3,6.5,2.3,7.1-1.9,5.5-7.2,6.8-7.6" fill="none" stroke="#000" stroke-miterlimit="10" stroke-width="0.66" opacity="0.7"/>
  </g>
</svg>
