<svg viewBox="0 0 760 270" width="760" height="270">
  <path fill="#8D3012" stroke="#FFFFFF" d="M610.5,39.5c-44.5-14-93.5-21.2-141-21.2H290.9 c-47.5,0-96.6,7.2-141.1,21.2C101,54.8,59.7,77.7,34.6,105.8C5.1,138.6,0.8,175,29,206.8C61.5,243.4,129.5,266,216.5,266h326.9 c87,0,155-22.6,187.6-59.2c28.3-31.8,24-68.2-5.3-101C700.5,77.7,659.2,54.8,610.5,39.5z M533.7,233.9H226.1 c-143.5,0-206.6-66.6-156.9-128.1c37.6-46.6,132.3-77,218.6-77h184.9c86.3,0,180.9,30.4,218.4,77 C740.4,167.3,677.3,233.9,533.7,233.9z"/>
  <path fill="#8D3012" stroke="#FFFFFF" d="M472.8,29.4H287.5c-85.6,0-179.4,30.2-216.5,76.4 c-48.8,60.8,13.8,126.5,155.6,126.5h306.7c141.7,0,204.5-65.7,155.8-126.5C652.1,59.5,558.4,29.4,472.8,29.4z M524.8,203.9H235.1 c-109.9,0-164.1-49.6-129.5-98.1C133.3,67,211.3,40.7,284.1,40.7h192c72.9,0,150.8,26.2,178.4,65.1 C689,154.3,634.7,203.9,524.8,203.9z"/>
  <path fill="#8D3012" stroke="#FFFFFF" d="M476.3,41.4H283.9c-72.2,0-149.3,26-176.4,64.4 c-33.9,47.9,19.7,96.7,128,96.7h288.8c108.3,0,162.1-48.8,128.3-96.7C625.6,67.4,548.5,41.4,476.3,41.4z M516.8,177.2H243.1 c-80.1,0-123.5-35.1-101-71.5c18.9-30.6,79.7-52.1,138.2-52.1H480c58.4,0,119.2,21.5,138,52.1C640.4,142.2,596.9,177.2,516.8,177.2z
	"/>
  <line stroke="#FFFFFF"  stroke-width="2" x1="404" x2="407" y1="177" y2="266"/>
  <line stroke="#FFFFFF"  stroke-width="2" x1="407" x2="411" y1="177" y2="266"/>

  <path class="runner-path" fill="none" stroke="none" d="M381,203.4h143.5 c109.6,0,163.6-49.3,129.2-97.5C626.3,67.3,548.6,41.2,476,41.2H284.6c-72.6,0-150.3,26.1-177.9,64.7c-34.5,48.3,19.5,97.5,129,97.5 H379"/>
  <path class="runner-path" fill="none" stroke="none" d="M381,233.2h153.1 c142.4,0,205.4-66,156.6-127.1c-37.1-46.5-131.3-76.8-217.3-76.8H287.2c-86,0-180.2,30.3-217.5,76.8 c-49,61.1,13.9,127.1,156.3,127.1h153"/>

  <g class="lap-button">
    <path fill="#333333" d="M423,82.2h-75c-2.2,0-4,1.8-4,4v16c0,2.2,1.8,4,4,4h75c2.2,0,4-1.8,4-4v-16C427,84,425.2,82.2,423,82.2z"/>
    <text transform="matrix(1 0 0 1 352.4004 102.2421)" fill="#FFFFFF" font-family="Courier" font-size="21px">START</text>
  </g>

  <g class="lap-times">
  	<g style="display: none">
  		<path fill="#31B304" d="M353,112.2h-41c-2.2,0-4,1.8-4,4v16c0,2.2,1.8,4,4,4h41c2.2,0,4-1.8,4-4v-16 C357,114,355.2,112.2,353,112.2z"/>
  		<text transform="matrix(1 0 0 1 324.8604 132.2421)" fill="#FFFFFF" font-family="Courier" font-size="21px">40</text>
  	</g>
  	<g style="display: none">
  		<path fill="#31B304" d="M406,112.2h-41c-2.2,0-4,1.8-4,4v16c0,2.2,1.8,4,4,4h41c2.2,0,4-1.8,4-4v-16 C410,114,408.2,112.2,406,112.2z"/>
  		<text transform="matrix(1 0 0 1 377.8604 132.2421)" fill="#FFFFFF" font-family="Courier" font-size="21px">80</text>
  	</g>
  	<g style="display: none">
  		<path fill="#31B304" d="M459,112.2h-41c-2.2,0-4,1.8-4,4v16c0,2.2,1.8,4,4,4h41c2.2,0,4-1.8,4-4v-16 C463,114,461.2,112.2,459,112.2z"/>
  		<text transform="matrix(1 0 0 1 417.8408 132.2421)" fill="#FFFFFF" font-family="Courier" font-size="21px">120</text>
  	</g>
  </g>

  <g class="lap-times">
    <g style="display: none">
      <path fill="#1F7AFF" d="M380,139.2h-41c-2.2,0-4,1.8-4,4v16c0,2.2,1.8,4,4,4h41c2.2,0,4-1.8,4-4v-16 C384,141,382.2,139.2,380,139.2z"/>
      <text transform="matrix(1 0 0 1 351.8604 159.2421)" fill="#FFFFFF" font-family="Courier" font-size="21px">60</text>
    </g>
    <g style="display: none">
      <path fill="#1F7AFF" d="M433,139.2h-41c-2.2,0-4,1.8-4,4v16c0,2.2,1.8,4,4,4h41c2.2,0,4-1.8,4-4v-16 C437,141,435.2,139.2,433,139.2z"/>
      <text transform="matrix(1 0 0 1 391.8408 159.2421)" fill="#FFFFFF" font-family="Courier" font-size="21px">120</text>
    </g>
  </g>

  <circle fill="#31B304" cx="380" cy="203.2" r="24"/>
  <circle fill="#1F7AFF" cx="380" cy="233.2" r="24"/>
</svg>
