<svg fill="none" stroke-linecap="square" stroke-miterlimit="10" viewBox="22.63 16.703 309.035 254.327" xmlns="http://www.w3.org/2000/svg" xmlns:xlink="http://www.w3.org/1999/xlink"><clipPath id="a"><path d="m0 0h800v600h-800z"/></clipPath><g clip-path="url(#a)"><path d="m0 0h800v600h-800z" fill="none"/><path d="m43.2231 227.95538 112.708664-194.96063 112.70865 194.96063z" fill="#ffe599" fill-rule="evenodd"/><path d="m43.2231 227.95538 112.708664-194.96063 112.70865 194.96063z" fill-rule="evenodd" stroke="#f1c232" stroke-linecap="butt" stroke-linejoin="round"/><path d="m62.811024 196.62993h190.3937" fill="none"/><path d="m62.811024 196.62993h190.3937" fill-rule="evenodd" stroke="#000" stroke-linecap="butt" stroke-linejoin="round"/><path d="m83.3937 163.69817 150.26773 1.0393677" fill="none"/><path d="m83.3937 163.69817 150.26773 1.0393677" fill-rule="evenodd" stroke="#000" stroke-linecap="butt" stroke-linejoin="round"/><path d="m99.57743 130.47507h112.7244" fill="none"/><path d="m99.57743 130.47507h112.7244" fill-rule="evenodd" stroke="#000" stroke-linecap="butt" stroke-linejoin="round"/><path d="m120.44357 96.80052h75.1181" fill="none"/><path d="m120.44357 96.80052h75.1181" fill-rule="evenodd" stroke="#000" stroke-linecap="butt" stroke-linejoin="round"/><path d="m137.41208 63.125984h37.039368" fill="none"/><path d="m137.41208 63.125984h37.039368" fill-rule="evenodd" stroke="#000" stroke-linecap="butt" stroke-linejoin="round"/><path d="m156.46457 64.89764v33.95276" fill="none"/><path d="m156.46457 64.89764v33.95276" fill-rule="evenodd" stroke="#000" stroke-linecap="butt" stroke-linejoin="round"/><path d="m131.76378 98.86089v31.90551" fill="none"/><path d="m131.76378 98.86089v31.90551" fill-rule="evenodd" stroke="#000" stroke-linecap="butt" stroke-linejoin="round"/><path d="m179.10498 100.91863 1.0393829 29.858269" fill="none"/><path d="m179.10498 100.91863 1.0393829 29.858269" fill-rule="evenodd" stroke="#000" stroke-linecap="butt" stroke-linejoin="round"/><path d="m159.55118 132.82152-1.0393677 31.905518" fill="none"/><path d="m159.55118 132.82152-1.0393677 31.905518" fill-rule="evenodd" stroke="#000" stroke-linecap="butt" stroke-linejoin="round"/><path d="m212.28609 130.47507.7873993 36.314957" fill="none"/><path d="m212.28609 130.47507.7873993 36.314957" fill-rule="evenodd" stroke="#000" stroke-linecap="butt" stroke-linejoin="round"/><path d="m99.57743 130.47507.28346252 34.23622" fill="none"/><path d="m99.57743 130.47507.28346252 34.23622" fill-rule="evenodd" stroke="#000" stroke-linecap="butt" stroke-linejoin="round"/><path d="m131.76378 164.72704v33.95276" fill="none"/><path d="m131.76378 164.72704v33.95276" fill-rule="evenodd" stroke="#000" stroke-linecap="butt" stroke-linejoin="round"/><path d="m188.36745 166.78477v31.905518" fill="none"/><path d="m188.36745 166.78477v31.905518" fill-rule="evenodd" stroke="#000" stroke-linecap="butt" stroke-linejoin="round"/><path d="m87.51181 166.78477v31.905518" fill="none"/><path d="m87.51181 166.78477v31.905518" fill-rule="evenodd" stroke="#000" stroke-linecap="butt" stroke-linejoin="round"/><path d="m108.091866 197.96063v27.779526" fill="none"/><path d="m108.091866 197.96063v27.779526" fill-rule="evenodd" stroke="#000" stroke-linecap="butt" stroke-linejoin="round"/><path d="m155.42783 197.65617.50393677 30.29921" fill="none"/><path d="m155.42783 197.65617.50393677 30.29921" fill-rule="evenodd" stroke="#000" stroke-linecap="butt" stroke-linejoin="round"/><path d="m208.95276 197.6588v29.858261" fill="none"/><path d="m208.95276 197.6588v29.858261" fill-rule="evenodd" stroke="#000" stroke-linecap="butt" stroke-linejoin="round"/><path d="m43.2231 227.95538h225.41731" fill="none"/><path d="m43.2231 227.95538h225.41731" fill-rule="evenodd" stroke="#000" stroke-linecap="butt" stroke-linejoin="round" stroke-width="2"/><path d="m120.44357 228.98688h75.1181v42.204712h-75.1181z" fill="none"/><path d="m138.88107 253.53188v2.375h-8.96875q.140625-1.34375.859375-2.546875.734375-1.21875 2.890625-3.203125 1.734375-1.625 2.125-2.1875.53125-.796875.53125-1.578125 0-.84375-.46875-1.296875-.453125-.46875-1.265625-.46875-.796875 0-1.28125.484375-.46875.46875-.546875 1.59375l-2.546875-.25q.234375-2.109375 1.421875-3.03125 1.203125-.921875 3.015625-.921875 1.96875 0 3.09375 1.0625 1.140625 1.0625 1.140625 2.65625 0 .890625-.328125 1.71875-.3125.8125-1.015625 1.703125-.46875.59375-1.6875 1.703125-1.203125 1.109375-1.53125 1.484375-.3125.359375-.515625.703125zm1.6413422-1.171875 2.46875-.296875q.125.953125.640625 1.453125.53125.5 1.265625.5.78125 0 1.328125-.59375.546875-.609375.546875-1.640625 0-.953125-.53125-1.515625-.515625-.578125-1.25-.578125-.5 0-1.1875.203125l.28125-2.09375q1.046875.03125 1.59375-.4375.546875-.484375.546875-1.28125 0-.671875-.40625-1.078125-.390625-.40625-1.0625-.40625-.65625 0-1.125.46875-.453125.453125-.5625 1.328125l-2.359375-.40625q.25-1.203125.734375-1.921875.5-.734375 1.390625-1.140625.890625-.421875 2-.421875 1.875 0 3.015625 1.203125.9375.984375.9375 2.21875 0 1.765625-1.921875 2.8125 1.15625.234375 1.84375 1.09375.6875.859375.6875 2.0625 0 1.765625-1.296875 3.015625-1.28125 1.2343597-3.1875 1.2343597-1.8125 0-3.015625-1.0468597-1.1875-1.046875-1.375-2.734375zm14.797592-9.859375q1.9375 0 3.03125 1.375 1.296875 1.640625 1.296875 5.4375 0 3.796875-1.3125 5.453125-1.078125 1.3749847-3.015625 1.3749847-1.953125 0-3.15625-1.4999847-1.1875-1.5-1.1875-5.34375 0-3.78125 1.3125-5.4375 1.078125-1.359375 3.03125-1.359375zm0 2.125q-.46875 0-.84375.296875-.359375.296875-.5625 1.0625-.25.984375-.25 3.328125 0 2.359375.234375 3.234375.234375.875.59375 1.171875.359375.296875.828125.296875.453125 0 .8125-.296875.375-.296875.578125-1.0625.265625-.984375.265625-3.34375 0-2.34375-.25-3.21875-.234375-.875-.59375-1.171875-.359375-.296875-.8125-.296875zm11.574646 1.609375h2.359375v1.3125q1.265625-1.53125 3.015625-1.53125.9375 0 1.609375.390625.6875.375 1.125 1.140625.640625-.765625 1.375-1.140625.75-.390625 1.578125-.390625 1.0625 0 1.796875.4375.75.421875 1.109375 1.265625.265625.625.265625 2v6.1875h-2.5625v-5.53125q0-1.4375-.265625-1.859375-.34375-.546875-1.09375-.546875-.53125 0-1.015625.328125-.46875.328125-.671875.96875-.203125.625-.203125 2v4.640625h-2.5625v-5.296875q0-1.421875-.140625-1.828125-.140625-.40625-.421875-.609375-.28125-.203125-.78125-.203125-.59375 0-1.0625.328125-.46875.3125-.6875.921875-.203125.59375-.203125 1.984375v4.703125h-2.5625z" fill="#000"/><path d="m155.93176 32.99475v194.96063" fill="none"/><path d="m155.93176 32.99475v194.96063" fill-rule="evenodd" stroke="#f90" stroke-linecap="butt" stroke-linejoin="round" stroke-width="3"/><path d="m238.7979 125.61942h96.063v42.20472h-96.063z" fill="none"/><path d="m248.53227 152.53941 2.796875-13.359375h2.59375l-2.78125 13.359375zm5.948929-7.4375v-2.34375h9.34375v2.34375zm0 4.046875v-2.359375h9.34375v2.359375zm11.6137085-4.28125.484375-2.328125q3.375-1.484375 5.234375-3.4375h1.59375l-2.8125 13.4375h-2.640625l1.9375-9.25q-.8125.515625-1.890625.953125-1.0625.4375-1.90625.625zm12.172607.328125q-.703125-.46875-1.0625-1.078125-.34375-.609375-.34375-1.34375 0-.859375.484375-1.734375.5-.890625 1.46875-1.390625.984375-.515625 2.21875-.515625 1.796875 0 2.796875.9375 1 .921875 1 2.34375 0 1-.5625 1.75-.5625.734375-1.703125 1.21875.828125.5 1.234375 1.21875.40625.71875.40625 1.640625 0 1.515625-.96875 2.75-1.40625 1.78125-3.84375 1.78125-1.765625 0-2.84375-1.03125-1.0625-1.046875-1.0625-2.671875 0-1.328125.734375-2.390625.75-1.0625 2.046875-1.484375zm.984375-2.25q0 .625.375 1.015625.390625.390625 1 .390625.703125 0 1.234375-.53125.53125-.53125.53125-1.25 0-.640625-.390625-1.046875-.390625-.40625-1-.40625-.71875 0-1.234375.53125-.515625.53125-.515625 1.296875zm-1.171875 6.171875q0 .75.40625 1.1875.421875.421875 1.078125.421875 1.015625 0 1.5625-.890625.546875-.890625.546875-1.9375 0-.671875-.421875-1.109375-.421875-.4375-1.078125-.4375-.828125 0-1.46875.765625-.625.75-.625 2zm17.281952-6.671875-2.4375.203125q-.078125-.796875-.390625-1.109375-.296875-.328125-.8125-.328125-.671875 0-1.1875.53125-.734375.765625-1.1875 2.4375.84375-.546875 1.796875-.546875 1.546875 0 2.546875 1.0625 1 1.046875 1 2.875 0 1.4375-.703125 2.734375-.703125 1.28125-1.75 1.875-1.046875.59375-2.203125.59375-1.125 0-2.03125-.5625-.890625-.5625-1.375-1.625-.484375-1.078125-.484375-2.890625 0-3.578125 1.578125-6.0625 1.59375-2.5 4.1875-2.5 1.484375 0 2.375.828125.890625.8125 1.078125 2.484375zm-6.703125 6.171875q0 1.046875.40625 1.546875.421875.5 1.046875.5.765625 0 1.3125-.703125.734375-.953125.734375-2.5625 0-1.046875-.40625-1.53125-.40625-.5-1-.5-.5 0-1.015625.375-.515625.375-.796875 1.203125-.28125.828125-.28125 1.671875zm7.6882324 1.40625h2.59375l-.53125 2.515625h-2.59375zm14.573914-7.578125-2.4375.203125q-.078125-.796875-.390625-1.109375-.296875-.328125-.8125-.328125-.671875 0-1.1875.53125-.734375.765625-1.1875 2.4375.84375-.546875 1.796875-.546875 1.546875 0 2.546875 1.0625 1 1.046875 1 2.875 0 1.4375-.703125 2.734375-.703125 1.28125-1.75 1.875-1.046875.59375-2.203125.59375-1.125 0-2.03125-.5625-.890625-.5625-1.375-1.625-.484375-1.078125-.484375-2.890625 0-3.578125 1.578125-6.0625 1.59375-2.5 4.1875-2.5 1.484375 0 2.375.828125.890625.8125 1.078125 2.484375zm-6.703125 6.171875q0 1.046875.40625 1.546875.421875.5 1.046875.5.765625 0 1.3125-.703125.734375-.953125.734375-2.5625 0-1.046875-.40625-1.53125-.40625-.5-1-.5-.5 0-1.015625.375-.515625.375-.796875 1.203125-.28125.828125-.28125 1.671875z" fill="#f90"/></g></svg>