<svg id="Layer_1" data-name="Layer 1" xmlns="http://www.w3.org/2000/svg" viewBox="0 0 360 240"><title>4</title><polygon points="45 26 60 52 30 52 45 26" fill="#ff941f"/><polygon points="45 26 30 0 60 0 45 26" fill="#ff941f"/><polygon points="-15 26 0 0 30 0 45 26 30 52 0 52 -15 26" fill="#b30469"/><polygon points="105 26 120 52 90 52 105 26" fill="#ff941f"/><polygon points="105 26 90 0 120 0 105 26" fill="#ff941f"/><polygon points="45 26 60 0 90 0 105 26 90 52 60 52 45 26" fill="#b30469"/><polygon points="165 26 180 52 150 52 165 26" fill="#ff941f"/><polygon points="165 26 150 0 180 0 165 26" fill="#ff941f"/><polygon points="105 26 120 0 150 0 165 26 150 52 120 52 105 26" fill="#b30469"/><polygon points="225 26 240 52 210 52 225 26" fill="#ff941f"/><polygon points="225 26 210 0 240 0 225 26" fill="#ff941f"/><polygon points="165 26 180 0 210 0 225 26 210 52 180 52 165 26" fill="#b30469"/><polygon points="285 26 300 52 270 52 285 26" fill="#ff941f"/><polygon points="285 26 270 0 300 0 285 26" fill="#ff941f"/><polygon points="225 26 240 0 270 0 285 26 270 52 240 52 225 26" fill="#b30469"/><polygon points="345 26 360 52 330 52 345 26" fill="#ff941f"/><polygon points="345 26 330 0 360 0 345 26" fill="#ff941f"/><polygon points="285 26 300 0 330 0 345 26 330 52 300 52 285 26" fill="#b30469"/><polyline points="360 52 345 26 360 0" fill="#b30469"/><polygon points="75 78 90 104 60 104 75 78" fill="#ff941f"/><polygon points="75 78 60 52 90 52 75 78" fill="#ff941f"/><polygon points="15 78 30 52 60 52 75 78 60 104 30 104 15 78" fill="#b30469"/><polygon points="135 78 150 104 120 104 135 78" fill="#ff941f"/><polygon points="135 78 120 52 150 52 135 78" fill="#ff941f"/><polygon points="75 78 90 52 120 52 135 78 120 104 90 104 75 78" fill="#b30469"/><polygon points="195 78 210 104 180 104 195 78" fill="#ff941f"/><polygon points="195 78 180 52 210 52 195 78" fill="#ff941f"/><polygon points="135 78 150 52 180 52 195 78 180 104 150 104 135 78" fill="#b30469"/><polygon points="255 78 270 104 240 104 255 78" fill="#ff941f"/><polygon points="255 78 240 52 270 52 255 78" fill="#ff941f"/><polygon points="195 78 210 52 240 52 255 78 240 104 210 104 195 78" fill="#b30469"/><polygon points="315 78 330 104 300 104 315 78" fill="#ff941f"/><polygon points="315 78 300 52 330 52 315 78" fill="#ff941f"/><polygon points="255 78 270 52 300 52 315 78 300 104 270 104 255 78" fill="#b30469"/><polygon points="315 78 330 52 360 52 375 78 360 104 330 104 315 78" fill="#b30469"/><polygon points="15 78 30 104 0 104 15 78" fill="#ff941f"/><polygon points="15 78 0 52 30 52 15 78" fill="#ff941f"/><polyline points="0 52 15 78 0 104" fill="#b30469"/><polygon points="45 130 60 156 30 156 45 130" fill="#ff941f"/><polygon points="45 130 30 104 60 104 45 130" fill="#ff941f"/><polygon points="-15 130 0 104 30 104 45 130 30 156 0 156 -15 130" fill="#b30469"/><polygon points="105 130 120 156 90 156 105 130" fill="#ff941f"/><polygon points="105 130 90 104 120 104 105 130" fill="#ff941f"/><polygon points="45 130 60 104 90 104 105 130 90 156 60 156 45 130" fill="#b30469"/><polygon points="165 130 180 156 150 156 165 130" fill="#ff941f"/><polygon points="165 130 150 104 180 104 165 130" fill="#ff941f"/><polygon points="105 130 120 104 150 104 165 130 150 156 120 156 105 130" fill="#b30469"/><polygon points="225 130 240 156 210 156 225 130" fill="#ff941f"/><polygon points="225 130 210 104 240 104 225 130" fill="#ff941f"/><polygon points="165 130 180 104 210 104 225 130 210 156 180 156 165 130" fill="#b30469"/><polygon points="285 130 300 156 270 156 285 130" fill="#ff941f"/><polygon points="285 130 270 104 300 104 285 130" fill="#ff941f"/><polygon points="225 130 240 104 270 104 285 130 270 156 240 156 225 130" fill="#b30469"/><polygon points="345 130 360 156 330 156 345 130" fill="#ff941f"/><polygon points="345 130 330 104 360 104 345 130" fill="#ff941f"/><polygon points="285 130 300 104 330 104 345 130 330 156 300 156 285 130" fill="#b30469"/><polyline points="360 156 345 130 360 104" fill="#b30469"/><polygon points="45 234 60 260 30 260 45 234" fill="#ff941f"/><polygon points="45 234 30 208 60 208 45 234" fill="#ff941f"/><polygon points="-15 234 0 208 30 208 45 234 30 260 0 260 -15 234" fill="#b30469"/><polygon points="105 234 120 260 90 260 105 234" fill="#ff941f"/><polygon points="105 234 90 208 120 208 105 234" fill="#ff941f"/><polygon points="45 234 60 208 90 208 105 234 90 260 60 260 45 234" fill="#b30469"/><polygon points="165 234 180 260 150 260 165 234" fill="#ff941f"/><polygon points="165 234 150 208 180 208 165 234" fill="#ff941f"/><polygon points="105 234 120 208 150 208 165 234 150 260 120 260 105 234" fill="#b30469"/><polygon points="225 234 240 260 210 260 225 234" fill="#ff941f"/><polygon points="225 234 210 208 240 208 225 234" fill="#ff941f"/><polygon points="165 234 180 208 210 208 225 234 210 260 180 260 165 234" fill="#b30469"/><polygon points="285 234 300 260 270 260 285 234" fill="#ff941f"/><polygon points="285 234 270 208 300 208 285 234" fill="#ff941f"/><polygon points="225 234 240 208 270 208 285 234 270 260 240 260 225 234" fill="#b30469"/><polygon points="345 234 360 260 330 260 345 234" fill="#ff941f"/><polygon points="345 234 330 208 360 208 345 234" fill="#ff941f"/><polygon points="285 234 300 208 330 208 345 234 330 260 300 260 285 234" fill="#b30469"/><polyline points="360 260 345 234 360 208" fill="#b30469"/><polygon points="75 182 90 208 60 208 75 182" fill="#ff941f"/><polygon points="75 182 60 156 90 156 75 182" fill="#ff941f"/><polygon points="15 182 30 156 60 156 75 182 60 208 30 208 15 182" fill="#b30469"/><polygon points="135 182 150 208 120 208 135 182" fill="#ff941f"/><polygon points="135 182 120 156 150 156 135 182" fill="#ff941f"/><polygon points="75 182 90 156 120 156 135 182 120 208 90 208 75 182" fill="#b30469"/><polygon points="195 182 210 208 180 208 195 182" fill="#ff941f"/><polygon points="195 182 180 156 210 156 195 182" fill="#ff941f"/><polygon points="135 182 150 156 180 156 195 182 180 208 150 208 135 182" fill="#b30469"/><polygon points="255 182 270 208 240 208 255 182" fill="#ff941f"/><polygon points="255 182 240 156 270 156 255 182" fill="#ff941f"/><polygon points="195 182 210 156 240 156 255 182 240 208 210 208 195 182" fill="#b30469"/><polygon points="315 182 330 208 300 208 315 182" fill="#ff941f"/><polygon points="315 182 300 156 330 156 315 182" fill="#ff941f"/><polygon points="255 182 270 156 300 156 315 182 300 208 270 208 255 182" fill="#b30469"/><polygon points="315 182 330 156 360 156 375 182 360 208 330 208 315 182" fill="#b30469"/><polygon points="15 182 30 208 0 208 15 182" fill="#ff941f"/><polygon points="15 182 0 156 30 156 15 182" fill="#ff941f"/><polyline points="0 156 15 182 0 208" fill="#b30469"/></svg>