<svg id="Layer_1" data-name="Layer 1" xmlns="http://www.w3.org/2000/svg" viewBox="0 0 360 240"><title>5</title><polygon points="-15 26 0 0 30 0 45 26 30 52 0 52 -15 26" fill="#b30469"/><polygon points="45 26 60 52 30 52 45 26" fill="#ff941f"/><polygon points="60 0 75 26 45 26 60 0" fill="#ff941f"/><polygon points="30 52 45 78 15 78 30 52" fill="#ff941f"/><polygon points="0 52 15 78 -15 78 0 52" fill="#ff941f"/><polygon points="15 78 0 52 30 52 15 78" fill="#e66438"/><polygon points="45 78 30 52 60 52 45 78" fill="#e66438"/><polygon points="60 52 45 26 75 26 60 52" fill="#e66438"/><polygon points="45 26 30 0 60 0 45 26" fill="#e66438"/><polygon points="120 0 135 26 105 26 120 0" fill="#ff941f"/><polygon points="105 26 120 52 90 52 105 26" fill="#ff941f"/><polygon points="75 26 90 52 60 52 75 26" fill="#ff941f"/><polygon points="90 52 75 26 105 26 90 52" fill="#e66438"/><polygon points="120 52 105 26 135 26 120 52" fill="#e66438"/><polygon points="135 26 120 0 150 0 135 26" fill="#e66438"/><polygon points="30 104 45 130 15 130 30 104" fill="#ff941f"/><polygon points="45 78 60 104 30 104 45 78" fill="#ff941f"/><polygon points="15 130 30 156 0 156 15 130" fill="#ff941f"/><polygon points="0 156 -15 130 15 130 0 156" fill="#e66438"/><polygon points="30 156 15 130 45 130 30 156" fill="#e66438"/><polygon points="45 130 30 104 60 104 45 130" fill="#e66438"/><polygon points="30 104 15 78 45 78 30 104" fill="#e66438"/><polygon points="45 78 60 52 90 52 105 78 90 104 60 104 45 78" fill="#b30469"/><polygon points="60 0 75 -26 105 -26 120 0 105 26 75 26 60 0" fill="#b30469"/><polygon points="-30 104 -15 78 15 78 30 104 15 130 -15 130 -30 104" fill="#b30469"/><polygon points="105 78 120 104 90 104 105 78" fill="#ff941f"/><polygon points="120 52 135 78 105 78 120 52" fill="#ff941f"/><polygon points="90 104 105 130 75 130 90 104" fill="#ff941f"/><polygon points="60 104 75 130 45 130 60 104" fill="#ff941f"/><polygon points="75 130 60 104 90 104 75 130" fill="#e66438"/><polygon points="105 130 90 104 120 104 105 130" fill="#e66438"/><polygon points="120 104 105 78 135 78 120 104" fill="#e66438"/><polygon points="105 78 90 52 120 52 105 78" fill="#e66438"/><polygon points="120 52 135 26 165 26 180 52 165 78 135 78 120 52" fill="#b30469"/><polygon points="180 52 195 78 165 78 180 52" fill="#ff941f"/><polygon points="195 26 210 52 180 52 195 26" fill="#ff941f"/><polygon points="165 78 180 104 150 104 165 78" fill="#ff941f"/><polygon points="135 78 150 104 120 104 135 78" fill="#ff941f"/><polygon points="150 104 135 78 165 78 150 104" fill="#e66438"/><polygon points="180 104 165 78 195 78 180 104" fill="#e66438"/><polygon points="195 78 180 52 210 52 195 78" fill="#e66438"/><polygon points="180 52 165 26 195 26 180 52" fill="#e66438"/><polygon points="105 130 120 104 150 104 165 130 150 156 120 156 105 130" fill="#b30469"/><polygon points="165 130 180 156 150 156 165 130" fill="#ff941f"/><polygon points="180 104 195 130 165 130 180 104" fill="#ff941f"/><polygon points="150 156 165 182 135 182 150 156" fill="#ff941f"/><polygon points="120 156 135 182 105 182 120 156" fill="#ff941f"/><polygon points="135 182 120 156 150 156 135 182" fill="#e66438"/><polygon points="165 182 150 156 180 156 165 182" fill="#e66438"/><polygon points="180 156 165 130 195 130 180 156" fill="#e66438"/><polygon points="165 130 150 104 180 104 165 130" fill="#e66438"/><polygon points="90 208 105 182 135 182 150 208 135 234 105 234 90 208" fill="#b30469"/><polygon points="150 208 165 234 135 234 150 208" fill="#ff941f"/><polygon points="165 182 180 208 150 208 165 182" fill="#ff941f"/><polygon points="135 234 150 260 120 260 135 234" fill="#ff941f"/><polygon points="105 234 120 260 90 260 105 234" fill="#ff941f"/><polygon points="120 260 105 234 135 234 120 260" fill="#e66438"/><polygon points="150 260 135 234 165 234 150 260" fill="#e66438"/><polygon points="165 234 150 208 180 208 165 234" fill="#e66438"/><polygon points="150 208 135 182 165 182 150 208" fill="#e66438"/><polygon points="-45 182 -30 156 0 156 15 182 0 208 -30 208 -45 182" fill="#b30469"/><polygon points="15 182 30 208 0 208 15 182" fill="#ff941f"/><polygon points="30 156 45 182 15 182 30 156" fill="#ff941f"/><polygon points="0 208 15 234 -15 234 0 208" fill="#ff941f"/><polygon points="15 234 0 208 30 208 15 234" fill="#e66438"/><polygon points="30 208 15 182 45 182 30 208" fill="#e66438"/><polygon points="15 182 0 156 30 156 15 182" fill="#e66438"/><polygon points="15 234 30 208 60 208 75 234 60 260 30 260 15 234" fill="#b30469"/><polygon points="75 234 90 260 60 260 75 234" fill="#ff941f"/><polygon points="90 208 105 234 75 234 90 208" fill="#ff941f"/><polygon points="90 260 75 234 105 234 90 260" fill="#e66438"/><polygon points="15 234 30 260 0 260 15 234" fill="#ff941f"/><polygon points="0 260 -15 234 15 234 0 260" fill="#e66438"/><polygon points="75 234 60 208 90 208 75 234" fill="#e66438"/><polygon points="165 182 180 156 210 156 225 182 210 208 180 208 165 182" fill="#b30469"/><polygon points="225 182 240 208 210 208 225 182" fill="#ff941f"/><polygon points="240 156 255 182 225 182 240 156" fill="#ff941f"/><polygon points="210 208 225 234 195 234 210 208" fill="#ff941f"/><polygon points="180 208 195 234 165 234 180 208" fill="#ff941f"/><polygon points="195 234 180 208 210 208 195 234" fill="#e66438"/><polygon points="225 234 210 208 240 208 225 234" fill="#e66438"/><polygon points="240 208 225 182 255 182 240 208" fill="#e66438"/><polygon points="225 182 210 156 240 156 225 182" fill="#e66438"/><polygon points="180 104 195 78 225 78 240 104 225 130 195 130 180 104" fill="#b30469"/><polygon points="240 104 255 130 225 130 240 104" fill="#ff941f"/><polygon points="255 78 270 104 240 104 255 78" fill="#ff941f"/><polygon points="225 130 240 156 210 156 225 130" fill="#ff941f"/><polygon points="195 130 210 156 180 156 195 130" fill="#ff941f"/><polygon points="210 156 195 130 225 130 210 156" fill="#e66438"/><polygon points="240 156 225 130 255 130 240 156" fill="#e66438"/><polygon points="255 130 240 104 270 104 255 130" fill="#e66438"/><polygon points="240 104 225 78 255 78 240 104" fill="#e66438"/><polygon points="195 26 210 0 240 0 255 26 240 52 210 52 195 26" fill="#b30469"/><polygon points="255 26 270 52 240 52 255 26" fill="#ff941f"/><polygon points="270 0 285 26 255 26 270 0" fill="#ff941f"/><polygon points="240 52 255 78 225 78 240 52" fill="#ff941f"/><polygon points="210 52 225 78 195 78 210 52" fill="#ff941f"/><polygon points="225 78 210 52 240 52 225 78" fill="#e66438"/><polygon points="255 78 240 52 270 52 255 78" fill="#e66438"/><polygon points="270 52 255 26 285 26 270 52" fill="#e66438"/><polygon points="255 26 240 0 270 0 255 26" fill="#e66438"/><polygon points="240 156 255 130 285 130 300 156 285 182 255 182 240 156" fill="#b30469"/><polygon points="300 156 315 182 285 182 300 156" fill="#ff941f"/><polygon points="315 130 330 156 300 156 315 130" fill="#ff941f"/><polygon points="285 182 300 208 270 208 285 182" fill="#ff941f"/><polygon points="255 182 270 208 240 208 255 182" fill="#ff941f"/><polygon points="270 208 255 182 285 182 270 208" fill="#e66438"/><polygon points="300 208 285 182 315 182 300 208" fill="#e66438"/><polygon points="315 182 300 156 330 156 315 182" fill="#e66438"/><polygon points="300 156 285 130 315 130 300 156" fill="#e66438"/><polygon points="225 234 240 208 270 208 285 234 270 260 240 260 225 234" fill="#b30469"/><polygon points="285 234 300 260 270 260 285 234" fill="#ff941f"/><polygon points="300 208 315 234 285 234 300 208" fill="#ff941f"/><polygon points="300 260 285 234 315 234 300 260" fill="#e66438"/><polygon points="315 234 330 260 300 260 315 234" fill="#ff941f"/><polygon points="330 260 315 234 345 234 330 260" fill="#e66438"/><polygon points="285 234 270 208 300 208 285 234" fill="#e66438"/><polygon points="150 260 165 234 195 234 210 260 195 286 165 286 150 260" fill="#b30469"/><polygon points="225 234 240 260 210 260 225 234" fill="#ff941f"/><polygon points="210 260 195 234 225 234 210 260" fill="#e66438"/><polygon points="255 78 270 52 300 52 315 78 300 104 270 104 255 78" fill="#b30469"/><polygon points="315 78 330 104 300 104 315 78" fill="#ff941f"/><polygon points="330 52 345 78 315 78 330 52" fill="#ff941f"/><polygon points="300 104 315 130 285 130 300 104" fill="#ff941f"/><polygon points="270 104 285 130 255 130 270 104" fill="#ff941f"/><polygon points="285 130 270 104 300 104 285 130" fill="#e66438"/><polygon points="315 130 300 104 330 104 315 130" fill="#e66438"/><polygon points="330 104 315 78 345 78 330 104" fill="#e66438"/><polygon points="315 78 300 52 330 52 315 78" fill="#e66438"/><polygon points="270 0 285 -26 315 -26 330 0 315 26 285 26 270 0" fill="#b30469"/><polygon points="330 0 345 26 315 26 330 0" fill="#ff941f"/><polygon points="360 0 375 26 345 26 360 0" fill="#ff941f"/><polygon points="315 26 330 52 300 52 315 26" fill="#ff941f"/><polygon points="285 26 300 52 270 52 285 26" fill="#ff941f"/><polygon points="300 52 285 26 315 26 300 52" fill="#e66438"/><polygon points="330 52 315 26 345 26 330 52" fill="#e66438"/><polygon points="345 26 330 0 360 0 345 26" fill="#e66438"/><polygon points="300 208 315 182 345 182 360 208 345 234 315 234 300 208" fill="#b30469"/><polygon points="360 208 375 234 345 234 360 208" fill="#ff941f"/><polygon points="345 234 360 260 330 260 345 234" fill="#ff941f"/><polygon points="360 260 345 234 375 234 360 260" fill="#e66438"/><polygon points="360 208 345 182 375 182 360 208" fill="#e66438"/><polygon points="330 156 345 182 315 182 330 156" fill="#ff941f"/><polygon points="315 130 330 104 360 104 375 130 360 156 330 156 315 130" fill="#b30469"/><polygon points="360 156 375 182 345 182 360 156" fill="#ff941f"/><polygon points="345 182 330 156 360 156 345 182" fill="#e66438"/><polygon points="330 52 345 26 375 26 390 52 375 78 345 78 330 52" fill="#b30469"/><polygon points="345 78 360 104 330 104 345 78" fill="#ff941f"/><polygon points="360 104 345 78 375 78 360 104" fill="#e66438"/><polygon points="180 0 195 26 165 26 180 0" fill="#ff941f"/><polygon points="150 0 165 26 135 26 150 0" fill="#ff941f"/><polygon points="165 26 150 0 180 0 165 26" fill="#e66438"/><polygon points="195 26 180 0 210 0 195 26" fill="#e66438"/><polygon points="30 156 45 130 75 130 90 156 75 182 45 182 30 156" fill="#b30469"/><polygon points="90 156 105 182 75 182 90 156" fill="#ff941f"/><polygon points="105 130 120 156 90 156 105 130" fill="#ff941f"/><polygon points="75 182 90 208 60 208 75 182" fill="#ff941f"/><polygon points="45 182 60 208 30 208 45 182" fill="#ff941f"/><polygon points="60 208 45 182 75 182 60 208" fill="#e66438"/><polygon points="90 208 75 182 105 182 90 208" fill="#e66438"/><polygon points="105 182 90 156 120 156 105 182" fill="#e66438"/><polygon points="90 156 75 130 105 130 90 156" fill="#e66438"/></svg>