<svg id="Layer_1" data-name="Layer 1" xmlns="http://www.w3.org/2000/svg" viewBox="0 0 360 240"><title>2</title><polygon points="77 89 62 63 92 63 77 89" fill="#ff941f"/><polygon points="36 18 21 -8 51 -8 36 18" fill="#ff941f"/><polygon points="77 7 92 33 62 33 77 7" fill="#ff941f"/><polygon points="36 78 51 104 21 104 36 78" fill="#ff941f"/><rect x="62" y="33" width="30" height="30" fill="#1f7aff"/><polygon points="-5 89 -20 63 10 63 -5 89" fill="#ff941f"/><polygon points="-5 7 10 33 -20 33 -5 7" fill="#ff941f"/><rect x="-20" y="33" width="30" height="30" fill="#1f7aff"/><polygon points="10 33 36 18 62 33 62 63 36 78 10 63 10 33" fill="#b30469"/><polygon points="51 104 77 89 103 104 103 134 77 149 51 134 51 104" fill="#b30469"/><polygon points="-31 104 -5 89 21 104 21 134 -5 149 -31 134 -31 104" fill="#b30469"/><polygon points="92 33 118 18 144 33 144 63 118 78 92 63 92 33" fill="#b30469"/><rect x="0.5" y="-2.5" width="30" height="30" transform="translate(-4.2 9.4) rotate(-30)" fill="#1f7aff"/><rect x="41.5" y="68.5" width="30" height="30" transform="translate(-34.2 39.4) rotate(-30)" fill="#1f7aff"/><rect x="0.5" y="139.5" width="30" height="30" transform="translate(-75.2 28.5) rotate(-30)" fill="#1f7aff"/><rect x="41.5" y="-2.5" width="30" height="30" transform="translate(13.8 -26.6) rotate(30)" fill="#1f7aff"/><polygon points="159 89 144 63 174 63 159 89" fill="#ff941f"/><polygon points="118 18 103 -8 133 -8 118 18" fill="#ff941f"/><polygon points="159 7 174 33 144 33 159 7" fill="#ff941f"/><rect x="144" y="33" width="30" height="30" fill="#1f7aff"/><rect x="82.5" y="-2.5" width="30" height="30" transform="translate(6.8 50.4) rotate(-30)" fill="#1f7aff"/><rect x="123.5" y="68.5" width="30" height="30" transform="translate(-23.2 80.4) rotate(-30)" fill="#1f7aff"/><rect x="123.5" y="-2.5" width="30" height="30" transform="translate(24.8 -67.6) rotate(30)" fill="#1f7aff"/><rect x="0.5" y="68.5" width="30" height="30" transform="translate(43.8 3.4) rotate(30)" fill="#1f7aff"/><polygon points="118 160 103 134 133 134 118 160" fill="#ff941f"/><polygon points="118 78 133 104 103 104 118 78" fill="#ff941f"/><polygon points="77 149 92 175 62 175 77 149" fill="#ff941f"/><rect x="103" y="104" width="30" height="30" fill="#1f7aff"/><polygon points="36 160 21 134 51 134 36 160" fill="#ff941f"/><rect x="21" y="104" width="30" height="30" fill="#1f7aff"/><rect x="82.5" y="139.5" width="30" height="30" transform="translate(-64.2 69.4) rotate(-30)" fill="#1f7aff"/><rect x="82.5" y="68.5" width="30" height="30" transform="translate(54.8 -37.6) rotate(30)" fill="#1f7aff"/><polygon points="133 104 159 89 185 104 185 134 159 149 133 134 133 104" fill="#b30469"/><polygon points="200 160 185 134 215 134 200 160" fill="#ff941f"/><polygon points="200 78 215 104 185 104 200 78" fill="#ff941f"/><rect x="185" y="104" width="30" height="30" fill="#1f7aff"/><rect x="164.5" y="139.5" width="30" height="30" transform="translate(-53.2 110.4) rotate(-30)" fill="#1f7aff"/><rect x="164.5" y="68.5" width="30" height="30" transform="translate(65.8 -78.6) rotate(30)" fill="#1f7aff"/><polygon points="159 149 174 175 144 175 159 149" fill="#ff941f"/><rect x="123.5" y="139.5" width="30" height="30" transform="translate(95.8 -48.5) rotate(30)" fill="#1f7aff"/><polygon points="174 175 200 160 226 175 226 205 200 220 174 205 174 175" fill="#b30469"/><polygon points="241 231 226 205 256 205 241 231" fill="#ff941f"/><polygon points="241 149 256 175 226 175 241 149" fill="#ff941f"/><rect x="226" y="175" width="30" height="30" fill="#1f7aff"/><rect x="205.5" y="210.5" width="30" height="30" transform="translate(-83.2 140.5) rotate(-30)" fill="#1f7aff"/><rect x="205.5" y="139.5" width="30" height="30" transform="translate(106.8 -89.5) rotate(30)" fill="#1f7aff"/><polygon points="200 220 215 246 185 246 200 220" fill="#ff941f"/><rect x="164.5" y="210.5" width="30" height="30" transform="translate(136.8 -59.5) rotate(30)" fill="#1f7aff"/><polygon points="174 33 200 18 226 33 226 63 200 78 174 63 174 33" fill="#b30469"/><polygon points="241 89 226 63 256 63 241 89" fill="#ff941f"/><polygon points="200 18 185 -8 215 -8 200 18" fill="#ff941f"/><polygon points="241 7 256 33 226 33 241 7" fill="#ff941f"/><rect x="226" y="33" width="30" height="30" fill="#1f7aff"/><rect x="164.5" y="-2.5" width="30" height="30" transform="translate(17.8 91.4) rotate(-30)" fill="#1f7aff"/><rect x="205.5" y="68.5" width="30" height="30" transform="translate(-12.2 121.4) rotate(-30)" fill="#1f7aff"/><rect x="205.5" y="-2.5" width="30" height="30" transform="translate(35.8 -108.6) rotate(30)" fill="#1f7aff"/><polygon points="215 104 241 89 267 104 267 134 241 149 215 134 215 104" fill="#b30469"/><polygon points="282 160 267 134 297 134 282 160" fill="#ff941f"/><polygon points="282 78 297 104 267 104 282 78" fill="#ff941f"/><rect x="267" y="104" width="30" height="30" fill="#1f7aff"/><rect x="246.5" y="139.5" width="30" height="30" transform="translate(-42.2 151.4) rotate(-30)" fill="#1f7aff"/><rect x="246.5" y="68.5" width="30" height="30" transform="translate(76.8 -119.6) rotate(30)" fill="#1f7aff"/><polygon points="256 175 282 160 308 175 308 205 282 220 256 205 256 175" fill="#b30469"/><polygon points="323 231 308 205 338 205 323 231" fill="#ff941f"/><polygon points="323 149 338 175 308 175 323 149" fill="#ff941f"/><rect x="308" y="175" width="30" height="30" fill="#1f7aff"/><rect x="287.5" y="210.5" width="30" height="30" transform="translate(-72.2 181.5) rotate(-30)" fill="#1f7aff"/><rect x="287.5" y="139.5" width="30" height="30" transform="translate(117.8 -130.5) rotate(30)" fill="#1f7aff"/><polygon points="282 220 297 246 267 246 282 220" fill="#ff941f"/><polygon points="364 160 349 134 379 134 364 160" fill="#ff941f"/><polygon points="364 78 379 104 349 104 364 78" fill="#ff941f"/><rect x="349" y="104" width="30" height="30" fill="#1f7aff"/><polygon points="364 220 379 246 349 246 364 220" fill="#ff941f"/><rect x="246.5" y="210.5" width="30" height="30" transform="translate(147.8 -100.5) rotate(30)" fill="#1f7aff"/><polygon points="256 33 282 18 308 33 308 63 282 78 256 63 256 33" fill="#b30469"/><polygon points="338 33 364 18 390 33 390 63 364 78 338 63 338 33" fill="#b30469"/><polygon points="323 89 308 63 338 63 323 89" fill="#ff941f"/><polygon points="282 18 267 -8 297 -8 282 18" fill="#ff941f"/><polygon points="323 7 338 33 308 33 323 7" fill="#ff941f"/><rect x="308" y="33" width="30" height="30" fill="#1f7aff"/><rect x="246.5" y="-2.5" width="30" height="30" transform="translate(28.8 132.4) rotate(-30)" fill="#1f7aff"/><polygon points="364 18 349 -8 379 -8 364 18" fill="#ff941f"/><rect x="328.5" y="-2.5" width="30" height="30" transform="translate(39.8 173.4) rotate(-30)" fill="#1f7aff"/><rect x="287.5" y="68.5" width="30" height="30" transform="translate(-1.2 162.4) rotate(-30)" fill="#1f7aff"/><rect x="287.5" y="-2.5" width="30" height="30" transform="translate(46.8 -149.6) rotate(30)" fill="#1f7aff"/><polygon points="297 104 323 89 349 104 349 134 323 149 297 134 297 104" fill="#b30469"/><polyline points="51 246 77 231 103 246" fill="#b30469"/><polyline points="-31 246 -5 231 21 246" fill="#b30469"/><polyline points="133 246 159 231 185 246" fill="#b30469"/><polyline points="215 246 241 231 267 246" fill="#b30469"/><polyline points="297 246 323 231 349 246" fill="#b30469"/><polyline points="103 -8 77 7 51 -8" fill="#b30469"/><polyline points="21 -8 -5 7 -31 -8" fill="#b30469"/><polyline points="185 -8 159 7 133 -8" fill="#b30469"/><polyline points="267 -8 241 7 215 -8" fill="#b30469"/><polyline points="349 -8 323 7 297 -8" fill="#b30469"/><rect x="328.5" y="139.5" width="30" height="30" transform="translate(-31.2 192.4) rotate(-30)" fill="#1f7aff"/><rect x="328.5" y="68.5" width="30" height="30" transform="translate(87.8 -160.6) rotate(30)" fill="#1f7aff"/><polygon points="338 175 364 160 390 175 390 205 364 220 338 205 338 175" fill="#b30469"/><rect x="328.5" y="210.5" width="30" height="30" transform="translate(158.8 -141.5) rotate(30)" fill="#1f7aff"/><polygon points="92 175 118 160 144 175 144 205 118 220 92 205 92 175" fill="#b30469"/><polygon points="159 231 144 205 174 205 159 231" fill="#ff941f"/><rect x="144" y="175" width="30" height="30" fill="#1f7aff"/><rect x="123.5" y="210.5" width="30" height="30" transform="translate(-94.2 99.5) rotate(-30)" fill="#1f7aff"/><polygon points="118 220 133 246 103 246 118 220" fill="#ff941f"/><rect x="82.5" y="210.5" width="30" height="30" transform="translate(125.8 -18.5) rotate(30)" fill="#1f7aff"/><rect x="41.5" y="139.5" width="30" height="30" transform="translate(84.8 -7.5) rotate(30)" fill="#1f7aff"/><polygon points="-5 149 10 175 -20 175 -5 149" fill="#ff941f"/><polygon points="10 175 36 160 62 175 62 205 36 220 10 205 10 175" fill="#b30469"/><polygon points="77 231 62 205 92 205 77 231" fill="#ff941f"/><polygon points="36 220 51 246 21 246 36 220" fill="#ff941f"/><rect x="62" y="175" width="30" height="30" fill="#1f7aff"/><polygon points="-5 231 -20 205 10 205 -5 231" fill="#ff941f"/><rect x="-20" y="175" width="30" height="30" fill="#1f7aff"/><rect x="41.5" y="210.5" width="30" height="30" transform="translate(-105.2 58.5) rotate(-30)" fill="#1f7aff"/><rect x="0.5" y="210.5" width="30" height="30" transform="translate(114.8 22.5) rotate(30)" fill="#1f7aff"/></svg>