<svg width="300" height="360">
  <g class="planet"><circle cx="85.2" cy="137.7" r="75.7" fill="#696"/><path d="M42.5,75.2c4.1,4.8,10.9,8,17.5,4.9,4.6-2,6.9,9.3,14.5,8.7,20.7-1.6,11.1-2.8,19.6,6.4,2.6,2.8,19.7,2.5,22.5-2.5,7.2-12.7,13.1-.5,19.2-5.1,2.1-1.5,2.5-2.6,2.7-3.6A75.5,75.5,0,0,0,47.4,72.2,49.4,49.4,0,0,0,42.5,75.2Z" fill="#b1daf2" fill-rule="evenodd"/><path d="M91.6,213.1c-1.2-7.2.4-18.3,7.5-19.6,12.7-2.4,12.5-25.5,27.8-23.1,5.8.9.2-6.9,4.2-16.4,6.8-15.8,10.9.4,14.1-17,.4-2.2,9.2-4.5,15.6-2.5A75.6,75.6,0,0,1,123,203.2,74.4,74.4,0,0,1,91.6,213.1Z" fill="#b1daf2" fill-rule="evenodd"/><path d="M73.7,125.1c13.1,3.5,5.3,13,23.3,13.4,8.5.2,22.1,23.3-12.4,31.5-17,4-9.3,30.5-39.2,23.1-6.1-1.5-14.1-5.5-21-10.4-1.7-2.3-3.2-4.7-4.7-7.2a74,74,0,0,1-8.4-21.7c4.8-6.7,15.4-11.3,25.5-13.7C54.7,136,68.1,123.5,73.7,125.1Z" fill="#b1daf2" fill-rule="evenodd"/><path d="M39.1,110.5c2.9,3.7,6.2,8,12.6,5.2,4.3-2,4-4,9.6-3C64,113.3,57.8,91,46.1,96c-7.3,3.1-1.5,11.8-8.3,15.2Z" fill="#b1daf2" fill-rule="evenodd"/><path d="M84.1,110.6c-2.1,5.8,2.7,3.4,8.4,1,3.3-1.4,23-12,19.6.2-2.7,9.9-21.9,10.3-31,4.7C76.7,113.8,77.9,114.2,84.1,110.6Z" fill="#b1daf2" fill-rule="evenodd"/><path d="M138.9,121.4c1.8-.5,12.8-5.9,16.9-11.1a78,78,0,0,0-5.1-10.5c-.8-1.4-1.6-2.7-2.5-4C131.7,91.2,106.6,130.2,138.9,121.4Z" fill="#b1daf2" fill-rule="evenodd"/><path d="M23,134.9c-3.2,1.3-8.6,3.8-13.4,4.3a78.1,78.1,0,0,1,1.1-14.5c3.6,0,7.3,1.6,10,6.2C21.5,132.3,22.8,135,23,134.9Z" fill="#b1daf2" fill-rule="evenodd"/></g>
  <g class="planet"><path d="M195.9,203.5c20.9-2.5,44.3,1,63.3,13.6s32.4,35.5,32.4,62.1-13.5,49.6-32.4,62.2-42.4,16.1-63.3,13.6-36.6-10.6-47.2-23.1S131,300.5,131,279.3s6.5-39.6,17.7-52.7S174.9,206.1,195.9,203.5Z" fill="#ebae6e" fill-rule="evenodd"/><path d="M195.9,203.5c15.5-1.8,32.2-.4,47.7,5.7A79.6,79.6,0,0,1,282,241.5a107.4,107.4,0,0,1-31.4,12.9,196.7,196.7,0,0,1-40.2,5.2,232.4,232.4,0,0,1-40.8-2.3,155.6,155.6,0,0,1-33.5-8.7,62.2,62.2,0,0,1,22-30.8C167.8,210.4,180.4,205.4,195.9,203.5Z" fill="#b29987" fill-rule="evenodd"/><path d="M285.2,310.6c-8.5,17.3-22.3,30.5-38.6,37.5s-34.2,8.9-50.7,6.9-29.8-7.5-39.7-15.7a65.3,65.3,0,0,1-21.8-34.7,148.6,148.6,0,0,1,34.2-9.2,236.7,236.7,0,0,1,42.3-2.8,199.7,199.7,0,0,1,41.8,4.9A114.2,114.2,0,0,1,285.2,310.6Z" fill="#cd9573" fill-rule="evenodd"/><path d="M195.9,203.5a103,103,0,0,1,38.5,2.6,86,86,0,0,1,35.2,19.3,146.8,146.8,0,0,1-28.1,9.4,228.6,228.6,0,0,1-34,4.7,249.6,249.6,0,0,1-34.7-.3,195.2,195.2,0,0,1-30-4.6,59.3,59.3,0,0,1,21.3-20.9C172.8,208.6,183.4,205,195.9,203.5Z" fill="#b07f62" fill-rule="evenodd"/><path d="M274.8,327.4A82,82,0,0,1,238,351.3a101.3,101.3,0,0,1-42.1,3.7c-13.7-1.7-25-5.7-34.1-11.7A59.2,59.2,0,0,1,140,318.9a192.4,192.4,0,0,1,31.5-5.4,252.9,252.9,0,0,1,37.2-.7,234.2,234.2,0,0,1,36.5,4.7A146.6,146.6,0,0,1,274.8,327.4Z" fill="#b07f62" fill-rule="evenodd"/><path d="M195.9,203.5a102.2,102.2,0,0,1,25.9.2,93.4,93.4,0,0,1,26,7.2c-6.7,2-13.9,3.9-21.5,5.4a220.1,220.1,0,0,1-24,3.4c-8.4.8-16.6,1.2-24.4,1.2s-15.4-.4-22.4-1.1a63.3,63.3,0,0,1,17.7-10.5A82.9,82.9,0,0,1,195.9,203.5Z" fill="#a36f56" fill-rule="evenodd"/><path d="M256.7,343a92.3,92.3,0,0,1-30,11.1,106.5,106.5,0,0,1-30.8.9,86.4,86.4,0,0,1-26.3-7.3,60.7,60.7,0,0,1-19.4-14.1,243.5,243.5,0,0,1,25.5-1.9c9.1-.1,18.6.2,28.5,1a233.3,233.3,0,0,1,28,3.9A207.2,207.2,0,0,1,256.7,343Z" fill="#a36f56" fill-rule="evenodd"/><path d="M162.6,289.8c8.3,0,15.1,2.8,15.1,6.2s-6.8,6.2-15.1,6.2-15.1-2.8-15.1-6.2S154.3,289.8,162.6,289.8Z" fill="#ebae6e" fill-rule="evenodd"/><path d="M209.3,305.6c7.4,0,13.3,2.3,13.3,5.1s-5.9,5.1-13.3,5.1-13.4-2.3-13.4-5.1S201.9,305.6,209.3,305.6Z" fill="#cd9573" fill-rule="evenodd"/><path d="M206.5,327.3c5.9,0,10.6,2.8,10.6,6.2s-4.7,6.2-10.6,6.2-10.6-2.8-10.6-6.2S200.6,327.3,206.5,327.3Z" fill="#b07f62" fill-rule="evenodd"/><ellipse cx="241.8" cy="255.7" rx="14.7" ry="10.3" fill="#b29987"/><path d="M180.3,232c13.1,0,23.8,3.7,23.8,8.3s-10.7,8.3-23.8,8.3-23.9-3.7-23.9-8.3S167.1,232,180.3,232Z" fill="#b07f62" fill-rule="evenodd"/><ellipse cx="227.4" cy="215.1" rx="13.4" ry="4.1" fill="#a36f56"/><path d="M150.4,248.6c8.3,0,15.1,4.6,15.1,10.3s-6.8,10.2-15.1,10.2-15.1-4.6-15.1-10.2S142.1,248.6,150.4,248.6Z" fill="#ebae6e" fill-rule="evenodd"/><path d="M171.6,328.5c4.2,0,7.6,2.1,7.6,4.6s-3.4,4.5-7.6,4.5-7.7-2-7.7-4.5S167.3,328.5,171.6,328.5Z" fill="#a36f56" fill-rule="evenodd"/><path d="M280,319.8c-7.9-4.6-12.3-11.8-10-17s10.5-6.7,19.1-3.9a88.4,88.4,0,0,1-4.5,12.5l-2.7,5.2A33.7,33.7,0,0,1,280,319.8Z" fill="#ebae6e" fill-rule="evenodd"/><path d="M280,319.8c-7.4-4.3-11.7-10.9-10.3-16,5.3,2.4,10.3,4.9,14.9,7.5h0l-2.9,5.5C281.2,317.9,280.6,318.8,280,319.8Z" fill="#ebae6e" fill-rule="evenodd"/><path d="M279.9,319.8c-7.8-4.6-12.1-11.7-9.9-16.8a95.4,95.4,0,0,1,15,7.5c-1,2.1-2.1,4.2-3.2,6.3S280.6,318.8,279.9,319.8Z" fill="#ebae6e" fill-rule="evenodd"/><path d="M279.9,319.8c-7.4-4.4-11.6-10.9-10.2-16,5.3,2.4,10.3,4.9,14.9,7.5-.9,1.9-1.9,3.8-2.9,5.6Z" fill="#ebae6e" fill-rule="evenodd"/><path d="M148.6,226.3c3.5,2.5,5.4,5.8,4.7,8.9s-7.1,6.8-14.2,6A80.1,80.1,0,0,1,148.6,226.3Z" fill="#b07f62" fill-rule="evenodd"/><path d="M148.6,226.3c3.5,2.5,5.4,5.8,4.7,8.9s-7.1,6.8-14.2,6A80.1,80.1,0,0,1,148.6,226.3Z" fill="#b07f62" fill-rule="evenodd"/><path d="M148.6,226.3c3.5,2.5,5.4,5.8,4.7,8.9a.3.3,0,0,1-.1.2c-3.5-.4-7-.7-10.2-1.2A70.8,70.8,0,0,1,148.6,226.3Z" fill="#b07f62" fill-rule="evenodd"/><path d="M170,214c4.2,0,7.6,2,7.6,4.5s-3.4,4.6-7.6,4.6-7.6-2.1-7.6-4.6S165.8,214,170,214Z" fill="#b07f62" fill-rule="evenodd"/><path d="M195.9,203.5c20.9-2.5,44.3,1,63.3,13.6a62.3,62.3,0,0,1,9.8,8c3,36.7-20.6,88.2-48.8,89.1-3.9.2-18.8,4.8-31.3,4.8-25.7,0-35.6-.4-52.1-7.2a90.4,90.4,0,0,1-5.8-32.5c0-21.3,6.5-39.6,17.7-52.7S174.9,206.1,195.9,203.5Z" fill="#fdbb76" fill-rule="evenodd"/><path d="M195.9,203.5c15.5-1.8,32.2-.4,47.7,5.7a77.6,77.6,0,0,1,25.5,16.3,97.9,97.9,0,0,1-1.4,23.3,114.3,114.3,0,0,1-17.1,5.6,196.7,196.7,0,0,1-40.2,5.2,232.4,232.4,0,0,1-40.8-2.3,155.6,155.6,0,0,1-33.5-8.7,62.2,62.2,0,0,1,22-30.8C167.8,210.4,180.4,205.4,195.9,203.5Z" fill="#c4a894" fill-rule="evenodd"/><path d="M136.6,311.8c-.8-2.3-1.6-4.7-2.2-7.2a148.6,148.6,0,0,1,34.2-9.2,236.7,236.7,0,0,1,42.3-2.8,212.1,212.1,0,0,1,37,3.9c-7.9,10.4-17.5,17.4-27.7,17.7-3.9.2-18.8,4.8-31.3,4.8C163.1,319,153.3,318.6,136.6,311.8Z" fill="#dfa37d" fill-rule="evenodd"/><path d="M195.9,203.5a103,103,0,0,1,38.5,2.6A84.7,84.7,0,0,1,269,225a1.5,1.5,0,0,1,.1.7,151.4,151.4,0,0,1-27.6,9.1,228.6,228.6,0,0,1-34,4.7,249.6,249.6,0,0,1-34.7-.3,195.2,195.2,0,0,1-30-4.6,59.3,59.3,0,0,1,21.3-20.9C172.8,208.6,183.4,205,195.9,203.5Z" fill="#c28c6c" fill-rule="evenodd"/><path d="M150.8,316.4a198.6,198.6,0,0,1,20.7-2.9,252.9,252.9,0,0,1,37.2-.7c4.9.3,9.6.7,14.3,1.2l-2.8.2c-3.9.2-18.8,4.8-31.3,4.8C171.1,319,160.9,318.8,150.8,316.4Z" fill="#c28c6c" fill-rule="evenodd"/><path d="M195.9,203.5a102.2,102.2,0,0,1,25.9.2,93.4,93.4,0,0,1,26,7.2c-6.7,2-13.9,3.9-21.5,5.4a220.1,220.1,0,0,1-24,3.4c-8.4.8-16.6,1.2-24.4,1.2s-15.4-.4-22.4-1.1a63.3,63.3,0,0,1,17.7-10.5A82.9,82.9,0,0,1,195.9,203.5Z" fill="#b57b5f" fill-rule="evenodd"/><path d="M162.6,289.8c8.3,0,15.1,2.8,15.1,6.2s-6.8,6.2-15.1,6.2-15.1-2.8-15.1-6.2S154.3,289.8,162.6,289.8Z" fill="#fdbb76" fill-rule="evenodd"/><path d="M209.3,305.6c7.4,0,13.3,2.3,13.3,5.1s-1.6,2.8-4.3,3.8l-5.7,1.1a18.3,18.3,0,0,1-3.3.2c-7.4,0-13.4-2.3-13.4-5.1S201.9,305.6,209.3,305.6Z" fill="#dfa37d" fill-rule="evenodd"/><ellipse cx="241.8" cy="255.7" rx="14.7" ry="10.3" fill="#c4a894"/><path d="M180.3,232c13.1,0,23.8,3.7,23.8,8.3s-10.7,8.3-23.8,8.3-23.9-3.7-23.9-8.3S167.1,232,180.3,232Z" fill="#c28c6c" fill-rule="evenodd"/><ellipse cx="227.4" cy="215.1" rx="13.4" ry="4.1" fill="#b57b5f"/><path d="M150.4,248.6c8.3,0,15.1,4.6,15.1,10.3s-6.8,10.2-15.1,10.2-15.1-4.6-15.1-10.2S142.1,248.6,150.4,248.6Z" fill="#fdbb76" fill-rule="evenodd"/><path d="M148.6,226.3c3.5,2.5,5.4,5.8,4.7,8.9s-7.1,6.8-14.2,6A80.1,80.1,0,0,1,148.6,226.3Z" fill="#c28c6c" fill-rule="evenodd"/><path d="M148.6,226.3c3.5,2.5,5.4,5.8,4.7,8.9s-7.1,6.8-14.2,6A80.1,80.1,0,0,1,148.6,226.3Z" fill="#c28c6c" fill-rule="evenodd"/><path d="M148.6,226.3c3.5,2.5,5.4,5.8,4.7,8.9a.3.3,0,0,1-.1.2c-3.5-.4-7-.7-10.2-1.2A70.8,70.8,0,0,1,148.6,226.3Z" fill="#c28c6c" fill-rule="evenodd"/><path d="M170,214c4.2,0,7.6,2,7.6,4.5s-3.4,4.6-7.6,4.6-7.6-2.1-7.6-4.6S165.8,214,170,214Z" fill="#c28c6c" fill-rule="evenodd"/></g>
  <g class="rocket"><path d="M197.9,182.4h-.1l-3.7,4.1h0l.6,19.6h.1l6.6-11.4h0Z" fill="#c4391a"/><path d="M197.3,182.9l.5-.6h0l3.6,12.2h0l-1,1.8s-.7-2.7-1.8-7.5S197.3,182.9,197.3,182.9Z" fill="#b53419"/><path d="M221.3,182.8a.1.1,0,0,1,.1-.1l3.5,4.2h.1l-1.4,19.6h0L217.3,195h0Z" fill="#c4391a"/><path d="M221.9,183.3l-.5-.6a.1.1,0,0,0-.1.1l-4,12.1h0l1,1.8s.8-2.6,2.1-7.4S221.9,183.3,221.9,183.3Z" fill="#b53419"/><path d="M216.3,194.1c0-.1,0-.2-.1-.2l-13.5-.3a.2.2,0,0,0-.2.2l.8,3c0,.1.1.3.2.3s1.3.6,5.8.7a20.8,20.8,0,0,0,5.9-.5q.2,0,.3-.3Z" fill="#4d443a"/><path d="M223.6,167.4c-.2,14.3-6.5,28.1-6.5,28.1s-1.6.9-7.5.8-8-1.1-8-1.1-5.7-14-5.4-28.2,14.1-23.3,14.1-23.3S223.9,152.7,223.6,167.4Z" fill="#d42"/><path d="M221.2,156.5h-.1a57,57,0,0,1-10.3.9h-.9a60.2,60.2,0,0,1-10.9-1.2,23.9,23.9,0,0,0-2.8,10.8,68.7,68.7,0,0,0,1.3,14,5.2,5.2,0,0,1,.2,1.1,52.2,52.2,0,0,0,11.8,1.4,51.1,51.1,0,0,0,12-1.1,6.4,6.4,0,0,0,.2-.7,69.6,69.6,0,0,0,1.9-14.2A23.1,23.1,0,0,0,221.2,156.5Z" fill="#f6b135"/><path d="M217.1,166.8a7.3,7.3,0,1,1-7.1-7.3A7.2,7.2,0,0,1,217.1,166.8Z" fill="#d9951a"/><path d="M216.9,166.3a7.1,7.1,0,1,1-6.9-7.2A7,7,0,0,1,216.9,166.3Z" fill="#4d443a"/><path d="M215.8,166.3a6,6,0,0,1-6.1,5.9,6.1,6.1,0,0,1,.2-12.1A6,6,0,0,1,215.8,166.3Z" fill="#3d372e"/><path d="M215.7,166.3a5.9,5.9,0,1,1-5.8-6A5.9,5.9,0,0,1,215.7,166.3Z" fill="#32968c"/><path d="M214.3,165.8a4.4,4.4,0,0,1-4.5,4.3,4.4,4.4,0,1,1,4.5-4.3Z" fill="#3fa69c"/><g opacity="0.15"><path d="M223.6,167.4c.3-14.7-13.3-23.7-13.3-23.7a35.6,35.6,0,0,0-3.4,2.6l-.4.3c2.9,1,10.3,5.6,11.8,18.4a55.6,55.6,0,0,1,.2,7,45.2,45.2,0,0,1-7.5,24.3,17,17,0,0,0,6.1-.8S223.4,181.7,223.6,167.4Z"/></g><path d="M209.6,195c-6-.1-8.2-.9-8.5-1.1a3.2,3.2,0,0,0,.2.6s1.9,1,8.3,1.1,7.8-.8,7.8-.8l.3-.6C217.5,194.3,215.6,195.1,209.6,195Z" fill="#c4391a"/><path d="M209.9,184.3c0-.3,0-.4-.3-.4h-.9c-.2,0-.2.1-.2.3s-.7,10.7-.7,11.3.7,10.4.7,10.4,0,.3.3.3.3,0,.3-.3,1-9.2,1-10.3S209.9,184.3,209.9,184.3Z" fill="#c4391a"/><polygon points="198.7 182.2 202.1 193.9 200 182.5 198.7 182.2" fill="#f6b135"/><polygon points="202.7 182.9 204.2 190.3 203.4 183 202.7 182.9" fill="#f6b135"/><polygon points="220.5 182.5 216.7 194.1 219.2 182.7 220.5 182.5" fill="#f6b135"/><polygon points="216.5 183.1 214.8 190.4 215.8 183.1 216.5 183.1" fill="#f6b135"/><path d="M213.4,146.1a24.8,24.8,0,0,0-3.1-2.4,24.8,24.8,0,0,0-3.1,2.4Z" fill="#4d443a"/><path d="M214,146.7l-.6-.6h-6.2a1.8,1.8,0,0,0-.7.5A60.7,60.7,0,0,0,214,146.7Z" fill="#f6b135"/><path d="M204.2,196.5c0,.2-.1.3-.2.3a.3.3,0,0,1-.3-.3.3.3,0,0,1,.3-.3C204.1,196.2,204.2,196.4,204.2,196.5Z" fill="#c4bdb5"/><path d="M205.8,196.8c0,.2-.1.3-.2.3a.3.3,0,0,1,0-.6C205.7,196.5,205.9,196.7,205.8,196.8Z" fill="#c4bdb5"/><path d="M207.5,196.9a.3.3,0,0,1-.3.3c-.1,0-.2-.1-.2-.3s.1-.2.3-.2A.2.2,0,0,1,207.5,196.9Z" fill="#c4bdb5"/><path d="M214.1,196.7a.3.3,0,1,0,.3-.3A.3.3,0,0,0,214.1,196.7Z" fill="#c4bdb5"/><path d="M212.5,196.9a.3.3,0,0,0,.3.3c.1,0,.2-.1.2-.3s-.1-.2-.2-.2S212.5,196.8,212.5,196.9Z" fill="#c4bdb5"/><path d="M210.8,197a.3.3,0,1,0,.3-.3A.3.3,0,0,0,210.8,197Z" fill="#c4bdb5"/><path d="M209.2,197.1c0,.1-.1.2-.3.2s-.2-.1-.2-.3l.2-.2A.3.3,0,0,1,209.2,197.1Z" fill="#c4bdb5"/><path d="M214.4,147.1l-.2-.2a49.3,49.3,0,0,1-7.9-.1l-.2.2A71.8,71.8,0,0,0,214.4,147.1Z" fill="#f6b135"/><path d="M206.9,163.2c-.2.2-.4.3-.6.2a.5.5,0,0,1,0-.7c.2-.2.5-.3.6-.2A.5.5,0,0,1,206.9,163.2Z" fill="#6eb8b0"/><path d="M206.1,164.4a.5.5,0,0,1-.4.3.4.4,0,0,1-.2-.5c.1-.2.2-.3.4-.2S206.1,164.2,206.1,164.4Z" fill="#6eb8b0"/><line x1="209.9" y1="183.8" x2="209.6" y2="232.7" fill="none" stroke="#000" stroke-miterlimit="10" stroke-width="3"/><polygon points="209.5 243.3 203.5 228.3 209.6 231.9 215.7 228.4 209.5 243.3"/><circle cx="200" cy="400" r="3" fill="none"/></g>
  <g class="rocket"><path d="M78.2,42.2c0-.1,0-.1-.1,0l-3.7,4h0l.7,19.6h0l6.6-11.4a.1.1,0,0,0,.1-.1Z" fill="#c4391a"/><path d="M77.6,42.7l.5-.5c0-.1.1-.1.1,0l3.6,12.2a.1.1,0,0,1-.1.1l-1,1.8s-.7-2.7-1.8-7.5S77.6,42.7,77.6,42.7Z" fill="#b53419"/><path d="M101.7,42.6h0l3.6,4.1h0l-1.4,19.6h0L97.7,54.8h0Z" fill="#c4391a"/><path d="M102.2,43.1l-.5-.5h0l-4,12.1h0l1,1.8,2-7.4A52.3,52.3,0,0,0,102.2,43.1Z" fill="#b53419"/><path d="M96.7,53.9a.2.2,0,0,0-.2-.2L83,53.4c-.1,0-.2.1-.1.2l.7,3a.3.3,0,0,0,.3.3s1.2.7,5.8.7a20.4,20.4,0,0,0,5.8-.5.3.3,0,0,0,.3-.3Z" fill="#4d443a"/><path d="M103.9,27.3c-.2,14.3-6.4,28.1-6.4,28.1s-1.7.8-7.6.7-8-1-8-1S76.3,41,76.5,26.8,90.7,3.5,90.7,3.5,104.2,12.5,103.9,27.3Z" fill="#d42"/><path d="M101.5,16.3h0a58.3,58.3,0,0,1-10.4.9h-.8a61.4,61.4,0,0,1-11-1.2,24.3,24.3,0,0,0-2.8,10.8,70.2,70.2,0,0,0,1.4,14.1,3.6,3.6,0,0,0,.2,1,51.2,51.2,0,0,0,11.7,1.4,51.4,51.4,0,0,0,12.1-1.1c0-.2.1-.4.1-.7a63.2,63.2,0,0,0,2-14.2A24.7,24.7,0,0,0,101.5,16.3Z" fill="#f6b135"/><path d="M97.4,26.6A7.2,7.2,0,1,1,83,26.3a7.2,7.2,0,0,1,14.4.3Z" fill="#d9951a"/><path d="M97.3,26.1a7.1,7.1,0,1,1-7-7.2A7.2,7.2,0,0,1,97.3,26.1Z" fill="#4d443a"/><path d="M96.2,26.1A6.1,6.1,0,0,1,90.1,32a6,6,0,0,1-5.9-6.1A5.9,5.9,0,0,1,90.3,20,6,6,0,0,1,96.2,26.1Z" fill="#3d372e"/><path d="M96,26.1a5.9,5.9,0,0,1-5.9,5.7,5.9,5.9,0,0,1,.2-11.7A5.9,5.9,0,0,1,96,26.1Z" fill="#32968c"/><path d="M94.6,25.6a4.3,4.3,0,0,1-4.4,4.3,4.4,4.4,0,1,1,.1-8.7A4.3,4.3,0,0,1,94.6,25.6Z" fill="#3fa69c"/><g opacity="0.15"><path d="M103.9,27.3c.3-14.8-13.2-23.8-13.2-23.8a29.4,29.4,0,0,0-3.5,2.6l-.3.3c2.9,1,10.3,5.6,11.7,18.4a42.3,42.3,0,0,1,.3,7,46,46,0,0,1-7.6,24.3,19.8,19.8,0,0,0,6.2-.7S103.7,41.6,103.9,27.3Z"/></g><path d="M89.9,54.8c-5.9-.1-8.1-.9-8.5-1.1a3.2,3.2,0,0,0,.2.6s1.9,1,8.3,1.1,7.9-.8,7.9-.8A3.2,3.2,0,0,0,98,54C97.8,54.1,95.9,54.9,89.9,54.8Z" fill="#c4391a"/><path d="M90.2,44.1c0-.3,0-.4-.2-.4h-.9c-.3,0-.3.1-.3.3s-.6,10.7-.7,11.3.7,10.4.7,10.4,0,.3.3.3.3,0,.3-.3,1-9.2,1.1-10.3S90.2,44.1,90.2,44.1Z" fill="#c4391a"/><polygon points="79 42 82.4 53.7 80.3 42.3 79 42" fill="#f6b135"/><polygon points="83.1 42.7 84.5 50.1 83.7 42.8 83.1 42.7" fill="#f6b135"/><polygon points="100.9 42.3 97.1 53.9 99.6 42.5 100.9 42.3" fill="#f6b135"/><polygon points="96.8 42.9 95.1 50.2 96.1 42.9 96.8 42.9" fill="#f6b135"/><path d="M93.7,6a25.7,25.7,0,0,0-3-2.5,21.3,21.3,0,0,0-3.2,2.4Z" fill="#4d443a"/><path d="M94.3,6.5,93.7,6H87.5l-.6.5A59.1,59.1,0,0,0,94.3,6.5Z" fill="#f6b135"/><path d="M84.6,56.3a.3.3,0,1,1-.6,0l.3-.3A.3.3,0,0,1,84.6,56.3Z" fill="#c4bdb5"/><path d="M86.2,56.6a.3.3,0,0,1-.3.3.3.3,0,0,1-.3-.3.5.5,0,0,1,.3-.3A.3.3,0,0,1,86.2,56.6Z" fill="#c4bdb5"/><path d="M87.9,56.7a.3.3,0,0,1-.3.3.3.3,0,0,1-.3-.3c0-.1.1-.2.3-.2S87.9,56.6,87.9,56.7Z" fill="#c4bdb5"/><path d="M94.5,56.5c0,.2.1.3.2.3a.3.3,0,0,0,.3-.3.3.3,0,0,0-.3-.3C94.6,56.2,94.5,56.4,94.5,56.5Z" fill="#c4bdb5"/><path d="M92.8,56.7a.3.3,0,0,0,.3.3c.2,0,.3-.1.3-.2a.3.3,0,0,0-.3-.3C93,56.5,92.8,56.6,92.8,56.7Z" fill="#c4bdb5"/><path d="M91.2,56.8c0,.2.1.3.2.3a.3.3,0,0,0,.3-.3.3.3,0,0,0-.3-.3C91.3,56.5,91.2,56.7,91.2,56.8Z" fill="#c4bdb5"/><path d="M89.6,56.9c0,.1-.2.2-.3.2s-.3-.1-.3-.2a.3.3,0,0,1,.3-.3A.3.3,0,0,1,89.6,56.9Z" fill="#c4bdb5"/><path d="M94.7,6.9c-.1,0-.1-.1-.2-.2a49.8,49.8,0,0,1-7.9-.1c0,.1-.1.1-.2.2A54.6,54.6,0,0,0,94.7,6.9Z" fill="#f6b135"/><path d="M87.3,23a.7.7,0,0,1-.7.2c-.2-.2-.1-.5,0-.7a.7.7,0,0,1,.7-.2C87.5,22.5,87.4,22.8,87.3,23Z" fill="#6eb8b0"/><path d="M86.4,24.2c-.1.2-.2.4-.4.3s-.2-.3-.2-.5.3-.3.4-.2S86.5,24,86.4,24.2Z" fill="#6eb8b0"/><line x1="90.2" y1="43.7" x2="89.9" y2="92.5" fill="none" stroke="#000" stroke-miterlimit="10" stroke-width="3"/><polygon points="89.9 103.1 83.9 88.2 89.9 91.7 96.1 88.2 89.9 103.1"/><circle cx="85" cy="283.8" r="3" fill="none"/></g>
  <text transform="translate(42.7 128.7)" font-size="13.86" font-family="SourceSansPro-SemiBoldItalic, Source Sans Pro" font-weight="700" font-style="italic"><tspan xml:space="preserve">F  =</tspan></text><text transform="translate(67 121.8)" font-size="13.86" font-family="SourceSansPro-SemiBoldItalic, Source Sans Pro" font-weight="700" font-style="italic">GMm</text><text transform="translate(76.2 135.6)" font-size="13.86" font-family="SourceSansPro-SemiBoldItalic, Source Sans Pro" font-weight="700" font-style="italic" letter-spacing="0.1em">r</text><text transform="translate(82.6 131) scale(0.58)" font-size="13.86" font-family="SourceSansPro-SemiBold, Source Sans Pro" font-weight="700" letter-spacing="0.1em">2</text><line x1="67" y1="123.7" x2="98.2" y2="123.7" fill="none" stroke="#000" stroke-miterlimit="10"/>
  <g class="clock" style="display: none"><circle cx="192.3" cy="194.4" r="20.5" fill="#e6e6e6" stroke="gray" stroke-miterlimit="10" stroke-width="2"/><line x1="192.3" y1="179" x2="192.3" y2="194.4" fill="none" stroke="gray" stroke-linecap="round" stroke-miterlimit="10" stroke-width="3"/><line x1="202" y1="202.1" x2="192.3" y2="194.4" fill="none" stroke="gray" stroke-linecap="round" stroke-miterlimit="10" stroke-width="3"/></g>
  <g class="clock" style="display: none"><circle cx="110.1" cy="57.6" r="20.5" fill="#e6e6e6" stroke="gray" stroke-miterlimit="10" stroke-width="2"/><line x1="110.1" y1="42.2" x2="110.1" y2="57.6" fill="none" stroke="gray" stroke-linecap="round" stroke-miterlimit="10" stroke-width="3"/><line x1="118.8" y1="51" x2="110.1" y2="57.6" fill="none" stroke="gray" stroke-linecap="round" stroke-miterlimit="10" stroke-width="3"/></g>

  <text transform="translate(191.1 268.4)" font-size="13.86" font-family="SourceSansPro-SemiBoldItalic, Source Sans Pro" font-weight="700" font-style="italic"><tspan xml:space="preserve">F  =</tspan></text><text transform="translate(215.3 261.5)" font-size="13.86" font-family="SourceSansPro-SemiBoldItalic, Source Sans Pro" font-weight="700" font-style="italic">GMm</text><text transform="translate(224.6 275.3)" font-size="13.86" font-family="SourceSansPro-SemiBoldItalic, Source Sans Pro" font-weight="700" font-style="italic" letter-spacing="0.1em">r</text><text transform="translate(231 270.7) scale(0.58)" font-size="13.86" font-family="SourceSansPro-SemiBold, Source Sans Pro" font-weight="700" letter-spacing="0.1em">2</text><line x1="215.4" y1="263.3" x2="246.5" y2="263.3" fill="none" stroke="#000" stroke-miterlimit="10"/></svg>
