<svg width="200" height="200">
  <polygon points="34.2,124.8 98.5,88.6 99.7,18.8 34.2,10.9 6.5,70.8" fill="#2ba058" opacity="0.5"/>

  <g class="image" style="transform-origin: 56px 136px">
    <polygon points="34.2,124.8 98.5,88.6 99.7,18.8 34.2,10.9 6.5,70.8" fill="#2ba058"/>
    <line hidden x1="98.5" y1="88.6" x2="61.9" y2="148.2" stroke="#000" stroke-linecap="round" stroke-width="2"/>
    <line hidden x1="99.7" y1="18.8" x2="61.9" y2="148.2" stroke="#000" stroke-linecap="round" stroke-width="2"/>
    <line hidden x1="34.2" y1="10.9" x2="61.9" y2="148.2" stroke="#000" stroke-linecap="round" stroke-width="2"/>
    <line hidden x1="6.5" y1="70.8" x2="61.9" y2="148.2" stroke="#000" stroke-linecap="round" stroke-width="2"/>
    <line hidden x1="34.2" y1="124.8" x2="61.9" y2="148.2" stroke="#000" stroke-linecap="round" stroke-width="2"/>
  </g>

  <g class="reveal" data-when="t3">
    <path d="M147.9,146.2a6.6,6.6,0,0,1-2.1-.3,7.2,7.2,0,0,1-1.5-1.1,4.6,4.6,0,0,1-.9-1.7,7.8,7.8,0,0,1-.3-2.2,8.1,8.1,0,0,1,.5-3.1,7.2,7.2,0,0,1,1.4-2.6,5.5,5.5,0,0,1,2.2-1.8,5,5,0,0,1,2.7-.7,4.2,4.2,0,0,1,2,.5,5,5,0,0,1,1.4,1.5l-1.5,1.1-.9-.9a2.1,2.1,0,0,0-1.1-.4,2.8,2.8,0,0,0-1.8.6,4,4,0,0,0-1.5,1.4,6.1,6.1,0,0,0-.9,2,7.8,7.8,0,0,0-.3,2.2,6.6,6.6,0,0,0,.1,1.5,2.7,2.7,0,0,0,.6,1.2,2.2,2.2,0,0,0,.9.7,2.9,2.9,0,0,0,1.4.3,3.1,3.1,0,0,0,1.3-.3l1.2-.8.9,1.4a11.1,11.1,0,0,1-1.6,1.1A5.4,5.4,0,0,1,147.9,146.2Z" fill="#fff"/>
    <path d="M155.2,138.1l1.6-5.9h2.1l-.8,2.4-1.5,3.5Z" fill="#fff"/>
    <path d="M58.5,67.2a6.4,6.4,0,0,1-2-.3A4.2,4.2,0,0,1,55,65.8a4.6,4.6,0,0,1-.9-1.7,5.4,5.4,0,0,1-.4-2.2,10.6,10.6,0,0,1,.5-3.1,7.4,7.4,0,0,1,1.5-2.6,6,6,0,0,1,2.1-1.8,5.5,5.5,0,0,1,2.8-.7,4.6,4.6,0,0,1,2,.5,4.7,4.7,0,0,1,1.3,1.5l-1.5,1.1a2.4,2.4,0,0,0-.8-.9,2.1,2.1,0,0,0-1.1-.4,3.3,3.3,0,0,0-1.9.6,4.7,4.7,0,0,0-1.4,1.4,6.1,6.1,0,0,0-.9,2,5.4,5.4,0,0,0-.4,2.2,6.1,6.1,0,0,0,.2,1.5,4.3,4.3,0,0,0,.5,1.2l1,.7a2.8,2.8,0,0,0,1.3.3,3.5,3.5,0,0,0,1.4-.3l1.1-.8,1,1.4-1.6,1.1A5.6,5.6,0,0,1,58.5,67.2Z" fill="#fff"/>
  </g>
</svg>
