<svg x="0px" y="0px" viewBox="0 0 400 240" style="margin: 0 auto; max-width: 400px;">

<polygon fill="#009542" stroke="#FFFFFF" points="265,161.2 268.7,130.6 277.3,105.3 288.3,77.3 300.7,57.3 309,42.7 328,44.7 
	346,51 357.7,62.7 367.5,77.7 367.5,93 365,112 360,132 352,151.7 341,169.7 329.7,184.7 316.3,197.3 299.7,189.3 278,174.7 "/>
<polygon fill="#C2240C" stroke="#FFFFFF" points="268.7,130.6 247.3,128 222,120 204.7,105 189.7,89 185,72 190.3,51.7 195.7,35 
	207.7,21 226.8,19 247.3,21 268.7,27 289,34.3 309,42.7 300.7,57.3 288.3,77.3 277.3,105.3 "/>
<polygon fill="#FFDD00" stroke="#FFFFFF" points="222.2,120.2 194.8,121.8 169,127.1 144.4,137.7 126,153.3 112.7,169.3 133,175.7 
	156.3,179.6 178.3,181.5 203,181.5 224,176 245.7,168.3 265,161.2 268.7,130.6 247.3,128 "/>
<polygon fill="#C2240C" stroke="#FFFFFF" points="112.5,169.6 132.9,175.8 156.3,179.6 178.3,181.5 203,181.5 224,176 245.7,168.3 
	265,161.2 278,174.7 299.7,189.3 316.3,197.3 298.7,210.3 274.7,220.3 241.7,228.3 211,231.6 179.7,231.5 150,229.5 120,227.3 
	96,222 78.3,216 87,197.3 99,178.7 "/>
<polygon fill="#009542" stroke="#FFFFFF" points="112.5,169.6 94,161.2 78.3,149 66.7,135.3 53.7,121.7 43.3,106.3 61.3,99 82,93 
	103.7,89 131,84 153.7,80 173,76.7 185,72 189.7,89 204.7,105 222.2,120.2 194.8,121.8 169,127.1 144.4,137.7 126,153.3 "/>
<polygon fill="#005FAB" stroke="#FFFFFF" points="78.3,216 87,197.3 99,178.7 112.5,169.6 94,161.2 78.3,149 66.7,135.3 53.7,121.7 
	43.3,106.3 37,125.3 32,146.7 34,169.6 42,186.7 58.7,204 "/>
<polygon fill="#FFDD00" stroke="#FFFFFF" points="43.5,106.3 61.4,99 82,93 103.7,89 131,84 153.7,80 173,76.7 185,72 169.7,64.3 
	153,57.7 138.7,52.7 122.3,46 105.3,55 88,63.3 68.3,72 50,78.3 42.1,79 43.5,91.3 "/>
<polygon fill="#C2240C" stroke="#FFFFFF" points="42.1,79 50,78.3 68.3,72 88,63.3 105.3,55 122.3,46 105.7,36.7 93.3,25.3 
	89.7,12.7 75,16 56,23.7 43.3,33.7 38.3,49.3 37,66.3 "/>
<polygon fill="#005FAB" stroke="#FFFFFF" points="89.5,12.8 93.2,25.4 105.6,36.7 122.3,46 138.7,52.7 153,57.7 169.7,64.3 185,72 
	190.3,51.7 195.7,35 207.7,21 187.7,22 166.3,20.7 148.7,16.7 132.7,12.8 117.7,8.5 102,9.5 "/>

<path fill="none" stroke="rgba(0,0,0,0.5)" stroke-width="4" d="M63,170c20.7,15,75.7,44.7,136,37.5"/>
<path fill="none" stroke="rgba(0,0,0,0.5)" stroke-width="4" d="M112,71c1,16.3,7,30,15.5,41.5"/>
<path fill="none" stroke="rgba(0,0,0,0.5)" stroke-width="4" d="M147,34c21,2,70.3,18.3,92,34.5"/>
<path fill="none" stroke="rgba(0,0,0,0.5)" stroke-width="4" d="M196,151c40,7,113-10.3,124.5-37.5"/>
<path fill="none" stroke="rgba(0,0,0,0.5)" stroke-width="4" d="M71,43.5c19-9.8,38.3-16.2,76-9.5"/>
<path fill="none" stroke="rgba(0,0,0,0.5)" stroke-width="4" d="M112.4,71.1C128,66.3,147.3,54,147,34"/>
<path fill="none" stroke="rgba(0,0,0,0.5)" stroke-width="4" d="M62.7,170.3c3.3-17,22.6-46.7,64.8-57.8"/>
<path fill="none" stroke="rgba(0,0,0,0.5)" stroke-width="4" d="M197,151c-7,21-6.5,45,2,56.5"/>
<path fill="none" stroke="rgba(0,0,0,0.5)" stroke-width="4" d="M127.5,112.5C151.3,112,182.7,130,196,151"/>
<path fill="none" stroke="rgba(0,0,0,0.5)" stroke-width="4" d="M320.5,113.5c-21.2-3-54.7-17.7-81.5-45"/>
<path fill="none" stroke="rgba(0,0,0,0.5)" stroke-width="4" d="M239,68c-10.3,45.3-100,14.7-111.5,44.5"/>
<path fill="none" stroke="rgba(0,0,0,0.5)" stroke-width="4" d="M320.5,113.5c4.5,63.5-83.3,95.7-121.5,94"/>
<path fill="none" stroke="rgba(0,0,0,0.5)" stroke-width="4" d="M112.3,70.8C111,58.3,97,47,71,43.5"/>
<path fill="none" stroke="rgba(0,0,0,0.5)" stroke-width="4" d="M238.9,70.5c8.1,23.2,9.7,68.9-42.9,80.5"/>

<circle fill="#009542" stroke="#FFF" stroke-width="2" cx="127.5" cy="112.5" r="7"/>
<circle fill="#FFDD00" stroke="#FFF" stroke-width="2" cx="196" cy="151" r="7"/>
<circle fill="#C2240C" stroke="#FFF" stroke-width="2" cx="239" cy="68.5" r="7"/>
<circle fill="#005FAB" stroke="#FFF" stroke-width="2" cx="63" cy="170" r="7"/>
<circle fill="#C2240C" stroke="#FFF" stroke-width="2" cx="199" cy="207.5" r="7"/>
<circle fill="#009542" stroke="#FFF" stroke-width="2" cx="320.5" cy="113.5" r="7"/>
<circle fill="#FFDD00" stroke="#FFF" stroke-width="2" cx="112" cy="71" r="7"/>
<circle fill="#005FAB" stroke="#FFF" stroke-width="2" cx="147" cy="34" r="7"/>
<circle fill="#C2240C" stroke="#FFF" stroke-width="2" cx="71" cy="43.5" r="7"/>

</svg>
