<svg id="Layer_1" data-name="Layer 1" xmlns="http://www.w3.org/2000/svg" xmlns:xlink="http://www.w3.org/1999/xlink" viewBox="0 0 360 240"><defs><linearGradient id="linear-gradient" y1="30" x2="120" y2="30" gradientUnits="userSpaceOnUse"><stop offset="0" stop-color="#1f7aff"/><stop offset="1" stop-color="#31b304"/></linearGradient><linearGradient id="linear-gradient-2" x1="90" y1="30" x2="210" y2="30" xlink:href="#linear-gradient"/><linearGradient id="linear-gradient-3" x1="180" y1="30" x2="300" y2="30" xlink:href="#linear-gradient"/><linearGradient id="linear-gradient-4" x1="270" y1="30" x2="390" y2="30" xlink:href="#linear-gradient"/><linearGradient id="linear-gradient-5" x1="-90" y1="30" x2="30" y2="30" xlink:href="#linear-gradient"/><linearGradient id="linear-gradient-6" x1="-432" y1="82" x2="-312" y2="82" gradientTransform="translate(-72 172) rotate(180)" xlink:href="#linear-gradient"/><linearGradient id="linear-gradient-7" x1="-342" y1="82" x2="-222" y2="82" gradientTransform="translate(-72 172) rotate(180)" xlink:href="#linear-gradient"/><linearGradient id="linear-gradient-8" x1="-252" y1="82" x2="-132" y2="82" gradientTransform="translate(-72 172) rotate(180)" xlink:href="#linear-gradient"/><linearGradient id="linear-gradient-9" x1="-162" y1="82" x2="-42" y2="82" gradientTransform="translate(-72 172) rotate(180)" xlink:href="#linear-gradient"/><linearGradient id="linear-gradient-10" x1="-522" y1="82" x2="-402" y2="82" gradientTransform="translate(-72 172) rotate(180)" xlink:href="#linear-gradient"/><linearGradient id="linear-gradient-11" x1="30" y1="150" x2="150" y2="150" xlink:href="#linear-gradient"/><linearGradient id="linear-gradient-12" x1="120" y1="150" x2="240" y2="150" xlink:href="#linear-gradient"/><linearGradient id="linear-gradient-13" x1="210" y1="150" x2="330" y2="150" xlink:href="#linear-gradient"/><linearGradient id="linear-gradient-14" x1="300" y1="150" x2="420" y2="150" xlink:href="#linear-gradient"/><linearGradient id="linear-gradient-15" x1="-60" y1="150" x2="60" y2="150" xlink:href="#linear-gradient"/><linearGradient id="linear-gradient-16" x1="-462" y1="-38" x2="-342" y2="-38" gradientTransform="translate(-72 172) rotate(180)" xlink:href="#linear-gradient"/><linearGradient id="linear-gradient-17" x1="-372" y1="-38" x2="-252" y2="-38" gradientTransform="translate(-72 172) rotate(180)" xlink:href="#linear-gradient"/><linearGradient id="linear-gradient-18" x1="-282" y1="-38" x2="-162" y2="-38" gradientTransform="translate(-72 172) rotate(180)" xlink:href="#linear-gradient"/><linearGradient id="linear-gradient-19" x1="-192" y1="-38" x2="-72" y2="-38" gradientTransform="translate(-72 172) rotate(180)" xlink:href="#linear-gradient"/><linearGradient id="linear-gradient-20" x1="-102" y1="-38" x2="18" y2="-38" gradientTransform="translate(-72 172) rotate(180)" xlink:href="#linear-gradient"/></defs><title>p2</title><polygon points="90 60 0 60 30 0 120 0 90 60" stroke="#fff" stroke-miterlimit="10" fill="url(#linear-gradient)"/><path d="M79,18.3c-2.9-3.9-8.9-5.2-13-2.1-2.1,1.5-3.8,4.2-3.1,6.3,2.6,7,1.2,10.6-2,12.9-5.2,3.8-12.5,4.4-21.5-.4-1.4-.7-2.7-1.2-3.4-.7s-.1,1.8.7,2.9C41.9,44.3,59,50.3,72,40.7,81.1,34,83.7,24.6,79,18.3Z" fill="#fff" opacity="0.5"/><polygon points="180 60 90 60 120 0 210 0 180 60" stroke="#fff" stroke-miterlimit="10" fill="url(#linear-gradient-2)"/><path d="M169,18.3c-2.9-3.9-8.9-5.2-13-2.1-2.1,1.5-3.8,4.2-3.1,6.3,2.6,7,1.2,10.6-2,12.9-5.2,3.8-12.5,4.4-21.5-.4-1.4-.7-2.7-1.2-3.4-.7s-.1,1.8.7,2.9c5.2,7.1,22.3,13.1,35.3,3.5C171.1,34,173.7,24.6,169,18.3Z" fill="#fff" opacity="0.5"/><polygon points="270 60 180 60 210 0 300 0 270 60" stroke="#fff" stroke-miterlimit="10" fill="url(#linear-gradient-3)"/><path d="M259,18.3c-2.9-3.9-8.9-5.2-13-2.1-2.1,1.5-3.8,4.2-3.1,6.3,2.6,7,1.2,10.6-2,12.9-5.2,3.8-12.5,4.4-21.5-.4-1.4-.7-2.7-1.2-3.4-.7s-.1,1.8.7,2.9c5.2,7.1,22.3,13.1,35.3,3.5C261.1,34,263.7,24.6,259,18.3Z" fill="#fff" opacity="0.5"/><polygon points="360 60 270 60 300 0 390 0 360 60" stroke="#fff" stroke-miterlimit="10" fill="url(#linear-gradient-4)"/><path d="M349,18.3c-2.9-3.9-8.9-5.2-13-2.1-2.1,1.5-3.8,4.2-3.1,6.3,2.6,7,1.2,10.6-2,12.9-5.2,3.8-12.5,4.4-21.5-.4-1.4-.7-2.7-1.2-3.4-.7s-.1,1.8.7,2.9c5.2,7.1,22.3,13.1,35.3,3.5C351.1,34,353.7,24.6,349,18.3Z" fill="#fff" opacity="0.5"/><polygon points="0 60 -90 60 -60 0 30 0 0 60" stroke="#fff" stroke-miterlimit="10" fill="url(#linear-gradient-5)"/><polygon points="270 60 360 60 330 120 240 120 270 60" stroke="#fff" stroke-miterlimit="10" fill="url(#linear-gradient-6)"/><path d="M281,101.7c2.9,3.9,8.9,5.2,13,2.1,2.1-1.5,3.8-4.2,3.1-6.3-2.6-7-1.2-10.6,2-12.9,5.2-3.8,12.5-4.4,21.5.4,1.4.7,2.7,1.2,3.4.7s.1-1.8-.7-2.9c-5.2-7.1-22.3-13.1-35.3-3.5C278.9,86,276.3,95.4,281,101.7Z" fill="#fff" opacity="0.5"/><polygon points="180 60 270 60 240 120 150 120 180 60" stroke="#fff" stroke-miterlimit="10" fill="url(#linear-gradient-7)"/><path d="M191,101.7c2.9,3.9,8.9,5.2,13,2.1,2.1-1.5,3.8-4.2,3.1-6.3-2.6-7-1.2-10.6,2-12.9,5.2-3.8,12.5-4.4,21.5.4,1.4.7,2.7,1.2,3.4.7s.1-1.8-.7-2.9c-5.2-7.1-22.3-13.1-35.3-3.5C188.9,86,186.3,95.4,191,101.7Z" fill="#fff" opacity="0.5"/><polygon points="90 60 180 60 150 120 60 120 90 60" stroke="#fff" stroke-miterlimit="10" fill="url(#linear-gradient-8)"/><path d="M101,101.7c2.9,3.9,8.9,5.2,13,2.1,2.1-1.5,3.8-4.2,3.1-6.3-2.6-7-1.2-10.6,2-12.9,5.2-3.8,12.5-4.4,21.5.4,1.4.7,2.7,1.2,3.4.7s.1-1.8-.7-2.9c-5.2-7.1-22.3-13.1-35.3-3.5C98.9,86,96.3,95.4,101,101.7Z" fill="#fff" opacity="0.5"/><polygon points="0 60 90 60 60 120 -30 120 0 60" stroke="#fff" stroke-miterlimit="10" fill="url(#linear-gradient-9)"/><path d="M11,101.7c2.9,3.9,8.9,5.2,13,2.1,2.1-1.5,3.8-4.2,3.1-6.3-2.6-7-1.2-10.6,2-12.9,5.2-3.8,12.5-4.4,21.5.4,1.4.7,2.7,1.2,3.4.7s.1-1.8-.7-2.9C48.1,75.7,31,69.7,18,79.3,8.9,86,6.3,95.4,11,101.7Z" fill="#fff" opacity="0.5"/><polygon points="360 60 450 60 420 120 330 120 360 60" stroke="#fff" stroke-miterlimit="10" fill="url(#linear-gradient-10)"/><polygon points="120 180 30 180 60 120 150 120 120 180" stroke="#fff" stroke-miterlimit="10" fill="url(#linear-gradient-11)"/><path d="M109,138.3c-2.9-3.9-8.9-5.2-13-2.1-2.1,1.5-3.8,4.2-3.1,6.3,2.6,7,1.2,10.6-2,12.9-5.2,3.8-12.5,4.4-21.5-.4-1.4-.7-2.7-1.2-3.4-.7s-.1,1.8.7,2.9c5.2,7.1,22.3,13.1,35.3,3.5C111.1,154,113.7,144.6,109,138.3Z" fill="#fff" opacity="0.5"/><polygon points="210 180 120 180 150 120 240 120 210 180" stroke="#fff" stroke-miterlimit="10" fill="url(#linear-gradient-12)"/><path d="M199,138.3c-2.9-3.9-8.9-5.2-13-2.1-2.1,1.5-3.8,4.2-3.1,6.3,2.6,7,1.2,10.6-2,12.9-5.2,3.8-12.5,4.4-21.5-.4-1.4-.7-2.7-1.2-3.4-.7s-.1,1.8.7,2.9c5.2,7.1,22.3,13.1,35.3,3.5C201.1,154,203.7,144.6,199,138.3Z" fill="#fff" opacity="0.5"/><polygon points="300 180 210 180 240 120 330 120 300 180" stroke="#fff" stroke-miterlimit="10" fill="url(#linear-gradient-13)"/><path d="M289,138.3c-2.9-3.9-8.9-5.2-13-2.1-2.1,1.5-3.8,4.2-3.1,6.3,2.6,7,1.2,10.6-2,12.9-5.2,3.8-12.5,4.4-21.5-.4-1.4-.7-2.7-1.2-3.4-.7s-.1,1.8.7,2.9c5.2,7.1,22.3,13.1,35.3,3.5C291.1,154,293.7,144.6,289,138.3Z" fill="#fff" opacity="0.5"/><polygon points="390 180 300 180 330 120 420 120 390 180" stroke="#fff" stroke-miterlimit="10" fill="url(#linear-gradient-14)"/><path d="M379,138.3c-2.9-3.9-8.9-5.2-13-2.1-2.1,1.5-3.8,4.2-3.1,6.3,2.6,7,1.2,10.6-2,12.9-5.2,3.8-12.5,4.4-21.5-.4-1.4-.7-2.7-1.2-3.4-.7s-.1,1.8.7,2.9c5.2,7.1,22.3,13.1,35.3,3.5C381.1,154,383.7,144.6,379,138.3Z" fill="#fff" opacity="0.5"/><polygon points="30 180 -60 180 -30 120 60 120 30 180" stroke="#fff" stroke-miterlimit="10" fill="url(#linear-gradient-15)"/><path d="M19,138.3c-2.9-3.9-8.9-5.2-13-2.1-2.1,1.5-3.8,4.2-3.1,6.3,2.6,7,1.2,10.6-2,12.9-5.2,3.8-12.5,4.4-21.5-.4-1.4-.7-2.7-1.2-3.4-.7s-.1,1.8.7,2.9c5.2,7.1,22.3,13.1,35.3,3.5C21.1,154,23.7,144.6,19,138.3Z" fill="#fff" opacity="0.5"/><polygon points="300 180 390 180 360 240 270 240 300 180" stroke="#fff" stroke-miterlimit="10" fill="url(#linear-gradient-16)"/><path d="M311,221.7c2.9,3.9,8.9,5.2,13,2.1,2.1-1.5,3.8-4.2,3.1-6.3-2.6-7-1.2-10.6,2-12.9,5.2-3.8,12.5-4.4,21.5.4,1.4.7,2.7,1.2,3.4.7s.1-1.8-.7-2.9c-5.2-7.1-22.3-13.1-35.3-3.5C308.9,206,306.3,215.4,311,221.7Z" fill="#fff" opacity="0.5"/><polygon points="210 180 300 180 270 240 180 240 210 180" stroke="#fff" stroke-miterlimit="10" fill="url(#linear-gradient-17)"/><path d="M221,221.7c2.9,3.9,8.9,5.2,13,2.1,2.1-1.5,3.8-4.2,3.1-6.3-2.6-7-1.2-10.6,2-12.9,5.2-3.8,12.5-4.4,21.5.4,1.4.7,2.7,1.2,3.4.7s.1-1.8-.7-2.9c-5.2-7.1-22.3-13.1-35.3-3.5C218.9,206,216.3,215.4,221,221.7Z" fill="#fff" opacity="0.5"/><polygon points="120 180 210 180 180 240 90 240 120 180" stroke="#fff" stroke-miterlimit="10" fill="url(#linear-gradient-18)"/><path d="M131,221.7c2.9,3.9,8.9,5.2,13,2.1,2.1-1.5,3.8-4.2,3.1-6.3-2.6-7-1.2-10.6,2-12.9,5.2-3.8,12.5-4.4,21.5.4,1.4.7,2.7,1.2,3.4.7s.1-1.8-.7-2.9c-5.2-7.1-22.3-13.1-35.3-3.5C128.9,206,126.3,215.4,131,221.7Z" fill="#fff" opacity="0.5"/><polygon points="30 180 120 180 90 240 0 240 30 180" stroke="#fff" stroke-miterlimit="10" fill="url(#linear-gradient-19)"/><path d="M41,221.7c2.9,3.9,8.9,5.2,13,2.1,2.1-1.5,3.8-4.2,3.1-6.3-2.6-7-1.2-10.6,2-12.9,5.2-3.8,12.5-4.4,21.5.4,1.4.7,2.7,1.2,3.4.7s.1-1.8-.7-2.9c-5.2-7.1-22.3-13.1-35.3-3.5C38.9,206,36.3,215.4,41,221.7Z" fill="#fff" opacity="0.5"/><polygon points="-60 180 30 180 0 240 -90 240 -60 180" stroke="#fff" stroke-miterlimit="10" fill="url(#linear-gradient-20)"/></svg>