<svg id="Layer_1" data-name="Layer 1" xmlns="http://www.w3.org/2000/svg" xmlns:xlink="http://www.w3.org/1999/xlink" viewBox="0 0 360 240"><defs><linearGradient id="linear-gradient" x1="7.5" y1="67.5" x2="82.5" y2="-7.5" gradientUnits="userSpaceOnUse"><stop offset="0" stop-color="#31b304"/><stop offset="1" stop-color="#1f7aff"/></linearGradient><linearGradient id="linear-gradient-2" x1="126.87" y1="-312.5" x2="201.87" y2="-387.5" gradientTransform="translate(-29.4 380)" xlink:href="#linear-gradient"/><linearGradient id="linear-gradient-3" y1="-24.5" x2="82.5" y2="-99.5" gradientTransform="matrix(1, 0, 0, -1, 0, 28)" xlink:href="#linear-gradient"/><linearGradient id="linear-gradient-4" x1="126.87" y1="-220.5" x2="201.87" y2="-295.5" gradientTransform="matrix(1, 0, 0, -1, -29.37, -168)" xlink:href="#linear-gradient"/><linearGradient id="linear-gradient-5" x1="187.5" y1="67.5" x2="262.5" y2="-7.5" xlink:href="#linear-gradient"/><linearGradient id="linear-gradient-6" x1="-53.13" y1="-312.5" x2="21.87" y2="-387.5" gradientTransform="translate(330.6 380)" xlink:href="#linear-gradient"/><linearGradient id="linear-gradient-7" x1="187.5" y1="-24.5" x2="262.5" y2="-99.5" gradientTransform="matrix(1, 0, 0, -1, 0, 28)" xlink:href="#linear-gradient"/><linearGradient id="linear-gradient-8" x1="-53.13" y1="-220.5" x2="21.87" y2="-295.5" gradientTransform="matrix(1, 0, 0, -1, 330.63, -168)" xlink:href="#linear-gradient"/><linearGradient id="linear-gradient-9" y1="187.5" x2="82.5" y2="112.5" xlink:href="#linear-gradient"/><linearGradient id="linear-gradient-10" x1="126.87" y1="-432.5" x2="201.87" y2="-507.5" gradientTransform="translate(-29.4 620)" xlink:href="#linear-gradient"/><linearGradient id="linear-gradient-11" y1="-144.5" x2="82.5" y2="-219.5" gradientTransform="matrix(1, 0, 0, -1, 0, 28)" xlink:href="#linear-gradient"/><linearGradient id="linear-gradient-12" x1="126.87" y1="-100.5" x2="201.87" y2="-175.5" gradientTransform="matrix(1, 0, 0, -1, -29.37, 72)" xlink:href="#linear-gradient"/><linearGradient id="linear-gradient-13" x1="187.5" y1="187.5" x2="262.5" y2="112.5" xlink:href="#linear-gradient"/><linearGradient id="linear-gradient-14" x1="-53.13" y1="-432.5" x2="21.87" y2="-507.5" gradientTransform="translate(330.6 620)" xlink:href="#linear-gradient"/><linearGradient id="linear-gradient-15" x1="187.5" y1="-144.5" x2="262.5" y2="-219.5" gradientTransform="matrix(1, 0, 0, -1, 0, 28)" xlink:href="#linear-gradient"/><linearGradient id="linear-gradient-16" x1="-53.13" y1="-100.5" x2="21.87" y2="-175.5" gradientTransform="matrix(1, 0, 0, -1, 330.63, 72)" xlink:href="#linear-gradient"/></defs><title>pmg</title><rect width="90" height="60" stroke="#fff" stroke-miterlimit="10" fill="url(#linear-gradient)"/><path d="M47,11.3c-4.2-2.4-10.3-1.1-12.8,3.3-1.3,2.2-1.7,5.4-.3,7,5.2,5.4,5.4,9.3,3.4,12.7-3.2,5.6-9.7,9-19.9,8.2-1.6-.1-2.9,0-3.4.8s.7,1.7,1.9,2.4c7.6,4.3,25.7,3,33.7-11C55.3,24.8,53.8,15.2,47,11.3Z" fill="#fff" opacity="0.5"/><rect x="90" width="90" height="60" transform="translate(270 60) rotate(180)" stroke="#fff" stroke-miterlimit="10" fill="url(#linear-gradient-2)"/><path d="M133,48.7c4.2,2.4,10.3,1.1,12.8-3.3,1.3-2.2,1.7-5.4.3-7-5.2-5.4-5.4-9.3-3.4-12.7,3.2-5.6,9.7-9,19.9-8.2,1.6.1,2.9,0,3.4-.8s-.7-1.7-1.9-2.4c-7.6-4.3-25.7-3-33.7,11C124.7,35.2,126.2,44.8,133,48.7Z" fill="#fff" opacity="0.5"/><rect y="60" width="90" height="60" stroke="#fff" stroke-miterlimit="10" fill="url(#linear-gradient-3)"/><path d="M47,108.7c-4.2,2.4-10.3,1.1-12.8-3.3-1.3-2.2-1.7-5.4-.3-7,5.2-5.4,5.4-9.3,3.4-12.7-3.2-5.6-9.7-9-19.9-8.2-1.6.1-2.9,0-3.4-.8s.7-1.7,1.9-2.4c7.6-4.3,25.7-3,33.7,11C55.3,95.2,53.8,104.8,47,108.7Z" fill="#fff" opacity="0.5"/><rect x="90" y="60" width="90" height="60" transform="translate(270 180) rotate(180)" stroke="#fff" stroke-miterlimit="10" fill="url(#linear-gradient-4)"/><path d="M133,71.3c4.2-2.4,10.3-1.1,12.8,3.3,1.3,2.2,1.7,5.4.3,7-5.2,5.4-5.4,9.3-3.4,12.7,3.2,5.6,9.7,9,19.9,8.2,1.6-.1,2.9,0,3.4.8s-.7,1.7-1.9,2.4c-7.6,4.3-25.7,3-33.7-11C124.7,84.8,126.2,75.2,133,71.3Z" fill="#fff" opacity="0.5"/><rect x="180" width="90" height="60" stroke="#fff" stroke-miterlimit="10" fill="url(#linear-gradient-5)"/><path d="M227,11.3c-4.2-2.4-10.3-1.1-12.8,3.3-1.3,2.2-1.7,5.4-.3,7,5.2,5.4,5.4,9.3,3.4,12.7-3.2,5.6-9.7,9-19.9,8.2-1.6-.1-2.9,0-3.4.8s.7,1.7,1.9,2.4c7.6,4.3,25.7,3,33.7-11C235.3,24.8,233.8,15.2,227,11.3Z" fill="#fff" opacity="0.5"/><rect x="270" width="90" height="60" transform="translate(630 60) rotate(180)" stroke="#fff" stroke-miterlimit="10" fill="url(#linear-gradient-6)"/><path d="M313,48.7c4.2,2.4,10.3,1.1,12.8-3.3,1.3-2.2,1.7-5.4.3-7-5.2-5.4-5.4-9.3-3.4-12.7,3.2-5.6,9.7-9,19.9-8.2,1.6.1,2.9,0,3.4-.8s-.7-1.7-1.9-2.4c-7.6-4.3-25.7-3-33.7,11C304.7,35.2,306.2,44.8,313,48.7Z" fill="#fff" opacity="0.5"/><rect x="180" y="60" width="90" height="60" stroke="#fff" stroke-miterlimit="10" fill="url(#linear-gradient-7)"/><path d="M227,108.7c-4.2,2.4-10.3,1.1-12.8-3.3-1.3-2.2-1.7-5.4-.3-7,5.2-5.4,5.4-9.3,3.4-12.7-3.2-5.6-9.7-9-19.9-8.2-1.6.1-2.9,0-3.4-.8s.7-1.7,1.9-2.4c7.6-4.3,25.7-3,33.7,11C235.3,95.2,233.8,104.8,227,108.7Z" fill="#fff" opacity="0.5"/><rect x="270" y="60" width="90" height="60" transform="translate(630 180) rotate(180)" stroke="#fff" stroke-miterlimit="10" fill="url(#linear-gradient-8)"/><path d="M313,71.3c4.2-2.4,10.3-1.1,12.8,3.3,1.3,2.2,1.7,5.4.3,7-5.2,5.4-5.4,9.3-3.4,12.7,3.2,5.6,9.7,9,19.9,8.2,1.6-.1,2.9,0,3.4.8s-.7,1.7-1.9,2.4c-7.6,4.3-25.7,3-33.7-11C304.7,84.8,306.2,75.2,313,71.3Z" fill="#fff" opacity="0.5"/><rect y="120" width="90" height="60" stroke="#fff" stroke-miterlimit="10" fill="url(#linear-gradient-9)"/><path d="M47,131.3c-4.2-2.4-10.3-1.1-12.8,3.3-1.3,2.2-1.7,5.4-.3,7,5.2,5.4,5.4,9.3,3.4,12.7-3.2,5.6-9.7,9-19.9,8.2-1.6-.1-2.9,0-3.4.8s.7,1.7,1.9,2.4c7.6,4.3,25.7,3,33.7-11C55.3,144.8,53.8,135.2,47,131.3Z" fill="#fff" opacity="0.5"/><rect x="90" y="120" width="90" height="60" transform="translate(270 300) rotate(180)" stroke="#fff" stroke-miterlimit="10" fill="url(#linear-gradient-10)"/><path d="M133,168.7c4.2,2.4,10.3,1.1,12.8-3.3,1.3-2.2,1.7-5.4.3-7-5.2-5.4-5.4-9.3-3.4-12.7,3.2-5.6,9.7-9,19.9-8.2,1.6.1,2.9,0,3.4-.8s-.7-1.7-1.9-2.4c-7.6-4.3-25.7-3-33.7,11C124.7,155.2,126.2,164.8,133,168.7Z" fill="#fff" opacity="0.5"/><rect y="180" width="90" height="60" stroke="#fff" stroke-miterlimit="10" fill="url(#linear-gradient-11)"/><path d="M47,228.7c-4.2,2.4-10.3,1.1-12.8-3.3-1.3-2.2-1.7-5.4-.3-7,5.2-5.4,5.4-9.3,3.4-12.7-3.2-5.6-9.7-9-19.9-8.2-1.6.1-2.9,0-3.4-.8s.7-1.7,1.9-2.4c7.6-4.3,25.7-3,33.7,11C55.3,215.2,53.8,224.8,47,228.7Z" fill="#fff" opacity="0.5"/><rect x="90" y="180" width="90" height="60" transform="translate(270 420) rotate(180)" stroke="#fff" stroke-miterlimit="10" fill="url(#linear-gradient-12)"/><path d="M133,191.3c4.2-2.4,10.3-1.1,12.8,3.3,1.3,2.2,1.7,5.4.3,7-5.2,5.4-5.4,9.3-3.4,12.7,3.2,5.6,9.7,9,19.9,8.2,1.6-.1,2.9,0,3.4.8s-.7,1.7-1.9,2.4c-7.6,4.3-25.7,3-33.7-11C124.7,204.8,126.2,195.2,133,191.3Z" fill="#fff" opacity="0.5"/><rect x="180" y="120" width="90" height="60" stroke="#fff" stroke-miterlimit="10" fill="url(#linear-gradient-13)"/><path d="M227,131.3c-4.2-2.4-10.3-1.1-12.8,3.3-1.3,2.2-1.7,5.4-.3,7,5.2,5.4,5.4,9.3,3.4,12.7-3.2,5.6-9.7,9-19.9,8.2-1.6-.1-2.9,0-3.4.8s.7,1.7,1.9,2.4c7.6,4.3,25.7,3,33.7-11C235.3,144.8,233.8,135.2,227,131.3Z" fill="#fff" opacity="0.5"/><rect x="270" y="120" width="90" height="60" transform="translate(630 300) rotate(180)" stroke="#fff" stroke-miterlimit="10" fill="url(#linear-gradient-14)"/><path d="M313,168.7c4.2,2.4,10.3,1.1,12.8-3.3,1.3-2.2,1.7-5.4.3-7-5.2-5.4-5.4-9.3-3.4-12.7,3.2-5.6,9.7-9,19.9-8.2,1.6.1,2.9,0,3.4-.8s-.7-1.7-1.9-2.4c-7.6-4.3-25.7-3-33.7,11C304.7,155.2,306.2,164.8,313,168.7Z" fill="#fff" opacity="0.5"/><rect x="180" y="180" width="90" height="60" stroke="#fff" stroke-miterlimit="10" fill="url(#linear-gradient-15)"/><path d="M227,228.7c-4.2,2.4-10.3,1.1-12.8-3.3-1.3-2.2-1.7-5.4-.3-7,5.2-5.4,5.4-9.3,3.4-12.7-3.2-5.6-9.7-9-19.9-8.2-1.6.1-2.9,0-3.4-.8s.7-1.7,1.9-2.4c7.6-4.3,25.7-3,33.7,11C235.3,215.2,233.8,224.8,227,228.7Z" fill="#fff" opacity="0.5"/><rect x="270" y="180" width="90" height="60" transform="translate(630 420) rotate(180)" stroke="#fff" stroke-miterlimit="10" fill="url(#linear-gradient-16)"/><path d="M313,191.3c4.2-2.4,10.3-1.1,12.8,3.3,1.3,2.2,1.7,5.4.3,7-5.2,5.4-5.4,9.3-3.4,12.7,3.2,5.6,9.7,9,19.9,8.2,1.6-.1,2.9,0,3.4.8s-.7,1.7-1.9,2.4c-7.6,4.3-25.7,3-33.7-11C304.7,204.8,306.2,195.2,313,191.3Z" fill="#fff" opacity="0.5"/></svg>