<svg id="Layer_1" data-name="Layer 1" xmlns="http://www.w3.org/2000/svg" xmlns:xlink="http://www.w3.org/1999/xlink" viewBox="0 0 360 240"><defs><linearGradient id="linear-gradient" y1="100" x2="138.56" y2="100" gradientUnits="userSpaceOnUse"><stop offset="0" stop-color="#31b304"/><stop offset="1" stop-color="#b30469"/></linearGradient><linearGradient id="linear-gradient-2" x1="-480.43" y1="-880.3" x2="-341.87" y2="-880.3" gradientTransform="translate(643.4 -726.2) rotate(-120)" xlink:href="#linear-gradient"/><linearGradient id="linear-gradient-3" x1="619.19" y1="-674.13" x2="757.76" y2="-674.13" gradientTransform="matrix(-0.5, 0.87, -0.87, -0.5, -187.61, -863.3)" xlink:href="#linear-gradient"/><linearGradient id="linear-gradient-4" x1="69.59" y1="220" x2="208.15" y2="220" xlink:href="#linear-gradient"/><linearGradient id="linear-gradient-5" x1="-619.15" y1="-880.04" x2="-480.59" y2="-880.04" gradientTransform="translate(643.4 -726.2) rotate(-120)" xlink:href="#linear-gradient"/><linearGradient id="linear-gradient-6" x1="688.32" y1="-794.39" x2="826.89" y2="-794.39" gradientTransform="matrix(-0.5, 0.87, -0.87, -0.5, -187.61, -863.3)" xlink:href="#linear-gradient"/><linearGradient id="linear-gradient-7" y1="-33.74" x2="138.56" y2="-33.74" gradientTransform="matrix(1, 0, 0, -1, 0, 106.26)" xlink:href="#linear-gradient"/><linearGradient id="linear-gradient-8" x1="-364.61" y1="-813.43" x2="-226.05" y2="-813.43" gradientTransform="matrix(-0.5, 0.87, 0.87, 0.5, 643.39, 832.48)" xlink:href="#linear-gradient"/><linearGradient id="linear-gradient-9" x1="503.37" y1="-607.26" x2="641.94" y2="-607.26" gradientTransform="matrix(-0.5, -0.87, -0.87, 0.5, -187.61, 969.56)" xlink:href="#linear-gradient"/><linearGradient id="linear-gradient-10" x1="69.59" y1="86.26" x2="208.15" y2="86.26" gradientTransform="matrix(1, 0, 0, -1, 0, 106.26)" xlink:href="#linear-gradient"/><linearGradient id="linear-gradient-11" x1="-503.33" y1="-813.17" x2="-364.76" y2="-813.17" gradientTransform="matrix(-0.5, 0.87, 0.87, 0.5, 643.39, 832.48)" xlink:href="#linear-gradient"/><linearGradient id="linear-gradient-12" x1="572.5" y1="-727.52" x2="711.07" y2="-727.52" gradientTransform="matrix(-0.5, -0.87, -0.87, 0.5, -187.61, 969.56)" xlink:href="#linear-gradient"/><linearGradient id="linear-gradient-13" x1="138.87" y1="100" x2="277.43" y2="100" xlink:href="#linear-gradient"/><linearGradient id="linear-gradient-14" x1="-549.87" y1="-760.04" x2="-411.3" y2="-760.04" gradientTransform="translate(643.4 -726.2) rotate(-120)" xlink:href="#linear-gradient"/><linearGradient id="linear-gradient-15" x1="549.76" y1="-794.39" x2="688.32" y2="-794.39" gradientTransform="matrix(-0.5, 0.87, -0.87, -0.5, -187.61, -863.3)" xlink:href="#linear-gradient"/><linearGradient id="linear-gradient-16" x1="208.46" y1="220" x2="347.02" y2="220" xlink:href="#linear-gradient"/><linearGradient id="linear-gradient-17" x1="-688.58" y1="-759.77" x2="-550.02" y2="-759.77" gradientTransform="translate(643.4 -726.2) rotate(-120)" xlink:href="#linear-gradient"/><linearGradient id="linear-gradient-18" x1="618.89" y1="-914.66" x2="757.45" y2="-914.66" gradientTransform="matrix(-0.5, 0.87, -0.87, -0.5, -187.61, -863.3)" xlink:href="#linear-gradient"/><linearGradient id="linear-gradient-19" x1="138.87" y1="-33.74" x2="277.43" y2="-33.74" gradientTransform="matrix(1, 0, 0, -1, 0, 106.26)" xlink:href="#linear-gradient"/><linearGradient id="linear-gradient-20" x1="-434.05" y1="-693.17" x2="-295.48" y2="-693.17" gradientTransform="matrix(-0.5, 0.87, 0.87, 0.5, 643.39, 832.48)" xlink:href="#linear-gradient"/><linearGradient id="linear-gradient-21" x1="433.94" y1="-727.52" x2="572.5" y2="-727.52" gradientTransform="matrix(-0.5, -0.87, -0.87, 0.5, -187.61, 969.56)" xlink:href="#linear-gradient"/><linearGradient id="linear-gradient-22" x1="208.46" y1="86.26" x2="347.02" y2="86.26" gradientTransform="matrix(1, 0, 0, -1, 0, 106.26)" xlink:href="#linear-gradient"/><linearGradient id="linear-gradient-23" x1="-572.76" y1="-692.9" x2="-434.2" y2="-692.9" gradientTransform="matrix(-0.5, 0.87, 0.87, 0.5, 643.39, 832.48)" xlink:href="#linear-gradient"/><linearGradient id="linear-gradient-24" x1="503.07" y1="-847.79" x2="641.63" y2="-847.79" gradientTransform="matrix(-0.5, -0.87, -0.87, 0.5, -187.61, 969.56)" xlink:href="#linear-gradient"/><linearGradient id="linear-gradient-25" x1="277.74" y1="100" x2="416.3" y2="100" xlink:href="#linear-gradient"/><linearGradient id="linear-gradient-26" x1="-619.3" y1="-639.77" x2="-480.74" y2="-639.77" gradientTransform="translate(643.4 -726.2) rotate(-120)" xlink:href="#linear-gradient"/><linearGradient id="linear-gradient-27" x1="480.32" y1="-914.66" x2="618.89" y2="-914.66" gradientTransform="matrix(-0.5, 0.87, -0.87, -0.5, -187.61, -863.3)" xlink:href="#linear-gradient"/><linearGradient id="linear-gradient-28" x1="347.33" y1="220" x2="485.89" y2="220" xlink:href="#linear-gradient"/><linearGradient id="linear-gradient-29" x1="549.45" y1="-1034.92" x2="688.02" y2="-1034.92" gradientTransform="matrix(-0.5, 0.87, -0.87, -0.5, -187.61, -863.3)" xlink:href="#linear-gradient"/><linearGradient id="linear-gradient-30" x1="277.74" y1="-33.74" x2="416.3" y2="-33.74" gradientTransform="matrix(1, 0, 0, -1, 0, 106.26)" xlink:href="#linear-gradient"/><linearGradient id="linear-gradient-31" x1="-503.48" y1="-572.9" x2="-364.92" y2="-572.9" gradientTransform="matrix(-0.5, 0.87, 0.87, 0.5, 643.39, 832.48)" xlink:href="#linear-gradient"/><linearGradient id="linear-gradient-32" x1="364.5" y1="-847.79" x2="503.07" y2="-847.79" gradientTransform="matrix(-0.5, -0.87, -0.87, 0.5, -187.61, 969.56)" xlink:href="#linear-gradient"/><linearGradient id="linear-gradient-33" x1="347.33" y1="86.26" x2="485.89" y2="86.26" gradientTransform="matrix(1, 0, 0, -1, 0, 106.26)" xlink:href="#linear-gradient"/><linearGradient id="linear-gradient-34" x1="433.63" y1="-968.05" x2="572.2" y2="-968.05" gradientTransform="matrix(-0.5, -0.87, -0.87, 0.5, -187.61, 969.56)" xlink:href="#linear-gradient"/><linearGradient id="linear-gradient-35" x1="-69.28" y1="220" x2="69.28" y2="220" xlink:href="#linear-gradient"/><linearGradient id="linear-gradient-36" x1="-549.71" y1="-1000.3" x2="-411.15" y2="-1000.3" gradientTransform="translate(643.4 -726.2) rotate(-120)" xlink:href="#linear-gradient"/><linearGradient id="linear-gradient-37" x1="-69.28" y1="86.26" x2="69.28" y2="86.26" gradientTransform="matrix(1, 0, 0, -1, 0, 106.26)" xlink:href="#linear-gradient"/><linearGradient id="linear-gradient-38" x1="-433.89" y1="-933.43" x2="-295.33" y2="-933.43" gradientTransform="matrix(-0.5, 0.87, 0.87, 0.5, 643.39, 832.48)" xlink:href="#linear-gradient"/></defs><title>p31m</title><polygon points="69.3 80 0 120 138.6 120 69.3 80" stroke="#fff" stroke-miterlimit="10" fill="url(#linear-gradient)"/><path d="M82.7,98.3a6.9,6.9,0,0,0-8.1-4.8c-1.8.5-3.6,1.9-3.7,3.4-.1,5.3-2,7.4-4.7,8.1-4.4,1.2-9.4-.4-14.2-5.9-.7-.8-1.4-1.5-2-1.3s-.6,1.1-.3,2.1c1.6,6,11.4,14.5,22.5,11.5C80,109.3,84.1,103.7,82.7,98.3Z" fill="#fff" opacity="0.5"/><polygon points="69.3 80 138.6 120 69.3 0 69.3 80" stroke="#fff" stroke-miterlimit="10" fill="url(#linear-gradient-2)"/><path d="M78.5,59.2a6.9,6.9,0,0,0-.1,9.5c1.2,1.2,3.3,2.2,4.7,1.5,4.7-2.6,7.4-2,9.3-.1s4.5,8.4,2,15.3c-.3,1-.5,2-.1,2.4s1.3-.1,2-.8c4.4-4.4,6.8-17.1-1.3-25.2C89.3,56.1,82.4,55.3,78.5,59.2Z" fill="#fff" opacity="0.5"/><polygon points="69.3 80 69.3 0 0 120 69.3 80" stroke="#fff" stroke-miterlimit="10" fill="url(#linear-gradient-3)"/><path d="M46.7,82.4a6.8,6.8,0,0,0,8.2-4.6c.5-1.7.2-4-1.1-4.9-4.5-2.7-5.3-5.3-4.6-8,1.2-4.5,5-8,12.2-9.4,1-.2,2-.5,2.1-1.1s-.7-1-1.7-1.3c-6-1.6-18.2,2.6-21.2,13.8C38.6,74.6,41.3,81,46.7,82.4Z" fill="#fff" opacity="0.5"/><polygon points="138.9 200 69.6 240 208.2 240 138.9 200" stroke="#fff" stroke-miterlimit="10" fill="url(#linear-gradient-4)"/><path d="M152.3,218.3a6.9,6.9,0,0,0-8.1-4.8c-1.8.5-3.6,1.9-3.7,3.4-.1,5.3-2,7.4-4.7,8.1-4.4,1.2-9.4-.4-14.2-5.9-.7-.8-1.4-1.5-2-1.3s-.6,1.1-.3,2.1c1.6,6,11.4,14.5,22.5,11.5C149.6,229.3,153.7,223.7,152.3,218.3Z" fill="#fff" opacity="0.5"/><polygon points="138.9 200 208.2 240 138.9 120 138.9 200" stroke="#fff" stroke-miterlimit="10" fill="url(#linear-gradient-5)"/><path d="M148.1,179.2a7,7,0,0,0-.2,9.5c1.3,1.2,3.4,2.2,4.8,1.5,4.7-2.6,7.3-2,9.3-.1s4.5,8.4,2,15.3c-.3,1-.6,2-.1,2.4s1.3-.1,2-.8c4.4-4.4,6.8-17.1-1.3-25.2C158.9,176.1,152,175.3,148.1,179.2Z" fill="#fff" opacity="0.5"/><polygon points="138.9 200 138.9 120 69.6 240 138.9 200" stroke="#fff" stroke-miterlimit="10" fill="url(#linear-gradient-6)"/><path d="M116.3,202.4a6.8,6.8,0,0,0,8.2-4.6c.5-1.7.2-4-1.1-4.9-4.5-2.7-5.4-5.3-4.6-8,1.1-4.5,5-8,12.2-9.4,1-.2,2-.5,2.1-1.1s-.7-1-1.7-1.3c-6-1.6-18.2,2.6-21.2,13.8C108.2,194.6,110.9,201,116.3,202.4Z" fill="#fff" opacity="0.5"/><polygon points="69.3 160 0 120 138.6 120 69.3 160" stroke="#fff" stroke-miterlimit="10" fill="url(#linear-gradient-7)"/><path d="M82.7,141.7a6.9,6.9,0,0,1-8.1,4.8c-1.8-.5-3.6-1.9-3.7-3.4-.1-5.3-2-7.4-4.7-8.1-4.4-1.2-9.4.4-14.2,5.9-.7.8-1.4,1.5-2,1.3s-.6-1.1-.3-2.1c1.6-6,11.4-14.5,22.5-11.5C80,130.7,84.1,136.3,82.7,141.7Z" fill="#fff" opacity="0.5"/><polygon points="69.3 160 138.6 120 69.3 240 69.3 160" stroke="#fff" stroke-miterlimit="10" fill="url(#linear-gradient-8)"/><path d="M78.5,180.8a6.9,6.9,0,0,1-.1-9.5c1.2-1.2,3.3-2.2,4.7-1.5,4.7,2.6,7.4,2,9.3.1s4.5-8.4,2-15.3c-.3-1-.5-2-.1-2.4s1.3.1,2,.8c4.4,4.4,6.8,17.1-1.3,25.2C89.3,183.9,82.4,184.7,78.5,180.8Z" fill="#fff" opacity="0.5"/><polygon points="69.3 160 69.3 240 0 120 69.3 160" stroke="#fff" stroke-miterlimit="10" fill="url(#linear-gradient-9)"/><path d="M46.7,157.6a6.8,6.8,0,0,1,8.2,4.6c.5,1.7.2,4-1.1,4.9-4.5,2.7-5.3,5.3-4.6,8,1.2,4.5,5,8,12.2,9.4,1,.2,2,.5,2.1,1.1s-.7,1-1.7,1.3c-6,1.6-18.2-2.6-21.2-13.8C38.6,165.4,41.3,159,46.7,157.6Z" fill="#fff" opacity="0.5"/><polygon points="138.9 40 69.6 0 208.2 0 138.9 40" stroke="#fff" stroke-miterlimit="10" fill="url(#linear-gradient-10)"/><path d="M152.3,21.7a6.9,6.9,0,0,1-8.1,4.8c-1.8-.5-3.6-1.9-3.7-3.4-.1-5.3-2-7.4-4.7-8.1-4.4-1.2-9.4.4-14.2,5.9-.7.8-1.4,1.5-2,1.3s-.6-1.1-.3-2.1c1.6-6,11.4-14.5,22.5-11.5C149.6,10.7,153.7,16.3,152.3,21.7Z" fill="#fff" opacity="0.5"/><polygon points="138.9 40 208.2 0 138.9 120 138.9 40" stroke="#fff" stroke-miterlimit="10" fill="url(#linear-gradient-11)"/><path d="M148.1,60.8a7,7,0,0,1-.2-9.5c1.3-1.2,3.4-2.2,4.8-1.5,4.7,2.6,7.3,2,9.3.1s4.5-8.4,2-15.3c-.3-1-.6-2-.1-2.4s1.3.1,2,.8c4.4,4.4,6.8,17.1-1.3,25.2C158.9,63.9,152,64.7,148.1,60.8Z" fill="#fff" opacity="0.5"/><polygon points="138.9 40 138.9 120 69.6 0 138.9 40" stroke="#fff" stroke-miterlimit="10" fill="url(#linear-gradient-12)"/><path d="M116.3,37.6a6.8,6.8,0,0,1,8.2,4.6c.5,1.7.2,4-1.1,4.9-4.5,2.7-5.4,5.3-4.6,8,1.1,4.5,5,8,12.2,9.4,1,.2,2,.5,2.1,1.1s-.7,1-1.7,1.3c-6,1.6-18.2-2.6-21.2-13.8C108.2,45.4,110.9,39,116.3,37.6Z" fill="#fff" opacity="0.5"/><polygon points="208.2 80 138.9 120 277.4 120 208.2 80" stroke="#fff" stroke-miterlimit="10" fill="url(#linear-gradient-13)"/><path d="M221.5,98.3a6.9,6.9,0,0,0-8.1-4.8c-1.7.5-3.6,1.9-3.6,3.4-.2,5.3-2,7.4-4.7,8.1-4.4,1.2-9.5-.4-14.2-5.9-.7-.8-1.4-1.5-2-1.3s-.6,1.1-.3,2.1c1.6,6,11.4,14.5,22.5,11.5C218.9,109.3,223,103.7,221.5,98.3Z" fill="#fff" opacity="0.5"/><polygon points="208.2 80 277.4 120 208.2 0 208.2 80" stroke="#fff" stroke-miterlimit="10" fill="url(#linear-gradient-14)"/><path d="M217.3,59.2a7.1,7.1,0,0,0-.1,9.5c1.3,1.2,3.4,2.2,4.8,1.5,4.7-2.6,7.3-2,9.3-.1s4.4,8.4,2,15.3c-.3,1-.6,2-.1,2.4s1.3-.1,2-.8c4.4-4.4,6.8-17.1-1.3-25.2C228.2,56.1,221.3,55.3,217.3,59.2Z" fill="#fff" opacity="0.5"/><polygon points="208.2 80 208.2 0 138.9 120 208.2 80" stroke="#fff" stroke-miterlimit="10" fill="url(#linear-gradient-15)"/><path d="M185.6,82.4a6.8,6.8,0,0,0,8.2-4.6c.5-1.7.2-4-1.1-4.9-4.5-2.7-5.4-5.3-4.7-8,1.2-4.5,5.1-8,12.2-9.4,1.1-.2,2-.5,2.2-1.1s-.7-1-1.7-1.3c-6-1.6-18.2,2.6-21.2,13.8C177.4,74.6,180.2,81,185.6,82.4Z" fill="#fff" opacity="0.5"/><polygon points="277.7 200 208.5 240 347 240 277.7 200" stroke="#fff" stroke-miterlimit="10" fill="url(#linear-gradient-16)"/><path d="M291.1,218.3a6.9,6.9,0,0,0-8.1-4.8c-1.7.5-3.6,1.9-3.7,3.4-.1,5.3-1.9,7.4-4.6,8.1-4.5,1.2-9.5-.4-14.2-5.9-.7-.8-1.4-1.5-2.1-1.3s-.5,1.1-.2,2.1c1.6,6,11.4,14.5,22.5,11.5C288.5,229.3,292.6,223.7,291.1,218.3Z" fill="#fff" opacity="0.5"/><polygon points="277.7 200 347 240 277.7 120 277.7 200" stroke="#fff" stroke-miterlimit="10" fill="url(#linear-gradient-17)"/><path d="M286.9,179.2a7.1,7.1,0,0,0-.1,9.5c1.3,1.2,3.4,2.2,4.8,1.5,4.6-2.6,7.3-2,9.3-.1s4.4,8.4,2,15.3c-.4,1-.6,2-.1,2.4s1.3-.1,2-.8c4.4-4.4,6.8-17.1-1.4-25.2C297.7,176.1,290.9,175.3,286.9,179.2Z" fill="#fff" opacity="0.5"/><polygon points="277.7 200 277.7 120 208.5 240 277.7 200" stroke="#fff" stroke-miterlimit="10" fill="url(#linear-gradient-18)"/><path d="M255.2,202.4a6.9,6.9,0,0,0,8.2-4.6c.4-1.7.2-4-1.1-4.9-4.6-2.7-5.4-5.3-4.7-8,1.2-4.5,5.1-8,12.2-9.4,1.1-.2,2-.5,2.2-1.1s-.7-1-1.7-1.3c-6-1.6-18.2,2.6-21.2,13.8C247,194.6,249.8,201,255.2,202.4Z" fill="#fff" opacity="0.5"/><polygon points="208.2 160 138.9 120 277.4 120 208.2 160" stroke="#fff" stroke-miterlimit="10" fill="url(#linear-gradient-19)"/><path d="M221.5,141.7a6.9,6.9,0,0,1-8.1,4.8c-1.7-.5-3.6-1.9-3.6-3.4-.2-5.3-2-7.4-4.7-8.1-4.4-1.2-9.5.4-14.2,5.9-.7.8-1.4,1.5-2,1.3s-.6-1.1-.3-2.1c1.6-6,11.4-14.5,22.5-11.5C218.9,130.7,223,136.3,221.5,141.7Z" fill="#fff" opacity="0.5"/><polygon points="208.2 160 277.4 120 208.2 240 208.2 160" stroke="#fff" stroke-miterlimit="10" fill="url(#linear-gradient-20)"/><path d="M217.3,180.8a7.1,7.1,0,0,1-.1-9.5c1.3-1.2,3.4-2.2,4.8-1.5,4.7,2.6,7.3,2,9.3.1s4.4-8.4,2-15.3c-.3-1-.6-2-.1-2.4s1.3.1,2,.8c4.4,4.4,6.8,17.1-1.3,25.2C228.2,183.9,221.3,184.7,217.3,180.8Z" fill="#fff" opacity="0.5"/><polygon points="208.2 160 208.2 240 138.9 120 208.2 160" stroke="#fff" stroke-miterlimit="10" fill="url(#linear-gradient-21)"/><path d="M185.6,157.6a6.8,6.8,0,0,1,8.2,4.6c.5,1.7.2,4-1.1,4.9-4.5,2.7-5.4,5.3-4.7,8,1.2,4.5,5.1,8,12.2,9.4,1.1.2,2,.5,2.2,1.1s-.7,1-1.7,1.3c-6,1.6-18.2-2.6-21.2-13.8C177.4,165.4,180.2,159,185.6,157.6Z" fill="#fff" opacity="0.5"/><polygon points="277.7 40 208.5 0 347 0 277.7 40" stroke="#fff" stroke-miterlimit="10" fill="url(#linear-gradient-22)"/><path d="M291.1,21.7a6.9,6.9,0,0,1-8.1,4.8c-1.7-.5-3.6-1.9-3.7-3.4-.1-5.3-1.9-7.4-4.6-8.1-4.5-1.2-9.5.4-14.2,5.9-.7.8-1.4,1.5-2.1,1.3s-.5-1.1-.2-2.1c1.6-6,11.4-14.5,22.5-11.5C288.5,10.7,292.6,16.3,291.1,21.7Z" fill="#fff" opacity="0.5"/><polygon points="277.7 40 347 0 277.7 120 277.7 40" stroke="#fff" stroke-miterlimit="10" fill="url(#linear-gradient-23)"/><path d="M286.9,60.8a7.1,7.1,0,0,1-.1-9.5c1.3-1.2,3.4-2.2,4.8-1.5,4.6,2.6,7.3,2,9.3.1s4.4-8.4,2-15.3c-.4-1-.6-2-.1-2.4s1.3.1,2,.8c4.4,4.4,6.8,17.1-1.4,25.2C297.7,63.9,290.9,64.7,286.9,60.8Z" fill="#fff" opacity="0.5"/><polygon points="277.7 40 277.7 120 208.5 0 277.7 40" stroke="#fff" stroke-miterlimit="10" fill="url(#linear-gradient-24)"/><path d="M255.2,37.6a6.9,6.9,0,0,1,8.2,4.6c.4,1.7.2,4-1.1,4.9-4.6,2.7-5.4,5.3-4.7,8,1.2,4.5,5.1,8,12.2,9.4,1.1.2,2,.5,2.2,1.1s-.7,1-1.7,1.3c-6,1.6-18.2-2.6-21.2-13.8C247,45.4,249.8,39,255.2,37.6Z" fill="#fff" opacity="0.5"/><polygon points="347 80 277.7 120 416.3 120 347 80" stroke="#fff" stroke-miterlimit="10" fill="url(#linear-gradient-25)"/><path d="M360.4,98.3a6.9,6.9,0,0,0-8.1-4.8c-1.7.5-3.6,1.9-3.7,3.4-.1,5.3-1.9,7.4-4.6,8.1-4.5,1.2-9.5-.4-14.2-5.9-.7-.8-1.4-1.5-2.1-1.3s-.5,1.1-.3,2.1c1.7,6,11.4,14.5,22.6,11.5C357.7,109.3,361.9,103.7,360.4,98.3Z" fill="#fff" opacity="0.5"/><polygon points="347 80 416.3 120 347 0 347 80" stroke="#fff" stroke-miterlimit="10" fill="url(#linear-gradient-26)"/><path d="M356.2,59.2a7,7,0,0,0-.1,9.5c1.3,1.2,3.4,2.2,4.8,1.5,4.6-2.6,7.3-2,9.3-.1s4.4,8.4,2,15.3c-.4,1-.6,2-.1,2.4s1.2-.1,1.9-.8c4.4-4.4,6.9-17.1-1.3-25.2C367,56.1,360.2,55.3,356.2,59.2Z" fill="#fff" opacity="0.5"/><polygon points="347 80 347 0 277.7 120 347 80" stroke="#fff" stroke-miterlimit="10" fill="url(#linear-gradient-27)"/><path d="M324.4,82.4a6.9,6.9,0,0,0,8.3-4.6c.4-1.7.2-4-1.1-4.9-4.6-2.7-5.4-5.3-4.7-8,1.2-4.5,5-8,12.2-9.4,1.1-.2,2-.5,2.2-1.1s-.8-1-1.7-1.3c-6.1-1.6-18.2,2.6-21.2,13.8C316.3,74.6,319,81,324.4,82.4Z" fill="#fff" opacity="0.5"/><polygon points="416.6 200 347.3 240 485.9 240 416.6 200" stroke="#fff" stroke-miterlimit="10" fill="url(#linear-gradient-28)"/><polygon points="416.6 200 416.6 120 347.3 240 416.6 200" stroke="#fff" stroke-miterlimit="10" fill="url(#linear-gradient-29)"/><polygon points="347 160 277.7 120 416.3 120 347 160" stroke="#fff" stroke-miterlimit="10" fill="url(#linear-gradient-30)"/><path d="M360.4,141.7a6.9,6.9,0,0,1-8.1,4.8c-1.7-.5-3.6-1.9-3.7-3.4-.1-5.3-1.9-7.4-4.6-8.1-4.5-1.2-9.5.4-14.2,5.9-.7.8-1.4,1.5-2.1,1.3s-.5-1.1-.3-2.1c1.7-6,11.4-14.5,22.6-11.5C357.7,130.7,361.9,136.3,360.4,141.7Z" fill="#fff" opacity="0.5"/><polygon points="347 160 416.3 120 347 240 347 160" stroke="#fff" stroke-miterlimit="10" fill="url(#linear-gradient-31)"/><path d="M356.2,180.8a7,7,0,0,1-.1-9.5c1.3-1.2,3.4-2.2,4.8-1.5,4.6,2.6,7.3,2,9.3.1s4.4-8.4,2-15.3c-.4-1-.6-2-.1-2.4s1.2.1,1.9.8c4.4,4.4,6.9,17.1-1.3,25.2C367,183.9,360.2,184.7,356.2,180.8Z" fill="#fff" opacity="0.5"/><polygon points="347 160 347 240 277.7 120 347 160" stroke="#fff" stroke-miterlimit="10" fill="url(#linear-gradient-32)"/><path d="M324.4,157.6a6.9,6.9,0,0,1,8.3,4.6c.4,1.7.2,4-1.1,4.9-4.6,2.7-5.4,5.3-4.7,8,1.2,4.5,5,8,12.2,9.4,1.1.2,2,.5,2.2,1.1s-.8,1-1.7,1.3c-6.1,1.6-18.2-2.6-21.2-13.8C316.3,165.4,319,159,324.4,157.6Z" fill="#fff" opacity="0.5"/><polygon points="416.6 40 347.3 0 485.9 0 416.6 40" stroke="#fff" stroke-miterlimit="10" fill="url(#linear-gradient-33)"/><polygon points="416.6 40 416.6 120 347.3 0 416.6 40" stroke="#fff" stroke-miterlimit="10" fill="url(#linear-gradient-34)"/><polygon points="0 200 -69.3 240 69.3 240 0 200" stroke="#fff" stroke-miterlimit="10" fill="url(#linear-gradient-35)"/><path d="M13.4,218.3a6.9,6.9,0,0,0-8.1-4.8c-1.8.5-3.6,1.9-3.7,3.4-.1,5.3-1.9,7.4-4.6,8.1-4.5,1.2-9.5-.4-14.2-5.9-.8-.8-1.5-1.5-2.1-1.3s-.5,1.1-.3,2.1c1.6,6,11.4,14.5,22.5,11.5C10.7,229.3,14.8,223.7,13.4,218.3Z" fill="#fff" opacity="0.5"/><polygon points="0 200 69.3 240 0 120 0 200" stroke="#fff" stroke-miterlimit="10" fill="url(#linear-gradient-36)"/><path d="M9.2,179.2a6.9,6.9,0,0,0-.1,9.5c1.3,1.2,3.4,2.2,4.7,1.5,4.7-2.6,7.4-2,9.4-.1s4.4,8.4,1.9,15.3c-.3,1-.5,2-.1,2.4s1.3-.1,2-.8c4.4-4.4,6.9-17.1-1.3-25.2C20,176.1,13.1,175.3,9.2,179.2Z" fill="#fff" opacity="0.5"/><polygon points="0 40 -69.3 0 69.3 0 0 40" stroke="#fff" stroke-miterlimit="10" fill="url(#linear-gradient-37)"/><path d="M13.4,21.7a6.9,6.9,0,0,1-8.1,4.8c-1.8-.5-3.6-1.9-3.7-3.4C1.5,17.8-.3,15.7-3,15c-4.5-1.2-9.5.4-14.2,5.9-.8.8-1.5,1.5-2.1,1.3s-.5-1.1-.3-2.1C-18,14.1-8.2,5.6,2.9,8.6,10.7,10.7,14.8,16.3,13.4,21.7Z" fill="#fff" opacity="0.5"/><polygon points="0 40 69.3 0 0 120 0 40" stroke="#fff" stroke-miterlimit="10" fill="url(#linear-gradient-38)"/><path d="M9.2,60.8a6.9,6.9,0,0,1-.1-9.5c1.3-1.2,3.4-2.2,4.7-1.5,4.7,2.6,7.4,2,9.4.1s4.4-8.4,1.9-15.3c-.3-1-.5-2-.1-2.4s1.3.1,2,.8c4.4,4.4,6.9,17.1-1.3,25.2C20,63.9,13.1,64.7,9.2,60.8Z" fill="#fff" opacity="0.5"/></svg>