<svg id="Layer_1" data-name="Layer 1" xmlns="http://www.w3.org/2000/svg" xmlns:xlink="http://www.w3.org/1999/xlink" viewBox="0 0 360 240"><defs><linearGradient id="linear-gradient" x1="87.34" y1="105" x2="191.26" y2="45" gradientTransform="matrix(-1, 0, 0, 1, 165.28, 0)" gradientUnits="userSpaceOnUse"><stop offset="0" stop-color="#31b304"/><stop offset="0.09" stop-color="#4caf08"/><stop offset="0.34" stop-color="#8ba510"/><stop offset="0.55" stop-color="#bd9e16"/><stop offset="0.75" stop-color="#e1991b"/><stop offset="0.9" stop-color="#f7951e"/><stop offset="1" stop-color="#ff941f"/></linearGradient><linearGradient id="linear-gradient-2" x1="-62.15" y1="95.64" x2="41.78" y2="35.64" gradientTransform="translate(0.2 18.4) rotate(-60)" xlink:href="#linear-gradient"/><linearGradient id="linear-gradient-3" x1="71.55" y1="95.64" x2="175.47" y2="35.64" gradientTransform="matrix(-0.5, 0.87, 0.87, 0.5, 82.85, -124.78)" xlink:href="#linear-gradient"/><linearGradient id="linear-gradient-4" x1="129.9" y1="225" x2="233.83" y2="165" gradientTransform="matrix(1, 0, 0, 1, 0, 0)" xlink:href="#linear-gradient"/><linearGradient id="linear-gradient-5" x1="-120.51" y1="225" x2="-16.58" y2="165" xlink:href="#linear-gradient"/><linearGradient id="linear-gradient-6" x1="-62.15" y1="335.64" x2="41.77" y2="275.64" gradientTransform="translate(0.2 18.4) rotate(-60)" xlink:href="#linear-gradient"/><linearGradient id="linear-gradient-7" x1="71.55" y1="335.64" x2="175.47" y2="275.64" gradientTransform="matrix(-0.5, 0.87, 0.87, 0.5, 82.85, -124.78)" xlink:href="#linear-gradient"/><linearGradient id="linear-gradient-8" x1="130.11" y1="3.84" x2="234.03" y2="-56.16" gradientTransform="translate(16.2 -9.6) rotate(60)" xlink:href="#linear-gradient"/><linearGradient id="linear-gradient-9" x1="-120.71" y1="3.84" x2="-16.79" y2="-56.16" gradientTransform="matrix(-0.5, -0.87, -0.87, 0.5, 98.86, 133.54)" xlink:href="#linear-gradient"/><linearGradient id="linear-gradient-10" x1="87.34" y1="1" x2="191.26" y2="-59" gradientTransform="translate(165.3 136) rotate(180)" xlink:href="#linear-gradient"/><linearGradient id="linear-gradient-11" x1="27.92" y1="43.64" x2="131.84" y2="-16.36" gradientTransform="matrix(0.5, 0.87, 0.87, -0.5, 0.21, 117.64)" xlink:href="#linear-gradient"/><linearGradient id="linear-gradient-12" x1="-18.52" y1="43.64" x2="85.4" y2="-16.36" gradientTransform="matrix(-0.5, -0.87, 0.87, -0.5, 82.85, 260.78)" xlink:href="#linear-gradient"/><linearGradient id="linear-gradient-13" x1="337.75" y1="105" x2="441.67" y2="45" gradientTransform="matrix(1, 0, 0, 1, 0, 0)" xlink:href="#linear-gradient"/><linearGradient id="linear-gradient-14" x1="130.11" y1="-236.16" x2="234.03" y2="-296.16" gradientTransform="translate(16.2 -9.6) rotate(60)" xlink:href="#linear-gradient"/><linearGradient id="linear-gradient-15" x1="-120.71" y1="-236.16" x2="-16.79" y2="-296.16" gradientTransform="matrix(-0.5, -0.87, -0.87, 0.5, 98.86, 133.54)" xlink:href="#linear-gradient"/><linearGradient id="linear-gradient-16" x1="337.75" y1="1" x2="441.67" y2="-59" gradientTransform="matrix(1, 0, 0, -1, 0, 136)" xlink:href="#linear-gradient"/><linearGradient id="linear-gradient-17" x1="40.04" y1="-288.16" x2="143.97" y2="-348.16" gradientTransform="matrix(0.5, -0.87, -0.87, -0.5, 16.22, 145.6)" xlink:href="#linear-gradient"/><linearGradient id="linear-gradient-18" x1="-30.65" y1="-288.16" x2="73.28" y2="-348.16" gradientTransform="translate(98.9 2.5) rotate(120)" xlink:href="#linear-gradient"/><linearGradient id="linear-gradient-19" x1="129.9" y1="121" x2="233.83" y2="61" gradientTransform="matrix(1, 0, 0, -1, 0, 136)" xlink:href="#linear-gradient"/><linearGradient id="linear-gradient-20" x1="-120.51" y1="121" x2="-16.58" y2="61" gradientTransform="translate(165.3 136) rotate(180)" xlink:href="#linear-gradient"/><linearGradient id="linear-gradient-21" x1="27.92" y1="283.64" x2="131.84" y2="223.64" gradientTransform="matrix(0.5, 0.87, 0.87, -0.5, 0.21, 117.64)" xlink:href="#linear-gradient"/><linearGradient id="linear-gradient-22" x1="-18.52" y1="283.64" x2="85.4" y2="223.64" gradientTransform="matrix(-0.5, -0.87, 0.87, -0.5, 82.85, 260.78)" xlink:href="#linear-gradient"/><linearGradient id="linear-gradient-23" x1="40.04" y1="-48.16" x2="143.97" y2="-108.16" gradientTransform="matrix(0.5, -0.87, -0.87, -0.5, 16.22, 145.6)" xlink:href="#linear-gradient"/><linearGradient id="linear-gradient-24" x1="-30.65" y1="-48.16" x2="73.28" y2="-108.16" gradientTransform="translate(98.9 2.5) rotate(120)" xlink:href="#linear-gradient"/></defs><title>p6m</title><polygon points="69.3 120 0 120 0 0 69.3 120" stroke="#fff" stroke-miterlimit="10" fill="url(#linear-gradient)"/><path d="M39.7,102.5c3.6-3.4,4.1-9.8.5-13.5-1.8-1.9-4.8-3.3-6.8-2.4-6.8,3.5-10.7,2.6-13.4-.3-4.6-4.8-6.1-12.2-2.4-22,.5-1.5.9-2.9.3-3.5s-1.9.1-2.9,1.1C8.5,68.1,4.5,86.3,16,98.3,24,106.7,33.9,108.1,39.7,102.5Z" fill="#fff" opacity="0.5"/><polygon points="69.3 120 103.9 60 0 0 69.3 120" stroke="#fff" stroke-miterlimit="10" fill="url(#linear-gradient-2)"/><path d="M68.9,85.7a10,10,0,0,1-12-6.4c-.7-2.5-.4-5.8,1.4-7.1,6.5-4.1,7.6-7.9,6.5-11.8-1.9-6.3-7.6-11.4-17.9-13-1.6-.3-2.9-.6-3.2-1.6s1-1.5,2.4-1.9c8.6-2.5,26.4,3.2,31,19.1C80.4,74.1,76.7,83.4,68.9,85.7Z" fill="#fff" opacity="0.5"/><polygon points="138.6 0 103.9 60 0 0 138.6 0" stroke="#fff" stroke-miterlimit="10" fill="url(#linear-gradient-3)"/><path d="M108.6,16.9A9.7,9.7,0,0,0,97.1,9.7c-2.5.6-5.2,2.5-5.4,4.7-.3,7.7-3.1,10.5-7,11.5-6.4,1.5-13.6-.9-20.2-9-1.1-1.2-2-2.2-2.9-2s-.9,1.7-.5,3.1c2.1,8.7,15.9,21.2,32,17.3C104.4,32.5,110.6,24.7,108.6,16.9Z" fill="#fff" opacity="0.5"/><polygon points="138.6 240 207.8 240 207.8 120 138.6 240" stroke="#fff" stroke-miterlimit="10" fill="url(#linear-gradient-4)"/><path d="M168.1,222.5a9.8,9.8,0,0,1-.4-13.5c1.8-1.9,4.7-3.3,6.8-2.4,6.8,3.5,10.6,2.6,13.4-.3,4.6-4.8,6.1-12.2,2.3-22-.5-1.5-.9-2.9-.2-3.5s1.8.1,2.9,1.1c6.5,6.2,10.4,24.4-1,36.4C183.8,226.7,174,228.1,168.1,222.5Z" fill="#fff" opacity="0.5"/><polygon points="277.1 240 207.8 240 207.8 120 277.1 240" stroke="#fff" stroke-miterlimit="10" fill="url(#linear-gradient-5)"/><path d="M247.6,222.5A9.8,9.8,0,0,0,248,209c-1.8-1.9-4.8-3.3-6.8-2.4-6.8,3.5-10.6,2.6-13.4-.3-4.6-4.8-6.1-12.2-2.3-22,.5-1.5.9-2.9.2-3.5s-1.8.1-2.9,1.1c-6.5,6.2-10.4,24.4,1,36.4C231.9,226.7,241.7,228.1,247.6,222.5Z" fill="#fff" opacity="0.5"/><polygon points="277.1 240 311.8 180 207.8 120 277.1 240" stroke="#fff" stroke-miterlimit="10" fill="url(#linear-gradient-6)"/><path d="M276.8,205.7c-4.8,1.4-10.6-1.4-12-6.4-.7-2.5-.5-5.8,1.4-7.1,6.4-4.1,7.5-7.9,6.4-11.8-1.9-6.3-7.5-11.3-17.9-13-1.6-.3-2.9-.6-3.2-1.6s1.1-1.5,2.4-1.9c8.7-2.5,26.4,3.2,31.1,19.1C288.2,194.1,284.5,203.4,276.8,205.7Z" fill="#fff" opacity="0.5"/><polygon points="346.4 120 311.8 180 207.8 120 346.4 120" stroke="#fff" stroke-miterlimit="10" fill="url(#linear-gradient-7)"/><path d="M316.5,136.9c-1.2-4.9-6.5-8.5-11.5-7.2-2.6.6-5.3,2.5-5.5,4.7-.3,7.7-3,10.5-6.9,11.5-6.5,1.5-13.7-.9-20.3-9-1-1.2-2-2.2-2.9-2s-.8,1.7-.5,3.1c2.2,8.7,15.9,21.2,32.1,17.3C312.3,152.5,318.4,144.7,316.5,136.9Z" fill="#fff" opacity="0.5"/><polygon points="69.3 120 103.9 180 207.8 120 69.3 120" stroke="#fff" stroke-miterlimit="10" fill="url(#linear-gradient-8)"/><path d="M99.2,136.9c1.2-4.9,6.4-8.5,11.5-7.2,2.6.6,5.3,2.5,5.5,4.7.3,7.7,3,10.5,6.9,11.5,6.5,1.5,13.7-.9,20.3-9,1-1.2,2-2.2,2.9-2s.8,1.7.5,3.1c-2.2,8.7-15.9,21.2-32.1,17.3C103.4,152.5,97.3,144.7,99.2,136.9Z" fill="#fff" opacity="0.5"/><polygon points="138.6 240 103.9 180 207.8 120 138.6 240" stroke="#fff" stroke-miterlimit="10" fill="url(#linear-gradient-9)"/><path d="M138.9,205.7a9.9,9.9,0,0,0,12-6.4c.7-2.5.5-5.8-1.4-7.1-6.4-4.1-7.6-7.9-6.4-11.8,1.8-6.3,7.5-11.3,17.9-13,1.5-.3,2.9-.6,3.2-1.6s-1.1-1.5-2.4-1.9c-8.7-2.5-26.4,3.2-31.1,19.1C127.5,194.1,131.2,203.4,138.9,205.7Z" fill="#fff" opacity="0.5"/><polygon points="69.3 120 0 120 0 240 69.3 120" stroke="#fff" stroke-miterlimit="10" fill="url(#linear-gradient-10)"/><path d="M39.7,137.5c3.6,3.4,4.1,9.8.5,13.5-1.8,1.9-4.8,3.3-6.8,2.4-6.8-3.5-10.7-2.6-13.4.3-4.6,4.8-6.1,12.2-2.4,22,.5,1.5.9,2.9.3,3.5s-1.9-.1-2.9-1.1c-6.5-6.2-10.5-24.4,1-36.4C24,133.3,33.9,131.9,39.7,137.5Z" fill="#fff" opacity="0.5"/><polygon points="69.3 120 103.9 180 0 240 69.3 120" stroke="#fff" stroke-miterlimit="10" fill="url(#linear-gradient-11)"/><path d="M68.9,154.3a10,10,0,0,0-12,6.4c-.7,2.5-.4,5.8,1.4,7.1,6.5,4.1,7.6,7.9,6.5,11.8-1.9,6.3-7.6,11.4-17.9,13-1.6.3-2.9.6-3.2,1.6s1,1.5,2.4,1.9c8.6,2.5,26.4-3.2,31-19.1C80.4,165.9,76.7,156.6,68.9,154.3Z" fill="#fff" opacity="0.5"/><polygon points="138.6 240 103.9 180 0 240 138.6 240" stroke="#fff" stroke-miterlimit="10" fill="url(#linear-gradient-12)"/><path d="M108.6,223.1a9.7,9.7,0,0,1-11.5,7.2c-2.5-.6-5.2-2.5-5.4-4.7-.3-7.7-3.1-10.5-7-11.5-6.4-1.5-13.6.9-20.2,9-1.1,1.2-2,2.2-2.9,2s-.9-1.7-.5-3.1c2.1-8.7,15.9-21.2,32-17.3C104.4,207.5,110.6,215.3,108.6,223.1Z" fill="#fff" opacity="0.5"/><polygon points="346.4 120 415.7 120 415.7 0 346.4 120" stroke="#fff" stroke-miterlimit="10" fill="url(#linear-gradient-13)"/><polygon points="277.1 0 311.8 60 415.7 0 277.1 0" stroke="#fff" stroke-miterlimit="10" fill="url(#linear-gradient-14)"/><path d="M307,16.9c1.2-4.9,6.5-8.5,11.6-7.2,2.5.6,5.2,2.5,5.4,4.7.3,7.7,3.1,10.5,7,11.5,6.4,1.5,13.6-.9,20.2-9,1-1.2,2-2.2,2.9-2s.9,1.7.5,3.1c-2.1,8.7-15.9,21.2-32,17.3C311.3,32.5,305.1,24.7,307,16.9Z" fill="#fff" opacity="0.5"/><polygon points="346.4 120 311.8 60 415.7 0 346.4 120" stroke="#fff" stroke-miterlimit="10" fill="url(#linear-gradient-15)"/><path d="M346.8,85.7a10,10,0,0,0,12-6.4c.7-2.5.4-5.8-1.4-7.1-6.5-4.1-7.6-7.9-6.5-11.8,1.9-6.3,7.6-11.4,17.9-13,1.6-.3,2.9-.6,3.2-1.6s-1-1.5-2.4-1.9c-8.6-2.5-26.4,3.2-31,19.1C335.3,74.1,339,83.4,346.8,85.7Z" fill="#fff" opacity="0.5"/><polygon points="346.4 120 415.7 120 415.7 240 346.4 120" stroke="#fff" stroke-miterlimit="10" fill="url(#linear-gradient-16)"/><polygon points="277.1 240 311.8 180 415.7 240 277.1 240" stroke="#fff" stroke-miterlimit="10" fill="url(#linear-gradient-17)"/><path d="M307,223.1c1.2,4.9,6.5,8.5,11.6,7.2,2.5-.6,5.2-2.5,5.4-4.7.3-7.7,3.1-10.5,7-11.5,6.4-1.5,13.6.9,20.2,9,1,1.2,2,2.2,2.9,2s.9-1.7.5-3.1c-2.1-8.7-15.9-21.2-32-17.3C311.3,207.5,305.1,215.3,307,223.1Z" fill="#fff" opacity="0.5"/><polygon points="346.4 120 311.8 180 415.7 240 346.4 120" stroke="#fff" stroke-miterlimit="10" fill="url(#linear-gradient-18)"/><path d="M346.8,154.3a10,10,0,0,1,12,6.4c.7,2.5.4,5.8-1.4,7.1-6.5,4.1-7.6,7.9-6.5,11.8,1.9,6.3,7.6,11.4,17.9,13,1.6.3,2.9.6,3.2,1.6s-1,1.5-2.4,1.9c-8.6,2.5-26.4-3.2-31-19.1C335.3,165.9,339,156.6,346.8,154.3Z" fill="#fff" opacity="0.5"/><polygon points="138.6 0 207.8 0 207.8 120 138.6 0" stroke="#fff" stroke-miterlimit="10" fill="url(#linear-gradient-19)"/><path d="M168.1,17.5a9.8,9.8,0,0,0-.4,13.5c1.8,1.9,4.7,3.3,6.8,2.4,6.8-3.5,10.6-2.6,13.4.3,4.6,4.8,6.1,12.2,2.3,22-.5,1.5-.9,2.9-.2,3.5s1.8-.1,2.9-1.1c6.5-6.2,10.4-24.4-1-36.4C183.8,13.3,174,11.9,168.1,17.5Z" fill="#fff" opacity="0.5"/><polygon points="277.1 0 207.8 0 207.8 120 277.1 0" stroke="#fff" stroke-miterlimit="10" fill="url(#linear-gradient-20)"/><path d="M247.6,17.5A9.8,9.8,0,0,1,248,31c-1.8,1.9-4.8,3.3-6.8,2.4-6.8-3.5-10.6-2.6-13.4.3-4.6,4.8-6.1,12.2-2.3,22,.5,1.5.9,2.9.2,3.5s-1.8-.1-2.9-1.1c-6.5-6.2-10.4-24.4,1-36.4C231.9,13.3,241.7,11.9,247.6,17.5Z" fill="#fff" opacity="0.5"/><polygon points="277.1 0 311.8 60 207.8 120 277.1 0" stroke="#fff" stroke-miterlimit="10" fill="url(#linear-gradient-21)"/><path d="M276.8,34.3c-4.8-1.4-10.6,1.4-12,6.4-.7,2.5-.5,5.8,1.4,7.1,6.4,4.1,7.5,7.9,6.4,11.8-1.9,6.3-7.5,11.4-17.9,13-1.6.3-2.9.6-3.2,1.6s1.1,1.5,2.4,1.9c8.7,2.5,26.4-3.2,31.1-19.1C288.2,45.9,284.5,36.6,276.8,34.3Z" fill="#fff" opacity="0.5"/><polygon points="346.4 120 311.8 60 207.8 120 346.4 120" stroke="#fff" stroke-miterlimit="10" fill="url(#linear-gradient-22)"/><path d="M316.5,103.1c-1.2,4.9-6.5,8.5-11.5,7.2-2.6-.6-5.3-2.5-5.5-4.7-.3-7.7-3-10.5-6.9-11.5-6.5-1.5-13.7.9-20.3,9-1,1.2-2,2.2-2.9,2s-.8-1.7-.5-3.1c2.2-8.7,15.9-21.2,32.1-17.3C312.3,87.5,318.4,95.3,316.5,103.1Z" fill="#fff" opacity="0.5"/><polygon points="69.3 120 103.9 60 207.8 120 69.3 120" stroke="#fff" stroke-miterlimit="10" fill="url(#linear-gradient-23)"/><path d="M99.2,103.1c1.2,4.9,6.4,8.5,11.5,7.2,2.6-.6,5.3-2.5,5.5-4.7.3-7.7,3-10.5,6.9-11.5,6.5-1.5,13.7.9,20.3,9,1,1.2,2,2.2,2.9,2s.8-1.7.5-3.1c-2.2-8.7-15.9-21.2-32.1-17.3C103.4,87.5,97.3,95.3,99.2,103.1Z" fill="#fff" opacity="0.5"/><polygon points="138.6 0 103.9 60 207.8 120 138.6 0" stroke="#fff" stroke-miterlimit="10" fill="url(#linear-gradient-24)"/><path d="M138.9,34.3a9.9,9.9,0,0,1,12,6.4c.7,2.5.5,5.8-1.4,7.1-6.4,4.1-7.6,7.9-6.4,11.8,1.8,6.3,7.5,11.4,17.9,13,1.5.3,2.9.6,3.2,1.6s-1.1,1.5-2.4,1.9c-8.7,2.5-26.4-3.2-31.1-19.1C127.5,45.9,131.2,36.6,138.9,34.3Z" fill="#fff" opacity="0.5"/></svg>