<svg id="Layer_1" data-name="Layer 1" xmlns="http://www.w3.org/2000/svg" viewBox="0 0 360 240"><title>1</title><polygon points="56 108 41 82 71 82 56 108" fill="#e66438"/><polygon points="15 97 30 123 0 123 15 97" fill="#ff941f"/><rect x="20.5" y="87.5" width="30" height="30" transform="translate(-46.5 31.5) rotate(-30)" fill="#1f7aff"/><rect x="-20.5" y="87.5" width="30" height="30" transform="translate(50.5 16.5) rotate(30)" fill="#1f7aff"/><polygon points="41 82 15 97 15 67 41 82" fill="#e66438"/><polygon points="-11 82 15 67 15 97 -11 82" fill="#ff941f"/><polygon points="97 67 82 41 112 41 97 67" fill="#e66438"/><polygon points="56 56 71 82 41 82 56 56" fill="#ff941f"/><rect x="61.5" y="46.5" width="30" height="30" transform="translate(-20.5 46.5) rotate(-30)" fill="#1f7aff"/><polygon points="15 67 0 41 30 41 15 67" fill="#e66438"/><rect x="-20.5" y="46.5" width="30" height="30" transform="translate(-31.5 5.5) rotate(-30)" fill="#1f7aff"/><polygon points="15 149 0 123 30 123 15 149" fill="#e66438"/><rect x="-20.5" y="128.5" width="30" height="30" transform="translate(-72.5 16.5) rotate(-30)" fill="#1f7aff"/><rect x="20.5" y="46.5" width="30" height="30" transform="translate(35.5 -9.5) rotate(30)" fill="#1f7aff"/><polygon points="82 41 56 56 56 26 82 41" fill="#e66438"/><polygon points="30 41 56 26 56 56 30 41" fill="#ff941f"/><polygon points="138 108 123 82 153 82 138 108" fill="#e66438"/><polygon points="97 97 112 123 82 123 97 97" fill="#ff941f"/><rect x="102.5" y="87.5" width="30" height="30" transform="translate(-35.5 72.5) rotate(-30)" fill="#1f7aff"/><rect x="61.5" y="87.5" width="30" height="30" transform="translate(61.5 -24.5) rotate(30)" fill="#1f7aff"/><polygon points="123 82 97 97 97 67 123 82" fill="#e66438"/><polygon points="71 82 97 67 97 97 71 82" fill="#ff941f"/><polygon points="97 149 82 123 112 123 97 149" fill="#e66438"/><polygon points="56 138 71 164 41 164 56 138" fill="#ff941f"/><rect x="61.5" y="128.5" width="30" height="30" transform="translate(-61.5 57.5) rotate(-30)" fill="#1f7aff"/><rect x="20.5" y="128.5" width="30" height="30" transform="translate(76.5 1.5) rotate(30)" fill="#1f7aff"/><polygon points="82 123 56 138 56 108 82 123" fill="#e66438"/><polygon points="30 123 56 108 56 138 30 123" fill="#ff941f"/><polygon points="179 149 164 123 194 123 179 149" fill="#e66438"/><polygon points="138 138 153 164 123 164 138 138" fill="#ff941f"/><rect x="143.5" y="128.5" width="30" height="30" transform="translate(-50.5 98.5) rotate(-30)" fill="#1f7aff"/><rect x="102.5" y="128.5" width="30" height="30" transform="translate(87.5 -39.5) rotate(30)" fill="#1f7aff"/><polygon points="164 123 138 138 138 108 164 123" fill="#e66438"/><polygon points="112 123 138 108 138 138 112 123" fill="#ff941f"/><polygon points="179 67 164 41 194 41 179 67" fill="#e66438"/><polygon points="138 56 153 82 123 82 138 56" fill="#ff941f"/><rect x="143.5" y="46.5" width="30" height="30" transform="translate(-9.5 87.5) rotate(-30)" fill="#1f7aff"/><rect x="102.5" y="46.5" width="30" height="30" transform="translate(46.5 -50.5) rotate(30)" fill="#1f7aff"/><polygon points="164 41 138 56 138 26 164 41" fill="#e66438"/><polygon points="112 41 138 26 138 56 112 41" fill="#ff941f"/><polygon points="138 26 123 0 153 0 138 26" fill="#e66438"/><polygon points="97 15 112 41 82 41 97 15" fill="#ff941f"/><rect x="102.5" y="5.5" width="30" height="30" transform="translate(5.5 61.5) rotate(-30)" fill="#1f7aff"/><rect x="61.5" y="5.5" width="30" height="30" transform="translate(20.5 -35.5) rotate(30)" fill="#1f7aff"/><polygon points="123 0 97 15 97 -15 123 0" fill="#e66438"/><polygon points="71 0 97 -15 97 15 71 0" fill="#ff941f"/><polygon points="220 26 205 0 235 0 220 26" fill="#e66438"/><polygon points="179 15 194 41 164 41 179 15" fill="#ff941f"/><rect x="184.5" y="5.5" width="30" height="30" transform="translate(16.5 102.5) rotate(-30)" fill="#1f7aff"/><rect x="143.5" y="5.5" width="30" height="30" transform="translate(31.5 -76.5) rotate(30)" fill="#1f7aff"/><polygon points="205 0 179 15 179 -15 205 0" fill="#e66438"/><polygon points="153 0 179 -15 179 15 153 0" fill="#ff941f"/><polygon points="56 26 41 0 71 0 56 26" fill="#e66438"/><polygon points="15 15 30 41 0 41 15 15" fill="#ff941f"/><rect x="20.5" y="5.5" width="30" height="30" transform="translate(-5.5 20.5) rotate(-30)" fill="#1f7aff"/><rect x="-20.5" y="5.5" width="30" height="30" transform="translate(9.5 5.5) rotate(30)" fill="#1f7aff"/><polygon points="41 0 15 15 15 -15 41 0" fill="#e66438"/><polygon points="-11 0 15 -15 15 15 -11 0" fill="#ff941f"/><polygon points="302 26 287 0 317 0 302 26" fill="#e66438"/><polygon points="261 15 276 41 246 41 261 15" fill="#ff941f"/><rect x="266.5" y="5.5" width="30" height="30" transform="translate(27.5 143.5) rotate(-30)" fill="#1f7aff"/><rect x="225.5" y="5.5" width="30" height="30" transform="translate(42.5 -117.5) rotate(30)" fill="#1f7aff"/><polygon points="287 0 261 15 261 -15 287 0" fill="#e66438"/><polygon points="235 0 261 -15 261 15 235 0" fill="#ff941f"/><polygon points="343 15 358 41 328 41 343 15" fill="#ff941f"/><rect x="348.5" y="5.5" width="30" height="30" transform="translate(38.4 184.5) rotate(-30)" fill="#1f7aff"/><rect x="307.5" y="5.5" width="30" height="30" transform="translate(53.5 -158.5) rotate(30)" fill="#1f7aff"/><polygon points="369 0 343 15 343 -15 369 0" fill="#e66438"/><polygon points="317 0 343 -15 343 15 317 0" fill="#ff941f"/><polygon points="261 67 246 41 276 41 261 67" fill="#e66438"/><polygon points="220 56 235 82 205 82 220 56" fill="#ff941f"/><rect x="225.5" y="46.5" width="30" height="30" transform="translate(1.5 128.5) rotate(-30)" fill="#1f7aff"/><rect x="184.5" y="46.5" width="30" height="30" transform="translate(57.5 -91.5) rotate(30)" fill="#1f7aff"/><polygon points="246 41 220 56 220 26 246 41" fill="#e66438"/><polygon points="194 41 220 26 220 56 194 41" fill="#ff941f"/><polygon points="343 67 328 41 358 41 343 67" fill="#e66438"/><polygon points="302 56 317 82 287 82 302 56" fill="#ff941f"/><rect x="307.5" y="46.5" width="30" height="30" transform="translate(12.5 169.5) rotate(-30)" fill="#1f7aff"/><rect x="266.5" y="46.5" width="30" height="30" transform="translate(68.5 -132.5) rotate(30)" fill="#1f7aff"/><polygon points="328 41 302 56 302 26 328 41" fill="#e66438"/><polygon points="276 41 302 26 302 56 276 41" fill="#ff941f"/><polygon points="261 149 246 123 276 123 261 149" fill="#e66438"/><polygon points="220 138 235 164 205 164 220 138" fill="#ff941f"/><rect x="225.5" y="128.5" width="30" height="30" transform="translate(-39.5 139.5) rotate(-30)" fill="#1f7aff"/><rect x="184.5" y="128.5" width="30" height="30" transform="translate(98.5 -80.5) rotate(30)" fill="#1f7aff"/><polygon points="246 123 220 138 220 108 246 123" fill="#e66438"/><polygon points="194 123 220 108 220 138 194 123" fill="#ff941f"/><polygon points="302 108 287 82 317 82 302 108" fill="#e66438"/><polygon points="261 97 276 123 246 123 261 97" fill="#ff941f"/><rect x="266.5" y="87.5" width="30" height="30" transform="translate(-13.5 154.5) rotate(-30)" fill="#1f7aff"/><rect x="225.5" y="87.5" width="30" height="30" transform="translate(83.5 -106.5) rotate(30)" fill="#1f7aff"/><polygon points="287 82 261 97 261 67 287 82" fill="#e66438"/><rect x="348.5" y="46.5" width="30" height="30" transform="translate(79.5 -173.5) rotate(30)" fill="#1f7aff"/><polygon points="358 41 384 26 384 56 358 41" fill="#ff941f"/><rect x="348.5" y="128.5" width="30" height="30" transform="translate(120.5 -162.5) rotate(30)" fill="#1f7aff"/><polygon points="358 123 384 108 384 138 358 123" fill="#ff941f"/><rect x="348.5" y="87.5" width="30" height="30" transform="translate(-2.6 195.5) rotate(-30)" fill="#1f7aff"/><polygon points="369 82 343 97 343 67 369 82" fill="#e66438"/><polygon points="235 82 261 67 261 97 235 82" fill="#ff941f"/><polygon points="343 149 328 123 358 123 343 149" fill="#e66438"/><polygon points="302 138 317 164 287 164 302 138" fill="#ff941f"/><rect x="307.5" y="128.5" width="30" height="30" transform="translate(-28.5 180.5) rotate(-30)" fill="#1f7aff"/><rect x="266.5" y="128.5" width="30" height="30" transform="translate(109.5 -121.5) rotate(30)" fill="#1f7aff"/><polygon points="328 123 302 138 302 108 328 123" fill="#e66438"/><polygon points="276 123 302 108 302 138 276 123" fill="#ff941f"/><polygon points="343 97 358 123 328 123 343 97" fill="#ff941f"/><rect x="307.5" y="87.5" width="30" height="30" transform="translate(94.5 -147.5) rotate(30)" fill="#1f7aff"/><polygon points="317 82 343 67 343 97 317 82" fill="#ff941f"/><polygon points="220 108 205 82 235 82 220 108" fill="#e66438"/><polygon points="179 97 194 123 164 123 179 97" fill="#ff941f"/><rect x="184.5" y="87.5" width="30" height="30" transform="translate(-24.5 113.5) rotate(-30)" fill="#1f7aff"/><rect x="143.5" y="87.5" width="30" height="30" transform="translate(72.5 -65.5) rotate(30)" fill="#1f7aff"/><polygon points="205 82 179 97 179 67 205 82" fill="#e66438"/><polygon points="153 82 179 67 179 97 153 82" fill="#ff941f"/><polygon points="56 190 41 164 71 164 56 190" fill="#e66438"/><polygon points="15 179 30 205 0 205 15 179" fill="#ff941f"/><rect x="20.5" y="169.5" width="30" height="30" transform="translate(-87.5 42.5) rotate(-30)" fill="#1f7aff"/><rect x="-20.5" y="169.5" width="30" height="30" transform="translate(91.5 27.5) rotate(30)" fill="#1f7aff"/><polygon points="41 164 15 179 15 149 41 164" fill="#e66438"/><polygon points="-11 164 15 149 15 179 -11 164" fill="#ff941f"/><polygon points="15 231 0 205 30 205 15 231" fill="#e66438"/><rect x="-20.5" y="210.5" width="30" height="30" transform="translate(-113.5 27.5) rotate(-30)" fill="#1f7aff"/><polygon points="138 190 123 164 153 164 138 190" fill="#e66438"/><polygon points="97 179 112 205 82 205 97 179" fill="#ff941f"/><rect x="102.5" y="169.5" width="30" height="30" transform="translate(-76.5 83.5) rotate(-30)" fill="#1f7aff"/><rect x="61.5" y="169.5" width="30" height="30" transform="translate(102.5 -13.5) rotate(30)" fill="#1f7aff"/><polygon points="123 164 97 179 97 149 123 164" fill="#e66438"/><polygon points="71 164 97 149 97 179 71 164" fill="#ff941f"/><polygon points="97 231 82 205 112 205 97 231" fill="#e66438"/><polygon points="56 220 71 246 41 246 56 220" fill="#ff941f"/><rect x="61.5" y="210.5" width="30" height="30" transform="translate(-102.5 68.5) rotate(-30)" fill="#1f7aff"/><rect x="20.5" y="210.5" width="30" height="30" transform="translate(117.5 12.5) rotate(30)" fill="#1f7aff"/><polygon points="82 205 56 220 56 190 82 205" fill="#e66438"/><polygon points="30 205 56 190 56 220 30 205" fill="#ff941f"/><polygon points="179 231 164 205 194 205 179 231" fill="#e66438"/><polygon points="138 220 153 246 123 246 138 220" fill="#ff941f"/><rect x="143.5" y="210.5" width="30" height="30" transform="translate(-91.5 109.5) rotate(-30)" fill="#1f7aff"/><rect x="102.5" y="210.5" width="30" height="30" transform="translate(128.5 -28.5) rotate(30)" fill="#1f7aff"/><polygon points="164 205 138 220 138 190 164 205" fill="#e66438"/><polygon points="112 205 138 190 138 220 112 205" fill="#ff941f"/><polygon points="261 231 246 205 276 205 261 231" fill="#e66438"/><polygon points="220 220 235 246 205 246 220 220" fill="#ff941f"/><rect x="225.5" y="210.5" width="30" height="30" transform="translate(-80.5 150.5) rotate(-30)" fill="#1f7aff"/><rect x="184.5" y="210.5" width="30" height="30" transform="translate(139.5 -69.5) rotate(30)" fill="#1f7aff"/><polygon points="246 205 220 220 220 190 246 205" fill="#e66438"/><polygon points="194 205 220 190 220 220 194 205" fill="#ff941f"/><polygon points="302 190 287 164 317 164 302 190" fill="#e66438"/><polygon points="261 179 276 205 246 205 261 179" fill="#ff941f"/><rect x="266.5" y="169.5" width="30" height="30" transform="translate(-54.5 165.5) rotate(-30)" fill="#1f7aff"/><rect x="225.5" y="169.5" width="30" height="30" transform="translate(124.5 -95.5) rotate(30)" fill="#1f7aff"/><polygon points="287 164 261 179 261 149 287 164" fill="#e66438"/><rect x="348.5" y="210.5" width="30" height="30" transform="translate(161.5 -151.5) rotate(30)" fill="#1f7aff"/><polygon points="358 205 384 190 384 220 358 205" fill="#ff941f"/><rect x="348.5" y="169.5" width="30" height="30" transform="translate(-43.6 206.5) rotate(-30)" fill="#1f7aff"/><polygon points="369 164 343 179 343 149 369 164" fill="#e66438"/><polygon points="235 164 261 149 261 179 235 164" fill="#ff941f"/><polygon points="343 231 328 205 358 205 343 231" fill="#e66438"/><polygon points="302 220 317 246 287 246 302 220" fill="#ff941f"/><rect x="307.5" y="210.5" width="30" height="30" transform="translate(-69.5 191.5) rotate(-30)" fill="#1f7aff"/><rect x="266.5" y="210.5" width="30" height="30" transform="translate(150.5 -110.5) rotate(30)" fill="#1f7aff"/><polygon points="328 205 302 220 302 190 328 205" fill="#e66438"/><polygon points="276 205 302 190 302 220 276 205" fill="#ff941f"/><polygon points="343 179 358 205 328 205 343 179" fill="#ff941f"/><rect x="307.5" y="169.5" width="30" height="30" transform="translate(135.5 -136.5) rotate(30)" fill="#1f7aff"/><polygon points="317 164 343 149 343 179 317 164" fill="#ff941f"/><polygon points="220 190 205 164 235 164 220 190" fill="#e66438"/><polygon points="179 179 194 205 164 205 179 179" fill="#ff941f"/><rect x="184.5" y="169.5" width="30" height="30" transform="translate(-65.5 124.5) rotate(-30)" fill="#1f7aff"/><rect x="143.5" y="169.5" width="30" height="30" transform="translate(113.5 -54.5) rotate(30)" fill="#1f7aff"/><polygon points="205 164 179 179 179 149 205 164" fill="#e66438"/><polygon points="153 164 179 149 179 179 153 164" fill="#ff941f"/><polygon points="41 246 15 261 15 231 41 246" fill="#e66438"/><polygon points="-11 246 15 231 15 261 -11 246" fill="#ff941f"/><polygon points="123 246 97 261 97 231 123 246" fill="#e66438"/><polygon points="71 246 97 231 97 261 71 246" fill="#ff941f"/><polygon points="287 246 261 261 261 231 287 246" fill="#e66438"/><polygon points="369 246 343 261 343 231 369 246" fill="#e66438"/><polygon points="235 246 261 231 261 261 235 246" fill="#ff941f"/><polygon points="317 246 343 231 343 261 317 246" fill="#ff941f"/><polygon points="205 246 179 261 179 231 205 246" fill="#e66438"/><polygon points="153 246 179 231 179 261 153 246" fill="#ff941f"/></svg>