<svg id="Layer_1" data-name="Layer 1" xmlns="http://www.w3.org/2000/svg" viewBox="0 0 140 140"><title>triangles-4</title><rect x="19.9" y="20.2" width="99.7" height="99.67" transform="translate(-21.4 108.1) rotate(-67.8)" fill="#b30469"/><g opacity="0.8"><path d="M87.2,64.6h2.2v-7H87.6v-.8a8.6,8.6,0,0,0,2.1-.7h.9v8.5h2v1H87.2Z" fill="#fff"/><path d="M94.1,63.2a3,3,0,0,1,1.8-2.6h0a2.8,2.8,0,0,1-1.4-2.3,2.5,2.5,0,0,1,2.7-2.4,2.5,2.5,0,0,1,2.7,2.5,3,3,0,0,1-1.3,2.3h0a2.8,2.8,0,0,1,1.7,2.5c0,1.4-1.3,2.5-3.1,2.5S94.1,64.7,94.1,63.2Zm5,0c0-1.2-1.2-1.7-2.6-2.2a2.4,2.4,0,0,0-1.3,2.1,1.9,1.9,0,0,0,2,1.8A1.7,1.7,0,0,0,99.1,63.2Zm-.2-4.7a1.6,1.6,0,0,0-1.7-1.7,1.4,1.4,0,0,0-1.5,1.5c0,1.2,1,1.7,2.2,2.1A2.8,2.8,0,0,0,98.9,58.5Z" fill="#fff"/><path d="M101.6,60.8c0-3.2,1.1-4.9,3-4.9s3.1,1.7,3.1,4.9-1.2,5-3.1,5S101.6,64,101.6,60.8Zm4.9,0c0-2.8-.8-3.9-1.9-3.9s-1.8,1.1-1.8,3.9.7,4,1.8,4S106.5,63.6,106.5,60.8Z" fill="#fff"/></g><g opacity="0.8"><path d="M32.8,82.9H35V75.8H33.2V75a4.7,4.7,0,0,0,2-.7h1v8.6h2v1H32.8Z" fill="#fff"/><path d="M39.6,81.4a3,3,0,0,1,1.9-2.5h0a2.6,2.6,0,0,1-1.4-2.2,2.5,2.5,0,0,1,2.7-2.5,2.5,2.5,0,0,1,2.7,2.6A3.2,3.2,0,0,1,44.2,79h0a2.8,2.8,0,0,1,1.7,2.5,2.9,2.9,0,0,1-3.1,2.6C41,84.1,39.6,83,39.6,81.4Zm5.1.1c0-1.3-1.2-1.7-2.6-2.3a2.4,2.4,0,0,0-1.3,2.1,1.8,1.8,0,0,0,2,1.8C43.9,83.1,44.7,82.5,44.7,81.5Zm-.2-4.8A1.6,1.6,0,0,0,42.8,75a1.6,1.6,0,0,0-1.6,1.6c0,1.1,1.1,1.6,2.3,2.1A3,3,0,0,0,44.5,76.7Z" fill="#fff"/><path d="M47.2,79.1c0-3.2,1.1-5,3-5s3.1,1.8,3.1,5-1.2,5-3.1,5S47.2,82.3,47.2,79.1Zm4.9,0c0-2.8-.8-4-1.9-4s-1.8,1.2-1.8,4,.7,4,1.8,4S52.1,81.9,52.1,79.1Z" fill="#fff"/></g><g opacity="0.7"><line x1="42.4" y1="5" x2="97" y2="135" fill="none" stroke="#fff" stroke-miterlimit="10" stroke-width="3"/></g></svg>