<svg id="Layer_1" data-name="Layer 1" xmlns="http://www.w3.org/2000/svg" viewBox="0 0 140 140"><title>triangles-3</title><polygon points="119.8 27.3 136.3 83.4 102.7 131.3 44.3 134.8 5.1 91.4 14.6 33.7 65.7 5.2 119.8 27.3" fill="#ff941f"/><g opacity="0.7"><line x1="5.1" y1="91.4" x2="65.7" y2="5.2" fill="none" stroke="#fff" stroke-miterlimit="10" stroke-width="3"/><line x1="44.3" y1="134.8" x2="65.7" y2="5.2" fill="none" stroke="#fff" stroke-miterlimit="10" stroke-width="3"/><line x1="119.8" y1="27.3" x2="44.3" y2="134.8" fill="none" stroke="#fff" stroke-miterlimit="10" stroke-width="3"/><line x1="102.7" y1="131.3" x2="119.8" y2="27.3" fill="none" stroke="#fff" stroke-miterlimit="10" stroke-width="3"/></g><g opacity="0.8"><path d="M22.6,88.3h2.2V81.2H23v-.8a5.8,5.8,0,0,0,2.1-.7H26v8.6h2v1H22.6Z" fill="#fff"/><path d="M29.5,86.8a2.9,2.9,0,0,1,1.8-2.5h0A2.8,2.8,0,0,1,29.9,82a2.5,2.5,0,0,1,2.7-2.5,2.5,2.5,0,0,1,2.7,2.6A3.2,3.2,0,0,1,34,84.4h0a2.9,2.9,0,0,1,1.7,2.5c0,1.4-1.2,2.6-3.1,2.6A2.8,2.8,0,0,1,29.5,86.8Zm5,.1c0-1.3-1.2-1.7-2.6-2.3a2.4,2.4,0,0,0-1.3,2.1,1.8,1.8,0,0,0,2,1.8C33.7,88.5,34.5,87.9,34.5,86.9Zm-.2-4.8a1.6,1.6,0,0,0-1.7-1.7A1.5,1.5,0,0,0,31.1,82c0,1.1,1,1.6,2.2,2.1A3,3,0,0,0,34.3,82.1Z" fill="#fff"/><path d="M37,84.5c0-3.2,1.1-5,3-5s3.1,1.8,3.1,5-1.2,5-3.1,5S37,87.7,37,84.5Zm4.9,0c0-2.8-.8-4-1.9-4s-1.8,1.2-1.8,4,.7,4,1.8,4S41.9,87.3,41.9,84.5Z" fill="#fff"/></g><g opacity="0.8"><path d="M15.9,43.3h2.2V36.2H16.3v-.8a4.4,4.4,0,0,0,2.1-.7h.9v8.6h2v1H15.9Z" fill="#fff"/><path d="M22.8,41.9a3,3,0,0,1,1.8-2.6h0A2.8,2.8,0,0,1,23.2,37a2.5,2.5,0,0,1,2.7-2.4,2.4,2.4,0,0,1,2.7,2.5,3,3,0,0,1-1.3,2.3h0A2.7,2.7,0,0,1,29,41.9c0,1.5-1.2,2.6-3.1,2.6S22.8,43.4,22.8,41.9Zm5,0c0-1.2-1.2-1.7-2.6-2.2a2.4,2.4,0,0,0-1.3,2,1.9,1.9,0,0,0,2,1.9A1.7,1.7,0,0,0,27.8,41.9Zm-.2-4.7a1.6,1.6,0,0,0-1.7-1.7A1.4,1.4,0,0,0,24.4,37c0,1.2,1,1.6,2.2,2.1A2.8,2.8,0,0,0,27.6,37.2Z" fill="#fff"/><path d="M30.3,39.5c0-3.2,1.1-4.9,3-4.9s3.1,1.7,3.1,4.9-1.2,5-3.1,5S30.3,42.7,30.3,39.5Zm4.9,0c0-2.8-.8-3.9-1.9-3.9s-1.8,1.1-1.8,3.9.7,4,1.8,4S35.2,42.3,35.2,39.5Z" fill="#fff"/></g><g opacity="0.8"><path d="M70.8,52.2H73V45.1H71.2v-.8a4.4,4.4,0,0,0,2.1-.7h.9v8.6h2v1H70.8Z" fill="#fff"/><path d="M77.7,50.8a3,3,0,0,1,1.8-2.6h0a2.8,2.8,0,0,1-1.4-2.2,2.5,2.5,0,0,1,2.7-2.4A2.4,2.4,0,0,1,83.5,46a3,3,0,0,1-1.3,2.3h0a2.7,2.7,0,0,1,1.7,2.4c0,1.5-1.2,2.6-3.1,2.6S77.7,52.3,77.7,50.8Zm5,0c0-1.2-1.2-1.7-2.6-2.2a2.4,2.4,0,0,0-1.3,2,1.9,1.9,0,0,0,2,1.9A1.7,1.7,0,0,0,82.7,50.8Zm-.2-4.7a1.6,1.6,0,0,0-1.7-1.7,1.4,1.4,0,0,0-1.5,1.5c0,1.2,1,1.6,2.2,2.1A2.8,2.8,0,0,0,82.5,46.1Z" fill="#fff"/><path d="M85.2,48.4c0-3.2,1.1-4.9,3-4.9s3.1,1.7,3.1,4.9-1.2,5-3.1,5S85.2,51.6,85.2,48.4Zm4.9,0c0-2.8-.8-3.9-1.9-3.9s-1.8,1.1-1.8,3.9.7,4,1.8,4S90.1,51.2,90.1,48.4Z" fill="#fff"/></g><g opacity="0.8"><path d="M76.7,109.9h2.2v-7.1H77.1V102a4.4,4.4,0,0,0,2.1-.7h.9v8.6h2v1H76.7Z" fill="#fff"/><path d="M83.6,108.5a3,3,0,0,1,1.8-2.6h0a2.8,2.8,0,0,1-1.4-2.2,2.5,2.5,0,0,1,2.7-2.4,2.4,2.4,0,0,1,2.7,2.5,3,3,0,0,1-1.3,2.3h0a2.7,2.7,0,0,1,1.7,2.4c0,1.5-1.2,2.6-3.1,2.6S83.6,110,83.6,108.5Zm5,0c0-1.2-1.2-1.7-2.6-2.2a2.4,2.4,0,0,0-1.3,2,1.9,1.9,0,0,0,2,1.9A1.7,1.7,0,0,0,88.6,108.5Zm-.2-4.7a1.6,1.6,0,0,0-1.7-1.7,1.4,1.4,0,0,0-1.5,1.5c0,1.2,1,1.6,2.2,2.1A2.8,2.8,0,0,0,88.4,103.8Z" fill="#fff"/><path d="M91.1,106.1c0-3.2,1.1-4.9,3-4.9s3.1,1.7,3.1,4.9-1.2,5-3.1,5S91.1,109.3,91.1,106.1Zm4.9,0c0-2.8-.8-3.9-1.9-3.9s-1.8,1.1-1.8,3.9.7,4,1.8,4S96,108.9,96,106.1Z" fill="#fff"/></g><g opacity="0.8"><path d="M113.5,85.6h2.2V78.5h-1.8v-.8A4.4,4.4,0,0,0,116,77h.9v8.6h2v1h-5.4Z" fill="#fff"/><path d="M120.4,84.2a3,3,0,0,1,1.8-2.6h0a2.8,2.8,0,0,1-1.4-2.2,2.5,2.5,0,0,1,2.7-2.4,2.4,2.4,0,0,1,2.7,2.5,3,3,0,0,1-1.3,2.3h0a2.7,2.7,0,0,1,1.7,2.4c0,1.5-1.2,2.6-3.1,2.6S120.4,85.7,120.4,84.2Zm5,0c0-1.2-1.2-1.7-2.6-2.2a2.4,2.4,0,0,0-1.3,2,1.9,1.9,0,0,0,2,1.9A1.7,1.7,0,0,0,125.4,84.2Zm-.2-4.7a1.6,1.6,0,0,0-1.7-1.7,1.4,1.4,0,0,0-1.5,1.5c0,1.2,1,1.6,2.2,2.1A2.8,2.8,0,0,0,125.2,79.5Z" fill="#fff"/><path d="M127.9,81.8c0-3.2,1.1-4.9,3-4.9s3.1,1.7,3.1,4.9-1.2,5-3.1,5S127.9,85,127.9,81.8Zm4.9,0c0-2.8-.8-3.9-1.9-3.9s-1.8,1.1-1.8,3.9.7,4,1.8,4S132.8,84.6,132.8,81.8Z" fill="#fff"/></g></svg>