<svg id="Layer_1" data-name="Layer 1" xmlns="http://www.w3.org/2000/svg" viewBox="0 0 140 140"><title>triangles-1</title><polygon points="126 21 134.6 102.5 59.7 136 4.8 75.1 45.7 4 126 21" fill="#1f7aff"/><g opacity="0.7"><line x1="45.7" y1="4" x2="59.7" y2="136" fill="none" stroke="#fff" stroke-miterlimit="10" stroke-width="3"/><line x1="134.6" y1="102.5" x2="45.7" y2="4" fill="none" stroke="#fff" stroke-miterlimit="10" stroke-width="3"/></g><g opacity="0.8"><path d="M93.8,39.7H96V32.6H94.2v-.8a4.4,4.4,0,0,0,2.1-.7h.9v8.6h2v1H93.8Z" fill="#fff"/><path d="M100.7,38.3a3,3,0,0,1,1.8-2.6h0a2.7,2.7,0,0,1-1.3-2.2,2.4,2.4,0,0,1,2.7-2.4,2.5,2.5,0,0,1,2.7,2.5,3.1,3.1,0,0,1-1.4,2.3h0a2.7,2.7,0,0,1,1.7,2.4c0,1.5-1.2,2.6-3.1,2.6S100.7,39.8,100.7,38.3Zm5,0c0-1.2-1.2-1.7-2.6-2.2a2.7,2.7,0,0,0-1.3,2,1.9,1.9,0,0,0,2,1.9A1.7,1.7,0,0,0,105.7,38.3Zm-.2-4.7a1.6,1.6,0,0,0-1.7-1.7,1.4,1.4,0,0,0-1.5,1.5c0,1.2,1,1.6,2.2,2.1A2.8,2.8,0,0,0,105.5,33.6Z" fill="#fff"/><path d="M108.2,35.9c0-3.2,1.1-4.9,3.1-4.9s3,1.7,3,4.9-1.1,5-3,5S108.2,39.1,108.2,35.9Zm4.9,0c0-2.8-.7-3.9-1.8-3.9s-1.9,1.1-1.9,3.9.7,4,1.9,4S113.1,38.7,113.1,35.9Z" fill="#fff"/></g><g opacity="0.8"><path d="M69.7,82.8h2.2V75.7H70.1v-.8a4.4,4.4,0,0,0,2.1-.7h.9v8.6h2v1H69.7Z" fill="#fff"/><path d="M76.6,81.4a3,3,0,0,1,1.8-2.6h0a2.7,2.7,0,0,1-1.3-2.2,2.4,2.4,0,0,1,2.7-2.4,2.5,2.5,0,0,1,2.7,2.5,3.1,3.1,0,0,1-1.4,2.3h0a2.7,2.7,0,0,1,1.7,2.4c0,1.5-1.2,2.6-3.1,2.6S76.6,82.9,76.6,81.4Zm5,0c0-1.2-1.2-1.7-2.6-2.2a2.7,2.7,0,0,0-1.3,2,1.9,1.9,0,0,0,2,1.9A1.7,1.7,0,0,0,81.6,81.4Zm-.2-4.7A1.6,1.6,0,0,0,79.7,75a1.4,1.4,0,0,0-1.5,1.5c0,1.2,1,1.6,2.2,2.1A2.8,2.8,0,0,0,81.4,76.7Z" fill="#fff"/><path d="M84.1,79c0-3.2,1.1-4.9,3.1-4.9s3,1.7,3,4.9-1.1,5-3,5S84.1,82.2,84.1,79ZM89,79c0-2.8-.7-3.9-1.8-3.9s-1.9,1.1-1.9,3.9.7,4,1.9,4S89,81.8,89,79Z" fill="#fff"/></g><g opacity="0.8"><path d="M20.2,76.6h2.2V69.5H20.6v-.8a4.4,4.4,0,0,0,2.1-.7h.9v8.6h2v1H20.2Z" fill="#fff"/><path d="M27.1,75.2a3,3,0,0,1,1.8-2.6h0a2.7,2.7,0,0,1-1.3-2.2,2.4,2.4,0,0,1,2.7-2.4A2.5,2.5,0,0,1,33,70.4a3.1,3.1,0,0,1-1.4,2.3h0a2.7,2.7,0,0,1,1.7,2.4c0,1.5-1.2,2.6-3.1,2.6S27.1,76.7,27.1,75.2Zm5,0c0-1.2-1.2-1.7-2.6-2.2a2.7,2.7,0,0,0-1.3,2,1.9,1.9,0,0,0,2,1.9A1.7,1.7,0,0,0,32.1,75.2Zm-.2-4.7a1.6,1.6,0,0,0-1.7-1.7,1.4,1.4,0,0,0-1.5,1.5c0,1.2,1,1.6,2.2,2.1A2.8,2.8,0,0,0,31.9,70.5Z" fill="#fff"/><path d="M34.6,72.8c0-3.2,1.1-4.9,3.1-4.9s3,1.7,3,4.9-1.1,5-3,5S34.6,76,34.6,72.8Zm4.9,0c0-2.8-.7-3.9-1.8-3.9s-1.9,1.1-1.9,3.9.7,4,1.9,4S39.5,75.6,39.5,72.8Z" fill="#fff"/></g></svg>