<svg xmlns="http://www.w3.org/2000/svg" width="306" height="306" viewBox="0 0 306 306"><title>square-hole</title><path d="m 225,80.46 h -47.78 c -0.0462,-0.0089 -0.0938,-0.0089 -0.14,0 H 80.92 c -0.280952,-0.01197 -0.511972,0.219048 -0.5,0.5 v 96.16 c -0.0089,0.0462 -0.0089,0.0938 0,0.14 V 225 c 0,0.27614 0.223858,0.5 0.5,0.5 h 143.97 c 0.0625,0.0142 0.12746,0.0142 0.19,0 0.0625,0.0149 0.12754,0.0149 0.19,0 0.12896,-0.0482 0.2261,-0.15656 0.26,-0.29 v 0 0 c 0.005,-0.0399 0.005,-0.0801 0,-0.12 v -96.17 c 0.015,-0.0658 0.015,-0.13418 0,-0.2 V 81 c 0.025,-0.303976 -0.22561,-0.559328 -0.53,-0.54 z" /></svg>
