<svg id="Layer_1" data-name="Layer 1" xmlns="http://www.w3.org/2000/svg" xmlns:xlink="http://www.w3.org/1999/xlink" viewBox="0 0 760 250"><defs><linearGradient id="linear-gradient" x1="429.89" y1="243.41" x2="432.59" y2="-10.39" gradientUnits="userSpaceOnUse"><stop offset="0.32" stop-color="#306b97"/><stop offset="1" stop-color="#035273"/></linearGradient><linearGradient id="linear-gradient-2" x1="452.88" y1="178.21" x2="454.63" y2="13.12" gradientUnits="userSpaceOnUse"><stop offset="0" stop-color="#306b97"/><stop offset="0" stop-color="#306b97"/><stop offset="0.21" stop-color="#175d83"/><stop offset="0.4" stop-color="#085577"/><stop offset="0.55" stop-color="#035273"/></linearGradient><linearGradient id="linear-gradient-3" x1="364.17" y1="109.18" x2="364.87" y2="42.99" gradientUnits="userSpaceOnUse"><stop offset="0" stop-color="#98c0e9"/><stop offset="0.23" stop-color="#a8caed"/><stop offset="0.67" stop-color="#d1e3f6"/><stop offset="0.81" stop-color="#e0ecf9"/><stop offset="1" stop-color="#e2edf9"/></linearGradient><linearGradient id="linear-gradient-4" x1="415.32" y1="61.24" x2="415.58" y2="36.97" xlink:href="#linear-gradient-3"/><linearGradient id="linear-gradient-5" x1="411.65" y1="76.05" x2="411.95" y2="47.46" xlink:href="#linear-gradient-3"/><linearGradient id="linear-gradient-6" x1="348.56" y1="143.93" x2="372.36" y2="105.94" xlink:href="#linear-gradient-2"/><linearGradient id="linear-gradient-7" x1="431.42" y1="134.18" x2="432.13" y2="67.43" xlink:href="#linear-gradient-3"/><linearGradient id="linear-gradient-8" x1="391.06" y1="126.55" x2="391.51" y2="84.71" xlink:href="#linear-gradient-3"/><linearGradient id="linear-gradient-9" x1="499.25" y1="144.75" x2="499.84" y2="88.9" xlink:href="#linear-gradient-3"/><linearGradient id="linear-gradient-10" x1="522.14" y1="157.99" x2="522.85" y2="90.67" xlink:href="#linear-gradient-3"/><linearGradient id="linear-gradient-11" x1="451.75" y1="86.03" x2="451.93" y2="68.68" xlink:href="#linear-gradient-3"/><linearGradient id="linear-gradient-12" x1="467" y1="151.1" x2="467.9" y2="66.83" xlink:href="#linear-gradient-3"/><linearGradient id="linear-gradient-13" x1="315.27" y1="126.35" x2="329.05" y2="104.35" xlink:href="#linear-gradient-2"/><linearGradient id="linear-gradient-14" x1="235.65" y1="237.71" x2="243.61" y2="44.68" gradientTransform="translate(0.3 -0.4) rotate(0.1)" xlink:href="#linear-gradient"/><linearGradient id="linear-gradient-15" x1="377.34" y1="107.2" x2="377.9" y2="93.71" gradientTransform="translate(0.3 -0.4) rotate(0.1)" gradientUnits="userSpaceOnUse"><stop offset="0" stop-color="#98c0e9"/><stop offset="0.23" stop-color="#9bc2ea"/><stop offset="0.42" stop-color="#a6c8ec"/><stop offset="0.6" stop-color="#b7d3f0"/><stop offset="0.77" stop-color="#d0e2f5"/><stop offset="0.93" stop-color="#eff5fc"/><stop offset="1" stop-color="#fff"/></linearGradient><linearGradient id="linear-gradient-16" x1="332.43" y1="128.44" x2="334.34" y2="82.06" gradientTransform="translate(0.3 -0.4) rotate(0.1)" gradientUnits="userSpaceOnUse"><stop offset="0" stop-color="#98c0e9"/><stop offset="1" stop-color="#fff"/></linearGradient><linearGradient id="linear-gradient-17" x1="261.33" y1="146.38" x2="263.37" y2="96.73" xlink:href="#linear-gradient-15"/><linearGradient id="linear-gradient-18" x1="296.46" y1="117.97" x2="296.84" y2="108.85" xlink:href="#linear-gradient-15"/><linearGradient id="linear-gradient-19" x1="323.94" y1="128.49" x2="324.47" y2="115.61" xlink:href="#linear-gradient-15"/><linearGradient id="linear-gradient-20" x1="197.67" y1="160.14" x2="198.41" y2="141.96" xlink:href="#linear-gradient-15"/><linearGradient id="linear-gradient-21" x1="305.04" y1="149.17" x2="305.94" y2="127.37" xlink:href="#linear-gradient-15"/><linearGradient id="linear-gradient-22" x1="220.12" y1="145.41" x2="220.45" y2="137.2" xlink:href="#linear-gradient-15"/><linearGradient id="linear-gradient-23" x1="179.48" y1="231.33" x2="183.65" y2="130.43" gradientTransform="translate(0.3 -0.4) rotate(0.1)" xlink:href="#linear-gradient-2"/><linearGradient id="linear-gradient-24" x1="277.34" y1="231.15" x2="283.34" y2="85.66" gradientTransform="translate(0.3 -0.4) rotate(0.1)" gradientUnits="userSpaceOnUse"><stop offset="0" stop-color="#1d6188"/><stop offset="0.55" stop-color="#035273"/></linearGradient><linearGradient id="linear-gradient-25" x1="900.66" y1="279.52" x2="455.92" y2="21.82" gradientTransform="matrix(-1, 0, 0, 1, 982.43, 0)" xlink:href="#linear-gradient-2"/><linearGradient id="linear-gradient-26" x1="503.14" y1="243.21" x2="514.63" y2="-35.39" gradientTransform="matrix(-1, 0, 0, 1, 982.43, 0)" xlink:href="#linear-gradient"/><linearGradient id="linear-gradient-27" x1="434.53" y1="154.16" x2="443.62" y2="60.98" gradientTransform="matrix(-1, 0, 0, 1, 982.43, 0)" xlink:href="#linear-gradient-15"/><linearGradient id="linear-gradient-28" x1="487.09" y1="122.34" x2="482.54" y2="18.99" gradientTransform="matrix(-1, 0, 0, 1, 982.43, 0)" xlink:href="#linear-gradient-15"/><linearGradient id="linear-gradient-29" x1="447.07" y1="226.07" x2="473.35" y2="59.92" gradientTransform="matrix(-1, 0, 0, 1, 982.43, 0)" xlink:href="#linear-gradient-2"/><linearGradient id="linear-gradient-30" x1="558.54" y1="261.25" x2="455.31" y2="28.97" gradientTransform="matrix(-1, 0, 0, 1, 982.43, 0)" xlink:href="#linear-gradient-2"/><linearGradient id="linear-gradient-31" x1="523.74" y1="140.61" x2="663.74" y2="140.61" gradientTransform="matrix(-1, 0, 0, 1, 982.43, 0)" xlink:href="#linear-gradient-2"/><linearGradient id="linear-gradient-32" x1="407.83" y1="125.8" x2="411.59" y2="83.77" gradientTransform="matrix(-1, 0, 0, 1, 982.43, 0)" xlink:href="#linear-gradient-15"/><linearGradient id="linear-gradient-33" x1="457.25" y1="84.82" x2="468.64" y2="51.51" gradientTransform="matrix(-1, 0, 0, 1, 982.43, 0)" xlink:href="#linear-gradient-15"/><linearGradient id="linear-gradient-34" x1="404.83" y1="159.56" x2="410.61" y2="95.07" gradientTransform="matrix(-1, 0, 0, 1, 982.43, 0)" xlink:href="#linear-gradient-15"/><linearGradient id="linear-gradient-35" x1="548.96" y1="128.91" x2="552.76" y2="86.48" gradientTransform="matrix(-1, 0, 0, 1, 982.43, 0)" xlink:href="#linear-gradient-15"/><linearGradient id="linear-gradient-36" x1="564.22" y1="142.82" x2="546.06" y2="101.83" gradientTransform="matrix(-1, 0, 0, 1, 982.43, 0)" xlink:href="#linear-gradient-15"/><linearGradient id="linear-gradient-37" x1="571.25" y1="118.55" x2="562.97" y2="99.88" gradientTransform="matrix(-1, 0, 0, 1, 982.43, 0)" gradientUnits="userSpaceOnUse"><stop offset="0" stop-color="#98c0e9"/><stop offset="0.26" stop-color="#9bc2ea"/><stop offset="0.48" stop-color="#a6c8ec"/><stop offset="0.69" stop-color="#b7d3f0"/><stop offset="0.88" stop-color="#cfe2f5"/><stop offset="1" stop-color="#e2edf9"/></linearGradient><linearGradient id="linear-gradient-38" x1="352.71" y1="231.71" x2="404.42" y2="144.84" gradientTransform="matrix(-1, 0, 0, 1, 982.43, 0)" xlink:href="#linear-gradient-2"/><linearGradient id="linear-gradient-39" x1="309.18" y1="239.87" x2="367.68" y2="141.61" gradientTransform="matrix(-1, 0, 0, 1, 982.43, 0)" xlink:href="#linear-gradient-2"/><linearGradient id="linear-gradient-40" x1="539.09" y1="128.36" x2="464.44" y2="-4.23" gradientTransform="matrix(-1, 0, 0, 1, 982.43, 0)" gradientUnits="userSpaceOnUse"><stop offset="0" stop-color="#98c0e9"/><stop offset="0.15" stop-color="#b2d0ef"/><stop offset="0.34" stop-color="#cce0f4"/><stop offset="0.51" stop-color="#dceaf8"/><stop offset="0.64" stop-color="#e2edf9"/></linearGradient></defs><title>Artboard 1aa</title><g opacity="0.3"><path d="M276.9,166s24.6-39.3,24.6-42.9,15.1-19.7,18.9-21.5,17.9-14.3,26.4-23.3,24.6-24.6,24.6-24.6,7.5-2.2,11.3-3.1S397.8,39,397.8,39s8.3-2,12.1-.3,16.3,5.9,16.3,5.9,13.4.3,14.6,2.9c2.9,6.2,3.3,7.8,5.2,15.6,1.1,4.7,14,5.6,18.7,13.7s13.4,21.2,18.2,25.7,14.1-6.3,17-6.3,12.5,11.2,20.8,10.8c3.7-.2,21.7,21.4,21.7,21.4s20.8,17,28.3,17.9c2.4.3,6.9-.5,13.2.9-.3-.1-.1,86.5-.1,86.5l-295.7-1.8Z" fill="url(#linear-gradient)"/><path d="M417,130.7s-7.6-17.9-9-28.7-1.9-20.5-3.8-22.3-2.4-26.9-2.4-26.9,1.5-2.6,2.9-2.2,7.1,3.1,7.1,3.1l-1.5-7.6,17.5-1.3s9.5-.5,11.4,0,6.1,10.3,6.1,10.3l3.8,8.5s4.2.9,5.7,3.1,9.4,8.5,11.8,11.2S476.5,94,476.5,94s4.7,4.5,6.4,8.5,3,20.1,6.8,33.1,15.6,36.7,15.6,36.7-13.2-12.5-19.4-18.8,4.8,5.7,5.2,14.8-24.1-17-27.4-19.7,0-1.8-5.6-11.2-1.9,4.9-1.9,4.9l-10.9-15.6s6.6,15.2-1.4,9.8l-20.3-13.9s-2.9,4.1.4,6.3,1,5.8,1,5.8Z" fill="url(#linear-gradient-2)"/><path d="M370.2,60.9s-20,22.5-22.1,25S336,94.5,336,94.5s-7.1,9.4-3.7,9.8,12.9-7.3,15.4-7.7-1.7,10.2.4,9.8,2-7.4,6.7-11.1c.7-.6,10.4-12.8,11.1-13.4s.8,12.8,1.8,11.4l2.7-3.9c1.1-1.4,2.2-3,3.3-4.3a11.7,11.7,0,0,1,2.9-3c1.2,1.8.9,6.5,1.6,6.3s3.3-6.2,5.1-10.8l1.6-4.2c1.2-3.4,2.1-6.2,2.3-7.1.6,1.7,1,4.8,2.4,7.3a73.6,73.6,0,0,0,7.7,11.1,127.6,127.6,0,0,1-2.2-14.6c-.1-1.3.6-4.1.5-5.1s-2.8.4-3-.7,1.7-4.7,1.3-5.6c-1.3-2.9-2.6-2.7-2.6-2.7a8.1,8.1,0,0,0-4.1,1.3,5,5,0,0,1-2.8,1.1C382.3,58,373.5,58.8,370.2,60.9Z" fill="url(#linear-gradient-3)"/><path d="M400,44.3s-1.5,2.3,5.2,2.3a15.2,15.2,0,0,1,6.5,1.5,20.1,20.1,0,0,1,5.3,3.4s1.7,2,3.7,4.1,6.1,5.9,6.7,4.4-.5-9.8-.5-9.8l4.2-2.3L416,42.1c-3.3-1.3-7.5.4-7.5.4l-3.8,1.4Z" fill="url(#linear-gradient-4)"/><path d="M401.8,52.8c.8.8.2,6.2.7,11.8s1.8,9.6,2.7,10.2,1.4-2.3,2-5.3,1.7-2.1,2.8-1.9,2.1-1.6,3.5-.7,4.5,2.8,5.3,2.5,6.2-4.2-.4-7.8c-1.1-.5-1.1,1.3-1.9.8s-1.7-2.3-2.7-2.9a8.2,8.2,0,0,0-3.9-1.3L405,53.9Z" fill="url(#linear-gradient-5)"/><path d="M337.6,127.1s8-10.3,16.1-15.7,13.2-9.4,13.2-9.4a8.1,8.1,0,0,1,0,6.3c-1.4,3.6-5.7,14.3-2.4,13.9s9.9-3.2,9.9-3.2v17.9Z" fill="url(#linear-gradient-6)"/><path d="M419.3,81.2l-1.7,4.7L413,80.4l-4.7-.4a104.3,104.3,0,0,1,5.8,12.5c1.9,5.4-.5,10.5,4.7,14.1,1.9,1.3-.5,4.9,3.3,9.6,6.5,8.3,19.3,18.5,17.5,14.6-1-2.1-2.7-5.4-4.6-8.8s-5.1-3.9-6.1-5.8c-2.6-5.1-1.4-9.4.7-8.3,4.3,2.3,1.9,0,7.1,2.3,2.2.9.3,3.7,3.6,8,1.4,1.9,5.6,4.9,7,6.7a15.4,15.4,0,0,0,7.9,5.6c-.6-1.6-3.8-4.6-4.9-7s-1-6.6-3-10.2-4.7-8.1-6.3-9.4a15.5,15.5,0,0,1-3.2-4.2c-.6-1.2-3.1-3.4-3.5-4.5a1.9,1.9,0,0,1,.8-2.7s13.8,1.6,12.5-.2-5.1-2.9-8.9-4.1c-.8-.3-1.7-2.6-2.7-2.9s-3.5.7-5,.3-4.6-2.8-5.8-3.1-3.2.8-3.2.8Z" fill="url(#linear-gradient-7)"/><path d="M394.1,97.1l1.9-2.2,1.9-2.1c1,5.8,1,11.2,4.3,14.3s3.3,12.1,3.3,12.1-4.3-5.4-5.7-5.4-6.1,8.1-7.6,6.7-4.2-1.2-4.2-1.2-13.3,9.4-11,3.6c.8-1.9.7-4.8,2-6.5s4-4.2,5.2-5.9,4.7-.8,5.2-2a33.2,33.2,0,0,0,1.7-6.6l.7-4.2Z" fill="url(#linear-gradient-8)"/><path d="M498,99.6s-.8,5.2-3.1,7.5a4.4,4.4,0,0,1-4.9,1.2c1.9.9,1.4,7.8,5.6,13.2a59.6,59.6,0,0,1,5.1,9c3.8,7.4,7.4,15.5,6.7,10.7-.9-7.2-3.7-25.1-3.7-25.1l5.6,3.6s-4.7-8-5.6-11.2S498,99.6,498,99.6Z" fill="url(#linear-gradient-9)"/><path d="M510,104.7s5.2,6.7,9.5,7.6,13.2,10.3,13.2,10.3,7.1,7.6,7.1,12.6-10.6-3.6-10.1-.9a12.8,12.8,0,0,1-.3,5.3s6,20.3.8,14.9c-2.5-2.6-4.5-7.5-6-12.4s-2-7-2.7-9.7l-1.1-3.1c-1.9-4.4-5.6-10.7-5.6-10.7a11,11,0,0,1-4.8-5.4l-4.7-9.8Z" fill="url(#linear-gradient-10)"/><path d="M372.3,67.2a14.5,14.5,0,0,0-4.7,4.9c-.5.9-6.6,7.6-6.6,7.6s8-5.8,8.7-3.2,1,4.7,1,4.7l4.7-8.2-1.2-4.3Z" fill="#fff"/><path d="M445.8,72.5s11.3-1.8,12.7,1.4-5.6,4.4-5.6,4.4,6.1,9.9.9,6.3a42.3,42.3,0,0,1-9-8.9Z" fill="url(#linear-gradient-11)"/><path d="M464.1,88.5l-4-4.6c-.6,3.2-1.9,8.8-3.8,8.2s-4.9,0-.9,11.4c.4,1.3-.7,3.5-.1,4.9s1.7,1.4,2,2c1.6,3.7,2.3,8,4.3,12.7,1.1,2.6-.1,6.2,1,8.8,6,14.2,11.8,19.5,10.2,13.5-.8-3,2.9-2.7,1.2-8.1-.9-2.6-5.5-4.2-6.3-6.8-2.5-8.2,1.8-4.5,3.9-3.2,4.1,2.3,10.2,15.9,9.6,10.8s-11.6-23.8-8.2-23.2,3.8,3.2,3.8,3.2l2.1-8.3a45,45,0,0,1-5.2-2.7c-1.9-1.2,3.7-8.6,3.7-8.6s-2.2,0-5.6-3.3-7-12.2-7-12.2Z" fill="url(#linear-gradient-12)"/><path d="M322,122.6s11.8-8,15.1-12.1-12.3,1.8-12.3,1.8l-1.9-6.2-13.7,10.7Z" fill="url(#linear-gradient-13)"/></g><g opacity="0.65"><path d="M408.4,113c-12-5.3-44-24.3-44-24.3s-6.2,2.9-5.6,3c-4.6.9-16,.7-16,.7s-13.7,6.1-16.9,6.8-24,9.1-27.2,9.1-12.8-3.1-12.8-3.1l-17.6,8.4s-17.7,12.8-25.7,14.3c-4.2.8-20.9,6.1-34.9,12.6A162.2,162.2,0,0,0,185,153.4s-20,15.7-36.2,28.2-38.6,23.7-46.8,24.5c-3.9.3-22.2,5.7-39.8,11.9S26,230.3,26,230.3l101.3,1.4,117.5-2.2,201,.3Z" fill="url(#linear-gradient-14)"/><path d="M388.2,107.9c-4.3-2.4-6.4-4.6-9.2-6.2s-5.7-4.2-6.8-4.8.6,2.2.1,2c-3.4-2-4.5-2.8-4.5-2.8l-.8,2.7,2.4,3,3.2,4.6-.4-3.1,4.4,1.6,3.2.3,3.6,1.6Z" fill="url(#linear-gradient-15)"/><path d="M360,95.4l-4.8-1.1-2.8,1.9-2-1.5-6.8,1.9-6.1,3c-2.2,1.2-5.8,4.4-7.4,4.6s-1.4-2.7-1.4-2.7l-3.8,1.8-4.4,3.9-1-1.5h-4.8l-4.5,3.4-.6,4-4.5,3.9s-7.2,12.5-4,10.3,8.4-6.9,8.4-6.9l2,.8,6-1.1.4-8.4,6-1.1,8.4,3.4,10,7.2-6.4-9.8a8.3,8.3,0,0,1,2.8-2.3,68.9,68.9,0,0,0,6-4.2l5.2-1.1,6.9-1.9s1.1,4.2,2.3,5l3.2,1.9v-5.7l1.6-5.7,2.4-4.6Z" fill="url(#linear-gradient-16)"/><path d="M247.4,129.5l7.6-3.4s2.8,2.6,3.2-.8a4.9,4.9,0,0,1,3.2-4.2l5.3-1.5.8-3.4,9.7-5.9,4-1.3.5.7,3.9-2.1-.4,2.7,3.5-1.5,2.8,1-2.4,3.8-7.8,5.9,1.4,7.7,1.1,8-4.8-1.9-2.4-3-2.8.7-3.6,4.9-2.4,1.5-3.6-1.9-7.2,4.2-4,1.5-.4-5.3-4.4,1.9s0-.4-5.2,3.8l-5.2,4.1-4.4-.7,3.6-4.9,1.5-2.9h-2.7l-2.5-.3,3-2.4,5.5-1.9Z" fill="url(#linear-gradient-17)"/><path d="M293.8,110.6l4.5,2.7H302s1.4,1.4.8,1.5-4.1,3.5-4.1,3.5l-2.4-1.8a9.5,9.5,0,0,0-1.8-.7l-4.1.5,1.2-2.5,2-.4-1-.8-.2-.8,1.4-.4Z" fill="url(#linear-gradient-18)"/><path d="M324.3,118.6l-4.4,6.8,3-1.7a3.5,3.5,0,0,0,.2,1.9c.4.9-.5,2.2-.3,2.9s5.8-5.9,5.8-5.9l-1.3-4.2-2.2,1.9Z" fill="url(#linear-gradient-19)"/><path d="M203.4,145.7s-7.1,3-8.5,7a5.4,5.4,0,0,1-5.2,3.8s-3,3.6-1.6,3.2l4.6-1.3s2.4,1.5,2.6.4.6-4.2.6-4.2l2.8-1.5,3.6-3.4,5.9-.6v-3S202.4,145.9,203.4,145.7Z" fill="url(#linear-gradient-20)"/><polygon points="302.4 141.7 298.1 148.2 301.8 149.2 306.1 145.2 307.7 141.2 314.1 137.1 312.5 132.1 300.8 136.6 297 138.6 302.4 141.7" fill="url(#linear-gradient-21)"/><path d="M227.1,139s1.1,7.6-2.1,6.1l-3.2-1.5-3.8.5-4.8,1,5.4-4.1Z" fill="url(#linear-gradient-22)"/><path d="M147.5,206.2s5.9-9.6,12.3-11.7,13.3-7.5,13.3-7.5l11.8-10.6,11.2-10.6,4.8,3a92.8,92.8,0,0,0,10.7-3.5c3.2-1.5,4.8-5.1,6.4-5.6a8.7,8.7,0,0,0,3.2-2.5l11.2-4.5s-7.5,8.6-10.7,12.1S203,179.4,203,179.4l7,2.1-1.1,4.5-5.4,6.1-11.2,7,2.1,7.6s-5.3-.5-5.3,4.6-7,17.6-7,17.6l-52.3,1,5.9-4.6s8-3.5,9.1-5.5.5-7.6.5-7.6Z" fill="url(#linear-gradient-23)"/><path d="M215.7,228.5s11.8-20.7,15-24.3,15.5-12.6,15.5-12.6L257.5,181l8-7.5,2.1-12.7,10.2-3.5L288,145.2l4.8-2.5s-2.2,3-7.5,9.6-8.6,16.1-8.6,16.1l4.8,10.1,4.3-3,7.4-2s.6,1,2.2,0,13.9-12.6,13.9-12.6l10.7-5.6L353.7,118l6.9,18.2-12.9,30.3-15.6,41.9,21.4,21.3L198.1,229Z" fill="url(#linear-gradient-24)"/></g><path d="M380.9,128.4s-28,7.4-33.5,6.5-19,5.5-21.4,5.5-13.9,7.8-21,11.2-25,9.5-25,9.5l-38,18.2s-51.6,13.8-54,13.8-36.2,13-37,15.6-51,6.9-51,6.9l-31,6.9-40,6.9-22,4H315.7l36.4-60.2s4.7-18.7,8.6-23S380.9,128.4,380.9,128.4Z" fill="url(#linear-gradient-25)"/><path d="M535,58.1l4.1-1.1,13.6,8s3.2,5.6,5.2,9.6,8.4,6.2,8.4,6.2,4.2-3.4,11.5,4.6,37.1,15.8,37.1,15.8l17.7,12.5,21.2,13.6,13.3,11.9,13.3,20.4,15.7,12.7,18.8,7.7,17.3,24.7L755.7,231H584.8Z" fill="#1a5b85"/><path d="M603.7,105.2c-5.5-5.1-12.6-.9-12.6-.9s-8.6-2.5-10.9-6.8-18.9-5.9-18.9-5.9L545.7,62.7l-7.9.8-7.8-17L519.6,44c-7.1-12.2-5.4-10.3-7.5-13.9-4.1-7-9.2-11.1-9.5-10.8-4.5,4.8-16.5,34-16.5,34l-10.2-1.7s-8.6,2.6-10.2,8.5S436,86.5,436,86.5l-9.4-.9s-25.1,27.2-26.7,34-7.8,28.1-7.8,28.1l-17.3-4.3L341.2,157s-11.8-6.8-16.5-6.8-26.6,24.7-33.7,28.1-58.1,57.2-58.1,57.2H725s-36.7-58-39.1-62.2-15.6-1.7-15.6-1.7l-14.1-17.9-17.3-31.4-6.3,9.3S609.1,110.3,603.7,105.2Z" fill="url(#linear-gradient-26)"/><path d="M546.5,70.1s2.1,3.6,3.3,5.3.5,5.9,1.1,7.6,2.6,4.4,3.2,6.2a15.5,15.5,0,0,1,.2,6.4c0,3.4,3.9,5.6,3.9,5.6s3.2,4.8,3.1,5.1-6.3-2.7-6.6-2.2c-1.4,2.5-1.1,8.7-1.5,9s-.7-4-2.1-6.3c-.4-.5-1.2,1.3-1.6.7s-.6-6-1.1-6.8-2.2,1.6-2.2,1.6a35.3,35.3,0,0,0,.6-7c-.1-1.5-1.1-.9-1.3-2.5s-.1-6.1-.4-6.6-2,2.8-2.8,1.4.3-4.9,0-5.4-2,1-2.2.4a21.9,21.9,0,0,1-1.5-5.7s-2.5,6.8-2.7,7-1.6.6-1.5,2.5,1.8,3.3,1.9,5-.9,2.3-.9,3.9c0,4.2-1.6,9.2-1.8,9.2-2-.3.7-5.5-1.2-11.2-.4-1-2.5,2.5-2.8,1.5l-2.3-7.9c-1.5-4.7-.5-8.1-.7-10.6-.5-6.2-6.3-19.9-6.3-19.9l-1.2-11.7,6.5,8.9,3-.8s.8,5.7,3.1,8.7c.9,1.2,4,.6,4.2,1.3s3,4.6,3,4.6Z" fill="url(#linear-gradient-27)"/><path d="M505.6,61.7c-1.5-3.2.6-17.7.6-19.4s-5.8,7.3-5.8,7.3.5-2.4,1.1-7.2c.1-1.1-2.2-1.1-2.1-2.2.6-4.6,3.8-10,4.2-11s-3.6,2.3-7.3,8-4.2,9.3-6.8,12.7a16,16,0,0,0-2.9,7.7l5,2.1,2.1,5.8s1.6,12.5,0,15.9-6.8,10.8-7.3,13-.7,14.8-.7,14.8,3.6-8.5,4.9-9.5,4.6,3.8,4.2,1.5-.9-10.4-.9-9.5,5.1-.9,5.3-1.5,2.9-6.1,2.9-6.1l2.2.5.8-5.3,1.9,1.4,1.8-2.7s-.8-8.3-1.3-10S505.6,61.7,505.6,61.7Z" fill="url(#linear-gradient-28)"/><path d="M541.2,144.3s-7.8-27.8-12-32.9-15.7-44.2-15.7-44.2l2.7,55-6.8-5.7s1,14.2-2.6,14.2-10.5,4-10.5,4,8.4,18.7,8.9,22.1-1.6,8.5-1.6,10.2,5.2,24.9,12.6,31.7,32.3,28.9,32.3,28.9-8.3-10.8-2.6-13.6a56.7,56.7,0,0,1,11.5-4l-12-17s-9.9-7.3-11.5-9.6,8.4-3.4,8.9-6.2-9.9-10.2-9.9-10.2l-3.7-8.5,5.8-3.4Z" fill="url(#linear-gradient-29)"/><path d="M479.1,118.8c-3.7,5.1-8.9,17-8.9,17s-4.2-6.8-6.3-6.2-10.4,22.1-16.2,27.7-21.4,38-22.4,40.8,5.2,1.2,5.2,1.2L450.3,180l-2.6,15.9s17.8-17,20.9-18.2,12.6,14.8,12.6,14.8,4.7-14.2,4.7-16.5-4.2-9-4.7-12.4-.6-13.6-.6-13.6l-7.3-1.2s4.2-9.6,6.3-13.6,5.7-15.8,5.7-15.8l-6.2,3.9Z" fill="url(#linear-gradient-30)"/><path d="M318.7,178.3a49,49,0,0,1,12.5-11.9,68.8,68.8,0,0,1,15.7-6.8L338,171.5s13.6-11.9,16.2-13.6,3.8-.4,6.3.3c-3,4.1-8,11.7-13.6,13.9-7.3,2.8-12.5,15.3-10.4,17s-5.3,14.7-1.1,14.7,31.9-11.9,31.9-11.9L362,206.1s19.4-6.3,24.6-9.7-2.6-2.2-2.6-2.2l14.6-7.4a66.3,66.3,0,0,0-5.2,13.6c-1.6,6.8,19.3-24.4,24.5-31.2s10.5-18.7,19.4-28.3,9.9-22.1,9.9-22.1l11.5-29.5s-11.6,1-20.2,2.3l16-16.4-18.3,7.3-10.9,1.2s-30.3,41.9-33.5,41.9-10.9,2.8-10.9,2.8-22.5,14.8-25.1,14.8-21.4,9-21.4,9-4.2,9.7-6.8,9.7S318.7,178.3,318.7,178.3Zm65.8-16.4c1.3-.9,2.9-5.6,4.3-10.2a28.6,28.6,0,0,0,5.6-5.1c2.1-2.9,2.7-18.2,6.3-21s17.8-19.8,17.8-19.8l8.1-5.2c-1.3,3.7-2.9,7.6-5.5,9.1-4.7,2.9-7.3,9.7-11.5,12.5s-3.7,21.5-6.8,25.5-7.3,14.2-9.4,15.9S381.9,163.6,384.5,161.9Z" fill="url(#linear-gradient-31)"/><polygon points="569.1 84.8 565.7 84.1 561 81.9 564.5 86.1 568.8 86.9 581.3 92.3 574.7 87.7 573.8 85.7 571.9 84.4 569.1 84.8" fill="url(#linear-gradient-32)"/><path d="M514.5,44.2l-.8-4.6-4.1-3.7,1.2,10.6,2.4,4.7-4,3.4s3.4.9,6.2,5.5c.5.9.8,4.3,1.4,5.3,2.6,4.5,5,10,5,10s-1.2-13.1-2-14.8S517.9,47,517.9,47Z" fill="url(#linear-gradient-33)"/><path d="M572.1,95.8c-.9,0-5-2.3-5.8-2.5l-4.6-1.6s5.1,5.6,5.8,8.3a47.5,47.5,0,0,1,1.3,7.7c.7-1.1.8-2.8,1.6-3.8s3.2-2,2.8-2,3.8,2.9,3.8,2.9l5.9,3.8-3.1-7.2a22.3,22.3,0,0,0-.3-3.4c-.3-.1-4.1-3.1-4.2-3.1S573.7,95.6,572.1,95.8Z" fill="url(#linear-gradient-34)"/><path d="M436,86.5s-7.9-2.6-9.4-.9-11.4,13.2-6.3,11.1a17.3,17.3,0,0,0,7.4-5.5l7.5-1.7,5.9-6.8Z" fill="url(#linear-gradient-35)"/><path d="M433,111.4s.6,8.2.4,11.6-2.3,14.9-1.9,13.6-2.8-12.9-3.8-12.9-3.5,6.8-3.5,7.6-2.5,6.2-2.5,6.2l-4.7,3.8s3.1-10.4,2.1-10.4-9,6.8-9,6.8,2-5.5,3.5-7.4a141.8,141.8,0,0,0,8.1-12.1c.9-2,5.5-11.5,6.6-12.8s4.9-4.2,4.9-4.2l.8,3.6Z" fill="url(#linear-gradient-36)"/><path d="M417.8,99.5s-6.9,9.3-6.5,10.4,3.3,9.7,3.3,9.7.6-7.6,1.6-8.7-1.6-3.2-1-3.4,3.3-3.4,3.3-3.4Z" fill="url(#linear-gradient-37)"/><path d="M557.4,114.5s.4,1.7,5.5,8.5,12.2,16.6,12.2,16.6-7.5.4-6.7,1.7,9.8,8.8,12.5,12.1a64.4,64.4,0,0,1,5.9,8.7s-3.1,6-7,2.2-14.1-11.5-14.1-11.5,4.7,8.9,9.4,11.9,8.2,8.5,10.5,11.9,3.2,8.5,6.3,12.3,5.9,9.4,8.6,14.1-6.6-23.9-4.3-22.2,7.8,3,9.8,6A136.6,136.6,0,0,0,620.5,203c4.7,4.2,12.5,5.5,12.5,5.5s-18-24.7-20.7-31.1-11.8-11.9-13-14-12.5-14-14.8-17.8-9.8-14.1-12.2-17S557.4,114.5,557.4,114.5Z" fill="url(#linear-gradient-38)"/><path d="M579.4,114.5c1.1,0,17.6,3.9,17.6,3.9s13.7,11.4,16.1,17,1.1,13.1,1.1,13.1l-12.1-3.8s8.6,4.7,13.7,10.6,3.1,0,11.8,13.2,25.4,41.7,25,37.9,21.6,8.9,21.6,8.9-16.1-23-18-25.5,14.5,6.8-.8-9.8-23.5-23-26.7-28.9-7-15.7-7.8-17-8.2-10.2-12.5-14.9-13-9.8-14.9-11.5-2.4,5.6-2.4,5.6Z" fill="url(#linear-gradient-39)"/><path d="M480.6,59.7s-1.1-1.7-4.7,0a6.7,6.7,0,0,1-6.3,0s-8.4,10.8-9.9,12.5-2.6,17-5.3,16.4-4.1-6.8-4.1-6.8l-11.5,7.9-2.6,11.9s.9,5.6,1.5,11.2c.1,1,4.1-1.3,4.1-.4.5,4.7-1.4,11.9-2.3,12.3s1.9,19.5,1.9,19.5a122.5,122.5,0,0,1,6.5-12.8c.7-1.2,1.5-15.9,2.2-16.9s1.6,11.5,2.3,10.9c4.1-3.4,11.5-17,11.5-17s2.6,10.8,2.6,13.6,4.1,4.6,4.1,4.6,1.6-11.4,2.7-14.2,6.2-1.7,6.7-3.4-1.5-13-1.5-14.7,5.2-10.2,5.7-13.6,0-11.9,0-11.9a35.3,35.3,0,0,0-4.7,0C477.6,69,480.6,59.7,480.6,59.7Z" fill="url(#linear-gradient-40)"/><path d="M472.5,72c-3.6,3.7-4.9,9.7-4.9,9.7l-3.4,3.4L460,96.7s6-9.4,7.6-10.2,4.4-8.2,4.4-8.2l1.1,5.1s1-5.4,2-6.5-2.3-3.7-2.3-3.7Z" fill="#fff"/>

    <polygon class="reveal" data-when="next-1" points="502 235.5 7 235.5 502 19.5 502 235.5" fill="none" stroke="#fbb03b" stroke-linejoin="round" stroke-width="4"/>
    <polygon class="reveal" data-when="next-1" points="117 235.5 7 235.5 117 187.5 117 235.5" fill="none" stroke="#fbb03b" stroke-linejoin="round" stroke-width="4"/>
    <line class="reveal mountain-distance" data-when="next-1" x1="7" y1="235.5" x2="502" y2="235.5" fill="none" stroke="#fbb03b" stroke-linejoin="round" stroke-width="4"/>

    <g class="reveal mountain-top" data-when="next-0" data-animation="pop">
      <circle cx="502" cy="18.5" r="11" fill="#fff"/>
      <path d="M502,9.5a9,9,0,1,1-9,9,9,9,0,0,1,9-9m0-4a13,13,0,1,0,13,13,13,13,0,0,0-13-13Z" fill="#c1272d"/>
      <line x1="494.8" y1="25.7" x2="509.3" y2="11.2" fill="none" stroke="#c1272d" stroke-miterlimit="10" stroke-width="4"/>
    </g>

    <g class="reveal mountain-base" data-when="next-1" data-animation="pop">
      <circle cx="502" cy="234.5" r="11" fill="#fff"/>
      <path d="M502,225.5a9,9,0,1,1-9,9,9,9,0,0,1,9-9m0-4a13,13,0,1,0,13,13,13,13,0,0,0-13-13Z" fill="#c1272d"/>
      <line x1="494.8" y1="241.7" x2="509.3" y2="227.2" fill="none" stroke="#c1272d" stroke-miterlimit="10" stroke-width="4"/>
    </g>
</svg>
