<svg height="440" viewBox="0 0 440 440" width="440" xmlns="http://www.w3.org/2000/svg"><circle cx="220" cy="220" fill="#33c433" r="219.94"/><path d="m394.91 216 2.66 3.88 3.35 1.22 2.35-6.45 11 2.82 7.31 11.14 16.51 6 1.54-.64q.56-9.24.37-18.42l-10.84-3.74-3.24-7.9 2.38-9.91-6.64 1-7.21 10.58-4.89-11.41 2.6-8.15-5.3-9.45-1.81-3.87-8.94-3.25-.09 9 8.58 9.93 1.15 2.66-2.76.32-2.19 6.36-6.05.28-4.12-2.61-1.36-5 7.15 3 2.93-1.94-12.17-16.75.44-5.09-8.71 3.54-6.14-3.78-14.9 9.47-3.87 4.42-6.69-1.77-9.59-3.42-4.72-4.76 2.45-12 4-4.67 10.55 1.43 9.85 6 3.45-5.41-4.17-2.66 4.88-8.6 11.3 2.22 11.32-7.84 8.2 1.52 6.59 3.57 2.57.93 2.19-10.44-9.71.34-.29-8.5-4.67-2.48.93-5.41 5.6-2.91 10.89-.27 4.06-3.49a219.38 219.38 0 0 0 -253.59-106l10.46 3.71 3.71 4.27 8.07 5.07-.57 3.69 13.74 5.62-.27-5.15-12.24-4.85 3.91-1.68.18-3.64-11.18-4.07 15.51-4.71 11.68 4.25 2.74 9.57 8.93 3.82 7.43-3.33 3.38 3.56-10.26 4.64s-10.54-3.63-10-3.44-1.76 7.52-1.76 7.52l12.83 4.28 2.62-2.93 8.95 2.67 2.91-4.78-4.87-2.73 3.41-4 4.38.24 13.49 5.69-10.08 4.07-.71 5.76 7.46 4.08 3-9.8 9-1.2 14 3.33 16.27 15.65-2.68 7.39 5.62 3.8-5.23 4.71-8.77-3.19-5 5.75-18.28-12 18.79-2.66-4.14-7.28-14.2-3.22-1.63.8-.31.21-5.39 2.64-6.66-1.82-.66 3.41 1.92 1.75-.48 1-5.64-1.11-1.49 2.91-5.12-1.57 1.29-6.39-10-.54-22.36 4.04-.7 8.35 3.93 5.2 9.78 5.17-4.26 11.72 5 1 7.72-7.56 12.22.52 5.11-14 7.77-2.38 13.47 8.84-4.42 8.91 4 1.44 12.77-1.38-3.92 12.32 6.14 7.68-3 7.11-8.48-.18-.36 2.58 7.6 7.46-2 4.91-2.71-.74a.64.64 0 0 0 0-.14l-10.2-7.72.86-3.87 4.2-1.09 1.23-3.36-3.26-2.24-2 2.77-6.69-1.32-.55-.44-.12.32-2.31-.47-.48-4.26-1.76-1.6-4.52-1.65-2.66 1-1.36 3.65 3.39 2.68 3.61 1.93-1 .07-4.88 2.59-.83-2.48-3-2.12-12.32 5.33.84 1.42-16.25 2.56-17.53 8.6-3 5.57-15.79 3.74-8.63 4.06-3.93 13-7.28-7.27 2.77-7.41-24.39-8.86-15 1.79-9.16 8.12-5.09 7.22.72 9.07 9.51 4.83 19.65-4.81-.52 5.74-8.14 7.36 11.28 6.44-5.56 19 15.48 8.81 14.89-8.3 11.78 7.22 2.2 7.83 12.46 3.72 1.66-3.48 5.52 5.7 3.24 14.59 13 4.93 1.75 10.19-3.07 10.55 12.48 10.67 18.14 6.82 2.15 10.69 7.13 5.52-4.18 6.67-12.93 8-11.64 23.95-10.29 3.4-11.75-4.65-6.45 5.43-1.76 14-18.9 11.79-6.88 6.07-14.43 1.43-8.53-1.72-1.58 3.3 5.08 3.69-2 3.45-6.85 3 1.66 5 6 2.4-2 4.58-3.32 4.06-1.9 3.58 6.23 10.94-2.64 3.51-12.22-4.71-8.36-15.13-3.43-20.24 7.22-15.69-3.72-12.25 8.86-15.25-3.85-2.76 12.88-35.4s-8.71-13.49-9.4-13.74-5.8-3.86-5.8-3.86l1.23-7.13-8.5-25.28 4.11-6.47 4.7-11.33 13.58-3.63 3.15-13.45-15.38-6.94-7.23-18.59-7.89-5.62-5.31-3.04 2.6-5-6.85-3.65-1.06 2.92-16.41-11.03-3.22-13.75 4.94-4.31-5.36-20.83 2.46-12.91-4.64-1.69-2.77 12.41 3.46 15.07-2.62 4.5-6.32-3.47-3.13-17 6-16.35-7.1-7.26 4.29-11.76a218.89 218.89 0 0 0 -45.95 74.9c-41.49 114 17.5 240.49 131.51 282a219.7 219.7 0 0 0 188.17-18.12l-6.83-2.48 5-13.75-4-13.49 6-16.53-3.84-8.2 2-7.07 13-11.82-5.18-30.88 8-16.75-12.56-6.1-3.13-6.6-8.77-3.2-6 2.5-15.47-5.63-1 1.18-8.6-3.13-11.55-29.68 6.54-17.47h3.7l3.65-6.27-4.64-1.69.67-7.72 28.84-8.17 4.25-11.69 13.45-2.14 4.36 2.1 9.2 3.34 8.6-1.24 23.86 6.64-4.31 11.85zm-31.16-94.82 2.94-2.23 7.31 1.05-1.3 8.87 1.49 7.15 1.39 3.63 3.76 3.3-5.91 3.41-8.27-2.15-6-2.18 3.27-6.88 5.38.78.79-3.51-3.6-4.61-2.44-3.41 1.2-3.27zm-15.85 8.82 6.53-5.12 6 .73 3.33 3.16-2 4.34-10.64 2.89-4.8-1.74 1.56-4.29zm-121.59-15.5-4.44-1.21 1.33-2.9 2.79-1.7 1.85 3zm17 .21-3-.82-1.62 2.63-2.78.58-3.74-1c.18-.9.34-1.58.34-1.58l-1.41-.51 1.12-3.06 5.92 2.16 2.37-2.71 2.37.81 2.49 1.54z" fill="#3396ff"/></svg>