<svg height="110" viewBox="0 0 460 110" width="460" xmlns="http://www.w3.org/2000/svg"><path d="m295 10.5-38.87 18.72-9.6 42.05 26.9 33.73h43.14l26.89-33.73-9.59-42.05z" fill="#258603"/><path d="m428.64 15h-37.28l-26.36 26.36v37.28l26.36 26.36h37.28l26.36-26.36v-37.28z" fill="#bf6f17"/><path d="m200.98 15h-51.96l-25.98 45 25.98 45h51.96l25.98-45z" fill="#175cbf"/><path d="m55 4.4-52.89 38.43 20.2 62.17h65.38l20.2-62.17z" fill="#86034f"/><path d="m55 17.23-40.51 29.43 15.48 47.62h50.06l15.48-47.62z" fill="#b30469"/><path d="m196.36 23h-42.72l-21.36 37 21.36 37h42.72l21.36-37z" fill="#1f7aff"/><path d="m426.57 20h-33.14l-23.43 23.43v33.14l23.43 23.43h33.14l23.43-23.43v-33.14z" fill="#ff941f"/><path d="m295 17.09-33.71 16.24-8.33 36.48 23.33 29.25h37.42l23.33-29.25-8.33-36.48z" fill="#31b304"/><g fill="#fff"><path d="m55 17a43 43 0 1 1 -43 43 43 43 0 0 1 43-43m0-2a45 45 0 1 0 45 45 45 45 0 0 0 -45-45z"/><path d="m175 17a43 43 0 1 1 -43 43 43 43 0 0 1 43-43m0-2a45 45 0 1 0 45 45 45 45 0 0 0 -45-45z"/><path d="m410 17a43 43 0 1 1 -43 43 43 43 0 0 1 43-43m0-2a45 45 0 1 0 45 45 45 45 0 0 0 -45-45z"/><path d="m295 17a43 43 0 1 1 -43 43 43 43 0 0 1 43-43m0-2a45 45 0 1 0 45 45 45 45 0 0 0 -45-45z"/></g></svg>