<svg id="Layer_1" data-name="Layer 1" xmlns="http://www.w3.org/2000/svg" viewBox="0 0 320 140"><title>Artboard 4</title><rect x="17" y="46.8" width="82.8" height="82.84" fill="#a7a7af" stroke="#50505e" stroke-linecap="round" stroke-linejoin="round" stroke-width="2"/><polygon points="116.8 31.6 39.8 31.6 17 46.8 99.9 46.8 116.8 31.6" fill="#cacacf" stroke="#50505e" stroke-linecap="round" stroke-linejoin="round" stroke-width="2" fill-rule="evenodd"/><polygon points="116.8 31.6 116.8 108.5 99.9 129.7 99.9 46.8 116.8 31.6" fill="#7d7d83" stroke="#50505e" stroke-linecap="round" stroke-linejoin="round" stroke-width="2" fill-rule="evenodd"/><rect x="177.3" y="27.8" width="101.9" height="101.89" fill="#a7a7af" stroke="#50505e" stroke-linecap="round" stroke-linejoin="round" stroke-width="2"/><polygon points="300 9 204.8 9 177.3 27.8 279.2 27.8 300 9" fill="#cacacf" stroke="#50505e" stroke-linecap="round" stroke-linejoin="round" stroke-width="2" fill-rule="evenodd"/><polygon points="300 9 300 104.2 279.2 129.7 279.2 27.8 300 9" fill="#7d7d83" stroke="#50505e" stroke-linecap="round" stroke-linejoin="round" stroke-width="2" fill-rule="evenodd"/><path d="M57.3,94.8,52.7,79.9h2.8l2.1,7.5c.2.8.4,1.7.6,2.4a21.7,21.7,0,0,0,.7,2.4H59a21,21,0,0,0,.6-2.4c.2-.7.4-1.6.7-2.4l2-7.5h2.8L60.4,94.8Z" fill="#50505e"/><path d="M217.7,85.4V83.8a34.4,34.4,0,0,0,2.7-2.7,13.9,13.9,0,0,0,2.1-2.2,9.6,9.6,0,0,0,1.3-2,4.1,4.1,0,0,0,.5-1.7,2.9,2.9,0,0,0-.6-1.9,2.4,2.4,0,0,0-1.8-.6,2.4,2.4,0,0,0-1.5.4,7.4,7.4,0,0,0-1.3,1.2l-1.5-1.5a9.8,9.8,0,0,1,2.1-1.6,4.9,4.9,0,0,1,2.5-.6,5.4,5.4,0,0,1,1.9.3,3.8,3.8,0,0,1,1.5.9,4.2,4.2,0,0,1,.9,1.4,5.7,5.7,0,0,1,.3,1.8,4.8,4.8,0,0,1-.4,2l-1.1,2-1.7,2.1-2,2.2h5.9v2.3Z" fill="#50505e"/><path d="M233.1,85.4l-4.6-14.9h2.8l2.1,7.5.6,2.4c.2.7.4,1.5.7,2.4h.1q.3-1.3.6-2.4a21.7,21.7,0,0,1,.7-2.4l2-7.5h2.7l-4.6,14.9Z" fill="#50505e"/><line x1="130.1" y1="79" x2="151.7" y2="79" fill="none" stroke="#b3b3b3" stroke-linecap="square" stroke-linejoin="round" stroke-width="4"/><polygon points="165.9 79 146 87.1 150.7 79 146 70.8 165.9 79" fill="#b3b3b3"/></svg>