<svg id="Layer_1" data-name="Layer 1" xmlns="http://www.w3.org/2000/svg" viewBox="0 0 200 180"><title>Artboard 3</title><path d="M49,40.8,52.9,29h2.4l3.8,11.8H56.9L56,37.6H52.1l-1,3.2Zm4-6.3L52.5,36h3.1l-.5-1.5c-.2-.6-.3-1.2-.5-1.9a13.3,13.3,0,0,1-.5-1.9H54c-.2.6-.3,1.3-.5,1.9S53.2,33.9,53,34.5Z" fill="#31b304"/><path d="M147,40.8,150.9,29h2.4l3.8,11.8h-2.2l-.9-3.2h-3.9l-1,3.2Zm4-6.3-.5,1.5h3.1l-.5-1.5c-.2-.6-.3-1.2-.5-1.9a13.3,13.3,0,0,1-.5-1.9H152c-.2.6-.3,1.3-.5,1.9S151.2,33.9,151,34.5Z" fill="#31b304"/><path d="M103.1,33.6V32.1h8v1.5Zm0,4V36.1h8v1.5Z" fill="#31b304"/><circle cx="55.3" cy="94.3" r="48.3" fill="#d6f0cd" fill-opacity="0.8" stroke="#31b304" stroke-linecap="round" stroke-linejoin="round" stroke-width="3"/><path d="M56.8,153.5c11.1,7.9,27.2,12,44.6,9.9a71,71,0,0,0,30.4-10.6" fill="none" stroke="#ff941f" stroke-linecap="round" stroke-linejoin="round" stroke-width="5"/><polygon points="142.5 143.6 132.4 162.6 130.8 153.3 122 150.1 142.5 143.6" fill="#ff941f"/><rect x="112.3" y="54.5" width="79.7" height="79.66" fill="#d6f0cd" stroke="#31b304" stroke-linecap="round" stroke-linejoin="round" stroke-width="3"/><line x1="55.5" y1="94.5" x2="103.5" y2="94.5" fill="none" stroke="#ff941f" stroke-linecap="round" stroke-linejoin="round" stroke-width="5"/><line x1="112.5" y1="134.5" x2="192.5" y2="134.5" fill="none" stroke="#ff941f" stroke-linecap="round" stroke-linejoin="round" stroke-width="5"/></svg>