<svg id="Layer_1" data-name="Layer 1" xmlns="http://www.w3.org/2000/svg" viewBox="0 0 200 180"><title>Artboard 2</title><path d="M43.9,53.8,40.2,42h2.2L44,48l.6,1.9a18,18,0,0,0,.5,1.9h.1c.2-.7.3-1.3.5-1.9a13.3,13.3,0,0,1,.5-1.9l1.6-6H50L46.3,53.8Z" fill="#1f7aff"/><path d="M137,36.3V35.1a20.8,20.8,0,0,0,2.1-2.1,14.1,14.1,0,0,0,1.7-1.8l1-1.5a2.7,2.7,0,0,0,.4-1.4,2.5,2.5,0,0,0-.5-1.5,2,2,0,0,0-1.4-.5,1.6,1.6,0,0,0-1.2.4,2.8,2.8,0,0,0-1,.9l-1.2-1.2a9.1,9.1,0,0,1,1.6-1.3,4.6,4.6,0,0,1,2.1-.4l1.4.2a3.5,3.5,0,0,1,1.2.7,4.1,4.1,0,0,1,.7,1.1,4,4,0,0,1,.3,1.5,2.8,2.8,0,0,1-.4,1.5,6.5,6.5,0,0,1-.9,1.6,15.5,15.5,0,0,1-1.3,1.7L140,34.7h4.7v1.7Z" fill="#1f7aff"/><path d="M149.1,36.3l-3.6-11.7h2.2l1.6,5.9a18,18,0,0,1,.5,1.9l.6,1.9h.1c.2-.7.3-1.3.5-1.9a18,18,0,0,1,.5-1.9l1.6-5.9h2.2l-3.7,11.7Z" fill="#1f7aff"/><line x1="6" y1="139.3" x2="22" y2="124.6" fill="none" stroke="#1f7aff" stroke-linecap="round" stroke-linejoin="round" stroke-width="3"/><rect x="22" y="61.9" width="62.8" height="62.78" fill="none" stroke="#1f7aff" stroke-linecap="round" stroke-linejoin="round" stroke-width="3"/><rect x="6" y="73.9" width="65.5" height="65.46" fill="#d2e4ff" fill-opacity="0.8" stroke="#1f7aff" stroke-linecap="round" stroke-linejoin="round" stroke-width="3"/><polygon points="84.8 61.9 22 61.9 6 73.9 71.5 73.9 84.8 61.9" fill="#d2e4ff" fill-opacity="0.8" stroke="#1f7aff" stroke-linecap="round" stroke-linejoin="round" stroke-width="3" fill-rule="evenodd"/><polygon points="84.8 61.9 84.8 124.6 71.5 139.3 71.5 73.9 84.8 61.9" fill="#d2e4ff" fill-opacity="0.8" stroke="#1f7aff" stroke-linecap="round" stroke-linejoin="round" stroke-width="3" fill-rule="evenodd"/><line x1="5.5" y1="139.2" x2="71.2" y2="139.2" fill="none" stroke="#ff941f" stroke-linecap="round" stroke-linejoin="round" stroke-width="5"/><line x1="97.4" y1="139" x2="117" y2="121.5" fill="none" stroke="#1f7aff" stroke-linecap="round" stroke-linejoin="round" stroke-width="3"/><rect x="116.8" y="44" width="77.2" height="77.23" fill="none" stroke="#1f7aff" stroke-linecap="round" stroke-linejoin="round" stroke-width="3"/><rect x="97.1" y="58.8" width="80.5" height="80.51" fill="#d2e4ff" fill-opacity="0.8" stroke="#1f7aff" stroke-linecap="round" stroke-linejoin="round" stroke-width="3"/><polygon points="194 44 116.8 44 97.1 58.8 177.6 58.8 194 44" fill="#d2e4ff" fill-opacity="0.8" stroke="#1f7aff" stroke-linecap="round" stroke-linejoin="round" stroke-width="3" fill-rule="evenodd"/><polygon points="194 44 194 121.3 177.6 139.3 177.6 58.8 194 44" fill="#d2e4ff" fill-opacity="0.8" stroke="#1f7aff" stroke-linecap="round" stroke-linejoin="round" stroke-width="3" fill-rule="evenodd"/><line x1="97.4" y1="139" x2="177.6" y2="139" fill="none" stroke="#ff941f" stroke-linecap="round" stroke-linejoin="round" stroke-width="5"/><path d="M47.4,148.5c10,9.1,25.6,15,43.1,15a69.8,69.8,0,0,0,31.4-7.1" fill="none" stroke="#ff941f" stroke-linecap="round" stroke-linejoin="round" stroke-width="5"/><polygon points="133.6 148.5 121.4 166.2 120.9 156.8 112.5 152.6 133.6 148.5" fill="#ff941f"/></svg>