<svg height="80" viewBox="0 0 120 80" width="120" xmlns="http://www.w3.org/2000/svg"><path d="m10 5 .03.09.03.08.06.17.12.34.25.69.49 1.35.98 2.67 2.13 5.6 1.99 4.99 1.95 4.69 2.11 4.84 1.97 4.29 2.14 4.41 2.1 4.08 1.95 3.58 2.13 3.64 1.98 3.17 1.94 2.9 2.11 2.9 1.96 2.48 2.13 2.45 2.1 2.16 1.95 1.79 2.12 1.7.03.02.03.02.06.05.12.09.25.18.49.35.99.65.03.02.04.02.07.04.13.09.27.16.53.31.07.04.07.04.13.08.27.14.53.29.04.01.03.02.06.03.13.07.27.13.52.25.07.03.06.02.14.06.26.12.52.21.03.01.03.02.06.02.13.05.24.09.49.17.03.01.04.01.06.02.12.04.24.08.49.15.04.01.03.01.07.02.13.03.26.07.04.01.03.01.07.02.13.03.27.06.03.01.03.01.07.01.13.03.27.06.53.09.12.02.13.02.25.04.06.01h.06l.12.02.25.03h.03l.03.01h.07l.12.02h.06l.06.01.13.01h.03.03l.06.01.13.01h.03.03l.06.01h.12.03.03l.07.01h.03.03.06l.06.01h.06.12.03l.09.01h.03.03.03.03.04.03.06.03.21.03.09.03.03.03.03.06l.06-.01.28-.01h.03.06l.12-.01h.03.1l.13-.01h.04l.03-.01h.07l.13-.01h.03l.03-.01h.07l.13-.01.27-.03.03-.01h.03l.07-.01.13-.01.26-.04.07-.01.06-.01.14-.02.26-.04.03-.01h.03l.06-.01.13-.03.24-.04.03-.01.04-.01.18-.04.25-.05.03-.01h.03l.06-.02.12-.03.25-.06.49-.13.03-.01.04-.01.07-.02.13-.04.26-.08.54-.17.03-.01.04-.01.06-.03.13-.05.27-.09.54-.21.06-.02.07-.03.13-.06.26-.11.52-.23 1.05-.51.03-.02.09-.05.13-.06.24-.13.49-.28.98-.58.03-.02.03-.02.07-.05.13-.08.27-.17.53-.36 1.06-.76 1.98-1.59 1.94-1.77 2.1-2.16 1.97-2.23 2.13-2.67 1.98-2.73 1.95-2.88 2.12-3.37 1.97-3.37 2.14-3.9 2.1-4.07 1.96-4.03 2.12-4.6 1.98-4.53 1.95-4.66 2.11-5.29 1.96-5.15.07-.19.07-.18.14-.37.27-.74.55-1.5.04-.09.1-.28.14-.38.27-.76.04-.1.03-.09.07-.19.13-.38.04-.1.03-.09.07-.2.04-.09.03-.1.07-.19" fill="none" stroke="#b30469" stroke-linecap="round" stroke-miterlimit="3.25" stroke-width="3"/></svg>