<svg xmlns="http://www.w3.org/2000/svg" width="480" height="140" viewBox="0 0 480 140"><g class="wheel"><circle cx="60" cy="55" r="45" fill="#fff"/><path d="M60,5a50,50,0,1,0,50,50A50,50,0,0,0,60,5Zm4,8.19A42,42,0,0,1,94.2,30.64L69.61,44.83A14,14,0,0,0,64,41.59Zm-8,0v28.4a14,14,0,0,0-5.61,3.24L25.8,30.64A42,42,0,0,1,56,13.19ZM21.79,72.44a42,42,0,0,1,0-34.88l24.6,14.2a13.65,13.65,0,0,0,0,6.48ZM56,96.81A42,42,0,0,1,25.8,79.36L50.39,65.17A14,14,0,0,0,56,68.41ZM54,55a6,6,0,1,1,6,6A6,6,0,0,1,54,55ZM64,96.81V68.41a14,14,0,0,0,5.61-3.24L94.2,79.36A42,42,0,0,1,64,96.81Zm9.61-38.57a13.65,13.65,0,0,0,0-6.48l24.6-14.2a42,42,0,0,1,0,34.88Z" fill="#b3b3b3"/></g><g fill="#242435" font-size="18" font-weight="600"><text x="55" y="130">0</text><text x="155" y="130">1</text><text x="255" y="130">2</text><text x="355" y="130">3</text><text x="455" y="130">4</text></g><g class="pi" display="none"><line x1="375" y1="114" x2="375" y2="110" stroke="#b30469" stroke-width="2"/><text x="370" y="130" font-size="18" font-weight="600" font-style="italic" fill="#b30469">π</text></g><g stroke="#242436" stroke-width="2" stroke-linecap="round"><line x1="60" y1="114" x2="60" y2="110"/><line x1="160" y1="114" x2="160" y2="110"/><line x1="260" y1="114" x2="260" y2="110"/><line x1="360" y1="114" x2="360" y2="110"/><line x1="460" y1="114" x2="460" y2="110"/><line x1="60" y1="110" x2="460" y2="110"/></g><path class="outline" fill="none" stroke="#b30469" stroke-width="4"/></svg>
