<svg xmlns="http://www.w3.org/2000/svg" viewBox="0 0 180 180"><title>tessellate</title><rect width="180" height="180" fill="#d6f0cd"/><polygon points="67 20.5 104 47.5 89.9 91 44.1 91 29.9 47.5 67 20.5" fill="#31b304"/><polygon points="30 134.5 67 161.4 52.9 205 7.1 205 -7.1 161.4 30 134.5" fill="#31b304"/><polygon points="187 20.5 224 47.5 209.9 91 164.1 91 149.9 47.5 187 20.5" fill="#31b304"/><polygon points="127 117.5 89.9 90.5 104.1 47 149.9 47 164 90.5 127 117.5" fill="#258603"/><polygon points="134 189.5 96.9 162.5 111.1 119 156.9 119 171 162.5 134 189.5" fill="#31b304"/><polygon points="7 117.5 -30 90.5 -15.9 47 29.9 47 44.1 90.5 7 117.5" fill="#258603"/><polygon points="67 161.5 30 134.5 44.1 91 89.9 91 104.1 134.5 67 161.5" fill="#258603"/><polygon points="104 47.5 67 20.5 81.1 -23 126.9 -23 141.1 20.5 104 47.5" fill="#258603"/><polygon points="30 47.5 -7 20.5 7.1 -23 52.9 -23 67.1 20.5 30 47.5" fill="#258603"/><path d="M55.1,89H88.4L98.8,57.1A35,35,0,0,0,55.1,89Z" fill="#fff" opacity="0.7"/><path d="M102.5,58.3L92.3,89.8l27.3,19.9A35,35,0,0,0,102.5,58.3Z" fill="#fff" opacity="0.7"/><path d="M102.2,152.9A35,35,0,0,0,145.9,121H112.5Z" fill="#fff" opacity="0.7"/><path d="M90,126a35.1,35.1,0,0,0,8.8-1.1L88.5,93H55.1A35,35,0,0,0,90,126Z" fill="#fff" opacity="0.7"/><text transform="translate(40 58)" font-size="18" fill="#fff">108째</text><text transform="translate(122 73)" font-size="18" fill="#fff">108째</text><text transform="translate(127 165)" font-size="18" fill="#fff">108째</text><text transform="translate(41 139)" font-size="18" fill="#fff">108째</text></svg>