<svg viewBox="0 0 180 180"><title>tessellate</title><polygon points="30 -14 60 38 0 38 30 -14" fill="#86034f"/><polygon points="60 38 30 -14 90 -14 60 38" fill="#b30469"/><polygon points="90 -14 120 38 60 38 90 -14" fill="#86034f"/><polygon points="120 38 90 -14 150 -14 120 38" fill="#b30469"/><polygon points="150 -14 180 38 120 38 150 -14" fill="#86034f"/><polygon points="180 38 150 -14 210 -14 180 38" fill="#b30469"/><polygon points="60 38 90 90 30 90 60 38" fill="#86034f"/><polygon points="90 90 60 38 120 38 90 90" fill="#b30469"/><polygon points="120 38 150 90 90 90 120 38" fill="#86034f"/><polygon points="150 90 120 38 180 38 150 90" fill="#b30469"/><polygon points="30 90 0 38 60 38 30 90" fill="#b30469"/><polygon points="180 38 210 90 150 90 180 38" fill="#86034f"/><polygon points="30 90 60 142 0 142 30 90" fill="#86034f"/><polygon points="60 142 30 90 90 90 60 142" fill="#b30469"/><polygon points="90 90 120 142 60 142 90 90" fill="#86034f"/><polygon points="120 142 90 90 150 90 120 142" fill="#b30469"/><polygon points="150 90 180 142 120 142 150 90" fill="#86034f"/><polygon points="180 142 150 90 210 90 180 142" fill="#b30469"/><polygon points="60 142 90 194 30 194 60 142" fill="#86034f"/><polygon points="90 194 60 142 120 142 90 194" fill="#b30469"/><polygon points="120 142 150 194 90 194 120 142" fill="#86034f"/><polygon points="150 194 120 142 180 142 150 194" fill="#b30469"/><polygon points="30 194 0 142 60 142 30 194" fill="#b30469"/><polygon points="180 142 210 194 150 194 180 142" fill="#86034f"/><polygon points="0 38 -30 -14 30 -14 0 38" fill="#b30469"/><polygon points="0 38 30 90 -30 90 0 38" fill="#86034f"/><polygon points="0 142 -30 90 30 90 0 142" fill="#b30469"/><polygon points="0 142 30 194 -30 194 0 142" fill="#86034f"/><path d="M93.5,92l15.7,27.3A35,35,0,0,0,124.9,92H93.5Z" fill="#fff" opacity="0.7"/><path d="M90,125a34.8,34.8,0,0,0,15.7-3.7L90,94,74.3,121.3A34.8,34.8,0,0,0,90,125Z" fill="#fff" opacity="0.7"/><path d="M70.8,119.3L86.5,92H55.1A35,35,0,0,0,70.8,119.3Z" fill="#fff" opacity="0.7"/><path d="M55.1,88H86.5L70.8,60.7A35,35,0,0,0,55.1,88Z" fill="#fff" opacity="0.7"/><path d="M90,86l15.7-27.2a35,35,0,0,0-31.4,0Z" fill="#fff" opacity="0.7"/><path d="M109.2,60.7L93.5,88h31.5A35,35,0,0,0,109.2,60.7Z" fill="#fff" opacity="0.7"/><text transform="translate(78 50)" font-size="18" fill="#fff">60°</text><text transform="translate(124 71)" font-size="18" fill="#fff">60°</text><text transform="translate(123 119)" font-size="18" fill="#fff">60°</text><text transform="translate(78 143)" font-size="18" fill="#fff">60°</text><text transform="translate(34 124)" font-size="18" fill="#fff">60°</text><text transform="translate(38 70)" font-size="18" fill="#fff">60°</text></svg>
