<svg width="500" height="320" viewBox="0 0 500 320"><g opacity="0.4"><ellipse cx="336.9" cy="221.8" rx="157.1" ry="85.3" fill="#ff941f"/><ellipse cx="216.9" cy="149.3" rx="211.4" ry="135.8" fill="#00e6f0"/><path d="M428.2,152.4c-25.8-10-57.3-15.9-91.3-15.9-86.8,0-157.2,38.2-157.2,85.3,0,25,19.8,47.5,51.3,63C339.6,280.2,425.7,223,428.2,152.4Z" fill="#bcdd3f"/><path d="M216.9,19.6c-37.5,0-72.7,6.4-102.9,17.5l57.8,238.8a315,315,0,0,0,45.1,3.2c113.1,0,205.2-58.2,205.2-129.8S330,19.6,216.9,19.6Z" fill="#1f7aff"/><ellipse cx="226.3" cy="167.4" rx="62.8" ry="103.4" transform="translate(-47.5 102) rotate(-23.1)" fill="#c1272d"/><path d="M422.1,150.2c-24.5-8.7-53.8-13.7-85.2-13.7-86.8,0-157.2,38.2-157.2,85.3,0,22,15.4,42.1,40.6,57.2C331.5,277.9,421.4,220.6,422.1,150.2Z" fill="#31b304"/><path d="M180.2,214.7c23.9,38.6,59.6,59.4,86.6,47.9,32-13.6,39.7-67.2,17.3-119.8l-.5-1.2C226.9,152.6,185.4,180.9,180.2,214.7Z" fill="#521740"/></g><path d="M224.5,237l1.1-1.2a4,4,0,0,0,2.7,1.2c1.2,0,1.8-.6,1.8-1.4s-.7-1.1-1.6-1.5l-1.4-.6a3.1,3.1,0,0,1-2.2-2.8c0-1.7,1.5-3,3.6-3a4.3,4.3,0,0,1,3.2,1.4l-1,1.1a3.4,3.4,0,0,0-2.2-.9c-1,0-1.7.5-1.7,1.3s.8,1.1,1.7,1.4l1.4.6a3.1,3.1,0,0,1,2.1,2.9c0,1.7-1.4,3.1-3.7,3.1A5.3,5.3,0,0,1,224.5,237Z" fill="#521740"/><path d="M238.6,238.9v-1.3a3.2,3.2,0,0,1-2.2,1c-2,0-3.2-1.5-3.2-4.1s1.6-4.2,3.3-4.2a2.8,2.8,0,0,1,2.2,1h0l.2-.8h1.4v11h-1.8Zm0-2.7v-3.7a2.2,2.2,0,0,0-1.6-.6c-1,0-1.8.9-1.8,2.5s.6,2.7,1.8,2.7A2.1,2.1,0,0,0,238.6,236.2Z" fill="#521740"/><path d="M242.7,235.5v-5h1.8v4.7c0,1.3.4,1.8,1.3,1.8s1.1-.3,1.7-1.1v-5.4h1.8v7.9h-1.5v-1.2h-.1a3.1,3.1,0,0,1-2.5,1.4C243.4,238.6,242.7,237.4,242.7,235.5Z" fill="#521740"/><path d="M251.3,236.3c0-1.7,1.4-2.6,4.6-2.9,0-.9-.4-1.6-1.5-1.6a4.9,4.9,0,0,0-2.2.8l-.6-1.2a5.3,5.3,0,0,1,3.2-1.1c1.9,0,2.9,1.2,2.9,3.4v4.7h-1.5v-.9H256a3.8,3.8,0,0,1-2.4,1.1A2.2,2.2,0,0,1,251.3,236.3Zm4.6,0v-1.8c-2.2.3-2.9.8-2.9,1.6s.5,1,1.2,1A2.7,2.7,0,0,0,255.9,236.3Z" fill="#521740"/><path d="M259.9,230.5h1.6v1.4h0a2.8,2.8,0,0,1,2.3-1.6l.9.2-.4,1.6h-.8c-.6,0-1.3.4-1.8,1.6v4.8h-1.9Z" fill="#521740"/><path d="M265.2,234.5c0-2.6,1.8-4.2,3.6-4.2s3.3,1.6,3.3,3.8a2.5,2.5,0,0,1-.1.9h-5a2.3,2.3,0,0,0,2.3,2.2,4.2,4.2,0,0,0,1.9-.6l.6,1.1a5.1,5.1,0,0,1-2.7.9A3.8,3.8,0,0,1,265.2,234.5Zm5.3-.8c0-1.2-.5-1.9-1.6-1.9a1.9,1.9,0,0,0-1.9,1.9Z" fill="#521740"/><path d="M308.5,210.9H312c2.2,0,3.8.7,3.8,3.1a3,3,0,0,1-2,3l2.5,4.3h-2.1l-2.3-4.1h-1.6v4.1h-1.8Zm3.3,4.9c1.4,0,2.2-.6,2.2-1.8s-.8-1.6-2.2-1.6h-1.5v3.4Z" fill="#31b304"/><path d="M317.8,210h1.8v4.5a3.2,3.2,0,0,1,2.5-1.2c1.7,0,2.4,1.1,2.4,3.1v4.9h-1.9v-4.7c0-1.3-.3-1.7-1.2-1.7a2.6,2.6,0,0,0-1.8.9v5.5h-1.8Z" fill="#31b304"/><path d="M326.2,217.4a3.8,3.8,0,1,1,3.7,4.1A3.8,3.8,0,0,1,326.2,217.4Zm5.6,0c0-1.6-.7-2.6-1.9-2.6s-1.8,1-1.8,2.6.7,2.6,1.8,2.6S331.8,219,331.8,217.4Z" fill="#31b304"/><path d="M335.5,213.5H337v1h.1a3.3,3.3,0,0,1,2.4-1.2,2.1,2.1,0,0,1,2.2,1.4,3.4,3.4,0,0,1,2.5-1.4c1.7,0,2.4,1.1,2.4,3.1v4.9h-1.8v-4.7c0-1.3-.4-1.7-1.2-1.7a2.6,2.6,0,0,0-1.7.9v5.5h-1.8v-4.7c0-1.3-.4-1.7-1.2-1.7a2.6,2.6,0,0,0-1.7.9v5.5h-1.8Z" fill="#31b304"/><path d="M350.6,220.5h0l-.2.8H349V210h1.8v4.3a3.2,3.2,0,0,1,2.2-1c2,0,3.2,1.5,3.2,4s-1.7,4.2-3.4,4.2A3.2,3.2,0,0,1,350.6,220.5Zm3.6-3.2c0-1.6-.5-2.5-1.6-2.5a2.6,2.6,0,0,0-1.8.9v3.6a2.5,2.5,0,0,0,1.6.7C353.4,220,354.2,219.1,354.2,217.3Z" fill="#31b304"/><path d="M357.9,218.4v-4.9h1.9v4.7c0,1.3.3,1.7,1.2,1.7s1.1-.3,1.7-1.1v-5.3h1.9v7.8H363v-1.1h0a3.3,3.3,0,0,1-2.6,1.3C358.6,221.5,357.9,220.4,357.9,218.4Z" fill="#31b304"/><path d="M366.1,220.4l.9-1.2a3,3,0,0,0,2.1.9c.9,0,1.3-.4,1.3-.9s-.9-1-1.7-1.3-2.2-1-2.2-2.3,1.1-2.3,2.9-2.3a4.3,4.3,0,0,1,2.6.9l-.9,1.1a2.7,2.7,0,0,0-1.7-.6c-.8,0-1.2.3-1.2.8s.8.9,1.7,1.2,2.2.9,2.2,2.4-1,2.4-3,2.4A4.6,4.6,0,0,1,366.1,220.4Z" fill="#31b304"/><path d="M173.1,136.3h3.5c2.2,0,3.8.8,3.8,3.1a2.9,2.9,0,0,1-2,3l2.5,4.4h-2.1l-2.3-4.1h-1.6v4.1h-1.8Zm3.3,4.9c1.4,0,2.2-.6,2.2-1.8s-.8-1.6-2.2-1.6h-1.5v3.4Z" fill="#c1272d"/><path d="M181.7,142.8a3.8,3.8,0,0,1,3.6-4.1c2.2,0,3.3,1.6,3.3,3.7,0,.4-.1.7-.1.9h-5a2.3,2.3,0,0,0,2.3,2.2,3.5,3.5,0,0,0,1.8-.5l.7,1.1a5.1,5.1,0,0,1-2.7.9A3.9,3.9,0,0,1,181.7,142.8Zm5.3-.7c0-1.2-.6-2-1.6-2a1.9,1.9,0,0,0-1.9,2Z" fill="#c1272d"/><path d="M189.8,142.8a3.9,3.9,0,0,1,4-4.1,3.4,3.4,0,0,1,2.3.9l-.9,1.2a2.2,2.2,0,0,0-1.3-.6,2.3,2.3,0,0,0-2.2,2.6c0,1.6.9,2.7,2.1,2.7a2.9,2.9,0,0,0,1.6-.7l.8,1.2a4.4,4.4,0,0,1-2.6,1C191.5,147,189.8,145.5,189.8,142.8Z" fill="#c1272d"/><path d="M197.8,144.1v-3.7h-1.1V139h1.2l.3-2.1h1.5v2.1h2v1.5h-2v3.7c0,.9.3,1.4,1.1,1.4l.8-.2.3,1.4a5.7,5.7,0,0,1-1.6.3C198.5,147,197.8,145.8,197.8,144.1Z" fill="#c1272d"/><path d="M202.6,144.7c0-1.7,1.4-2.6,4.6-3a1.3,1.3,0,0,0-1.4-1.5,4.5,4.5,0,0,0-2.2.8l-.7-1.3a6.7,6.7,0,0,1,3.2-1c2,0,3,1.2,3,3.4v4.7h-1.6v-.9h-.1a3.8,3.8,0,0,1-2.4,1.1A2.2,2.2,0,0,1,202.6,144.7Zm4.6,0v-1.8c-2.1.3-2.8.8-2.8,1.6s.4,1,1.1,1A2.7,2.7,0,0,0,207.2,144.7Z" fill="#c1272d"/><path d="M211.3,138.9h1.5V140h.1a3.6,3.6,0,0,1,2.5-1.3c1.7,0,2.5,1.2,2.5,3.1v5h-1.9v-4.7c0-1.3-.3-1.8-1.2-1.8s-1.1.3-1.8,1v5.5h-1.8Z" fill="#c1272d"/><path d="M219.7,148.2a2.1,2.1,0,0,1,1.1-1.7h0a1.3,1.3,0,0,1-.7-1.3,1.7,1.7,0,0,1,.9-1.4h0a2.5,2.5,0,0,1-1.1-2.1c0-1.8,1.5-2.8,3.2-2.8l1.1.2H227v1.4h-1.4a2.5,2.5,0,0,1,.4,1.3,2.7,2.7,0,0,1-2.9,2.7l-1.1-.2a.8.8,0,0,0-.4.7c0,.5.3.7,1.3.7h1.4c1.9,0,2.9.6,2.9,2s-1.7,2.7-4.2,2.7S219.7,149.6,219.7,148.2Zm5.7-.4c0-.6-.5-.8-1.4-.8h-2.2a1.2,1.2,0,0,0-.6,1c0,.7.8,1.1,2,1.1S225.4,148.4,225.4,147.8Zm-1-6.3a1.4,1.4,0,0,0-1.3-1.5,1.3,1.3,0,0,0-1.4,1.5,1.4,1.4,0,0,0,1.4,1.6C223.8,143.1,224.4,142.5,224.4,141.5Z" fill="#c1272d"/><path d="M228.5,144.7v-9.2h1.9v9.3c0,.5.2.7.4.7h.3l.2,1.4-1,.2C229,147,228.5,146.1,228.5,144.7Z" fill="#c1272d"/><path d="M232.4,142.8a3.8,3.8,0,0,1,3.6-4.1c2.1,0,3.2,1.6,3.2,3.7v.9h-5a2.2,2.2,0,0,0,2.3,2.2,4.1,4.1,0,0,0,1.8-.5l.6,1.1a4.8,4.8,0,0,1-2.7.9C234.1,147,232.4,145.4,232.4,142.8Zm5.2-.7c0-1.2-.5-2-1.6-2s-1.7.7-1.9,2Z" fill="#c1272d"/><path d="M289.1,106h3.3c2.3,0,4.1.8,4.1,3.2s-1.8,3.4-4,3.4H291v3.8h-1.9Zm3.2,5.1c1.6,0,2.3-.6,2.3-1.9s-.8-1.7-2.3-1.7H291v3.6Z" fill="#1f7aff"/><path d="M297.2,114.3c0-1.7,1.4-2.5,4.7-2.9-.1-.8-.4-1.5-1.5-1.5a4.7,4.7,0,0,0-2.2.7l-.7-1.2a6.8,6.8,0,0,1,3.3-1c1.9,0,2.9,1.2,2.9,3.4v4.6h-1.5v-.8H302a3.7,3.7,0,0,1-2.4,1A2.2,2.2,0,0,1,297.2,114.3Zm4.7,0v-1.7c-2.2.2-2.9.8-2.9,1.6a1,1,0,0,0,1.1,1A2.4,2.4,0,0,0,301.9,114.3Z" fill="#1f7aff"/><path d="M305.9,108.6h1.5l.2,1.4h0a2.6,2.6,0,0,1,2.2-1.6h.9l-.3,1.6h-.8a2.4,2.4,0,0,0-1.9,1.6v4.8h-1.8Z" fill="#1f7aff"/><path d="M311,114.3c0-1.7,1.4-2.5,4.7-2.9-.1-.8-.4-1.5-1.5-1.5a4.7,4.7,0,0,0-2.2.7l-.7-1.2a6.8,6.8,0,0,1,3.3-1c1.9,0,2.9,1.2,2.9,3.4v4.6H316v-.8h-.1a3.7,3.7,0,0,1-2.4,1A2.2,2.2,0,0,1,311,114.3Zm4.7,0v-1.7c-2.2.2-2.9.8-2.9,1.6s.5,1,1.2,1A2.4,2.4,0,0,0,315.7,114.3Z" fill="#1f7aff"/><path d="M319.7,114.4v-9.3h1.9v9.4c0,.5.2.6.4.6h.2l.3,1.4h-1C320.2,116.6,319.7,115.8,319.7,114.4Z" fill="#1f7aff"/><path d="M324,114.4v-9.3h1.9v9.4c0,.5.2.6.4.6h.3l.2,1.4h-1C324.5,116.6,324,115.8,324,114.4Z" fill="#1f7aff"/><path d="M327.9,112.5a3.8,3.8,0,0,1,3.6-4.1c2.1,0,3.2,1.5,3.2,3.7v.9h-5a2.2,2.2,0,0,0,2.3,2.2,3,3,0,0,0,1.8-.6l.6,1.2a4.8,4.8,0,0,1-2.7.8A3.8,3.8,0,0,1,327.9,112.5Zm5.2-.7c0-1.3-.5-2-1.6-2s-1.7.7-1.9,2Z" fill="#1f7aff"/><path d="M336.5,114.4v-9.3h1.8v9.4c0,.5.2.6.4.6h.3l.3,1.4h-1C337,116.6,336.5,115.8,336.5,114.4Z" fill="#1f7aff"/><path d="M340.3,112.5a3.8,3.8,0,1,1,3.7,4.1A3.8,3.8,0,0,1,340.3,112.5Zm5.6,0c0-1.6-.7-2.6-1.9-2.6s-1.8,1-1.8,2.6.7,2.6,1.8,2.6S345.9,114.1,345.9,112.5Z" fill="#1f7aff"/><path d="M349.1,117.9a2,2,0,0,1,1.1-1.7h0a1.4,1.4,0,0,1-.7-1.3,2,2,0,0,1,.9-1.5h0a2.6,2.6,0,0,1-1.1-2.1c0-1.8,1.5-2.8,3.2-2.8l1.1.2h2.8v1.3H355a2.6,2.6,0,0,1-2.5,4,2,2,0,0,1-1.1-.2.8.8,0,0,0-.4.8c0,.4.3.7,1.3.7h1.4c1.9,0,2.8.6,2.8,1.9s-1.6,2.8-4.1,2.8S349.1,119.2,349.1,117.9Zm5.7-.5c0-.6-.5-.7-1.4-.7h-1.1l-1.1-.2a1.5,1.5,0,0,0-.6,1.1c0,.7.8,1.1,2,1.1S354.8,118.1,354.8,117.4Zm-1-6.2a1.3,1.3,0,0,0-1.3-1.5,1.3,1.3,0,0,0-1.4,1.5,1.4,1.4,0,0,0,1.4,1.6C353.2,112.8,353.8,112.2,353.8,111.2Z" fill="#1f7aff"/><path d="M357.9,108.6h1.6V110h0a2.6,2.6,0,0,1,2.3-1.6h.9l-.3,1.6h-.9c-.6,0-1.3.5-1.8,1.6v4.8h-1.9Z" fill="#1f7aff"/><path d="M363.1,114.3c0-1.7,1.4-2.5,4.6-2.9a1.3,1.3,0,0,0-1.4-1.5,5.1,5.1,0,0,0-2.3.7l-.6-1.2a6.4,6.4,0,0,1,3.2-1c2,0,2.9,1.2,2.9,3.4v4.6H368v-.8h-.1a3.7,3.7,0,0,1-2.4,1A2.2,2.2,0,0,1,363.1,114.3Zm4.6,0v-1.7c-2.1.2-2.9.8-2.9,1.6s.5,1,1.2,1A2.4,2.4,0,0,0,367.7,114.3Z" fill="#1f7aff"/><path d="M371.7,108.6h1.6v1.1h.1a2.9,2.9,0,0,1,2.4-1.3,2,2,0,0,1,2.1,1.4,3.8,3.8,0,0,1,2.6-1.4c1.6,0,2.4,1.1,2.4,3.1v4.9h-1.9v-4.7c0-1.2-.3-1.7-1.2-1.7a2.4,2.4,0,0,0-1.6.9v5.5h-1.8v-4.7c0-1.2-.4-1.7-1.3-1.7a2.6,2.6,0,0,0-1.6.9v5.5h-1.9Z" fill="#1f7aff"/><path d="M376.7,260.6h1.9v4.7h0l3.8-4.7h2l-3.2,4L385,271h-2.1l-2.8-4.9-1.5,1.9v3h-1.9Z" fill="#ff941f"/><path d="M385.9,260.7c0-.6.5-1,1.2-1a1,1,0,0,1,1.1,1,1,1,0,0,1-1.1,1.1A1.1,1.1,0,0,1,385.9,260.7Zm.2,2.5H388V271h-1.9Z" fill="#ff941f"/><path d="M390.6,268.4v-3.8h-1.1v-1.4h1.2l.2-2.2h1.6v2.2h2v1.4h-2v3.8c0,.9.3,1.3,1.1,1.3h.8l.3,1.3a3.8,3.8,0,0,1-1.6.3C391.3,271.2,390.6,270.1,390.6,268.4Z" fill="#ff941f"/><path d="M395.3,267.1A3.8,3.8,0,0,1,399,263c2.1,0,3.2,1.5,3.2,3.7a2.2,2.2,0,0,1-.1.9h-5a2.3,2.3,0,0,0,2.3,2.2,3.3,3.3,0,0,0,1.9-.6l.6,1.2a5,5,0,0,1-2.7.8A3.8,3.8,0,0,1,395.3,267.1Zm5.3-.8c0-1.2-.5-1.9-1.6-1.9a2,2,0,0,0-1.9,1.9Z" fill="#ff941f"/><path d="M45.1,176.2h-3v-1.6H50v1.6H47v8.9H45.1Z" fill="#00c7f0"/><path d="M50.9,177.2h1.5v1.4h.1a2.8,2.8,0,0,1,2.2-1.6l.9.2-.3,1.6-.8-.2c-.6,0-1.4.5-1.9,1.7v4.8H50.9Z" fill="#00c7f0"/><path d="M56,182.9c0-1.6,1.4-2.5,4.7-2.9-.1-.8-.4-1.5-1.5-1.5a4,4,0,0,0-2.2.8l-.7-1.3a6.8,6.8,0,0,1,3.3-1c1.9,0,2.9,1.2,2.9,3.4v4.7H61v-.9h-.1a3.7,3.7,0,0,1-2.4,1A2.2,2.2,0,0,1,56,182.9Zm4.7,0v-1.7c-2.2.3-2.9.8-2.9,1.6a1,1,0,0,0,1.1,1A2.4,2.4,0,0,0,60.7,182.9Z" fill="#00c7f0"/><path d="M64.7,177.2h1.5l.2.8h0a4.3,4.3,0,0,1,2.4-1c1.9,0,3.1,1.6,3.1,4s-1.6,4.2-3.4,4.2a3.2,3.2,0,0,1-2-.8v3.8H64.7ZM70,181c0-1.5-.5-2.5-1.7-2.5a2.8,2.8,0,0,0-1.8.9v3.7a2.5,2.5,0,0,0,1.6.6C69.2,183.7,70,182.8,70,181Z" fill="#00c7f0"/><path d="M73.2,181.1a3.8,3.8,0,0,1,3.6-4.1c2.2,0,3.3,1.5,3.3,3.7a2.2,2.2,0,0,1-.1.9H75a2.3,2.3,0,0,0,2.3,2.2,3.3,3.3,0,0,0,1.9-.6l.6,1.2a5,5,0,0,1-2.7.8A3.8,3.8,0,0,1,73.2,181.1Zm5.3-.7c0-1.2-.5-2-1.6-2s-1.7.7-1.9,2Z" fill="#00c7f0"/><path d="M81.2,184.1l3.7-5.4H81.6v-1.5h5.6v1l-3.7,5.4h3.8v1.5H81.2Z" fill="#00c7f0"/><path d="M88.7,174.8a1.1,1.1,0,1,1,2.2,0,1.1,1.1,0,0,1-2.2,0Zm.2,2.4h1.8v7.9H88.9Z" fill="#00c7f0"/><path d="M93,182.1v-4.9h1.8v4.7c0,1.3.4,1.8,1.2,1.8a2.4,2.4,0,0,0,1.8-1.1v-5.4h1.8v7.9H98.1v-1.2h-.1a3.1,3.1,0,0,1-2.5,1.3C93.7,185.2,93,184.1,93,182.1Z" fill="#00c7f0"/><path d="M102,177.2h1.5v1.1h.1a3.2,3.2,0,0,1,2.4-1.3,2,2,0,0,1,2.1,1.4,3.8,3.8,0,0,1,2.6-1.4c1.6,0,2.4,1.1,2.4,3.1v5h-1.8v-4.7c0-1.3-.4-1.8-1.2-1.8a2.4,2.4,0,0,0-1.7,1v5.5h-1.8v-4.7c0-1.3-.4-1.8-1.3-1.8a2.4,2.4,0,0,0-1.6,1v5.5H102Z" fill="#00c7f0"/><rect x="178" y="94.1" width="55" height="34.17" fill="#c1272d"/><rect x="227" y="174" width="44.3" height="44.33" fill="#521740"/><polygon points="372.6 192.4 330.2 199.2 312.6 160.4 355 153.6 372.6 192.4" fill="#31b304"/><polygon points="341.5 95.4 272.8 95.4 263.6 55 330.8 55 341.5 95.4" fill="#1f7aff"/><polygon points="118 163 39.1 163 48.6 117.7 108.5 117.7 118 163" fill="#00c7f0"/><polygon points="476.6 240.4 423.8 266.5 396.4 240.4 423.8 214.3 476.6 240.4" fill="#ff941f"/><ellipse cx="336.9" cy="221.8" rx="157.1" ry="85.3" fill="none" stroke="#fff" stroke-miterlimit="10" stroke-width="2"/><ellipse cx="216.9" cy="149.3" rx="211.4" ry="135.8" fill="none" stroke="#fff" stroke-miterlimit="10" stroke-width="2"/><path d="M216.9,19.6c-37.5,0-72.7,6.4-102.9,17.5l57.8,238.8a315,315,0,0,0,45.1,3.2c113.1,0,205.2-58.2,205.2-129.8S330,19.6,216.9,19.6Z" fill="none" stroke="#fff" stroke-miterlimit="10" stroke-width="2"/><ellipse cx="226.3" cy="167.4" rx="62.8" ry="103.4" transform="translate(-47.5 102) rotate(-23.1)" fill="none" stroke="#fff" stroke-miterlimit="10" stroke-width="2"/></svg>
