<svg xmlns="http://www.w3.org/2000/svg" viewBox="0 0 240 160"><title>quadrilaterals</title><polygon points="231.9 133 22 133 55.9 28 171.7 28 231.9 133" fill="#1f7aff" opacity="0.8"/><line x1="65" y1="20" x2="161" y2="20" fill="none" stroke="#31b304" stroke-miterlimit="10" stroke-width="2"/><polygon points="57 19.5 68.9 24.4 66.1 19.5 68.9 14.6 57 19.5" fill="#31b304"/><polygon points="169 19.5 157.1 24.4 159.9 19.5 157.1 14.6 169 19.5" fill="#31b304"/><text transform="translate(101 15)" font-size="16" fill="#31b304" font-weight="700" font-style="italic">t<tspan x="5.5" y="0">op</tspan></text><rect x="38" y="28" width="164" height="105" fill="none" stroke="#b30469" stroke-miterlimit="10" stroke-width="4"/><line x1="31" y1="142" x2="224" y2="142" fill="none" stroke="#31b304" stroke-miterlimit="10" stroke-width="2"/><polygon points="22.5 142 34.4 146.9 31.6 142 34.4 137.1 22.5 142" fill="#31b304"/><polygon points="232.5 142 220.6 146.9 223.4 142 220.6 137.1 232.5 142" fill="#31b304"/><line x1="28" y1="38" x2="28" y2="123" fill="none" stroke="#ff941f" stroke-miterlimit="10" stroke-width="2"/><polygon points="28.5 29.4 23.6 41.3 28.5 38.5 33.4 41.3 28.5 29.4" fill="#ff941f"/><polygon points="28.5 131.3 23.6 119.3 28.5 122.2 33.4 119.3 28.5 131.3" fill="#ff941f"/><text transform="translate(102 158)" font-size="16" fill="#31b304" font-weight="700" font-style="italic">bottom</text><text transform="translate(11 58) rotate(90)" font-size="16" fill="#ff941f" font-weight="700" font-style="italic">height</text><line x1="39" y1="80.5" x2="43" y2="80.5" fill="none" stroke="#b30469" stroke-miterlimit="10" stroke-width="3"/><line x1="49" y1="80.5" x2="197" y2="80.5" fill="none" stroke="#b30469" stroke-miterlimit="10" stroke-width="3" stroke-dasharray="8 6"/><line x1="200" y1="80.5" x2="204" y2="80.5" fill="none" stroke="#b30469" stroke-miterlimit="10" stroke-width="3"/></svg>
