<svg viewBox="0 0 442 145" width="442" height="145">
  <rect x="234" width="26" height="145" fill="#e6e6e6"/>
  <rect x="1" y="110" width="24" height="12" rx="4" ry="4" fill="#ed1c24"/>
  <rect x="27" y="92" width="24" height="30" rx="4" ry="4" fill="#f7931e"/>
  <rect x="53" y="116" width="24" height="6" rx="3" ry="3" fill="#c1272d"/>
  <rect x="79" y="80" width="24" height="42" rx="4" ry="4" fill="#fcee21"/>
  <rect x="105" y="98" width="24" height="24" rx="4" ry="4" fill="#f7931e"/>
  <rect x="131" y="104" width="24" height="18" rx="4" ry="4" fill="#f15a24"/>
  <rect x="157" y="92" width="24" height="30" rx="4" ry="4" fill="#f7931e"/>
  <rect x="183" y="56" width="24" height="66" rx="4" ry="4" fill="#8cc63f"/>
  <rect x="209" y="110" width="24" height="12" rx="4" ry="4" fill="#ed1c24"/>
  <rect x="235" y="44" width="24" height="78" rx="4" ry="4" fill="#39b54a"/>
  <rect x="261" y="80" width="24" height="42" rx="4" ry="4" fill="#fbb03b"/>
  <rect x="287" y="92" width="24" height="30" rx="4" ry="4" fill="#f7931e"/>
  <rect x="313" y="74" width="24" height="48" rx="4" ry="4" fill="#fcee21"/>
  <rect x="339" y="20" width="24" height="102" rx="4" ry="4" fill="#009245"/>
  <rect x="365" y="104" width="24" height="18" rx="4" ry="4" fill="#f15a24"/>
  <rect x="391" y="8" width="24" height="114" rx="4" ry="4" fill="#006837"/>
  <rect x="417" y="62" width="24" height="60" rx="4" ry="4" fill="#d9e021"/>
  <text transform="translate(8.29 139)" opacity="0.8" font-size="16" fill="#999">4</text>
  <text transform="translate(34.78 139)" opacity="0.8" font-size="16" font-weight="700">5</text>
  <text transform="translate(60.49 139)" opacity="0.8" font-size="16" fill="#999">6</text>
  <text transform="translate(86.67 139)" opacity="0.8" font-size="16" font-weight="700">7</text>
  <text transform="translate(112.46 139)" opacity="0.8" font-size="16" fill="#999">8</text>
  <text transform="translate(138.49 139)" opacity="0.8" font-size="16" fill="#999">9</text>
  <text transform="translate(161.19 139)" opacity="0.8" font-size="16" fill="#999">10</text>
  <text transform="translate(188.49 139)" opacity="0.8" font-size="16" font-weight="700">11</text>
  <text transform="translate(213.87 139)" opacity="0.8" font-size="16" fill="#999">12</text>
  <text transform="translate(239.38 139)" opacity="0.8" font-size="16" font-weight="700">13</text>
  <text transform="translate(265.43 139)" opacity="0.8" font-size="16" fill="#999">14</text>
  <text transform="translate(291.93 139)" opacity="0.8" font-size="16" fill="#999">15</text>
  <text transform="translate(317.63 139)" opacity="0.8" font-size="16" fill="#999">16</text>
  <text transform="translate(343.42 139)" opacity="0.8" font-size="16" font-weight="700">17</text>
  <text transform="translate(369.6 139)" opacity="0.8" font-size="16" fill="#999">18</text>
  <text transform="translate(395.13 139)" opacity="0.8" font-size="16" font-weight="700">19</text>
  <text transform="translate(419.78 139)" opacity="0.8" font-size="16" fill="#999">20</text>
</svg>
