<svg xmlns="http://www.w3.org/2000/svg" viewBox="0 0 360 80">
  <title>Untitled-3</title>
  <line y1="54.5" x2="360" y2="54.5" fill="none" stroke="#ccc" stroke-miterlimit="10"/>
  <line x1="14.5" y1="55" x2="14.5" y2="63" fill="none" stroke="#ccc" stroke-miterlimit="10"/>
  <line x1="42.5" y1="55" x2="42.5" y2="63" fill="none" stroke="#ccc" stroke-miterlimit="10"/>
  <line x1="70.5" y1="55" x2="70.5" y2="63" fill="none" stroke="#ccc" stroke-miterlimit="10"/>
  <line x1="97.5" y1="55" x2="97.5" y2="63" fill="none" stroke="#ccc" stroke-miterlimit="10"/>
  <line x1="125.5" y1="55" x2="125.5" y2="63" fill="none" stroke="#ccc" stroke-miterlimit="10"/>
  <line x1="153.5" y1="55" x2="153.5" y2="63" fill="none" stroke="#ccc" stroke-miterlimit="10"/>
  <line x1="181.5" y1="55" x2="181.5" y2="63" fill="none" stroke="#ccc" stroke-miterlimit="10"/>
  <line x1="208.5" y1="55" x2="208.5" y2="63" fill="none" stroke="#ccc" stroke-miterlimit="10"/>
  <line x1="236.5" y1="55" x2="236.5" y2="63" fill="none" stroke="#ccc" stroke-miterlimit="10"/>
  <line x1="264.5" y1="55" x2="264.5" y2="63" fill="none" stroke="#ccc" stroke-miterlimit="10"/>
  <line x1="292.5" y1="55" x2="292.5" y2="63" fill="none" stroke="#ccc" stroke-miterlimit="10"/>
  <line x1="319.5" y1="55" x2="319.5" y2="63" fill="none" stroke="#ccc" stroke-miterlimit="10"/>
  <line x1="347.5" y1="55" x2="347.5" y2="63" fill="none" stroke="#ccc" stroke-miterlimit="10"/>
  <rect x="14" y="28" width="279" height="24" rx="4" ry="4" fill="#1f7aff"/>
  <text transform="translate(10.7 76)" opacity="0.8" font-size="14" fill="#ccc" font-family="Whitney">0</text>
  <text transform="translate(39.5 76)" opacity="0.8" font-size="14" fill="#ccc" font-family="Whitney">1</text>
  <text transform="translate(67.3 76)" opacity="0.8" font-size="14" fill="#ccc" font-family="Whitney">2</text>
  <text transform="translate(94.4 76)" opacity="0.8" font-size="14" fill="#ccc" font-family="Whitney">3</text>
  <text transform="translate(121.9 76)" opacity="0.8" font-size="14" fill="#ccc" font-family="Whitney">4</text>
  <text transform="translate(150.3 76)" opacity="0.8" font-size="14" fill="#ccc" font-family="Whitney">5</text>
  <text transform="translate(178.1 76)" opacity="0.8" font-size="14" fill="#ccc" font-family="Whitney">6</text>
  <text transform="translate(205.3 76)" opacity="0.8" font-size="14" fill="#ccc" font-family="Whitney">7</text>
  <text transform="translate(233 76)" opacity="0.8" font-size="14" fill="#ccc" font-family="Whitney">8</text>
  <text transform="translate(261.1 76)" opacity="0.8" font-size="14" fill="#ccc" font-family="Whitney">9</text>
  <text transform="translate(286.2 76)" opacity="0.8" font-size="14" fill="#ccc" font-family="Whitney">10</text>
  <text transform="translate(315 76)" opacity="0.8" font-size="14" fill="#ccc" font-family="Whitney">11</text>
  <text transform="translate(341.8 76)" opacity="0.8" font-size="14" fill="#ccc" font-family="Whitney">12</text>
  <rect x="14" y="2" width="110" height="24" rx="4" ry="4" fill="#31b304"/>
  <rect x="126" y="2" width="110" height="24" rx="4" ry="4" fill="#31b304"/>
  <rect x="238" y="2" width="110" height="24" rx="4" ry="4" fill="#31b304"/>
  <text transform="translate(63.7 20)" opacity="0.8" font-size="18" fill="#fff" font-family="Whitney">4</text>
  <text transform="translate(175.7 20)" opacity="0.8" font-size="18" fill="#fff" font-family="Whitney">4</text>
  <text transform="translate(287.7 20)" opacity="0.8" font-size="18" fill="#fff" font-family="Whitney">4</text>
  <text transform="translate(145.2 46.2)" opacity="0.8" font-size="18" fill="#fff" font-family="Whitney">10</text>
</svg>
