<svg xmlns="http://www.w3.org/2000/svg" viewBox="0 0 760 290">
  <path d="M610.48,51.23C566,37.21,516.95,30,469.45,30H290.88c-47.5,0-96.56,7.21-141.08,21.23C101,66.6,59.71,89.49,34.57,117.53,5.15,150.34.75,186.72,29,218.54c32.51,36.6,100.48,59.21,187.44,59.21H543.31c87,0,155-22.61,187.57-59.21,28.34-31.82,24-68.2-5.32-101C700.48,89.49,659.25,66.6,610.48,51.23ZM533.74,245.66H226.09C82.55,245.66,19.54,179,69.16,117.53c37.62-46.63,132.3-77,218.56-77H472.59c86.26,0,180.87,30.37,218.38,77C740.45,179,677.28,245.66,533.74,245.66Z" fill="#8d3012" stroke="#fff" stroke-miterlimit="10"/>
  <path d="M472.76,41.13H287.54c-85.59,0-179.42,30.17-216.5,76.4C22.26,178.34,84.87,244,226.58,244H533.25c141.71,0,204.47-65.69,155.84-126.5C652.12,71.3,558.36,41.13,472.76,41.13Zm52,174.54H235.1c-109.94,0-164.08-49.57-129.48-98.14,27.64-38.8,105.63-65.05,178.5-65.05h192c72.87,0,150.8,26.25,178.36,65.05C689,166.11,634.74,215.67,524.8,215.67Z" fill="#8d3012" stroke="#fff" stroke-miterlimit="10"/>
  <path d="M476.34,53.12H283.93c-72.16,0-149.27,26-176.43,64.41-33.91,47.93,19.72,96.69,128,96.69H524.37c108.32,0,162.06-48.76,128.26-96.69C625.55,79.14,548.5,53.12,476.34,53.12ZM516.84,189H243.12c-80.05,0-123.51-35.08-101-71.46C161,86.92,221.83,65.39,280.25,65.39H480c58.42,0,119.2,21.54,138,52.14C640.43,153.91,596.9,189,516.84,189Z" fill="#8d3012" stroke="#fff" stroke-miterlimit="10"/>
  <g class="lap-times">
      <g>
        <rect x="335" y="151" width="49" height="24" rx="4" ry="4" fill="#1f7aff"/>
        <text transform="translate(351.86 171)" font-size="21" fill="#fff" font-family="OCR A Std" letter-spacing="-2">60</text>
      </g>
      <g>
        <rect x="388" y="151" width="49" height="24" rx="4" ry="4" fill="#1f7aff"/>
        <text transform="translate(391.84 171)" font-size="21" fill="#fff" font-family="OCR A Std" letter-spacing="-2">120</text>
      </g>
  </g>
  <g class="lap-times">
      <g>
        <rect x="308" y="124" width="49" height="24" rx="4" ry="4" fill="#31b304"/>
        <text transform="translate(324.86 144)" font-size="21" fill="#fff" font-family="OCR A Std" letter-spacing="-2">40</text>
      </g>
      <g>
        <rect x="361" y="124" width="49" height="24" rx="4" ry="4" fill="#31b304"/>
        <text transform="translate(377.86 144)" font-size="21" fill="#fff" font-family="OCR A Std" letter-spacing="-2">80</text>
      </g>
      <g>
        <rect x="414" y="124" width="49" height="24" rx="4" ry="4" fill="#31b304"/>
        <text transform="translate(417.84 144)" font-size="21" fill="#fff" font-family="OCR A Std" letter-spacing="-2">120</text>
      </g>
  </g>
  <circle cx="384" cy="221" r="24" fill="#1f7aff"/>
  <circle cx="384" cy="241" r="24" fill="#31b304"/>
  <path class="runner-path" d="M386,222c49.54,0.68,105.11.3,154.11-2.79,45.26-2.86,148.67-20,128.89-85.3C648.7,66.79,520.18,51.55,462.63,51.55c-99.5,0-214.92-13.7-307.56,27.38-50.84,22.54-99.12,73.89-37.93,114.51,42.9,28.48,100.94,26.17,151,26.38,38.38,0.16,77.09,1.1,115.83,1.69" fill="none" stroke="none"/>
  <path class="runner-path" d="M386.88,241.5c54.29,0.79,115.18.35,168.87-3.22,49.59-3.3,162.9-23,141.23-98.39-22.25-77.41-163.07-95-226.13-95-109,0-235.5-15.8-337,31.59-55.71,26-108.61,85.23-41.56,132.09,47,32.85,110.6,30.19,165.49,30.43,42.06,0.19,84.47,1.27,126.91,2" fill="none" stroke="none"/>
</svg>
