<svg viewBox="0 0 510.2 453.5" xmlns="http://www.w3.org/2000/svg"><path d="m267.1 206.7-2.8 13h-18.5l-2.7-13 .5-7.7h22.8z" fill="#ddbb79"/><path d="m234.8 216.6h39.3v34.72h-39.3z" fill="#fff"/><path d="m229.5 222.2-1-3a82.7 82.7 0 0 1 28-4.7 84.3 84.3 0 0 1 25.5 3.9l-.9 3.1a82.4 82.4 0 0 0 -51.6.7z" fill="#201850"/><path d="m288 212.2-19.9-2.2-12.2 33.3h-1.7l-11.1-36.6-21.8 5.5-5.3 3.9-5.8 6.3-13.8 11.5-14 13.1-28.8 24.1 8.8 10.9 33.5-18.6 26.4-14.1 1.8 9.3v32.3l-2 25.7h65.9l1.7-61.8z" fill="#212628"/><path d="m161.3 280.1-6.1 6.2-5.7 7.8-9 3.6-6.5-5.1 1.3-5.5 4.4-3.6 6.7-3.5 9.7-6z" fill="#dcbd75"/><path d="m129.2 293.9h5v7.8h-5z" fill="#d4d4d4" transform="matrix(.75927131 -.65077422 .65077422 .75927131 -162 157.2)"/><path d="m50.1 313.3h122.1v4.28h-122.1z" fill="#d4d4d4" transform="matrix(.75927131 -.65077422 .65077422 .75927131 -178.5 148.3)"/><path d="m84.4 319.1h81.8v81.76h-81.8z" fill="#fab526" transform="matrix(.75927131 -.65077422 .65077422 .75927131 -204 168)"/><path d="m183 364.4-115.3-8.9 53.1 62.1z" fill="#ce450d"/><path d="m154.8 272.5-6.1 4.6-7.8 2.3-4.7 5-2.4 4.9-3.2 3.9 2.7 1 4.7-4.6 4.7-3.8 5.4-3 7.9-8.8z" fill="#e8c678"/><path d="m153 284.9-.4 5-3.1 4.2-9 3.6-2.7-2.1 1.9-6.4 2.4-.1 2.1-2.5 1.9.8 2.6-2.6z" fill="#f4cd84"/><path d="m288 316.6h-65.9l-3 57.4-8.4 77.9h40.7l3.5-104.6 1.4-.1 2.6 104.7h40.8l-9-77.5z" fill="#1b2122"/><path d="m302.9 446.2-20.3-2.5v-.1l-22.1 8.2v1.7h9.6l5.5-1 4.1 1h16.3 4.9 4.1z" fill="#1d1d1b"/><path d="m207.7 446.2 20.2-2.5.1-.1 22 8.2v1.7h-9.6l-5.4-1-4.1 1h-16.4-4.8-4.2z" fill="#1d1d1b"/><path d="m269.6 164.1h-29.2v33.2l9.5 8.9h11.4l8.3-8.9z" fill="#f1d094"/><path d="m269.6 164.1h-14.5v42.1h6.2l8.3-8.9z" fill="#f5daac"/><path d="m239.1 171h31.8v7.31h-31.8z" fill="#1d1d1b"/><path d="m275.3 160.2h-39.6l3.4 5.8v5h31.8v-5.2z" fill="#d6d6d6"/><path d="m238.3 180.7h2.1v10.45h-2.1z" fill="#ddbb79"/><path d="m269.6 180.7h2.1v10.45h-2.1z" fill="#ddbb79"/><path d="m235.7 160.2h39.6l-4.4 5.6-31.8.2z" fill="#d0d0d0"/><path d="m267.1 206.7 20.9 5.5-32.1 31.1z" fill="#0055a3"/><path d="m243.1 206.7-21.8 5.5 32.9 31.1z" fill="#0055a3"/><g fill="#fff"><path d="m286.5 211.8-29.2 27-.4 1.5 30.5-28.3z"/><path d="m285 211.4-26.8 24.6-.4 1.4 28.1-25.8z"/><path d="m283.3 211-24.3 22.3-.4 1.4 25.6-23.5z"/><path d="m252.8 238.7-29.5-27-.9.2 30.8 28.2z"/><path d="m251.9 236-26.9-24.7-.9.2 28.3 25.9z"/><path d="m251.1 233.3-24.4-22.5-.9.3 25.8 23.6z"/></g><g fill="#212628"><path d="m270.1 300.2 10.9-36.9 4.4-35.1 2.6-16 3.9 1.5 2.5 7 5.6 20.6-1.4 29.8-15.6 34.8z"/><path d="m260.3 330.1h5v7.8h-5z" transform="matrix(.37945616 -.92520972 .92520972 .37945616 -146 450.2)"/><path d="m273.8 301.8 3.9 1.7-46.4 112.8-3.9-1.7z"/><path d="m244.5 351.2h81.8v81.76h-81.8z" transform="matrix(.37945616 -.92520972 .92520972 .37945616 -185.7 507.5)"/><path d="m338.7 369.8-106.7 44.7 75.7 31z"/><path d="m271.4 300.8-2.7 5.4-6.4 6.1-2 7.2.1 6-.8 3.6 3-.3 2-5.1 2.7-6.1 3.7-5.5 2.8-10.3z"/><path d="m281.3 305.2-.7 1.3-2.8 5.3-1.1 8.6-1.4 1.2-.7 1.8-1.8 1-1 1.8-1.9.4-.5 1.9-3.3.6-5.8-9.6 2-7.2 6.4-6.1 2.7-5.4z"/><path d="m270.1 300.2 10.9-36.9 4.4-35.1 2.6-16 3.9 1.5 2.5 7 5.6 20.6-1.4 29.8-15.6 34.8z"/></g><path d="m260.3 330.1h5v7.8h-5z" fill="#d4d4d4" transform="matrix(.37945616 -.92520972 .92520972 .37945616 -146 450.2)"/><path d="m273.8 301.8 3.9 1.7-46.4 112.8-3.9-1.7z" fill="#d4d4d4"/><path d="m244.5 351.2h81.8v81.76h-81.8z" fill="#fab526" transform="matrix(.37945616 -.92520972 .92520972 .37945616 -185.7 507.5)"/><path d="m338.7 369.8-106.7 44.7 75.7 31z" fill="#ce450d"/><path d="m271.4 300.8-2.7 5.4-6.4 6.1-2 7.2.1 6-.8 3.6 3-.3 2-5.1 2.7-6.1 3.7-5.5 2.8-10.3z" fill="#ccb06d"/><path d="m281.3 305.2-.7 1.3-2.8 5.3-1.1 8.6-1.4 1.2-.7 1.8-1.8 1-1 1.8-1.9.4-.5 1.9-3.3.6-5.8-9.6 2-7.2 6.4-6.1 2.7-5.4z" fill="#dcbd75"/></svg>