<svg viewBox="0 0 510.2 453.5" xmlns="http://www.w3.org/2000/svg"><path d="m135.6 225.5-8.7.7-9.3 2.2-9.2-3.1-1.6-8.1 4.6-3.4 5.7.2 7.2 1.7 11.4 1.7z" fill="#dcbd75"/><path d="m99.2 215.8h5v7.8h-5z" fill="#d4d4d4"/><path d="m13.6 217.6h122.1v4.28h-122.1z" fill="#d4d4d4"/><path d="m15.5 221.8h81.8v81.76h-81.8z" fill="#fab526"/><path d="m97.3 303.6-81.8-81.8v81.8z" fill="#ce450d"/><path d="m135.7 215.5-7.6-.5-7.5-3.4-6.8.8-5 2.2-5 .9 1.4 2.4 6.5-.3 6.2.1 5.9 1.2 11.8-1.5z" fill="#e8c678"/><path d="m126.2 223.7-3.6 3.5-5 1.2-9.2-3.1-.7-3.3 5.6-3.7 1.9 1.5 3.3-.5.8 1.8 3.7-.3z" fill="#f4cd84"/><path d="m243.2 206.7 2.8 13h18.5l2.7-13-.6-7.7h-22.8z" fill="#ddbb79"/><path d="m236.2 216.6h39.3v34.72h-39.3z" fill="#fff"/><path d="m280.7 222.2a81.7 81.7 0 0 0 -26.9-4.5 81.6 81.6 0 0 0 -24.6 3.8l-1-3.1a85.5 85.5 0 0 1 25.6-3.9 83.2 83.2 0 0 1 28 4.7z" fill="#201850"/><path d="m222.2 316.6h66l2.9 57.4 8.5 77.9h-40.8l-3.4-104.6-1.4-.1-2.7 104.7h-40.7l9-77.5z" fill="#1b2122"/><path d="m207.4 446.2 20.2-2.5.1-.1 22 8.2v1.7h-9.6l-5.4-1-4.1 1h-16.4-4.8-4.1z" fill="#1d1d1b"/><path d="m302.6 446.2-20.3-2.5v-.1l-22.1 8.2v1.7h9.6l5.5-1 4.1 1h16.3 4.9 4.1z" fill="#1d1d1b"/><path d="m289.8 254.8-.8-42.6-20.8-2.2-12.1 33.3h-1.8l-12.1-33.3-23.4 2.4-8.5 1-18-.2-19.1.9-37.5-.5-.4 14 37.5 7.7 49 8.6.8.6 1.3 10.9-.2 27.4-1.5 33.8h66l-1.1-33.2 2.5-18.6z" fill="#212628"/><path d="m240.6 164.1h29.3v33.2l-9.5 8.9h-11.4l-8.4-8.9z" fill="#f1d094"/><path d="m240.6 164.1h14.6v42.1h-6.2l-8.4-8.9z" fill="#f5daac"/><path d="m239.3 171h31.8v7.31h-31.8z" fill="#1d1d1b"/><path d="m235 160.2h39.6l-3.4 5.8v5h-31.9v-5.2z" fill="#d6d6d6"/><path d="m269.9 180.7h2.1v10.45h-2.1z" fill="#ddbb79"/><path d="m238.6 180.7h2.1v10.45h-2.1z" fill="#ddbb79"/><path d="m274.6 160.2h-39.6l4.3 5.6 31.9.2z" fill="#d0d0d0"/><path d="m243.2 206.7-21.8 5.5 32.9 31.1z" fill="#0055a3"/><path d="m267.2 206.7 21.8 5.5-32.9 31.1z" fill="#0055a3"/><g fill="#fff"><path d="m252.9 238.6-29.3-26.9-.9.2 30.6 28.2z"/><path d="m252.1 236-27-24.7-.9.2 28.3 25.9z"/><path d="m251.3 233.3-24.5-22.5-.9.3 25.8 23.6z"/><path d="m286.8 211.7-29.3 26.9-.4 1.5 30.6-28.2z"/><path d="m285.3 211.3-27 24.7-.4 1.4 28.3-25.9z"/><path d="m283.6 210.8-24.5 22.5-.4 1.4 25.8-23.6z"/></g><g fill="#212628"><path d="m269.4 300.2 10.9-36.9 4.3-35.1 4.4-16 2.1 1.5 2.6 7 5.5 20.6-1.3 29.7-15.7 34.9z"/><path d="m259.6 330.1h5v7.8h-5z" transform="matrix(.37945616 -.92520972 .92520972 .37945616 -146.4 449.5)"/><path d="m273 301.8 3.9 1.7-46.3 112.8-4-1.7z"/><path d="m243.7 351.2h81.8v81.76h-81.8z" transform="matrix(.37945616 -.92520972 .92520972 .37945616 -186.1 506.8)"/><path d="m337.9 369.8-106.6 44.7 75.6 31z"/><path d="m270.6 300.8-2.6 5.4-6.4 6.1-2 7.2v6l-.8 3.6 3.1-.3 2-5.1 2.6-6.1 3.8-5.5 2.7-10.3z"/><path d="m280.6 305.2-.8 1.3-2.8 5.3-1 8.6-1.5 1.2-.7 1.8-1.8 1-1 1.8-1.9.4-.4 1.9-3.4.6-5.7-9.6 2-7.2 6.4-6.1 2.6-5.4z"/><path d="m269.4 300.2 10.9-36.9 4.3-35.1 4.4-16 2.1 1.5 2.6 7 5.5 20.6-1.3 29.7-15.7 34.9z"/></g><path d="m259.6 330.1h5v7.8h-5z" fill="#d4d4d4" transform="matrix(.37945616 -.92520972 .92520972 .37945616 -146.4 449.5)"/><path d="m273 301.8 3.9 1.7-46.3 112.8-4-1.7z" fill="#d4d4d4"/><path d="m243.7 351.2h81.8v81.76h-81.8z" fill="#fab526" transform="matrix(.37945616 -.92520972 .92520972 .37945616 -186.1 506.8)"/><path d="m337.9 369.8-106.6 44.7 75.6 31z" fill="#ce450d"/><path d="m270.6 300.8-2.6 5.4-6.4 6.1-2 7.2v6l-.8 3.6 3.1-.3 2-5.1 2.6-6.1 3.8-5.5 2.7-10.3z" fill="#ccb06d"/><path d="m280.6 305.2-.8 1.3-2.8 5.3-1 8.6-1.5 1.2-.7 1.8-1.8 1-1 1.8-1.9.4-.4 1.9-3.4.6-5.7-9.6 2-7.2 6.4-6.1 2.6-5.4z" fill="#dcbd75"/></svg>