<svg viewBox="0 0 510.2 453.5" xmlns="http://www.w3.org/2000/svg"><path d="m166.1 159.9-6.6-5.6-8.2-5.1-4.3-8.7 4.7-6.8 5.6.8 3.9 4.2 3.9 6.3 6.8 9.3z" fill="#dcbd75"/><path d="m142.4 129.3h7.8v5.01h-7.8z" fill="#d4d4d4" transform="matrix(.70833984 -.70587157 .70587157 .70833984 -50.4 141.6)"/><path d="m125.1 51.6h4.3v122.13h-4.3z" fill="#d4d4d4" transform="matrix(.70833984 -.70587157 .70587157 .70833984 -42.4 122.6)"/><path d="m43 89.2h81.8v81.76h-81.8z" fill="#fab526" transform="matrix(.70833984 -.70587157 .70587157 .70833984 -67.3 97)"/><path d="m83.7 187.9.3-115.7-58 57.7z" fill="#ce450d"/><path d="m173.2 152.9-5-5.7-2.8-7.7-5.4-4.2-5.1-2.1-4.1-2.9-.8 2.7 4.9 4.4 4.2 4.5 3.3 5.1 9.4 7.2z" fill="#e8c678"/><path d="m160.7 152h-5l-4.4-2.8-4.3-8.7 1.9-2.8 6.6 1.4.2 2.4 2.7 1.9-.7 1.9 2.8 2.4z" fill="#f4cd84"/><path d="m244.9 206.7 2.8 13h18.5l2.7-13-.5-7.7h-22.8z" fill="#ddbb79"/><path d="m237.9 216.6h39.3v34.72h-39.3z" fill="#fff"/><path d="m282.5 222.2a82.2 82.2 0 0 0 -27-4.5 82.1 82.1 0 0 0 -24.6 3.8l-.9-3.1a84.3 84.3 0 0 1 25.5-3.9 82.7 82.7 0 0 1 28 4.7z" fill="#201850"/><path d="m224 316.6h65.9l3 57.4 8.4 77.9h-40.7l-3.5-104.6-1.4-.1-2.7 104.7h-40.7l9-77.5z" fill="#1b2122"/><path d="m209.1 446.2 20.2-2.5.1-.1 22.1 8.2v1.7h-9.7l-5.4-1-4.1 1h-16.3-4.9-4.1z" fill="#1d1d1b"/><path d="m304.3 446.2-20.2-2.5-.1-.1-22 8.2v1.7h9.6l5.4-1 4.1 1h16.4 4.8 4.1z" fill="#1d1d1b"/><path d="m291.6 254.8-.9-42.6-20.8-2.2-12.1 33.3h-1.8l-12.1-33.3-15.8-6.7-3.8-1.9-12.5-12.9-14.1-13-23.1-23.9-10.3 9.6 21.3 32.1 33.6 37.3 6.4 24.8-.2 27.4-1.4 33.8h65.9l-1.1-33.2 2.5-18.6z" fill="#212628"/><path d="m242.4 164.1h29.2v33.2l-9.5 8.9h-11.4l-8.3-8.9z" fill="#f1d094"/><path d="m242.4 164.1h14.5v42.1h-6.2l-8.3-8.9z" fill="#f5daac"/><path d="m241.1 171h31.8v7.31h-31.8z" fill="#1d1d1b"/><path d="m236.7 160.2h39.6l-3.4 5.8v5h-31.8v-5.2z" fill="#d6d6d6"/><path d="m271.6 180.7h2.1v10.45h-2.1z" fill="#ddbb79"/><path d="m240.3 180.7h2.1v10.45h-2.1z" fill="#ddbb79"/><path d="m276.3 160.2h-39.6l4.4 5.6 31.8.2z" fill="#d0d0d0"/><path d="m244.9 206.7-16.8-3.4 27.9 40z" fill="#0055a3"/><path d="m268.9 206.7 21.8 5.5-32.9 31.1z" fill="#0055a3"/><g fill="#fff"><path d="m288.5 211.7-29.3 26.9-.4 1.5 30.6-28.2z"/><path d="m287 211.3-27 24.7-.4 1.4 28.3-25.9z"/><path d="m285.3 210.8-24.4 22.5-.5 1.4 25.8-23.6z"/><path d="m254.2 237.2-23.4-33.4-1.1-.2 25.2 36z"/><path d="m252.9 232.9-20.2-28.7-1.1-.2 22 31.2z"/><path d="m251.5 228.5-16.8-23.9-1-.2 18.5 26.4z"/></g><g fill="#212628"><path d="m270.9 300.2 10.8-36.9 4.4-35.1 4.6-16 1.9 1.5 2.6 7 5.5 20.6-1.3 29.7-15.7 34.9z"/><path d="m261.1 330.1h5v7.8h-5z" transform="matrix(.37945616 -.92520972 .92520972 .37945616 -145.5 450.8)"/><path d="m274.5 301.8 3.9 1.7-46.4 112.8-3.9-1.7z"/><path d="m245.2 351.2h81.8v81.76h-81.8z" transform="matrix(.37945616 -.92520972 .92520972 .37945616 -185.2 508.2)"/><path d="m339.4 369.8-106.6 44.7 75.6 31z"/><path d="m272.1 300.8-2.6 5.4-6.5 6.1-2 7.2.1 6-.8 3.6 3-.3 2-5.1 2.7-6.1 3.7-5.5 2.8-10.3z"/><path d="m282 305.2-.7 1.3-2.8 5.3-1.1 8.6-1.4 1.2-.7 1.8-1.8 1-1 1.8-1.9.4-.4 1.9-3.4.6-5.8-9.6 2-7.2 6.5-6.1 2.6-5.4z"/><path d="m270.9 300.2 10.8-36.9 4.4-35.1 4.6-16 1.9 1.5 2.6 7 5.5 20.6-1.3 29.7-15.7 34.9z"/></g><path d="m261.1 330.1h5v7.8h-5z" fill="#d4d4d4" transform="matrix(.37945616 -.92520972 .92520972 .37945616 -145.5 450.8)"/><path d="m274.5 301.8 3.9 1.7-46.4 112.8-3.9-1.7z" fill="#d4d4d4"/><path d="m245.2 351.2h81.8v81.76h-81.8z" fill="#fab526" transform="matrix(.37945616 -.92520972 .92520972 .37945616 -185.2 508.2)"/><path d="m339.4 369.8-106.6 44.7 75.6 31z" fill="#ce450d"/><path d="m272.1 300.8-2.6 5.4-6.5 6.1-2 7.2.1 6-.8 3.6 3-.3 2-5.1 2.7-6.1 3.7-5.5 2.8-10.3z" fill="#ccb06d"/><path d="m282 305.2-.7 1.3-2.8 5.3-1.1 8.6-1.4 1.2-.7 1.8-1.8 1-1 1.8-1.9.4-.4 1.9-3.4.6-5.8-9.6 2-7.2 6.5-6.1 2.6-5.4z" fill="#dcbd75"/></svg>