<svg viewBox="0 0 510.2 453.5" xmlns="http://www.w3.org/2000/svg"><path d="m266.7 206.7-2.8 13h-18.5l-2.7-13 .5-7.7h22.8z" fill="#ddbb79"/><path d="m234.4 216.6h39.3v34.72h-39.3z" fill="#fff"/><path d="m229.1 222.2-1-3a82.7 82.7 0 0 1 28-4.7 84.3 84.3 0 0 1 25.5 3.9l-.9 3.1a82.4 82.4 0 0 0 -51.6.7z" fill="#201850"/><path d="m285.7 258.6 2.7-40.8-20.7-7.8-12.2 33.3h-1.7l-12.1-33.3-10.3-11-.7-2.4-2-17.9-.8-19.2.5-33.2-14-.4-5.5 40.1.5 50.1 14.3 50.9v23.9l-2 25.7h65.9l-1.9-25.7z" fill="#212628"/><path d="m216.6 126.2-.7-8.7-2.2-9.4 3.1-9.1 8.1-1.6 3.4 4.6-.2 5.7-1.7 7.2-1.8 11.4z" fill="#dcbd75"/><path d="m219.9 88.4h5v7.8h-5z" fill="#d4d4d4" transform="matrix(.00174533 -.99999848 .99999848 .00174533 129.6 314.5)"/><path d="m161.4 63.1h122.1v4.28h-122.1z" fill="#d4d4d4" transform="matrix(.00174533 -.99999848 .99999848 .00174533 156.9 287.6)"/><path d="m138.7 6h81.8v81.76h-81.8z" fill="#fab526" transform="matrix(.00174533 -.99999848 .99999848 .00174533 132.2 226.3)"/><path d="m138.6 87.7 81.9-81.6-81.7-.2z" fill="#ce450d"/><path d="m226.6 126.3.5-7.6 3.4-7.5-.8-6.8-2.2-5-.8-5-2.5 1.4.4 6.5-.2 6.2-1.3 5.9 1.5 11.8z" fill="#e8c678"/><path d="m218.4 116.7-3.5-3.5-1.2-5.1 3.1-9.1 3.4-.7 3.6 5.6-1.5 1.9.5 3.3-1.8.8.3 3.7z" fill="#f4cd84"/><path d="m287.6 316.6h-65.9l-3 57.4-8.4 77.9h40.7l3.5-104.6 1.4-.1 2.6 104.7h40.8l-9-77.5z" fill="#1b2122"/><path d="m302.5 446.2-20.3-2.5v-.1l-22.1 8.2v1.7h9.6l5.5-1 4.1 1h16.3 4.9 4.1z" fill="#1d1d1b"/><path d="m207.3 446.2 20.2-2.5.1-.1 22 8.2v1.7h-9.6l-5.4-1-4.1 1h-16.4-4.8-4.2z" fill="#1d1d1b"/><path d="m269.2 164.1h-29.2v33.2l9.5 8.9h11.4l8.3-8.9z" fill="#f1d094"/><path d="m269.2 164.1h-14.5v42.1h6.2l8.3-8.9z" fill="#f5daac"/><path d="m238.7 171h31.8v7.31h-31.8z" fill="#1d1d1b"/><path d="m274.9 160.2h-39.6l3.4 5.8v5h31.8v-5.2z" fill="#d6d6d6"/><path d="m237.9 180.7h2.1v10.45h-2.1z" fill="#ddbb79"/><path d="m269.2 180.7h2.1v10.45h-2.1z" fill="#ddbb79"/><path d="m235.3 160.2h39.6l-4.4 5.6-31.8.2z" fill="#d0d0d0"/><path d="m266.7 206.7 21.7 11.1-32.9 25.5z" fill="#0055a3"/><path d="m242.9 203.9-11.5-4.9 22.4 44.3z" fill="#0055a3"/><g fill="#212628"><path d="m270.2 300.2 10.9-36.9 4.3-35.1 3-10.4 3.5 2.9 2.5 5.3 5.6 20.7-1.3 24.3-15.7 34.9z"/><path d="m260.4 330.1h5v7.8h-5z" transform="matrix(.37945616 -.92520972 .92520972 .37945616 -145.9 450.2)"/><path d="m273.8 301.8 3.9 1.7-46.3 112.8-4-1.7z"/><path d="m244.5 351.2h81.8v81.76h-81.8z" transform="matrix(.37945616 -.92520972 .92520972 .37945616 -185.6 507.6)"/><path d="m338.7 369.8-106.6 44.7 75.6 31z"/><path d="m271.4 300.8-2.6 5.4-6.4 6.1-2.1 7.2.1 6-.8 3.6 3.1-.3 2-5.1 2.6-6.1 3.8-5.5 2.7-10.3z"/><path d="m281.4 305.2-.8 1.3-2.8 5.3-1 8.6-1.5 1.2-.7 1.8-1.8 1-1 1.8-1.9.4-.4 1.9-3.4.6-5.8-9.6 2.1-7.2 6.4-6.1 2.6-5.4z"/><path d="m270.2 300.2 10.9-36.9 4.3-35.1 3-10.4 3.5 2.9 2.5 5.3 5.6 20.7-1.3 24.3-15.7 34.9z"/></g><path d="m260.4 330.1h5v7.8h-5z" fill="#d4d4d4" transform="matrix(.37945616 -.92520972 .92520972 .37945616 -145.9 450.2)"/><path d="m273.8 301.8 3.9 1.7-46.3 112.8-4-1.7z" fill="#d4d4d4"/><path d="m244.5 351.2h81.8v81.76h-81.8z" fill="#fab526" transform="matrix(.37945616 -.92520972 .92520972 .37945616 -185.6 507.6)"/><path d="m338.7 369.8-106.6 44.7 75.6 31z" fill="#ce450d"/><path d="m271.4 300.8-2.6 5.4-6.4 6.1-2.1 7.2.1 6-.8 3.6 3.1-.3 2-5.1 2.6-6.1 3.8-5.5 2.7-10.3z" fill="#ccb06d"/><path d="m281.4 305.2-.8 1.3-2.8 5.3-1 8.6-1.5 1.2-.7 1.8-1.8 1-1 1.8-1.9.4-.4 1.9-3.4.6-5.8-9.6 2.1-7.2 6.4-6.1 2.6-5.4z" fill="#dcbd75"/><g fill="#fff"><path d="m286.3 216.7-.7-.4-29.5 22.3-.4 1.3z"/><path d="m284.2 215.6-27.3 20.7-.4 1.2 28.4-21.5z"/><path d="m282.8 214.9-25.1 19-.4 1.2 26.2-19.8z"/><path d="m251.7 235.8-18.4-35.9-1.1-.5 20.5 40z"/><path d="m249.8 229.1-14.6-28.4-1.1-.5 16.7 32.4z"/><path d="m248 222.3-10.7-20.8-1.1-.4 12.7 24.7z"/></g></svg>