<svg viewBox="0 0 510.2 453.5" xmlns="http://www.w3.org/2000/svg"><path d="m343.8 159.9 6.6-5.6 8.2-5.1 4.3-8.7-4.7-6.8-5.6.8-3.9 4.2-3.9 6.3-6.8 9.3z" fill="#dcbd75"/><path d="m361.1 127.9h5v7.8h-5z" fill="#d4d4d4" transform="matrix(.70587157 -.70833984 .70833984 .70587157 13.7 296.6)"/><path d="m321.6 110.5h122.1v4.28h-122.1z" fill="#d4d4d4" transform="matrix(.70587157 -.70833984 .70833984 .70587157 32.9 304.4)"/><path d="m385.2 89.2h81.8v81.76h-81.8z" fill="#fab526" transform="matrix(.70587157 -.70833984 .70833984 .70587157 33.3 340.3)"/><path d="m426.2 187.9-.3-115.7 57.9 57.7z" fill="#ce450d"/><path d="m336.6 152.9 5-5.7 2.9-7.7 5.4-4.2 5.1-2.1 4.1-2.9.8 2.7-4.9 4.4-4.2 4.5-3.4 5.1-9.3 7.2z" fill="#e8c678"/><path d="m349.2 152h4.9l4.5-2.8 4.3-8.7-2-2.8-6.5 1.4-.3 2.4-2.6 1.9.7 1.9-2.8 2.4z" fill="#f4cd84"/><path d="m265 206.7-2.8 13h-18.5l-2.8-13 .6-7.7h22.8z" fill="#ddbb79"/><path d="m232.7 216.6h39.3v34.72h-39.3z" fill="#fff"/><path d="m227.4 222.2-1.1-3a83.2 83.2 0 0 1 28-4.7h.1a84.3 84.3 0 0 1 25.5 3.9l-1 3.1a81.4 81.4 0 0 0 -24.5-3.8h-.1a81.7 81.7 0 0 0 -26.9 4.5z" fill="#201850"/><path d="m285.9 316.6h-65.9l-3 57.4-8.4 77.9h40.7l3.5-104.6 1.3-.1 2.7 104.7h40.8l-9-77.5z" fill="#1b2122"/><path d="m300.7 446.2-20.2-2.5v-.1l-22.1 8.2v1.7h9.6l5.4-1 4.2 1h16.3 4.9 4.1z" fill="#1d1d1b"/><path d="m205.6 446.2 20.2-2.5.1-.1 22 8.2v1.7h-9.6l-5.4-1-4.2 1h-16.3-4.8-4.2z" fill="#1d1d1b"/><path d="m335.3 151.6-23.1 23.9-14.1 13-12.6 12.9-3.7 1.9-15.8 6.7-12.2 33.3h-1.7l-12.2-33.3-20.7 2.2-.9 42.6.3 10 2.5 18.6-1.1 33.2h65.9l-1.5-33.8-.1-27.4 6.4-24.8 33.6-37.3 21.2-32.1z" fill="#212628"/><path d="m267.5 164.1h-29.2v33.2l9.5 8.9h11.4l8.3-8.9z" fill="#f1d094"/><path d="m267.5 164.1h-14.5v42.1h6.2l8.3-8.9z" fill="#f5daac"/><path d="m237 171h31.8v7.31h-31.8z" fill="#1d1d1b"/><path d="m273.2 160.2h-39.6l3.4 5.8v5h31.8v-5.2z" fill="#d6d6d6"/><path d="m236.2 180.7h2.1v10.45h-2.1z" fill="#ddbb79"/><path d="m267.5 180.7h2.1v10.45h-2.1z" fill="#ddbb79"/><path d="m233.6 160.2h39.6l-4.4 5.6-31.8.2z" fill="#d0d0d0"/><path d="m265 206.7 16.8-3.4-28 40z" fill="#0055a3"/><path d="m240.9 206.7-21.7 5.5 32.9 31.1z" fill="#0055a3"/><g fill="#fff"><path d="m235.4 204h.7v42.9h-.7z" transform="matrix(.67687597 -.73609709 .73609709 .67687597 -89.8 246.1)"/><path d="m236.5 204.4h.7v40.37h-.7z" transform="matrix(.67559021 -.73727734 .73727734 .67559021 -88.7 247.6)"/><path d="m237.5 204.1h.8v38.96h-.8z" transform="matrix(.67559021 -.73727734 .73727734 .67559021 -87.7 247.9)"/></g><g fill="#212628"><path d="m239 300.2-10.9-36.9-4.3-35.1-4.6-16-1.9 1.5-2.6 7-5.5 20.6 1.3 29.7 15.7 34.9z"/><path d="m242.4 331.5h7.8v5.01h-7.8z" transform="matrix(.92520972 -.37945616 .37945616 .92520972 -108.4 118.7)"/><path d="m235.4 301.8-3.9 1.7 46.3 112.8 4-1.7z"/><path d="m182.9 351.2h81.8v81.76h-81.8z" transform="matrix(.92520972 -.37945616 .37945616 .92520972 -132 114.1)"/><path d="m170.5 369.8 106.6 44.7-75.6 31z"/><path d="m237.8 300.8 2.6 5.4 6.4 6.1 2.1 7.2-.1 6 .8 3.6-3-.3-2-5.1-2.7-6.1-3.8-5.5-2.7-10.3z"/><path d="m227.9 305.2.7 1.3 2.8 5.3 1.1 8.6 1.4 1.2.7 1.8 1.8 1 1 1.8 1.9.4.4 1.9 3.4.6 5.8-9.6-2.1-7.2-6.4-6.1-2.6-5.4z"/><path d="m239 300.2-10.9-36.9-4.3-35.1-4.6-16-1.9 1.5-2.6 7-5.5 20.6 1.3 29.7 15.7 34.9z"/></g><path d="m242.4 331.5h7.8v5.01h-7.8z" fill="#d4d4d4" transform="matrix(.92520972 -.37945616 .37945616 .92520972 -108.4 118.7)"/><path d="m235.4 301.8-3.9 1.7 46.3 112.8 4-1.7z" fill="#d4d4d4"/><path d="m182.9 351.2h81.8v81.76h-81.8z" fill="#fab526" transform="matrix(.92520972 -.37945616 .37945616 .92520972 -132 114.1)"/><path d="m170.5 369.8 106.6 44.7-75.6 31z" fill="#ce450d"/><path d="m237.8 300.8 2.6 5.4 6.4 6.1 2.1 7.2-.1 6 .8 3.6-3-.3-2-5.1-2.7-6.1-3.8-5.5-2.7-10.3z" fill="#ccb06d"/><path d="m227.9 305.2.7 1.3 2.8 5.3 1.1 8.6 1.4 1.2.7 1.8 1.8 1 1 1.8 1.9.4.4 1.9 3.4.6 5.8-9.6-2.1-7.2-6.4-6.1-2.6-5.4z" fill="#dcbd75"/><g fill="#fff"><path d="m254.4 240.3-.6-.4 26.5-37.8.6.4z"/><path d="m244.3 220.2h43.6v.75h-43.6z" transform="matrix(.57500525 -.81814972 .81814972 .57500525 -67.4 311.2)"/><path d="m243.8 219.5h42.2v.75h-42.2z" transform="matrix(.57500525 -.81814972 .81814972 .57500525 -67.4 309.9)"/></g></svg>