<svg viewBox="0 0 510.2 453.5" xmlns="http://www.w3.org/2000/svg"><path d="m374.2 225.5 8.7.7 9.4 2.2 9.1-3.1 1.6-8.1-4.6-3.4-5.6.2-7.3 1.7-11.4 1.7z" fill="#dcbd75"/><path d="m405.6 215.8h5v7.8h-5z" fill="#d4d4d4"/><path d="m374.1 217.6h122.1v4.28h-122.1z" fill="#d4d4d4"/><path d="m412.5 221.8h81.8v81.76h-81.8z" fill="#fab526"/><path d="m412.5 303.6 81.8-81.8v81.8z" fill="#ce450d"/><path d="m374.2 215.5 7.6-.5 7.4-3.4 6.8.8 5 2.2 5 .9-1.4 2.4-6.5-.3-6.2.1-5.9 1.2-11.8-1.5z" fill="#e8c678"/><path d="m383.6 223.7 3.6 3.5 5.1 1.2 9.1-3.1.7-3.3-5.6-3.7-1.9 1.5-3.3-.5-.8 1.8-3.7-.3z" fill="#f4cd84"/><path d="m266.6 206.7-2.8 13h-18.5l-2.7-13 .6-7.7h22.8z" fill="#ddbb79"/><path d="m234.4 216.6h39.3v34.72h-39.3z" fill="#fff"/><path d="m229.1 222.2-1.1-3a83.2 83.2 0 0 1 28-4.7 85.5 85.5 0 0 1 25.6 3.9l-1 3.1a81.6 81.6 0 0 0 -24.6-3.8 81.7 81.7 0 0 0 -26.9 4.5z" fill="#201850"/><path d="m287.6 316.6h-65.9l-3 57.4-8.5 77.9h40.8l3.5-104.6 1.3-.1 2.7 104.7h40.7l-8.9-77.5z" fill="#1b2122"/><path d="m302.4 446.2-20.2-2.5-.1-.1-22 8.2v1.7h9.6l5.4-1 4.2 1h16.3 4.8 4.2z" fill="#1d1d1b"/><path d="m207.3 446.2 20.2-2.5v-.1l22.1 8.2v1.7h-9.6l-5.4-1-4.2 1h-16.3-4.8-4.2z" fill="#1d1d1b"/><path d="m374.1 213.6-37.4.5-19.2-.9-18 .2-8.4-1-23.5-2.4-12.1 33.3h-1.8l-12.1-33.3-20.7 2.2-.9 42.6.3 10 2.5 18.6-1.1 33.2h65.9l-1.5-33.8-.2-27.4 1.3-10.9.8-.6 49-8.6 37.5-7.7z" fill="#212628"/><path d="m269.2 164.1h-29.2v33.2l9.4 8.9h11.5l8.3-8.9z" fill="#f1d094"/><path d="m269.2 164.1h-14.6v42.1h6.3l8.3-8.9z" fill="#f5daac"/><path d="m238.7 171h31.8v7.31h-31.8z" fill="#1d1d1b"/><path d="m274.8 160.2h-39.5l3.4 5.8v5h31.8v-5.2z" fill="#d6d6d6"/><path d="m237.9 180.7h2.1v10.45h-2.1z" fill="#ddbb79"/><path d="m269.2 180.7h2.1v10.45h-2.1z" fill="#ddbb79"/><path d="m235.3 160.2h39.5l-4.3 5.6-31.8.2z" fill="#d0d0d0"/><path d="m266.6 206.7 21.8 5.5-32.9 31.1z" fill="#0055a3"/><path d="m242.6 206.7-21.7 5.5 32.9 31.1z" fill="#0055a3"/><g fill="#fff"><path d="m286.2 211.7-29.3 26.9-.4 1.5 30.6-28.2z"/><path d="m284.7 211.3-27 24.7-.4 1.4 28.3-25.9z"/><path d="m283 210.8-24.4 22.5-.5 1.4 25.8-23.6z"/><path d="m252.3 238.6-29.3-26.9-.8.2 30.5 28.2z"/><path d="m251.5 236-27-24.7-.8.2 28.2 25.9z"/><path d="m250.7 233.3-24.5-22.5-.9.3 25.8 23.6z"/></g><g fill="#212628"><path d="m240.9 300.2-10.8-36.9-4.4-35.1-4.8-16-1.7 1.5-2.6 7-5.5 20.6 1.3 29.7 15.7 34.9z"/><path d="m244.3 331.5h7.8v5.01h-7.8z" transform="matrix(.92520972 -.37945616 .37945616 .92520972 -108.3 119.4)"/><path d="m237.3 301.8-3.9 1.7 46.4 112.8 3.9-1.7z"/><path d="m184.8 351.2h81.8v81.76h-81.8z" transform="matrix(.92520972 -.37945616 .37945616 .92520972 -131.8 114.8)"/><path d="m172.4 369.8 106.6 44.7-75.6 31z"/><path d="m239.7 300.8 2.6 5.4 6.4 6.1 2.1 7.2-.1 6 .8 3.6-3-.3-2-5.1-2.7-6.1-3.7-5.5-2.8-10.3z"/><path d="m229.8 305.2.7 1.3 2.8 5.3 1.1 8.6 1.4 1.2.7 1.8 1.8 1 1 1.8 1.9.4.4 1.9 3.4.6 5.8-9.6-2.1-7.2-6.4-6.1-2.6-5.4z"/><path d="m240.9 300.2-10.8-36.9-4.4-35.1-4.8-16-1.7 1.5-2.6 7-5.5 20.6 1.3 29.7 15.7 34.9z"/></g><path d="m244.3 331.5h7.8v5.01h-7.8z" fill="#d4d4d4" transform="matrix(.92520972 -.37945616 .37945616 .92520972 -108.3 119.4)"/><path d="m237.3 301.8-3.9 1.7 46.4 112.8 3.9-1.7z" fill="#d4d4d4"/><path d="m184.8 351.2h81.8v81.76h-81.8z" fill="#fab526" transform="matrix(.92520972 -.37945616 .37945616 .92520972 -131.8 114.8)"/><path d="m172.4 369.8 106.6 44.7-75.6 31z" fill="#ce450d"/><path d="m239.7 300.8 2.6 5.4 6.4 6.1 2.1 7.2-.1 6 .8 3.6-3-.3-2-5.1-2.7-6.1-3.7-5.5-2.8-10.3z" fill="#ccb06d"/><path d="m229.8 305.2.7 1.3 2.8 5.3 1.1 8.6 1.4 1.2.7 1.8 1.8 1 1 1.8 1.9.4.4 1.9 3.4.6 5.8-9.6-2.1-7.2-6.4-6.1-2.6-5.4z" fill="#dcbd75"/></svg>