<svg viewBox="0 0 510.2 453.5" xmlns="http://www.w3.org/2000/svg"><path d="m251.8 206.7 2.8 13h18.5l2.7-13-.6-7.7h-22.8z" fill="#ddbb79"/><path d="m244.8 216.6h39.3v34.72h-39.3z" fill="#fff"/><path d="m289.3 222.2a82.1 82.1 0 0 0 -51.5-.7l-1-3.1a85.5 85.5 0 0 1 25.6-3.9 83.2 83.2 0 0 1 28 4.7z" fill="#201850"/><path d="m357.6 280.1 6.1 6.2 5.7 7.8 8.9 3.6 6.6-5.1-1.3-5.5-4.4-3.6-6.7-3.5-9.8-6z" fill="#dcbd75"/><path d="m336.5 247-14-13.1-13.8-11.5-5.8-6.3-5.3-3.9-21.8-5.5-11.1 36.6h-1.8l-12.1-33.3-20 2.2-1.6 42.6 1.6 61.8h66l-2-25.7v-32.3l1.8-9.3 26.3 14.1 33.5 18.6 8.8-10.9z" fill="#212628"/><path d="m383.2 295.3h7.8v5.01h-7.8z" fill="#d4d4d4" transform="matrix(.65077422 -.75927131 .75927131 .65077422 -90.9 398.2)"/><path d="m405.5 254.3h4.3v122.13h-4.3z" fill="#d4d4d4" transform="matrix(.65077422 -.75927131 .75927131 .65077422 -97.1 419.7)"/><path d="m352.7 319.1h81.8v81.76h-81.8z" fill="#fab526" transform="matrix(.65077422 -.75927131 .75927131 .65077422 -135.8 424.8)"/><path d="m335.9 364.4 115.3-8.9-53.2 62.1z" fill="#ce450d"/><path d="m364 272.5 6.2 4.6 7.8 2.3 4.6 5 2.5 4.9 3.1 3.9-2.6 1-4.7-4.6-4.8-3.8-5.3-3-8-8.8z" fill="#e8c678"/><path d="m365.9 284.9.4 5 3.1 4.2 8.9 3.6 2.7-2.1-1.8-6.4-2.4-.1-2.2-2.5-1.8.8-2.6-2.6z" fill="#f4cd84"/><path d="m230.8 316.6h66l2.9 57.4 8.5 77.9h-40.8l-3.4-104.6-1.4-.1-2.7 104.7h-40.7l9-77.5z" fill="#1b2122"/><path d="m216 446.2 20.2-2.5.1-.1 22 8.2v1.7h-9.6l-5.4-1-4.1 1h-16.4-4.8-4.2z" fill="#1d1d1b"/><path d="m311.2 446.2-20.3-2.5v-.1l-22.1 8.2v1.7h9.6l5.5-1 4.1 1h16.3 4.9 4.1z" fill="#1d1d1b"/><path d="m249.2 164.1h29.2v33.2l-9.4 8.9h-11.4l-8.4-8.9z" fill="#f1d094"/><path d="m249.2 164.1h14.6v42.1h-6.2l-8.4-8.9z" fill="#f5daac"/><path d="m247.9 171h31.8v7.31h-31.8z" fill="#1d1d1b"/><path d="m243.6 160.2h39.6l-3.4 5.8v5h-31.9v-5.2z" fill="#d6d6d6"/><path d="m278.4 180.7h2.1v10.45h-2.1z" fill="#ddbb79"/><path d="m247.2 180.7h2.1v10.45h-2.1z" fill="#ddbb79"/><path d="m283.2 160.2h-39.6l4.3 5.6 31.9.2z" fill="#d0d0d0"/><path d="m251.8 206.7-21 5.5 32.1 31.1z" fill="#0055a3"/><path d="m275.8 206.7 21.8 5.5-32.9 31.1z" fill="#0055a3"/><g fill="#fff"><path d="m261.5 238.8-29.2-27-.8.2 30.5 28.3z"/><path d="m260.7 236-26.8-24.6-.9.2 28.1 25.8z"/><path d="m259.9 233.3-24.4-22.3-.8.2 25.6 23.5z"/><path d="m295.6 211.7-29.5 27-.4 1.4 30.7-28.2z"/><path d="m293.9 211.3-27 24.7-.4 1.4 28.3-25.9z"/><path d="m292.2 210.8-24.5 22.5-.4 1.4 25.8-23.6z"/></g><g fill="#212628"><path d="m248.7 300.2-10.8-36.9-4.4-35.1-2.7-16-3.8 1.5-2.6 7-5.5 20.6 1.3 29.8 15.7 34.8z"/><path d="m252.1 331.5h7.8v5.01h-7.8z" transform="matrix(.92520972 -.37945616 .37945616 .92520972 -107.7 122.3)"/><path d="m245.1 301.8-3.9 1.7 46.3 112.8 4-1.7z"/><path d="m192.6 351.2h81.8v81.76h-81.8z" transform="matrix(.92520972 -.37945616 .37945616 .92520972 -131.2 117.8)"/><path d="m180.2 369.8 106.6 44.7-75.6 31z"/><path d="m247.5 300.8 2.6 5.4 6.4 6.1 2.1 7.2-.1 6 .8 3.6-3-.3-2-5.1-2.7-6.1-3.7-5.5-2.8-10.3z"/><path d="m237.6 305.2.7 1.3 2.8 5.3 1.1 8.6 1.4 1.2.7 1.8 1.8 1 1 1.8 1.9.4.4 1.9 3.4.6 5.8-9.6-2.1-7.2-6.4-6.1-2.6-5.4z"/><path d="m248.7 300.2-10.8-36.9-4.4-35.1-2.7-16-3.8 1.5-2.6 7-5.5 20.6 1.3 29.8 15.7 34.8z"/></g><path d="m252.1 331.5h7.8v5.01h-7.8z" fill="#d4d4d4" transform="matrix(.92520972 -.37945616 .37945616 .92520972 -107.7 122.3)"/><path d="m245.1 301.8-3.9 1.7 46.3 112.8 4-1.7z" fill="#d4d4d4"/><path d="m192.6 351.2h81.8v81.76h-81.8z" fill="#fab526" transform="matrix(.92520972 -.37945616 .37945616 .92520972 -131.2 117.8)"/><path d="m180.2 369.8 106.6 44.7-75.6 31z" fill="#ce450d"/><path d="m247.5 300.8 2.6 5.4 6.4 6.1 2.1 7.2-.1 6 .8 3.6-3-.3-2-5.1-2.7-6.1-3.7-5.5-2.8-10.3z" fill="#ccb06d"/><path d="m237.6 305.2.7 1.3 2.8 5.3 1.1 8.6 1.4 1.2.7 1.8 1.8 1 1 1.8 1.9.4.4 1.9 3.4.6 5.8-9.6-2.1-7.2-6.4-6.1-2.6-5.4z" fill="#dcbd75"/></svg>