<svg viewBox="0 0 510.2 453.5" xmlns="http://www.w3.org/2000/svg"><path d="m242.7 206.7 2.8 13 18.5.1 2.7-13.1-.6-7.7h-22.8z" fill="#ddbb79"/><path d="m235.7 216.6h39.3v34.72h-39.3z" fill="#fff"/><path d="m280.2 222.2a81.7 81.7 0 0 0 -26.9-4.5 81.6 81.6 0 0 0 -24.6 3.8l-1-3.1a85.5 85.5 0 0 1 25.6-3.9 83.2 83.2 0 0 1 28 4.7z" fill="#201850"/><path d="m159.1 168.7-6.7-5.6-8.2-5.1-4.2-8.7 4.6-6.8 5.6.8 3.9 4.2 4 6.3 6.7 9.3z" fill="#dcbd75"/><path d="m289.3 254.8-.8-42.6-20.8-2.2-12.1 33.3h-1.8l-12.1-33.3-20.7 2.2-3.7-2-12.5-12.9-14.2-13-23-23.9-10.3 9.6 21.2 32.1 39.1 37.8 5.8 16.1-.2 26.8-1.5 33.8h66l-1.1-33.2 2.5-18.6z" fill="#212628"/><path d="m135.3 138.1h7.8v5.01h-7.8z" fill="#d4d4d4" transform="matrix(.70833984 -.70587157 .70587157 .70833984 -58.6 139.1)"/><path d="m118 60.4h4.3v122.13h-4.3z" fill="#d4d4d4" transform="matrix(.70833984 -.70587157 .70587157 .70833984 -50.7 120.2)"/><path d="m35.9 98h81.8v81.76h-81.8z" fill="#fab526" transform="matrix(.70833984 -.70587157 .70587157 .70833984 -75.6 94.6)"/><path d="m76.7 196.7.2-115.7-57.9 57.7z" fill="#ce450d"/><path d="m166.2 161.7-5-5.7-2.9-7.7-5.3-4.2-5.1-2.1-4.1-2.9-.8 2.7 4.9 4.4 4.2 4.5 3.3 5.1 9.4 7.2z" fill="#e8c678"/><path d="m153.7 160.8h-5l-4.5-2.8-4.2-8.7 1.9-2.8 6.5 1.4.3 2.4 2.7 1.9-.7 1.9 2.8 2.4z" fill="#f4cd84"/><path d="m221.7 316.6h66l2.9 57.4 8.5 77.9h-40.8l-3.4-104.6-1.4-.1-2.7 104.7h-40.7l9-77.5z" fill="#1b2122"/><path d="m206.9 446.2 20.2-2.5.1-.1 22 8.2v1.7h-9.6l-5.4-1-4.1 1h-16.4-4.8-4.2z" fill="#1d1d1b"/><path d="m302.1 446.2-20.3-2.5v-.1l-22.1 8.2v1.7h9.6l5.5-1 4.1 1h16.3 4.9 4.1z" fill="#1d1d1b"/><path d="m240.1 164.1h29.2v33.2l-9.4 8.9h-11.4l-8.4-8.9z" fill="#f1d094"/><path d="m240.1 164.1h14.6v42.1h-6.2l-8.4-8.9z" fill="#f5daac"/><path d="m238.8 171h31.8v7.31h-31.8z" fill="#1d1d1b"/><path d="m234.5 160.2h39.6l-3.4 5.8v5h-31.9v-5.2z" fill="#d6d6d6"/><path d="m269.3 180.7h2.1v10.45h-2.1z" fill="#ddbb79"/><path d="m238.1 180.7h2.1v10.45h-2.1z" fill="#ddbb79"/><path d="m274.1 160.2h-39.6l4.3 5.6 31.9.2z" fill="#d0d0d0"/><path d="m242.7 206.7-21.8 5.5 32.9 31.1z" fill="#0055a3"/><path d="m266.7 206.7 21.8 5.5-32.9 31.1z" fill="#0055a3"/><g fill="#fff"><path d="m252.4 238.6-29.3-26.9-.9.2 30.6 28.2z"/><path d="m251.6 236-27-24.7-.9.2 28.3 25.9z"/><path d="m250.8 233.3-24.5-22.5-.9.3 25.8 23.6z"/><path d="m286.3 211.7-29.3 26.9-.4 1.5 30.6-28.2z"/><path d="m284.8 211.3-27 24.7-.4 1.4 28.3-25.9z"/><path d="m283.1 210.8-24.5 22.5-.4 1.4 25.8-23.6z"/></g><path d="m221.8 280.6 29.9-27.4 18.7-24.4 18.1-16.6 7.9 13.9-7.1 22.3-11.1 9.5-46.8 32.9z" fill="#262c2d"/><path d="m199.9 305.3h5v7.8h-5z" fill="#d4d4d4" transform="matrix(.70833984 -.70587157 .70587157 .70833984 -159.3 233.2)"/><path d="m224.7 284 2.7 3.3-85.9 85.6-3-3z" fill="#d4d4d4"/><path d="m159.8 330.7h81.8v81.76h-81.8z" fill="#fab526" transform="matrix(.70710678 -.70710678 .70710678 .70710678 -203.9 250.6)"/><path d="m258.5 371.6h-115.7l57.8 57.8z" fill="#ce450d"/><path d="m223.1 281.9-4.6 4-8.3 3.2-4.6 5.8-2.2 5.5-2.2 3.1 2.9.9 3.8-4 4.9-4.6 5.5-3.6 6.5-8.4z" fill="#ccb06d"/><path d="m230.5 289.8-1.2 1-4.6 3.8-4.3 7.5-1.8.5-1.4 1.5-2 .1-1.6 1.4-1.9-.4-1.1 1.5-3.4-.7-1.6-11.1 4.6-5.8 8.3-3.2 4.6-4z" fill="#dcbd75"/></svg>