<svg viewBox="0 0 510.2 453.5" xmlns="http://www.w3.org/2000/svg"><path d="m378.9 232.9 8.6.7 9.4 2.2 9.2-3 1.6-8.2-4.6-3.3-5.7.1-7.3 1.7-11.3 1.8z" fill="#dcbd75"/><path d="m410.3 223.2h5v7.8h-5z" fill="#d4d4d4"/><path d="m378.8 225h122.1v4.28h-122.1z" fill="#d4d4d4"/><path d="m417.2 229.3h81.8v81.76h-81.8z" fill="#fab526"/><path d="m417.2 311 81.8-81.7v81.7z" fill="#ce450d"/><path d="m378.8 222.9 7.6-.5 7.4-3.4 6.8.8 5.1 2.2 5 .9-1.4 2.4-6.6-.3-6.1.1-6 1.3-11.7-1.6z" fill="#e8c678"/><path d="m388.3 231.1 3.5 3.5 5.1 1.2 9.2-3 .6-3.4-5.6-3.7-1.8 1.5-3.3-.5-.9 1.9-3.6-.4z" fill="#f4cd84"/><path d="m218.5 126.2-.7-8.7-2.2-9.4 3.1-9.1 8.1-1.6 3.4 4.6-.2 5.7-1.7 7.2-1.8 11.4z" fill="#dcbd75"/><path d="m221.8 88.4h5v7.8h-5z" fill="#d4d4d4" transform="matrix(.00174533 -.99999848 .99999848 .00174533 131.5 316.4)"/><path d="m163.3 63.1h122.1v4.28h-122.1z" fill="#d4d4d4" transform="matrix(.00174533 -.99999848 .99999848 .00174533 158.8 289.5)"/><path d="m140.6 6h81.8v81.76h-81.8z" fill="#fab526" transform="matrix(.00174533 -.99999848 .99999848 .00174533 134.1 228.2)"/><path d="m140.5 87.7 81.9-81.6-81.7-.2z" fill="#ce450d"/><path d="m228.5 126.3.5-7.6 3.4-7.5-.8-6.8-2.2-5-.8-5-2.5 1.4.4 6.5-.2 6.2-1.3 5.9 1.5 11.8z" fill="#e8c678"/><path d="m220.3 116.8-3.5-3.6-1.2-5.1 3.1-9.1 3.4-.7 3.6 5.6-1.5 1.9.5 3.3-1.8.8.3 3.7z" fill="#f4cd84"/><path d="m268.6 206.7-2.8 13-18.5.1-2.7-13.1.5-7.7h22.8z" fill="#ddbb79"/><path d="m236.3 216.6h39.3v34.72h-39.3z" fill="#fff"/><path d="m282.6 221.5a82.1 82.1 0 0 0 -24.6-3.8 84.5 84.5 0 0 0 -16.7 1.7l-.7-3.2a91.6 91.6 0 0 1 17.4-1.7 84.3 84.3 0 0 1 25.5 3.9z" fill="#201850"/><path d="m289.5 316.6h-65.9l-3 57.4-8.4 77.9h40.7l3.5-104.6 1.4-.1 2.6 104.7h40.8l-9-77.5z" fill="#1b2122"/><path d="m304.4 446.2-20.3-2.5v-.1l-22.1 8.2v1.7h9.6l5.5-1 4.1 1h16.3 4.9 4.1z" fill="#1d1d1b"/><path d="m209.2 446.2 20.2-2.5.1-.1 22 8.2v1.7h-9.6l-5.4-1-4.1 1h-16.4-4.8-4.2z" fill="#1d1d1b"/><path d="m378.8 221-37.5.5-19.1-.8-18 .1-8.5-1-26.1-9.8-12.2 33.3h-1.7l-12.1-33.3-10.3-11-.7-2.4-2-17.9-.8-19.2.5-33.2-14-.4-5.5 40.1.5 50.1 14.3 50.9v23.9l-2 25.7h65.9l-1.9-25.7v-32.3l.8-3.8 4.2-3.5 49-8.6 37.6-7.6z" fill="#212628"/><path d="m271.1 164.1h-29.2v33.2l9.5 8.9h11.4l8.3-8.9z" fill="#f1d094"/><path d="m271.1 164.1h-14.5v42.1h6.2l8.3-8.9z" fill="#f5daac"/><path d="m240.6 171h31.8v7.31h-31.8z" fill="#1d1d1b"/><path d="m276.8 160.2h-39.6l3.4 5.8v5h31.8v-5.2z" fill="#d6d6d6"/><path d="m239.8 180.7h2.1v10.45h-2.1z" fill="#ddbb79"/><path d="m271.1 180.7h2.1v10.45h-2.1z" fill="#ddbb79"/><path d="m237.2 160.2h39.6l-4.4 5.6-31.8.2z" fill="#d0d0d0"/><path d="m268.6 206.7 21.7 11.1-32.9 25.5z" fill="#0055a3"/><path d="m244.6 206.7-11.3-7.7 22.4 44.3z" fill="#0055a3"/><g fill="#fff"><path d="m287.5 216.3-28.4 21.5-.3 1.2 29.4-22.3z"/><path d="m286.1 215.6-26.3 19.9-.3 1.2 27.3-20.7z"/><path d="m284.7 214.9-24.2 18.3-.3 1.2 25.2-19.1z"/><path d="m253.1 234.8-17.5-34.2-1.3-.9 20 39.2z"/><path d="m250.8 227.3-12.9-25.1-1.3-.9 15.4 30z"/><path d="m248.5 219.6-8.1-15.7-1.3-.9 10.6 20.6z"/></g></svg>