<svg viewBox="0 0 510.2 453.5" xmlns="http://www.w3.org/2000/svg"><path d="m164.2 283.9-6.1 6.2-5.7 7.8-8.9 3.6-6.5-5.2 1.3-5.5 4.4-3.6 6.6-3.4 9.8-6.1z" fill="#dcbd75"/><path d="m156.6 274.8 28.7-24 14.1-13.1 13.7-11.6 5.9-6.3 6.8 33-26.9 14.3-33.5 18.6z" fill="#212628"/><path d="m132.2 297.6h5v7.8h-5z" fill="#d4d4d4" transform="matrix(.75927131 -.65077422 .65077422 .75927131 -163.7 160.1)"/><path d="m53.1 317h122.1v4.28h-122.1z" fill="#d4d4d4" transform="matrix(.75927131 -.65077422 .65077422 .75927131 -180.1 151)"/><path d="m87.4 322.8h81.8v81.76h-81.8z" fill="#fab526" transform="matrix(.75927131 -.65077422 .65077422 .75927131 -205.7 170.8)"/><path d="m185.9 368.2-115.3-9 53.2 62.1z" fill="#ce450d"/><path d="m157.8 276.3-6.1 4.5-7.8 2.3-4.7 5-2.4 5-3.2 3.8 2.6 1 4.8-4.5 4.7-3.9 5.4-2.9 7.9-8.8z" fill="#e8c678"/><path d="m155.9 288.7-.4 4.9-3.1 4.3-8.9 3.6-2.7-2.2 1.9-6.4h2.4l2.1-2.6 1.9.9 2.5-2.7z" fill="#f4cd84"/><path d="m296.1 126.2.7-8.7 2.2-9.4-3.1-9.1-8.1-1.6-3.4 4.6.2 5.7 1.7 7.2 1.8 11.4z" fill="#dcbd75"/><path d="m284.3 126.3.5 33.2-.8 19.2-2 17.9-.6 2.4 7.5 68.4 14.5-51.3.4-50.1-5.5-40.1z" fill="#212628"/><path d="m286.4 89.8h7.8v5.01h-7.8z" fill="#d4d4d4" transform="matrix(.99999848 -.00174533 .00174533 .99999848 -.2 .7)"/><path d="m288.1 4.2h4.3v122.13h-4.3z" fill="#d4d4d4" transform="matrix(.99999848 -.00174533 .00174533 .99999848 -.1 .6)"/><path d="m292.3 6h81.8v81.76h-81.8z" fill="#fab526" transform="matrix(.99999848 -.00174533 .00174533 .99999848 -.1 .8)"/><path d="m374.2 87.7-82-81.6 81.8-.2z" fill="#ce450d"/><path d="m286.1 126.3-.5-7.6-3.3-7.5.7-6.8 2.2-5 .8-5 2.5 1.4-.3 6.5.1 6.2 1.3 5.9-1.5 11.8z" fill="#e8c678"/><path d="m294.4 116.7 3.5-3.5 1.1-5.1-3.1-9.1-3.3-.7-3.7 5.6 1.5 1.9-.5 3.3 1.9.8-.3 3.7z" fill="#f4cd84"/><path d="m246 206.7 2.8 13 18.5.1 2.8-13.1-.6-7.7h-22.8z" fill="#ddbb79"/><path d="m239 216.6h39.3v34.72h-39.3z" fill="#fff"/><path d="m232.1 221.5-1-3.1a84.3 84.3 0 0 1 25.5-3.9h.1a85.9 85.9 0 0 1 18.2 1.9l-.7 3.2a85.3 85.3 0 0 0 -17.5-1.9h-.1a81.4 81.4 0 0 0 -24.5 3.8z" fill="#201850"/><path d="m225.1 316.6h65.9l3 57.4 8.4 77.9h-40.7l-3.5-104.6-1.3-.1-2.7 104.7h-40.8l9-77.5z" fill="#1b2122"/><path d="m210.3 446.2 20.2-2.5v-.1l22.1 8.2v1.7h-9.6l-5.4-1-4.2 1h-16.3-4.8-4.2z" fill="#1d1d1b"/><path d="m305.4 446.2-20.2-2.5-.1-.1-22 8.2v1.7h9.6l5.4-1 4.2 1h16.3 4.8 4.2z" fill="#1d1d1b"/><path d="m258.9 243.3 12.2-33.3 10.3-11 7.7 59.6v32.3l1.9 25.7h-65.9l1.9-25.7v-32.3l-8-38.8 26-9.8 12.2 33.3z" fill="#212628"/><path d="m243.5 164.1h29.2v33.2l-9.5 8.9h-11.4l-8.3-8.9z" fill="#f1d094"/><path d="m243.5 164.1h14.5v42.1h-6.2l-8.3-8.9z" fill="#f5daac"/><path d="m242.2 171h31.8v7.31h-31.8z" fill="#1d1d1b"/><path d="m237.8 160.2h39.6l-3.4 5.8v5h-31.8v-5.2z" fill="#d6d6d6"/><path d="m272.7 180.7h2.1v10.45h-2.1z" fill="#ddbb79"/><path d="m241.4 180.7h2.1v10.45h-2.1z" fill="#ddbb79"/><path d="m277.4 160.2h-39.6l4.4 5.6 31.8.2z" fill="#d0d0d0"/><path d="m246 206.7-21.7 11.1 32.9 25.5z" fill="#0055a3"/><path d="m270.1 206.7 11.3-7.7-22.5 44.3z" fill="#0055a3"/><g fill="#fff"><path d="m255.5 237.8-28.4-21.5-.7.4 29.5 22.3z"/><path d="m254.8 235.5-26.3-19.9-.7.4 27.4 20.7z"/><path d="m254.1 233.2-24.2-18.3-.7.4 25.2 19.1z"/><path d="m279 200.6-17.5 34.2-1.2 4.1 20-39.2z"/><path d="m276.7 202.2-12.9 25.1-1.2 4 15.4-30z"/><path d="m274.2 203.9-8.1 15.7-1.2 4 10.6-20.6z"/></g></svg>