<svg viewBox="0 0 510.2 453.5" xmlns="http://www.w3.org/2000/svg"><path d="m266.6 206.7-2.8 13-18.5.1-2.8-13.1.6-7.7h22.8z" fill="#ddbb79"/><path d="m234.3 216.6h39.3v34.72h-39.3z" fill="#fff"/><path d="m229 222.2-1.1-3a85.9 85.9 0 0 1 53.6-.8l-1 3.1a81.4 81.4 0 0 0 -24.5-3.8 82.2 82.2 0 0 0 -27 4.5z" fill="#201850"/><path d="m160.7 283.9-6.1 6.2-5.6 7.8-9 3.6-6.5-5.2 1.3-5.5 4.4-3.6 6.6-3.4 9.8-6.1z" fill="#dcbd75"/><path d="m347.2 160.9-23.1 23.8-14.1 13-12.6 12.9-3.8 2.1v.1l-26-2.8-12.2 33.3h-1.7l-12.2-33.3-26 9.8-5.8 6.3-13.8 11.6-14 13.1-28.8 24 8.8 10.9 33.5-18.6 26.9-14.3 1.2 5.8v32.3l-1.9 25.7h65.9l1.4-49.3 13.6-24 33.7-40.8 21.2-32z" fill="#212628"/><path d="m128.7 297.6h5v7.8h-5z" fill="#d4d4d4" transform="matrix(.75927131 -.65077422 .65077422 .75927131 -164.6 157.8)"/><path d="m49.6 317h122.1v4.28h-122.1z" fill="#d4d4d4" transform="matrix(.75927131 -.65077422 .65077422 .75927131 -181 148.8)"/><path d="m83.9 322.8h81.8v81.76h-81.8z" fill="#fab526" transform="matrix(.75927131 -.65077422 .65077422 .75927131 -206.5 168.6)"/><path d="m182.4 368.2-115.2-9 53.1 62.1z" fill="#ce450d"/><path d="m154.3 276.3-6.1 4.5-7.8 2.3-4.7 5-2.4 5-3.2 3.8 2.6 1 4.8-4.5 4.7-3.9 5.4-2.9 7.9-8.8z" fill="#e8c678"/><path d="m152.4 288.7-.4 4.9-3 4.3-9 3.6-2.7-2.2 1.9-6.4h2.4l2.1-2.6 1.9.9 2.6-2.7z" fill="#f4cd84"/><path d="m287.5 316.6h-65.9l-3 57.4-8.4 77.9h40.7l3.5-104.6 1.3-.1 2.7 104.7h40.8l-9-77.5z" fill="#1b2122"/><path d="m302.3 446.2-20.2-2.5v-.1l-22.1 8.2v1.7h9.6l5.4-1 4.2 1h16.3 4.9 4.1z" fill="#1d1d1b"/><path d="m207.2 446.2 20.2-2.5.1-.1 22 8.2v1.7h-9.6l-5.4-1-4.2 1h-16.3-4.8-4.2z" fill="#1d1d1b"/><path d="m269.1 164.1h-29.2v33.2l9.5 8.9h11.4l8.3-8.9z" fill="#f1d094"/><path d="m269.1 164.1h-14.5v42.1h6.2l8.3-8.9z" fill="#f5daac"/><path d="m238.6 171h31.8v7.31h-31.8z" fill="#1d1d1b"/><path d="m274.8 160.2h-39.6l3.4 5.8v5h31.8v-5.2z" fill="#d6d6d6"/><path d="m237.8 180.7h2.1v10.45h-2.1z" fill="#ddbb79"/><path d="m269.1 180.7h2.1v10.45h-2.1z" fill="#ddbb79"/><path d="m235.2 160.2h39.6l-4.4 5.6-31.8.2z" fill="#d0d0d0"/><path d="m266.6 206.7 21.7 5.5-32.9 31.1z" fill="#0055a3"/><path d="m242.5 206.7-21.7 11.1 32.9 25.5z" fill="#0055a3"/><g fill="#fff"><path d="m287 211.9-.8-.2-29.3 26.9-.4 1.2.1.1z"/><path d="m284.6 211.3-26.9 24.7-.4 1.4 28.2-25.9z"/><path d="m283 210.8-24.5 22.5-.4 1.4 25.7-23.6z"/><path d="m252 237.8-28.4-21.5-.7.4 29.5 22.3z"/><path d="m251.3 235.5-26.3-19.9-.7.4 27.4 20.7z"/><path d="m250.6 233.2-24.2-18.3-.7.4 25.3 19.1z"/></g><path d="m355.7 169.2 6.6-5.6 8.2-5.1 4.3-8.7-4.7-6.9-5.6.9-3.9 4.1-3.9 6.4-6.8 9.3z" fill="#dcbd75"/><path d="m373 137.2h5v7.8h-5z" fill="#d4d4d4" transform="matrix(.70587157 -.70833984 .70833984 .70587157 10.7 307.7)"/><path d="m333.5 119.8h122.1v4.28h-122.1z" fill="#d4d4d4" transform="matrix(.70587157 -.70833984 .70833984 .70587157 29.8 315.5)"/><path d="m397.1 98.4h81.8v81.76h-81.8z" fill="#fab526" transform="matrix(.70587157 -.70833984 .70833984 .70587157 30.3 351.4)"/><path d="m438.1 197.1-.3-115.6 58 57.7z" fill="#ce450d"/><path d="m348.6 162.2 5-5.8 2.8-7.6 5.4-4.3 5.1-2 4.1-2.9.8 2.7-4.9 4.4-4.2 4.4-3.3 5.1-9.4 7.3z" fill="#e8c678"/><path d="m361.1 161.3 5-.1 4.4-2.7 4.3-8.7-1.9-2.8-6.6 1.4-.2 2.3-2.7 2 .7 1.9-2.8 2.4z" fill="#f4cd84"/></svg>