<svg viewBox="0 0 510.2 453.5" xmlns="http://www.w3.org/2000/svg"><path d="m243.2 206.7 2.8 13 18.5.1 2.8-13.1-.6-7.7h-22.8z" fill="#ddbb79"/><path d="m236.3 216.6h39.3v34.72h-39.3z" fill="#fff"/><path d="m280.8 222.2a82.1 82.1 0 0 0 -51.5-.7l-1-3.1a84.5 84.5 0 0 1 25.6-3.9 83.2 83.2 0 0 1 28 4.7z" fill="#201850"/><path d="m377.5 221-37.5.5-19.2-.8-17.9.1-8.6-1-26-9.8-12.2 33.3h-1.7l-12.2-33.3-26 9.8-5.9 6.3-13.7 11.6-14.1 13.1-28.7 24 8.8 10.9 33.5-18.6 26.9-14.3 1.2 5.8v32.3l-1.9 25.7h65.9l-1.9-25.7v-32.3l.8-3.8 4.2-3.5 49-8.6 37.6-7.6z" fill="#212628"/><path d="m222.3 316.6h65.9l3 57.4 8.4 77.9h-40.7l-3.5-104.6-1.3-.1-2.7 104.7h-40.8l9-77.5z" fill="#1b2122"/><path d="m207.5 446.2 20.2-2.5v-.1l22.1 8.2v1.7h-9.6l-5.4-1-4.2 1h-16.3-4.8-4.2z" fill="#1d1d1b"/><path d="m302.6 446.2-20.2-2.5-.1-.1-22 8.2v1.7h9.6l5.4-1 4.2 1h16.3 4.8 4.2z" fill="#1d1d1b"/><path d="m240.7 164.1h29.2v33.2l-9.5 8.9h-11.4l-8.3-8.9z" fill="#f1d094"/><path d="m240.7 164.1h14.5v42.1h-6.2l-8.3-8.9z" fill="#f5daac"/><path d="m239.4 171h31.8v7.31h-31.8z" fill="#1d1d1b"/><path d="m235 160.2h39.6l-3.4 5.8v5h-31.8v-5.2z" fill="#d6d6d6"/><path d="m269.9 180.7h2.1v10.45h-2.1z" fill="#ddbb79"/><path d="m238.6 180.7h2.1v10.45h-2.1z" fill="#ddbb79"/><path d="m274.6 160.2h-39.6l4.4 5.6 31.8.2z" fill="#d0d0d0"/><path d="m243.2 206.7-21.7 11.1 32.9 25.5z" fill="#0055a3"/><path d="m267.3 206.7 21.7 11.1-32.9 25.5z" fill="#0055a3"/><g fill="#fff"><path d="m252.7 237.8-28.4-21.5-.7.4 29.5 22.3z"/><path d="m252 235.5-26.3-19.9-.7.4 27.4 20.7z"/><path d="m251.3 233.2-24.2-18.3-.7.4 25.2 19.1z"/><path d="m286.2 216.3-28.4 21.5-.4 1.2 29.5-22.3z"/><path d="m284.8 215.6-26.3 19.9-.4 1.2 27.4-20.7z"/><path d="m283.4 214.9-24.2 18.3-.3 1.2 25.2-19.1z"/></g><path d="m161.4 283.9-6.1 6.2-5.7 7.8-8.9 3.6-6.5-5.2 1.3-5.5 4.4-3.6 6.6-3.4 9.8-6.1z" fill="#dcbd75"/><path d="m129.4 297.6h5v7.8h-5z" fill="#d4d4d4" transform="matrix(.75927131 -.65077422 .65077422 .75927131 -164.4 158.2)"/><path d="m50.3 317h122.1v4.28h-122.1z" fill="#d4d4d4" transform="matrix(.75927131 -.65077422 .65077422 .75927131 -180.8 149.2)"/><path d="m84.6 322.8h81.8v81.76h-81.8z" fill="#fab526" transform="matrix(.75927131 -.65077422 .65077422 .75927131 -206.4 169)"/><path d="m183.1 368.2-115.3-9 53.2 62.1z" fill="#ce450d"/><path d="m155 276.3-6.1 4.5-7.8 2.3-4.7 5-2.4 5-3.2 3.8 2.6 1 4.8-4.5 4.7-3.9 5.4-2.9 7.9-8.8z" fill="#e8c678"/><path d="m153.1 288.7-.4 4.9-3.1 4.3-8.9 3.6-2.7-2.2 1.9-6.4h2.4l2.1-2.6 1.9.9 2.5-2.7z" fill="#f4cd84"/><path d="m377.6 232.9 8.6.7 9.4 2.2 9.2-3 1.6-8.2-4.6-3.3-5.7.1-7.3 1.7-11.3 1.8z" fill="#dcbd75"/><path d="m409 223.2h5v7.8h-5z" fill="#d4d4d4"/><path d="m377.5 225h122.1v4.28h-122.1z" fill="#d4d4d4"/><path d="m415.9 229.3h81.8v81.76h-81.8z" fill="#fab526"/><path d="m415.9 311 81.8-81.7v81.7z" fill="#ce450d"/><path d="m377.5 222.9 7.6-.5 7.4-3.4 6.8.8 5.1 2.2 4.9.9-1.3 2.4-6.6-.3-6.1.1-6 1.3-11.7-1.6z" fill="#e8c678"/><path d="m387 231.1 3.5 3.5 5.1 1.2 9.2-3 .6-3.4-5.6-3.7-1.8 1.5-3.3-.5-.9 1.9-3.6-.4z" fill="#f4cd84"/></svg>