<svg viewBox="0 0 510.2 453.5" xmlns="http://www.w3.org/2000/svg"><path d="m267.1 206.7-2.8 13-18.5.1-2.7-13.1.6-7.7h22.8z" fill="#ddbb79"/><path d="m234.8 216.6h39.3v34.72h-39.3z" fill="#fff"/><path d="m229.6 222.2-1.1-3a83.2 83.2 0 0 1 28-4.7 85.5 85.5 0 0 1 25.6 3.9l-1 3.1a82.1 82.1 0 0 0 -51.5.7z" fill="#201850"/><path d="m327.8 250.8-14-13.1-13.8-11.6-5.8-6.3-26.1-9.8-12.1 33.3h-1.8l-12.1-33.3-26.1 9.8-5.8 6.3-13.8 11.6-14 13.1-28.7 24 8.8 10.9 33.5-18.6 26.9-14.3 1.2 5.8v32.3l-1.9 25.7h65.9l-2-25.7v-32.3l1.2-5.8 27 14.3 33.5 18.6 8.8-10.9z" fill="#212628"/><path d="m349 283.9 6 6.2 5.7 7.8 9 3.6 6.5-5.2-1.3-5.5-4.4-3.6-6.7-3.4-9.7-6.1z" fill="#dcbd75"/><path d="m288.1 316.6h-65.9l-3 57.4-8.5 77.9h40.8l3.4-104.6 1.4-.1 2.7 104.7h40.7l-8.9-77.5z" fill="#1b2122"/><path d="m302.9 446.2-20.2-2.5-.1-.1-22 8.2v1.7h9.6l5.4-1 4.2 1h16.3 4.8 4.2z" fill="#1d1d1b"/><path d="m207.8 446.2 20.2-2.5v-.1l22.1 8.2v1.7h-9.6l-5.4-1-4.2 1h-16.3-4.9-4.1z" fill="#1d1d1b"/><path d="m269.7 164.1h-29.2v33.2l9.4 8.9h11.5l8.3-8.9z" fill="#f1d094"/><path d="m269.7 164.1h-14.6v42.1h6.3l8.3-8.9z" fill="#f5daac"/><path d="m239.2 171h31.8v7.31h-31.8z" fill="#1d1d1b"/><path d="m275.3 160.2h-39.5l3.4 5.8v5h31.8v-5.2z" fill="#d6d6d6"/><path d="m238.4 180.7h2.1v10.45h-2.1z" fill="#ddbb79"/><path d="m269.7 180.7h2.1v10.45h-2.1z" fill="#ddbb79"/><path d="m235.8 160.2h39.5l-4.3 5.6-31.8.2z" fill="#d0d0d0"/><path d="m267.1 206.7 21.8 11.1-32.9 25.5z" fill="#0055a3"/><path d="m243.1 206.7-21.7 11.1 32.8 25.5z" fill="#0055a3"/><g fill="#fff"><path d="m286 216.3-28.3 21.5-.4 1.2 29.5-22.3z"/><path d="m284.6 215.6-26.2 19.9-.4 1.2 27.4-20.7z"/><path d="m283.2 214.9-24.1 18.3-.4 1.2 25.3-19.1z"/><path d="m252.6 237.8-28.4-21.5-.8.4 29.5 22.3z"/><path d="m251.8 235.5-26.2-19.9-.7.4 27.3 20.7z"/><path d="m251.1 233.2-24.1-18.3-.7.4 25.2 19.1z"/></g><path d="m374.6 299h7.8v5.01h-7.8z" fill="#d4d4d4" transform="matrix(.65077422 -.75927131 .75927131 .65077422 -96.7 393)"/><path d="m396.9 258.1h4.3v122.13h-4.3z" fill="#d4d4d4" transform="matrix(.65077422 -.75927131 .75927131 .65077422 -103 414.5)"/><path d="m344 322.8h81.8v81.76h-81.8z" fill="#fab526" transform="matrix(.65077422 -.75927131 .75927131 .65077422 -141.7 419.5)"/><path d="m327.3 368.2 115.2-9-53.1 62.1z" fill="#ce450d"/><path d="m355.4 276.3 6.1 4.5 7.8 2.3 4.7 5 2.4 5 3.2 3.8-2.7 1-4.7-4.5-4.7-3.9-5.4-2.9-7.9-8.8z" fill="#e8c678"/><path d="m357.2 288.7.4 4.9 3.1 4.3 9 3.6 2.7-2.2-1.9-6.4h-2.4l-2.1-2.6-1.9.9-2.6-2.7z" fill="#f4cd84"/><path d="m161.3 283.9-6.1 6.2-5.7 7.8-8.9 3.6-6.6-5.2 1.3-5.5 4.4-3.6 6.7-3.4 9.8-6.1z" fill="#dcbd75"/><path d="m129.3 297.6h5v7.8h-5z" fill="#d4d4d4" transform="matrix(.75927131 -.65077422 .65077422 .75927131 -164.4 158.2)"/><path d="m50.2 317h122.1v4.28h-122.1z" fill="#d4d4d4" transform="matrix(.75927131 -.65077422 .65077422 .75927131 -180.8 149.1)"/><path d="m84.5 322.8h81.8v81.76h-81.8z" fill="#fab526" transform="matrix(.75927131 -.65077422 .65077422 .75927131 -206.4 168.9)"/><path d="m183 368.2-115.3-9 53.2 62.1z" fill="#ce450d"/><path d="m154.8 276.3-6.1 4.5-7.8 2.3-4.6 5-2.5 5-3.1 3.8 2.6 1 4.7-4.5 4.8-3.9 5.3-2.9 7.9-8.8z" fill="#e8c678"/><path d="m153 288.7-.4 4.9-3.1 4.3-8.9 3.6-2.7-2.2 1.8-6.4h2.4l2.2-2.6 1.8.9 2.6-2.7z" fill="#f4cd84"/></svg>