<svg viewBox="0 0 510.2 453.5" xmlns="http://www.w3.org/2000/svg"><path d="m243.8 206.7 2.8 13 18.5.1 2.7-13.1-.5-7.7h-22.8z" fill="#ddbb79"/><path d="m236.8 216.6h39.3v34.72h-39.3z" fill="#fff"/><path d="m281.4 222.2a82.2 82.2 0 0 0 -27-4.5 82.1 82.1 0 0 0 -24.6 3.8l-.9-3.1a84.3 84.3 0 0 1 25.5-3.9 82.7 82.7 0 0 1 28 4.7z" fill="#201850"/><path d="m290.5 254.8-.9-42.6-20.8-2.2-12.1 33.3h-1.8l-12.1-33.3-20.7 2.2-3.7-2-12.5-12.9-14.1-13-23.1-23.9-10.3 9.6 21.3 32.1 39.1 37.8 5.7 16.1-.1 26.8-1.5 33.8h65.9l-1.1-33.2 2.5-18.6z" fill="#212628"/><path d="m222.9 316.6h65.9l3 57.4 8.4 77.9h-40.7l-3.5-104.6-1.4-.1-2.6 104.7h-40.8l9-77.5z" fill="#1b2122"/><path d="m208 446.2 20.3-2.5v-.1l22.1 8.2v1.7h-9.6l-5.5-1-4.1 1h-16.3-4.9-4.1z" fill="#1d1d1b"/><path d="m303.2 446.2-20.2-2.5-.1-.1-22 8.2v1.7h9.6l5.4-1 4.1 1h16.4 4.8 4.1z" fill="#1d1d1b"/><path d="m241.3 164.1h29.2v33.2l-9.5 8.9h-11.4l-8.3-8.9z" fill="#f1d094"/><path d="m241.3 164.1h14.5v42.1h-6.2l-8.3-8.9z" fill="#f5daac"/><path d="m240 171h31.8v7.31h-31.8z" fill="#1d1d1b"/><path d="m235.6 160.2h39.6l-3.4 5.8v5h-31.8v-5.2z" fill="#d6d6d6"/><path d="m270.5 180.7h2.1v10.45h-2.1z" fill="#ddbb79"/><path d="m239.2 180.7h2.1v10.45h-2.1z" fill="#ddbb79"/><path d="m275.2 160.2h-39.6l4.4 5.6 31.8.2z" fill="#d0d0d0"/><path d="m243.8 206.7-21.7 5.5 32.8 31.1z" fill="#0055a3"/><path d="m267.8 206.7 21.8 5.5-32.9 31.1z" fill="#0055a3"/><g fill="#fff"><path d="m253.5 238.6-29.3-26.9-.8.2 30.6 28.2z"/><path d="m252.7 236-27-24.7-.8.2 28.2 25.9z"/><path d="m251.9 233.3-24.5-22.5-.9.3 25.8 23.6z"/><path d="m287.4 211.7-29.3 26.9-.4 1.5 30.6-28.2z"/><path d="m285.9 211.3-27 24.7-.4 1.4 28.3-25.9z"/><path d="m284.2 210.8-24.4 22.5-.5 1.4 25.8-23.6z"/></g><path d="m160.2 168.7-6.6-5.6-8.2-5.1-4.3-8.7 4.7-6.8 5.5.8 4 4.2 3.9 6.3 6.8 9.3z" fill="#dcbd75"/><path d="m136.5 138.1h7.8v5.01h-7.8z" fill="#d4d4d4" transform="matrix(.70833984 -.70587157 .70587157 .70833984 -58.3 139.9)"/><path d="m119.2 60.4h4.3v122.13h-4.3z" fill="#d4d4d4" transform="matrix(.70833984 -.70587157 .70587157 .70833984 -50.3 121)"/><path d="m37.1 98h81.8v81.76h-81.8z" fill="#fab526" transform="matrix(.70833984 -.70587157 .70587157 .70833984 -75.2 95.4)"/><path d="m77.8 196.7.3-115.7-58 57.7z" fill="#ce450d"/><path d="m167.3 161.7-5-5.7-2.8-7.7-5.4-4.2-5.1-2.1-4.1-2.9-.8 2.7 4.9 4.4 4.2 4.5 3.3 5.1 9.4 7.2z" fill="#e8c678"/><path d="m154.8 160.8h-5l-4.4-2.8-4.3-8.7 1.9-2.8 6.6 1.4.2 2.4 2.7 1.9-.7 1.9 2.8 2.4z" fill="#f4cd84"/><path d="m219.7 228.3 37.4.4 20.7-3.7 11.8-12.8 7.7 11.2v17.6l-6.8 5.6-15.3 1.8-55.9-6.1z" fill="#262c2d"/><path d="m183.2 230.6h5v7.8h-5z" fill="#d4d4d4" transform="matrix(.99999848 -.00174533 .00174533 .99999848 -.5 .4)"/><path d="m219.3 232.3-.4 4.3-121.3.2v-4.3z" fill="#d4d4d4"/><path d="m99.7 236.6h81.8v81.76h-81.8z" fill="#fab526" transform="matrix(.99999391 -.00349065 .00349065 .99999391 -.8 .4)"/><path d="m181.5 318.3-82-81.5.3 81.7z" fill="#ce450d"/><path d="m219.6 229.8-6-.4-8.1-3.6-7.4.8-5.5 2.4-3.7.6 1.5 2.7 5.5-.1 6.6.2 6.5 1.3 10.6-1.4z" fill="#ccb06d"/><path d="m219.4 240.6-1.6-.2-5.9-.5-8.4 2.3-1.6-.9h-2l-1.6-1.3-2.1-.2-1-1.6-1.9.3-1.9-2.9 6.7-9 7.4-.8 8.1 3.6 6 .4z" fill="#dcbd75"/></svg>