<svg viewBox="0 0 510.2 453.5" xmlns="http://www.w3.org/2000/svg"><path d="m132.9 232.9-8.7.7-9.4 2.2-9.1-3-1.6-8.2 4.6-3.3 5.6.1 7.3 1.7 11.4 1.8z" fill="#dcbd75"/><path d="m96.5 223.2h5v7.8h-5z" fill="#d4d4d4"/><path d="m10.9 225h122.1v4.28h-122.1z" fill="#d4d4d4"/><path d="m12.9 311.1 81.7-.1v-81.7h-81.8z" fill="#fab526"/><path d="m94.6 311-81.8-81.7.1 81.8z" fill="#ce450d"/><path d="m132.9 222.9-7.6-.5-7.4-3.4-6.8.8-5 2.2-5 .9 1.4 2.4 6.5-.3 6.2.1 5.9 1.3 11.8-1.6z" fill="#e8c678"/><path d="m123.5 231.1-3.6 3.5-5.1 1.2-9.1-3-.7-3.4 5.6-3.7 1.9 1.5 3.3-.5.8 1.9 3.7-.4z" fill="#f4cd84"/><path d="m293.3 126.2.7-8.7 2.2-9.4-3.1-9.1-8.2-1.6-3.3 4.6.1 5.7 1.8 7.2 1.7 11.4z" fill="#dcbd75"/><path d="m283.5 89.8h7.8v5.01h-7.8z" fill="#d4d4d4" transform="matrix(.99999848 -.00174533 .00174533 .99999848 -.2 .7)"/><path d="m285.2 4.2h4.3v122.13h-4.3z" fill="#d4d4d4" transform="matrix(.99999848 -.00174533 .00174533 .99999848 -.1 .5)"/><path d="m289.5 6h81.8v81.76h-81.8z" fill="#fab526" transform="matrix(.99999848 -.00174533 .00174533 .99999848 -.1 .8)"/><path d="m371.3 87.7-81.9-81.6 81.7-.2z" fill="#ce450d"/><path d="m283.3 126.3-.5-7.6-3.4-7.5.8-6.8 2.1-5 .9-5 2.5 1.4-.4 6.5.2 6.2 1.2 5.9-1.5 11.8z" fill="#e8c678"/><path d="m291.5 116.8 3.5-3.6 1.2-5.1-3.1-9.1-3.4-.7-3.6 5.6 1.5 1.9-.5 3.3 1.8.8-.3 3.7z" fill="#f4cd84"/><path d="m243.2 206.7 2.8 13 18.5.1 2.7-13.1-.6-7.7h-22.8z" fill="#ddbb79"/><path d="m236.2 216.6h39.3v34.72h-39.3z" fill="#fff"/><path d="m229.2 221.5-1-3.1a85.5 85.5 0 0 1 25.6-3.9 89.8 89.8 0 0 1 17.9 1.8l-.7 3.2a82.2 82.2 0 0 0 -41.8 2z" fill="#201850"/><path d="m222.2 316.6h66l2.9 57.4 8.5 77.9h-40.8l-3.4-104.6-1.4-.1-2.7 104.7h-40.7l9-77.5z" fill="#1b2122"/><path d="m207.4 446.2 20.2-2.5.1-.1 22 8.2v1.7h-9.6l-5.4-1-4.1 1h-16.4-4.8-4.2z" fill="#1d1d1b"/><path d="m302.6 446.2-20.3-2.5v-.1l-22.1 8.2v1.7h9.6l5.5-1 4.1 1h16.3 4.9 4.1z" fill="#1d1d1b"/><path d="m300.5 216.1.5-50.1-5.5-40.1-14.1.4.6 33.2-.8 19.2-2 17.9-.7 2.4-10.3 11-12.1 33.3h-1.8l-12.1-33.3-26.1 9.8-8.5 1-18-.1-19.2.8-37.4-.5-.4 14.1 37.5 7.6 49 8.6 4.3 3.5.8 3.8v32.3l-2 25.7h66l-2-25.7v-23.9z" fill="#212628"/><path d="m240.6 164.1h29.3v33.2l-9.5 8.9h-11.4l-8.4-8.9z" fill="#f1d094"/><path d="m240.6 164.1h14.6v42.1h-6.2l-8.4-8.9z" fill="#f5daac"/><path d="m239.3 171h31.8v7.31h-31.8z" fill="#1d1d1b"/><path d="m235 160.2h39.6l-3.4 5.8v5h-31.9v-5.2z" fill="#d6d6d6"/><path d="m269.9 180.7h2.1v10.45h-2.1z" fill="#ddbb79"/><path d="m238.6 180.7h2.1v10.45h-2.1z" fill="#ddbb79"/><path d="m274.6 160.2h-39.6l4.3 5.6 31.9.2z" fill="#d0d0d0"/><path d="m243.2 206.7-21.8 11.1 32.9 25.5z" fill="#0055a3"/><path d="m267.2 206.7 11.3-7.7-22.4 44.3z" fill="#0055a3"/><g fill="#fff"><path d="m252.6 237.8-28.3-21.5-.8.4 29.5 22.3z"/><path d="m251.9 235.5-26.2-19.9-.8.4 27.4 20.7z"/><path d="m251.2 233.2-24.1-18.3-.8.4 25.3 19.1z"/><path d="m276.2 200.6-17.5 34.2-1.3 4.1 20.1-39.2z"/><path d="m273.9 202.2-12.9 25.1-1.2 4 15.4-30z"/><path d="m271.4 203.9-8.1 15.7-1.2 4 10.6-20.6z"/></g></svg>