<svg viewBox="0 0 510.2 453.5" xmlns="http://www.w3.org/2000/svg"><path d="m268.8 206.7-2.8 13-18.5.1-2.7-13.1.6-7.7h22.8z" fill="#ddbb79"/><path d="m236.6 216.6h39.3v34.72h-39.3z" fill="#fff"/><path d="m231.3 222.2-1.1-3a83.2 83.2 0 0 1 28-4.7 85.5 85.5 0 0 1 25.6 3.9l-1 3.1a82.1 82.1 0 0 0 -51.5.7z" fill="#201850"/><path d="m357.9 169.2 6.7-5.6 8.2-5.1 4.2-8.7-4.6-6.9-5.6.9-3.9 4.1-3.9 6.4-6.8 9.3z" fill="#dcbd75"/><path d="m375.3 137.2h5v7.8h-5z" fill="#d4d4d4" transform="matrix(.70587157 -.70833984 .70833984 .70587157 11.3 309.4)"/><path d="m335.8 119.8h122.1v4.28h-122.1z" fill="#d4d4d4" transform="matrix(.70587157 -.70833984 .70833984 .70587157 30.5 317.1)"/><path d="m399.3 98.4h81.8v81.76h-81.8z" fill="#fab526" transform="matrix(.70587157 -.70833984 .70833984 .70587157 31 353.1)"/><path d="m440.4 197.1-.3-115.6 57.9 57.7z" fill="#ce450d"/><path d="m350.8 162.2 5-5.8 2.9-7.6 5.3-4.3 5.2-2 4.1-2.9.8 2.7-4.9 4.4-4.3 4.4-3.3 5.1-9.4 7.3z" fill="#e8c678"/><path d="m363.4 161.3 4.9-.1 4.5-2.7 4.2-8.7-1.9-2.8-6.5 1.4-.3 2.3-2.7 2 .8 1.9-2.9 2.4z" fill="#f4cd84"/><path d="m134.5 232.9-8.7.7-9.3 2.2-9.2-3-1.6-8.2 4.6-3.3 5.7.1 7.3 1.7 11.3 1.8z" fill="#dcbd75"/><path d="m289.8 316.6h-65.9l1.9-25.7v-32.3l-.8-3.8-4.3-3.5-49-8.6-37.5-7.6.4-14.1 37.5.5 19.1-.8 18 .1 8.5-1 26.1-9.8 12.1 33.3h1.8l12.1-33.3 26.1 2.8v-.1l3.8-2.1 12.6-12.9 14.1-13 23.1-23.8 10.2 9.6-21.2 32-33.7 40.8-13.7 24z" fill="#212628"/><path d="m98.1 223.2h5v7.8h-5z" fill="#d4d4d4"/><path d="m12.5 225h122.1v4.28h-122.1z" fill="#d4d4d4"/><path d="m14.4 229.3h81.8v81.76h-81.8z" fill="#fab526"/><path d="m96.2 311-81.8-81.7v81.7z" fill="#ce450d"/><path d="m134.6 222.9-7.6-.5-7.5-3.4-6.8.8-5 2.2-5 .9 1.4 2.4 6.5-.3 6.2.1 5.9 1.3 11.8-1.6z" fill="#e8c678"/><path d="m125.1 231.1-3.6 3.5-5 1.2-9.2-3-.7-3.4 5.6-3.7 1.9 1.5 3.3-.5.8 1.9 3.7-.4z" fill="#f4cd84"/><path d="m289.8 316.6h-65.9l-3 57.4-8.5 77.9h40.8l3.5-104.6 1.3-.1 2.7 104.7h40.7l-8.9-77.5z" fill="#1b2122"/><path d="m304.6 446.2-20.2-2.5-.1-.1-22 8.2v1.7h9.6l5.4-1 4.2 1h16.3 4.8 4.2z" fill="#1d1d1b"/><path d="m209.5 446.2 20.2-2.5v-.1l22.1 8.2v1.7h-9.6l-5.4-1-4.2 1h-16.3-4.8-4.2z" fill="#1d1d1b"/><path d="m271.4 164.1h-29.2v33.2l9.4 8.9h11.5l8.3-8.9z" fill="#f1d094"/><path d="m271.4 164.1h-14.6v42.1h6.3l8.3-8.9z" fill="#f5daac"/><path d="m240.9 171h31.8v7.31h-31.8z" fill="#1d1d1b"/><path d="m277 160.2h-39.5l3.4 5.8v5h31.8v-5.2z" fill="#d6d6d6"/><path d="m240.1 180.7h2.1v10.45h-2.1z" fill="#ddbb79"/><path d="m271.4 180.7h2.1v10.45h-2.1z" fill="#ddbb79"/><path d="m237.5 160.2h39.5l-4.3 5.6-31.8.2z" fill="#d0d0d0"/><path d="m268.8 206.7 21.8 5.5-32.9 31.1z" fill="#0055a3"/><path d="m244.8 206.7-21.7 11.1 32.8 25.5z" fill="#0055a3"/><g fill="#fff"><path d="m288.4 211.7-29.3 27-.4 1.4 30.6-28.2z"/><path d="m286.9 211.3-27 24.7-.4 1.4 28.3-25.9z"/><path d="m285.2 210.8-24.4 22.5-.5 1.4 25.8-23.6z"/><path d="m254.3 237.8-28.4-21.5-.7.4 29.4 22.3z"/><path d="m253.6 235.5-26.3-19.9-.7.4 27.3 20.7z"/><path d="m252.9 233.2-24.2-18.3-.7.4 25.2 19.1z"/></g></svg>