<svg viewBox="0 0 510.2 453.5" xmlns="http://www.w3.org/2000/svg"><path d="m267.1 206.7-2.8 13-18.5.1-2.7-13.1.6-7.7h22.8z" fill="#ddbb79"/><path d="m234.8 216.6h39.3v34.72h-39.3z" fill="#fff"/><path d="m229.6 222.2-1.1-3a83.2 83.2 0 0 1 28-4.7 85.5 85.5 0 0 1 25.6 3.9l-1 3.1a81.6 81.6 0 0 0 -24.6-3.8 81.7 81.7 0 0 0 -26.9 4.5z" fill="#201850"/><path d="m377.3 221-37.4.5-19.2-.8-18 .1-8.5-1-26.1-9.8-12.1 33.3h-1.8l-12.1-33.3-26.1 9.8-8.5 1-18-.1-19.1.8-37.5-.5-.4 14.1 37.5 7.6 49 8.6 4.3 3.5.8 3.8v32.3l-1.9 25.7h65.9l-2-25.7v-32.3l.8-3.8 4.3-3.5 49-8.6 37.5-7.6z" fill="#212628"/><path d="m377.4 232.9 8.7.7 9.4 2.2 9.1-3 1.6-8.2-4.5-3.3-5.7.1-7.3 1.7-11.4 1.8z" fill="#dcbd75"/><path d="m288.1 316.6h-65.9l-3 57.4-8.5 77.9h40.8l3.4-104.6 1.4-.1 2.7 104.7h40.7l-8.9-77.5z" fill="#1b2122"/><path d="m302.9 446.2-20.2-2.5-.1-.1-22 8.2v1.7h9.6l5.4-1 4.2 1h16.3 4.8 4.2z" fill="#1d1d1b"/><path d="m207.8 446.2 20.2-2.5v-.1l22.1 8.2v1.7h-9.6l-5.4-1-4.2 1h-16.3-4.9-4.1z" fill="#1d1d1b"/><path d="m269.7 164.1h-29.2v33.2l9.4 8.9h11.5l8.3-8.9z" fill="#f1d094"/><path d="m269.7 164.1h-14.6v42.1h6.3l8.3-8.9z" fill="#f5daac"/><path d="m239.2 171h31.8v7.31h-31.8z" fill="#1d1d1b"/><path d="m275.3 160.2h-39.5l3.4 5.8v5h31.8v-5.2z" fill="#d6d6d6"/><path d="m238.4 180.7h2.1v10.45h-2.1z" fill="#ddbb79"/><path d="m269.7 180.7h2.1v10.45h-2.1z" fill="#ddbb79"/><path d="m235.8 160.2h39.5l-4.3 5.6-31.8.2z" fill="#d0d0d0"/><path d="m267.1 206.7 21.8 11.1-32.9 25.5z" fill="#0055a3"/><path d="m243.1 206.7-21.7 11.1 32.8 25.5z" fill="#0055a3"/><g fill="#fff"><path d="m286 216.3-28.3 21.5-.4 1.2 29.5-22.3z"/><path d="m284.6 215.6-26.2 19.9-.4 1.2 27.4-20.7z"/><path d="m283.2 214.9-24.1 18.3-.4 1.2 25.3-19.1z"/><path d="m252.5 237.8-28.3-21.5-.8.4 29.5 22.3z"/><path d="m251.8 235.5-26.2-19.9-.7.4 27.3 20.7z"/><path d="m251.1 233.2-24.1-18.3-.7.4 25.2 19.1z"/></g><path d="m408.9 223.2h5v7.8h-5z" fill="#d4d4d4"/><path d="m377.3 225h122.1v4.28h-122.1z" fill="#d4d4d4"/><path d="m415.8 229.3h81.8v81.76h-81.8z" fill="#fab526"/><path d="m415.8 311 81.7-81.7v81.7z" fill="#ce450d"/><path d="m377.4 222.9 7.6-.5 7.4-3.4 6.8.8 5.1 2.2 4.9.9-1.4 2.4-6.5-.3-6.1.1-6 1.3-11.8-1.6z" fill="#e8c678"/><path d="m386.9 231.1 3.5 3.5 5.1 1.2 9.1-3 .7-3.4-5.6-3.7-1.9 1.5-3.3-.5-.8 1.9-3.7-.4z" fill="#f4cd84"/><path d="m132.8 232.9-8.7.7-9.4 2.2-9.1-3-1.6-8.2 4.6-3.3 5.6.1 7.3 1.7 11.4 1.8z" fill="#dcbd75"/><path d="m96.4 223.2h5v7.8h-5z" fill="#d4d4d4"/><path d="m10.8 225h122.1v4.28h-122.1z" fill="#d4d4d4"/><path d="m12.7 229.3h81.8v81.76h-81.8z" fill="#fab526"/><path d="m94.5 311-81.8-81.7v81.7z" fill="#ce450d"/><path d="m132.9 222.9-7.7-.5-7.4-3.4-6.8.8-5 2.2-5 .9 1.4 2.4 6.5-.3 6.2.1 5.9 1.3 11.8-1.6z" fill="#e8c678"/><path d="m123.4 231.1-3.6 3.5-5.1 1.2-9.1-3-.7-3.4 5.6-3.7 1.9 1.5 3.3-.5.8 1.9 3.7-.4z" fill="#f4cd84"/></svg>