<svg viewBox="0 0 510.2 453.5" xmlns="http://www.w3.org/2000/svg"><path d="m272 206.7-2.8 13-18.5.1-2.7-13.1.6-7.7h22.7z" fill="#ddbb79"/><path d="m239.7 216.6h39.3v34.72h-39.3z" fill="#fff"/><path d="m234.5 222.2-1.1-3a83.2 83.2 0 0 1 28-4.7 85.5 85.5 0 0 1 25.6 3.9l-1 3.1a81.6 81.6 0 0 0 -24.6-3.8 81.7 81.7 0 0 0 -26.9 4.5z" fill="#201850"/><path d="m332.7 250.8-14-13.1-13.8-11.6-5.8-6.3-26.1-9.8-12.1 33.3h-1.8l-12.1-33.3-26.1 9.8-8.5 1-18-.1-19.2.8-37.4-.5-.4 14.1 37.5 7.6 49 8.6 4.3 3.5.8 3.8v32.3l-2 25.7h66l-2-25.7v-32.3l1.2-5.8 27 14.3 33.4 18.6 8.8-10.9z" fill="#212628"/><path d="m353.8 283.9 6.1 6.2 5.7 7.8 9 3.6 6.5-5.2-1.3-5.5-4.4-3.6-6.7-3.4-9.7-6.1z" fill="#dcbd75"/><path d="m293 316.6h-66l-3 57.4-8.4 77.9h40.7l3.5-104.6 1.4-.1 2.7 104.7h40.7l-9-77.5z" fill="#1b2122"/><path d="m307.8 446.2-20.2-2.5-.1-.1-22 8.2v1.7h9.6l5.4-1 4.1 1h16.4 4.8 4.1z" fill="#1d1d1b"/><path d="m212.6 446.2 20.2-2.5.1-.1 22.1 8.2v1.7h-9.7l-5.4-1-4.1 1h-16.3-4.9-4.1z" fill="#1d1d1b"/><path d="m274.6 164.1h-29.3v33.2l9.5 8.9h11.4l8.4-8.9z" fill="#f1d094"/><path d="m274.6 164.1h-14.6v42.1h6.2l8.4-8.9z" fill="#f5daac"/><path d="m244 171h31.8v7.31h-31.8z" fill="#1d1d1b"/><path d="m280.2 160.2h-39.6l3.4 5.8v5h31.9v-5.2z" fill="#d6d6d6"/><path d="m243.3 180.7h2.1v10.45h-2.1z" fill="#ddbb79"/><path d="m274.6 180.7h2.1v10.45h-2.1z" fill="#ddbb79"/><path d="m240.6 160.2h39.6l-4.3 5.6-31.9.2z" fill="#d0d0d0"/><path d="m272 206.7 21.8 11.1-32.9 25.5z" fill="#0055a3"/><g fill="#fff"><path d="m256.9 227.5h39v.75h-39z" transform="matrix(.79758393 -.60320799 .60320799 .79758393 -81.5 212.8)"/><path d="m256.4 226h39v.75h-39z" transform="matrix(.79758393 -.60320799 .60320799 .79758393 -80.7 212.3)"/><path d="m256 224.5h39v.75h-39z" transform="matrix(.79758393 -.60320799 .60320799 .79758393 -79.9 211.8)"/></g><path d="m248 206.7-21.8 11.1 32.9 25.5z" fill="#0055a3"/><g fill="#fff"><path d="m243.3 208.4h.7v38.96h-.7z" transform="matrix(.60320799 -.79758393 .79758393 .60320799 -85 284.8)"/><path d="m243.7 206.9h.7v38.96h-.7z" transform="matrix(.60320799 -.79758393 .79758393 .60320799 -83.7 284.5)"/><path d="m244.1 205.4h.7v38.96h-.7z" transform="matrix(.60320799 -.79758393 .79758393 .60320799 -82.4 284.3)"/></g><path d="m379.4 299h7.8v5.01h-7.8z" fill="#d4d4d4" transform="matrix(.65077422 -.75927131 .75927131 .65077422 -95 396.6)"/><path d="m401.7 258.1h4.3v122.13h-4.3z" fill="#d4d4d4" transform="matrix(.65077422 -.75927131 .75927131 .65077422 -101.2 418.3)"/><path d="m348.9 322.8h81.8v81.76h-81.8z" fill="#fab526" transform="matrix(.65077422 -.75927131 .75927131 .65077422 -140 423.2)"/><path d="m332.1 368.2 115.3-9-53.2 62.1z" fill="#ce450d"/><path d="m360.3 276.3 6.1 4.5 7.8 2.3 4.6 5 2.5 5 3.2 3.8-2.7 1-4.7-4.5-4.8-3.9-5.3-2.9-7.9-8.8z" fill="#e8c678"/><path d="m362.1 288.7.4 4.9 3.1 4.3 9 3.6 2.7-2.2-1.9-6.4h-2.4l-2.2-2.6-1.8.9-2.6-2.7z" fill="#f4cd84"/><path d="m137.7 232.9-8.7.7-9.4 2.2-9.1-3-1.6-8.2 4.5-3.3 5.7.1 7.3 1.7 11.4 1.8z" fill="#dcbd75"/><path d="m101.3 223.2h5v7.8h-5z" fill="#d4d4d4"/><path d="m15.7 225h122.1v4.28h-122.1z" fill="#d4d4d4"/><path d="m17.6 229.3h81.8v81.76h-81.8z" fill="#fab526"/><path d="m99.3 311-81.7-81.7v81.7z" fill="#ce450d"/><path d="m137.7 222.9-7.6-.5-7.4-3.4-6.8.8-5 2.2-5 .9 1.4 2.4 6.5-.3 6.1.1 6 1.3 11.8-1.6z" fill="#e8c678"/><path d="m128.2 231.1-3.5 3.5-5.1 1.2-9.1-3-.7-3.4 5.6-3.7 1.9 1.5 3.3-.5.8 1.9 3.7-.4z" fill="#f4cd84"/></svg>