<?xml version="1.0" encoding="UTF-8" standalone="no"?>
<svg xmlns:xlink="http://www.w3.org/1999/xlink" xmlns="http://www.w3.org/2000/svg" width="600" height="500" version="1.0">
<defs id="defs4">
<g id="armL">
<rect x="340" y="240" width="70" height="20" rx="10" ry="10"/>
<path d="M399,244.5h200.5v101h-91v-90h-110z"/>
<path d="M509.5,255.5h89v89h-89z" fill="#ff0"/>
<path d="M509.5,255.5l89,89v-89z" fill="#f00"/>
</g>
</defs>
<circle cx="300" cy="210" r="25"/>
<rect x="265" y="240" height="160" width="70" rx="20" ry="20"/>
<use xlink:href="#armL" transform="rotate(-90 350,250)"/>
<rect x="190" y="240" width="70" height="20" rx="10" ry="10"/>
<path d="M0,244.5h200.5v11h-110v90h-91z"/>
<path d="M.5,255.5h89v89h-89z" fill="#ff0"/>
<path d="M.5,255.5h89l-89,89z" fill="#f00"/>
</svg>