<svg height="500" width="600" xmlns="http://www.w3.org/2000/svg"><path d="m275 200a25 25 0 1 1 -50 0 25 25 0 1 1 50 0z" fill-rule="evenodd" transform="translate(50 10)"/><rect fill-rule="evenodd" height="160" rx="20" ry="21.333334" width="70" x="265" y="240"/><g><g fill-rule="evenodd"><rect height="20" rx="10" transform="rotate(90)" width="70" x="240" y="-360"/><path d="m300-355h200v10h-200z" stroke="#000" transform="rotate(90)"/><path d="m255 410h90v90h-90z" fill="#ff0"/><path d="m345 410v90h-90z" fill="#f00"/></g><path d="m255 410h90v90h-90z" fill="none" stroke="#000" stroke-linejoin="round"/></g><g><g fill-rule="evenodd"><rect height="20.000006" rx="10.000003" transform="matrix(-.707107 .707107 -.707107 -.707107 0 0)" width="70.000023" x="-9.999932" y="-363.55347"/><path d="m50.000088-358.55347h200.00006v10.000003h-200.00006z" stroke="#000" transform="matrix(-.707107 .707107 -.707107 -.707107 0 0)"/><path d="m204.03804 430.31241-63.63963 63.63964-63.639625-63.63964 63.639625-63.63963z" fill="#ff0"/><path d="m140.39841 493.95205-63.639625-63.63964 63.639625-63.63963z" fill="#f00"/></g><path d="m204.03804 430.31241-63.63963 63.63964-63.639625-63.63964 63.639625-63.63963z" fill="none" stroke="#000" stroke-linejoin="round"/></g></svg>