<svg height="500" width="600" xmlns="http://www.w3.org/2000/svg"><path d="m275 200a25 25 0 1 1 -50 0 25 25 0 1 1 50 0z" fill-rule="evenodd" transform="translate(50 10)"/><rect fill-rule="evenodd" height="160" rx="20" ry="21.333334" width="70" x="265" y="240"/><g><g fill-rule="evenodd"><rect height="20.000006" rx="10.000003" transform="matrix(.707107 -.707107 .707107 .707107 0 0)" width="70.000023" x="60.710747" y="414.26401"/><path d="m120.71076 419.26401h200.00006v10.000003h-200.00006z" stroke="#000" transform="matrix(.707107 -.707107 .707107 .707107 0 0)"/><path d="m530.31228 204.03794-63.63963-63.63963 63.63963-63.639625 63.63963 63.639625z" fill="#ff0"/><path d="m466.67265 140.39831 63.63963-63.639625 63.63963 63.639625z" fill="#f00"/></g><path d="m530.31228 204.03794-63.63963-63.63963 63.63963-63.639625 63.63963 63.639625z" fill="none" stroke="#000" stroke-linejoin="round"/></g><g><g fill-rule="evenodd"><rect height="20" rx="10" transform="matrix(0 1 -1 0 0 0)" width="70" x="240" y="-260"/><path d="m300-255h200v10h-200z" stroke="#000" transform="matrix(0 1 -1 0 0 0)"/><path d="m345 410v90h-90v-90z" fill="#ff0"/><path d="m345 500h-90v-90z" fill="#f00"/></g><path d="m345 410v90h-90v-90z" fill="none" stroke="#000" stroke-linejoin="round"/></g></svg>