<svg height="500" width="600" xmlns="http://www.w3.org/2000/svg"><path d="m275 200a25 25 0 1 1 -50 0 25 25 0 1 1 50 0z" fill-rule="evenodd" transform="translate(50 10)"/><rect fill-rule="evenodd" height="160" rx="20" ry="21.333334" width="70" x="265" y="240"/><g><g fill-rule="evenodd"><rect height="20.000006" rx="10.000003" transform="matrix(-.707107 .707107 -.707107 -.707107 0 0)" width="70.000023" x="-58.083195" y="-411.63672"/><path d="m1.916825-406.63672h200.00006v10.000003h-200.00006z" stroke="#000" transform="matrix(-.707107 .707107 -.707107 -.707107 0 0)"/><path d="m272.03804 430.31241-63.63963 63.63964-63.63963-63.63964 63.63963-63.63963z" fill="#ff0"/><path d="m208.39841 493.95205-63.63963-63.63964 63.63963-63.63963z" fill="#f00"/></g><path d="m272.03804 430.31241-63.63963 63.63964-63.63963-63.63964 63.63963-63.63963z" fill="none" stroke="#000" stroke-linejoin="round"/></g><g><g fill-rule="evenodd"><rect height="20" rx="10" transform="scale(-1)" width="70" x="-260" y="-260"/><path d="m-200-255h200v10h-200z" stroke="#000" transform="scale(-1)"/><path d="m90 345h-90v-90h90z" fill="#ff0"/><path d="m0 345v-90h90z" fill="#f00"/></g><path d="m90 345h-90v-90h90z" fill="none" stroke="#000" stroke-linejoin="round"/></g></svg>