<svg height="500" width="600" xmlns="http://www.w3.org/2000/svg"><circle cx="300" cy="210" r="25"/><rect height="160" rx="20" width="70" x="265" y="240"/><g transform="matrix(.70710678 .70710678 -.70710678 .70710678 279.289322 -174.264069)"><rect height="20" rx="10" width="70" x="340" y="240"/><path d="m399 244.5h200.5v101h-91v-90h-110z"/><path d="m509.5 255.5h89v89h-89z" fill="#ff0"/><path d="m509.5 255.5 89 89v-89z" fill="#f00"/></g><rect height="20" rx="10" width="70" x="190" y="240"/><path d="m0 244.5h200.5v11h-110v90h-91z"/><path d="m.5 255.5h89v89h-89z" fill="#ff0"/><path d="m.5 255.5h89l-89 89z" fill="#f00"/></svg>