<svg height="500" width="600" xmlns="http://www.w3.org/2000/svg"><path d="m275 200a25 25 0 1 1 -50 0 25 25 0 1 1 50 0z" fill-rule="evenodd" transform="translate(50 10)"/><rect fill-rule="evenodd" height="160" rx="20" ry="21.333334" width="70" x="265" y="240"/><g><g fill-rule="evenodd"><rect height="20.000006" rx="10.000003" transform="matrix(.707107 .707107 -.707107 .707107 0 0)" width="70.000023" x="414.26416" y="-80.71077"/><path d="m474.26434-75.710793h200.00012v10.000006h-200.00012z" stroke="#000" transform="matrix(.707107 .707107 -.707107 .707107 0 0)"/><path d="m395.96209 430.31228 63.63963-63.63963 63.63963 63.63963-63.63963 63.63963z" fill="#ff0"/><path d="m459.60172 366.67265 63.63963 63.63963-63.63963 63.63963z" fill="#f00"/></g><path d="m395.96209 430.31228 63.63963-63.63963 63.63963 63.63963-63.63963 63.63963z" fill="none" stroke="#000" stroke-linejoin="round"/></g><g><g fill-rule="evenodd"><rect height="20.000006" rx="10.000003" transform="matrix(.707107 -.707107 .707107 .707107 0 0)" width="70.000023" x="12.627343" y="366.18088"/><path d="m72.627365 371.18088h200.00006v10.000003h-200.00006z" stroke="#000" transform="matrix(.707107 -.707107 .707107 .707107 0 0)"/><path d="m462.31228 204.03815-63.63963-63.63963 63.63963-63.639635 63.63963 63.639635z" fill="#ff0"/><path d="m398.67265 140.39852 63.63963-63.639635 63.63963 63.639635z" fill="#f00"/></g><path d="m462.31228 204.03815-63.63963-63.63963 63.63963-63.639635 63.63963 63.639635z" fill="none" stroke="#000" stroke-linejoin="round"/></g></svg>