<svg viewBox="0 0 510.2 453.5" xmlns="http://www.w3.org/2000/svg"><path d="m267.1 206.7-2.8 13-18.5.1-2.8-13.1.6-7.7h22.8z" fill="#ddbb79"/><path d="m234.8 216.6h39.3v34.72h-39.3z" fill="#fff"/><path d="m229.5 222.2-1.1-3a83.2 83.2 0 0 1 28-4.7h.1a84.3 84.3 0 0 1 25.5 3.9l-1 3.1a81.4 81.4 0 0 0 -24.5-3.8h-.1a81.7 81.7 0 0 0 -26.9 4.5z" fill="#201850"/><path d="m299.7 216.1.4-50.1-5.5-40.1-14 .4.5 33.2-.8 19.2-1.9 17.9-.7 2.4-10.6 7.7-11.2 36.6h-1.7l-12.2-33.3-23.9-3.7-12.5-12.8-14.2-13-23.1-23.9-10.2 9.6 21.2 32.1 33.7 40.8 6.3 9.9 4 14.1-.1 20.3-1.1 33.2h65.9l-2.7-34.5v-15z" fill="#212628"/><path d="m159.9 164.9-6.7-5.6-8.2-5.1-4.2-8.7 4.6-6.9 5.6.9 3.9 4.1 3.9 6.4 6.8 9.3z" fill="#dcbd75"/><path d="m136.1 134.3h7.8v5.01h-7.8z" fill="#d4d4d4" transform="matrix(.70833984 -.70587157 .70587157 .70833984 -55.7 138.6)"/><path d="m118.8 56.6h4.3v122.13h-4.3z" fill="#d4d4d4" transform="matrix(.70833984 -.70587157 .70587157 .70833984 -47.7 119.6)"/><path d="m36.7 94.1h81.8v81.76h-81.8z" fill="#fab526" transform="matrix(.70833984 -.70587157 .70587157 .70833984 -72.7 94)"/><path d="m77.4 192.8.3-115.6-57.9 57.7z" fill="#ce450d"/><path d="m167 157.9-5-5.8-2.9-7.6-5.3-4.2-5.2-2.1-4.1-2.9-.7 2.7 4.8 4.4 4.3 4.4 3.3 5.2 9.4 7.2z" fill="#e8c678"/><path d="m154.4 157-4.9-.1-4.5-2.7-4.2-8.7 1.9-2.8 6.5 1.4.3 2.4 2.7 1.9-.7 1.9 2.8 2.4z" fill="#f4cd84"/><path d="m288 316.6h-65.9l-3 57.4-8.4 77.9h40.7l3.5-104.6 1.3-.1 2.7 104.7h40.8l-9-77.5z" fill="#1b2122"/><path d="m302.8 446.2-20.2-2.5v-.1l-22.1 8.2v1.7h9.6l5.4-1 4.2 1h16.3 4.8 4.2z" fill="#1d1d1b"/><path d="m207.7 446.2 20.2-2.5.1-.1 22 8.2v1.7h-9.6l-5.4-1-4.2 1h-16.3-4.8-4.2z" fill="#1d1d1b"/><path d="m269.6 164.1h-29.2v33.2l9.5 8.9h11.4l8.3-8.9z" fill="#f1d094"/><path d="m269.6 164.1h-14.5v42.1h6.2l8.3-8.9z" fill="#f5daac"/><path d="m239.1 171h31.8v7.31h-31.8z" fill="#1d1d1b"/><path d="m275.2 160.2h-39.5l3.4 5.8v5h31.8v-5.2z" fill="#d6d6d6"/><path d="m238.3 180.7h2.1v10.45h-2.1z" fill="#ddbb79"/><path d="m269.6 180.7h2.1v10.45h-2.1z" fill="#ddbb79"/><path d="m235.7 160.2h39.5l-4.3 5.6-31.8.2z" fill="#d0d0d0"/><path d="m267.1 206.7 10.6-7.7-21.8 44.3z" fill="#0055a3"/><path d="m243 206.7-17.6.8 28.8 35.8z" fill="#0055a3"/><path d="m292.4 126.2.8-8.7 2.2-9.4-3.2-9.1-8.1-1.6-3.3 4.6.1 5.7 1.7 7.2 1.8 11.4z" fill="#dcbd75"/><path d="m282.7 89.8h7.8v5.01h-7.8z" fill="#d4d4d4" transform="matrix(.99999848 -.00174533 .00174533 .99999848 -.2 .7)"/><path d="m284.4 4.2h4.3v122.13h-4.3z" fill="#d4d4d4" transform="matrix(.99999848 -.00174533 .00174533 .99999848 -.1 .7)"/><path d="m288.6 6h81.8v81.76h-81.8z" fill="#fab526" transform="matrix(.99999848 -.00174533 .00174533 .99999848 -.1 .8)"/><path d="m370.5 87.7-82-81.6 81.8-.2z" fill="#ce450d"/><path d="m282.5 126.3-.6-7.6-3.3-7.5.7-6.8 2.2-5 .9-5 2.4 1.4-.3 6.5.1 6.2 1.3 5.9-1.5 11.8z" fill="#e8c678"/><path d="m290.7 116.7 3.5-3.5 1.2-5.1-3.2-9.1-3.3-.7-3.7 5.6 1.5 1.9-.5 3.3 1.9.8-.3 3.7z" fill="#f4cd84"/><g fill="#fff"><path d="m239.4 199.6h.8v45.38h-.8z" transform="matrix(.78 -.63 .63 .78 -86.39 199.57)"/><path d="m240.3 198.9h.8v44.61h-.8z" transform="matrix(.77824315 -.62796306 .62796306 .77824315 -85.5 200.1)"/><path d="m242.8 202.6h.8v38.96h-.8z" transform="matrix(.78 -.63 .63 .78 -85.59 202.54)"/><path d="m243.7 219.2h46.2v.75h-46.2z" transform="matrix(.45554491 -.8902128 .8902128 .45554491 -50.2 357)"/><path d="m243.7 218.7h43.6v.75h-43.6z" transform="matrix(.45864955 -.88861723 .88861723 .45864955 -50.9 354.7)"/><path d="m243 218.2h42.2v.75h-42.2z" transform="matrix(.45864955 -.88861723 .88861723 .45864955 -51.1 353.2)"/></g></svg>