<svg viewBox="0 0 510.2 453.5" xmlns="http://www.w3.org/2000/svg"><path d="m267.1 206.7-2.8 13-18.5.1-2.7-13.1.6-7.7h22.8z" fill="#ddbb79"/><path d="m234.8 216.6h39.3v34.72h-39.3z" fill="#fff"/><path d="m229.6 222.2-1.1-3a83.2 83.2 0 0 1 28-4.7 85.5 85.5 0 0 1 25.6 3.9l-1 3.1a81.6 81.6 0 0 0 -24.6-3.8 81.7 81.7 0 0 0 -26.9 4.5z" fill="#201850"/><path d="m154 169.2-6.6-5.7-8.2-5-4.3-8.7 4.7-6.9 5.5.9 4 4.1 3.9 6.4 6.8 9.3z" fill="#dcbd75"/><path d="m288.6 265.8 14.5-22.5 33.7-40.8 21.2-32-10.2-9.6-23.1 23.8-14.2 13-12.5 12.9-3.8 2.1v.1l-26.1-2.8-12.1 33.3h-1.8l-12.1-33.3-26 2.7-3.9-2.1-12.5-12.9-14.1-13-23.1-23.8-10.3 9.6 21.3 32 33.7 40.8 13.6 21.5 2.5 18.6-1.1 33.2h65.9l-1.1-35.5z" fill="#212628"/><path d="m130.3 138.6h7.8v5.01h-7.8z" fill="#d4d4d4" transform="matrix(.70833984 -.70587157 .70587157 .70833984 -60.4 135.7)"/><path d="m113 60.8h4.3v122.13h-4.3z" fill="#d4d4d4" transform="matrix(.70833984 -.70587157 .70587157 .70833984 -52.5 116.7)"/><path d="m30.8 98.4h81.8v81.76h-81.8z" fill="#fab526" transform="matrix(.70833984 -.70587157 .70587157 .70833984 -77.4 91.2)"/><path d="m71.6 197.1.3-115.6-58 57.7z" fill="#ce450d"/><path d="m161.1 162.2-5-5.8-2.8-7.6-5.4-4.3-5.1-2-4.1-2.9-.8 2.7 4.9 4.4 4.2 4.4 3.3 5.1 9.4 7.3z" fill="#e8c678"/><path d="m148.6 161.3-5-.1-4.4-2.7-4.3-8.7 1.9-2.9 6.6 1.5.2 2.3 2.7 2-.7 1.9 2.8 2.4z" fill="#f4cd84"/><path d="m288.1 316.6h-65.9l-3 57.4-8.5 77.9h40.8l3.4-104.6 1.4-.1 2.7 104.7h40.7l-8.9-77.5z" fill="#1b2122"/><path d="m302.9 446.2-20.2-2.5-.1-.1-22 8.2v1.7h9.6l5.4-1 4.2 1h16.3 4.8 4.2z" fill="#1d1d1b"/><path d="m207.8 446.2 20.2-2.5v-.1l22.1 8.2v1.7h-9.6l-5.4-1-4.2 1h-16.3-4.9-4.1z" fill="#1d1d1b"/><path d="m269.7 164.1h-29.2v33.2l9.4 8.9h11.5l8.3-8.9z" fill="#f1d094"/><path d="m269.7 164.1h-14.6v42.1h6.3l8.3-8.9z" fill="#f5daac"/><path d="m239.2 171h31.8v7.31h-31.8z" fill="#1d1d1b"/><path d="m275.3 160.2h-39.5l3.4 5.8v5h31.8v-5.2z" fill="#d6d6d6"/><path d="m238.4 180.7h2.1v10.45h-2.1z" fill="#ddbb79"/><path d="m269.7 180.7h2.1v10.45h-2.1z" fill="#ddbb79"/><path d="m235.8 160.2h39.5l-4.3 5.6-31.8.2z" fill="#d0d0d0"/><path d="m267.1 206.7 21.8 5.5-32.9 31.1z" fill="#0055a3"/><path d="m243.1 206.7-21.7 5.5 32.8 31.1z" fill="#0055a3"/><g fill="#fff"><path d="m286.7 211.7-29.3 26.9-.4 1.5 30.6-28.2z"/><path d="m285.2 211.3-27 24.7-.4 1.4 28.3-25.9z"/><path d="m283.5 210.8-24.4 22.5-.5 1.4 25.8-23.6z"/><path d="m252.8 238.6-29.3-26.9-.9.2 30.6 28.2z"/><path d="m252 236-27-24.7-.8.2 28.2 25.9z"/><path d="m251.2 233.3-24.5-22.5-.9.3 25.8 23.6z"/></g><path d="m356.2 169.2 6.7-5.7 8.2-5 4.2-8.7-4.6-6.9-5.6.9-3.9 4.1-3.9 6.4-6.8 9.3z" fill="#dcbd75"/><path d="m373.6 137.2h5v7.8h-5z" fill="#d4d4d4" transform="matrix(.70587157 -.70833984 .70833984 .70587157 10.8 308.1)"/><path d="m334.1 119.8h122.1v4.28h-122.1z" fill="#d4d4d4" transform="matrix(.70587157 -.70833984 .70833984 .70587157 30 315.9)"/><path d="m397.6 98.4h81.8v81.76h-81.8z" fill="#fab526" transform="matrix(.70587157 -.70833984 .70833984 .70587157 30.5 351.9)"/><path d="m438.7 197.1-.3-115.6 57.9 57.7z" fill="#ce450d"/><path d="m349.1 162.2 5-5.8 2.9-7.6 5.3-4.3 5.2-2 4.1-2.9.7 2.7-4.8 4.4-4.3 4.4-3.3 5.1-9.4 7.3z" fill="#e8c678"/><path d="m361.7 161.3 4.9-.1 4.5-2.7 4.2-8.7-1.9-2.9-6.5 1.5-.3 2.3-2.7 2 .7 1.9-2.8 2.4z" fill="#f4cd84"/></svg>