<svg viewBox="0 0 510.2 453.5" xmlns="http://www.w3.org/2000/svg"><path d="m347.9 283.9 6.1 6.2 5.7 7.8 8.9 3.6 6.5-5.2-1.3-5.5-4.4-3.6-6.6-3.4-9.8-6.1z" fill="#dcbd75"/><path d="m373.5 299h7.8v5.01h-7.8z" fill="#d4d4d4" transform="matrix(.65077422 -.75927131 .75927131 .65077422 -97.1 392.2)"/><path d="m395.8 258.1h4.3v122.13h-4.3z" fill="#d4d4d4" transform="matrix(.65077422 -.75927131 .75927131 .65077422 -103.3 413.8)"/><path d="m342.9 322.8h81.8v81.76h-81.8z" fill="#fab526" transform="matrix(.65077422 -.75927131 .75927131 .65077422 -142.1 418.7)"/><path d="m326.2 368.2 115.3-9-53.2 62.1z" fill="#ce450d"/><path d="m354.3 276.3 6.1 4.5 7.8 2.3 4.7 5 2.4 5 3.2 3.8-2.6 1-4.8-4.5-4.7-3.9-5.4-2.9-7.9-8.8z" fill="#e8c678"/><path d="m356.2 288.7.4 4.9 3.1 4.3 8.9 3.6 2.7-2.2-1.9-6.4h-2.4l-2.1-2.6-1.9.9-2.5-2.7z" fill="#f4cd84"/><path d="m216 126.2-.7-8.7-2.3-9.4 3.2-9.1 8.1-1.6 3.3 4.6-.1 5.7-1.7 7.2-1.8 11.4z" fill="#dcbd75"/><path d="m219.3 88.4h5v7.8h-5z" fill="#d4d4d4" transform="matrix(.00174533 -.99999848 .99999848 .00174533 129 313.9)"/><path d="m160.8 63.1h122.1v4.28h-122.1z" fill="#d4d4d4" transform="matrix(.00174533 -.99999848 .99999848 .00174533 156.2 287)"/><path d="m138 6h81.8v81.76h-81.8z" fill="#fab526" transform="matrix(.00174533 -.99999848 .99999848 .00174533 131.6 225.7)"/><path d="m137.9 87.7 82-81.6-81.8-.2z" fill="#ce450d"/><path d="m225.9 126.3.6-7.6 3.3-7.5-.7-6.8-2.2-5-.8-5-2.5 1.4.3 6.5-.1 6.2-1.3 5.9 1.5 11.8z" fill="#e8c678"/><path d="m217.7 116.7-3.5-3.5-1.2-5.1 3.2-9.1 3.3-.7 3.7 5.6-1.5 1.9.5 3.3-1.9.8.3 3.7z" fill="#f4cd84"/><path d="m266.1 206.7-2.8 13-18.5.1-2.8-13.1.6-7.7h22.8z" fill="#ddbb79"/><path d="m233.8 216.6h39.3v34.72h-39.3z" fill="#fff"/><path d="m280 221.5a81.6 81.6 0 0 0 -24.6-3.8 85.3 85.3 0 0 0 -17.5 1.9l-.7-3.2a85.9 85.9 0 0 1 18.2-1.9 84.5 84.5 0 0 1 25.6 3.9z" fill="#201850"/><path d="m287 316.6h-65.9l-3 57.4-8.4 77.9h40.7l3.5-104.6 1.3-.1 2.7 104.7h40.8l-9-77.5z" fill="#1b2122"/><path d="m301.8 446.2-20.2-2.5v-.1l-22.1 8.2v1.7h9.6l5.4-1 4.2 1h16.3 4.8 4.2z" fill="#1d1d1b"/><path d="m206.7 446.2 20.2-2.5.1-.1 22 8.2v1.7h-9.6l-5.4-1-4.2 1h-16.3-4.8-4.2z" fill="#1d1d1b"/><path d="m326.8 250.8-14.1-13.1-13.7-11.6-5.9-6.3-26-9.8-12.2 33.3h-1.7l-12.2-33.3-10.3-11-.7-2.4-1.9-17.9-.8-19.2.5-33.2-14-.4-5.5 40.1.4 50.1 14.3 50.9v23.9l-1.9 25.7h65.9l-1.9-25.7v-32.3l1.2-5.8 26.9 14.3 33.5 18.6 8.8-10.9z" fill="#212628"/><path d="m268.6 164.1h-29.2v33.2l9.5 8.9h11.4l8.3-8.9z" fill="#f1d094"/><path d="m268.6 164.1h-14.6v42.1h6.3l8.3-8.9z" fill="#f5daac"/><path d="m238.1 171h31.8v7.31h-31.8z" fill="#1d1d1b"/><path d="m274.2 160.2h-39.5l3.4 5.8v5h31.8v-5.2z" fill="#d6d6d6"/><path d="m237.3 180.7h2.1v10.45h-2.1z" fill="#ddbb79"/><path d="m268.6 180.7h2.1v10.45h-2.1z" fill="#ddbb79"/><path d="m234.7 160.2h39.5l-4.3 5.6-31.8.2z" fill="#d0d0d0"/><path d="m266.1 206.7 21.7 11.1-32.9 25.5z" fill="#0055a3"/><path d="m242 206.7-11.3-7.7 22.5 44.3z" fill="#0055a3"/><g fill="#fff"><path d="m285 216.3-28.4 21.5-.4 1.2 29.5-22.3z"/><path d="m283.6 215.6-26.3 19.9-.4 1.2 27.4-20.7z"/><path d="m282.2 214.9-24.2 18.3-.4 1.2 25.3-19.1z"/><path d="m250.6 234.8-17.5-34.2-1.3-.9 20 39.2z"/><path d="m248.3 227.3-13-25.1-1.2-.9 15.4 30z"/><path d="m246 219.6-8.1-15.7-1.3-.9 10.6 20.6z"/></g></svg>