<svg viewBox="0 0 510.2 453.5" xmlns="http://www.w3.org/2000/svg"><path d="m265.5 206.7-2.8 13-18.5.1-2.7-13.1.6-7.7h22.8z" fill="#ddbb79"/><path d="m233.2 216.6h39.3v34.72h-39.3z" fill="#fff"/><path d="m228 222.2-1.1-3a83.2 83.2 0 0 1 28-4.7 85.5 85.5 0 0 1 25.6 3.9l-1 3.1a81.6 81.6 0 0 0 -24.6-3.8 81.7 81.7 0 0 0 -26.9 4.5z" fill="#201850"/><path d="m340.7 160.4-23.1 23.9-14.1 13-12.6 12.9-3.6 2-20.8-2.2-12.1 33.3h-1.8l-12.1-33.3-20.7 2.2-.9 42.6.3 10 2.5 18.6-1.1 33.2h65.9l-1.5-33.8-.2-26.8 5.8-16.1 39.1-37.8 21.2-32.1z" fill="#212628"/><path d="m286.5 316.6h-65.9l-3 57.4-8.5 77.9h40.8l3.4-104.6 1.4-.1 2.7 104.7h40.7l-8.9-77.5z" fill="#1b2122"/><path d="m301.3 446.2-20.2-2.5-.1-.1-22 8.2v1.7h9.6l5.4-1 4.2 1h16.3 4.8 4.2z" fill="#1d1d1b"/><path d="m206.2 446.2 20.2-2.5v-.1l22.1 8.2v1.7h-9.6l-5.4-1-4.2 1h-16.3-4.8-4.2z" fill="#1d1d1b"/><path d="m268.1 164.1h-29.2v33.2l9.4 8.9h11.5l8.3-8.9z" fill="#f1d094"/><path d="m268.1 164.1h-14.6v42.1h6.3l8.3-8.9z" fill="#f5daac"/><path d="m237.6 171h31.8v7.31h-31.8z" fill="#1d1d1b"/><path d="m273.7 160.2h-39.5l3.4 5.8v5h31.8v-5.2z" fill="#d6d6d6"/><path d="m236.8 180.7h2.1v10.45h-2.1z" fill="#ddbb79"/><path d="m268.1 180.7h2.1v10.45h-2.1z" fill="#ddbb79"/><path d="m234.2 160.2h39.5l-4.3 5.6-31.8.2z" fill="#d0d0d0"/><path d="m265.5 206.7 21.8 5.5-32.9 31.1z" fill="#0055a3"/><path d="m241.5 206.7-21.7 5.5 32.8 31.1z" fill="#0055a3"/><g fill="#fff"><path d="m285.1 211.7-29.3 26.9-.4 1.5 30.6-28.2z"/><path d="m283.6 211.3-27 24.7-.4 1.4 28.3-25.9z"/><path d="m281.9 210.8-24.4 22.5-.5 1.4 25.8-23.6z"/><path d="m251.2 238.6-29.3-26.9-.9.2 30.6 28.2z"/><path d="m250.4 236-27-24.7-.8.2 28.2 25.9z"/><path d="m249.6 233.3-24.5-22.5-.9.3 25.8 23.6z"/></g><path d="m349.1 168.7 6.7-5.6 8.2-5.1 4.2-8.7-4.6-6.8-5.6.8-3.9 4.2-3.9 6.3-6.8 9.3z" fill="#dcbd75"/><path d="m366.5 136.7h5v7.8h-5z" fill="#d4d4d4" transform="matrix(.70587157 -.70833984 .70833984 .70587157 9.1 303)"/><path d="m327 119.3h122.1v4.28h-122.1z" fill="#d4d4d4" transform="matrix(.70587157 -.70833984 .70833984 .70587157 28.2 310.8)"/><path d="m390.5 98h81.8v81.76h-81.8z" fill="#fab526" transform="matrix(.70587157 -.70833984 .70833984 .70587157 28.7 346.7)"/><path d="m431.6 196.7-.3-115.7 57.9 57.7z" fill="#ce450d"/><path d="m342 161.7 5-5.7 2.9-7.7 5.3-4.2 5.2-2.1 4.1-2.9.7 2.7-4.8 4.4-4.3 4.5-3.3 5.1-9.4 7.2z" fill="#e8c678"/><path d="m354.6 160.8h4.9l4.5-2.8 4.2-8.7-1.9-2.8-6.5 1.4-.3 2.4-2.7 1.9.7 1.9-2.8 2.4z" fill="#f4cd84"/><path d="m289.7 228.3-37.5.4-20.6-3.7-11.8-12.8-7.7 11.2v17.6l6.8 5.6 15.3 1.8 55.9-6.1z" fill="#262c2d"/><path d="m319.7 232h7.8v5h-7.8z" fill="#d4d4d4" transform="matrix(.00174533 -.99999848 .99999848 .00174533 88.6 557.7)"/><path d="m290 232.3.4 4.3 121.3.2v-4.3z" fill="#d4d4d4"/><path d="m327.9 236.7h81.8v81.76h-81.8z" fill="#fab526" transform="matrix(.00349065 -.99999391 .99999391 .00349065 90.2 645.6)"/><path d="m327.8 318.3 82-81.5-.2 81.7z" fill="#ce450d"/><path d="m289.7 229.8 6.1-.4 8-3.6 7.4.8 5.5 2.4 3.7.6-1.5 2.7-5.4-.1-6.7.2-6.5 1.3-10.5-1.4z" fill="#ccb06d"/><path d="m290 240.6 1.5-.2 6-.5 8.3 2.3 1.6-.9h2.1l1.5-1.3 2.1-.2 1.1-1.6 1.8.3 1.9-2.9-6.7-9-7.4-.8-8 3.6-6.1.4z" fill="#dcbd75"/></svg>