<svg viewBox="0 0 510.2 453.5" xmlns="http://www.w3.org/2000/svg"><path d="m267.7 206.7-2.8 13-18.6.1-2.7-13.1.6-7.7h22.8z" fill="#ddbb79"/><path d="m235.4 216.6h39.3v34.72h-39.3z" fill="#fff"/><path d="m230.1 222.2-1.1-3a83.2 83.2 0 0 1 28-4.7h.1a84.3 84.3 0 0 1 25.5 3.9l-1 3.1a81.4 81.4 0 0 0 -24.5-3.8h-.1a81.7 81.7 0 0 0 -26.9 4.5z" fill="#201850"/><path d="m351.3 168.7 6.6-5.6 8.2-5.1 4.3-8.7-4.7-6.8-5.6.8-3.9 4.2-3.9 6.3-6.8 9.3z" fill="#dcbd75"/><path d="m342.8 160.4-23.1 23.9-14.1 13-12.6 12.9-3.6 2-20.7-2.2-12.2 33.3h-1.7l-12.2-33.3-20.7 2.2-.9 42.6.3 10 2.5 18.6-1.1 33.2h65.9l-1.5-33.8-.1-26.8 5.7-16.1 39.1-37.8 21.2-32.1z" fill="#212628"/><path d="m368.6 136.7h5v7.8h-5z" fill="#d4d4d4" transform="matrix(.70587157 -.70833984 .70833984 .70587157 9.7 304.5)"/><path d="m329.1 119.3h122.1v4.28h-122.1z" fill="#d4d4d4" transform="matrix(.70587157 -.70833984 .70833984 .70587157 28.8 312.3)"/><path d="m392.7 98h81.8v81.76h-81.8z" fill="#fab526" transform="matrix(.70587157 -.70833984 .70833984 .70587157 29.3 348.2)"/><path d="m433.7 196.7-.3-115.7 57.9 57.7z" fill="#ce450d"/><path d="m344.1 161.7 5-5.7 2.9-7.7 5.4-4.2 5.1-2.1 4.1-2.9.8 2.7-4.9 4.4-4.2 4.5-3.4 5.1-9.3 7.2z" fill="#e8c678"/><path d="m356.7 160.8h4.9l4.5-2.8 4.3-8.7-2-2.8-6.5 1.4-.3 2.4-2.6 1.9.7 1.9-2.8 2.4z" fill="#f4cd84"/><path d="m288.6 316.6h-65.9l-3 57.4-8.4 77.9h40.7l3.5-104.6 1.3-.1 2.7 104.7h40.8l-9-77.5z" fill="#1b2122"/><path d="m303.4 446.2-20.2-2.5v-.1l-22.1 8.2v1.7h9.6l5.4-1 4.2 1h16.3 4.8 4.2z" fill="#1d1d1b"/><path d="m208.3 446.2 20.2-2.5.1-.1 22 8.2v1.7h-9.6l-5.4-1-4.2 1h-16.3-4.8-4.2z" fill="#1d1d1b"/><path d="m270.2 164.1h-29.2v33.2l9.5 8.9h11.4l8.3-8.9z" fill="#f1d094"/><path d="m270.2 164.1h-14.6v42.1h6.3l8.3-8.9z" fill="#f5daac"/><path d="m239.7 171h31.8v7.31h-31.8z" fill="#1d1d1b"/><path d="m275.8 160.2h-39.5l3.4 5.8v5h31.8v-5.2z" fill="#d6d6d6"/><path d="m238.9 180.7h2.1v10.45h-2.1z" fill="#ddbb79"/><path d="m270.2 180.7h2.1v10.45h-2.1z" fill="#ddbb79"/><path d="m236.3 160.2h39.5l-4.3 5.6-31.8.2z" fill="#d0d0d0"/><path d="m267.7 206.7 21.7 5.5-32.9 31.1z" fill="#0055a3"/><path d="m243.6 206.7-21.7 5.5 32.9 31.1z" fill="#0055a3"/><g fill="#fff"><path d="m287.2 211.7-29.3 26.9-.4 1.5 30.6-28.2z"/><path d="m285.7 211.3-26.9 24.7-.5 1.4 28.3-25.9z"/><path d="m284 210.8-24.4 22.5-.5 1.4 25.8-23.6z"/><path d="m253.3 238.6-29.3-26.9-.8.2 30.6 28.2z"/><path d="m252.5 236-26.9-24.7-.9.2 28.2 25.9z"/><path d="m251.7 233.3-24.5-22.5-.8.3 25.7 23.6z"/></g><path d="m288.5 280.6-29.9-27.4-18.7-24.4-18-16.6-8 13.9 7.1 22.3 11.1 9.5 46.8 32.9z" fill="#262c2d"/><path d="m304.1 306.7h7.8v5h-7.8z" fill="#d4d4d4" transform="matrix(.70587157 -.70833984 .70833984 .70587157 -128.5 308.9)"/><path d="m285.7 284-2.7 3.3 85.9 85.6 3-3z" fill="#d4d4d4"/><path d="m268.8 330.7h81.8v81.76h-81.8z" fill="#fab526" transform="matrix(.70710678 -.70710678 .70710678 .70710678 -172.1 327.9)"/><path d="m251.9 371.6h115.6l-57.8 57.8z" fill="#ce450d"/><path d="m287.3 281.9 4.5 4 8.3 3.2 4.6 5.8 2.2 5.5 2.2 3.1-2.9.9-3.8-4-4.8-4.6-5.6-3.6-6.5-8.4z" fill="#ccb06d"/><path d="m279.8 289.8 1.2 1 4.6 3.8 4.4 7.5 1.7.5 1.4 1.5 2 .1 1.7 1.4 1.8-.4 1.2 1.5 3.3-.7 1.6-11.1-4.6-5.8-8.3-3.2-4.5-4z" fill="#dcbd75"/></svg>