<svg viewBox="0 0 510.2 453.5" xmlns="http://www.w3.org/2000/svg"><path d="m242.7 206.7 2.8 13 18.5.1 2.7-13.1-.5-7.7h-22.8z" fill="#ddbb79"/><path d="m235.7 216.6h39.3v34.72h-39.3z" fill="#fff"/><path d="m280.3 222.2a82.2 82.2 0 0 0 -27-4.5 82.1 82.1 0 0 0 -24.6 3.8l-.9-3.1a84.3 84.3 0 0 1 25.5-3.9 82.7 82.7 0 0 1 28 4.7z" fill="#201850"/><path d="m377.1 227.9 8.6.8 9.4 2.2 9.1-3.1 1.7-8.2-4.6-3.3-5.7.1-7.3 1.8-11.4 1.7z" fill="#dcbd75"/><path d="m376.9 216.1-37.4.4-19.2-.8-18 .2-8.5-1-26.1-4.9-12.1 33.3h-1.7l-12.2-33.3-26 2.8v-.1l-3.9-2.1-12.5-12.9-14.1-13-23.1-23.8-10.3 9.6 21.3 32 33.7 40.8 13.6 24 1.4 49.3h65.9l-2-25.7v-32.3l1.8-9.6 3.3-2.7 49-8.6 37.6-7.6z" fill="#212628"/><path d="m408.5 218.2h5v7.8h-5z" fill="#d4d4d4"/><path d="m376.9 220h122.1v4.28h-122.1z" fill="#d4d4d4"/><path d="m415.4 224.3h81.8v81.76h-81.8z" fill="#fab526"/><path d="m415.4 306 81.7-81.7v81.7z" fill="#ce450d"/><path d="m377 217.9 7.6-.5 7.4-3.3 6.8.8 5.1 2.1 4.9.9-1.3 2.5-6.6-.4-6.1.1-6 1.3-11.7-1.5z" fill="#e8c678"/><path d="m386.5 226.2 3.5 3.5 5.1 1.2 9.1-3.1.7-3.4-5.6-3.6-1.9 1.5-3.2-.5-.9 1.8-3.7-.3z" fill="#f4cd84"/><path d="m221.8 316.6h65.9l3 57.4 8.4 77.9h-40.7l-3.5-104.6-1.4-.1-2.6 104.7h-40.8l9-77.5z" fill="#1b2122"/><path d="m206.9 446.2 20.3-2.5v-.1l22.1 8.2v1.7h-9.6l-5.5-1-4.1 1h-16.3-4.9-4.1z" fill="#1d1d1b"/><path d="m302.1 446.2-20.2-2.5-.1-.1-22 8.2v1.7h9.6l5.4-1 4.1 1h16.4 4.8 4.2z" fill="#1d1d1b"/><path d="m240.2 164.1h29.2v33.2l-9.5 8.9h-11.4l-8.3-8.9z" fill="#f1d094"/><path d="m240.2 164.1h14.5v42.1h-6.2l-8.3-8.9z" fill="#f5daac"/><path d="m238.9 171h31.8v7.31h-31.8z" fill="#1d1d1b"/><path d="m234.5 160.2h39.6l-3.4 5.8v5h-31.8v-5.2z" fill="#d6d6d6"/><path d="m269.4 180.7h2.1v10.45h-2.1z" fill="#ddbb79"/><path d="m238.1 180.7h2.1v10.45h-2.1z" fill="#ddbb79"/><path d="m274.1 160.2h-39.6l4.4 5.6 31.8.2z" fill="#d0d0d0"/><path d="m242.7 206.7-21.7 5.5 32.9 31.1z" fill="#0055a3"/><path d="m266.7 206.7 25.5 7.9-36.6 28.7z" fill="#0055a3"/><g fill="#fff"><path d="m252.4 238.6-29.3-26.9-.9.2 30.7 28.2z"/><path d="m251.6 236-27-24.7-.8.2 28.2 25.9z"/><path d="m250.8 233.3-24.5-22.5-.8.3 25.7 23.6z"/><path d="m289.6 213.7-32.4 24.4-.4 1.2 33.6-25.3z"/><path d="m287.8 213.2-29.9 22.6-.4 1.2 31.2-23.5z"/><path d="m286.1 212.7-27.5 20.8-.4 1.2 28.8-21.7z"/></g><path d="m153.6 169.2-6.6-5.7-8.2-5-4.3-8.7 4.7-6.9 5.6.9 3.9 4.1 3.9 6.4 6.8 9.3z" fill="#dcbd75"/><path d="m129.9 138.6h7.8v5.01h-7.8z" fill="#d4d4d4" transform="matrix(.70833984 -.70587157 .70587157 .70833984 -60.5 135.4)"/><path d="m112.6 60.8h4.3v122.13h-4.3z" fill="#d4d4d4" transform="matrix(.70833984 -.70587157 .70587157 .70833984 -52.6 116.4)"/><path d="m30.5 98.4h81.8v81.76h-81.8z" fill="#fab526" transform="matrix(.70833984 -.70587157 .70587157 .70833984 -77.5 90.9)"/><path d="m71.2 197.1.3-115.6-58 57.7z" fill="#ce450d"/><path d="m160.7 162.2-5-5.8-2.8-7.6-5.4-4.3-5.1-2-4.1-2.9-.8 2.7 4.9 4.4 4.2 4.4 3.3 5.1 9.4 7.3z" fill="#e8c678"/><path d="m148.2 161.3-5-.1-4.4-2.7-4.3-8.7 1.9-2.9 6.6 1.5.2 2.3 2.7 2-.7 1.9 2.8 2.4z" fill="#f4cd84"/></svg>