<svg viewBox="0 0 510.2 453.5" xmlns="http://www.w3.org/2000/svg"><path d="m377.8 225.5 8.7.7 9.4 2.2 9.1-3.1 1.6-8.1-4.6-3.4-5.7.2-7.2 1.7-11.4 1.7z" fill="#dcbd75"/><path d="m409.2 215.8h5v7.8h-5z" fill="#d4d4d4"/><path d="m377.7 217.5h122.1v4.28h-122.1z" fill="#d4d4d4"/><path d="m416.1 221.8h81.8v81.76h-81.8z" fill="#fab526"/><path d="m416.1 303.6 81.8-81.8v81.8z" fill="#ce450d"/><path d="m377.7 215.5 7.7-.5 7.4-3.4 6.8.8 5 2.2 5 .8-1.4 2.5-6.5-.4-6.2.2-5.9 1.2-11.8-1.5z" fill="#e8c678"/><path d="m387.2 223.7 3.6 3.5 5.1 1.2 9.1-3.1.7-3.3-5.6-3.7-1.9 1.5-3.3-.5-.8 1.8-3.7-.3z" fill="#f4cd84"/><path d="m270.2 206.7-2.8 13-18.5.1-2.8-13.1.6-7.7h22.8z" fill="#ddbb79"/><path d="m237.9 216.6h39.3v34.72h-39.3z" fill="#fff"/><path d="m232.6 222.2-1.1-3a83.2 83.2 0 0 1 28-4.7h.1a84.3 84.3 0 0 1 25.5 3.9l-1 3.1a81.4 81.4 0 0 0 -24.5-3.8h-.1a81.7 81.7 0 0 0 -26.9 4.5z" fill="#201850"/><path d="m291.1 316.6h-65.9l-3 57.4-8.4 77.9h40.7l3.5-104.6 1.3-.1 2.7 104.7h40.8l-9-77.5z" fill="#1b2122"/><path d="m305.9 446.2-20.2-2.5v-.1l-22.1 8.2v1.7h9.6l5.4-1 4.2 1h16.3 4.8 4.2z" fill="#1d1d1b"/><path d="m210.8 446.2 20.2-2.5.1-.1 22 8.2v1.7h-9.6l-5.4-1-4.2 1h-16.3-4.8-4.2z" fill="#1d1d1b"/><path d="m377.7 213.6-37.5.5-19.1-.9-18 .2-8.5-1-23.4-2.4-12.2 33.3h-1.7l-12.2-33.3-20.7 2.2-.9 42.6.3 10 2.5 18.6-1.1 33.2h65.9l-1.5-33.8-.1-27.4 1.2-10.8.9-.7 49-8.6 37.5-7.7z" fill="#212628"/><path d="m272.7 164.1h-29.2v33.2l9.5 8.9h11.4l8.3-8.9z" fill="#f1d094"/><path d="m272.7 164.1h-14.6v42.1h6.3l8.3-8.9z" fill="#f5daac"/><path d="m242.2 171h31.8v7.31h-31.8z" fill="#1d1d1b"/><path d="m278.3 160.2h-39.5l3.4 5.8v5h31.8v-5.2z" fill="#d6d6d6"/><path d="m241.4 180.7h2.1v10.45h-2.1z" fill="#ddbb79"/><path d="m272.7 180.7h2.1v10.45h-2.1z" fill="#ddbb79"/><path d="m238.8 160.2h39.5l-4.3 5.6-31.8.2z" fill="#d0d0d0"/><path d="m270.2 206.7 21.7 5.5-32.9 31.1z" fill="#0055a3"/><path d="m246.1 206.7-21.7 5.5 32.9 31.1z" fill="#0055a3"/><g fill="#fff"><path d="m289.7 211.7-29.3 26.9-.4 1.5 30.6-28.2z"/><path d="m288.2 211.3-26.9 24.7-.5 1.4 28.3-25.9z"/><path d="m286.6 210.8-24.5 22.5-.5 1.4 25.8-23.6z"/><path d="m255.8 238.6-29.3-26.9-.8.2 30.6 28.2z"/><path d="m255 236-26.9-24.7-.9.2 28.2 25.9z"/><path d="m254.2 233.3-24.5-22.5-.8.3 25.7 23.6z"/></g><path d="m291.1 280.6-30-27.4-18.6-24.4-18.1-16.6-8 13.9 7.1 22.3 11.1 9.5 46.8 32.9z" fill="#262c2d"/><path d="m306.6 306.7h7.8v5h-7.8z" fill="#d4d4d4" transform="matrix(.70587157 -.70833984 .70833984 .70587157 -127.7 310.7)"/><path d="m288.2 284-2.7 3.3 85.9 85.6 3-3z" fill="#d4d4d4"/><path d="m271.3 330.7h81.8v81.76h-81.8z" fill="#fab526" transform="matrix(.70710678 -.70710678 .70710678 .70710678 -171.3 329.7)"/><path d="m254.4 371.6h115.6l-57.8 57.8z" fill="#ce450d"/><path d="m289.8 281.9 4.5 4 8.3 3.2 4.6 5.8 2.2 5.5 2.2 3.1-2.9.9-3.8-4-4.8-4.6-5.6-3.6-6.5-8.4z" fill="#ccb06d"/><path d="m282.3 289.8 1.2 1 4.6 3.8 4.4 7.5 1.7.5 1.4 1.5 2 .1 1.6 1.4 1.9-.4 1.2 1.5 3.3-.7 1.6-11.1-4.6-5.8-8.3-3.2-4.5-4z" fill="#dcbd75"/></svg>