<svg xmlns="http://www.w3.org/2000/svg" width="80" height="80" viewBox="0 0 80 80"><title>platonic</title><polygon points="20 34 40 46 40 68 20 80 0 68 0 46 20 34" fill="#c1002d"/><polygon points="60 34 80 46 80 68 60 80 40 68 40 46 60 34" fill="#1b1464"/><polygon points="40 0 60 12 60 34 40 46 20 34 20 12 40 0" fill="#662d91"/><g opacity="0.4"><polyline points="80 46 60 34 60 12 80 0" fill="#c1002d"/><polyline points="0 0 20 12 20 34 0 46" fill="#1b1464"/><polyline points="60 80 80 68 80 80" fill="#c1002d"/><polyline points="40 0 20 12 0 0" fill="#c1002d"/><polyline points="80 0 60 12 40 0" fill="#1b1464"/><polyline points="0 80 0 68 20 80" fill="#1b1464"/><polyline points="20 80 40 68 60 80" fill="#662d91"/></g></svg>