<svg id="Layer_1" data-name="Layer 1" xmlns="http://www.w3.org/2000/svg" viewBox="0 0 220 220"><title>pentagons-2</title><polygon points="-5.9 62.1 12.1 36.3 -24.9 21.3 -64 29.6 -37.2 59.4 -5.9 62.1" fill="#e66438"/><polygon points="108.5 -6.3 95.2 -34.8 63.7 -10.2 51.4 27.9 90.5 19.5 108.5 -6.3" fill="#ff941f"/><polygon points="50.4 -38.7 19 -41.4 24.6 -1.9 51.4 27.9 63.7 -10.2 50.4 -38.7" fill="#cc3450"/><polygon points="-6.8 -4.6 -24.8 21.2 12.2 36.2 51.4 27.9 24.5 -1.9 -6.8 -4.6" fill="#b30469"/><polygon points="-5.8 62 7.6 90.5 39 65.9 51.4 27.9 12.2 36.2 -5.8 62" fill="#ff941f"/><polygon points="52.4 94.4 83.7 97.1 78.1 57.6 51.4 27.9 39 66 52.4 94.4" fill="#cc3450"/><polygon points="109.5 60.3 127.5 34.5 90.5 19.5 51.4 27.9 78.2 57.6 109.5 60.3" fill="#b30469"/><polygon points="52.3 94.6 38.9 66.1 7.5 90.6 -4.9 128.7 34.3 120.3 52.3 94.6" fill="#e66438"/><polygon points="-5.9 62.1 -37.2 59.5 -31.7 99 -4.9 128.7 7.5 90.6 -5.9 62.1" fill="#cc3450"/><polygon points="-3.9 195.3 27.5 197.9 21.9 158.4 -4.9 128.7 -17.2 166.8 -3.9 195.3" fill="#cc3450"/><polygon points="53.3 161.1 71.3 135.3 34.3 120.4 -4.9 128.7 22 158.4 53.3 161.1" fill="#ff941f"/><polygon points="167.7 92.8 154.3 64.3 122.9 88.9 110.5 126.9 149.7 118.6 167.7 92.8" fill="#cc3450"/><polygon points="109.5 60.4 78.2 57.7 83.7 97.2 110.5 126.9 122.9 88.8 109.5 60.4" fill="#e66438"/><polygon points="52.4 94.5 34.4 120.3 71.4 135.2 110.5 126.9 83.7 97.2 52.4 94.5" fill="#b30469"/><polygon points="53.4 161.1 66.7 189.5 98.1 165 110.5 126.9 71.3 135.3 53.4 161.1" fill="#cc3450"/><polygon points="111.5 193.5 142.8 196.2 137.3 156.7 110.5 126.9 98.2 165 111.5 193.5" fill="#e66438"/><polygon points="168.7 159.3 186.6 133.5 149.7 118.6 110.5 126.9 137.3 156.7 168.7 159.3" fill="#cc3450"/><polygon points="223.9 -8.1 210.5 -36.5 179.1 -12 166.7 26.1 205.9 17.7 223.9 -8.1" fill="#ff941f"/><polygon points="165.7 -40.5 134.4 -43.2 140 -3.7 166.7 26.1 179.1 -12 165.7 -40.5" fill="#b30469"/><polygon points="108.6 -6.3 90.6 19.5 127.6 34.4 166.7 26.1 139.9 -3.7 108.6 -6.3" fill="#cc3450"/><polygon points="109.6 60.2 122.9 88.7 154.4 64.1 166.7 26.1 127.6 34.4 109.6 60.2" fill="#ff941f"/><polygon points="167.7 92.6 199.1 95.3 193.5 55.8 166.7 26.1 154.4 64.2 167.7 92.6" fill="#b30469"/><polygon points="224.9 58.5 242.9 32.7 205.9 17.8 166.7 26.1 193.6 55.8 224.9 58.5" fill="#cc3450"/><polygon points="168.7 159.3 186.6 133.5 149.7 118.6 110.5 126.9 137.3 156.7 168.7 159.3" fill="#b30469"/><polygon points="224.9 58.6 193.6 55.9 199.1 95.4 225.9 125.1 238.2 87 224.9 58.6" fill="#e66438"/><polygon points="167.7 92.7 149.8 118.5 186.7 133.5 225.9 125.1 199.1 95.4 167.7 92.7" fill="#ff941f"/><polygon points="168.7 159.3 182.1 187.8 213.5 163.2 225.9 125.1 186.7 133.5 168.7 159.3" fill="#e66438"/><polygon points="226.9 191.7 258.2 194.4 252.7 154.9 225.9 125.1 213.6 163.2 226.9 191.7" fill="#b30469"/><polygon points="111.4 193.6 98.1 165.1 66.6 189.7 54.3 227.8 93.4 219.4 111.4 193.6" fill="#ff941f"/><polygon points="53.3 161.2 21.9 158.5 27.5 198 54.3 227.8 66.6 189.7 53.3 161.2" fill="#b30469"/><polygon points="-3.9 195.3 -21.9 221.1 15.1 236.1 54.3 227.8 27.5 198 -3.9 195.3" fill="#e66438"/><polygon points="112.4 260.2 130.4 234.4 93.4 219.4 54.3 227.8 81.1 257.5 112.4 260.2" fill="#e66438"/><polygon points="226.8 191.8 213.5 163.4 182 187.9 169.7 226 208.8 217.6 226.8 191.8" fill="#cc3450"/><polygon points="168.7 159.4 137.3 156.7 142.9 196.2 169.7 226 182 187.9 168.7 159.4" fill="#ff941f"/><polygon points="111.5 193.6 93.5 219.3 130.5 234.3 169.7 226 142.8 196.2 111.5 193.6" fill="#b30469"/><polygon points="227.8 258.4 245.8 232.6 208.8 217.7 169.7 226 196.5 255.7 227.8 258.4" fill="#cc3450"/><polygon points="227.8 258.4 245.8 232.6 208.8 217.7 169.7 226 196.5 255.7 227.8 258.4" fill="#b30469"/><polygon points="226.9 191.8 208.9 217.6 245.9 232.5 285 224.2 258.2 194.4 226.9 191.8" fill="#e66438"/><polygon points="223.9 -8 205.9 17.8 242.9 32.7 282 24.4 255.2 -5.4 223.9 -8" fill="#b30469"/></svg>