<?xml version="1.0" encoding="UTF-8"?>
<svg width="964px" height="90px" viewBox="0 0 964 90" version="1.1" xmlns="http://www.w3.org/2000/svg" xmlns:xlink="http://www.w3.org/1999/xlink">
    <title>byte/12+p</title>
    <g id="√-encoding" stroke="none" stroke-width="1" fill="none" fill-rule="evenodd">
        <g id="byte/12">
            <g id="bit/1" transform="translate(902.000000, 0.000000)">
                <rect id="Rectangle" fill="#22AC24" fill-rule="nonzero" x="0" y="0" width="62" height="90" rx="25"></rect>
                <path d="M36.171875,63.578125 L28.0078125,63.578125 L28.0078125,32.9140625 C27.6171855,33.0442715 27.1093781,33.1809889 26.484375,33.3242188 C25.8593719,33.4674486 25.3645852,33.5911453 25,33.6953125 L25,29.2421875 C25.6510449,29.0598949 26.4583285,28.8255223 27.421875,28.5390625 C28.3854215,28.2526027 29.3880156,27.9596369 30.4296875,27.6601562 C31.4713594,27.3606756 32.5,27.0611994 33.515625,26.7617188 C34.5312551,26.4622381 35.4166629,26.2083344 36.171875,26 L36.171875,63.578125 Z" id="1" fill="#FAFFFB" fill-rule="evenodd"></path>
            </g>
            <g id="bit/0" transform="translate(820.000000, 0.000000)">
                <rect id="Rectangle-Copy" stroke="#22AC24" stroke-width="3" fill="#FAFFFB" fill-rule="nonzero" x="1.5" y="1.5" width="59" height="87" rx="25"></rect>
                <path d="M42.6328125,51.78125 C42.6328125,53.4218832 42.326826,54.9583262 41.7148438,56.390625 C41.1028615,57.8229238 40.2565158,59.0729113 39.1757812,60.140625 C38.0950467,61.2083387 36.8385488,62.048174 35.40625,62.6601562 C33.9739512,63.2721385 32.4375082,63.578125 30.796875,63.578125 C29.1562418,63.578125 27.6197988,63.2721385 26.1875,62.6601562 C24.7552012,62.048174 23.5052137,61.2083387 22.4375,60.140625 C21.3697863,59.0729113 20.529951,57.8229238 19.9179688,56.390625 C19.3059865,54.9583262 19,53.4218832 19,51.78125 L19,37.796875 C19,36.1562418 19.3059865,34.6197988 19.9179688,33.1875 C20.529951,31.7552012 21.3697863,30.5052137 22.4375,29.4375 C23.5052137,28.3697863 24.7552012,27.529951 26.1875,26.9179688 C27.6197988,26.3059865 29.1562418,26 30.796875,26 C32.4375082,26 33.9739512,26.3059865 35.40625,26.9179688 C36.8385488,27.529951 38.0950467,28.3697863 39.1757812,29.4375 C40.2565158,30.5052137 41.1028615,31.7552012 41.7148438,33.1875 C42.326826,34.6197988 42.6328125,36.1562418 42.6328125,37.796875 L42.6328125,51.78125 Z M34.46875,31.1953125 C33.9479141,30.9088527 33.3619824,30.6875008 32.7109375,30.53125 C32.0598926,30.3749992 31.4218781,30.296875 30.796875,30.296875 C30.1979137,30.296875 29.5729199,30.3749992 28.921875,30.53125 C28.2708301,30.6875008 27.6848984,30.9088527 27.1640625,31.1953125 L27.1640625,58.3828125 C27.6848984,58.6432305 28.2708301,58.8580721 28.921875,59.0273438 C29.5729199,59.1966154 30.1979137,59.28125 30.796875,59.28125 C31.4218781,59.28125 32.0598926,59.2031258 32.7109375,59.046875 C33.3619824,58.8906242 33.9479141,58.6692723 34.46875,58.3828125 L34.46875,31.1953125 Z" id="0" fill="#22AC24" fill-rule="evenodd"></path>
            </g>
            <g id="bit/1" transform="translate(738.000000, 0.000000)">
                <rect id="Rectangle" fill="#22AC24" fill-rule="nonzero" x="0" y="0" width="62" height="90" rx="25"></rect>
                <path d="M36.171875,63.578125 L28.0078125,63.578125 L28.0078125,32.9140625 C27.6171855,33.0442715 27.1093781,33.1809889 26.484375,33.3242188 C25.8593719,33.4674486 25.3645852,33.5911453 25,33.6953125 L25,29.2421875 C25.6510449,29.0598949 26.4583285,28.8255223 27.421875,28.5390625 C28.3854215,28.2526027 29.3880156,27.9596369 30.4296875,27.6601562 C31.4713594,27.3606756 32.5,27.0611994 33.515625,26.7617188 C34.5312551,26.4622381 35.4166629,26.2083344 36.171875,26 L36.171875,63.578125 Z" id="1" fill="#FAFFFB" fill-rule="evenodd"></path>
            </g>
            <g id="bit/1" transform="translate(656.000000, 0.000000)">
                <rect id="Rectangle" fill="#22AC24" fill-rule="nonzero" x="0" y="0" width="62" height="90" rx="25"></rect>
                <path d="M36.171875,63.578125 L28.0078125,63.578125 L28.0078125,32.9140625 C27.6171855,33.0442715 27.1093781,33.1809889 26.484375,33.3242188 C25.8593719,33.4674486 25.3645852,33.5911453 25,33.6953125 L25,29.2421875 C25.6510449,29.0598949 26.4583285,28.8255223 27.421875,28.5390625 C28.3854215,28.2526027 29.3880156,27.9596369 30.4296875,27.6601562 C31.4713594,27.3606756 32.5,27.0611994 33.515625,26.7617188 C34.5312551,26.4622381 35.4166629,26.2083344 36.171875,26 L36.171875,63.578125 Z" id="1" fill="#FAFFFB" fill-rule="evenodd"></path>
            </g>
            <g id="bit/0" transform="translate(492.000000, 0.000000)">
                <rect id="Rectangle-Copy" stroke="#22AC24" stroke-width="3" fill="#FAFFFB" fill-rule="nonzero" x="1.5" y="1.5" width="59" height="87" rx="25"></rect>
                <path d="M42.6328125,51.78125 C42.6328125,53.4218832 42.326826,54.9583262 41.7148438,56.390625 C41.1028615,57.8229238 40.2565158,59.0729113 39.1757812,60.140625 C38.0950467,61.2083387 36.8385488,62.048174 35.40625,62.6601562 C33.9739512,63.2721385 32.4375082,63.578125 30.796875,63.578125 C29.1562418,63.578125 27.6197988,63.2721385 26.1875,62.6601562 C24.7552012,62.048174 23.5052137,61.2083387 22.4375,60.140625 C21.3697863,59.0729113 20.529951,57.8229238 19.9179688,56.390625 C19.3059865,54.9583262 19,53.4218832 19,51.78125 L19,37.796875 C19,36.1562418 19.3059865,34.6197988 19.9179688,33.1875 C20.529951,31.7552012 21.3697863,30.5052137 22.4375,29.4375 C23.5052137,28.3697863 24.7552012,27.529951 26.1875,26.9179688 C27.6197988,26.3059865 29.1562418,26 30.796875,26 C32.4375082,26 33.9739512,26.3059865 35.40625,26.9179688 C36.8385488,27.529951 38.0950467,28.3697863 39.1757812,29.4375 C40.2565158,30.5052137 41.1028615,31.7552012 41.7148438,33.1875 C42.326826,34.6197988 42.6328125,36.1562418 42.6328125,37.796875 L42.6328125,51.78125 Z M34.46875,31.1953125 C33.9479141,30.9088527 33.3619824,30.6875008 32.7109375,30.53125 C32.0598926,30.3749992 31.4218781,30.296875 30.796875,30.296875 C30.1979137,30.296875 29.5729199,30.3749992 28.921875,30.53125 C28.2708301,30.6875008 27.6848984,30.9088527 27.1640625,31.1953125 L27.1640625,58.3828125 C27.6848984,58.6432305 28.2708301,58.8580721 28.921875,59.0273438 C29.5729199,59.1966154 30.1979137,59.28125 30.796875,59.28125 C31.4218781,59.28125 32.0598926,59.2031258 32.7109375,59.046875 C33.3619824,58.8906242 33.9479141,58.6692723 34.46875,58.3828125 L34.46875,31.1953125 Z" id="0" fill="#22AC24" fill-rule="evenodd"></path>
            </g>
            <g id="bit/1" transform="translate(410.000000, 0.000000)">
                <rect id="Rectangle" fill="#22AC24" fill-rule="nonzero" x="0" y="0" width="62" height="90" rx="25"></rect>
                <path d="M36.171875,63.578125 L28.0078125,63.578125 L28.0078125,32.9140625 C27.6171855,33.0442715 27.1093781,33.1809889 26.484375,33.3242188 C25.8593719,33.4674486 25.3645852,33.5911453 25,33.6953125 L25,29.2421875 C25.6510449,29.0598949 26.4583285,28.8255223 27.421875,28.5390625 C28.3854215,28.2526027 29.3880156,27.9596369 30.4296875,27.6601562 C31.4713594,27.3606756 32.5,27.0611994 33.515625,26.7617188 C34.5312551,26.4622381 35.4166629,26.2083344 36.171875,26 L36.171875,63.578125 Z" id="1" fill="#FAFFFB" fill-rule="evenodd"></path>
            </g>
            <g id="bit/0" transform="translate(328.000000, 0.000000)">
                <rect id="Rectangle-Copy" stroke="#22AC24" stroke-width="3" fill="#FAFFFB" fill-rule="nonzero" x="1.5" y="1.5" width="59" height="87" rx="25"></rect>
                <path d="M42.6328125,51.78125 C42.6328125,53.4218832 42.326826,54.9583262 41.7148438,56.390625 C41.1028615,57.8229238 40.2565158,59.0729113 39.1757812,60.140625 C38.0950467,61.2083387 36.8385488,62.048174 35.40625,62.6601562 C33.9739512,63.2721385 32.4375082,63.578125 30.796875,63.578125 C29.1562418,63.578125 27.6197988,63.2721385 26.1875,62.6601562 C24.7552012,62.048174 23.5052137,61.2083387 22.4375,60.140625 C21.3697863,59.0729113 20.529951,57.8229238 19.9179688,56.390625 C19.3059865,54.9583262 19,53.4218832 19,51.78125 L19,37.796875 C19,36.1562418 19.3059865,34.6197988 19.9179688,33.1875 C20.529951,31.7552012 21.3697863,30.5052137 22.4375,29.4375 C23.5052137,28.3697863 24.7552012,27.529951 26.1875,26.9179688 C27.6197988,26.3059865 29.1562418,26 30.796875,26 C32.4375082,26 33.9739512,26.3059865 35.40625,26.9179688 C36.8385488,27.529951 38.0950467,28.3697863 39.1757812,29.4375 C40.2565158,30.5052137 41.1028615,31.7552012 41.7148438,33.1875 C42.326826,34.6197988 42.6328125,36.1562418 42.6328125,37.796875 L42.6328125,51.78125 Z M34.46875,31.1953125 C33.9479141,30.9088527 33.3619824,30.6875008 32.7109375,30.53125 C32.0598926,30.3749992 31.4218781,30.296875 30.796875,30.296875 C30.1979137,30.296875 29.5729199,30.3749992 28.921875,30.53125 C28.2708301,30.6875008 27.6848984,30.9088527 27.1640625,31.1953125 L27.1640625,58.3828125 C27.6848984,58.6432305 28.2708301,58.8580721 28.921875,59.0273438 C29.5729199,59.1966154 30.1979137,59.28125 30.796875,59.28125 C31.4218781,59.28125 32.0598926,59.2031258 32.7109375,59.046875 C33.3619824,58.8906242 33.9479141,58.6692723 34.46875,58.3828125 L34.46875,31.1953125 Z" id="0" fill="#22AC24" fill-rule="evenodd"></path>
            </g>
            <g id="bit/0" transform="translate(164.000000, 0.000000)">
                <rect id="Rectangle-Copy" stroke="#22AC24" stroke-width="3" fill="#FAFFFB" fill-rule="nonzero" x="1.5" y="1.5" width="59" height="87" rx="25"></rect>
                <path d="M42.6328125,51.78125 C42.6328125,53.4218832 42.326826,54.9583262 41.7148438,56.390625 C41.1028615,57.8229238 40.2565158,59.0729113 39.1757812,60.140625 C38.0950467,61.2083387 36.8385488,62.048174 35.40625,62.6601562 C33.9739512,63.2721385 32.4375082,63.578125 30.796875,63.578125 C29.1562418,63.578125 27.6197988,63.2721385 26.1875,62.6601562 C24.7552012,62.048174 23.5052137,61.2083387 22.4375,60.140625 C21.3697863,59.0729113 20.529951,57.8229238 19.9179688,56.390625 C19.3059865,54.9583262 19,53.4218832 19,51.78125 L19,37.796875 C19,36.1562418 19.3059865,34.6197988 19.9179688,33.1875 C20.529951,31.7552012 21.3697863,30.5052137 22.4375,29.4375 C23.5052137,28.3697863 24.7552012,27.529951 26.1875,26.9179688 C27.6197988,26.3059865 29.1562418,26 30.796875,26 C32.4375082,26 33.9739512,26.3059865 35.40625,26.9179688 C36.8385488,27.529951 38.0950467,28.3697863 39.1757812,29.4375 C40.2565158,30.5052137 41.1028615,31.7552012 41.7148438,33.1875 C42.326826,34.6197988 42.6328125,36.1562418 42.6328125,37.796875 L42.6328125,51.78125 Z M34.46875,31.1953125 C33.9479141,30.9088527 33.3619824,30.6875008 32.7109375,30.53125 C32.0598926,30.3749992 31.4218781,30.296875 30.796875,30.296875 C30.1979137,30.296875 29.5729199,30.3749992 28.921875,30.53125 C28.2708301,30.6875008 27.6848984,30.9088527 27.1640625,31.1953125 L27.1640625,58.3828125 C27.6848984,58.6432305 28.2708301,58.8580721 28.921875,59.0273438 C29.5729199,59.1966154 30.1979137,59.28125 30.796875,59.28125 C31.4218781,59.28125 32.0598926,59.2031258 32.7109375,59.046875 C33.3619824,58.8906242 33.9479141,58.6692723 34.46875,58.3828125 L34.46875,31.1953125 Z" id="0" fill="#22AC24" fill-rule="evenodd"></path>
            </g>
            <g id="bit/placeholder" transform="translate(574.000000, 0.000000)" fill-rule="nonzero">
                <rect id="Rectangle-Copy" stroke="#CC0E66" stroke-width="3" fill="#FAFFFB" x="1.5" y="1.5" width="59" height="87" rx="25"></rect>
                <path d="M37,90 L25,90 C15.9548684,90 8.03167435,85.1964141 3.6422892,78.0011137 L58.3577108,78.0011137 C53.9683256,85.1964141 46.0451316,90 37,90 Z" id="Combined-Shape" fill="#CC0E66"></path>
            </g>
            <g id="bit/placeholder" transform="translate(246.000000, 0.000000)" fill-rule="nonzero">
                <rect id="Rectangle-Copy" stroke="#CC0E66" stroke-width="3" fill="#FAFFFB" x="1.5" y="1.5" width="59" height="87" rx="25"></rect>
                <path d="M37,90 L25,90 C15.9548684,90 8.03167435,85.1964141 3.6422892,78.0011137 L58.3577108,78.0011137 C53.9683256,85.1964141 46.0451316,90 37,90 Z" id="Combined-Shape" fill="#CC0E66"></path>
            </g>
            <g id="bit/placeholder" transform="translate(82.000000, 0.000000)" fill-rule="nonzero">
                <rect id="Rectangle-Copy" stroke="#CC0E66" stroke-width="3" fill="#FAFFFB" x="1.5" y="1.5" width="59" height="87" rx="25"></rect>
                <path d="M37,90 L25,90 C15.9548684,90 8.03167435,85.1964141 3.6422892,78.0011137 L58.3577108,78.0011137 C53.9683256,85.1964141 46.0451316,90 37,90 Z" id="Combined-Shape" fill="#CC0E66"></path>
            </g>
            <g id="bit/placeholder" fill-rule="nonzero">
                <rect id="Rectangle-Copy" stroke="#CC0E66" stroke-width="3" fill="#FAFFFB" x="1.5" y="1.5" width="59" height="87" rx="25"></rect>
                <path d="M37,90 L25,90 C15.9548684,90 8.03167435,85.1964141 3.6422892,78.0011137 L58.3577108,78.0011137 C53.9683256,85.1964141 46.0451316,90 37,90 Z" id="Combined-Shape" fill="#CC0E66"></path>
            </g>
        </g>
    </g>
</svg>