<svg width="200" height="200">
  <polygon points="50.4 88.5 16.5 101.2 27.1 66.6 4.5 38.4 40.7 37.7 60.6 7.5 72.4 41.7 107.3 51.3 78.4 73.1 80 109.2 50.4 88.5" fill="#ff941f" opacity="0.5" />
  <polygon points="50.4 88.5 16.5 101.2 27.1 66.6 4.5 38.4 40.7 37.7 60.6 7.5 72.4 41.7 107.3 51.3 78.4 73.1 80 109.2 50.4 88.5" fill="#ff941f" class="image" />
  <g class="reveal" data-when="t1 t2 t3" fill="#fff">
    <path d="M125.1,139l7-13.1h2.5L136,139h-2.2l-.3-3.7h-4.2l-1.9,3.7Zm5.9-7.3-.9,2h3.3v-2c-.1-.7-.1-1.3-.2-2s-.1-1.3-.1-2.1h-.1a22,22,0,0,1-.9,2.1A18.6,18.6,0,0,1,131,131.7Z"/>
    <path d="M138.9,131.1l1.6-5.9h2.1l-.8,2.4-1.5,3.5Z"/>
    <path d="M45.7,68l7-13.1h2.6L56.7,68H54.4l-.2-3.7H49.9L48.1,68Zm6-7.3-1,2h3.4l-.2-2c0-.7-.1-1.3-.1-2a13.4,13.4,0,0,1-.1-2.1h-.1l-.9,2.1Z"/>
  </g>
</svg>
