<svg height="340" viewBox="0 0 300 340" width="300" xmlns="http://www.w3.org/2000/svg" xmlns:xlink="http://www.w3.org/1999/xlink"><linearGradient id="a" gradientUnits="userSpaceOnUse" x1="5" x2="265" y1="170" y2="170"><stop offset="0"/><stop offset=".43" stop-opacity="0"/></linearGradient><path d="m261.4 271.35-126.4-266.35-126.4 266.35a23.14 23.14 0 0 0 -3.6 12.09c0 28.47 58.2 51.56 130 51.56s130-23.09 130-51.56a23.14 23.14 0 0 0 -3.6-12.09z" fill="url(#a)" fill-rule="evenodd" opacity=".3"/><g stroke-linecap="round" stroke-linejoin="round"><g fill="none" stroke="#000"><g stroke-width="2"><g opacity=".6"><path d="m195.82 242.25q-1.95-.37-3.93-.72"/><path d="m185.42 240.48c-3.19-.49-6.44-.92-9.75-1.31" stroke-dasharray="6.56 6.56"/><path d="m172.41 238.8c-1.32-.14-2.65-.28-4-.4"/></g><g opacity=".6"><path d="m105.29 238.06q-2 .16-4 .36"/><path d="m93 239.33c-44.44 5.44-78.05 19.26-86.12 36.21" stroke-dasharray="8.37 8.37"/><path d="m5.46 279.47a17.72 17.72 0 0 0 -.46 4"/></g><g opacity=".6"><path d="m265 283.44a17.72 17.72 0 0 0 -.46-4"/><path d="m260.44 271.16c-5.14-6.76-14.42-12.91-26.8-18.07" stroke-dasharray="9.33 9.33"/><path d="m229.3 251.36c-1.23-.46-2.48-.91-3.76-1.36"/></g></g><path d="m5 283.44h260" opacity=".4"/></g><g fill-opacity=".5" stroke-dasharray="8 8" stroke-width="2"><path d="m176.29 92.14c-4.6-7.22-20.78-7.25-40.72.1-28.29 10.42-57.23 32.49-65.32 49.65a.42.42 0 0 0 0 .1c-.12.24-.24.49-.34.73h.06c-2 4.77-2.06 8.33-.34 11.34 6.1 10.67 34.48 5.17 63.37-12.27s49.39-38.98 43.29-49.65z" fill="#31b304" fill-rule="evenodd" stroke="#31b304"/><ellipse cx="135" cy="66.46" fill="#ff941f" rx="28.65" ry="11.36" stroke="#ff941f"/><path d="m105.29 238.06c12-22.62 76.41-127.36 86.66-112.54 14.83 21.48-27.78 118.05-64.34 209.48" fill="#1f7aff" stroke="#1f7aff"/></g></g><path d="m211.05 324.85s24.79-104.89 14-130c-5.73-13.4-28.8 47.39-28.8 47.39" fill="#b30469" opacity=".5"/><g fill="none" stroke-linecap="round" stroke-linejoin="round"><g stroke-width="2"><g stroke="#b30469"><path d="m211.05 324.85s.33-1.39.9-3.9"/><path d="m213.67 313.15c6.07-28.06 20-98.37 11.42-118.35-4.47-10.44-19.46 24.16-25.86 39.95" stroke-dasharray="7.99 7.99"/><path d="m197.74 238.46c-.92 2.33-1.45 3.73-1.45 3.73"/></g><path d="m261.4 271.35-126.4-266.35-126.4 266.35a23.14 23.14 0 0 0 -3.6 12.09c0 28.47 58.2 51.56 130 51.56s130-23.09 130-51.56a23.14 23.14 0 0 0 -3.6-12.09z" stroke="#000"/></g><path d="m191.64 125.66-74.87 157.78" opacity=".3" stroke="#1f7aff"/><path d="m225.07 194.75-20.89 88.69" opacity=".3" stroke="#b30469"/><path d="m192 125.52c14.78 21.48-27.83 118.05-64.39 209.48" stroke="#1f7aff" stroke-width="2"/><path d="m211.05 324.85s24.79-104.89 14-130" stroke="#b30469" stroke-width="2"/><path d="m106.21 65.84h57.58" opacity=".5" stroke="#ff941f"/><path d="m68.61 150.92 107.71-58.78" opacity=".5" stroke="#31b304"/><g stroke="#000"><path d="m135 5.52v59.81" opacity=".4"/><path d="m135 77.7v36.1" opacity=".4"/><path d="m135 141.64v102.09" opacity=".4"/></g><g stroke-width="2"><path d="m107.14 63.79a5.2 5.2 0 0 0 -.79 2.67c0 6.27 12.83 11.36 28.65 11.36s28.65-5.09 28.65-11.36a5.2 5.2 0 0 0 -.79-2.67" stroke="#ff941f"/><path d="m176.29 92.14c6.09 10.67-14.47 32.18-43.34 49.63s-57.27 22.94-63.36 12.23c-1.82-3.18-1.62-6.95.65-12.14" stroke="#31b304"/></g></g><g fill="#b30469"><path d="m228.07 182.66v-10.46h1.86v4.2h4.24v-4.2h1.83v10.46h-1.85v-4.66h-4.24v4.64z"/><path d="m239.05 185.89a3.06 3.06 0 0 1 -.56 0 3.59 3.59 0 0 1 -.47-.12l.34-1.44.26.07a1.08 1.08 0 0 0 .3 0 1.34 1.34 0 0 0 1-.37 2.45 2.45 0 0 0 .57-1l.14-.5-3.09-7.76h1.88l1.36 3.86c.11.34.23.7.34 1.08s.23.75.34 1.13h.07c.09-.37.19-.74.29-1.12s.2-.74.3-1.09l1.18-3.86h1.78l-2.85 8.23a8.47 8.47 0 0 1 -.52 1.2 4.56 4.56 0 0 1 -.67.91 2.58 2.58 0 0 1 -.86.57 3.08 3.08 0 0 1 -1.13.21z"/><path d="m246.44 185.76v-11h1.56l.13.83h.06a6.23 6.23 0 0 1 1.11-.72 2.78 2.78 0 0 1 1.26-.3 2.83 2.83 0 0 1 1.3.28 2.7 2.7 0 0 1 1 .81 3.7 3.7 0 0 1 .61 1.26 6 6 0 0 1 .21 1.65 5.31 5.31 0 0 1 -.28 1.8 4.16 4.16 0 0 1 -.75 1.33 3 3 0 0 1 -1.07.82 2.91 2.91 0 0 1 -1.26.29 2.58 2.58 0 0 1 -1-.22 4.17 4.17 0 0 1 -1-.64l.05 1.31v2.46zm3.42-4.43a1.63 1.63 0 0 0 1.32-.68 3.27 3.27 0 0 0 .53-2 3.48 3.48 0 0 0 -.41-1.84 1.38 1.38 0 0 0 -1.29-.66 2.54 2.54 0 0 0 -1.73.88v3.66a2.88 2.88 0 0 0 .83.52 2.4 2.4 0 0 0 .75.12z"/><path d="m258.82 182.85a4 4 0 0 1 -1.52-.28 3.52 3.52 0 0 1 -1.23-.81 3.7 3.7 0 0 1 -.82-1.29 4.65 4.65 0 0 1 -.3-1.73 4.52 4.52 0 0 1 .31-1.73 4.13 4.13 0 0 1 .8-1.3 3.69 3.69 0 0 1 1.16-.81 3.38 3.38 0 0 1 1.35-.29 3.48 3.48 0 0 1 1.41.27 2.75 2.75 0 0 1 1 .77 3.5 3.5 0 0 1 .62 1.18 5.15 5.15 0 0 1 .21 1.51 4.12 4.12 0 0 1 0 .51 2.53 2.53 0 0 1 -.05.38h-5a2.57 2.57 0 0 0 .75 1.63 2.21 2.21 0 0 0 1.57.57 3 3 0 0 0 1-.15 5 5 0 0 0 .87-.43l.62 1.15a5.38 5.38 0 0 1 -1.25.61 4.27 4.27 0 0 1 -1.5.24zm-2.09-4.85h3.49a2.3 2.3 0 0 0 -.4-1.44 1.41 1.41 0 0 0 -1.2-.51 1.77 1.77 0 0 0 -1.24.49 2.34 2.34 0 0 0 -.65 1.46z"/><path d="m263.58 182.66v-7.86h1.52l.12 1.4h.07a3.21 3.21 0 0 1 1-1.18 2.21 2.21 0 0 1 2.11-.25l-.32 1.6-.39-.09a1.74 1.74 0 0 0 -.43 0 1.69 1.69 0 0 0 -1 .36 2.75 2.75 0 0 0 -.88 1.26v4.8z"/><path d="m273.35 182.85a2.56 2.56 0 0 1 -1.09-.26 3.89 3.89 0 0 1 -1.05-.76l-.16.83h-1.46v-11.3h1.84v2.92 1.31a4.48 4.48 0 0 1 1.08-.71 2.76 2.76 0 0 1 1.19-.27 2.9 2.9 0 0 1 1.31.28 2.79 2.79 0 0 1 1 .8 3.68 3.68 0 0 1 .6 1.26 6 6 0 0 1 .21 1.64 5.23 5.23 0 0 1 -.28 1.8 4 4 0 0 1 -.74 1.34 3.26 3.26 0 0 1 -1.07.83 3 3 0 0 1 -1.38.29zm-.38-1.52a1.61 1.61 0 0 0 1.31-.68 3.27 3.27 0 0 0 .53-2 3.59 3.59 0 0 0 -.4-1.84 1.41 1.41 0 0 0 -1.3-.66 2.56 2.56 0 0 0 -1.73.88v3.66a2.64 2.64 0 0 0 .83.52 2.41 2.41 0 0 0 .79.12z"/><path d="m281.77 182.85a3.76 3.76 0 0 1 -1.41-.27 3.42 3.42 0 0 1 -1.19-.8 3.92 3.92 0 0 1 -.83-1.3 4.74 4.74 0 0 1 -.3-1.74 4.83 4.83 0 0 1 .3-1.75 3.87 3.87 0 0 1 .83-1.29 3.66 3.66 0 0 1 4-.81 3.64 3.64 0 0 1 1.2.81 4 4 0 0 1 .82 1.29 4.62 4.62 0 0 1 .31 1.75 4.54 4.54 0 0 1 -.31 1.74 4.06 4.06 0 0 1 -.82 1.3 3.46 3.46 0 0 1 -1.2.8 3.76 3.76 0 0 1 -1.4.27zm0-1.5a1.57 1.57 0 0 0 1.36-.72 3.23 3.23 0 0 0 .49-1.89 3.28 3.28 0 0 0 -.49-1.91 1.56 1.56 0 0 0 -1.36-.71 1.52 1.52 0 0 0 -1.35.71 3.28 3.28 0 0 0 -.49 1.91 3.23 3.23 0 0 0 .49 1.89 1.53 1.53 0 0 0 1.35.72z"/><path d="m289.13 182.85a1.56 1.56 0 0 1 -1.39-.59 2.84 2.84 0 0 1 -.4-1.62v-9.28h1.84v9.38a.72.72 0 0 0 .12.47.4.4 0 0 0 .28.14h.12a.45.45 0 0 0 .16 0l.24 1.38a2.39 2.39 0 0 1 -.97.12z"/><path d="m293.58 182.85a2.27 2.27 0 0 1 -1.68-.63 2.23 2.23 0 0 1 -.64-1.67 2.29 2.29 0 0 1 .26-1.12 2.37 2.37 0 0 1 .83-.84 5.73 5.73 0 0 1 1.44-.59 13.72 13.72 0 0 1 2.09-.37 2.8 2.8 0 0 0 -.09-.58 1.45 1.45 0 0 0 -.24-.5 1.14 1.14 0 0 0 -.44-.33 1.64 1.64 0 0 0 -.67-.12 3 3 0 0 0 -1.13.22 6.87 6.87 0 0 0 -1.08.55l-.67-1.24a9.14 9.14 0 0 1 1.47-.72 5.08 5.08 0 0 1 1.76-.3 2.7 2.7 0 0 1 2.2.87 3.81 3.81 0 0 1 .73 2.52v4.66h-1.52l-.13-.87h-.07a6 6 0 0 1 -1.13.76 2.89 2.89 0 0 1 -1.29.3zm.59-1.44a1.71 1.71 0 0 0 .87-.22 5.2 5.2 0 0 0 .84-.64v-1.76a8.73 8.73 0 0 0 -1.34.25 4 4 0 0 0 -.88.36 1.26 1.26 0 0 0 -.48.46 1 1 0 0 0 -.15.54.91.91 0 0 0 .32.77 1.33 1.33 0 0 0 .82.24z"/></g><g fill="#1f7aff"><path d="m201.07 123.66v-10.47h3.3a8.13 8.13 0 0 1 1.61.16 3.45 3.45 0 0 1 1.28.55 2.51 2.51 0 0 1 .85 1 3.47 3.47 0 0 1 .31 1.53 3.52 3.52 0 0 1 -.31 1.5 2.83 2.83 0 0 1 -.84 1.06 3.32 3.32 0 0 1 -1.26.63 6.1 6.1 0 0 1 -1.58.2h-1.5v3.84zm1.86-5.33h1.36c1.53 0 2.3-.63 2.3-1.9a1.49 1.49 0 0 0 -.6-1.37 3.37 3.37 0 0 0 -1.77-.38h-1.29z"/><path d="m211.52 123.85a2.3 2.3 0 0 1 -1.68-.63 2.23 2.23 0 0 1 -.64-1.67 2.12 2.12 0 0 1 1.1-2 5.44 5.44 0 0 1 1.44-.59 13.57 13.57 0 0 1 2.08-.37 3.68 3.68 0 0 0 -.08-.58 1.45 1.45 0 0 0 -.24-.5 1.22 1.22 0 0 0 -.44-.33 1.69 1.69 0 0 0 -.68-.12 2.9 2.9 0 0 0 -1.12.22 6.87 6.87 0 0 0 -1.08.55l-.68-1.24a8.86 8.86 0 0 1 1.48-.72 5 5 0 0 1 1.76-.3 2.71 2.71 0 0 1 2.2.87 3.86 3.86 0 0 1 .72 2.52v4.66h-1.52l-.12-.87h-.02a6 6 0 0 1 -1.13.76 2.86 2.86 0 0 1 -1.35.34zm.59-1.44a1.71 1.71 0 0 0 .87-.22 4.46 4.46 0 0 0 .84-.64v-1.76a8.73 8.73 0 0 0 -1.34.25 4.19 4.19 0 0 0 -.88.36 1.42 1.42 0 0 0 -.48.46 1 1 0 0 0 -.14.54.89.89 0 0 0 .32.77 1.3 1.3 0 0 0 .81.24z"/><path d="m217.87 123.66v-7.86h1.52l.13 1.39h.06a3.35 3.35 0 0 1 1-1.17 2.15 2.15 0 0 1 1.22-.41 2 2 0 0 1 .89.16l-.32 1.6-.38-.1a2.63 2.63 0 0 0 -.43 0 1.72 1.72 0 0 0 -1 .36 2.83 2.83 0 0 0 -.88 1.26v4.8z"/><path d="m225.33 123.85a2.27 2.27 0 0 1 -1.68-.63 2.23 2.23 0 0 1 -.64-1.67 2.4 2.4 0 0 1 .26-1.12 2.46 2.46 0 0 1 .83-.84 5.73 5.73 0 0 1 1.44-.59 13.72 13.72 0 0 1 2.09-.37 2.8 2.8 0 0 0 -.09-.58 1.16 1.16 0 0 0 -.24-.5 1.14 1.14 0 0 0 -.44-.33 1.64 1.64 0 0 0 -.67-.12 3 3 0 0 0 -1.13.22 7.86 7.86 0 0 0 -1.08.55l-.67-1.24a9.14 9.14 0 0 1 1.47-.72 5.12 5.12 0 0 1 1.76-.3 2.69 2.69 0 0 1 2.2.87 3.81 3.81 0 0 1 .73 2.52v4.66h-1.47l-.13-.87h-.06a6 6 0 0 1 -1.13.76 2.86 2.86 0 0 1 -1.35.3zm.59-1.44a1.71 1.71 0 0 0 .87-.22 5.2 5.2 0 0 0 .84-.64v-1.76a8.73 8.73 0 0 0 -1.34.25 4.19 4.19 0 0 0 -.88.36 1.26 1.26 0 0 0 -.48.46 1 1 0 0 0 -.15.54.91.91 0 0 0 .32.77 1.35 1.35 0 0 0 .82.24z"/><path d="m235.49 123.85a2.6 2.6 0 0 1 -1.1-.26 3.89 3.89 0 0 1 -1-.76l-.16.83h-1.46v-11.3h1.84v2.91l-.05 1.32a4.48 4.48 0 0 1 1.08-.71 2.82 2.82 0 0 1 1.19-.27 3 3 0 0 1 1.32.28 2.68 2.68 0 0 1 1 .8 3.7 3.7 0 0 1 .61 1.26 6 6 0 0 1 .21 1.64 5.49 5.49 0 0 1 -.28 1.8 4.21 4.21 0 0 1 -.75 1.34 3.16 3.16 0 0 1 -1.07.83 2.91 2.91 0 0 1 -1.38.29zm-.39-1.52a1.63 1.63 0 0 0 1.32-.68 3.27 3.27 0 0 0 .52-2 3.49 3.49 0 0 0 -.4-1.84 1.38 1.38 0 0 0 -1.29-.66 2.54 2.54 0 0 0 -1.73.88v3.66a2.6 2.6 0 0 0 .82.52 2.51 2.51 0 0 0 .76.12z"/><path d="m243.9 123.85a3.67 3.67 0 0 1 -1.4-.27 3.56 3.56 0 0 1 -1.2-.8 3.9 3.9 0 0 1 -.82-1.3 4.74 4.74 0 0 1 -.3-1.74 4.83 4.83 0 0 1 .3-1.75 3.85 3.85 0 0 1 .82-1.29 3.74 3.74 0 0 1 1.2-.81 3.5 3.5 0 0 1 1.4-.28 3.63 3.63 0 0 1 1.42.28 3.59 3.59 0 0 1 1.19.81 4 4 0 0 1 .83 1.29 4.83 4.83 0 0 1 .31 1.75 4.73 4.73 0 0 1 -.31 1.74 4.09 4.09 0 0 1 -.83 1.3 3.42 3.42 0 0 1 -1.19.8 3.81 3.81 0 0 1 -1.42.27zm0-1.5a1.56 1.56 0 0 0 1.36-.72 3.23 3.23 0 0 0 .5-1.89 3.28 3.28 0 0 0 -.5-1.91 1.64 1.64 0 0 0 -2.71 0 3.35 3.35 0 0 0 -.49 1.91 3.31 3.31 0 0 0 .49 1.89 1.56 1.56 0 0 0 1.35.72z"/><path d="m251.26 123.85a1.57 1.57 0 0 1 -1.39-.59 2.92 2.92 0 0 1 -.4-1.62v-9.28h1.84v9.38a.66.66 0 0 0 .13.47.4.4 0 0 0 .27.14h.12a.49.49 0 0 0 .17 0l.24 1.38a2.44 2.44 0 0 1 -.98.12z"/><path d="m255.71 123.85a2.3 2.3 0 0 1 -1.68-.63 2.48 2.48 0 0 1 -.37-2.79 2.29 2.29 0 0 1 .83-.84 5.73 5.73 0 0 1 1.44-.59 13.72 13.72 0 0 1 2.09-.37 3.69 3.69 0 0 0 -.09-.58 1.45 1.45 0 0 0 -.24-.5 1.14 1.14 0 0 0 -.44-.33 1.67 1.67 0 0 0 -.67-.12 3 3 0 0 0 -1.13.22 6.87 6.87 0 0 0 -1.08.55l-.67-1.24a8.38 8.38 0 0 1 1.47-.72 5 5 0 0 1 1.76-.3 2.71 2.71 0 0 1 2.2.87 3.86 3.86 0 0 1 .73 2.52v4.66h-1.52l-.13-.87h-.07a6 6 0 0 1 -1.12.76 2.9 2.9 0 0 1 -1.31.3zm.59-1.44a1.77 1.77 0 0 0 .88-.22 5.2 5.2 0 0 0 .84-.64v-1.76a8.65 8.65 0 0 0 -1.35.25 4.43 4.43 0 0 0 -.88.36 1.42 1.42 0 0 0 -.48.46 1.14 1.14 0 0 0 -.14.54.89.89 0 0 0 .32.77 1.3 1.3 0 0 0 .81.24z"/></g><g fill="#31b304"><path d="m185.07 90.66v-10.47h6.31v1.57h-4.45v2.67h3.76v1.57h-3.76v3.09h4.61v1.57z"/><path d="m195.31 90.85a1.57 1.57 0 0 1 -1.39-.59 2.84 2.84 0 0 1 -.4-1.62v-9.28h1.84v9.38a.66.66 0 0 0 .13.47.36.36 0 0 0 .27.14h.12a.49.49 0 0 0 .17 0l.24 1.38a2.44 2.44 0 0 1 -.98.12z"/><path d="m199.65 90.85a1.56 1.56 0 0 1 -1.39-.59 2.84 2.84 0 0 1 -.4-1.62v-9.28h1.84v9.38a.72.72 0 0 0 .12.47.4.4 0 0 0 .28.14h.12a.45.45 0 0 0 .16 0l.24 1.38a2.39 2.39 0 0 1 -.97.12z"/><path d="m203.12 81.43a1.21 1.21 0 0 1 -.82-.29 1 1 0 0 1 -.32-.75 1 1 0 0 1 .32-.76 1.27 1.27 0 0 1 1.64 0 1 1 0 0 1 .32.76 1 1 0 0 1 -.32.75 1.21 1.21 0 0 1 -.82.29zm-.93 9.23v-7.86h1.81v7.86z"/><path d="m206.38 93.76v-11h1.52l.13.83h.07a6.14 6.14 0 0 1 1.1-.72 3 3 0 0 1 2.57 0 2.79 2.79 0 0 1 1 .81 3.68 3.68 0 0 1 .6 1.26 6 6 0 0 1 .21 1.65 5.31 5.31 0 0 1 -.28 1.8 4 4 0 0 1 -.74 1.33 3.23 3.23 0 0 1 -1.07.82 3 3 0 0 1 -1.27.29 2.5 2.5 0 0 1 -1-.22 4.17 4.17 0 0 1 -1-.64v1.31 2.46zm3.43-4.43a1.61 1.61 0 0 0 1.31-.68 3.27 3.27 0 0 0 .53-2 3.59 3.59 0 0 0 -.4-1.84 1.41 1.41 0 0 0 -1.3-.66 2.56 2.56 0 0 0 -1.73.88v3.66a2.79 2.79 0 0 0 .84.52 2.3 2.3 0 0 0 .75.12z"/><path d="m217.54 90.85a4.31 4.31 0 0 1 -1.61-.31 5.16 5.16 0 0 1 -1.37-.78l.86-1.18a5.26 5.26 0 0 0 1.05.65 2.85 2.85 0 0 0 1.13.23 1.37 1.37 0 0 0 .94-.27.83.83 0 0 0 .31-.68.64.64 0 0 0 -.15-.42 1.39 1.39 0 0 0 -.38-.33 4.54 4.54 0 0 0 -.54-.26l-.61-.25c-.26-.1-.52-.21-.79-.34a3.09 3.09 0 0 1 -.71-.46 2.21 2.21 0 0 1 -.51-.63 1.79 1.79 0 0 1 -.16-.82 2.12 2.12 0 0 1 .77-1.69 3.1 3.1 0 0 1 2.09-.66 3.69 3.69 0 0 1 1.48.29 5.78 5.78 0 0 1 1.13.65l-.85 1.12a3.94 3.94 0 0 0 -.84-.48 2.05 2.05 0 0 0 -.88-.19 1.34 1.34 0 0 0 -.88.25.82.82 0 0 0 -.28.62.61.61 0 0 0 .14.4 1.07 1.07 0 0 0 .36.3 2.8 2.8 0 0 0 .52.24l.62.22.8.33a3.54 3.54 0 0 1 .72.46 2 2 0 0 1 .53.66 2 2 0 0 1 .2.94 2.16 2.16 0 0 1 -.2 1 2.27 2.27 0 0 1 -.58.77 2.94 2.94 0 0 1 -1 .52 4.1 4.1 0 0 1 -1.31.1z"/><path d="m225.6 90.85a4 4 0 0 1 -1.52-.28 3.66 3.66 0 0 1 -1.23-.81 3.72 3.72 0 0 1 -.83-1.29 4.86 4.86 0 0 1 -.29-1.73 4.72 4.72 0 0 1 .27-1.74 4 4 0 0 1 .81-1.3 3.58 3.58 0 0 1 1.19-.8 3.37 3.37 0 0 1 1.34-.29 3.41 3.41 0 0 1 1.41.27 2.71 2.71 0 0 1 1 .77 3.31 3.31 0 0 1 .61 1.18 5.15 5.15 0 0 1 .21 1.51v.51s0 .29-.06.38h-5a2.57 2.57 0 0 0 .74 1.63 2.24 2.24 0 0 0 1.58.57 2.67 2.67 0 0 0 .95-.16 3.87 3.87 0 0 0 .87-.42l.63 1.15a5.58 5.58 0 0 1 -1.25.61 4.35 4.35 0 0 1 -1.43.24zm-2.1-4.85h3.5a2.37 2.37 0 0 0 -.39-1.44 1.43 1.43 0 0 0 -1.21-.52 1.74 1.74 0 0 0 -1.23.5 2.4 2.4 0 0 0 -.67 1.46z"/></g><g fill="#ff941f"><path d="m176.25 66.85a5 5 0 0 1 -1.86-.35 4.18 4.18 0 0 1 -1.49-1 4.84 4.84 0 0 1 -1-1.7 6.57 6.57 0 0 1 -.37-2.3 6.65 6.65 0 0 1 .37-2.3 5.43 5.43 0 0 1 1-1.72 4.38 4.38 0 0 1 1.52-1.07 4.82 4.82 0 0 1 1.86-.37 3.84 3.84 0 0 1 1.76.4 4.85 4.85 0 0 1 1.27.93l-1 1.2a3.27 3.27 0 0 0 -.89-.66 2.28 2.28 0 0 0 -1.09-.25 2.72 2.72 0 0 0 -1.18.26 2.87 2.87 0 0 0 -.92.75 3.57 3.57 0 0 0 -.61 1.2 5.16 5.16 0 0 0 -.22 1.58 4.51 4.51 0 0 0 .78 2.81 2.5 2.5 0 0 0 2.1 1 2.54 2.54 0 0 0 1.25-.29 4.05 4.05 0 0 0 1-.78l1 1.17a4.39 4.39 0 0 1 -1.46 1.13 4.23 4.23 0 0 1 -1.82.36z"/><path d="m182.06 57.43a1.19 1.19 0 0 1 -.82-.29 1 1 0 0 1 -.32-.75 1 1 0 0 1 .32-.76 1.15 1.15 0 0 1 .82-.3 1.13 1.13 0 0 1 .81.3 1 1 0 0 1 .32.76.93.93 0 0 1 -.32.75 1.16 1.16 0 0 1 -.81.29zm-.93 9.23v-7.86h1.87v7.86z"/><path d="m185.32 66.66v-7.86h1.52l.13 1.39h.03a3.35 3.35 0 0 1 1-1.19 2.15 2.15 0 0 1 1.22-.41 2 2 0 0 1 .89.16l-.32 1.6-.38-.1a2.63 2.63 0 0 0 -.43 0 1.72 1.72 0 0 0 -1 .36 2.83 2.83 0 0 0 -.88 1.26v4.8z"/><path d="m194.41 66.85a4.16 4.16 0 0 1 -1.5-.27 3.41 3.41 0 0 1 -1.21-.8 3.86 3.86 0 0 1 -.8-1.3 5 5 0 0 1 -.28-1.74 4.44 4.44 0 0 1 .32-1.75 3.73 3.73 0 0 1 2.12-2.1 4 4 0 0 1 1.49-.28 3.14 3.14 0 0 1 1.32.26 4.49 4.49 0 0 1 1 .62l-.9 1.2a2.88 2.88 0 0 0 -.63-.42 1.58 1.58 0 0 0 -.68-.16 1.9 1.9 0 0 0 -1.55.72 3.33 3.33 0 0 0 0 3.8 1.85 1.85 0 0 0 1.51.72 2 2 0 0 0 .87-.2 4.16 4.16 0 0 0 .75-.48l.75 1.22a3.94 3.94 0 0 1 -1.23.72 3.85 3.85 0 0 1 -1.35.24z"/><path d="m200.31 66.85a1.57 1.57 0 0 1 -1.39-.59 2.84 2.84 0 0 1 -.4-1.62v-9.28h1.84v9.38a.66.66 0 0 0 .13.47.36.36 0 0 0 .27.14h.12a.49.49 0 0 0 .17 0l.24 1.38a2.44 2.44 0 0 1 -.98.12z"/><path d="m206.22 66.85a4 4 0 0 1 -1.52-.28 3.8 3.8 0 0 1 -1.24-.81 3.7 3.7 0 0 1 -.82-1.29 4.65 4.65 0 0 1 -.3-1.73 4.72 4.72 0 0 1 .31-1.73 4 4 0 0 1 .81-1.3 3.47 3.47 0 0 1 1.16-.81 3.3 3.3 0 0 1 1.34-.29 3.48 3.48 0 0 1 1.41.27 2.75 2.75 0 0 1 1 .77 3.33 3.33 0 0 1 .62 1.18 5.15 5.15 0 0 1 .21 1.51 4.12 4.12 0 0 1 0 .51 2.53 2.53 0 0 1 -.05.38h-5a2.52 2.52 0 0 0 .74 1.63 2.24 2.24 0 0 0 1.58.57 2.71 2.71 0 0 0 .95-.16 4.33 4.33 0 0 0 .87-.42l.61 1.15a5.5 5.5 0 0 1 -1.24.61 4.35 4.35 0 0 1 -1.44.24zm-2.1-4.85h3.49a2.37 2.37 0 0 0 -.39-1.44 1.44 1.44 0 0 0 -1.22-.56 1.74 1.74 0 0 0 -1.23.5 2.35 2.35 0 0 0 -.65 1.5z"/></g></svg>