<svg xmlns="http://www.w3.org/2000/svg" width="114" height="66" viewBox="0 0 114 66"><title>Artboard 2</title><rect x="62" y="46" width="16" height="8" fill="#242436"/><rect x="2" y="2" width="6" height="26" fill="#242436"/><rect x="9" y="2" width="6" height="26" fill="#242436"/><rect x="16" y="2" width="6" height="26" fill="#242436"/><rect x="23" y="2" width="6" height="26" fill="#242436"/><rect x="2" y="38" width="6" height="26" fill="#242436"/><rect x="9" y="38" width="6" height="26" fill="#242436"/><rect x="16" y="38" width="6" height="26" fill="#242436"/><rect x="23" y="38" width="6" height="26" fill="#242436"/><rect x="85" y="2" width="6" height="26" fill="#242436"/><rect x="92" y="2" width="6" height="26" fill="#242436"/><rect x="99" y="2" width="6" height="26" fill="#242436"/><rect x="106" y="2" width="6" height="26" fill="#242436"/><rect x="85" y="38" width="6" height="26" fill="#242436"/><rect x="92" y="38" width="6" height="26" fill="#242436"/><rect x="99" y="38" width="6" height="26" fill="#242436"/><rect x="106" y="38" width="6" height="26" fill="#242436"/><rect x="53" y="6" width="8" height="9" fill="#242436"/><rect x="55" y="16" width="4" height="6" fill="#242436"/><rect x="53" y="44" width="8" height="10" fill="#242436"/><rect x="44" y="48" width="8" height="6.87" fill="#242436"/><rect x="67" y="30" width="40" height="6" fill="#242436"/><rect x="7" y="30" width="40" height="6" fill="#242436"/><polygon points="43 55 41 51.5 43 48 43 55" fill="#242436"/><polygon points="59 59 55 59 54 55 60 55 59 59" fill="#242436"/><polygon points="58 5 56 5 54 1 60 1 58 5" fill="#242436"/><path d="M61,30V23H53v7H48v6h5v7h8V36h5V30Zm-4,5a2,2,0,1,1,2-2A2,2,0,0,1,57,35Z" fill="#242436"/><circle cx="73" cy="50" r="2" fill="#242436"/></svg>