<svg height="66" viewBox="0 0 114 66" width="114" xmlns="http://www.w3.org/2000/svg"><g fill="#242436"><path d="m62 46h16v8h-16z"/><path d="m2 2h6v26h-6z"/><path d="m9 2h6v26h-6z"/><path d="m16 2h6v26h-6z"/><path d="m23 2h6v26h-6z"/><path d="m2 38h6v26h-6z"/><path d="m9 38h6v26h-6z"/><path d="m16 38h6v26h-6z"/><path d="m23 38h6v26h-6z"/><path d="m85 2h6v26h-6z"/><path d="m92 2h6v26h-6z"/><path d="m99 2h6v26h-6z"/><path d="m106 2h6v26h-6z"/><path d="m85 38h6v26h-6z"/><path d="m92 38h6v26h-6z"/><path d="m99 38h6v26h-6z"/><path d="m106 38h6v26h-6z"/><path d="m53 6h8v9h-8z"/><path d="m55 16h4v6h-4z"/><path d="m53 44h8v10h-8z"/><path d="m44 48h8v6.87h-8z"/><path d="m67 30h40v6h-40z"/><path d="m7 30h40v6h-40z"/><path d="m43 55-2-3.5 2-3.5z"/><path d="m59 59h-4l-1-4h6z"/><path d="m58 5h-2l-2-4h6z"/><path d="m61 30v-7h-8v7h-5v6h5v7h8v-7h5v-6zm-4 5a2 2 0 1 1 2-2 2 2 0 0 1 -2 2z"/><circle cx="73" cy="50" r="2"/></g></svg>