<svg height="760" viewBox="0 0 760 760" width="760" xmlns="http://www.w3.org/2000/svg"><circle cx="380" cy="380" fill="none" r="355" stroke="#fff" stroke-miterlimit="10" stroke-width="2"/><path d="m380 40.5c187.5 0 339.5 152 339.5 339.5s-152 339.5-339.5 339.5-339.5-152-339.5-339.5 152-339.5 339.5-339.5m0-1a340.59 340.59 0 0 0 -132.54 654.24 340.59 340.59 0 0 0 265.08-627.48 338.29 338.29 0 0 0 -132.54-26.76z" fill="#fff"/><path d="m380 44.5a335.6 335.6 0 0 1 130.59 644.64 335.59 335.59 0 0 1 -261.18-618.28 333.47 333.47 0 0 1 130.59-26.36m0-1c-185.84 0-336.5 150.66-336.5 336.5s150.66 336.5 336.5 336.5 336.5-150.66 336.5-336.5-150.66-336.5-336.5-336.5z" fill="#fff"/><g fill="none" stroke="#fff" stroke-miterlimit="10"><circle cx="380" cy="380" r="338" stroke-dasharray="14" stroke-width="3"/><g stroke-width="2"><path d="m380 25v15"/><path d="m380 720v15"/><path d="m72.56 202.5 12.99 7.5"/><path d="m674.45 550 12.99 7.5"/><path d="m25 380h15"/><path d="m720 380h15"/><path d="m72.56 557.5 12.99-7.5"/><path d="m674.45 210 12.99-7.5"/><path d="m202.5 687.44 7.5-12.99"/><path d="m550 85.55 7.5-12.99"/><path d="m557.5 687.44-7.5-12.99"/><path d="m210 85.55-7.5-12.99"/></g></g><g fill="#fff"><path d="m256.48 51 2-.72c2.26-.83 4-.1 4.94 2.33s0 4.21-2.16 5l-2 .75zm4.2 5.62c1.48-.55 2-1.7 1.35-3.51s-1.8-2.28-3.28-1.74l-.57.21 1.92 5.25z"/><path d="m265.36 47.78 4.47-1.52.38 1.11-3.16 1.07.65 1.9 2.67-.9.38 1.11-2.68.9.75 2.2 3.27-1.1.37 1.11-4.59 1.55z"/><path d="m274.11 49c-.76-2.45.33-4.38 2.22-5a3.16 3.16 0 0 1 2.46.28l-.45 1.08a2 2 0 0 0 -1.62-.21c-1.22.37-1.77 1.68-1.25 3.36s1.66 2.49 2.91 2.11a2.2 2.2 0 0 0 1.36-1.27l1 .61a3.15 3.15 0 0 1 -2 1.83c-1.93.63-3.86-.29-4.63-2.79z"/><path d="m281.84 42.54 4.55-1.28.32 1.12-3.21.91.55 1.94 2.71-.77.32 1.12-2.71.77.63 2.24 3.32-.94.32 1.13-4.64 1.32z"/><path d="m289.92 40.29 1.52-.39 2.29 3.38c.29.44.58.91.87 1.37 0-.54.05-1.08.09-1.61l.37-4.05 1.53-.39 1.94 7.6-1.24.32-.84-3.52c-.18-.7-.33-1.74-.44-2.46h-.01l-.16 1.92-.38 3.74-.8.2-2.13-3.09-1.05-1.62h-.05c.25.69.61 1.68.79 2.38l.88 3.48-1.21.31z"/><path d="m300.54 37.67 2.45-.55c1.57-.35 2.84-.13 3.15 1.28a1.77 1.77 0 0 1 -.69 1.9 1.82 1.82 0 0 1 1.88 1.49c.34 1.54-.76 2.53-2.45 2.91l-2.65.59zm3 2.64c1.07-.24 1.43-.76 1.28-1.42s-.72-.91-1.72-.69l-1 .22.47 2.11zm.95 3.4c1.12-.25 1.66-.79 1.47-1.65s-.87-1-2-.77l-1.15.25.54 2.43z"/><path d="m309.43 35.73 4.64-.91.22 1.15-3.27.64.39 2 2.77-.55.23 1.15-2.77.55.45 2.28 3.39-.67.22 1.15-4.75.94z"/><path d="m317.67 34.16 2.6-.45c1.61-.27 3 .08 3.24 1.81s-.82 2.63-2.43 2.9l-1.23.21.51 3-1.37.23zm3.08 3.19c1.06-.18 1.56-.72 1.41-1.6s-.78-1.1-1.84-.92l-1.09.19.43 2.52zm0 .75.85-1 3.14 3.79-1.54.27z"/><path d="m108.11 157.38.92-1.1 5 .94 1.81.45c-.67-.46-1.5-1-2.18-1.57l-2.66-2.22.85-1 6 5-.85 1.12-5-.95-1.8-.45c.68.48 1.48 1 2.15 1.56l2.64 2.2-.84 1z"/><path d="m117.1 152.73c-1.9-1.68-2.09-3.73-.74-5.26s3.42-1.6 5.32.07 2.14 3.77.78 5.31-3.46 1.56-5.36-.12zm3.63-4.12c-1.32-1.16-2.65-1.27-3.46-.34s-.54 2.23.78 3.39 2.69 1.31 3.51.39.49-2.27-.83-3.44z"/><path d="m120.36 143.2 1-1.08 3.64 1.88c.83.42 1.51.82 2.34 1.23-.47-.81-.91-1.46-1.39-2.25l-2.15-3.49 1-1 4.09 7.13-1.13 1.21z"/><path d="m126.75 136.4 3.3-3.38.84.81-2.32 2.39 1.43 1.4 2-2 .83.82-2 2 1.67 1.62 2.41-2.47.83.82-3.38 3.47z"/><path d="m132.65 130.4 1.13-1.1 3.67 1.79 1.44.75c-.23-.49-.49-1-.72-1.45l-1.69-3.7 1.13-1.1 5.46 5.64-.91.89-2.5-2.58c-.51-.52-1.16-1.35-1.61-1.92l.82 1.75 1.52 3.43-.59.57-3.38-1.63-1.72-.87c.56.48 1.36 1.15 1.87 1.67l2.5 2.58-.9.87z"/><path d="m140.54 122.85 1.85-1.7c1.19-1.09 2.4-1.52 3.37-.46a1.75 1.75 0 0 1 .34 2 1.8 1.8 0 0 1 2.37.36c1.06 1.16.6 2.57-.67 3.73l-2 1.84zm4 .78c.8-.74.86-1.37.4-1.88s-1.09-.42-1.84.27l-.75.69 1.45 1.59zm2.46 2.47c.85-.78 1.05-1.52.45-2.17s-1.26-.45-2.13.34l-.86.8 1.67 1.83z"/><path d="m147.3 116.73 3.56-3.11.77.89-2.51 2.19 1.32 1.51 2.13-1.85.77.88-2.13 1.86 1.53 1.75 2.6-2.27.77.88-3.66 3.19z"/><path d="m153.67 111.25 2-1.68c1.26-1 2.59-1.4 3.71 0s.59 2.69-.66 3.73l-1 .8 2 2.36-1.08.89zm4.26 1.23c.82-.68 1-1.4.42-2.09s-1.22-.56-2 .13l-.85.7 1.62 2zm.38.65.25-1.28 4.6 1.73-1.2 1z"/><path d="m37.85 319.06c-2.5-.48-3.7-2.14-3.33-4.15s2.13-3.12 4.61-2.65 3.77 2.15 3.39 4.16-2.18 3.11-4.67 2.64zm1-5.4c-1.73-.33-2.93.26-3.16 1.47s.67 2.19 2.4 2.52 3-.25 3.22-1.46-.71-2.19-2.44-2.53z"/><path d="m39.79 309.3c-2.51-.54-3.66-2.44-3.24-4.38a3.15 3.15 0 0 1 1.45-2l.72.92a2.05 2.05 0 0 0 -1 1.31c-.27 1.25.59 2.37 2.31 2.75s3-.22 3.27-1.51a2.18 2.18 0 0 0 -.43-1.8l1-.55a3.12 3.12 0 0 1 .59 2.66c-.39 1.93-2.13 3.15-4.67 2.6z"/><path d="m39.41 298.35-.53 2.21-1.14-.28 1.39-5.75 1.14.27-.53 2.2 6.48 1.57-.32 1.35z"/><path d="m43.52 293.05c-2.45-.66-3.53-2.42-3-4.39s2.36-3 4.8-2.29 3.59 2.44 3.06 4.41-2.38 2.94-4.86 2.27zm1.43-5.3c-1.7-.46-2.94 0-3.26 1.23s.5 2.23 2.2 2.69 3 0 3.32-1.2-.56-2.26-2.21-2.72z"/><path d="m42.54 282 .72-2.41c.47-1.54 1.28-2.53 2.66-2.12a1.74 1.74 0 0 1 1.31 1.53h.05a1.8 1.8 0 0 1 2.22-.9c1.5.45 1.83 1.89 1.34 3.54l-.78 2.6zm3.79-1.36c.32-1 0-1.61-.61-1.81s-1.15.19-1.45 1.17l-.29 1 2.07.61zm3.43.84c.33-1.1.12-1.84-.73-2.09s-1.31.26-1.65 1.38l-.38 1.08 2.38.72z"/><path d="m45.19 273.27 1.47-4.5 1.12.37-1 3.17 1.91.62.88-2.68 1.11.36-.87 2.69 2.19.7 1.07-3.28 1.11.36-1.5 4.61z"/><path d="m47.85 265.3.88-2.5c.55-1.53 1.51-2.53 3.16-1.94s1.89 2 1.35 3.54l-.42 1.18 2.89 1-.46 1.31zm4.29-1.13c.36-1 .14-1.72-.7-2s-1.34.15-1.7 1.16l-.37 1.05 2.4.85zm.66.35-.44-1.22 4.84-.89-.53 1.48z"/><path d="m58.87 505-1.18-.41a3.08 3.08 0 0 0 .11-2.23c-.31-.83-.86-1.14-1.43-.92s-.62.77-.65 1.55v1.16a2.25 2.25 0 0 1 -1.38 2.22 2.39 2.39 0 0 1 -3-1.67 3.49 3.49 0 0 1 .08-2.62l1.08.36a2.56 2.56 0 0 0 0 1.83c.27.69.77 1 1.3.82s.58-.86.6-1.56v-1.15a2.16 2.16 0 0 1 1.41-2.23c1.19-.45 2.56.16 3.18 1.8a4 4 0 0 1 -.12 3.05z"/><path d="m49.31 499-1.57-4.46 1.11-.39 1.15 3.17 1.89-.67-.98-2.65 1.11-.39.94 2.67 2.19-.78-1.15-3.27 1.1-.39 1.62 4.57z"/><path d="m46.57 491.09-.76-2.35c-.54-1.66-.37-3.07 1.36-3.63s2.82.44 3.34 2.05l.35 1.07 2.74-.89.43 1.33zm2.92-3.48c-.36-1.11-1-1.5-1.9-1.2s-1.05 1-.69 2.09l.3.92 2.6-.84z"/><path d="m44.59 480.93.64 2.17-1.12.34-1.69-5.68 1.12-.34.65 2.17 6.4-1.91.41 1.32z"/><path d="m41.54 474.65-1.24-4.56 1.13-.31.87 3.22 1.94-.53-.74-2.73 1.13-.3.75 2.72 2.24-.61-.91-3.33 1.13-.31 1.27 4.67z"/><path d="m39.37 466.49-.37-1.49 3.39-2.25c.45-.29.92-.56 1.38-.85v-.05c-.54-.05-1.09-.07-1.61-.12l-4-.41-.37-1.53 7.63-1.85.3 1.24-3.49.84c-.7.17-1.74.31-2.47.42v.05l1.93.18 3.72.43.2.8-3.17 2.1-1.63 1c.69-.24 1.68-.59 2.39-.76l3.48-.85.3 1.22z"/><path d="m36.87 455.9-.52-2.45c-.34-1.58-.1-2.84 1.31-3.14a1.76 1.76 0 0 1 1.89.71 1.81 1.81 0 0 1 1.51-1.86c1.54-.32 2.52.78 2.88 2.47l.56 2.65zm2.67-3c-.22-1.06-.74-1.43-1.41-1.29s-.91.72-.7 1.71l.21 1 2.11-.44zm3.46-.9c-.24-1.13-.78-1.67-1.64-1.49s-1 .86-.79 2l.25 1.15 2.42-.51z"/><path d="m35 447-.86-4.64 1.15-.21.61 3.27 2-.37-.52-2.77 1.15-.21.52 2.77 2.28-.43-.63-3.41 1.15-.21.89 4.76z"/><path d="m33.53 438.71-.42-2.61c-.26-1.61.11-2.94 1.84-3.22s2.62.85 2.88 2.46l.2 1.24 3-.49.23 1.37zm3.22-3c-.17-1.06-.7-1.57-1.58-1.43s-1.11.77-.94 1.83l.18 1.1 2.52-.41zm.75 0-1-.87 3.83-3.09.25 1.54z"/><path d="m148.68 644.51-1.22-1.08 3.25-7.58 1.11 1-1.82 3.9c-.36.79-.78 1.61-1.17 2.41.74-.51 1.5-1 2.24-1.48l3.66-2.34 1.06.93zm3.84-2.79-2.77-2.44.72-.82 2.78 2.44z"/><path d="m146.51 636.68-3 3.24-1-.95 3.06-3.31c1.16-1.25 1.07-2.1.38-2.74s-1.58-.69-2.74.56l-3.06 3.31-1-.91 3-3.23c1.75-1.89 3.27-1.86 4.61-.62s1.5 2.76-.25 4.65z"/><path d="m139.37 630.63c-1.79 1.84-4 1.79-5.51.33a3.26 3.26 0 0 1 -1-2.36l1.16-.13a2.17 2.17 0 0 0 .66 1.6c1 1 2.42.85 3.65-.41s1.41-2.63.29-3.73a1.76 1.76 0 0 0 -1-.54l-1.19 1.21 1.06 1-.8.81-1.95-1.9 2.42-2.47a3.5 3.5 0 0 1 2.44 1.08c1.47 1.52 1.59 3.66-.23 5.51z"/><path d="m132.77 623.47-3.17 3.06-1-1 3.24-3.14c1.23-1.18 1.19-2 .53-2.72s-1.54-.77-2.76.41l-3.25 3.14-.93-1 3.17-3.06c1.85-1.8 3.37-1.68 4.64-.37s1.38 2.88-.47 4.68z"/><path d="m128.28 615.25h-1.25a3.09 3.09 0 0 0 -.73-2.11c-.59-.65-1.22-.74-1.67-.32s-.28.94 0 1.67l.39 1.11a2.28 2.28 0 0 1 -.46 2.58 2.4 2.4 0 0 1 -3.42-.45 3.43 3.43 0 0 1 -.9-2.46l1.14-.07a2.5 2.5 0 0 0 .62 1.8c.51.55 1.09.67 1.52.29s.21-1 0-1.67l-.39-1.08a2.19 2.19 0 0 1 .49-2.61c.94-.86 2.43-.8 3.62.5a4.07 4.07 0 0 1 1.04 2.82z"/><path d="m117.17 611.42 1.5 1.7-.88.77-3.91-4.45.89-.77 1.49 1.7 5-4.4.91 1z"/><path d="m304.91 716.49-1.09.47a1.4 1.4 0 0 0 -1-1.09c-.71-.16-1.17.14-1.43 1.23l-1.18 5.12-1.36-.31 1.22-5.24c.32-1.4 1.27-2.38 2.87-2a2.46 2.46 0 0 1 1.97 1.82z"/><path d="m296.16 716.74-1.1 4.26-1.35-.35 1.13-4.37c.43-1.65 0-2.35-1-2.59s-1.71.13-2.14 1.79l-1.13 4.37-1.29-.34 1.1-4.26c.65-2.5 2-3.19 3.77-2.73s2.66 1.72 2.01 4.22z"/><path d="m285.54 718.48-1.33-.39 1.83-6.42-3.13-.89.32-1.13 4.47 1.28z"/><path d="m279.06 711.44.81 5.41-1.42-.44-.23-2.17c-.05-.62-.1-1.21-.16-1.85-.42.5-.81 1-1.2 1.44l-1.41 1.67-1.39-.43 3.71-4 .86-2.79 1.33.41z"/><path d="m484.91 708.45-.71.95a1.39 1.39 0 0 0 -1.42-.43c-.7.22-.94.71-.61 1.78l1.56 5-1.33.41-1.6-5.14c-.42-1.37-.09-2.7 1.47-3.18a2.47 2.47 0 0 1 2.64.61z"/><path d="m477.52 713.06 1.19 4.24-1.33.38-1.23-4.34c-.47-1.65-1.23-2-2.15-1.76s-1.41 1-.94 2.63l1.23 4.34-1.29.37-1.2-4.24c-.71-2.48.12-3.76 1.87-4.26s3.14.16 3.85 2.64z"/><path d="m469.21 719.93-1.39.35-3.44-3.68-1.2-1.42h-.05c.27.77.62 1.71.83 2.55l.84 3.3-1.29.33-1.92-7.6 1.38-.35 3.45 3.68 1.2 1.42c-.27-.79-.61-1.67-.82-2.52l-.84-3.33 1.28-.33z"/><path d="m459.66 722.28-4.61 1-.26-1.14 3.25-.73-.44-2-2.75.62-.26-1.14 2.75-.62-.51-2.26-3.36.75-.26-1.14 4.72-1.06z"/><path d="m636.43 620.27-1.09 1.14-3.73-1.65c-.48-.22-1-.47-1.46-.7.26.48.53.95.77 1.42l1.83 3.64-1.08 1.14-5.67-5.4.88-.92 2.59 2.48c.53.5 1.21 1.3 1.68 1.85l-.88-1.72-1.65-3.37.57-.6 3.44 1.5 1.75.82c-.57-.45-1.4-1.1-1.93-1.6l-2.59-2.48.87-.91z"/><path d="m627.75 629.18-1.16 1.15-7.34-3.79 1-1 3.79 2.13c.76.42 1.55.9 2.32 1.35-.46-.77-.92-1.56-1.33-2.33l-2.03-3.9 1-1zm-2.51-4-2.63 2.6-.77-.78 2.63-2.6z"/><path d="m618.46 631.32 5.1 2-1.08 1-2-.87-1.69-.78c.23.6.43 1.17.66 1.75l.76 2-1.06 1-1.66-5.2-2-2.12 1-1z"/><path d="m723.28 455.18-.35 1.59-8.22.81.32-1.44 4.34-.27c.86-.06 1.79-.09 2.68-.13v-.05c-.81-.4-1.62-.81-2.38-1.24l-3.82-2.08.31-1.38zm-4.29-2-.8 3.61-1.07-.24.8-3.61z"/><path d="m721.71 462-.59 2.4c-.42 1.7-1.32 2.81-3.08 2.37s-2.16-1.87-1.75-3.51l.27-1.1-2.8-.69.33-1.35zm-4.31 1.41c-.29 1.14 0 1.79 1 2s1.41-.28 1.69-1.42l.24-.93-2.66-.66z"/><path d="m714.63 471.82.53 1.19-4.77 1.23.42-1.51zm4.88-1.13-.7 2.55c-.44 1.58-1.33 2.64-3 2.17s-2-1.86-1.6-3.44l.33-1.2-2.95-.82.37-1.34zm-4.2 1.44c-.28 1 0 1.72.85 2s1.33-.25 1.61-1.28l.3-1.07-2.46-.68z"/><path d="m717.05 479.39-.4 1.33-7.52-2.24.4-1.33z"/><path d="m715.52 484.45-.42 1.33-6.36-2-1 3.11-1.12-.36 1.41-4.43z"/><path d="m713.26 268.39.49 1.5-3.23 2.5-1.31.95h1.62l4.06.11.49 1.5-7.47 2.42-.39-1.22 3.41-1.1c.69-.23 1.72-.44 2.43-.6v-.05h-1.93l-3.75-.14-.26-.79 3-2.32 1.54-1.15c-.67.29-1.63.72-2.32.94l-3.46 1.06-.38-1.2z"/><path d="m717 280.27.46 1.57-6.82 4.66-.41-1.42 3.67-2.32c.73-.47 1.53-.94 2.29-1.41-.89 0-1.81.06-2.68.06h-4.34l-.4-1.36zm-4.74.3 1 3.54-1 .31-1-3.55z"/><path d="m718.92 287 .68 2.56c.42 1.58.19 2.94-1.51 3.39s-2.69-.59-3.11-2.16l-.32-1.21-3 .78-.35-1.34zm-3.65 3.44 1.06.76-3.49 3.46-.4-1.51zm.75-.08c.28 1 .86 1.49 1.72 1.26s1-.88.75-1.92l-.29-1.07-2.47.66z"/><path d="m717.26 296.31c2.5-.59 4.35.62 4.81 2.55a3.13 3.13 0 0 1 -.44 2.43l-1-.52a2 2 0 0 0 .32-1.6c-.29-1.24-1.55-1.89-3.27-1.48s-2.6 1.49-2.3 2.77a2.24 2.24 0 0 0 1.18 1.44l-.68.93a3.11 3.11 0 0 1 -1.68-2.14c-.51-1.92.53-3.78 3.06-4.38z"/><path d="m723.21 304.44.29 1.36-3.09.65.66 3.1 3.09-.64.28 1.36-7.68 1.61-.29-1.36 3.41-.72-.65-3.1-3.41.72-.29-1.37z"/><path d="m604.33 109.53 3.63 3-.75.9-2.57-2.15-1.43 1.7 2.18 1.84-.75.89-2.18-1.83-2.11 2.51-1.07-.89z"/><path d="m610.46 114.73 3.54 3.12-.78.88-2.49-2.2-1.33 1.47 2.11 1.87-.77.87-2.12-1.86-1.53 1.74 2.59 2.28-.78.88-3.63-3.2z"/><path d="m616.74 120.32 1.84 1.7c1.18 1.1 1.72 2.26.74 3.32a1.76 1.76 0 0 1 -2 .51 1.79 1.79 0 0 1 -.15 2.39c-1.07 1.16-2.51.82-3.78-.35l-2-1.84zm-2.74 6.68c.85.78 1.6.91 2.2.26s.35-1.29-.51-2.09l-.87-.79-1.68 1.82zm2.26-2.71c.8.74 1.43.74 1.9.24s.33-1.12-.42-1.81l-.75-.69-1.46 1.58z"/><path d="m623.4 126.56 1.89 1.85c1.17 1.13 1.67 2.42.45 3.68s-2.61.88-3.78-.26l-.9-.88-2.14 2.2-1-1zm-1.4 4.82 1.3.11-1.23 4.77-1.12-1.1zm.6-.45c.77.75 1.5.84 2.13.2s.42-1.28-.34-2l-.8-.77-1.78 1.83z"/><path d="m626.66 136 3.17-3.07 1 1-3.27 3.07c-1.23 1.19-1.19 2-.52 2.72s1.53.78 2.75-.41l3.21-3.11.93 1-3.17 3.07c-1.85 1.79-3.37 1.67-4.63.37s-1.32-2.89.53-4.64z"/><path d="m637.56 141 1.11 1.19-4 7.21-1-1.09 2.26-3.71c.44-.74.94-1.52 1.41-2.27-.78.43-1.59.87-2.37 1.25l-3.97 1.9-1-1zm-4.11 2.37 2.51 2.71-.8.74-2.51-2.71z"/><path d="m642.3 146.21 1.74 2c1.08 1.23 1.47 2.55.16 3.71s-2.68.67-3.75-.56l-.83-.94-2.3 2-.92-1.05zm-1.74 4.7 1.28.21-1.59 4.65-1-1.17zm.63-.4c.71.81 1.43 1 2.1.36s.53-1.24-.18-2.05l-.73-.83-1.92 1.68z"/><path d="m645.22 157.14 2.27-5 1 1.14-1 1.95c-.3.55-.58 1.07-.88 1.64.62-.2 1.2-.36 1.79-.56l2.09-.63.93 1.11-5.3 1.35-2.24 1.88-.88-1.02z"/><path d="m441.25 40.72 1.08-.51a1.37 1.37 0 0 0 1.05 1c.72.13 1.16-.19 1.37-1.29l1-5.17 1.36.26-1 5.29c-.27 1.41-1.18 2.43-2.79 2.13a2.5 2.5 0 0 1 -2.07-1.71z"/><path d="m452.41 36.12 1.6.34.87 8.21-1.44-.3-.31-4.37c-.07-.86-.11-1.78-.15-2.67h-.05c-.39.8-.8 1.62-1.22 2.38l-2 3.84-1.39-.3zm-2 4.32 3.62.77-.23 1.06-3.61-.77z"/><path d="m459.31 37.64 1.39.34 1.3 4.85.39 1.82h.05c.12-.8.25-1.79.45-2.64l.8-3.31 1.31.3-1.84 7.62-1.39-.33-1.33-4.86-.4-1.82h-.04c-.13.83-.24 1.77-.45 2.62l-.8 3.34-1.29-.31z"/><path d="m467.66 44.24 1.15-4.24 1.34.36-1.15 4.35c-.45 1.64 0 2.35.94 2.6s1.71-.12 2.16-1.77l1.17-4.35 1.3.35-1.15 4.25c-.67 2.49-2 3.16-3.8 2.69s-2.62-1.75-1.96-4.24z"/><path d="m479.63 43 1.56.46.21 8.25-1.4-.4v-4.31c0-.87 0-1.79 0-2.68-.46.77-.93 1.56-1.41 2.28l-2.35 3.66-1.36-.41zm-2.33 4.13 3.54 1.06-.31 1-3.53-.99z"/><path d="m486.35 45.08 2.51.82c1.55.51 2.57 1.45 2 3.11s-1.95 1.94-3.5 1.43l-1.19-.39-.93 2.95-1.33-.44zm1.24 4.26c1 .33 1.71.09 2-.76s-.18-1.33-1.2-1.67l-1.05-.34-.8 2.43zm-.35.67 1.22-.48 1 4.82-1.46-.49z"/><path d="m494.42 53-.59-5.43 1.41.49.13 2.18c0 .62.05 1.21.09 1.86.43-.48.85-.91 1.26-1.38l1.47-1.61 1.37.48-3.87 3.86-1 2.75-1.31-.46z"/><circle cx="262.54" cy="611.4" opacity=".3" r="1.06"/></g><g fill="none" stroke="#ff8c00" stroke-width=".8"><path d="m442.32 472.98-3.43 3.73-6.54-6.07-3.73-7.94-4.06-16.35 3.07-7.06-.26-9.45-.52-5.82 3.92 4.67.96 7.84 6.39 7.27 6.33 4.36 2.96 2.96" opacity=".8"/><path d="m428.61 462.7 18.8-11.58" opacity=".8"/><path d="m427.63 439.29 4.1-2.76" opacity=".8"/><path d="m427.37 429.84 3.4-1.14" opacity=".8"/><path d="m491.01 448.47 9.56-3.99" opacity=".8"/><path d="m470.04 436.22v4.99l14.02-6.08z" opacity=".8"/><path d="m502.69 419.55-7.12 1.41-4.19-5.92 11.31 4.51 8.57 11.36 6.13 6.25 9.55 14.95 8.1 17.96" opacity=".8"/><path d="m535.04 470.07 2.6-6.96" opacity=".8"/><path d="m557.57 366.85 4.15-2.91.41-12.88-6.48-6.41-4.52 2.88-2.08 6.44 3.48 8.53-3.11 15.58-4.99 35.92-3.11 9.97-1.95 7.58-.91 13.27-2.28 8.1 1.46 10.19" opacity=".8"/><path d="m557.57 366.85-5.04-4.35" opacity=".8"/><path d="m484.37 306.96 7.32 10.59 13.24 18.84-2.18 2.81-5.35 9.76-7.16-9.19-12.72-12.72" opacity=".8"/><path d="m497.4 348.96 28.65-6.7 4.21 44.54-29.9-4.05-6.39 15.42-13.39 12.46-22.43 15.73" opacity=".8"/><path d="m500.36 382.75-2.96-33.79" opacity=".8"/><path d="m514.06 285.73 17.97 12.2-1.09 25.54-1.93 4.49-2.96 14.3" opacity=".8"/><path d="m422.23 402.89 9.34-1.4.42-8.61 9.65-2.7-4.04-8.57" opacity=".8"/><path d="m446.68 389.97-5.04.21" opacity=".8"/><path d="m433.65 356.23-.93-4.83 2.26-.24-6.88-5.78-10.22.1-11.09 11.88-4.91 20.51 19.31-11.83z" opacity=".8"/><path d="m413.25 339.25 4.63 6.23" opacity=".8"/><path d="m406.79 357.36 14.4 8.68" opacity=".8"/><path d="m425.29 264.55 4.67 13.86.37 5.97 4.36 15.26.41 12.56" opacity=".8"/><path d="m417.25 301.29 17.44-1.65" opacity=".8"/><path d="m451.3 295.85-16.61 3.79" opacity=".8"/><path d="m477.7 251.59-1.58 6.62-1.72 4.21 3.3 3.22.98-3.53-2.56-3.9" opacity=".8"/><path d="m439.15 245.83 3.43 3.42 4.57 4.6 4.31 2.57" opacity=".8"/><path d="m402.09 277.68 4.1-8.88-5.04.26-3.69 8.67-.2 4.78-4.41-2.34" opacity=".8"/><path d="m402.09 277.68-4.63.05" opacity=".8"/><path d="m392.85 280.17 4.61-2.44" opacity=".8"/><path d="m555.28 309.97-1.61-5.29-.05-6.75-8.1-12.26-5.34-31.66-19.32-36.55" opacity=".8"/><path d="m547.44 303.45-1.92-17.78" opacity=".8"/><path d="m553.67 304.51-6.23-1.06" opacity=".8"/><path d="m573.19 247.99-3.53-6.24-10.79-14.95-9.97-13.29-44.85-21.18 6.43-4.15 38.83-8.28 8.93 1.01 8.31 17.26 8.3 21.78-.83 14.35z" opacity=".8"/><path d="m433.44 183.41 9.14 25.17 2.39 12.33 4.67 10.93 5.4-2.08 5.81-4.36" opacity=".8"/><path d="m481.41 216.42-15.37-4.98-23.46-2.86-21.81 19.26" opacity=".8"/><path d="m449.37 109.45 3.12 8.93-14.45 1.35-10.89-4.88-20.46 2.11-7.27-15.71-17.81-3.06 23.36-11.3z" opacity=".8"/><path d="m399.42 101.25 5.55-14.36" opacity=".8"/><path d="m427.16 114.85 22.21-5.4" opacity=".8"/><path d="m399.42 101.25 27.74 13.6" opacity=".8"/><path d="m419.48 204.38-24.92-22.27-20.35-20.38-22.48-15.29-27.58 3.27" opacity=".8"/><path d="m358.79 220.32 3.58-20.25 3.38-5.04 8.46-33.3" opacity=".8"/><path d="m297.53 174.99 33.85 43.46-25.9-10.02-19.31-7.79 2.18-3.89 3.63-12.86 5.55-8.9 26.52-25.17 38.32 50.25" opacity=".8"/><path d="m331.38 218.45 27.41 1.87" opacity=".8"/><path d="m292.13 252.87 3.43 9.46 1.81-6.25 1.41-6.54-6.65 3.33-13.18-4.99.1-11.06 1.33-8.25-11.85-16.04 17.64-11.89" opacity=".8"/><path d="m337.45 269.69-13.91-18.3 22.95-24.58 4.36 23.25-4.36 15.42z" opacity=".8"/><path d="m316.3 248.74 7.24 2.65" opacity=".8"/><path d="m343.84 284.64-6.39-14.95" opacity=".8"/><path d="m356.56 275.53-10.07-10.05" opacity=".8"/><path d="m350.85 250.06 9.81 2.31" opacity=".8"/><path d="m369.54 254.42-8.88-2.05" opacity=".8"/><path d="m355.48 65.64-6.76 4.78-10.52 8.66 21-2.85-3.72-10.59-15.27-8.69-34.47 5.37-23.88 9.96 2.08 15.37.95 13.27-8.62 25.41-4.59 8.3-7.86 6.22-16.25 19.19 10.32 4.18" opacity=".8"/><path d="m247.57 160.04-6.82-8.04" opacity=".8"/><path d="m221.59 247.26-15.27 19.47-4.67 38 15.26-16.36 21.49-30.21" opacity=".8"/><path d="m186.78 362.51 8.8 26.94 11.05 2.65-.47-11.37-19.38-18.22 1.32-16.05-4.83-25.85-10.02-19.36" opacity=".8"/><path d="m183.27 320.61 18.38-15.88" opacity=".8"/><path d="m201.65 304.73.78 33.17" opacity=".8"/><path d="m188.1 346.47 14.33-8.57" opacity=".8"/><path d="m221.74 337.59-19.31.31" opacity=".8"/><path d="m126.32 343.91 1.02 27.41 14.87-5.39 3.64-13.79z" opacity=".8"/><path d="m150.14 243.36-7.74 41.75-3.75 11.3-47.06 95.79 9.56 23.47 20.35 28.86 36.34 6.64 7.23 23.68 18.77 8.09 1.06 4.88 2.5 14.54 26.86 7.94 9.19-19.46 20.09 10.27" opacity=".8"/><path d="m260.36 505.01 2.15 11.37 3.27 2.33 3.77-4.2-3.77-6.36z" opacity=".8"/><path d="m243.54 501.11 16.82 3.9" opacity=".8"/></g><g fill="#fff" opacity=".08"><path d="m439.42 112.66c6.76-6 12.74-6.08 21.43-6.3 6.71-.17 16.83-4.3 11.81-12.77-3.51-5.92-10.74-8-14.87-13.4-6.25-8.15 4.18-16 .66-25l-.53-1.37-1.44-.34a336.62 336.62 0 0 0 -235.79 31.16l-5.88 3.22 4.35 1.32-.21.17.82 1h.23c2 1.73 4.23.9 6.54.88 6 1 10.55 8 16.31 10.29 6 2.37 12.63 2.65 19 2.42 7.45-.27 12.48-3.3 19.28-5.71 4.71-1.67 9.75-1.6 13.37-5.65 3.47-3.88.91-11.37 4.89-14.27s10.71-1.07 15.36-2.94c2.67-1.08 5.21-3.24 5.74-6.2.42-2.28-.58-4.76 2-5.85 3.56-1.48 11.51-1.53 12.13 3.51.38 3.06-.14 6.15.76 9.15 1 3.34 3.13 6.2 5 9.09 3.38 5.16 5.73 9 11.56 11.72 6.49 3 9.79 6.56 13.77 12.43s9.08 9.94 11.72 16.53c1 2.49 2.13 5.53 1.8 8.27s-1.76 5.29-1.76 8.2c0 4.16 3.82 9 6.46 11.95 4 4.41 9.94 2.2 14.19 5.53 2.57 2 4.35 4.85 6.76 7 1.7 1.52 4.65 2.34 6.06 4 .51 1.36-.16 3.69-.25 5.1a30.84 30.84 0 0 0 .54 9c.84 3.62 6.16 10.35 1 13.23-4.47 2.5-7.58-3.84-9.59-6.61-2.73-3.75-6.38-6-11.14-5.61-11.32 1-10.43 13.72-6.83 21.72 4.33 9.69 15.33 10.47 21.8 17.7 6.09 6.9 2.23 23.53 15.62 23.53a8.54 8.54 0 0 0 8.57-7.83c.35-3.58-5.13-12.11-.53-14.35 4.19-2.05 8.56 3.47 9.06 7 .77 5.51.92 10.28 3.06 15.55 2.28 5.63 3.94 10.37 3.1 16.52-.75 5.41-2 10.64-1.28 16.13-2.56-6.45-.12-12.72-2.26-19.07l-.06-.18c-1.4-4.18-4.86-8.44-9.82-6.25-4.07 1.79-3 8.12-7.66 8.39-6 .34-7.61 7.26-6.19 12.26.95 3.3 2.25 6.07 2.37 9.59a60.28 60.28 0 0 0 .41 7.48c1.11 6.91 5.9 9.46 11.29 12.86 5.86 3.69.91 7.56-3.52 10.15-4.68 2.75-10.72.63-14.44 5.54-3.26 4.31-1.27 10.47 3 13.26 4.71 3.08 11.31 1 15.73 4.71s-1.94 8-.79 12.89c1.29 5.5 3.76 8.05 1.39 13.95-1.62 4-4.24 8.89 1.05 11.69 2.82 1.49 5.89.31 8.57-.85.62-.27 3.59-1.92 4.22-.62 1.33 2.73-2.82 7.49-2.82 10.53 0 4.6-.71 8.58-3.72 12.3-2.67 3.32-7.45 1.4-10 5.88-3.36-.53-5.33 1.26-8.13 2.86-2.53 1.45-5 2.21-6.52 4.89-1.93 3.35-.44 10.47-3.51 12.7-1.92 1.41-4.23 1.7-5.77 3.71s-1.83 4.82-2 7.29c-.33 3.89 1.34 12.09-3.51 13.57-3.16 1-6.46 1.11-9.3 3s-5 5-6.71 7.95c-1.87 3.14-3.42 6.46-5.33 9.58-1.8 3-4.56 5.33-6 8.5-2.38 5.22.61 9.49 2.4 14.29 3 7.95-1.83 6.46-7.86 7.11h-.17l.36 3.05v2.55c-1.53 0-3.18-1.63-2.59-3.23a14.16 14.16 0 0 1 -1.54 2.43c-5 1.81-8.85 2.57-13 6.41a26.89 26.89 0 0 0 -7.79 12.6c-1.32 4.25-5.49 6.41-7.77 10.07-3 4.8-.11 9.28-.78 14.28-.43 3.29-4.57 3.81-5.66 7.07-1.45 4.36-1.29 7.29-6.51 8.59-4.81 1.21-10.36 2.22-15.32 1.79s-8-5.5-13.16-5.58h-.23c-5 0-8.42 2.91-10.36 7.3-2.06 4.67-2 9.36-7.43 10.78-7.27 1.89-3.72 8-6.09 12.75-1.92 3.82-8.81 1.66-11.94 1.39h-.25c-6.6-.57-12.5-.67-17.49 4.21-2.82 2.75-9.18-1.67-12.82-1.67-5.4 0-9 4.46-9.29 9.65-.22 4.34 3.34 12.69.47 16.47-6.46-1.6-6.75-5.69-8.29-11.36-1.31-4.87-5.69-7.75-10-9.79-4.09-1.92-10.37-4.08-14-.23-3.14 3.31-2.91 8.76-2.86 13-9.84 2.76-11.91-13.4-21.34-15-7-1.17-8.19 4.68-8.63 9.91s-7 2.27-10.38 3.89l-3.72 1.71 2.84 2.83a334.57 334.57 0 0 0 106.3 71.54l1.17.49 1.14-.54c5.77-2.75 4.46-8.54 8.49-12.2 3.81-3.47 11.25 4.25 15.65 4.25 6.34 0 8.86-6.06 5.41-10.88a15.86 15.86 0 0 0 -5.27-4.67c-1.48-.78-5.66-1.51-6.46-3.11 0-1.4 2.09-2.44 3-3.13a8.92 8.92 0 0 0 3.49-5c1.56-5.92-2.17-12.18-.29-17.9 1.43-4.36 8.2-6.58 11.52-9.38s8.59-6 10.63-10.13c.22 10.42 14.69 1.83 17.88-1.72 5.19-5.76 7.38-11.85 7.6-19.45.26-9.09 10.62.67 14.84.67 3.73 0 7.58-3.15 7.59-7 0-4.1-3.69-6.78-4.11-10.64 1.69-.42 3.68 0 5.38.16h.23c5.6.6 16.28 3.17 19.1-3.79 1.53-3.76 2.54-5.06 6.64-5.92 3.74-.78 7.42-2 9.88-5.14 5-6.34 5.08-15.5 8.37-22.7 2-4.33 3.6-5.14 7.81-2.85 3.29 1.78 6.63 4.09 10.51 4.24 6.4.23 13.12-5 10.88-11.91-1.1-3.4-4.18-5.54-7.48-6.53-2.1-.63-7.34.89-8.23-1.63-1.15-3.27.46-6.44 2.9-8.48a12.13 12.13 0 0 0 4.86-9.24c.24-3.81-.26-7.77-3.11-10.55-2.32-2.28-3.06-3.32-3-6.65 3.57.33 6.17-2.85 7-5.94 1-3.89 7.17-4.54 10.39-5.94 7.25-3.14 10.45-13.36 1.52-17.17-.54-1.28.8-3.35 1.08-4.6a13.92 13.92 0 0 0 -.54-6.86c-1.65-6.17 2.79-6.47 5.23-11.25.9-1.78 2.81-13.14 5-5.07 1.24 4.6-2.75 8.86-5 12.51-4.59 7.37-6.59 18.35 4.75 20.65 5.35 1.09 8.08-.79 9.88-5.59 1.56-4.17 5.11-6.6 6.86-10.63 2.39-5.46-.48-9.73-1.26-15.07-.84-5.82 4.57-11.25 7.22-15.94 2.95-5.22 2.73-9.78 3.22-15.49.34-3.92 4.38-5.33 6-8.56 2.64-5.17.61-11.66-.93-16.83s-2.19-9.94-4.62-14.91c-2.2-4.49.08-9.39.41-14.07.37-5.18-2.35-7.42-6.38-10 .44-3.56 5.14-5.91 7.1-8.61 2.76-3.8 3.16-8.68 2-13.13-1-4.07-4.06-7-3.89-11.45.16-3.86 2.29-7.5 3.68-11 1.77-4.47 3.71-8.92 4.78-13.62 1.15-5.07-.78-9.93-.88-15a22.75 22.75 0 0 0 -2.71-11.25c-1.37-2.31-4.4-4.35-5-7-1-4.31.74-8.77-.27-13.13-1.06-4.56-3.48-8.61-4.84-13.06-2.68-8.79-1.22-19.14-2.13-28.25-.61-6.14 3.59-13.18-1-18.65-2.69-3.19-6.84-3.94-10.8-3.77-2.71.12-8.35 1.66-10.55-.47-2.05-2.46.69-6.67 3.11-7.31 4.17-1.11 8.82-.66 12.08-4 1.89-2 2.22-4.38 3-6.86.63-2 2.35-3.72 3.73-5.27 2.84-3.19 5.63-6.74 6.25-11.1 1.17-8.15-6.91-11.62-13.81-11.33-3.89.16-8.23 2.7-10.6-1.54-2.06-3.65 1.76-6.48 4.18-8.6zm-218.26-27.45-.22-.42h.22zm224 202.71c.14.71.27 1.4.39 2.09a2.18 2.18 0 0 0 -.06-.22 6.29 6.29 0 0 1 -.35-1.87z"/><path d="m445.47 289.79a1.41 1.41 0 0 1 .06.22c-.1-.56-.13-.5-.06-.22z"/><path d="m289.93 107.26c-4.09 6-3.63 16.18-2.19 23 3.65 17.17 19.34 28.21 36.29 28.58 7.45.15 15-.5 22.22 1.78 8 2.53 16.65 4.25 21.64-4.34a10.92 10.92 0 0 0 -5.44-15.38c-5.08-2.12-10.89-1-16.17-.78h-.1c-5.71.28-10.5 1.65-16 2.79-5.18 1.09-4.18-4.6-3.42-7.91 1.14-4.62 1-9.18 1.77-13.84.66-4.06 3.29-5.19 6.31-7.45 7-5.28 2.53-14.54-5.65-14.54-4 0-9.06 2.34-12.56-.26-3.16-2.35-5.12-6.05-9.55-6.05-8.46.02-13.02 8.39-17.15 14.4z"/><path d="m343.48 120.21c-2.1 2.58-2.14 6.07.54 8.27l.31.26.38.12c6.73 2.23 19.21 11.82 23.56.34 3.5-9.23-6.34-13-13.55-13-4.24 0-8.37.49-11.24 4.01z"/><path d="m169.83 148.54c3.1 4.68 6 9.66 12.39 9.66 15.24 0 9-21 18.36-26.94 5.55-3.52 12.93.5 18.91-2.24 5.72-2.64 7.43-9.3 6-15a15.41 15.41 0 0 0 -11.84-11.67c-5.57-1.24-11.8 0-17.11-2.25l-1.39-.59-1.26.84a337.55 337.55 0 0 0 -35.32 27l-1.34 1.18.49 1.71c2.28 7.68 7.85 11.87 12.11 18.3z"/></g><g fill="none" stroke="#ff8c00" stroke-width=".8"><path d="m297.22 385.97-28.98 14.95-4.24 1.08" opacity=".8"/><path d="m292.39 419.77 3.9.78" opacity=".8"/><path d="m291.77 399.99.62 19.78" opacity=".8"/><path d="m291.77 399.99 5.45-14.02" opacity=".8"/><path d="m308.49 382.6-11.27 3.37" opacity=".8"/><path d="m315.81 396.92-7.32-14.32" opacity=".8"/><path d="m326.4 393.81-10.59 3.11" opacity=".8"/><path d="m328.37 412.14 9.66-.94" opacity=".8"/><path d="m315.81 396.92 12.56 15.22" opacity=".8"/><path d="m326.4 393.81 11.63 17.39" opacity=".8"/><path d="m328.37 412.14 16.04 10.74" opacity=".8"/><path d="m338.03 411.2 6.38 11.68" opacity=".8"/><path d="m319.8 424.59 8.57-12.45" opacity=".8"/><path d="m318.87 437.99.93-13.4" opacity=".8"/><path d="m322.76 437.52-3.89.47" opacity=".8"/><path d="m326.4 393.81-10.49-17.81" opacity=".8"/><path d="m308.49 382.6 7.42-6.6" opacity=".8"/><path d="m307.71 344.13 7.63 11.37" opacity=".8"/><path d="m315.91 376-1.19-11.62" opacity=".8"/><path d="m315.34 355.5-.62 8.88" opacity=".8"/><path d="m258.6 300.94 24.03-3.53" opacity=".8"/><path d="m283.52 307.48-24.92-6.54" opacity=".8"/><path d="m282.63 297.41 20.35-2.08" opacity=".8"/><path d="m309.37 310.59 2.96-11.52" opacity=".8"/><path d="m297.85 317.91 11.52-7.32" opacity=".8"/><path d="m283.52 307.48 14.33 10.43" opacity=".8"/><path d="m312.33 299.07-9.35-3.74" opacity=".8"/><path d="m307.35 286.61-5.3-2.18-.42-6.65 2.76-3.63 3.42-2.18 4.36-1.25 5.19 4.7" opacity=".8"/><path d="m369.17 293.31 6.15-18.49" opacity=".8"/><path d="m339.27 385.04 1.25-10.91-4.83-19.77 4.67-21.34 7.32-6.07 7.48 2.18 12.61 5.14 13.71 10.27 9.81-5.14-15.58-24.45-6.07-2.33-1.56-5.61 8.47-2.13-.84 10.07" opacity=".8"/><path d="m381.01 347.81.47-3.27" opacity=".8"/><path d="m394.72 346.88-3.43-7.47" opacity=".8"/><path d="m380.13 380-2.7-7.58-4.16-8.1-8.14-4.31-9.97-1.55 1.29-5.66 8.92 1.56-.24 5.65" opacity=".8"/><path d="m268.93 454.08 2.18-6.54-11.99-8.41-7.63 1.25-8.26-30.84-18.22-20.71 6.08 22.42 17.13 36.6-9.35 7.64" opacity=".8"/><path d="m243.23 409.54-12.15 1.71" opacity=".8"/><path d="m248.22 447.85 3.27-7.47" opacity=".8"/><path d="m295.4 450.5 4.21-2.49 6.11 1.58 6.69-3.27 13.4 7.94 24.29-.93 13.86-14.8 9.97.32" opacity=".8"/><path d="m325.46 489.9 3.33 3.95 4.46 13.18-2.91 12.05 13.5 11.94" opacity=".8"/><path d="m333.72 484.61 9.96 7.97 11.58 12.95 11.06 7.63 4.77.41" opacity=".8"/><path d="m354.33 486.84-10.65 5.74-8.98 1.89-5.91-.62-6.44 3.87" opacity=".8"/><path d="m355.52 526.19-14.02-13.68-8.25-5.48" opacity=".8"/><path d="m361.13 517.96-5.87-12.43" opacity=".8"/><path d="m306.15 538.96 11.89-4.06" opacity=".8"/><path d="m393.11 515.49 39.71 1.2 5.27-.42 5.01-1.87 14.64.21 22.74-7.99 2.59.44" opacity=".8"/><path d="m443.1 514.4-3.73-3.89-5.14-1.71-10.29-4.52-26.63-5.19-17.81-16.51.63-15.88 3.34-21.77 11.76 18.03 5.2 7.89 9.34 15.77-12.46 12.47" opacity=".8"/><path d="m380.13 466.7 15.1-3.74" opacity=".8"/><path d="m403.07 470.85-1.42-4.47" opacity=".8"/><path d="m395.23 462.96 6.42 3.42" opacity=".8"/><path d="m393.55 591.6 2.62-20.4-12.77-20.96 12.61-7.2 9.81 5.58-.77 17.59 4.9 4.09 9.58 13.66" opacity=".8"/><path d="m383.4 550.24 22.42-1.63" opacity=".8"/><path d="m396.17 571.2 4.61-3.04" opacity=".8"/><path d="m405.05 566.21-4.27 1.95" opacity=".8"/><path d="m425.34 574.62 17.29-10.8 7.48-2.28 22.42-.41 20.56 9.17 7.68-8.55-1.01-7.68" opacity=".8"/><path d="m408.63 611.9 22.42-5.77 7.69 14.33-15.89-.18-8.25-.44z" opacity=".8"/><path d="m304.07 629.03 5.71 6.59 2.6 4.62 8.41-13.55 24.71 2.08-10.28-20.49-23.46 14.73-7.69 6.02-8.28-.26-12.38 3.95" opacity=".8"/><path d="m506.74 548.25-6.98 5.81" opacity=".8"/><path d="m625.94 579.38-13.71-3.51-13.91 16.82-15.37 26.99-23.88 7.25-11.42-3.94-9.76 1.45-35.51 10.38-6.23 4.57-17.05-5.4 1.06-3.74 26.6-32.79 10.8-9.34 9.35-12 12.18-9.41 16.92-8.91 1.87-23.88-9.24-9.55-18.17-.02-23.73 23.9" opacity=".8"/><path d="m514.89 495.71-2.49-16.61-9.96 6.85-6.65 9.12 7.84 10.2 11.26-9.56 7.58 2.06 8.98-7.48 37.17-11.81 5.46-25.4 9.96-12.19 5.56-45.47 22.22 26.37-25.55 57.1-17.65-.41" opacity=".8"/></g><g fill="#fff"><path d="m297.4 174.66h.93v.31h-.93z" opacity=".6" transform="matrix(.72067212 -.69327606 .69327606 .72067212 -37.99 255.31)"/><path d="m323.14 149.88h.93v.31h-.93z" opacity=".6" transform="matrix(.72067212 -.69327606 .69327606 .72067212 -13.61 266.28)"/><path d="m417.17 177.22a1.06 1.06 0 0 1 2.12 0 1.06 1.06 0 1 1 -2.12 0z" opacity=".3"/><path d="m380.94 210a1.06 1.06 0 0 1 2.12 0 1.06 1.06 0 0 1 -2.12 0z" opacity=".3"/><path d="m397 206.58a1.06 1.06 0 1 1 1.06 1.06 1.06 1.06 0 0 1 -1.06-1.06z" opacity=".3"/><path d="m375.8 191a1.06 1.06 0 0 1 2.12 0 1.06 1.06 0 0 1 -2.12 0z" opacity=".3"/><path d="m374.4 178.08a1.06 1.06 0 1 1 1.06 1.06 1.05 1.05 0 0 1 -1.06-1.06z" opacity=".3"/><path d="m389.5 159.08a1.06 1.06 0 1 1 1.06 1.06 1.06 1.06 0 0 1 -1.06-1.06z" opacity=".3"/><path d="m403.67 150.2a1.06 1.06 0 1 1 2.12 0 1.06 1.06 0 1 1 -2.12 0z" opacity=".3"/><path d="m413.64 167.18a1.06 1.06 0 1 1 1.06 1.06 1.06 1.06 0 0 1 -1.06-1.06z" opacity=".3"/><path d="m415.67 180.26a1.06 1.06 0 1 1 1.06 1.06 1.06 1.06 0 0 1 -1.06-1.06z" opacity=".3"/><path d="m345.43 177.15a1.06 1.06 0 1 1 2.12 0 1.06 1.06 0 1 1 -2.12 0z" opacity=".3"/><path d="m353.53 168a1.06 1.06 0 0 1 2.12 0 1.06 1.06 0 0 1 -2.12 0z" opacity=".3"/><path d="m373.15 161.73a1.06 1.06 0 0 1 2.12 0 1.06 1.06 0 0 1 -2.12 0z"/><path d="m355.4 153.78a1.06 1.06 0 1 1 1.05 1.06 1 1 0 0 1 -1.05-1.06z" opacity=".3"/><path d="m335.3 156.43a1.06 1.06 0 1 1 2.12 0 1.06 1.06 0 1 1 -2.12 0z" opacity=".3"/><path d="m348.39 200.66a1.06 1.06 0 1 1 1.06 1.06 1.06 1.06 0 0 1 -1.06-1.06z" opacity=".3"/><path d="m262.23 509.21a1.06 1.06 0 0 1 2.12 0 1.06 1.06 0 0 1 -2.12 0z" opacity=".3"/><path d="m226.1 496.13a1.06 1.06 0 0 1 2.12 0 1.06 1.06 0 0 1 -2.12 0z" opacity=".3"/><path d="m186.34 502.36a1.06 1.06 0 0 1 2.12 0 1.06 1.06 0 0 1 -2.12 0z"/><path d="m171.8 525.2a1.06 1.06 0 1 1 1.06 1.06 1.06 1.06 0 0 1 -1.06-1.06z" opacity=".3"/><path d="m183.84 487.82a1.06 1.06 0 0 1 2.12 0 1.06 1.06 0 1 1 -2.12 0z"/><path d="m92.48 463.32a1.06 1.06 0 1 1 1.06 1.06 1.06 1.06 0 0 1 -1.06-1.06z" opacity=".3"/><path d="m85 482.22a1.06 1.06 0 1 1 1.06 1.06 1.06 1.06 0 0 1 -1.06-1.06z" opacity=".3"/><circle cx="75.26" cy="463.74" opacity=".3" r="1.06"/><path d="m212.08 470a1.06 1.06 0 1 1 1.06 1.06 1.06 1.06 0 0 1 -1.06-1.06z" opacity=".3"/><circle cx="404.11" cy="579.92" opacity=".3" r="1.41"/><path d="m401.66 471a1.42 1.42 0 1 1 1.41 1.41 1.41 1.41 0 0 1 -1.41-1.41z"/><path d="m413.5 451.17a1.41 1.41 0 1 1 1.41 1.42 1.41 1.41 0 0 1 -1.41-1.42z" opacity=".3"/><path d="m430.32 436.53a1.41 1.41 0 1 1 1.41 1.42 1.41 1.41 0 0 1 -1.41-1.42z"/><path d="m436.7 430.3a1.42 1.42 0 1 1 1.41 1.42 1.41 1.41 0 0 1 -1.41-1.42z" opacity=".3"/><path d="m427.07 443.65a1.06 1.06 0 0 1 2.12 0 1.06 1.06 0 0 1 -2.12 0z" opacity=".3"/><circle cx="377.43" cy="372.42" r="1.41"/><circle cx="397.21" cy="408.86" opacity=".3" r="1.41"/><circle cx="391.44" cy="422.41" opacity=".3" r="1.41"/><circle cx="392.69" cy="434.25" opacity=".3" r="1.41"/><circle cx="390.98" cy="359.03" opacity=".3" r="1.41"/><circle cx="364.81" cy="389.4" opacity=".3" r="1.41"/><circle cx="339.27" cy="385.04" r="1.41"/><circle cx="338.03" cy="411.2" r="1.41"/><circle cx="344.41" cy="422.88" r="1.41"/><circle cx="328.37" cy="412.14" r="1.41"/><circle cx="297.22" cy="385.97" r="1.41"/><circle cx="283.83" cy="366.35" opacity=".3" r="1.41"/><circle cx="279.78" cy="355.91" opacity=".3" r="1.41"/><circle cx="260.16" cy="342.21" opacity=".3" r="1.41"/><circle cx="291.77" cy="399.99" r="1.41"/><circle cx="268.25" cy="400.92" r="1.41"/><circle cx="292.39" cy="419.77" r="1.41"/><circle cx="296.29" cy="420.55" r="1.41"/><circle cx="319.8" cy="424.59" r="1.41"/><circle cx="322.76" cy="437.52" r="1.41"/><circle cx="318.87" cy="437.99" r="1.41"/><circle cx="315.91" cy="376" r="1.41"/><circle cx="316.38" cy="339.56" opacity=".3" r="1.41"/><circle cx="318.56" cy="336.13" opacity=".3" r="1.41"/><circle cx="306.72" cy="332.09" opacity=".3" r="1.41"/><circle cx="309.37" cy="310.59" r="1.41"/><circle cx="302.98" cy="295.33" r="1.41"/><circle cx="307.35" cy="286.61" r="1.41"/><circle cx="302.05" cy="284.43" r="1.41"/><circle cx="304.39" cy="274.15" r="1.41"/><circle cx="307.81" cy="271.97" r="1.41"/><circle cx="297.53" cy="256.08" r="1.41"/><circle cx="298.78" cy="249.54" r="1.41"/><path d="m280.82 236.82a1.41 1.41 0 1 1 1.41 1.42 1.41 1.41 0 0 1 -1.41-1.42z" opacity=".3"/><path d="m279 228.57a1.41 1.41 0 1 1 1.41 1.41 1.41 1.41 0 0 1 -1.41-1.41z"/><path d="m267.11 212.53a1.42 1.42 0 1 1 1.42 1.41 1.42 1.42 0 0 1 -1.42-1.41z"/><circle cx="312.17" cy="270.72" r="1.41"/><circle cx="323.54" cy="251.26" r="1.41"/><circle cx="328.99" cy="221.2" opacity=".3" r="1.41"/><circle cx="365.75" cy="195.03" r="1.41"/><circle cx="382.1" cy="212.63" opacity=".3" r="1.41"/><circle cx="419.48" cy="204.38" r="1.41"/><circle cx="375.56" cy="195.19" opacity=".3" r="1.41"/><circle cx="394.56" cy="182.11" r="1.41"/><path d="m406.26 169a1.42 1.42 0 1 1 1.41 1.41 1.42 1.42 0 0 1 -1.41-1.41z" opacity=".3"/><circle cx="351.73" cy="146.44" r="1.41"/><circle cx="390.61" cy="129.59" opacity=".3" r="1.41"/><path d="m425.74 114.85a1.42 1.42 0 1 1 1.42 1.41 1.42 1.42 0 0 1 -1.42-1.41z"/><path d="m448 109.45a1.42 1.42 0 1 1 1.41 1.41 1.41 1.41 0 0 1 -1.41-1.41z"/><path d="m464.16 86.61a1.41 1.41 0 1 1 1.41 1.39 1.42 1.42 0 0 1 -1.41-1.39z" opacity=".3"/><path d="m466 82a1.41 1.41 0 1 1 1.41 1.41 1.41 1.41 0 0 1 -1.41-1.41z" opacity=".3"/><circle cx="452.49" cy="118.38" r="1.41"/><circle cx="486.96" cy="82.87" opacity=".3" r="1.41"/><circle cx="437.54" cy="135.61" opacity=".3" r="1.41"/><circle cx="450.41" cy="139.97" opacity=".3" r="1.41"/><circle cx="445.43" cy="136.24" opacity=".3" r="1.41"/><circle cx="459.96" cy="151.39" opacity=".3" r="1.41"/><path d="m395.71 78.65a1.41 1.41 0 1 1 1.41 1.41 1.41 1.41 0 0 1 -1.41-1.41z" opacity=".3"/><path d="m329.06 120.59a1.42 1.42 0 1 1 1.41 1.41 1.41 1.41 0 0 1 -1.41-1.41z" opacity=".3"/><path d="m274.86 126.34a1.42 1.42 0 1 1 1.41 1.41 1.41 1.41 0 0 1 -1.41-1.41z"/><circle cx="283.94" cy="87.65" r="1.41"/><path d="m280.45 72.28a1.41 1.41 0 1 1 1.41 1.42 1.41 1.41 0 0 1 -1.41-1.42z"/><path d="m304.33 62.32a1.41 1.41 0 1 1 1.41 1.41 1.42 1.42 0 0 1 -1.41-1.41z"/><path d="m332.57 78.51a1.41 1.41 0 1 1 1.43 1.42 1.41 1.41 0 0 1 -1.43-1.42z" opacity=".3"/><path d="m347.31 70.41a1.42 1.42 0 1 1 1.41 1.42 1.41 1.41 0 0 1 -1.41-1.42z"/><path d="m357.69 76.23a1.42 1.42 0 1 1 1.42 1.41 1.42 1.42 0 0 1 -1.42-1.41z"/><path d="m354.16 65.64a1.42 1.42 0 1 1 1.42 1.41 1.42 1.42 0 0 1 -1.42-1.41z"/><path d="m334.81 122.7a1.41 1.41 0 1 1 1.41 1.41 1.42 1.42 0 0 1 -1.41-1.41z" opacity=".3"/><circle cx="305.48" cy="208.43" r="1.41"/><circle cx="286.16" cy="200.64" r="1.41"/><circle cx="288.35" cy="196.75" r="1.41"/><circle cx="257.66" cy="279.6" opacity=".3" r="1.41"/><circle cx="250.5" cy="311.06" opacity=".3" r="1.41"/><circle cx="242.71" cy="311.37" opacity=".3" r="1.41"/><circle cx="262.18" cy="283.81" opacity=".3" r="1.41"/><circle cx="319.03" cy="303.12" opacity=".3" r="1.41"/><circle cx="336.31" cy="301.72" opacity=".3" r="1.41"/><circle cx="343.01" cy="292.22" r="1.41"/><circle cx="356.56" cy="275.71" r="1.41"/><circle cx="369.17" cy="293.31" r="1.41"/><circle cx="312.33" cy="299.07" r="1.41"/><circle cx="297.85" cy="317.91" r="1.41"/><circle cx="283.52" cy="307.48" r="1.41"/><circle cx="340.52" cy="374.13" r="1.41"/><circle cx="335.69" cy="354.36" r="1.41"/><circle cx="340.36" cy="333.02" r="1.41"/><circle cx="347.68" cy="326.95" r="1.41"/><circle cx="355.16" cy="329.13" r="1.41"/><circle cx="368.08" cy="307.01" r="1.41"/><circle cx="367.77" cy="334.27" r="1.41"/><circle cx="369.64" cy="312.62" r="1.41"/><circle cx="375.71" cy="314.95" r="1.41"/><circle cx="394.72" cy="346.88" r="1.41"/><circle cx="406.86" cy="357.32" r="1.41"/><circle cx="417.92" cy="345.48" r="1.41"/><circle cx="413.25" cy="339.25" r="1.41"/><circle cx="408.58" cy="338.47" opacity=".3" r="1.41"/><circle cx="401.88" cy="377.87" r="1.41"/><circle cx="421.19" cy="366.04" r="1.41"/><circle cx="433.65" cy="356.22" r="1.41"/><circle cx="391.29" cy="339.41" r="1.41"/><circle cx="381.48" cy="344.54" r="1.41"/><circle cx="373.27" cy="364.32" r="1.41"/><circle cx="365.12" cy="360.01" r="1.41"/><circle cx="356.45" cy="352.8" r="1.41"/><path d="m364.31 354.28a1.06 1.06 0 1 1 1.05 1.06 1.05 1.05 0 0 1 -1.05-1.06z"/><path d="m315.34 351a1.06 1.06 0 1 1 1.06 1 1.06 1.06 0 0 1 -1.06-1z" opacity=".3"/><path d="m285.75 348a1.06 1.06 0 1 1 1.06 1.06 1.06 1.06 0 0 1 -1.06-1.06z" opacity=".3"/><path d="m282.51 304.38a1.06 1.06 0 1 1 1.06 1.06 1.05 1.05 0 0 1 -1.06-1.06z"/><path d="m316.3 275.42a1.06 1.06 0 1 1 1.06 1.06 1.06 1.06 0 0 1 -1.06-1.06z"/><path d="m294.5 262.34a1.06 1.06 0 1 1 1.06 1.05 1.06 1.06 0 0 1 -1.06-1.05z"/><path d="m294.66 237.57a1.06 1.06 0 1 1 1.06 1.06 1.06 1.06 0 0 1 -1.06-1.06z" opacity=".3"/><path d="m330.17 277.6a1.06 1.06 0 1 1 1.06 1.06 1.05 1.05 0 0 1 -1.06-1.06z" opacity=".3"/><path d="m335 305.63a1.06 1.06 0 0 1 2.12 0 1.06 1.06 0 0 1 -2.12 0z" opacity=".3"/><path d="m326.43 300a1.06 1.06 0 1 1 1.06 1.06 1.06 1.06 0 0 1 -1.06-1.06z" opacity=".3"/><path d="m374.71 259.53a1.06 1.06 0 1 1 1.06 1.06 1.06 1.06 0 0 1 -1.06-1.06z" opacity=".3"/><path d="m359.6 252.37a1.06 1.06 0 1 1 1.06 1.06 1.05 1.05 0 0 1 -1.06-1.06z"/><path d="m375.17 228.7a1.06 1.06 0 1 1 1.06 1.06 1.06 1.06 0 0 1 -1.06-1.06z" opacity=".3"/><path d="m421.27 247.38a1.06 1.06 0 0 1 2.12 0 1.06 1.06 0 0 1 -2.12 0z" opacity=".3"/><circle cx="426.69" cy="257.56" opacity=".3" r="1.06"/><path d="m384.93 273.55a1.06 1.06 0 1 1 1.06 1.06 1.06 1.06 0 0 1 -1.06-1.06z" opacity=".3"/><path d="m404.87 294.42a1.06 1.06 0 0 1 2.12 0 1.06 1.06 0 0 1 -2.12 0z" opacity=".3"/><path d="m408.14 309.52a1.06 1.06 0 1 1 1.06 1.06 1.06 1.06 0 0 1 -1.06-1.06z" opacity=".3"/><path d="m400.51 312.79a1.06 1.06 0 1 1 1.06 1.06 1.05 1.05 0 0 1 -1.06-1.06z" opacity=".3"/><path d="m422.62 311.55a1.06 1.06 0 1 1 1.06 1.06 1.06 1.06 0 0 1 -1.06-1.06z" opacity=".3"/><path d="m423.4 308.75a1.06 1.06 0 1 1 1.06 1.06 1.06 1.06 0 0 1 -1.06-1.06z" opacity=".3"/><path d="m409.7 283.05a1.06 1.06 0 1 1 2.12 0 1.06 1.06 0 1 1 -2.12 0z" opacity=".3"/><circle cx="439.78" cy="261.71" opacity=".3" r="1.06"/><circle cx="442.58" cy="249.25" r="1.06"/><circle cx="439.15" cy="245.83" r="1.06"/><circle cx="444.97" cy="220.91" r="1.06"/><circle cx="430.64" cy="180.21" opacity=".3" r="1.06"/><circle cx="451.46" cy="256.42" r="1.06"/><circle cx="474.04" cy="257.97" opacity=".3" r="1.06"/><circle cx="477.62" cy="251.59" r="1.06"/><circle cx="501.14" cy="268.98" opacity=".3" r="1.06"/><path d="m497.79 266.7a1.06 1.06 0 1 1 1.06 1.06 1.06 1.06 0 0 1 -1.06-1.06z" opacity=".3"/><path d="m494.47 245.52a1.06 1.06 0 1 1 1.06 1.06 1.06 1.06 0 0 1 -1.06-1.06z" opacity=".3"/><circle cx="499.68" cy="228.9" opacity=".3" r="1.06"/><circle cx="440.19" cy="271.26" opacity=".3" r="1.06"/><circle cx="444.71" cy="285.9" opacity=".3" r="1.06"/><circle cx="447.82" cy="300.23" opacity=".3" r="1.06"/><circle cx="438.95" cy="314.71" opacity=".3" r="1.06"/><path d="m451.8 314.41a1.06 1.06 0 1 1 1.06 1.06 1.06 1.06 0 0 1 -1.06-1.06z" opacity=".3"/><path d="m455.85 325.16a1.06 1.06 0 0 1 2.12 0 1.06 1.06 0 0 1 -2.12 0z" opacity=".3"/><path d="m443.54 349.45a1.06 1.06 0 1 1 2.12 0 1.06 1.06 0 1 1 -2.12 0z" opacity=".3"/><path d="m448.37 347.43a1.06 1.06 0 1 1 1.06 1.06 1.06 1.06 0 0 1 -1.06-1.06z" opacity=".3"/><path d="m452.58 347.43a1.06 1.06 0 1 1 1.06 1.06 1.05 1.05 0 0 1 -1.06-1.06z" opacity=".3"/><path d="m454.13 343.54a1.06 1.06 0 1 1 1.06 1.06 1.06 1.06 0 0 1 -1.06-1.06z" opacity=".3"/><path d="m460.68 348.68a1.06 1.06 0 1 1 1.05 1.06 1.05 1.05 0 0 1 -1.05-1.06z" opacity=".3"/><path d="m461.61 343.69a1.06 1.06 0 1 1 1.06 1.06 1.06 1.06 0 0 1 -1.06-1.06z" opacity=".3"/><path d="m509.11 358.64a1.06 1.06 0 1 1 1.06 1.06 1.06 1.06 0 0 1 -1.06-1.06z" opacity=".3"/><path d="m477.18 386.21a1.06 1.06 0 1 1 1.06 1.06 1.06 1.06 0 0 1 -1.06-1.06z" opacity=".3"/><path d="m467.22 355.22a1.06 1.06 0 1 1 2.12 0 1.06 1.06 0 1 1 -2.12 0z" opacity=".3"/><path d="m468.46 370.17a1.06 1.06 0 1 1 1.06 1.06 1.06 1.06 0 0 1 -1.06-1.06z" opacity=".3"/><path d="m466 371.41a1.06 1.06 0 1 1 1.06 1.06 1.06 1.06 0 0 1 -1.06-1.06z" opacity=".3"/><path d="m475.31 403.18a1.06 1.06 0 1 1 2.12 0 1.06 1.06 0 1 1 -2.12 0z" opacity=".3"/><path d="m501.63 419.54a1.06 1.06 0 1 1 1.06 1.06 1.06 1.06 0 0 1 -1.06-1.06z"/><path d="m510.2 430.91a1.06 1.06 0 1 1 1.06 1.06 1.05 1.05 0 0 1 -1.06-1.06z"/><path d="m537.4 444.82a1.06 1.06 0 1 1 1.06 1.06 1.06 1.06 0 0 1 -1.06-1.06z"/><path d="m535.12 452.92a1.06 1.06 0 0 1 2.12 0 1.06 1.06 0 0 1 -2.12 0z"/><path d="m494.83 495.07a1.06 1.06 0 1 1 2.12 0 1.06 1.06 0 1 1 -2.12 0z"/><path d="m521.41 497.77a1.06 1.06 0 1 1 2.12 0 1.06 1.06 0 1 1 -2.12 0z"/><path d="m547.58 524.35a1.06 1.06 0 1 1 1.06 1.06 1.05 1.05 0 0 1 -1.06-1.06z"/><circle cx="539.09" cy="566.71" r="1.06" transform="matrix(.99982887 -.01849943 .01849943 .99982887 -10.4 10.08)"/><path d="m525.85 576.08a1.06 1.06 0 0 1 2.12 0 1.06 1.06 0 0 1 -2.12 0z"/><path d="m516.5 588.12a1.06 1.06 0 1 1 1.06 1.06 1.06 1.06 0 0 1 -1.06-1.06z"/><path d="m505.71 597.46a1.06 1.06 0 1 1 1.06 1.06 1.06 1.06 0 0 1 -1.06-1.06z"/><path d="m500.91 577.3a1.06 1.06 0 1 1 1.06 1.06 1.06 1.06 0 0 1 -1.06-1.06z" opacity=".3"/><path d="m461 604.71a1.06 1.06 0 1 1 1.06 1.06 1.06 1.06 0 0 1 -1.06-1.06z" opacity=".3"/><path d="m425.11 595.78a1.06 1.06 0 0 1 2.12 0 1.06 1.06 0 0 1 -2.12 0z" opacity=".3"/><path d="m424.28 592.87a1.06 1.06 0 1 1 2.12 0 1.06 1.06 0 1 1 -2.12 0z" opacity=".3"/><path d="m421.79 620.28a1.06 1.06 0 1 1 1.06 1.06 1.06 1.06 0 0 1 -1.06-1.06z"/><path d="m373 606.16a1.06 1.06 0 0 1 2.12 0 1.06 1.06 0 0 1 -2.12 0z" opacity=".3"/><path d="m479.1 630.25a1.06 1.06 0 0 1 2.12 0 1.06 1.06 0 1 1 -2.12 0z"/><path d="m478.07 634a1.06 1.06 0 1 1 1.06 1.06 1.05 1.05 0 0 1 -1.06-1.06z"/><path d="m448.79 660.15a1.06 1.06 0 1 1 1.06 1.06 1.06 1.06 0 0 1 -1.06-1.06z" opacity=".3"/><path d="m495.09 639.39a1.06 1.06 0 1 1 1.06 1.06 1.06 1.06 0 0 1 -1.06-1.06z"/><path d="m501.32 634.82a1.06 1.06 0 1 1 2.12 0 1.06 1.06 0 1 1 -2.12 0z"/><path d="m536.83 624.44a1.06 1.06 0 1 1 1.06 1.06 1.06 1.06 0 0 1 -1.06-1.06z"/><path d="m546.59 623a1.06 1.06 0 1 1 1.06 1.06 1.06 1.06 0 0 1 -1.06-1.06z"/><path d="m624.88 579.38a1.06 1.06 0 1 1 2.12 0 1.06 1.06 0 1 1 -2.12 0z"/><path d="m558 626.93a1.06 1.06 0 0 1 2.12 0 1.06 1.06 0 0 1 -2.12 0z"/><path d="m458 589.16a1.06 1.06 0 1 1 1.06 1.06 1.05 1.05 0 0 1 -1.06-1.06z" opacity=".3"/><path d="m480.14 544.7a1.06 1.06 0 1 1 1.06 1.06 1.06 1.06 0 0 1 -1.06-1.06z" opacity=".3"/><circle cx="470.82" cy="564.43" opacity=".3" r="1.06"/><path d="m538.31 431.55a1.06 1.06 0 1 1 1.06 1.06 1.05 1.05 0 0 1 -1.06-1.06z"/><path d="m456.63 394.62a1.06 1.06 0 0 1 2.12 0 1.06 1.06 0 0 1 -2.12 0z" opacity=".3"/><path d="m437 392.75a1.06 1.06 0 1 1 1.06 1.06 1.06 1.06 0 0 1 -1.06-1.06z" opacity=".3"/><path d="m436.38 420.32a1.06 1.06 0 0 1 2.12 0 1.06 1.06 0 0 1 -2.12 0z" opacity=".3"/><path d="m447.59 448.35a1.06 1.06 0 1 1 1.06 1.06 1.06 1.06 0 0 1 -1.06-1.06z" opacity=".3"/><path d="m451.33 447.1a1.06 1.06 0 0 1 2.12 0 1.06 1.06 0 0 1 -2.12 0z" opacity=".3"/><path d="m437 443.8a1.06 1.06 0 0 1 2.12 0 1.06 1.06 0 0 1 -2.12 0z"/><path d="m429.71 428.7a1.06 1.06 0 1 1 1.06 1.06 1.06 1.06 0 0 1 -1.06-1.06z"/><path d="m425.2 444.43a1.06 1.06 0 1 1 1.06 1.05 1.05 1.05 0 0 1 -1.06-1.05z" opacity=".3"/><path d="m429.37 456.14a1.06 1.06 0 1 1 1.06 1.06 1.06 1.06 0 0 1 -1.06-1.06z" opacity=".3"/><path d="m411.93 467.51a1.06 1.06 0 1 1 1.06 1.05 1.05 1.05 0 0 1 -1.06-1.05z" opacity=".3"/><path d="m382.41 445.1a1.06 1.06 0 1 1 1.06 1.06 1.06 1.06 0 0 1 -1.06-1.06z"/><path d="m370.5 498.5a1.06 1.06 0 1 1 1.06 1.06 1.06 1.06 0 0 1 -1.06-1.06z" opacity=".3"/><path d="m376.26 512.36a1.06 1.06 0 1 1 1.06 1.06 1.06 1.06 0 0 1 -1.06-1.06z" opacity=".3"/><path d="m376.26 518.59a1.06 1.06 0 1 1 1.06 1.06 1.06 1.06 0 0 1 -1.06-1.06z" opacity=".3"/><path d="m373.77 531.51a1.06 1.06 0 0 1 2.12 0 1.06 1.06 0 0 1 -2.12 0z" opacity=".3"/><path d="m370.5 532.29a1.06 1.06 0 0 1 2.12 0 1.06 1.06 0 0 1 -2.12 0z" opacity=".3"/><path d="m362.25 530.58a1.06 1.06 0 1 1 2.12 0 1.06 1.06 0 1 1 -2.12 0z" opacity=".3"/><path d="m360.07 518a1.06 1.06 0 1 1 1.06 1.06 1.06 1.06 0 0 1 -1.06-1.06z"/><path d="m340.44 512.51a1.06 1.06 0 0 1 2.12 0 1.06 1.06 0 0 1 -2.12 0z"/><path d="m342.62 492.58a1.06 1.06 0 1 1 1.06 1.06 1.06 1.06 0 0 1 -1.06-1.06z"/><path d="m377.2 543a1.06 1.06 0 0 1 2.12 0 1.06 1.06 0 0 1 -2.12 0z" opacity=".3"/><path d="m395.26 555.65a1.06 1.06 0 0 1 2.12 0 1.06 1.06 0 0 1 -2.12 0z" opacity=".3"/><path d="m365.67 582.75a1.06 1.06 0 0 1 2.12 0 1.06 1.06 0 1 1 -2.12 0z" opacity=".3"/><circle cx="341.66" cy="612.85" r="1.06"/><circle cx="342.49" cy="627.18" r="1.06"/><circle cx="323.8" cy="606.62" opacity=".3" r="1.06"/><circle cx="345.61" cy="657.71" opacity=".3" r="1.06"/><circle cx="359.31" cy="667.47" opacity=".3" r="1.06"/><circle cx="319.44" cy="653.76" opacity=".3" r="1.06"/><circle cx="297.22" cy="626.76" r="1.06"/><circle cx="294.73" cy="621.37" r="1.06"/><circle cx="272.1" cy="624.48" opacity=".3" r="1.06"/><circle cx="273.34" cy="614.72" opacity=".3" r="1.06"/><circle cx="258.39" cy="598.94" opacity=".3" r="1.06"/><circle cx="262.34" cy="586.48" opacity=".3" r="1.06"/><circle cx="252.37" cy="582.95" opacity=".3" r="1.06"/><circle cx="262.13" cy="643.58" opacity=".3" r="1.06"/><path d="m279.55 656.46a1.06 1.06 0 1 1 1.06 1.06 1.06 1.06 0 0 1 -1.06-1.06z" opacity=".3"/><path d="m235.32 652.72a1.06 1.06 0 1 1 2.12 0 1.06 1.06 0 1 1 -2.12 0z" opacity=".3"/><path d="m214.35 636.73a1.06 1.06 0 1 1 1.06 1.06 1.06 1.06 0 0 1 -1.06-1.06z" opacity=".3"/><path d="m217.25 625.52a1.06 1.06 0 1 1 1.06 1.06 1.06 1.06 0 0 1 -1.06-1.06z" opacity=".3"/><path d="m212.06 623.23a1.06 1.06 0 1 1 2.12 0 1.06 1.06 0 1 1 -2.12 0z" opacity=".3"/><path d="m159.94 601.43a1.06 1.06 0 0 1 2.12 0 1.06 1.06 0 0 1 -2.12 0z" opacity=".3"/><path d="m155.17 576.68a1.06 1.06 0 1 1 1.06 1.06 1.05 1.05 0 0 1 -1.06-1.06z" opacity=".3"/><path d="m147.48 560.07a1.06 1.06 0 1 1 1.06 1.06 1.06 1.06 0 0 1 -1.06-1.06z" opacity=".3"/><circle cx="281.23" cy="608.28" opacity=".3" r="1.06"/><path d="m321.29 614.51a1.06 1.06 0 1 1 1.06 1.06 1.06 1.06 0 0 1 -1.06-1.06z" opacity=".3"/><path d="m323.57 616a1.06 1.06 0 1 1 1.06 1.06 1.06 1.06 0 0 1 -1.06-1.06z" opacity=".3"/><path d="m360.85 555.19a1.06 1.06 0 1 1 2.12 0 1.06 1.06 0 1 1 -2.12 0z" opacity=".3"/><path d="m341.38 557.06a1.06 1.06 0 1 1 1.06 1.05 1.05 1.05 0 0 1 -1.06-1.05z" opacity=".3"/><circle cx="411.59" cy="564.53" opacity=".3" r="1.06"/><path d="m411 582.46a1.06 1.06 0 1 1 2.12 0 1.06 1.06 0 1 1 -2.12 0z" opacity=".3"/><path d="m404.45 583.53a1.06 1.06 0 0 1 2.12 0 1.06 1.06 0 0 1 -2.12 0z" opacity=".3"/><path d="m399.78 576.83a1.06 1.06 0 1 1 2.12 0 1.06 1.06 0 1 1 -2.12 0z" opacity=".3"/><path d="m397.32 572.35a1.06 1.06 0 1 1 2.12 0 1.06 1.06 0 1 1 -2.12 0z"/><path d="m415.51 555.5a1.06 1.06 0 1 1 1.06 1.06 1.06 1.06 0 0 1 -1.06-1.06z" opacity=".3"/><path d="m427.81 555.19a1.06 1.06 0 1 1 1.06 1.06 1.06 1.06 0 0 1 -1.06-1.06z" opacity=".3"/><path d="m428.28 537a1.06 1.06 0 1 1 1.06 1.06 1.06 1.06 0 0 1 -1.06-1.06z" opacity=".3"/><path d="m424.23 534.78a1.06 1.06 0 0 1 2.12 0 1.06 1.06 0 0 1 -2.12 0z" opacity=".3"/><path d="m421.9 527.78a1.06 1.06 0 0 1 2.12 0 1.06 1.06 0 0 1 -2.12 0z" opacity=".3"/><path d="m415.2 524.82a1.06 1.06 0 1 1 2.12 0 1.06 1.06 0 1 1 -2.12 0z" opacity=".3"/><path d="m401.18 550.36a1.06 1.06 0 1 1 1.06 1.06 1.06 1.06 0 0 1 -1.06-1.06z" opacity=".3"/><path d="m397.29 541.33a1.06 1.06 0 1 1 2.12 0 1.06 1.06 0 1 1 -2.12 0z" opacity=".3"/><path d="m395 543a1.06 1.06 0 1 1 1 1.1 1.06 1.06 0 0 1 -1-1.1z"/><path d="m404.76 556.9a1.06 1.06 0 1 1 1.06 1.06 1.06 1.06 0 0 1 -1.06-1.06z"/><path d="m350.26 541a1.06 1.06 0 1 1 1.06 1.06 1.06 1.06 0 0 1 -1.06-1.06z" opacity=".3"/><path d="m316.3 532.14a1.06 1.06 0 1 1 1.06 1.06 1.06 1.06 0 0 1 -1.06-1.06z" opacity=".3"/><path d="m285.78 536a1.06 1.06 0 1 1 1.06 1.06 1.06 1.06 0 0 1 -1.06-1.06z" opacity=".3"/><circle cx="276.25" cy="545.79" opacity=".3" r="1.06"/><path d="m243.42 536.45a1.06 1.06 0 1 1 2.12 0 1.06 1.06 0 1 1 -2.12 0z" opacity=".3"/><path d="m230.13 548.07a1.06 1.06 0 1 1 1.06 1.06 1.06 1.06 0 0 1 -1.06-1.06z" opacity=".3"/><path d="m382.81 518.43a1.06 1.06 0 1 1 1.06 1.06 1.06 1.06 0 0 1 -1.06-1.06z" opacity=".3"/><path d="m382.49 502.39a1.06 1.06 0 0 1 2.12 0 1.06 1.06 0 0 1 -2.12 0z" opacity=".3"/><path d="m383 497.72a1.06 1.06 0 1 1 1.06 1.06 1.06 1.06 0 0 1 -1.06-1.06z" opacity=".3"/><path d="m364.43 491.18a1.06 1.06 0 1 1 2.12 0 1.06 1.06 0 1 1 -2.12 0z" opacity=".3"/><path d="m410.53 447.88a1.06 1.06 0 1 1 1.06 1.06 1.06 1.06 0 0 1 -1.06-1.06z" opacity=".3"/><path d="m413.8 445.55a1.06 1.06 0 1 1 2.12 0 1.06 1.06 0 1 1 -2.12 0z" opacity=".3"/><path d="m455.22 471.09a1.06 1.06 0 1 1 1.06 1.06 1.06 1.06 0 0 1 -1.06-1.06z" opacity=".3"/><path d="m448.68 490.4a1.06 1.06 0 1 1 1.06 1.06 1.06 1.06 0 0 1 -1.06-1.06z" opacity=".3"/><path d="m444 497.25a1.06 1.06 0 0 1 2.12 0 1.06 1.06 0 0 1 -2.12 0z" opacity=".3"/><path d="m433.26 503.17a1.06 1.06 0 1 1 1.06 1.06 1.06 1.06 0 0 1 -1.06-1.06z" opacity=".3"/><path d="m411.93 511.11a1.06 1.06 0 1 1 1.06 1.06 1.06 1.06 0 0 1 -1.06-1.06z" opacity=".3"/><path d="m396 520.92a1.06 1.06 0 0 1 2.12 0 1.06 1.06 0 0 1 -2.12 0z" opacity=".3"/><path d="m431.55 501.14a1.06 1.06 0 1 1 1.06 1.06 1.06 1.06 0 0 1 -1.06-1.06z" opacity=".3"/><path d="m472.82 502.23a1.06 1.06 0 1 1 1.06 1.06 1.06 1.06 0 0 1 -1.06-1.06z" opacity=".3"/><path d="m435.76 511.42a1.06 1.06 0 1 1 1.06 1.06 1.06 1.06 0 0 1 -1.06-1.06z" opacity=".3"/><path d="m434.23 520.46a1.06 1.06 0 1 1 2.12 0 1.06 1.06 0 1 1 -2.12 0z" opacity=".3"/><path d="m437.31 530.27a1.06 1.06 0 1 1 1.06 1.06 1.06 1.06 0 0 1 -1.06-1.06z" opacity=".3"/><path d="m429.84 520.46a1.06 1.06 0 1 1 2.12 0 1.06 1.06 0 1 1 -2.12 0z" opacity=".3"/><path d="m482 507.06a1.06 1.06 0 0 1 2.12 0 1.06 1.06 0 0 1 -2.12 0z"/><path d="m452.27 487.44a1.06 1.06 0 1 1 1.05 1.06 1.05 1.05 0 0 1 -1.05-1.06z" opacity=".3"/><path d="m451.49 489.46a1.06 1.06 0 1 1 1.06 1.06 1.06 1.06 0 0 1 -1.06-1.06z" opacity=".3"/><path d="m450.41 485.56a1.06 1.06 0 1 1 1.06 1.06 1.06 1.06 0 0 1 -1.06-1.06z" opacity=".3"/><path d="m466.75 458.94a1.06 1.06 0 0 1 2.12 0 1.06 1.06 0 0 1 -2.12 0z" opacity=".3"/><path d="m471.27 459.25a1.06 1.06 0 1 1 1.06 1.06 1.06 1.06 0 0 1 -1.06-1.06z" opacity=".3"/><path d="m456.78 452.09a1.06 1.06 0 1 1 1.06 1.06 1.06 1.06 0 0 1 -1.06-1.06z" opacity=".3"/><path d="m443.39 452.24a1.06 1.06 0 1 1 1.06 1.06 1.06 1.06 0 0 1 -1.06-1.06z" opacity=".3"/><path d="m453.67 363.16a1.06 1.06 0 1 1 2.12 0 1.06 1.06 0 1 1 -2.12 0z" opacity=".3"/><path d="m456.47 403.18a1.06 1.06 0 1 1 1.06 1.06 1.06 1.06 0 0 1 -1.06-1.06z" opacity=".3"/><path d="m507.86 356.15a1.06 1.06 0 0 1 2.12 0 1.06 1.06 0 0 1 -2.12 0z" opacity=".3"/><path d="m533.25 357.4a1.06 1.06 0 0 1 2.12 0 1.06 1.06 0 0 1 -2.12 0z" opacity=".3"/><path d="m538.23 340.27a1.06 1.06 0 1 1 1.06 1.06 1.06 1.06 0 0 1 -1.06-1.06z" opacity=".3"/><path d="m548 354a1.06 1.06 0 0 1 2.12 0 1.06 1.06 0 1 1 -2.12 0z"/><circle cx="557.57" cy="366.85" r="1.06"/><path d="m560.66 363.94a1.06 1.06 0 1 1 2.12 0 1.06 1.06 0 1 1 -2.12 0z"/><path d="m561.08 351.06a1.06 1.06 0 1 1 1.06 1.06 1.06 1.06 0 0 1 -1.06-1.06z"/><path d="m550.07 347.53a1.06 1.06 0 1 1 1.06 1.06 1.06 1.06 0 0 1 -1.06-1.06z"/><path d="m551.32 334.45a1.06 1.06 0 1 1 1.06 1.06 1.06 1.06 0 0 1 -1.06-1.06z" opacity=".3"/><path d="m528 328a1.06 1.06 0 0 1 2.12 0 1.06 1.06 0 0 1 -2.12 0z"/><path d="m465 335a1.06 1.06 0 1 1 1.1 1 1.06 1.06 0 0 1 -1.1-1z" opacity=".3"/><path d="m469.4 334.19a1.06 1.06 0 1 1 1.06 1.06 1.06 1.06 0 0 1 -1.06-1.06z" opacity=".3"/><path d="m466.28 309a1.06 1.06 0 0 1 2.12 0 1.06 1.06 0 0 1 -2.12 0z" opacity=".3"/><path d="m498.83 296.35a1.06 1.06 0 1 1 1.06 1.06 1.06 1.06 0 0 1 -1.06-1.06z" opacity=".3"/><circle cx="446.84" cy="276.04" opacity=".3" r="1.06"/><path d="m312.88 237a1.06 1.06 0 0 1 2.12 0 1.06 1.06 0 0 1 -2.12 0z" opacity=".3"/><path d="m327.05 272.61a1.06 1.06 0 0 1 2.12 0 1.06 1.06 0 0 1 -2.12 0z" opacity=".3"/><path d="m264.6 282.74a1.06 1.06 0 0 1 2.12 0 1.06 1.06 0 0 1 -2.12 0z" opacity=".3"/><path d="m210.4 271.84a1.06 1.06 0 1 1 1.06 1.06 1.06 1.06 0 0 1 -1.06-1.06z" opacity=".3"/><path d="m189.69 252.84a1.06 1.06 0 1 1 1.06 1 1.05 1.05 0 0 1 -1.06-1z" opacity=".3"/><path d="m230.65 240.84a1.06 1.06 0 1 1 1.06 1.06 1.06 1.06 0 0 1 -1.06-1.06z" opacity=".3"/><path d="m210.87 198.64a1.06 1.06 0 0 1 2.12 0 1.06 1.06 0 0 1 -2.12 0z" opacity=".3"/><path d="m175.44 198.64a1.06 1.06 0 0 1 2.12 0 1.06 1.06 0 0 1 -2.12 0z" opacity=".3"/><path d="m193.25 170.49a1.06 1.06 0 0 1 2.12 0 1.06 1.06 0 0 1 -2.12 0z" opacity=".3"/><circle cx="205.94" cy="141.62" opacity=".3" r="1.06"/><path d="m182.66 148.89a1.06 1.06 0 0 1 2.12 0 1.06 1.06 0 0 1 -2.12 0z" opacity=".3"/><path d="m181 141.83a1.06 1.06 0 1 1 2.12 0 1.06 1.06 0 1 1 -2.12 0z" opacity=".3"/><path d="m229.17 116.08a1.06 1.06 0 0 1 2.12 0 1.06 1.06 0 1 1 -2.12 0z" opacity=".3"/><path d="m250.9 138.69a1.06 1.06 0 1 1 1.06 1.06 1.06 1.06 0 0 1 -1.06-1.06z" opacity=".3"/><path d="m262.19 108.05a1.06 1.06 0 1 1 2.12 0 1.06 1.06 0 1 1 -2.12 0z" opacity=".3"/><path d="m266.79 103.84a1.06 1.06 0 1 1 1.06 1.06 1.06 1.06 0 0 1 -1.06-1.06z" opacity=".3"/><circle cx="263.83" cy="162.06" opacity=".3" r="1.06"/><path d="m284.22 160.91a1.06 1.06 0 1 1 2.12 0 1.06 1.06 0 1 1 -2.12 0z" opacity=".3"/><path d="m308 170.1a1.06 1.06 0 1 1 1.06 1.06 1.06 1.06 0 0 1 -1.06-1.06z" opacity=".3"/><path d="m321.56 131.61a1.06 1.06 0 1 1 1.06 1.06 1.06 1.06 0 0 1 -1.06-1.06z" opacity=".3"/><path d="m330.76 132.76a1.06 1.06 0 0 1 2.12 0 1.06 1.06 0 0 1 -2.12 0z" opacity=".3"/><circle cx="395.78" cy="110.73" opacity=".3" r="1.06"/><path d="m418.91 60.27a1.06 1.06 0 0 1 2.12 0 1.06 1.06 0 0 1 -2.12 0z" opacity=".3"/><path d="m465.42 75.84a1.06 1.06 0 1 1 2.12 0 1.06 1.06 0 1 1 -2.12 0z" opacity=".3"/><path d="m487.58 70.84a1.06 1.06 0 0 1 2.12 0 1.06 1.06 0 1 1 -2.12 0z" opacity=".3"/><circle cx="457.66" cy="155.79" opacity=".3" r="1.06"/><circle cx="513.18" cy="144.18" opacity=".3" r="1.06"/><path d="m505.48 142.52a1.06 1.06 0 1 1 1.06 1.06 1.05 1.05 0 0 1 -1.06-1.06z" opacity=".3"/><path d="m548.25 179.9a1.06 1.06 0 1 1 1.06 1.06 1.06 1.06 0 0 1 -1.06-1.06z"/><path d="m577.12 175.74a1.06 1.06 0 1 1 1.06 1.06 1.06 1.06 0 0 1 -1.06-1.06z" opacity=".3"/><path d="m565.49 198.17a1.06 1.06 0 1 1 1.06 1.06 1.06 1.06 0 0 1 -1.06-1.06z"/><path d="m573 234.3a1.06 1.06 0 0 1 2.12 0 1.06 1.06 0 0 1 -2.12 0z"/><path d="m628 255.07a1.06 1.06 0 1 1 1.06 1.06 1.06 1.06 0 0 1 -1.06-1.06z" opacity=".3"/><path d="m649 298.26a1.06 1.06 0 1 1 1.06 1.06 1.06 1.06 0 0 1 -1.06-1.06z" opacity=".3"/><path d="m656.23 326.25a1.06 1.06 0 1 1 1.06 1.06 1.06 1.06 0 0 1 -1.06-1.06z" opacity=".3"/><path d="m645.23 363.83a1.06 1.06 0 1 1 1.06 1.06 1.06 1.06 0 0 1 -1.06-1.06z" opacity=".3"/><path d="m676.17 341a1.06 1.06 0 1 1 1.06 1.06 1.06 1.06 0 0 1 -1.06-1.06z" opacity=".3"/><path d="m650 293.69a1.06 1.06 0 0 1 2.12 0 1.06 1.06 0 0 1 -2.12 0z" opacity=".3"/><path d="m628.82 242a1.06 1.06 0 1 1 1.06 1.06 1.06 1.06 0 0 1 -1.06-1.06z" opacity=".3"/><path d="m613.66 216.45a1.06 1.06 0 1 1 1.06 1.05 1.06 1.06 0 0 1 -1.06-1.05z" opacity=".3"/><path d="m646.89 228.9a1.06 1.06 0 1 1 1.11 1.1 1.06 1.06 0 0 1 -1.11-1.1z" opacity=".3"/><circle cx="577.14" cy="269.39" opacity=".3" r="1.06"/><circle cx="566.55" cy="286.42" opacity=".3" r="1.06"/><circle cx="547.44" cy="303.45" r="1.06"/><circle cx="578.8" cy="337.09" opacity=".3" r="1.06"/><path d="m620.1 340.62a1.06 1.06 0 1 1 1.06 1.06 1.06 1.06 0 0 1 -1.06-1.06z" opacity=".3"/><circle cx="604.76" cy="360.14" opacity=".3" r="1.06"/><circle cx="581.91" cy="382.36" opacity=".3" r="1.06"/><circle cx="618.67" cy="392.32" opacity=".3" r="1.06"/><circle cx="641.1" cy="445.07" opacity=".3" r="1.06"/><circle cx="614.1" cy="381.11" opacity=".3" r="1.06"/><path d="m582.1 379.45a1.06 1.06 0 0 1 2.12 0 1.06 1.06 0 0 1 -2.12 0z" opacity=".3"/><circle cx="588.14" cy="339.58" opacity=".3" r="1.06"/><circle cx="587.11" cy="337.09" opacity=".3" r="1.06"/><circle cx="547.65" cy="282.27" opacity=".3" r="1.06"/><path d="m538.29 227.87a1.06 1.06 0 1 1 2.12 0 1.06 1.06 0 1 1 -2.12 0z" opacity=".3"/><path d="m521.67 119.47a1.06 1.06 0 1 1 2.12 0 1.06 1.06 0 1 1 -2.12 0z" opacity=".3"/><path d="m526.86 95.59a1.06 1.06 0 0 1 2.12 0 1.06 1.06 0 0 1 -2.12 0z" opacity=".3"/><path d="m383 105.76a1.06 1.06 0 1 1 1.06 1.06 1.06 1.06 0 0 1 -1.06-1.06z" opacity=".3"/><circle cx="334.11" cy="104.6" opacity=".3" r="1.06"/><circle cx="291.98" cy="183.89" r="1.06"/><circle cx="274.36" cy="154.78" opacity=".3" r="1.06"/><path d="m279.81 147.69a1.06 1.06 0 1 1 2.12 0 1.06 1.06 0 1 1 -2.12 0z" opacity=".3"/><path d="m271.39 146.74a1.06 1.06 0 0 1 2.12 0 1.06 1.06 0 0 1 -2.12 0z" opacity=".3"/><circle cx="233" cy="145.01" opacity=".3" r="1.06"/><path d="m250.12 179a1.06 1.06 0 1 1 1.06 1.06 1.06 1.06 0 0 1 -1.06-1.06z" opacity=".3"/><path d="m257.59 183.06a1.06 1.06 0 1 1 2.12 0 1.06 1.06 0 1 1 -2.12 0z" opacity=".3"/><path d="m247 248.47a1.06 1.06 0 1 1 1.06 1.06 1.06 1.06 0 0 1 -1.06-1.06z" opacity=".3"/><path d="m245.6 314a1.06 1.06 0 1 1 1.06 1.06 1.06 1.06 0 0 1 -1.06-1.06z" opacity=".3"/><path d="m255.85 366.4a1.06 1.06 0 0 1 2.12 0 1.06 1.06 0 1 1 -2.12 0z" opacity=".3"/><path d="m254 366.4a1.06 1.06 0 0 1 2.12 0 1.06 1.06 0 1 1 -2.12 0z" opacity=".3"/><path d="m252.08 365.39a1.06 1.06 0 1 1 1.06 1.06 1.06 1.06 0 0 1 -1.06-1.06z" opacity=".3"/><circle cx="251.46" cy="368.39" opacity=".3" r="1.06"/><path d="m239.78 338.15a1.06 1.06 0 1 1 1.06 1.06 1.06 1.06 0 0 1 -1.06-1.06z" opacity=".3"/><path d="m249.67 366.37a1.06 1.06 0 0 1 2.12 0 1.06 1.06 0 0 1 -2.12 0z" opacity=".3"/><path d="m250.26 364.19a1.06 1.06 0 0 1 2.12 0 1.06 1.06 0 0 1 -2.12 0z" opacity=".3"/><path d="m384.24 381.69a1.06 1.06 0 0 1 2.12 0 1.06 1.06 0 0 1 -2.12 0z" opacity=".3"/><path d="m369.94 384.91a1.06 1.06 0 1 1 1.06 1.09 1.06 1.06 0 0 1 -1.06-1.09z" opacity=".3"/><path d="m402.77 418.29a1.06 1.06 0 1 1 1.06 1.06 1.06 1.06 0 0 1 -1.06-1.06z" opacity=".3"/><path d="m413.21 424.83a1.06 1.06 0 1 1 2.12 0 1.06 1.06 0 1 1 -2.12 0z" opacity=".3"/><path d="m411.49 405.05a1.06 1.06 0 1 1 1.06 1.06 1.06 1.06 0 0 1 -1.06-1.06z" opacity=".3"/><path d="m405.73 395.86a1.06 1.06 0 0 1 2.12 0 1.06 1.06 0 0 1 -2.12 0z" opacity=".3"/><path d="m396.85 446.16a1.06 1.06 0 0 1 2.12 0 1.06 1.06 0 0 1 -2.12 0z" opacity=".3"/><path d="m372.87 438.84a1.06 1.06 0 0 1 2.12 0 1.06 1.06 0 0 1 -2.12 0z"/><path d="m362.9 438.53a1.06 1.06 0 0 1 2.12 0 1.06 1.06 0 0 1 -2.12 0z"/><path d="m349 453.33a1.06 1.06 0 1 1 1.06 1.06 1.06 1.06 0 0 1 -1.06-1.06z"/><path d="m324.75 454.26a1.06 1.06 0 1 1 1.06 1.06 1.06 1.06 0 0 1 -1.06-1.06z"/><path d="m374.43 418.91a1.06 1.06 0 1 1 1.06 1.06 1.05 1.05 0 0 1 -1.06-1.06z" opacity=".3"/><path d="m371 403.34a1.06 1.06 0 1 1 1.06 1.06 1.06 1.06 0 0 1 -1.06-1.06z" opacity=".3"/><path d="m347 402.56a1.06 1.06 0 0 1 2.12 0 1.06 1.06 0 0 1 -2.12 0z" opacity=".3"/><path d="m319 416.73a1.06 1.06 0 1 1 1.05 1.06 1.05 1.05 0 0 1 -1.05-1.06z"/><path d="m323.19 430.59a1.06 1.06 0 1 1 1.06 1.06 1.06 1.06 0 0 1 -1.06-1.06z"/><path d="m304.66 449.59a1.06 1.06 0 1 1 1.06 1.06 1.06 1.06 0 0 1 -1.06-1.06z"/><path d="m293.6 442.74a1.06 1.06 0 0 1 2.12 0 1.06 1.06 0 0 1 -2.12 0z" opacity=".3"/><path d="m271.17 461.43a1.06 1.06 0 1 1 1.06 1.06 1.06 1.06 0 0 1 -1.06-1.06z" opacity=".3"/><path d="m256.07 471.08a1.06 1.06 0 1 1 1.06 1.06 1.06 1.06 0 0 1 -1.06-1.06z" opacity=".3"/><path d="m241.43 416a1.06 1.06 0 1 1 1.06 1.06 1.06 1.06 0 0 1 -1.06-1.06z" opacity=".3"/><path d="m237.22 388.7a1.06 1.06 0 1 1 1.06 1.06 1.06 1.06 0 0 1 -1.06-1.06z" opacity=".3"/><path d="m212.3 421.56a1.06 1.06 0 1 1 1.06 1.06 1.06 1.06 0 0 1 -1.06-1.06z" opacity=".3"/><path d="m183.18 418.91a1.06 1.06 0 1 1 1.06 1.06 1.05 1.05 0 0 1 -1.06-1.06z" opacity=".3"/><path d="m187.54 401a1.06 1.06 0 1 1 1.06 1.06 1.06 1.06 0 0 1 -1.06-1.06z" opacity=".3"/><path d="m311.35 446.32a1.06 1.06 0 1 1 1.06 1.06 1.06 1.06 0 0 1 -1.06-1.06z"/><path d="m340.32 414.08a1.06 1.06 0 1 1 2.12 0 1.06 1.06 0 1 1 -2.12 0z" opacity=".3"/><path d="m374.43 345.56a1.06 1.06 0 1 1 2.12 0 1.06 1.06 0 1 1 -2.12 0z" opacity=".3"/><path d="m386.89 349.92a1.06 1.06 0 0 1 2.12 0 1.06 1.06 0 0 1 -2.12 0z" opacity=".3"/><path d="m397.79 343.69a1.06 1.06 0 1 1 2.12 0 1.06 1.06 0 1 1 -2.12 0z" opacity=".3"/><path d="m404.33 373.43a1.06 1.06 0 1 1 1.06 1.06 1.06 1.06 0 0 1 -1.06-1.06z" opacity=".3"/><path d="m419.28 356.3a1.06 1.06 0 0 1 2.12 0 1.06 1.06 0 0 1 -2.12 0z" opacity=".3"/><path d="m422.86 348.52a1.06 1.06 0 1 1 1.06 1.06 1.06 1.06 0 0 1 -1.06-1.06z" opacity=".3"/><path d="m417.88 332.32a1.06 1.06 0 0 1 2.12 0 1.06 1.06 0 0 1 -2.12 0z" opacity=".3"/><path d="m412.43 325.62a1.06 1.06 0 1 1 1.06 1.06 1.06 1.06 0 0 1 -1.06-1.06z" opacity=".3"/><path d="m433.92 351.16a1.06 1.06 0 1 1 2.12 0 1.06 1.06 0 1 1 -2.12 0z"/><path d="m353.39 358.46a1.77 1.77 0 1 1 1.77 1.76 1.77 1.77 0 0 1 -1.77-1.76z"/><path d="m426.33 345.37a1.77 1.77 0 1 1 1.77 1.77 1.76 1.76 0 0 1 -1.77-1.77z"/><path d="m374.78 304.88a1.77 1.77 0 1 1 1.77 1.77 1.76 1.76 0 0 1 -1.77-1.77z"/><circle cx="381.01" cy="347.81" r="1.41"/><circle cx="432.72" cy="351.4" r="1.41"/><circle cx="351.78" cy="311.89" opacity=".3" r="1.32"/><circle cx="350.85" cy="250.06" r="1.32"/><circle cx="346.28" cy="226.81" r="1.32"/><circle cx="369.54" cy="254.42" r="1.32"/><circle cx="377.48" cy="240.56" opacity=".3" r="1.32"/><circle cx="316.43" cy="248.82" r="1.32"/><circle cx="292.13" cy="252.87" r="1.32"/><circle cx="279.05" cy="247.88" r="1.32"/><circle cx="360.5" cy="276.85" r="1.32"/><circle cx="299.61" cy="448.01" r="1.41"/><circle cx="295.41" cy="450.5" r="1.41"/><circle cx="280.45" cy="460.47" opacity=".3" r="1.41"/><circle cx="268.93" cy="454.08" r="1.41"/><circle cx="248.22" cy="447.85" r="1.41"/><circle cx="242.92" cy="474.33" opacity=".3" r="1.41"/><circle cx="225.32" cy="442.56" opacity=".3" r="1.41"/><circle cx="218" cy="406.89" opacity=".3" r="1.41"/><circle cx="207.57" cy="410.47" opacity=".3" r="1.41"/><circle cx="206.63" cy="392.1" r="1.41"/><circle cx="206.01" cy="380.73" r="1.41"/><circle cx="195.58" cy="389.45" r="1.41"/><circle cx="186.85" cy="362.51" r="1.41"/><path d="m146.8 349.1a1.42 1.42 0 1 1 1.42 1.41 1.42 1.42 0 0 1 -1.42-1.41z" opacity=".3"/><path d="m125.93 371.32a1.41 1.41 0 1 1 1.41 1.41 1.41 1.41 0 0 1 -1.41-1.41z"/><circle cx="202.43" cy="337.9" r="1.41"/><circle cx="201.65" cy="304.73" r="1.41"/><circle cx="138.65" cy="296.41" r="1.41"/><circle cx="97.32" cy="279.8" opacity=".3" r="1.41"/><path d="m91.34 264a1.42 1.42 0 1 1 1.41 1.41 1.42 1.42 0 0 1 -1.41-1.41z" opacity=".3"/><path d="m93.83 237.64a1.42 1.42 0 1 1 1.42 1.42 1.41 1.41 0 0 1 -1.42-1.42z" opacity=".3"/><circle cx="92.34" cy="235.98" opacity=".3" r="1.41"/><path d="m98.4 226.43a1.42 1.42 0 1 1 1.41 1.41 1.41 1.41 0 0 1 -1.41-1.41z" opacity=".3"/><path d="m106.5 217.92a1.41 1.41 0 1 1 1.41 1.41 1.42 1.42 0 0 1 -1.41-1.41z" opacity=".3"/><circle cx="143.63" cy="185.11" opacity=".3" r="1.41"/><circle cx="154.22" cy="189.05" opacity=".3" r="1.41"/><path d="m143.05 155.41a1.41 1.41 0 1 1 1.41 1.42 1.41 1.41 0 0 1 -1.41-1.42z" opacity=".3"/><path d="m182.71 151.68a1.41 1.41 0 1 1 1.41 1.41 1.42 1.42 0 0 1 -1.41-1.41z" opacity=".3"/><path d="m172.53 140.05a1.42 1.42 0 1 1 1.42 1.41 1.42 1.42 0 0 1 -1.42-1.41z" opacity=".3"/><path d="m165.18 129.12a1.41 1.41 0 1 1 1.41 1.41 1.42 1.42 0 0 1 -1.41-1.41z" opacity=".3"/><path d="m218 135.89a1.41 1.41 0 1 1 1.41 1.42 1.41 1.41 0 0 1 -1.41-1.42z" opacity=".3"/><path d="m147 157.49a1.42 1.42 0 1 1 1.41 1.41 1.41 1.41 0 0 1 -1.41-1.41z" opacity=".3"/><circle cx="91.63" cy="221.28" opacity=".3" r="1.41"/><circle cx="150.14" cy="243.36" r="1.41"/><circle cx="216.91" cy="288.37" r="1.41"/><circle cx="238.4" cy="258.16" r="1.41"/><circle cx="221.58" cy="247.26" r="1.41"/><circle cx="235.45" cy="217.82" opacity=".3" r="1.41"/><circle cx="239.34" cy="195.09" opacity=".3" r="1.41"/><path d="m255.93 161.38a1.41 1.41 0 1 1 1.41 1.41 1.41 1.41 0 0 1 -1.41-1.41z" opacity=".3"/><path d="m246.16 160a1.42 1.42 0 1 1 1.41 1.41 1.41 1.41 0 0 1 -1.41-1.41z"/><path d="m239.07 152a1.42 1.42 0 1 1 2.83 0 1.42 1.42 0 0 1 -2.83 0z"/><circle cx="236.66" cy="156.78" opacity=".3" r="1.41"/><path d="m192.35 192.79a1.41 1.41 0 1 1 1.41 1.41 1.41 1.41 0 0 1 -1.41-1.41z" opacity=".3"/><circle cx="214.63" cy="155.44" opacity=".3" r="1.41"/><path d="m214.56 161a1.42 1.42 0 1 1 1.41 1.41 1.42 1.42 0 0 1 -1.41-1.41z" opacity=".3"/><circle cx="206.32" cy="266.73" r="1.41"/><circle cx="195.11" cy="262.68" opacity=".3" r="1.41"/><circle cx="221.74" cy="337.59" r="1.41"/><circle cx="210.99" cy="378.08" opacity=".3" r="1.41"/><circle cx="271.11" cy="447.54" r="1.41"/><circle cx="283.88" cy="431.65" opacity=".3" r="1.41"/><circle cx="282.79" cy="421.38" opacity=".3" r="1.41"/><circle cx="273.91" cy="412.34" opacity=".3" r="1.41"/><circle cx="253.36" cy="417.33" opacity=".3" r="1.41"/><circle cx="289.8" cy="484.14" opacity=".3" r="1.41"/><circle cx="284.35" cy="489.59" opacity=".3" r="1.41"/><circle cx="274.38" cy="488.66" opacity=".3" r="1.41"/><circle cx="269.55" cy="514.51" r="1.41"/><circle cx="265.66" cy="508.12" r="1.41"/><circle cx="243.54" cy="501.11" r="1.41"/><circle cx="223.45" cy="490.84" r="1.41"/><circle cx="183.79" cy="482.94" r="1.41"/><path d="m99.73 415.67a1.42 1.42 0 1 1 1.42 1.41 1.42 1.42 0 0 1 -1.42-1.41z"/><path d="m90.18 392.2a1.42 1.42 0 1 1 1.41 1.41 1.41 1.41 0 0 1 -1.41-1.41z"/><circle cx="165.1" cy="474.85" r="1.41"/><path d="m124.44 490.42a1.42 1.42 0 1 1 1.42 1.41 1.42 1.42 0 0 1 -1.42-1.41z" opacity=".3"/><path d="m97.45 520.94a1.42 1.42 0 1 1 1.41 1.42 1.41 1.41 0 0 1 -1.41-1.42z" opacity=".3"/><circle cx="157.84" cy="451.17" r="1.41"/><path d="m120.08 444.53a1.42 1.42 0 1 1 1.42 1.41 1.42 1.42 0 0 1 -1.42-1.41z"/><circle cx="260.36" cy="505.01" r="1.41"/><path d="m324.63 393.81a1.77 1.77 0 1 1 1.77 1.77 1.77 1.77 0 0 1 -1.77-1.77z"/><path d="m314 396.92a1.77 1.77 0 1 1 1.77 1.77 1.76 1.76 0 0 1 -1.77-1.77z"/><path d="m306.72 382.6a1.77 1.77 0 1 1 1.77 1.76 1.77 1.77 0 0 1 -1.77-1.76z"/><circle cx="315.18" cy="355.5" r="1.32"/><path d="m305.94 344.13a1.77 1.77 0 1 1 1.77 1.76 1.77 1.77 0 0 1 -1.77-1.76z"/><path d="m339.11 301.92a1.77 1.77 0 1 1 1.77 1.77 1.77 1.77 0 0 1 -1.77-1.77z"/><path d="m342.07 284.64a1.77 1.77 0 1 1 1.77 1.76 1.77 1.77 0 0 1 -1.77-1.76z"/><path d="m335.69 269.68a1.77 1.77 0 1 1 1.76 1.77 1.76 1.76 0 0 1 -1.76-1.77z"/><path d="m344.72 265.48a1.77 1.77 0 1 1 1.77 1.77 1.77 1.77 0 0 1 -1.77-1.77z"/><path d="m280.87 297.41a1.77 1.77 0 1 1 1.76 1.76 1.76 1.76 0 0 1 -1.76-1.76z"/><path d="m299.87 277.78a1.77 1.77 0 1 1 1.76 1.77 1.76 1.76 0 0 1 -1.76-1.77z"/><circle cx="264.41" cy="401.75" r="1.32"/><circle cx="298.83" cy="471.68" opacity=".3" r="1.32"/><circle cx="299.45" cy="503.14" opacity=".3" r="1.06"/><circle cx="287.31" cy="517" opacity=".3" r="1.06"/><path d="m264.72 518.71a1.06 1.06 0 1 1 2.12 0 1.06 1.06 0 1 1 -2.12 0z"/><path d="m261.45 516.38a1.06 1.06 0 1 1 1.06 1.06 1.06 1.06 0 0 1 -1.06-1.06z"/><circle cx="267.99" cy="493.95" opacity=".3" r="1.06"/><circle cx="259.12" cy="439.13" r="1.32"/><path d="m249.72 440.38a1.77 1.77 0 1 1 1.77 1.76 1.77 1.77 0 0 1 -1.77-1.76z"/><path d="m241.47 409.54a1.77 1.77 0 1 1 1.76 1.77 1.76 1.76 0 0 1 -1.76-1.77z"/><path d="m223.24 388.83a1.77 1.77 0 1 1 1.77 1.76 1.77 1.77 0 0 1 -1.77-1.76z"/><path d="m229.32 411.25a1.77 1.77 0 1 1 1.76 1.77 1.76 1.76 0 0 1 -1.76-1.77z"/><circle cx="271.58" cy="282.92" opacity=".3" r="1.32"/><circle cx="240.12" cy="281.99" opacity=".3" r="1.32"/><path d="m355.08 268a1.06 1.06 0 0 1 2.12 0 1.06 1.06 0 1 1 -2.12 0z" opacity=".3"/><circle cx="375.25" cy="274.82" r="1.41"/><circle cx="381.06" cy="267.14" opacity=".3" r="1.41"/><circle cx="397.26" cy="282.51" r="1.41"/><path d="m404.78 268.8a1.41 1.41 0 1 1 1.41 1.41 1.41 1.41 0 0 1 -1.41-1.41z"/><path d="m397.46 291.85a1.41 1.41 0 1 1 1.41 1.41 1.41 1.41 0 0 1 -1.41-1.41z" opacity=".3"/><path d="m415.83 301.32a1.42 1.42 0 1 1 2.83 0 1.42 1.42 0 0 1 -2.83 0z"/><path d="m428.92 284.38a1.41 1.41 0 1 1 1.41 1.41 1.42 1.42 0 0 1 -1.41-1.41z"/><path d="m474.7 258.21a1.42 1.42 0 1 1 1.42 1.41 1.41 1.41 0 0 1 -1.42-1.41z"/><path d="m477.51 262.11a1.41 1.41 0 1 1 1.41 1.41 1.41 1.41 0 0 1 -1.41-1.41z"/><path d="m509.28 262.11a1.41 1.41 0 1 1 1.41 1.41 1.41 1.41 0 0 1 -1.41-1.41z" opacity=".3"/><path d="m473 262.42a1.41 1.41 0 1 1 1.41 1.41 1.42 1.42 0 0 1 -1.41-1.41z"/><path d="m404.62 311.16a1.42 1.42 0 0 1 2.83 0 1.42 1.42 0 1 1 -2.83 0z" opacity=".3"/><path d="m433.28 299.64a1.41 1.41 0 1 1 1.41 1.41 1.41 1.41 0 0 1 -1.41-1.41z"/><path d="m443.09 310.7a1.41 1.41 0 1 1 1.41 1.41 1.42 1.42 0 0 1 -1.41-1.41z" opacity=".3"/><path d="m441.84 316.93a1.42 1.42 0 1 1 1.41 1.41 1.42 1.42 0 0 1 -1.41-1.41z" opacity=".3"/><path d="m446.36 327.52a1.41 1.41 0 1 1 1.41 1.41 1.42 1.42 0 0 1 -1.41-1.41z" opacity=".3"/><path d="m442 336.08a1.41 1.41 0 1 1 1.41 1.41 1.41 1.41 0 0 1 -1.41-1.41z" opacity=".3"/><path d="m447.45 350.57a1.41 1.41 0 1 1 1.41 1.41 1.41 1.41 0 0 1 -1.41-1.41z" opacity=".3"/><path d="m453.37 311.47a1.41 1.41 0 1 1 1.41 1.42 1.41 1.41 0 0 1 -1.41-1.42z" opacity=".3"/><path d="m476.1 327.05a1.42 1.42 0 1 1 1.42 1.41 1.42 1.42 0 0 1 -1.42-1.41z"/><path d="m501.33 339.2a1.42 1.42 0 1 1 2.83 0 1.42 1.42 0 0 1 -2.83 0z"/><path d="m506.16 377.66a1.42 1.42 0 1 1 1.41 1.42 1.41 1.41 0 0 1 -1.41-1.42z" opacity=".3"/><path d="m495.57 398.53a1.42 1.42 0 0 1 2.83 0 1.42 1.42 0 1 1 -2.83 0z" opacity=".3"/><path d="m506 405.39a1.41 1.41 0 1 1 1.41 1.41 1.42 1.42 0 0 1 -1.41-1.41z" opacity=".3"/><path d="m486.85 396.51a1.42 1.42 0 1 1 1.41 1.41 1.41 1.41 0 0 1 -1.41-1.41z" opacity=".3"/><path d="m481.4 387a1.41 1.41 0 1 1 1.41 1.41 1.41 1.41 0 0 1 -1.41-1.41z" opacity=".3"/><path d="m439 377.66a1.41 1.41 0 1 1 1.41 1.42 1.41 1.41 0 0 1 -1.41-1.42z" opacity=".3"/><path d="m430.16 401.49a1.42 1.42 0 1 1 1.41 1.41 1.41 1.41 0 0 1 -1.41-1.41z"/><path d="m420.82 402.89a1.41 1.41 0 1 1 1.41 1.42 1.41 1.41 0 0 1 -1.41-1.42z"/><path d="m441.69 399.62a1.41 1.41 0 1 1 1.41 1.38 1.41 1.41 0 0 1 -1.41-1.38z" opacity=".3"/><path d="m445.27 411.93a1.41 1.41 0 1 1 1.41 1.41 1.42 1.42 0 0 1 -1.41-1.41z" opacity=".3"/><path d="m426 429.84a1.41 1.41 0 1 1 1.41 1.41 1.42 1.42 0 0 1 -1.41-1.41z"/><path d="m423.15 446.35a1.42 1.42 0 1 1 1.42 1.41 1.41 1.41 0 0 1 -1.42-1.41z"/><path d="m416 451.33a1.41 1.41 0 1 1 1.41 1.41 1.41 1.41 0 0 1 -1.41-1.41z" opacity=".3"/><path d="m427.2 462.7a1.42 1.42 0 1 1 1.41 1.41 1.41 1.41 0 0 1 -1.41-1.41z"/><path d="m430.94 470.64a1.42 1.42 0 1 1 1.41 1.41 1.41 1.41 0 0 1 -1.41-1.41z"/><path d="m408.36 486.53a1.41 1.41 0 1 1 1.41 1.41 1.42 1.42 0 0 1 -1.41-1.41z"/><path d="m381.57 478.27a1.42 1.42 0 1 1 1.41 1.41 1.41 1.41 0 0 1 -1.41-1.41z" opacity=".3"/><path d="m364.91 513.16a1.41 1.41 0 1 1 1.41 1.41 1.42 1.42 0 0 1 -1.41-1.41z"/><path d="m348.09 533.09a1.41 1.41 0 1 1 1.41 1.41 1.41 1.41 0 0 1 -1.41-1.41z" opacity=".3"/><path d="m320.05 559.57a1.42 1.42 0 1 1 1.42 1.41 1.42 1.42 0 0 1 -1.42-1.41z" opacity=".3"/><path d="m288.28 572.44a1.42 1.42 0 1 1 1.42 1.42 1.41 1.41 0 0 1 -1.42-1.42z" opacity=".3"/><circle cx="262.08" cy="539.22" opacity=".3" r="1.41"/><path d="m316.63 535.12a1.41 1.41 0 1 1 1.41 1.41 1.42 1.42 0 0 1 -1.41-1.41z"/><path d="m353.85 505.53a1.41 1.41 0 1 1 1.41 1.41 1.42 1.42 0 0 1 -1.41-1.41z"/><path d="m328.93 519.08a1.42 1.42 0 1 1 1.41 1.41 1.41 1.41 0 0 1 -1.41-1.41z"/><path d="m327.37 493.85a1.42 1.42 0 1 1 2.83 0 1.42 1.42 0 0 1 -2.83 0z"/><path d="m333.29 494.47a1.42 1.42 0 1 1 1.41 1.41 1.41 1.41 0 0 1 -1.41-1.41z"/><path d="m352.91 486.84a1.42 1.42 0 1 1 2.83 0 1.42 1.42 0 0 1 -2.83 0z"/><path d="m400.59 466.38a1.06 1.06 0 0 1 2.12 0 1.06 1.06 0 0 1 -2.12 0z"/><path d="m399 470.8a1.42 1.42 0 1 1 2.83 0 1.42 1.42 0 0 1 -2.83 0z"/><path d="m437.48 476.71a1.42 1.42 0 0 1 2.83 0 1.42 1.42 0 1 1 -2.83 0z"/><path d="m440.91 473a1.41 1.41 0 1 1 1.41 1.41 1.42 1.42 0 0 1 -1.41-1.41z"/><path d="m450.1 412.08a1.41 1.41 0 1 1 1.41 1.42 1.41 1.41 0 0 1 -1.41-1.42z" opacity=".3"/><path d="m445.42 390a1.42 1.42 0 1 1 2.83 0 1.42 1.42 0 0 1 -2.83 0z"/><path d="m428.14 386.54a1.41 1.41 0 1 1 1.41 1.41 1.41 1.41 0 0 1 -1.41-1.41z" opacity=".3"/><path d="m470.65 399.16a1.42 1.42 0 1 1 2.83 0 1.42 1.42 0 0 1 -2.83 0z" opacity=".3"/><path d="m463.33 417.38a1.42 1.42 0 1 1 1.42 1.41 1.42 1.42 0 0 1 -1.42-1.41z" opacity=".3"/><path d="m468.63 436.22a1.41 1.41 0 1 1 1.41 1.41 1.41 1.41 0 0 1 -1.41-1.41z"/><path d="m468.63 441.21a1.41 1.41 0 1 1 1.41 1.41 1.42 1.42 0 0 1 -1.41-1.41z"/><path d="m482.65 435.13a1.41 1.41 0 1 1 1.41 1.41 1.41 1.41 0 0 1 -1.41-1.41z"/><path d="m462.4 371a1.41 1.41 0 1 1 1.41 1.41 1.42 1.42 0 0 1 -1.41-1.41z" opacity=".3"/><path d="m505.85 411.15a1.42 1.42 0 1 1 1.41 1.41 1.41 1.41 0 0 1 -1.41-1.41z" opacity=".3"/><path d="m490 415a1.41 1.41 0 1 1 1.41 1.41 1.41 1.41 0 0 1 -1.41-1.41z"/><path d="m494.17 421a1.42 1.42 0 1 1 1.41 1.41 1.41 1.41 0 0 1 -1.41-1.41z"/><path d="m516 437.16a1.42 1.42 0 1 1 2.83 0 1.42 1.42 0 0 1 -2.83 0z"/><path d="m525.53 452.11a1.41 1.41 0 1 1 1.41 1.41 1.42 1.42 0 0 1 -1.41-1.41z"/><path d="m582.63 440.89a1.42 1.42 0 0 1 2.83 0 1.42 1.42 0 1 1 -2.83 0z"/><circle cx="574.08" cy="452.94" r="1.41"/><circle cx="590.27" cy="499.87" opacity=".3" r="1.41"/><path d="m516.6 469.34a1.41 1.41 0 1 1 1.41 1.42 1.41 1.41 0 0 1 -1.41-1.42z" opacity=".3"/><path d="m511 479.1a1.41 1.41 0 1 1 1.41 1.41 1.41 1.41 0 0 1 -1.41-1.41z"/><path d="m501 486a1.42 1.42 0 1 1 1.41 1.42 1.41 1.41 0 0 1 -1.41-1.42z"/><path d="m513.48 495.71a1.42 1.42 0 0 1 2.83 0 1.42 1.42 0 1 1 -2.83 0z"/><path d="m529.06 524.37a1.41 1.41 0 1 1 1.41 1.41 1.41 1.41 0 0 1 -1.41-1.41z"/><circle cx="472.53" cy="561.12" r="1.41"/><circle cx="450.11" cy="561.54" r="1.41" transform="matrix(.99846019 -.05547298 .05547298 .99846019 -30.44 25.82)"/><circle cx="442.63" cy="563.82" r="1.41"/><circle cx="438.27" cy="571.71" opacity=".3" r="1.41" transform="matrix(1 -.07 .07 1 -39.49 32.56)"/><path d="m425.68 582.46a1.42 1.42 0 1 1 1.42 1.41 1.42 1.42 0 0 1 -1.42-1.41z" opacity=".3"/><circle cx="493.09" cy="570.26" r="1.41"/><circle cx="500.77" cy="561.75" r="1.41"/><path d="m498.32 554.06a1.42 1.42 0 1 1 1.42 1.42 1.42 1.42 0 0 1 -1.42-1.42z"/><path d="m556.47 533.92a1.41 1.41 0 1 1 1.41 1.41 1.41 1.41 0 0 1 -1.41-1.41z"/><path d="m554.6 557.8a1.41 1.41 0 1 1 1.41 1.41 1.41 1.41 0 0 1 -1.41-1.41z"/><circle cx="537.64" cy="463.11" r="1.41"/><path d="m499.15 444.48a1.42 1.42 0 1 1 2.83 0 1.42 1.42 0 0 1 -2.83 0z"/><path d="m472.06 483.1a1.41 1.41 0 1 1 1.41 1.41 1.41 1.41 0 0 1 -1.41-1.41z" opacity=".3"/><path d="m449 488.08a1.41 1.41 0 1 1 1.41 1.42 1.41 1.41 0 0 1 -1.41-1.42z" opacity=".3"/><path d="m441.69 514.4a1.41 1.41 0 1 1 1.41 1.42 1.41 1.41 0 0 1 -1.41-1.42z"/><path d="m436.55 516.27a1.41 1.41 0 1 1 1.41 1.41 1.41 1.41 0 0 1 -1.41-1.41z"/><path d="m438 510.51a1.41 1.41 0 1 1 1.41 1.41 1.41 1.41 0 0 1 -1.41-1.41z"/><path d="m433 508.8a1.42 1.42 0 1 1 2.83 0 1.42 1.42 0 0 1 -2.83 0z"/><path d="m422.53 504.28a1.42 1.42 0 1 1 1.41 1.41 1.41 1.41 0 0 1 -1.41-1.41z"/><path d="m391.69 515.49a1.42 1.42 0 1 1 1.42 1.42 1.42 1.42 0 0 1 -1.42-1.42z"/><path d="m433 525.62a1.42 1.42 0 1 1 2.83 0 1.42 1.42 0 0 1 -2.83 0z" opacity=".3"/><path d="m451.19 527.17a1.41 1.41 0 1 1 1.41 1.42 1.41 1.41 0 0 1 -1.41-1.42z" opacity=".3"/><path d="m462.4 529a1.41 1.41 0 1 1 1.41 1.42 1.41 1.41 0 0 1 -1.41-1.42z" opacity=".3"/><path d="m487.32 529.35a1.41 1.41 0 1 1 1.41 1.42 1.41 1.41 0 0 1 -1.41-1.42z" opacity=".3"/><path d="m479.06 506.62a1.42 1.42 0 1 1 2.83 0 1.42 1.42 0 0 1 -2.83 0z"/><path d="m475.17 475.31a1.42 1.42 0 0 1 2.83 0 1.42 1.42 0 1 1 -2.83 0z" opacity=".3"/><path d="m469.25 462.85a1.42 1.42 0 0 1 2.83 0 1.42 1.42 0 1 1 -2.83 0z" opacity=".3"/><path d="m503.51 336.39a1.42 1.42 0 1 1 1.42 1.42 1.42 1.42 0 0 1 -1.42-1.42z"/><path d="m529.52 323.47a1.42 1.42 0 1 1 2.83 0 1.42 1.42 0 0 1 -2.83 0z"/><path d="m554.23 344.65a1.42 1.42 0 1 1 2.83 0 1.42 1.42 0 0 1 -2.83 0z"/><path d="m551.12 362.5a1.41 1.41 0 1 1 1.41 1.42 1.41 1.41 0 0 1 -1.41-1.42z"/><path d="m548 378.08a1.42 1.42 0 1 1 1.42 1.41 1.42 1.42 0 0 1 -1.42-1.41z"/><path d="m543 414a1.42 1.42 0 0 1 2.83 0 1.42 1.42 0 1 1 -2.83 0z"/><path d="m539.91 424a1.41 1.41 0 1 1 1.41 1.41 1.41 1.41 0 0 1 -1.41-1.41z"/><path d="m530.61 297.93a1.42 1.42 0 1 1 1.42 1.41 1.42 1.42 0 0 1 -1.42-1.41z"/><circle cx="545.52" cy="285.67" r="1.41"/><path d="m552.21 297.93a1.41 1.41 0 1 1 1.41 1.41 1.41 1.41 0 0 1 -1.41-1.41z"/><path d="m553.87 310a1.42 1.42 0 1 1 1.41 1.41 1.41 1.41 0 0 1 -1.41-1.41z"/><path d="m576.5 317.24a1.42 1.42 0 1 1 2.83 0 1.42 1.42 0 0 1 -2.83 0z" opacity=".3"/><path d="m591.66 309.35a1.42 1.42 0 1 1 2.83 0 1.42 1.42 0 0 1 -2.83 0z" opacity=".3"/><circle cx="620.07" cy="323.26" opacity=".3" r="1.41"/><circle cx="619.45" cy="337.38" opacity=".3" r="1.41"/><circle cx="615.09" cy="358.14" opacity=".3" r="1.41"/><path d="m490.28 317.55a1.41 1.41 0 1 1 1.41 1.41 1.41 1.41 0 0 1 -1.41-1.41z"/><path d="m483 307a1.41 1.41 0 1 1 1.41 1.41 1.41 1.41 0 0 1 -1.41-1.41z"/><path d="m464 300.73a1.41 1.41 0 1 1 1.41 1.41 1.41 1.41 0 0 1 -1.41-1.41z" opacity=".3"/><path d="m454.14 290.45a1.42 1.42 0 1 1 1.42 1.41 1.42 1.42 0 0 1 -1.42-1.41z" opacity=".3"/><path d="m447.92 284.38a1.41 1.41 0 1 1 1.41 1.41 1.42 1.42 0 0 1 -1.41-1.41z" opacity=".3"/><path d="m445.74 253.85a1.41 1.41 0 1 1 1.41 1.41 1.41 1.41 0 0 1 -1.41-1.41z"/><path d="m455.29 200.28a1.41 1.41 0 1 1 1.41 1.41 1.42 1.42 0 0 1 -1.41-1.41z" opacity=".3"/><circle cx="442.58" cy="208.58" r="1.41"/><circle cx="449.64" cy="231.84" r="1.41"/><circle cx="415.38" cy="229.76" opacity=".3" r="1.41"/><circle cx="460.85" cy="225.4" r="1.41"/><circle cx="397.47" cy="277.73" r="1.41"/><circle cx="409.1" cy="247.05" opacity=".3" r="1.41"/><circle cx="404.27" cy="240.98" opacity=".3" r="1.41"/><circle cx="391.34" cy="242.38" opacity=".3" r="1.41"/><circle cx="382.31" cy="238.8" opacity=".3" r="1.41"/><circle cx="406.45" cy="235.99" opacity=".3" r="1.41"/><path d="m400.76 277.68a1.33 1.33 0 1 1 1.33 1.33 1.33 1.33 0 0 1 -1.33-1.33z"/><path d="m394.88 281.01 2.03-.84-2.03-.84.84-2.03-2.03.84-.84-2.03-.84 2.03-2.03-.84.84 2.03-2.03.84 2.03.84-.84 2.03 2.03-.84.84 2.03.84-2.03 2.03.84z"/><path d="m261.16 302 2.56-1.06-2.56-1.06 1.06-2.57-2.56 1.07-1.06-2.56-1.06 2.56-2.56-1.07 1.06 2.57-2.56 1.06 2.56 1.06-1.06 2.56 2.56-1.06 1.06 2.56 1.06-2.56 2.56 1.06z"/><path d="m381.72 380.61 1.59-.66-1.59-.66.66-1.59-1.59.66-.66-1.59-.66 1.59-1.59-.66.66 1.59-1.59.66 1.59.66-.66 1.59 1.59-.66.66 1.59.66-1.59 1.59.66z"/><path d="m175.28 300.41.84-2.03-2.03.84-.84-2.03-.84 2.03-2.03-.84.84 2.03-2.03.84 2.03.84-.84 2.03 2.03-.84.84 2.03.84-2.03 2.03.84-.84-2.03 2.03-.84z"/><path d="m240.46 456.09 1.59-.66-1.59-.66.66-1.59-1.59.66-.66-1.59-.66 1.59-1.59-.66.66 1.59-1.59.66 1.59.66-.66 1.59 1.59-.66.66 1.59.66-1.59 1.59.66z"/><path d="m436.69 312.86 1.59-.66-1.59-.66.66-1.59-1.59.66-.66-1.59-.66 1.59-1.58-.66.65 1.59-1.58.66 1.58.66-.65 1.59 1.58-.66.66 1.59.66-1.59 1.59.66z"/><path d="m488.47 339.77a1.77 1.77 0 1 1 1.77 1.76 1.77 1.77 0 0 1 -1.77-1.76z"/><path d="m512.3 285.73a1.77 1.77 0 1 1 1.76 1.76 1.76 1.76 0 0 1 -1.76-1.76z"/><path d="m599 311.32a1.77 1.77 0 1 1 1.77 1.77 1.77 1.77 0 0 1 -1.77-1.77z" opacity=".3"/><path d="m551.91 304.67a1.77 1.77 0 1 1 1.76 1.77 1.76 1.76 0 0 1 -1.76-1.77z"/><path d="m495.63 349a1.77 1.77 0 1 1 1.77 1.76 1.77 1.77 0 0 1 -1.77-1.76z"/><path d="m524.29 342.26a1.77 1.77 0 1 1 1.77 1.77 1.77 1.77 0 0 1 -1.77-1.77z"/><path d="m498.59 382.75a1.77 1.77 0 1 1 1.77 1.77 1.76 1.76 0 0 1 -1.77-1.77z"/><path d="m478.81 410.63a1.77 1.77 0 1 1 1.77 1.77 1.77 1.77 0 0 1 -1.77-1.77z"/><path d="m456.39 426.36a1.77 1.77 0 1 1 1.76 1.77 1.76 1.76 0 0 1 -1.76-1.77z"/><path d="m443.39 448.16a1.06 1.06 0 1 1 1.06 1.06 1.06 1.06 0 0 1 -1.06-1.06z"/><path d="m445.64 451.12a1.77 1.77 0 1 1 1.77 1.77 1.76 1.76 0 0 1 -1.77-1.77z"/><path d="m489.25 448.47a1.77 1.77 0 1 1 1.76 1.77 1.76 1.76 0 0 1 -1.76-1.77z"/><path d="m533.27 470.07a1.77 1.77 0 1 1 1.77 1.77 1.77 1.77 0 0 1 -1.77-1.77z"/><path d="m566.86 478.48a1.77 1.77 0 1 1 1.76 1.77 1.76 1.76 0 0 1 -1.76-1.77z"/><path d="m584.51 478.89a1.77 1.77 0 1 1 1.76 1.77 1.76 1.76 0 0 1 -1.76-1.77z"/><path d="m425.86 439.29a1.77 1.77 0 1 1 1.77 1.76 1.77 1.77 0 0 1 -1.77-1.76z"/><path d="m378.36 466.7a1.77 1.77 0 1 1 1.77 1.76 1.77 1.77 0 0 1 -1.77-1.76z"/><path d="m377.74 482.58a1.77 1.77 0 1 1 1.76 1.77 1.76 1.76 0 0 1 -1.76-1.77z"/><path d="m369.33 513.57a1.77 1.77 0 1 1 1.76 1.77 1.76 1.76 0 0 1 -1.76-1.77z"/><path d="m353.75 526.19a1.77 1.77 0 1 1 1.77 1.76 1.77 1.77 0 0 1 -1.77-1.76z"/><path d="m308.18 539.8 2.03-.84-2.03-.84.84-2.03-2.03.84-.84-2.03-.84 2.03-2.03-.84.84 2.03-2.03.84 2.03.84-.84 2.03 2.03-.84.84 2.03.84-2.03 2.03.84z"/><path d="m335.31 485.26 1.59-.65-1.59-.66.65-1.59-1.59.66-.65-1.59-.66 1.59-1.59-.66.66 1.59-1.59.66 1.59.65-.66 1.59 1.59-.65.66 1.59.66-1.59 1.58.65z"/><path d="m492.21 398.17a1.77 1.77 0 1 1 1.76 1.77 1.76 1.76 0 0 1 -1.76-1.77z"/><path d="m528.49 386.8a1.77 1.77 0 1 1 1.77 1.77 1.77 1.77 0 0 1 -1.77-1.77z"/><path d="m587.83 395.42a1.77 1.77 0 1 1 1.77 1.76 1.77 1.77 0 0 1 -1.77-1.76z"/><path d="m449.53 295.85a1.77 1.77 0 1 1 1.77 1.77 1.77 1.77 0 0 1 -1.77-1.77z"/><path d="m428.9 278.41a1.06 1.06 0 1 1 1.06 1.06 1.06 1.06 0 0 1 -1.06-1.06z"/><circle cx="425.29" cy="264.55" r="1.32"/><circle cx="479.02" cy="308.93" opacity=".3" r="1.32"/><circle cx="487.43" cy="288.22" opacity=".3" r="1.32"/><path d="m435.83 381.61a1.77 1.77 0 1 1 1.77 1.77 1.77 1.77 0 0 1 -1.77-1.77z"/><path d="m439.88 390.18a1.77 1.77 0 1 1 1.76 1.76 1.76 1.76 0 0 1 -1.76-1.76z"/><path d="m430.22 392.87a1.77 1.77 0 1 1 1.77 1.77 1.76 1.76 0 0 1 -1.77-1.77z"/><circle cx="426.85" cy="424.02" r="1.32"/><path d="m327.49 490.74 2.03-.84-2.03-.84.84-2.03-2.03.84-.84-2.03-.84 2.03-2.03-.84.84 2.03-2.03.84 2.03.84-.84 2.03 2.03-.84.84 2.03.84-2.03 2.03.84z"/><circle cx="343.84" cy="531.02" r="1.32"/><circle cx="322.35" cy="497.53" r="1.32"/><circle cx="333.25" cy="507.03" r="1.32"/><circle cx="477.78" cy="265.64" r="1.32"/><circle cx="503.78" cy="445.98" opacity=".3" r="1.32"/><path d="m434.85 517.53 2.03-.84-2.03-.84.84-2.03-2.03.84-.84-2.03-.84 2.03-2.03-.84.84 2.03-2.03.84 2.03.84-.84 2.03 2.03-.84.84 2.03.84-2.03 2.03.84z"/><path d="m385.43 551.08 2.03-.84-2.03-.84.84-2.03-2.03.84-.84-2.03-.84 2.03-2.03-.84.84 2.03-2.03.84 2.03.84-.84 2.03 2.03-.84.84 2.03.84-2.03 2.03.84z"/><path d="m399 568.16a1.77 1.77 0 1 1 1.77 1.77 1.77 1.77 0 0 1 -1.77-1.77z"/><path d="m404.06 548.61a1.77 1.77 0 1 1 1.76 1.77 1.76 1.76 0 0 1 -1.76-1.77z"/><path d="m395.54 499.09a1.77 1.77 0 1 1 1.77 1.77 1.77 1.77 0 0 1 -1.77-1.77z"/><path d="m456.68 514.61a1.06 1.06 0 1 1 1.06 1.06 1.06 1.06 0 0 1 -1.06-1.06z"/><path d="m412.83 619.84a1.77 1.77 0 1 1 1.77 1.77 1.77 1.77 0 0 1 -1.77-1.77z"/><circle cx="396.17" cy="571.2" r="1.32" transform="matrix(.16022575 -.9870804 .9870804 .16022575 -231.11 870.75)"/><circle cx="408.63" cy="611.9" r="1.32"/><circle cx="353.81" cy="583.81" opacity=".3" r="1.32"/><circle cx="405.05" cy="566.21" r="1.32"/><path d="m391.79 591.6a1.77 1.77 0 1 1 1.76 1.76 1.76 1.76 0 0 1 -1.76-1.76z"/><circle cx="384.33" cy="604.27" opacity=".3" r="1.41"/><circle cx="345.5" cy="628.77" r="1.41"/><circle cx="384.13" cy="668.85" opacity=".3" r="1.41"/><circle cx="416.52" cy="666.15" opacity=".3" r="1.41"/><circle cx="382.05" cy="694.39" opacity=".3" r="1.41"/><circle cx="352.56" cy="661.58" opacity=".3" r="1.41"/><circle cx="341.97" cy="616.31" r="1.41"/><circle cx="316.64" cy="600.32" opacity=".3" r="1.41"/><circle cx="329.3" cy="592.64" opacity=".3" r="1.41"/><circle cx="295.87" cy="628.77" r="1.41"/><circle cx="283.41" cy="632.71" r="1.41"/><circle cx="263.06" cy="622.12" opacity=".3" r="1.41"/><circle cx="263.27" cy="607.8" opacity=".3" r="1.41"/><path d="m244.21 597a1.41 1.41 0 1 1 1.41 1.41 1.41 1.41 0 0 1 -1.41-1.41z" opacity=".3"/><path d="m192.09 604.06a1.41 1.41 0 1 1 1.41 1.41 1.41 1.41 0 0 1 -1.41-1.41z" opacity=".3"/><path d="m177.76 626.48a1.41 1.41 0 1 1 1.41 1.42 1.41 1.41 0 0 1 -1.41-1.42z" opacity=".3"/><path d="m171.53 619.63a1.41 1.41 0 1 1 1.41 1.42 1.41 1.41 0 0 1 -1.41-1.42z" opacity=".3"/><path d="m193.54 595.34a1.41 1.41 0 1 1 1.41 1.41 1.42 1.42 0 0 1 -1.41-1.41z" opacity=".3"/><path d="m199.35 576.65a1.42 1.42 0 1 1 1.42 1.41 1.42 1.42 0 0 1 -1.42-1.41z" opacity=".3"/><circle cx="238.35" cy="647.04" opacity=".3" r="1.41"/><circle cx="248.94" cy="648.5" opacity=".3" r="1.41"/><path d="m308.37 635.62a1.42 1.42 0 1 1 1.41 1.41 1.41 1.41 0 0 1 -1.41-1.41z"/><circle cx="320.79" cy="626.69" r="1.41"/><circle cx="404.68" cy="601.15" opacity=".3" r="1.41"/><circle cx="393.47" cy="605.3" opacity=".3" r="1.41"/><circle cx="389.94" cy="622.95" opacity=".3" r="1.41"/><circle cx="397.83" cy="627.11" opacity=".3" r="1.41"/><circle cx="438.74" cy="620.46" r="1.41"/><circle cx="431.05" cy="606.13" r="1.41"/><circle cx="419.22" cy="597.62" opacity=".3" r="1.41"/><circle cx="409.87" cy="570.26" r="1.41"/><circle cx="401.15" cy="580.39" opacity=".3" r="1.41"/><circle cx="431.52" cy="540.98" opacity=".3" r="1.41"/><circle cx="431.37" cy="545.19" opacity=".3" r="1.41"/><circle cx="431.21" cy="552.66" opacity=".3" r="1.41"/><circle cx="416.12" cy="579.58" r="1.41"/><path d="m212.5 510.3a1.77 1.77 0 1 1 1.76 1.77 1.76 1.76 0 0 1 -1.76-1.77z"/><circle cx="188.1" cy="346.47" r="1.32"/><circle cx="183.27" cy="320.61" r="1.32"/><circle cx="203.99" cy="222.5" opacity=".3" r="1.32"/><circle cx="268.46" cy="186.05" opacity=".3" r="1.32"/><path d="m277.29 236.82a1.77 1.77 0 1 1 1.76 1.77 1.76 1.76 0 0 1 -1.76-1.77z"/><path d="m329.61 218.45a1.77 1.77 0 1 1 1.77 1.76 1.77 1.77 0 0 1 -1.77-1.76z"/><path d="m357 220.32a1.77 1.77 0 1 1 1.77 1.76 1.77 1.77 0 0 1 -1.77-1.76z"/><path d="m360.61 200.07a1.77 1.77 0 1 1 1.76 1.77 1.76 1.76 0 0 1 -1.76-1.77z"/><circle cx="380.59" cy="195.71" opacity=".3" r="1.32"/><path d="m400.09 269.06a1.06 1.06 0 1 1 2.12 0 1.06 1.06 0 1 1 -2.12 0z"/><path d="m144.53 352.14a1.33 1.33 0 0 1 2.65 0 1.33 1.33 0 1 1 -2.65 0z"/><path d="m140.45 365.93a1.77 1.77 0 1 1 1.76 1.77 1.76 1.76 0 0 1 -1.76-1.77z"/><path d="m124.55 343.91a1.77 1.77 0 1 1 1.77 1.76 1.77 1.77 0 0 1 -1.77-1.76z"/><path d="m119.7 373.21a1.06 1.06 0 1 1 1.06 1.06 1.06 1.06 0 0 1 -1.06-1.06z" opacity=".3"/><path d="m139.24 397.63a1.06 1.06 0 1 1 1.06 1.06 1.06 1.06 0 0 1 -1.06-1.06z" opacity=".3"/><path d="m164.13 404a1.06 1.06 0 0 1 2.12 0 1.06 1.06 0 0 1 -2.12 0z" opacity=".3"/><path d="m143.67 417.83a1.42 1.42 0 1 1 1.41 1.41 1.41 1.41 0 0 1 -1.41-1.41z" opacity=".3"/><path d="m142.14 386.42a1.42 1.42 0 0 1 2.83 0 1.42 1.42 0 1 1 -2.83 0z" opacity=".3"/><circle cx="163.66" cy="415.34" opacity=".3" r="1.41"/><circle cx="148.72" cy="444.26" opacity=".3" r="1.41"/><circle cx="132.83" cy="435.07" opacity=".3" r="1.41"/><circle cx="154.66" cy="422.43" opacity=".3" r="1.41"/><path d="m141.34 285.11a1.06 1.06 0 1 1 1.06 1.06 1.07 1.07 0 0 1 -1.06-1.06z"/><circle cx="180.32" cy="207.93" opacity=".3" r="1.32"/><circle cx="124.05" cy="248.42" opacity=".3" r="1.32"/><path d="m256.56 164.22a1.33 1.33 0 1 1 1.33 1.32 1.33 1.33 0 0 1 -1.33-1.32z"/><circle cx="263.82" cy="140.85" r="1.32"/><path d="m273.71 135.47 2.03-.84-2.03-.84.84-2.04-2.03.85-.84-2.03-.85 2.03-2.03-.85.84 2.04-2.03.84 2.03.84-.84 2.03 2.03-.84.85 2.03.84-2.03 2.03.84z"/><path d="m283.12 100.92a1.77 1.77 0 1 1 1.77 1.77 1.77 1.77 0 0 1 -1.77-1.77z"/><path d="m295.76 175a1.77 1.77 0 1 1 1.77 1.76 1.77 1.77 0 0 1 -1.77-1.76z"/><path d="m322.38 149.71a1.77 1.77 0 1 1 1.77 1.76 1.77 1.77 0 0 1 -1.77-1.76z"/><path d="m403.2 86.89a1.77 1.77 0 1 1 1.8 1.77 1.76 1.76 0 0 1 -1.8-1.77z"/><path d="m397.65 101.25a1.77 1.77 0 1 1 1.77 1.77 1.76 1.76 0 0 1 -1.77-1.77z"/><path d="m436.27 119.73a1.77 1.77 0 1 1 1.73 1.77 1.76 1.76 0 0 1 -1.73-1.77z"/><path d="m404.93 117a1.77 1.77 0 1 1 1.76 1.76 1.76 1.76 0 0 1 -1.76-1.76z"/><path d="m321.29 116.77a1.33 1.33 0 1 1 2.65 0 1.33 1.33 0 0 1 -2.65 0z" opacity=".3"/><path d="m358.14 108.15a1.06 1.06 0 0 1 2.12 0 1.06 1.06 0 0 1 -2.12 0z" opacity=".3"/><path d="m379.84 98.19a1.77 1.77 0 1 1 1.76 1.81 1.76 1.76 0 0 1 -1.76-1.81z"/><path d="m336.44 79.08a1.77 1.77 0 1 1 1.77 1.77 1.76 1.76 0 0 1 -1.77-1.77z"/><path d="m338.44 56.94a1.77 1.77 0 1 1 1.77 1.77 1.76 1.76 0 0 1 -1.77-1.77z"/><path d="m379.73 102a1.06 1.06 0 1 1 1.06 1.06 1.06 1.06 0 0 1 -1.06-1.06z" opacity=".3"/><circle cx="459.61" cy="87.89" opacity=".3" r="1.32"/><path d="m479.64 216.42a1.77 1.77 0 1 1 1.77 1.77 1.76 1.76 0 0 1 -1.77-1.77z"/><path d="m419 227.84a1.77 1.77 0 1 1 1.77 1.77 1.76 1.76 0 0 1 -1.77-1.77z"/><path d="m431.68 183.4a1.77 1.77 0 1 1 1.76 1.77 1.76 1.76 0 0 1 -1.76-1.77z"/><path d="m465 211.44a1.06 1.06 0 1 1 1 1.06 1.06 1.06 0 0 1 -1-1.06z"/><path d="m457.07 230.55 2.03-.84-2.03-.84.84-2.03-2.03.84-.84-2.03-.84 2.03-2.03-.84.84 2.03-2.03.84 2.03.84-.84 2.03 2.03-.84.84 2.03.84-2.03 2.03.84z"/><path d="m533.7 492.54-5.42-2.25 5.42-2.24-2.25 5.42-2.24-5.42 5.42 2.24-5.42 2.25 2.24-5.42z"/><path d="m501.86 505.27a1.77 1.77 0 1 1 1.77 1.76 1.77 1.77 0 0 1 -1.77-1.76z"/><path d="m505 548.25a1.77 1.77 0 1 1 1.76 1.77 1.76 1.76 0 0 1 -1.76-1.77z"/><path d="m423.58 574.62a1.77 1.77 0 1 1 1.76 1.77 1.76 1.76 0 0 1 -1.76-1.77z"/><path d="m121.24 226.18a1.77 1.77 0 1 1 1.76 1.82 1.76 1.76 0 0 1 -1.76-1.82z" opacity=".3"/><path d="m125.39 183a1.77 1.77 0 1 1 1.76 1.77 1.76 1.76 0 0 1 -1.76-1.77z" opacity=".3"/><path d="m185.4 126.09a1.77 1.77 0 1 1 1.77 1.77 1.76 1.76 0 0 1 -1.77-1.77z" opacity=".3"/><path d="m119.24 255.25a1.06 1.06 0 0 1 2.12 0 1.06 1.06 0 0 1 -2.12 0z" opacity=".3"/><path d="m117 249a1.06 1.06 0 1 1 1.06 1.06 1.06 1.06 0 0 1 -1.06-1.06z" opacity=".3"/><path d="m126.72 207.72a1.06 1.06 0 1 1 1.06 1.06 1.06 1.06 0 0 1 -1.06-1.06z" opacity=".3"/><circle cx="220.6" cy="115.92" opacity=".3" r="1.32"/><path d="m502.63 192.33a1.42 1.42 0 1 1 1.41 1.42 1.41 1.41 0 0 1 -1.41-1.42z"/><path d="m556.83 180.91a1.41 1.41 0 1 1 1.41 1.42 1.41 1.41 0 0 1 -1.41-1.42z"/><circle cx="574.85" cy="219.95" r="1.41"/><path d="m547.48 213.51a1.42 1.42 0 1 1 1.42 1.42 1.42 1.42 0 0 1 -1.42-1.42z"/><path d="m519.45 217.46a1.42 1.42 0 1 1 1.41 1.41 1.41 1.41 0 0 1 -1.41-1.41z"/><path d="m557.45 226.8a1.42 1.42 0 1 1 1.41 1.42 1.41 1.41 0 0 1 -1.41-1.42z"/><path d="m538.76 254a1.42 1.42 0 1 1 2.83 0 1.42 1.42 0 0 1 -2.83 0z"/><path d="m568.25 241.76a1.42 1.42 0 1 1 1.41 1.41 1.41 1.41 0 0 1 -1.41-1.41z"/><path d="m626.6 286.4a1.42 1.42 0 1 1 1.41 1.41 1.41 1.41 0 0 1 -1.41-1.41z" opacity=".3"/><path d="m674.57 251.31a1.41 1.41 0 1 1 1.41 1.41 1.42 1.42 0 0 1 -1.41-1.41z" opacity=".3"/><path d="m632.41 217.67a1.42 1.42 0 1 1 2.83 0 1.42 1.42 0 0 1 -2.83 0z" opacity=".3"/><path d="m571.43 248a1.77 1.77 0 1 1 1.76 1.77 1.76 1.76 0 0 1 -1.76-1.77z"/><path d="m508.72 188.18a1.77 1.77 0 1 1 1.76 1.77 1.76 1.76 0 0 1 -1.76-1.77z"/><path d="m610.05 421.79a1.77 1.77 0 1 1 1.77 1.77 1.77 1.77 0 0 1 -1.77-1.77z"/><circle cx="541.84" cy="627.57" opacity=".3" r="1.32"/><circle cx="598.32" cy="592.69" r="1.32"/><circle cx="582.95" cy="619.68" r="1.41"/><circle cx="612.23" cy="575.87" r="1.41"/><circle cx="587.31" cy="565.69" opacity=".3" r="1.41" transform="matrix(1 -.01 .01 1 -5.74 6.02)"/><circle cx="559.9" cy="577.53" opacity=".3" r="1.41"/><circle cx="520.45" cy="659.35" opacity=".3" r="1.41"/><circle cx="486.6" cy="672.01" opacity=".3" r="1.41"/><path d="m355.47 614.08a1.77 1.77 0 1 1 1.76 1.76 1.76 1.76 0 0 1 -1.76-1.76z" opacity=".3"/><path d="m310.61 640.24a1.77 1.77 0 1 1 1.77 1.77 1.77 1.77 0 0 1 -1.77-1.77z"/><path d="m276.56 685.72a1.77 1.77 0 1 1 1.77 1.76 1.77 1.77 0 0 1 -1.77-1.76z" opacity=".3"/><path d="m326.6 693a1.77 1.77 0 1 1 1.77 1.77 1.76 1.76 0 0 1 -1.77-1.77z" opacity=".3"/><path d="m280.51 658.72a1.77 1.77 0 1 1 1.76 1.77 1.76 1.76 0 0 1 -1.76-1.77z" opacity=".3"/><path d="m221.53 643.15a1.77 1.77 0 1 1 1.77 1.76 1.77 1.77 0 0 1 -1.77-1.76z" opacity=".3"/><path d="m145.74 598.71a1.77 1.77 0 1 1 1.76 1.77 1.76 1.76 0 0 1 -1.76-1.77z" opacity=".3"/><path d="m133.49 565.69a1.77 1.77 0 1 1 1.76 1.77 1.76 1.76 0 0 1 -1.76-1.77z" opacity=".3"/><path d="m302.31 629a1.77 1.77 0 1 1 1.76 1.76 1.76 1.76 0 0 1 -1.76-1.76z"/><path d="m310 623a1.77 1.77 0 1 1 1.77 1.76 1.77 1.77 0 0 1 -1.77-1.76z"/><path d="m354.64 650.62a1.77 1.77 0 1 1 1.76 1.77 1.76 1.76 0 0 1 -1.76-1.77z" opacity=".3"/><path d="m390.56 669.73a1.77 1.77 0 1 1 1.77 1.76 1.77 1.77 0 0 1 -1.77-1.76z" opacity=".3"/><path d="m404.89 663.5a1.77 1.77 0 1 1 1.76 1.76 1.76 1.76 0 0 1 -1.76-1.76z" opacity=".3"/><path d="m337.78 609.32 2.56-1.06-2.56-1.06 1.06-2.56-2.56 1.06-1.06-2.56-1.06 2.56-2.56-1.06 1.06 2.56-2.56 1.06 2.56 1.06-1.06 2.56 2.56-1.06 1.06 2.56 1.06-2.56 2.56 1.06z"/><path d="m269.73 619.27a1.33 1.33 0 1 1 2.65 0 1.33 1.33 0 0 1 -2.65 0z" opacity=".3"/><circle cx="260.05" cy="673.67" opacity=".3" r="1.32"/><circle cx="640.06" cy="269.79" opacity=".3" r="1.32"/><path d="m642.89 304.5 1.59-.66-1.59-.65.66-1.59-1.59.65-.66-1.58-.66 1.58-1.59-.65.66 1.59-1.59.65 1.59.66-.66 1.59 1.59-.66.66 1.59.66-1.59 1.59.66z"/><circle cx="692.38" cy="412.03" opacity=".3" r="1.41"/><circle cx="672.66" cy="495.92" opacity=".3" r="1.41"/><path d="m397.26 463.8 2.04-.84-2.04-.84.85-2.03-2.04.84-.84-2.03-.84 2.03-2.03-.84.84 2.03-2.03.84 2.03.84-.84 2.03 2.03-.84.84 2.03.84-2.03 2.04.84z"/><path d="m422.1 585.02 2.55-1.06-2.55-1.06 1.06-2.56-2.57 1.06-1.06-2.56-1.06 2.56-2.56-1.06 1.06 2.56-2.56 1.06 2.56 1.06-1.06 2.56 2.56-1.06 1.06 2.57 1.07-2.57 2.56 1.06z"/></g><path d="m340.88 301.92 2.13-9.7.83-7.58 12.72-9.12 3.94 1.33 14.82-2.03" fill="none" opacity=".8" stroke="#ff8c00" stroke-width=".8"/><path d="m318.26 364.38-1.77-.74.73-1.77-1.77.74-.73-1.78-.74 1.78-1.77-.74.74 1.77-1.77.74 1.77.73-.74 1.77 1.77-.74.74 1.78.73-1.78 1.77.74-.73-1.77z" fill="#fff"/></svg>