<svg id="Layer_1" data-name="Layer 1" xmlns="http://www.w3.org/2000/svg" viewBox="0 0 140 140"><title>triangles-2</title><polygon points="119.2 25.3 133.2 90.5 83.7 135.2 20.2 114.7 6.3 49.5 55.8 4.8 119.2 25.3" fill="#31b304"/><g opacity="0.7"><line x1="20.2" y1="114.7" x2="55.8" y2="4.8" fill="none" stroke="#fff" stroke-miterlimit="10" stroke-width="3"/><line x1="83.7" y1="135.2" x2="55.8" y2="4.8" fill="none" stroke="#fff" stroke-miterlimit="10" stroke-width="3"/><line x1="119.2" y1="25.3" x2="83.7" y2="135.2" fill="none" stroke="#fff" stroke-miterlimit="10" stroke-width="3"/></g><g opacity="0.8"><path d="M12.2,58h2.2V51H12.6v-.8a5.2,5.2,0,0,0,2.1-.7h.9V58h2v1.1H12.2Z" fill="#fff"/><path d="M19.1,56.6a2.9,2.9,0,0,1,1.8-2.5h0a2.7,2.7,0,0,1-1.3-2.2,2.5,2.5,0,0,1,2.7-2.5A2.5,2.5,0,0,1,25,51.9a3.3,3.3,0,0,1-1.4,2.3h0a2.8,2.8,0,0,1,1.7,2.5c0,1.4-1.2,2.6-3.1,2.6A2.9,2.9,0,0,1,19.1,56.6Zm5,.1c0-1.3-1.2-1.7-2.6-2.3a2.7,2.7,0,0,0-1.3,2.1,1.9,1.9,0,0,0,2.1,1.8A1.6,1.6,0,0,0,24.1,56.7Zm-.2-4.8a1.6,1.6,0,0,0-1.7-1.7,1.5,1.5,0,0,0-1.5,1.6c0,1.1,1,1.6,2.2,2.1A3,3,0,0,0,23.9,51.9Z" fill="#fff"/><path d="M26.6,54.3c0-3.3,1.1-5,3.1-5s3,1.8,3,5-1.1,5-3,5S26.6,57.5,26.6,54.3Zm4.9,0c0-2.9-.7-4-1.8-4s-1.9,1.1-1.9,4,.7,4,1.9,4S31.5,57.1,31.5,54.3Z" fill="#fff"/></g><g opacity="0.8"><path d="M41.5,91h2.2V83.9H41.9v-.8a5.8,5.8,0,0,0,2.1-.7h.9V91h2v1H41.5Z" fill="#fff"/><path d="M48.4,89.5A2.9,2.9,0,0,1,50.2,87h0a2.8,2.8,0,0,1-1.4-2.2,2.5,2.5,0,0,1,2.7-2.5,2.5,2.5,0,0,1,2.7,2.6,3.2,3.2,0,0,1-1.3,2.3h0a2.9,2.9,0,0,1,1.7,2.5c0,1.4-1.2,2.6-3.1,2.6A2.8,2.8,0,0,1,48.4,89.5Zm5,.1c0-1.3-1.2-1.7-2.6-2.3a2.4,2.4,0,0,0-1.3,2.1,1.8,1.8,0,0,0,2,1.8C52.6,91.2,53.4,90.6,53.4,89.6Zm-.2-4.8a1.6,1.6,0,0,0-1.7-1.7A1.5,1.5,0,0,0,50,84.7c0,1.1,1,1.6,2.2,2.1A3,3,0,0,0,53.2,84.8Z" fill="#fff"/><path d="M55.9,87.2c0-3.2,1.1-5,3-5S62,84,62,87.2s-1.2,5-3.1,5S55.9,90.4,55.9,87.2Zm4.9,0c0-2.8-.8-4-1.9-4s-1.8,1.2-1.8,4,.7,4,1.8,4S60.8,90,60.8,87.2Z" fill="#fff"/></g><g opacity="0.8"><path d="M77.6,51h2.2V43.9H78v-.8a5.8,5.8,0,0,0,2.1-.7H81V51h2v1H77.6Z" fill="#fff"/><path d="M84.5,49.5A2.9,2.9,0,0,1,86.3,47h0a2.8,2.8,0,0,1-1.4-2.2,2.5,2.5,0,0,1,2.7-2.5,2.5,2.5,0,0,1,2.7,2.6A3.2,3.2,0,0,1,89,47.1h0a2.8,2.8,0,0,1,1.7,2.5c0,1.4-1.2,2.6-3.1,2.6A2.8,2.8,0,0,1,84.5,49.5Zm5,.1c0-1.3-1.2-1.7-2.6-2.3a2.4,2.4,0,0,0-1.3,2.1,1.8,1.8,0,0,0,2,1.8C88.7,51.2,89.5,50.6,89.5,49.6Zm-.2-4.8a1.6,1.6,0,0,0-1.7-1.7,1.5,1.5,0,0,0-1.5,1.6c0,1.1,1,1.6,2.2,2.1A3,3,0,0,0,89.3,44.8Z" fill="#fff"/><path d="M92,47.2c0-3.2,1.1-5,3-5s3.1,1.8,3.1,5-1.2,5-3.1,5S92,50.4,92,47.2Zm4.9,0c0-2.8-.8-4-1.9-4s-1.8,1.2-1.8,4,.7,4,1.8,4S96.9,50,96.9,47.2Z" fill="#fff"/></g><g opacity="0.8"><path d="M106.5,89.5h2.2V82.4h-1.8v-.8a5.8,5.8,0,0,0,2.1-.7h.9v8.6h2v1h-5.4Z" fill="#fff"/><path d="M113.4,88a2.9,2.9,0,0,1,1.8-2.5h0a2.8,2.8,0,0,1-1.4-2.2,2.5,2.5,0,0,1,2.7-2.5,2.5,2.5,0,0,1,2.7,2.6,3.2,3.2,0,0,1-1.3,2.3h0a2.9,2.9,0,0,1,1.7,2.5c0,1.4-1.2,2.6-3.1,2.6A2.8,2.8,0,0,1,113.4,88Zm5,.1c0-1.3-1.2-1.7-2.6-2.3a2.4,2.4,0,0,0-1.3,2.1,1.8,1.8,0,0,0,2,1.8C117.6,89.7,118.4,89.1,118.4,88.1Zm-.2-4.8a1.6,1.6,0,0,0-1.7-1.7,1.5,1.5,0,0,0-1.5,1.6c0,1.1,1,1.6,2.2,2.1A3,3,0,0,0,118.2,83.3Z" fill="#fff"/><path d="M120.9,85.7c0-3.2,1.1-5,3-5s3.1,1.8,3.1,5-1.2,5-3.1,5S120.9,88.9,120.9,85.7Zm4.9,0c0-2.8-.8-4-1.9-4s-1.8,1.2-1.8,4,.7,4,1.8,4S125.8,88.5,125.8,85.7Z" fill="#fff"/></g></svg>