<svg id="Layer_1" data-name="Layer 1" xmlns="http://www.w3.org/2000/svg" viewBox="0 0 80 80"><title>cube-3</title><rect width="80" height="80" transform="translate(80 0) rotate(90)" fill="#242436"/><path d="M62,0H80V18h0A18.1,18.1,0,0,1,62,0Z" fill="#b30469"/><path d="M62,80h0A18.1,18.1,0,0,1,80,62h0V80Z" fill="#1f7aff"/><path d="M0,18V0H18A18.1,18.1,0,0,1,0,18Z" fill="#ff941f"/><path d="M0,80V62H0A18.1,18.1,0,0,1,18,80H0Z" fill="#31b304"/><g opacity="0.6"><path d="M67.2,4.3h1.5V6.4h6.2V4.6H76l.3,1.3.5.9V8.1H68.7V10H67.2Z" fill="#fff"/></g><g opacity="0.6"><path d="M67.2,69.6h1.1L70,71.4l1.5,1.3,1.3.9a2.7,2.7,0,0,0,1.2.3,1.4,1.4,0,0,0,1.6-1.6,1.7,1.7,0,0,0-.3-1l-.8-.8,1-1a4.9,4.9,0,0,1,1.1,1.4,3.8,3.8,0,0,1,.4,1.6,5.1,5.1,0,0,1-.2,1.3,3.5,3.5,0,0,1-.6.9,2.1,2.1,0,0,1-1,.6,2.1,2.1,0,0,1-1.2.3,2.7,2.7,0,0,1-1.2-.3l-1.4-.8-1.3-1.1-1.5-1.3c0,.2.1.5.1.8V76H67.2Z" fill="#fff"/></g><g opacity="0.6"><path d="M3.2,7.6H5.7V3.4H6.9l5.9,3.8V9.3H7v1.2H5.7V9.3H3.2ZM7,5.1V7.6h4.2l-.7-.4-.8-.4Z" fill="#fff"/></g><g opacity="0.6"><path d="M3.1,72.6a3.6,3.6,0,0,1,.4-1.9,2.5,2.5,0,0,1,.9-1.3l1.1.8a3.6,3.6,0,0,0-.7,1,2.5,2.5,0,0,0-.3,1.3,1.6,1.6,0,0,0,.4,1.2,1.2,1.2,0,0,0,1,.5h.7a1.2,1.2,0,0,0,.5-.5,1.9,1.9,0,0,0,.3-.8,6.1,6.1,0,0,0,.1-1.4H8.8a4.1,4.1,0,0,0,.1,1.2l.3.7c.2.2.3.4.5.5h.6a1.3,1.3,0,0,0,1-.4,1.5,1.5,0,0,0,.3-1,3,3,0,0,0-.2-1,3.1,3.1,0,0,0-.7-.9l1.1-.9a5.7,5.7,0,0,1,.8,1.3,2.8,2.8,0,0,1,.4,1.5,5.1,5.1,0,0,1-.2,1.3,3.1,3.1,0,0,1-.5,1,2.4,2.4,0,0,1-.8.6,1.8,1.8,0,0,1-1,.2,2.1,2.1,0,0,1-1.4-.4A2.5,2.5,0,0,1,8.3,74H8.2a3.9,3.9,0,0,1-.8,1.4,2.1,2.1,0,0,1-1.6.5,2,2,0,0,1-1.1-.2,2.2,2.2,0,0,1-.9-.7,3.7,3.7,0,0,1-.5-1.1A2.7,2.7,0,0,1,3.1,72.6Z" fill="#fff"/></g><path d="M40,68A28,28,0,1,1,68,40" fill="none" stroke="#fff" stroke-linecap="round" stroke-miterlimit="10" stroke-width="6"/><polygon points="48 68 36 61 36 75 48 68" fill="#fff"/></svg>