<svg id="Layer_1" data-name="Layer 1" xmlns="http://www.w3.org/2000/svg" viewBox="0 0 80 80"><title>cube-6</title><rect width="80" height="80" fill="#242436"/><path d="M0,62H0V80H18A18.1,18.1,0,0,0,0,62Z" fill="#b30469"/><path d="M80,62h0A18.1,18.1,0,0,0,62,80H80Z" fill="#1f7aff"/><path d="M18,0H0V18H0A18.1,18.1,0,0,0,18,0Z" fill="#ff941f"/><path d="M80,0H62A18.1,18.1,0,0,0,80,18h0Z" fill="#31b304"/><g opacity="0.6"><path d="M10,67.2v1.5H8.1v8.1H6.8l-.9-.5L4.6,76V74.9H6.4V68.7H4.3V67.2Z" fill="#fff"/></g><g opacity="0.6"><path d="M76,67.2v1.5H72.1l1.3,1.5,1.1,1.3a10,10,0,0,1,.8,1.4,2.7,2.7,0,0,1,.3,1.2,2.1,2.1,0,0,1-.3,1.2,2.1,2.1,0,0,1-.6,1l-.9.6-1.3.2a3.8,3.8,0,0,1-1.6-.4,4.9,4.9,0,0,1-1.4-1.1l1-1,.8.8a1.7,1.7,0,0,0,1,.3A1.4,1.4,0,0,0,73.9,74a2.7,2.7,0,0,0-.3-1.2,7.7,7.7,0,0,0-.9-1.3L71.4,70l-1.8-1.7V67.2Z" fill="#fff"/></g><g opacity="0.6"><path d="M9.3,3.2V5.7h1.2V7H9.3v5.8H7.2L3.4,6.9V5.7H7.6V3.2ZM6.9,9.7a3,3,0,0,0,.4.8l.4.7h0v-1a3.8,3.8,0,0,1-.1-1V7H5.1Z" fill="#fff"/></g><g opacity="0.6"><path d="M73.9,3.3l1.1.5a2.2,2.2,0,0,1,.7.9,2,2,0,0,1,.2,1.1,2.1,2.1,0,0,1-.5,1.6,3.9,3.9,0,0,1-1.4.8h0a2.5,2.5,0,0,1,1.2.8,2.1,2.1,0,0,1,.4,1.4,1.8,1.8,0,0,1-.2,1,2.4,2.4,0,0,1-.6.8,3.1,3.1,0,0,1-1,.5l-1.3.2a2.8,2.8,0,0,1-1.5-.4,5.7,5.7,0,0,1-1.3-.8l.9-1.1a3.1,3.1,0,0,0,.9.7l1,.2a1.5,1.5,0,0,0,1-.3,1.3,1.3,0,0,0,.4-1c0-.2-.1-.4-.1-.6s-.3-.3-.5-.5l-.7-.3H71.4V7.5h1.4a1.9,1.9,0,0,0,.8-.3,1.2,1.2,0,0,0,.5-.5,1.5,1.5,0,0,0,.1-.7,1.2,1.2,0,0,0-.5-1,1.6,1.6,0,0,0-1.2-.4,2.5,2.5,0,0,0-1.3.3l-1,.7-.8-1.1a2.5,2.5,0,0,1,1.3-.9,3.6,3.6,0,0,1,1.9-.4A2.7,2.7,0,0,1,73.9,3.3Z" fill="#fff"/></g><polygon points="40 76 47 64 33 64 40 76" fill="#fff"/><line x1="40" y1="68" x2="40" y2="12" fill="none" stroke="#fff" stroke-linecap="round" stroke-miterlimit="10" stroke-width="6"/><polygon points="40 4 33 16 47 16 40 4" fill="#fff"/></svg>