<svg id="Layer_1" data-name="Layer 1" xmlns="http://www.w3.org/2000/svg" viewBox="0 0 80 80"><title>cube-2</title><rect width="80" height="80" transform="translate(80 80) rotate(180)" fill="#242436"/><path d="M80,62h0V80H62A18.1,18.1,0,0,1,80,62Z" fill="#b30469"/><path d="M0,62H0A18.1,18.1,0,0,1,18,80H0Z" fill="#1f7aff"/><path d="M62,0H80V18h0A18.1,18.1,0,0,1,62,0Z" fill="#ff941f"/><path d="M0,0H18A18.1,18.1,0,0,1,0,18H0Z" fill="#31b304"/><g opacity="0.6"><path d="M75.7,67.2v1.5H73.6v6.2h1.8V76l-1.3.3-.9.5H71.9V68.7H70V67.2Z" fill="#fff"/></g><g opacity="0.6"><path d="M10.4,67.2v1.1L8.6,70,7.3,71.5a7.7,7.7,0,0,0-.9,1.3A2.7,2.7,0,0,0,6.1,74a1.6,1.6,0,0,0,.4,1.2,1.6,1.6,0,0,0,1.2.4,1.7,1.7,0,0,0,1-.3l.8-.8,1,1a4.9,4.9,0,0,1-1.4,1.1,3.8,3.8,0,0,1-1.6.4l-1.3-.2-.9-.6a2.1,2.1,0,0,1-.6-1A2.1,2.1,0,0,1,4.4,74a2.7,2.7,0,0,1,.3-1.2,10,10,0,0,1,.8-1.4l1.1-1.3,1.3-1.5H4V67.2Z" fill="#fff"/></g><g opacity="0.6"><path d="M72.4,3.2V5.7h4.2V6.9l-3.8,5.9H70.7V7H69.5V5.7h1.2V3.2ZM74.9,7H72.4V9.2a3.8,3.8,0,0,1-.1,1v1h0l.4-.7a3,3,0,0,0,.4-.8Z" fill="#fff"/></g><g opacity="0.6"><path d="M7.4,3.1a3.6,3.6,0,0,1,1.9.4,2.5,2.5,0,0,1,1.3.9L9.8,5.5l-1-.7a2.5,2.5,0,0,0-1.3-.3,1.6,1.6,0,0,0-1.2.4,1.2,1.2,0,0,0-.5,1,1.5,1.5,0,0,0,.1.7,1.2,1.2,0,0,0,.5.5,1.9,1.9,0,0,0,.8.3H8.6V8.8H7.4l-.7.3-.5.5c0,.2-.1.4-.1.6a1.3,1.3,0,0,0,.4,1,1.5,1.5,0,0,0,1,.3l1-.2a3.1,3.1,0,0,0,.9-.7l.9,1.1a5.7,5.7,0,0,1-1.3.8,2.8,2.8,0,0,1-1.5.4l-1.3-.2-1-.5a2.4,2.4,0,0,1-.6-.8,1.8,1.8,0,0,1-.2-1,2.1,2.1,0,0,1,.4-1.4A2.5,2.5,0,0,1,6,8.3H6a3.9,3.9,0,0,1-1.4-.8,2.1,2.1,0,0,1-.5-1.6,2,2,0,0,1,.2-1.1A2.2,2.2,0,0,1,5,3.8l1.1-.5A2.7,2.7,0,0,1,7.4,3.1Z" fill="#fff"/></g><path d="M12,40a28,28,0,0,1,56,0" fill="none" stroke="#fff" stroke-linecap="round" stroke-miterlimit="10" stroke-width="6"/><polygon points="12 48 19 36 5 36 12 48" fill="#fff"/></svg>