<svg id="Layer_1" data-name="Layer 1" xmlns="http://www.w3.org/2000/svg" viewBox="0 0 130 240"><title>picker-5</title><g opacity="0.5"><path d="M65.7,90.8a7.3,7.3,0,0,0,7.2-7.3,7.2,7.2,0,0,0-7.2-7.2,7.3,7.3,0,0,0-7.3,7.2A7.3,7.3,0,0,0,65.7,90.8Zm.4,18A49.4,49.4,0,1,0,16.7,59.4,49.4,49.4,0,0,0,66.1,108.8Zm-.4-82.2a7.2,7.2,0,0,1,7.2,7.2,7.3,7.3,0,0,1-7.2,7.3,7.3,7.3,0,0,1-7.3-7.3A7.3,7.3,0,0,1,65.7,26.6Zm.4,32.8h0c34.6-17,14.3-45.1,0-45.1a45.1,45.1,0,1,1,0,90.2C51.7,104.5,31.5,76.3,66.1,59.4Z" fill="#3866e6"/></g><path d="M73.7,203.8a7.3,7.3,0,1,0-14.5,0,7.3,7.3,0,0,0,14.5,0Zm41.7-24.2A49.4,49.4,0,1,0,66.1,229,49.4,49.4,0,0,0,115.4,179.6ZM73.7,154.1a7.3,7.3,0,1,1-7.3-7.3A7.3,7.3,0,0,1,73.7,154.1Zm-7.6,70.6a45.1,45.1,0,0,1,0-90.2c-14.4,0-34.7,28.2,0,45.1h0C100.6,196.6,80.5,224.7,66.1,224.7Z" fill="#3866e6"/><path d="M29.7,66l2.6-13.1h7.5l-.4,1.8H34l-.7,3.6h4.6l-.4,1.8H33l-.8,4.1h5.5L37.3,66Z" fill="#fff"/><path d="M89,183l2.6-13.1h7.5l-.4,1.8H93.4l-.7,3.6h4.5l-.3,1.8H92.3l-.8,4.1H97l-.3,1.8Z" fill="#fff"/><path d="M100.7,175.1l1.7-5.9h2.1l-.8,2.4-1.6,3.5Z" fill="#fff"/></svg>