<svg xmlns="http://www.w3.org/2000/svg" xmlns:xlink="http://www.w3.org/1999/xlink" viewBox="0 0 220 300"><defs><linearGradient id="a" x1="110" y1="278.7" x2="110" y2="26" gradientUnits="userSpaceOnUse"><stop offset="0" stop-color="#ccc"/><stop offset="1" stop-color="#fff"/></linearGradient></defs><title>Artboard 1</title><rect width="220" height="300" fill="#fff"/><polygon points="220 26 0 26 0 278.7 220 206.3 220 26" fill="url(#a)"/><path d="M77.2,15.2l-5,239.4,61,23,5.4-2.1L126,270.9l39-15.2,13.5,3.7,3.8-1.9-64.6-17.1L112,36.6l-.7-16.3Zm4.9,17.4,25.3,2.9.8,29.9L81.6,63.2Zm-.9,42.1,27.2,1.4.6,29.2-28.5.2Zm28.9,40.9-.2,29-30.2,2.7.5-30.6Zm.2,39.1,2.5,27.9-34,6,.6-30.2Zm1.5,38.2.9,27.6-34.7,9,.4-29.9Zm1.2,37.3.4,11.4,12.7,3.4L88.6,257.1l-11.1-4.2.2-12.5Zm20.3,17.1,23,6.1-38.7,14.4-21.5-8.1Z" opacity="0.1"/><path d="M111.6,17.6l-4.2,2.7,67.1,237.8h5.4Z" fill="#8b6848"/><path d="M77.2,15.2,81.5,12l53.4,263.8-5.5.4Z" fill="#8e6d4c"/><path d="M81.5,12l5.3,1.2L140.2,274l-5.3,1.8Z" fill="#c89b6f"/><path d="M111.6,17.6l4.4.3,68,238-4.1,2.1Z" fill="#c79b6f"/><path d="M111.3,20.3,87.5,16.4l1.2,6.2L113,26.4Z" fill="#c3976c"/><path d="M113,26.4,109.5,28,89.3,25.3l-.6-2.7Z" fill="#725940"/><path d="M93.9,47.6l26,2.7,1.7,6.2L95.2,54.1Z" fill="#c3986d"/><path d="M121.6,56.5,118,57.9,95.6,56.1l-.4-2Z" fill="#725940"/><path d="M128.5,80.8l1.9,6.3-28.6-.8-1.4-6.6Z" fill="#c4986d"/><path d="M130.4,87.1l-3.8,1.3-24.5-.6-.3-1.5Z" fill="#725940"/><path d="M114,146.3l32.1-3.3,1.9,6.3-32.5,3.9Z" fill="#c69a6e"/><path d="M148,149.3l-3.9,1.1L115.6,154v-.8Z" fill="#725940"/><path d="M121.1,180.8l34.1-6.2,1.9,6.4-34.6,6.8Z" fill="#c69a6e"/><path d="M157.1,181l-4,1.1-30.5,6.1v-.4Z" fill="#725940"/><path d="M128.3,216.1l36-9.5,1.8,6.6-36.3,10.2Z" fill="#c69a6e"/><path d="M135.8,252.7l37.7-13.3,2,6.4L137.3,260Z" fill="#c69a6e"/><path d="M173.5,239.4l-4.1.5-33.8,12,.2.8Z" fill="#725940"/><path d="M137.3,111.7l1.8,6.3-30.6,1.2-1.3-6.6Z" fill="#c69a6e"/><path d="M139.1,118l-3.8,1.3-26.5,1.2-.3-1.3Z" fill="#725940"/><path d="M134.9,275.8c-.3.1-12.4-59-27.1-131.8S81.3,12.1,81.5,12s12.4,59,27.2,131.8S135.1,275.8,134.9,275.8Z" fill="#c5b584"/><path d="M179.9,258c-.1,0-15.6-53.8-34.4-120.1S111.4,17.6,111.6,17.6s15.6,53.8,34.5,120.1S180.1,257.9,179.9,258Z" fill="#c5b584"/><path d="M135.8,252.7c0-.1,8.4-3.2,18.8-6.8s18.9-6.6,18.9-6.5l-18.8,6.8Z" fill="#c5b584"/><path d="M115.5,153.2c-.1-.1,7.2-1,16.2-2.1s16.2-1.9,16.3-1.8l-16.3,2.1C122.8,152.5,115.5,153.3,115.5,153.2Z" fill="#c5b584"/><path d="M108.5,119.2c0-.1,6.9-.4,15.3-.8l15.3-.4-15.3.7c-8.4.4-15.3.6-15.3.5Z" fill="#c5b584"/><path d="M101.8,86.3l14.3.2c7.9.2,14.3.5,14.3.6l-14.3-.3c-7.9-.2-14.3-.4-14.3-.5Z" fill="#c5b584"/><path d="M95.2,54.1c0-.1,5.9.4,13.2,1.1s13.2,1.2,13.2,1.3-5.9-.4-13.2-1S95.2,54.2,95.2,54.1Z" fill="#c5b584"/><path d="M88.7,22.6c.1-.1,5.5.7,12.2,1.7L113,26.4c0,.1-5.5-.7-12.2-1.8S88.7,22.6,88.7,22.6Z" fill="#c5b584"/><polygon points="69.8 26.7 73.6 28 69 17 63.9 29.8 67.8 26.7 63.2 247.3 59.4 246 64 257 69.1 244.2 65.2 247.3 69.8 26.7" fill="#31b304"/><polygon points="126 283 117.8 276 117.4 278.4 73.4 260.7 76.9 258.9 64 258 71.2 266 72.6 262.6 116.6 280.3 112.1 283.1 126 283" fill="#1f7aff"/><line x1="88.7" y1="21.3" x2="139.3" y2="265.7" fill="none" stroke="#b30469" stroke-miterlimit="10" stroke-width="2"/><polygon points="87 13 84.6 25.7 88.8 21.9 94.2 23.7 87 13" fill="#b30469"/><polygon points="141 274 133.8 263.3 139.2 265.1 143.4 261.3 141 274" fill="#b30469"/><text transform="matrix(0.94, -0.07, 0.01, 1, 52.96, 137.35)" font-size="16.47" fill="#31b304" font-family="SourceSansPro-SemiBold, Source Sans Pro" font-weight="700">h</text><text transform="matrix(0.78, 0.3, -0.83, 0.55, 73, 277.34)" font-size="19.37" fill="#1f7aff" font-family="SourceSansPro-SemiBold, Source Sans Pro" font-weight="700">1m</text><text transform="translate(115 137.4)" font-size="16" fill="#b30469" font-family="SourceSansPro-SemiBold, Source Sans Pro" font-weight="700">6m</text></svg>