<svg xmlns="http://www.w3.org/2000/svg" xmlns:xlink="http://www.w3.org/1999/xlink" viewBox="0 0 760 240"><defs><linearGradient id="a" x1="511.38" y1="244.5" x2="514.27" y2="-27.92" gradientUnits="userSpaceOnUse"><stop offset="0.32" stop-color="#306b97"/><stop offset="1" stop-color="#035273"/></linearGradient><linearGradient id="b" x1="528.66" y1="175.08" x2="530.56" y2="-2.77" gradientUnits="userSpaceOnUse"><stop offset="0" stop-color="#306b97"/><stop offset="0" stop-color="#306b97"/><stop offset="0.21" stop-color="#175d83"/><stop offset="0.4" stop-color="#085577"/><stop offset="0.55" stop-color="#035273"/></linearGradient><linearGradient id="c" x1="461.81" y1="100.59" x2="462.57" y2="29.59" gradientUnits="userSpaceOnUse"><stop offset="0" stop-color="#98c0e9"/><stop offset="0.23" stop-color="#a8caed"/><stop offset="0.67" stop-color="#d1e3f6"/><stop offset="0.81" stop-color="#e0ecf9"/><stop offset="1" stop-color="#e2edf9"/></linearGradient><linearGradient id="d" x1="500.46" y1="49.14" x2="500.74" y2="22.98" xlink:href="#c"/><linearGradient id="e" x1="497.68" y1="65" x2="498.01" y2="34.24" xlink:href="#c"/><linearGradient id="f" x1="449.9" y1="134.37" x2="472.27" y2="98.66" xlink:href="#b"/><linearGradient id="g" x1="512.58" y1="127.57" x2="513.34" y2="55.65" xlink:href="#c"/><linearGradient id="h" x1="482.17" y1="119.28" x2="482.65" y2="74.38" xlink:href="#c"/><linearGradient id="i" x1="563.82" y1="138.93" x2="564.46" y2="78.83" xlink:href="#c"/><linearGradient id="j" x1="581.09" y1="153.18" x2="581.86" y2="80.66" xlink:href="#c"/><linearGradient id="k" x1="528" y1="75.76" x2="528.2" y2="57.1" xlink:href="#c"/><linearGradient id="l" x1="539.45" y1="145.75" x2="540.41" y2="55.09" xlink:href="#c"/><linearGradient id="m" x1="424.09" y1="116.37" x2="435.95" y2="97.44" xlink:href="#b"/><linearGradient id="n" x1="354.55" y1="238.4" x2="363.03" y2="32.79" gradientTransform="translate(-0.2 -0.4) rotate(0.1)" xlink:href="#a"/><linearGradient id="o" x1="472.21" y1="98.52" x2="472.82" y2="83.67" gradientTransform="translate(-0.2 -0.4) rotate(0.1)" gradientUnits="userSpaceOnUse"><stop offset="0" stop-color="#98c0e9"/><stop offset="0.23" stop-color="#9bc2ea"/><stop offset="0.42" stop-color="#a6c8ec"/><stop offset="0.6" stop-color="#b7d3f0"/><stop offset="0.77" stop-color="#d0e2f5"/><stop offset="0.93" stop-color="#eff5fc"/><stop offset="1" stop-color="#fff"/></linearGradient><linearGradient id="p" x1="438.11" y1="120.77" x2="440.12" y2="72" gradientTransform="translate(-0.2 -0.4) rotate(0.1)" gradientUnits="userSpaceOnUse"><stop offset="0" stop-color="#98c0e9"/><stop offset="1" stop-color="#fff"/></linearGradient><linearGradient id="q" x1="384.33" y1="140.13" x2="386.5" y2="87.55" xlink:href="#o"/><linearGradient id="r" x1="411.13" y1="109.95" x2="411.54" y2="100.06" xlink:href="#o"/><linearGradient id="s" x1="431.87" y1="121.24" x2="432.44" y2="107.46" xlink:href="#o"/><linearGradient id="t" x1="336.47" y1="155.09" x2="337.26" y2="135.81" xlink:href="#o"/><linearGradient id="u" x1="417.51" y1="143.44" x2="418.47" y2="120.17" xlink:href="#o"/><linearGradient id="v" x1="353.48" y1="139.31" x2="353.83" y2="130.71" xlink:href="#o"/><linearGradient id="w" x1="322.32" y1="231.1" x2="326.72" y2="124.32" gradientTransform="translate(-0.2 -0.4) rotate(0.1)" xlink:href="#b"/><linearGradient id="x" x1="396.15" y1="230.55" x2="402.5" y2="76.71" gradientTransform="translate(-0.2 -0.4) rotate(0.1)" gradientUnits="userSpaceOnUse"><stop offset="0" stop-color="#1d6188"/><stop offset="0.55" stop-color="#035273"/></linearGradient><linearGradient id="y" x1="741.83" y1="270.19" x2="373.61" y2="56.83" gradientTransform="matrix(-1, 0, 0, 1, 982.43, 0)" xlink:href="#b"/><linearGradient id="z" x1="433.61" y1="241.58" x2="445.82" y2="-54.41" gradientTransform="matrix(-1, 0, 0, 1, 982.43, 0)" xlink:href="#a"/><linearGradient id="aa" x1="379.53" y1="148.04" x2="389.18" y2="49.22" gradientTransform="matrix(-1, 0, 0, 1, 982.43, 0)" xlink:href="#o"/><linearGradient id="ab" x1="422.21" y1="114.59" x2="417.34" y2="3.77" gradientTransform="matrix(-1, 0, 0, 1, 982.43, 0)" xlink:href="#o"/><linearGradient id="ac" x1="388.7" y1="225.34" x2="416.68" y2="48.42" gradientTransform="matrix(-1, 0, 0, 1, 982.43, 0)" xlink:href="#b"/><linearGradient id="ad" x1="483.13" y1="256.09" x2="380.29" y2="24.71" gradientTransform="matrix(-1, 0, 0, 1, 982.43, 0)" xlink:href="#b"/><linearGradient id="ae" x1="449.15" y1="134.45" x2="554.93" y2="134.45" gradientTransform="matrix(-1, 0, 0, 1, 982.43, 0)" xlink:href="#b"/><linearGradient id="af" x1="360.62" y1="116.69" x2="364.49" y2="73.49" gradientTransform="matrix(-1, 0, 0, 1, 982.43, 0)" xlink:href="#o"/><linearGradient id="ag" x1="395.56" y1="73.37" x2="407.46" y2="38.55" gradientTransform="matrix(-1, 0, 0, 1, 982.43, 0)" xlink:href="#o"/><linearGradient id="ah" x1="357.78" y1="152.91" x2="363.8" y2="85.64" gradientTransform="matrix(-1, 0, 0, 1, 982.43, 0)" xlink:href="#o"/><linearGradient id="ai" x1="466.9" y1="123.83" x2="471.18" y2="76.06" gradientTransform="matrix(-1, 0, 0, 1, 982.43, 0)" xlink:href="#o"/><linearGradient id="aj" x1="480.96" y1="136.06" x2="462.31" y2="93.97" gradientTransform="matrix(-1, 0, 0, 1, 982.43, 0)" xlink:href="#o"/><linearGradient id="ak" x1="485.77" y1="110.88" x2="477.05" y2="91.19" gradientTransform="matrix(-1, 0, 0, 1, 982.43, 0)" gradientUnits="userSpaceOnUse"><stop offset="0" stop-color="#98c0e9"/><stop offset="0.26" stop-color="#9bc2ea"/><stop offset="0.48" stop-color="#a6c8ec"/><stop offset="0.69" stop-color="#b7d3f0"/><stop offset="0.88" stop-color="#cfe2f5"/><stop offset="1" stop-color="#e2edf9"/></linearGradient><linearGradient id="al" x1="314.17" y1="226.17" x2="364.43" y2="141.74" gradientTransform="matrix(-1, 0, 0, 1, 982.43, 0)" xlink:href="#b"/><linearGradient id="am" x1="275.76" y1="231.79" x2="332.52" y2="136.43" gradientTransform="matrix(-1, 0, 0, 1, 982.43, 0)" xlink:href="#b"/><linearGradient id="an" x1="463.83" y1="120.29" x2="388.4" y2="-13.67" gradientTransform="matrix(-1, 0, 0, 1, 982.43, 0)" gradientUnits="userSpaceOnUse"><stop offset="0" stop-color="#98c0e9"/><stop offset="0.15" stop-color="#b2d0ef"/><stop offset="0.34" stop-color="#cce0f4"/><stop offset="0.51" stop-color="#dceaf8"/><stop offset="0.64" stop-color="#e2edf9"/></linearGradient></defs><title>Artboard 2</title><g opacity="0.3"><path d="M395.9,161.8s18.6-42.4,18.6-46.2,11.4-21.2,14.3-23.1,13.5-15.4,19.9-25S467.3,41,467.3,41s5.7-2.4,8.6-3.3,11.4-12.6,11.4-12.6,6.2-2.1,9.1-.2,12.3,6.3,12.3,6.3,10.2.3,11.1,3.1a92.8,92.8,0,0,1,3.9,16.8c.9,5.1,10.5,6,14.1,14.7S548,88.7,551.5,93.5s10.8-6.8,12.9-6.8,9.5,12.1,15.7,11.6c2.9-.2,16.4,23.1,16.4,23.1s15.7,18.3,21.4,19.2c1.8.3,5.2-.6,10,1-.3-.2-.1,92.9-.1,92.9l-223.4-1.8Z" fill="url(#a)"/><path d="M501.8,123.8S496,104.5,495,93s-1.5-22.2-2.9-24.1-1.8-28.8-1.8-28.8,1.1-2.9,2.2-2.4,5.3,3.3,5.3,3.3l-1-8.2L510,31.4s7.1-.5,8.5,0,4.7,11.1,4.7,11.1l2.8,9.1s3.2,1,4.3,3.4,7.1,9.1,8.9,12,7.5,17.3,7.5,17.3,3.6,4.8,4.8,9.2,2.4,21.6,5.2,35.6,11.8,39.4,11.8,39.4-10-13.4-14.6-20.2,3.6,6.2,3.9,15.9-18.2-18.3-20.7-21.2,0-1.9-4.3-12-1.4,5.3-1.4,5.3l-8.2-16.9s5,16.4-1.1,10.6-15.3-14.9-15.3-14.9-2.2,4.3.3,6.8.7,6.2.7,6.2Z" fill="url(#b)"/><path d="M466.4,48.7,449.7,75.6c-1.5,2.6-9.1,9.3-9.1,9.3s-5.3,10.1-2.8,10.6,9.7-8,11.6-8.4-1.2,11,.3,10.6,1.5-7.9,5.1-12c.5-.6,7.8-13.8,8.4-14.4s.6,13.8,1.3,12.2,1.3-2.4,2.1-4.1,1.7-3.3,2.5-4.7a11.6,11.6,0,0,1,2.1-3.1c.9,1.9.7,6.9,1.3,6.7a76,76,0,0,0,3.8-11.7c.4-1.5.9-3,1.2-4.5,1-3.6,1.6-6.6,1.8-7.6.4,1.8.7,5.2,1.8,7.9a90.5,90.5,0,0,0,5.8,11.9s-1.3-8.4-1.7-15.6c-.1-1.5.5-4.5.4-5.6s-2.1.4-2.3-.7,1.4-5.1,1.1-6.1c-1-3.1-2-2.9-2-2.9a4.9,4.9,0,0,0-3.2,1.5c-.7.7-1.5,1.3-2.1,1.1S468.9,46.5,466.4,48.7Z" fill="url(#c)"/><path d="M488.9,30.9s-1.1,2.4,3.9,2.4a9.3,9.3,0,0,1,5,1.6,18.5,18.5,0,0,1,4,3.7,45.6,45.6,0,0,0,2.8,4.4c2,3.1,4.6,6.4,5,4.8s-.4-10.6-.4-10.6l3.3-2.4s-9-4.8-11.5-6.3-5.7.5-5.7.5l-2.8,1.4Z" fill="url(#d)"/><path d="M490.3,40.1c.6.8.1,6.5.5,12.6s1.4,10.3,2,10.9,1.1-2.4,1.6-5.6,1.3-2.3,2.1-2.1,1.6-1.7,2.6-.8,3.4,3.1,4.1,2.8,4.6-4.5-.4-8.4c-.8-.6-.8,1.4-1.4.9s-1.3-2.5-2-3.1a5.7,5.7,0,0,0-3-1.5l-3.7-4.6Z" fill="url(#e)"/><path d="M441.8,119.9s6.1-11,12.1-16.8,10-10.1,10-10.1a11.4,11.4,0,0,1,0,6.7c-1.1,3.9-4.3,15.4-1.8,14.9s7.5-3.3,7.5-3.3v19.2Z" fill="url(#f)"/><path d="M503.5,70.6l-1.3,5.1-3.4-6-3.6-.5a130,130,0,0,1,4.4,13.5c1.4,5.8-.4,11.3,3.5,15.2,1.5,1.4-.3,5.2,2.5,10.3,4.9,8.9,14.6,19.9,13.2,15.7-.7-2.2-2-5.8-3.4-9.5s-3.9-4.1-4.6-6.2c-2-5.5-1.1-10.1.5-8.9,3.2,2.4,1.5,0,5.4,2.4,1.7,1,.2,4,2.7,8.7,1,2,4.2,5.2,5.3,7.2a13.1,13.1,0,0,0,5.9,6c-.4-1.8-2.8-5-3.6-7.5s-.8-7.2-2.3-11-3.6-8.7-4.8-10.1a18.9,18.9,0,0,1-2.4-4.5c-.5-1.4-2.3-3.7-2.7-4.9s.6-2.9.6-2.9,10.5,1.8,9.5-.2c-1.8-3.6-3.9-3.1-6.7-4.4-.7-.3-1.3-2.8-2-3.1s-2.7.8-3.9.3-3.4-3-4.3-3.3-2.4.8-2.4.8Z" fill="url(#g)"/><path d="M484.5,87.7l1.4-2.4,1.5-2.3c.7,6.3.7,12.1,3.2,15.4s2.5,13,2.5,13-3.2-5.7-4.3-5.7-4.7,8.6-5.7,7.2a3.8,3.8,0,0,0-3.2-1.3s-10.1,10-8.3,3.8c.6-2.1.5-5.2,1.5-7s3-4.5,3.9-6.3,3.5-.9,3.9-2.2a39.4,39.4,0,0,0,1.3-7.1c.3-2.4.5-4.5.5-4.5Z" fill="url(#h)"/><path d="M563,90.3s-.6,5.7-2.3,8.1-4.5.8-3.7,1.3,1,8.4,4.2,14.2a86.5,86.5,0,0,1,3.9,9.7c2.8,8,5.5,16.6,5,11.5-.7-7.7-2.8-27-2.8-27l4.2,3.9s-3.5-8.7-4.2-12S563,90.3,563,90.3Z" fill="url(#i)"/><path d="M572.1,95.9s3.9,7.2,7.1,8.1,10,11.1,10,11.1,5.4,8.2,5.4,13.5-8-3.9-7.7-1a19.5,19.5,0,0,1-.2,5.8s4.5,21.8.6,16c-1.9-2.8-3.4-8.1-4.5-13.4-.8-3.7-1.5-7.5-2.1-10.3a29.2,29.2,0,0,0-.8-3.4c-1.4-4.8-4.3-11.5-4.3-11.5s-2.1-1.5-3.5-5.8-3.6-10.6-3.6-10.6Z" fill="url(#j)"/><path d="M468,55.5a14.8,14.8,0,0,0-3.5,5.2c-.4,1-5,8.2-5,8.2s6-6.2,6.6-3.3.7,5,.7,5l3.5-8.9-.9-4.6Z" fill="#fff"/><path d="M523.5,61.2s8.6-1.9,9.7,1.5-4.3,4.8-4.3,4.8,4.6,10.6.7,6.7a41.6,41.6,0,0,1-6.8-9.6Z" fill="url(#k)"/><path d="M537.3,78.4l-2.9-5c-.5,3.5-1.5,9.5-2.9,8.8s-3.7.1-.7,12.4c.3,1.3-.5,3.7-.1,5.3s1.3,1.5,1.5,2.1c1.2,3.9,1.7,8.5,3.3,13.7.8,2.8-.1,6.6.8,9.4,4.5,15.3,8.9,21,7.6,14.5-.6-3.3,2.3-2.9.9-8.7-.6-2.8-4.1-4.5-4.7-7.3-1.9-8.9,1.4-4.8,2.9-3.5,3.1,2.6,7.8,17.1,7.3,11.7s-8.8-25.7-6.2-25a4,4,0,0,1,2.9,3.4l1.6-8.9a32.4,32.4,0,0,1-4-2.9c-1.4-1.2,2.8-9.3,2.8-9.3s-1.6,0-4.2-3.5-5.3-13.1-5.3-13.1Z" fill="url(#l)"/><path d="M430,115.1s8.9-8.6,11.4-13-9.3,1.9-9.3,1.9l-1.4-6.7-10.3,11.6Z" fill="url(#m)"/></g><g opacity="0.65"><path d="M495.3,104.8C486.2,99,462,78.6,462,78.6s-4.6,3.1-4.2,3.3c-3.4.9-12.1.7-12.1.7S435.4,89.1,433,90s-18.2,9.7-20.6,9.7-9.7-3.3-9.7-3.3l-13.3,9s-13.3,13.8-19.4,15.4c-3.2.9-15.8,6.5-26.4,13.5a117.1,117.1,0,0,0-17.1,13.9l-27.3,30.3c-12.3,13.6-29.2,25.5-35.4,26.4-3,.4-16.8,6.1-30.1,12.8S185,233,185,233l97.9-.6,88.8-2.3,151.8.3Z" fill="url(#n)"/><path d="M480,99.3c-3.3-2.6-4.8-5-6.9-6.7s-4.3-4.5-5.1-5.2.4,2.4,0,2.2l-3.4-3-.6,2.9,1.8,3.2,2.5,4.9-.3-3.2,3.3,1.6,2.4.4,2.7,1.7Z" fill="url(#o)"/><path d="M458.7,85.8l-3.6-1.1-2.2,2-1.5-1.6-5.1,2-4.6,3.3c-1.6,1.2-4.4,4.7-5.6,4.9s-1-2.9-1-2.9l-2.9,1.9-3.4,4.2-.7-1.6h-3.6l-3.4,3.6-.5,4.3-3.4,4.3s-5.4,13.4-3,11,6.3-7.3,6.3-7.3l1.6.8,4.5-1.2.3-9,4.5-1.2,6.4,3.7,7.5,7.7L440.5,103a8.1,8.1,0,0,1,2.1-2.4,50.1,50.1,0,0,0,4.6-4.5l3.9-1.2,5.2-2s.9,4.4,1.8,5.3l2.4,2V94.1l1.2-6.1,1.8-4.9Z" fill="url(#p)"/><path d="M373.7,122.5l5.7-3.7s2.1,2.9,2.4-.8,2.5-4.5,2.5-4.5l3.9-1.6.6-3.7,7.4-6.4,3-1.3.4.7,2.9-2.2-.3,2.9,2.6-1.7,2.2,1.1-1.9,4.1-5.8,6.4,1,8.3.9,8.5-3.7-2-1.8-3.3-2.1.8-2.7,5.3-1.8,1.6-2.8-2-5.4,4.5-3,1.6-.3-5.7-3.4,2s0-.4-3.9,4.1l-3.9,4.5-3.4-.8,2.8-5.3,1.1-3.2h-2l-1.9-.4,2.3-2.6,4.1-2Z" fill="url(#q)"/><path d="M408.7,102.1l3.4,3h2.8s1,1.5.6,1.6a43.4,43.4,0,0,0-3.1,3.7,25.1,25.1,0,0,0-1.8-1.9,5.7,5.7,0,0,0-1.3-.7l-3.2.6.9-2.8,1.6-.4-.8-.9v-.8l1-.4Z" fill="url(#r)"/><path d="M431.7,110.7l-3.3,7.4,2.3-1.9a5.1,5.1,0,0,0,.1,2.1c.3,1-.3,2.4-.2,3.2s4.4-6.4,4.4-6.4l-1-4.6-1.7,2.1Z" fill="url(#s)"/><path d="M340.4,139.9s-5.3,3.3-6.4,7.6-3.9,4-3.9,4-2.3,3.9-1.3,3.5l3.5-1.4s1.8,1.6,2,.4.5-4.5.5-4.5l2.1-1.6,2.7-3.7,4.4-.6v-3.3S339.6,140.1,340.4,139.9Z" fill="url(#t)"/><polygon points="415.2 135.6 411.9 142.6 414.8 143.7 418 139.4 419.2 135 424.1 130.7 422.9 125.3 414 130.1 411.1 132.3 415.2 135.6" fill="url(#u)"/><path d="M358.3,132.8s.8,8.1-1.6,6.5l-2.4-1.7-2.8.6-3.7,1.1,4.1-4.4Z" fill="url(#v)"/><path d="M298.1,204.9s4.5-10.3,9.3-12.4,10.1-8.2,10.1-8.2l8.9-11.4,8.5-11.4,3.6,3.3a58.7,58.7,0,0,0,8.1-3.8c2.4-1.6,3.6-5.4,4.8-6s2.5-2.7,2.5-2.7l8.4-4.9s-5.6,9.3-8.1,13.1-14.1,15.7-14.1,15.7l5.3,2.2-.9,4.9-4,6.5-8.5,7.6,1.6,8.2s-4-.6-4,4.8-5.3,19.1-5.3,19.1l-39.5,1,4.4-4.9s6.1-3.8,6.9-6,.4-8.1.4-8.1Z" fill="url(#w)"/><path d="M349.7,229s8.9-22.3,11.3-26.1,11.8-13.6,11.8-13.6l8.4-11.4,6.1-8.1,1.6-13.6,7.7-3.8,7.7-13,3.6-2.7s-1.6,3.2-5.6,10.3-6.5,17.4-6.5,17.4l3.6,10.8,3.2-3.2,5.7-2.2s.4,1.1,1.6,0,10.5-13.5,10.5-13.5l8.1-6,25.4-40.2,5.2,19.6-9.7,32.6-11.7,45.1,16.1,22.8-117.4-.7Z" fill="url(#x)"/></g><path d="M474.5,121.3s-21.1,8-25.3,7.1-14.4,5.8-16.2,5.8-10.5,8.5-15.8,12.1-18.9,10.2-18.9,10.2l-28.7,19.6s-39.1,14.8-40.8,14.8-27.4,14-28,16.8-38.5,11.4-38.5,11.4l-35.5,10.4L188,232l-8,2.3H425.2l27.6-64.8s3.5-20.1,6.5-24.7S474.5,121.3,474.5,121.3Z" fill="url(#y)"/><path d="M590.9,45.8l3.2-1.2,10.2,8.5,4,10.3c1.6,4.3,6.3,6.8,6.3,6.8s3.2-3.7,8.7,4.8,28,17.1,28,17.1l13.4,13.4,16,14.6,10.1,12.8,10,22,11.9,13.7,14.2,8.2,13,26.5,17.8,28.4H628.6Z" fill="#1a5b85"/><path d="M642.8,96.4c-4.1-5.5-9.5-1-9.5-1s-6.5-2.7-8.2-7.3-14.3-6.4-14.3-6.4L599,50.6l-5.9,1-5.9-18.3-7.9-2.8c-5.3-13-4.1-11.1-5.7-14.9-3.1-7.5-6.9-12-7.2-11.6C563.1,9.2,554,40.6,554,40.6l-7.7-1.8s-6.5,2.7-7.7,9.1-22.5,28.3-22.5,28.3l-7.1-.9s-18.9,29.3-20.1,36.6-5.9,30.2-5.9,30.2l-13.1-4.6-25.4,14.6s-8.9-7.3-12.5-7.3-20.1,26.5-25.4,30.2-43.9,61.5-43.9,61.5H734.5s-27.7-62.3-29.5-66.9-11.9-1.8-11.9-1.8l-10.6-19.2-13-33.9-4.8,10.1Z" fill="url(#z)"/><path d="M599.6,58.6s1.6,3.9,2.5,5.8.4,6.2.8,8.1,2.1,4.7,2.5,6.7a21.8,21.8,0,0,1,.1,6.8,8.2,8.2,0,0,0,3,6,56.9,56.9,0,0,1,2.3,5.5c-.1.1-4.8-2.9-5-2.3-1,2.6-.8,9.4-1.1,9.7a39.3,39.3,0,0,0-1.6-6.8c-.3-.6-.9,1.4-1.2.8s-.5-6.5-.8-7.3-1.7,1.6-1.7,1.6a58.6,58.6,0,0,0,.5-7.4c-.1-1.7-.9-1.1-1-2.8s-.1-6.5-.3-7.1-1.6,3-2.1,1.6.2-5.3,0-5.9-1.5,1.1-1.7.5a34.1,34.1,0,0,1-1.1-6.2s-1.9,7.3-2.1,7.6-1.2.6-1.1,2.7,1.4,3.5,1.4,5.4-.7,2.4-.7,4.2a41.9,41.9,0,0,1-1.3,9.8c-1.5-.3.5-5.9-1-12-.2-1.1-1.8,2.6-2,1.6s-1.8-8.4-1.8-8.5c-1.1-5.1-.3-8.7-.5-11.4-.4-6.7-4.7-21.4-4.7-21.4l-1-12.6,4.9,9.6,2.3-.8s.6,6,2.3,9.3c.7,1.2,3.1.6,3.2,1.4a29,29,0,0,0,2.3,4.9Z" fill="url(#aa)"/><path d="M568.7,49.6c-1.1-3.4.5-19.1.5-20.9s-4.4,7.9-4.4,7.9.4-2.6.8-7.7c.1-1.2-1.6-1.3-1.5-2.5.4-4.8,2.8-10.7,3.1-11.7s-2.7,2.4-5.5,8.5-3.2,10.1-5.1,13.7a22,22,0,0,0-2.2,8.3l3.8,2.2,1.5,6.3s1.2,13.4,0,17.1-5.1,11.5-5.5,14-.5,15.9-.5,15.9,2.7-9.2,3.7-10.3,3.4,4.1,3.2,1.7-.7-11.2-.7-10.2,3.9-1,4-1.6,2.2-6.6,2.2-6.6l1.7.5.6-5.6,1.4,1.4,1.4-2.9s-.7-8.9-1.1-10.7Z" fill="url(#ab)"/><path d="M595.6,138.4s-5.9-29.8-9-35.3-11.9-47.6-11.9-47.6l2,59.1-5.1-6s.8,15.2-2,15.2-7.9,4.3-7.9,4.3,6.3,20.1,6.7,23.7-1.2,9.2-1.2,11,4,26.8,9.5,34.1S601.2,228,601.2,228s-6.3-11.6-2-14.6a30.3,30.3,0,0,1,8.7-4.3l-9.1-18.3s-7.5-7.9-8.7-10.3,6.3-3.7,6.7-6.7-7.5-11-7.5-11l-2.7-9.1,4.3-3.7Z" fill="url(#ac)"/><path d="M548.7,111c-2.8,5.5-6.7,18.3-6.7,18.3s-3.2-7.3-4.8-6.7-7.9,23.7-12.2,29.8-16.2,40.9-17,43.9,4,1.2,4,1.2l15-20.7-2,17.1s13.4-18.3,15.8-19.5,9.5,15.8,9.5,15.8,3.5-15.2,3.5-17.7-3.1-9.7-3.5-13.4-.4-14.6-.4-14.6l-5.6-1.2s3.2-10.4,4.8-14.6,4.3-17.1,4.3-17.1l-4.7,4.3Z" fill="url(#ad)"/><path d="M427.5,175s4-7.9,9.5-12.8a43,43,0,0,1,11.8-7.3l-6.7,12.8s10.3-12.8,12.2-14.7,2.9-.4,4.8.4c-2.2,4.4-6,12.5-10.3,14.9s-9.5,16.4-7.9,18.3-3.9,15.8-.8,15.8,24.1-12.8,24.1-12.8l-3.9,15.3s14.6-6.8,18.5-10.4-2-2.4-2-2.4l11.1-8a85.5,85.5,0,0,0-4,14.7c-1.1,7.3,14.7-26.3,18.6-33.6s7.9-20.1,14.6-30.4,7.5-23.8,7.5-23.8l8.7-31.7s-8.7,1-15.3,2.4l12.1-17.6L516.3,72,508,73.2s-22.9,45.1-25.2,45.1-8.3,3-8.3,3-17,15.9-19,15.9-16.2,9.7-16.2,9.7-3.1,10.4-5.1,10.4S427.5,175,427.5,175Zm49.7-17.7c1-.9,2.2-6,3.3-11a24.8,24.8,0,0,0,4.2-5.4c1.6-3.1,2-19.6,4.8-22.6S502.9,97,502.9,97l6.1-5.5c-1,3.9-2.2,8.1-4.1,9.7-3.6,3.1-5.6,10.4-8.7,13.4s-2.8,23.2-5.1,27.5-5.6,15.2-7.2,17S475.3,159.1,477.2,157.3Z" fill="url(#ae)"/><polygon points="616.7 74.4 614.2 73.7 610.6 71.3 613.2 75.8 616.5 76.7 625.9 82.5 621 77.5 620.3 75.4 618.8 74 616.7 74.4" fill="url(#af)"/><path d="M575.4,30.8l-.6-5-3-4,.9,11.5,1.7,5L571.5,42s2.5.9,4.6,5.9c.4.9.6,4.5,1.1,5.6,2,4.9,3.7,10.9,3.7,10.9s-.8-14.2-1.4-16S578,33.7,578,33.7Z" fill="url(#ag)"/><path d="M618.9,86.2c-.6.1-3.7-2.4-4.3-2.6l-3.5-1.7s3.8,6,4.4,8.9,1.2,8.4,1,8.3.6-3.1,1.2-4.1,2.4-2.2,2.1-2.1,2.9,3,2.9,3l4.4,4.1-2.3-7.8a25,25,0,0,0-.3-3.6c-.2-.1-3-3.3-3.1-3.3S620.2,86.1,618.9,86.2Z" fill="url(#ah)"/><path d="M516.1,76.2s-5.9-2.7-7.1-.9-8.6,14.2-4.7,11.9a16.2,16.2,0,0,0,5.6-5.9l5.6-1.9,4.5-7.3Z" fill="url(#ai)"/><path d="M513.9,103s.4,8.9.3,12.6-1.8,16-1.5,14.6-2.1-14-2.8-14-2.7,7.4-2.7,8.3a62.6,62.6,0,0,1-1.9,6.6l-3.5,4.1s2.3-11.2,1.6-11.2-6.8,7.3-6.8,7.3a56.9,56.9,0,0,1,2.6-8,138.9,138.9,0,0,0,6.1-13c.8-2.1,4.2-12.3,5-13.7S514,92,514,92l.6,3.9Z" fill="url(#aj)"/><path d="M502.3,90.2s-5.1,10-4.8,11.2,2.5,10.5,2.5,10.5.4-8.2,1.2-9.4-1.2-3.4-.8-3.6a26.8,26.8,0,0,0,2.5-3.7Z" fill="url(#ak)"/><path d="M607.9,106.4s.3,1.8,4.1,9.2,9.2,17.8,9.2,17.8-5.6.4-5,1.8,7.4,9.5,9.4,13a86.6,86.6,0,0,1,4.5,9.4s-2.4,6.4-5.3,2.3-10.7-12.3-10.7-12.3,3.6,9.6,7.1,12.8,6.2,9.1,8,12.8,2.4,9.1,4.7,13.2,4.5,10.1,6.5,15.1-5-25.6-3.2-23.8,5.9,3.2,7.4,6.4a146.8,146.8,0,0,0,10.9,17.4,18.4,18.4,0,0,0,9.5,5.9s-13.6-26.5-15.7-33.3-8.9-12.8-9.7-15.1-9.5-15.1-11.3-19.2-7.4-15.1-9.2-18.3S607.9,106.4,607.9,106.4Z" fill="url(#al)"/><path d="M624.5,106.4c.8,0,13.3,4.1,13.3,4.1s10.3,12.4,12.1,18.3.9,14.2.9,14.2l-9.2-4.1A48.7,48.7,0,0,1,652,150.3c3.8,6.4,2.4,0,8.9,14.2s19.2,44.8,18.9,40.7,16.3,9.6,16.3,9.6-12.1-24.7-13.6-27.5,10.9,7.3-.6-10.5-17.8-24.7-20.1-31.1-5.4-16.9-6-18.3-6.2-10.9-9.4-16-9.8-10.5-11.3-12.3-1.8,5.9-1.8,5.9Z" fill="url(#am)"/><path d="M549.8,47.4s-.8-1.8-3.5,0a3.8,3.8,0,0,1-4.8,0S535.2,59,534,60.9s-1.9,18.2-3.9,17.6-3.2-7.3-3.2-7.3l-8.7,8.6-1.9,12.8s.7,5.9,1.1,12c.1,1,3.1-1.4,3.2-.5.3,5-1.2,12.8-1.8,13.3s1.4,20.9,1.4,20.9,2.4-7.7,4.9-13.7c.6-1.3,1.1-17.1,1.7-18.2s1.2,12.4,1.7,11.7c3.2-3.6,8.7-18.2,8.7-18.2s2,11.5,2,14.6,3.1,4.9,3.1,4.9,1.2-12.2,2-15.3,4.7-1.8,5.1-3.6-1.2-14-1.2-15.9,4-10.9,4.4-14.6,0-12.8,0-12.8a20.7,20.7,0,0,0-3.6,0C547.6,57.4,549.8,47.4,549.8,47.4Z" fill="url(#an)"/><path d="M543.7,60.7c-2.7,4-3.7,10.4-3.7,10.4l-2.6,3.6-3.1,12.5s4.5-10,5.7-11,3.3-8.8,3.3-8.8l.8,5.5s.8-5.8,1.6-7-1.8-4-1.8-4Z" fill="#fff"/></svg>