<svg width="400" height="180"><line x1="167" y1="29" x2="167" y2="153" fill="none" stroke="#1f7aff" stroke-miterlimit="10" stroke-width="2" opacity="0.5"/><path d="M41,56H167c34.6,29.7,85,63,157,78.5,16.5,3.6,39.3,6.2,54,6.5" fill="none" stroke="#b30469" stroke-miterlimit="10" stroke-width="2"/><line x1="41" y1="33.9" x2="41" y2="153" fill="none" stroke="#000" stroke-miterlimit="10" stroke-width="2"/><polygon points="41 24 35.3 37.9 41 34.6 46.7 37.9 41 24"/><line x1="378.1" y1="153" x2="41" y2="153" fill="none" stroke="#000" stroke-miterlimit="10" stroke-width="2"/><polygon points="388 153 374.1 147.3 377.4 153 374.1 158.7 388 153"/><path d="M19,12.7a3,3,0,0,0-2.1-.9c-1.9,0-3.1,2-3.1,4.1s.9,2.7,2.3,2.7a4.4,4.4,0,0,0,2.3-.7v1.6a5.5,5.5,0,0,1-2.5.7c-2.3,0-3.9-1.4-3.9-4.1s2.1-5.9,5-5.9a4.1,4.1,0,0,1,2.6.8Z"/><path d="M22.8,20.1H21.1l1.2-7.8-1.9.7V11.6l2.4-1.1h1.5Z"/><path d="M32.1,18H30.7l-.3,2H28.8l.3-2H24.7l.2-1.2,5-6.3h2l-1,6.1h1.4ZM30,12.4l-3.5,4.4h2.8Z"/><path d="M37.7,20.2c-1.1,0-1.8-.8-1.8-2.3s1.9-4.7,4-4.7a6.3,6.3,0,0,1,2.3.4l-.7,4.7v1.8H39.9V19A3.1,3.1,0,0,1,37.7,20.2Zm2.7-5.6h-.7c-1.1,0-2.2,1.2-2.2,3.1s.3,1.2.8,1.2,1-.4,1.6-1Z"/><path d="M45.6,14.6l-.5,3.1a4,4,0,0,0,0,.4c0,.4.2.6.7.6h.6v1.3H45.2c-1.1,0-1.8-.4-1.8-1.5a5.8,5.8,0,0,1,.1-.7l.5-3.3h-.9l.2-1.3h.9l.3-2.1,1.7-.3-.4,2.4h1.4v1.3Z"/><path d="M50.3,20.2a2.6,2.6,0,0,1-2.7-2.9c0-2.3,1.4-4.1,3.4-4.1a2.6,2.6,0,0,1,2.7,2.9C53.7,18.3,52.4,20.2,50.3,20.2Zm.6-5.8c-1.1,0-1.7,1.4-1.7,2.8s.5,1.6,1.1,1.6,1.7-1.4,1.7-2.8S51.6,14.4,51,14.4Z"/><path d="M59.9,20.1H58.3l.7-4.4v-.4c0-.4-.1-.7-.5-.7a3.2,3.2,0,0,0-1.7,1.3l-.6,4.2H54.5l.8-5.1V13.3h1.5v1.3a3.8,3.8,0,0,1,2.4-1.4,1.3,1.3,0,0,1,1.4,1.3,3.7,3.7,0,0,1,2.3-1.3,1.4,1.4,0,0,1,1.5,1.5,4,4,0,0,1,0,.5l-.8,4.8H62.1l.7-4.4a2.1,2.1,0,0,0,0-.4c0-.4-.2-.7-.6-.7a3.1,3.1,0,0,0-1.7,1.3Z"/><path d="M70,15.1a3.8,3.8,0,0,0-1.9-.6c-.5,0-.8.3-.8.6s.2.5.8.8,2,1.1,2,2.2-1,2.2-2.5,2.2a5.1,5.1,0,0,1-2.6-.8l.4-1.3a4.3,4.3,0,0,0,2.3.8c.5,0,.9-.3.9-.7s-.3-.6-.9-.9-1.9-1.1-1.9-2.1a2.1,2.1,0,0,1,2.4-2.1,4.9,4.9,0,0,1,2.3.6Z"/><path d="M12.8,60.2c-2.3,0-3.8-1.8-3.8-4.9s1.5-4.9,3.8-4.9,3.8,1.8,3.8,4.9S15,60.2,12.8,60.2Zm0-8.4c-1.3,0-2,1.2-2,3.5s.7,3.5,2,3.5,2-1.2,2-3.5S14,51.8,12.8,51.8Z" fill="#b30469"/><path d="M17.7,60.1V58h1.8v2Z" fill="#b30469"/><path d="M22,60.1V52.3l-1.9.7-.2-1.4,2.3-1.1h1.6v9.5Z" fill="#b30469"/><path d="M27.8,56.1c-1.3,0-2.3-1-2.3-2.8s1-2.8,2.3-2.8,2.3,1,2.3,2.8S29.1,56.1,27.8,56.1Zm0-4.6c-.7,0-1,.7-1,1.8s.4,1.8,1,1.8,1-.7,1-1.8S28.5,51.5,27.8,51.5Zm.9,8.7-1.1-.3,6-9.4,1.1.3Zm5.9,0c-1.3,0-2.3-1-2.3-2.8s1-2.8,2.3-2.8,2.3,1,2.3,2.8S35.9,60.2,34.6,60.2Zm0-4.5c-.7,0-1,.7-1,1.8s.3,1.8,1,1.8,1-.7,1-1.8S35.3,55.6,34.6,55.6Z" fill="#b30469"/><path d="M156.6,169.6v1.6h-1.5v-1a3,3,0,0,1-2.1,1.1c-1.1,0-1.9-.9-1.9-2.4s1.8-4.6,3.8-4.6h1l.5-3.1,1.7-.3Zm-1.9-3.9c-1.1,0-2.1,1.1-2.1,3s.3,1.2.9,1.2a2.4,2.4,0,0,0,1.5-.9l.5-3.2Z" fill="#1f7aff"/><path d="M159.7,168.4c0,1.1.5,1.7,1.5,1.7a4,4,0,0,0,2.2-.8v1.3a4.4,4.4,0,0,1-2.5.7,2.6,2.6,0,0,1-2.8-2.8c0-2.5,1.6-4.3,3.4-4.3s2.3,1,2.3,2.6a6,6,0,0,1-.1,1.2h-4Zm2.6-1.4c.1-1-.2-1.6-1-1.6s-1.2.7-1.5,1.6Z" fill="#1f7aff"/><path d="M166.5,171.3c-1.1,0-1.8-.8-1.8-2.3s1.9-4.7,4-4.7a6.3,6.3,0,0,1,2.3.4l-.7,4.7v1.8h-1.5v-1.1A3.1,3.1,0,0,1,166.5,171.3Zm2.7-5.6h-.7c-1.1,0-2.2,1.2-2.2,3.1s.3,1.2.8,1.2,1-.4,1.6-1Z" fill="#1f7aff"/><path d="M174.4,165.8l-.5,3.1a4,4,0,0,0,0,.4c0,.4.2.6.7.6h.6v1.3H174c-1.1,0-1.8-.4-1.8-1.5a5.8,5.8,0,0,1,.1-.7l.5-3.3h-.9l.2-1.3h.9l.3-2.1,1.7-.3-.4,2.4H176v1.3Z" fill="#1f7aff"/><path d="M182.7,166.4l-.8,4.8h-1.6l.7-4.4v-.4c0-.4-.2-.7-.6-.7a3.1,3.1,0,0,0-1.7,1.3l-.6,4.2h-1.6l1.6-9.8,1.7-.3-.7,4.5a3.6,3.6,0,0,1,2.3-1.3,1.4,1.4,0,0,1,1.5,1.5A3.7,3.7,0,0,1,182.7,166.4Z" fill="#1f7aff"/><path d="M369.2,165.8l-.5,3.1c0,.1,0,.3,0,.4s.2.6.7.6h.6v1.3h-1.2c-1.1,0-1.8-.4-1.8-1.5a5.8,5.8,0,0,1,.1-.7l.5-3.3h-.9l.2-1.3h.9l.3-2.1,1.7-.3-.4,2.4h1.4v1.3Z"/><path d="M372.9,171.2h-1.6l1.1-6.8H374Zm.6-7.9a1,1,0,1,1,0-1.9,1,1,0,1,1,0,1.9Z"/><path d="M380.1,171.2h-1.6l.7-4.4v-.4c0-.4-.1-.7-.5-.7a3.2,3.2,0,0,0-1.7,1.3l-.6,4.2h-1.6l.8-5.1v-1.6H377v1.3a3.8,3.8,0,0,1,2.4-1.4,1.3,1.3,0,0,1,1.4,1.3,3.7,3.7,0,0,1,2.3-1.3,1.4,1.4,0,0,1,1.5,1.5,4,4,0,0,1,0,.5l-.8,4.8h-1.6l.7-4.4a2.1,2.1,0,0,0,0-.4c0-.4-.2-.7-.6-.7a3.1,3.1,0,0,0-1.7,1.3Z"/><path d="M387.2,168.4c0,1.1.5,1.7,1.5,1.7a4,4,0,0,0,2.2-.8v1.3a4.4,4.4,0,0,1-2.5.7,2.6,2.6,0,0,1-2.8-2.8c0-2.5,1.6-4.3,3.4-4.3s2.3,1,2.3,2.6a6,6,0,0,1-.1,1.2h-4Zm2.6-1.4c.1-1-.2-1.6-1-1.6s-1.2.7-1.5,1.6Z"/></svg>