<?xml version="1.0" encoding="utf-8"?><svg fill="none" height="388.7" stroke-linecap="square" stroke-miterlimit="10" viewBox="0 0 922.6 597.691" width="600" xmlns="http://www.w3.org/2000/svg"><path d="M 329.417 474.27 L 508.693 474.27 L 508.693 548.601 L 329.417 548.601 Z" fill="#cfe2f3" class="parallelogram"/><path d="M 329.417 474.27 L 508.693 474.27 L 508.693 548.601 L 329.417 548.601 Z" stroke="#000" stroke-linecap="butt" stroke-linejoin="round"/><path d="M 489.74 99.205 L 631.126 99.205 L 631.126 240.591 L 489.74 240.591 Z" fill="#cfe2f3" class="parallelogram"/><path d="M 489.74 99.205 L 631.126 99.205 L 631.126 240.591 L 489.74 240.591 Z" stroke="#000" stroke-linecap="butt" stroke-linejoin="round"/><path d="M 252.664 358.803 L 153.861 508.378 L 91.845 467.401 L 190.648 317.826 Z" fill="#cfe2f3" class="parallelogram"/><path d="M 252.664 358.803 L 153.861 508.378 L 91.845 467.401 L 190.648 317.826 Z" stroke="#000" stroke-linecap="butt" stroke-linejoin="round"/><path d="M 399.378 389.249 L 408.488 352.808 L 561.173 352.808 L 552.063 389.249 Z" fill="#cfe2f3" class="parallelogram"/><path d="M 399.378 389.249 L 408.488 352.808 L 561.173 352.808 L 552.063 389.249 Z" stroke="#000" stroke-linecap="butt" stroke-linejoin="round"/><path d="M 748.975 300.217 L 659.711 204.812 L 731.684 93.382 L 820.948 188.787 Z" fill="#cfe2f3" class="parallelogram"/><path d="M 748.975 300.217 L 659.711 204.812 L 731.684 93.382 L 820.948 188.787 Z" stroke="#000" stroke-linecap="butt" stroke-linejoin="round"/><path d="M 336.706 227.462 L 356.021 110.864 L 394.651 110.864 L 413.966 227.462 Z" fill="#cfe2f3"/><path d="M 336.706 227.462 L 356.021 110.864 L 394.651 110.864 L 413.966 227.462 Z" stroke="#000" stroke-linecap="butt" stroke-linejoin="round"/><path d="M 624.979 431.509 L 655.585 370.297 L 789.995 370.297 L 820.601 431.509 L 789.995 492.722 L 655.585 492.722 Z" fill="#cfe2f3"/><path d="M 624.979 431.509 L 655.585 370.297 L 789.995 370.297 L 820.601 431.509 L 789.995 492.722 L 655.585 492.722 Z" stroke="#000" stroke-linecap="butt" stroke-linejoin="round"/><path d="M 94.761 118.16 L 221.564 74.428 L 348.367 74.428 L 94.761 161.892 Z" fill="#cfe2f3"/><path d="M 94.761 118.16 L 221.564 74.428 L 348.367 74.428 L 94.761 161.892 Z" stroke="#000" stroke-linecap="butt" stroke-linejoin="round"/><path d="M 292.982 350.866 C 292.982 332.619 307.774 317.827 326.021 317.827 C 334.784 317.827 343.187 321.308 349.383 327.504 C 355.579 333.7 359.06 342.104 359.06 350.866 C 359.06 369.113 344.268 383.906 326.021 383.906 C 307.774 383.906 292.982 369.113 292.982 350.866 Z" fill="#cfe2f3"/><path d="M 292.982 350.866 C 292.982 332.619 307.774 317.827 326.021 317.827 C 334.784 317.827 343.187 321.308 349.383 327.504 C 355.579 333.7 359.06 342.104 359.06 350.866 C 359.06 369.113 344.268 383.906 326.021 383.906 C 307.774 383.906 292.982 369.113 292.982 350.866 Z" stroke="#000" stroke-linecap="butt" stroke-linejoin="round"/><path d="M 30.892 242.042 L 111.302 198.31 L 191.711 242.042 L 111.302 285.774 Z" fill="#cfe2f3" class="parallelogram"/><path d="M 30.892 242.042 L 111.302 198.31 L 191.711 242.042 L 111.302 285.774 Z" stroke="#000" stroke-linecap="butt" stroke-linejoin="round"/></svg>