<svg height="538" viewBox="0 0 540 538" width="540" xmlns="http://www.w3.org/2000/svg"><g stroke="#242436" stroke-linecap="round" stroke-width="2"><g transform="translate(17.5 -40)"><path d="m60 114v-4"/><path d="m160 114v-4"/><path d="m260 114v-4"/><path d="m360 114v-4"/><path d="m460 114v-4"/><path d="m60 110h400"/></g><g transform="translate(17.5 81)"><path d="m60 114v-4"/><path d="m160 114v-4"/><path d="m260 114v-4"/><path d="m360 114v-4"/><path d="m460 114v-4"/><path d="m60 110h400"/></g><g transform="translate(17.5 227)"><path d="m60 114v-4"/><path d="m160 114v-4"/><path d="m260 114v-4"/><path d="m360 114v-4"/><path d="m460 114v-4"/><path d="m60 110h400"/></g><g transform="translate(17.5 398)"><path d="m60 114v-4"/><path d="m160 114v-4"/><path d="m260 114v-4"/><path d="m360 114v-4"/><path d="m460 114v-4"/><path d="m60 110h400"/></g></g><circle class="wheel-1" cx="77.5" cy="40" fill="none" r="25" stroke-linejoin="round" stroke-width="4.7811"/><path class="wheel-1" d="m77.5 15a25 25 0 1 0 25 25 25 25 0 0 0 -25-25zm-2 4.095703v14.199219a7 7 0 0 0 -2.804688 1.61914l-12.294921-7.09375a21 21 0 0 1 15.099609-8.724609zm4 0a21 21 0 0 1 15.099609 8.724609l-12.294921 7.09375a7 7 0 0 0 -2.804688-1.61914zm-21.105469 12.183594 12.300781 7.101562a6.825 6.825 0 0 0 0 3.238282l-12.300781 7.101562a21 21 0 0 1 0-17.441406zm38.210938 0a21 21 0 0 1 0 17.441406l-12.300781-7.101562a6.825 6.825 0 0 0 0-3.238282zm-19.15625 5.720703a3.0001074 3.0001074 0 1 1 .05078 6 3 3 0 0 1 -3-3 3 3 0 0 1 2.94922-3zm-4.753907 8.085938a7 7 0 0 0 2.804688 1.61914v14.199219a21 21 0 0 1 -15.099609-8.724609zm9.609376 0 12.294921 7.09375a21 21 0 0 1 -15.099609 8.724609v-14.199219a7 7 0 0 0 2.804688-1.61914z" fill="#b3b3b3" stroke-width=".5"/><path class="wheel-2" d="m77.5 110a37.5 37.5 0 1 0 37.5 37.5 37.5 37.5 0 0 0 -37.5-37.5zm3 6.1425a31.5 31.5 0 0 1 22.65 13.0875l-18.4425 10.6425a10.5 10.5 0 0 0 -4.2075-2.43zm-6 0v21.3a10.5 10.5 0 0 0 -4.2075 2.43l-18.4425-10.6425a31.5 31.5 0 0 1 22.65-13.0875zm-25.6575 44.4375a31.5 31.5 0 0 1 0-26.16l18.45 10.65a10.2375 10.2375 0 0 0 0 4.86zm25.6575 18.2775a31.5 31.5 0 0 1 -22.65-13.0875l18.4425-10.6425a10.5 10.5 0 0 0 4.2075 2.43zm-1.5-31.3575a4.5 4.5 0 1 1 4.5 4.5 4.5 4.5 0 0 1 -4.5-4.5zm7.5 31.3575v-21.3a10.5 10.5 0 0 0 4.2075-2.43l18.4425 10.6425a31.5 31.5 0 0 1 -22.65 13.0875zm7.2075-28.9275a10.2375 10.2375 0 0 0 0-4.86l18.45-10.65a31.5 31.5 0 0 1 0 26.16z" fill="#b3b3b3" stroke-width=".75"/><circle class="wheel-2" cx="77.5" cy="147.5" fill="none" r="37.5" stroke-linejoin="round" stroke-width="4.7811"/><path class="wheel-3" d="m77.5 231a50 50 0 1 0 50 50 50 50 0 0 0 -50-50zm-4 8.18945v28.40039a14 14 0 0 0 -5.609375 3.24024l-24.589844-14.18946a42 42 0 0 1 30.199219-17.45117zm8 0a42 42 0 0 1 30.19922 17.45117l-24.589845 14.18946a14 14 0 0 0 -5.609375-3.24024zm-42.210938 24.3711 24.601563 14.19922a13.65 13.65 0 0 0 0 6.48046l-24.601563 14.19922a42 42 0 0 1 0-34.8789zm76.421878 0a42 42 0 0 1 0 34.8789l-24.601565-14.19922a13.65 13.65 0 0 0 0-6.48046zm-38.160159 11.43945a6.0000537 6.0000537 0 0 1 -.050781 12 6 6 0 0 1 -6-6 6 6 0 0 1 6.050781-6zm-9.660156 16.16992a14 14 0 0 0 5.609375 3.24024v28.40039a42 42 0 0 1 -30.199219-17.45117zm19.21875 0 24.589845 14.18946a42 42 0 0 1 -30.19922 17.45117v-28.40039a14 14 0 0 0 5.609375-3.24024z" fill="#b3b3b3"/><circle class="wheel-3" cx="77.5" cy="281" fill="none" r="50" stroke-linejoin="round" stroke-width="4.7811"/><path class="wheel-4" d="m77.5 377a62.5 62.5 0 1 0 62.5 62.5 62.5 62.5 0 0 0 -62.5-62.5zm-5 10.23828v35.5a17.5 17.5 0 0 0 -7.011719 4.04883l-30.738281-17.73633a52.5 52.5 0 0 1 37.75-21.8125zm10 0a52.5 52.5 0 0 1 37.75 21.8125l-30.738281 17.73633a17.5 17.5 0 0 0 -7.011719-4.04883zm-52.761719 30.46094 30.75 17.75a17.0625 17.0625 0 0 0 0 8.10156l-30.75 17.75a52.5 52.5 0 0 1 0-43.60156zm95.523439 0a52.5 52.5 0 0 1 0 43.60156l-30.750001-17.75a17.0625 17.0625 0 0 0 0-8.10156zm-47.798829 14.30078a7.500023 7.500023 0 1 1 .037109 15 7.5 7.5 0 0 1 -7.5-7.5 7.5 7.5 0 0 1 7.462891-7.5zm-11.97461 20.21289a17.5 17.5 0 0 0 7.011719 4.04883v35.5a52.5 52.5 0 0 1 -37.75-21.8125zm24.023438 0 30.738281 17.73633a52.5 52.5 0 0 1 -37.75 21.8125v-35.5a17.5 17.5 0 0 0 7.011719-4.04883z" fill="#b3b3b3" stroke-width="1.25"/><circle class="wheel-4" cx="77.5" cy="439.5" fill="none" r="62.5" stroke-linejoin="round" stroke-width="4.7811"/></svg>