<svg id="Layer_1" data-name="Layer 1" xmlns="http://www.w3.org/2000/svg" viewBox="0 0 220 220"><title>pentagons-1</title><polygon points="151.3 68.6 162.8 48.2 139.5 6.8 110.1 27.6 130.8 57 151.3 68.6" fill="#822b9b"/><polygon points="151.1 -13.7 130.7 -25.2 89.3 -1.9 110.1 27.6 139.5 6.8 151.1 -13.7" fill="#b30469"/><polygon points="68.8 -13.4 57.3 7 80.6 48.3 110.1 27.6 89.3 -1.9 68.8 -13.4" fill="#5053cd"/><polygon points="69 68.8 89.5 80.3 130.8 57 110.1 27.6 80.6 48.3 69 68.8" fill="#1f7aff"/><polygon points="69 68.7 80.5 48.3 57.3 7 27.8 27.7 48.5 57.2 69 68.7" fill="#822b9b"/><polygon points="68.8 -13.5 48.4 -25 7 -1.8 27.8 27.7 57.2 7 68.8 -13.5" fill="#b30469"/><polygon points="-13.5 -13.3 -25 7.1 -1.7 48.4 27.8 27.7 7 -1.8 -13.5 -13.3" fill="#5053cd"/><polygon points="-13.2 68.9 7.2 80.4 48.5 57.2 27.8 27.7 -1.7 48.5 -13.2 68.9" fill="#1f7aff"/><polygon points="233.5 68.4 245 48 221.8 6.7 192.3 27.4 213 56.9 233.5 68.4" fill="#822b9b"/><polygon points="233.3 -13.8 212.9 -25.3 171.5 -2.1 192.3 27.4 221.7 6.7 233.3 -13.8" fill="#b30469"/><polygon points="151 -13.6 139.5 6.8 162.8 48.1 192.3 27.4 171.5 -2.1 151 -13.6" fill="#5053cd"/><polygon points="151.3 68.6 171.7 80.1 213 56.9 192.3 27.4 162.8 48.2 151.3 68.6" fill="#1f7aff"/><polygon points="151.4 150.9 162.9 130.4 139.7 89.1 110.2 109.8 131 139.3 151.4 150.9" fill="#822b9b"/><polygon points="151.2 68.6 130.8 57.1 89.5 80.4 110.2 109.8 139.7 89.1 151.2 68.6" fill="#b30469"/><polygon points="69 68.8 57.5 89.2 80.7 130.6 110.2 109.8 89.4 80.4 69 68.8" fill="#5053cd"/><polygon points="69.2 151.1 89.6 162.6 130.9 139.3 110.2 109.8 80.7 130.6 69.2 151.1" fill="#1f7aff"/><polygon points="69.1 151 80.6 130.6 57.4 89.3 27.9 110 48.7 139.5 69.1 151" fill="#822b9b"/><polygon points="68.9 68.8 48.5 57.3 7.2 80.5 27.9 110 57.4 89.2 68.9 68.8" fill="#b30469"/><polygon points="-13.3 69 -24.8 89.4 -1.6 130.7 27.9 110 7.2 80.5 -13.3 69" fill="#5053cd"/><polygon points="-13.1 151.2 7.3 162.7 48.7 139.5 27.9 110 -1.5 130.7 -13.1 151.2" fill="#1f7aff"/><polygon points="233.7 150.7 245.2 130.3 221.9 89 192.4 109.7 213.2 139.2 233.7 150.7" fill="#822b9b"/><polygon points="233.4 68.5 213 57 171.7 80.2 192.4 109.7 221.9 88.9 233.4 68.5" fill="#b30469"/><polygon points="151.2 68.7 139.7 89.1 162.9 130.4 192.4 109.7 171.7 80.2 151.2 68.7" fill="#5053cd"/><polygon points="151.4 150.9 171.8 162.4 213.2 139.2 192.4 109.7 163 130.4 151.4 150.9" fill="#1f7aff"/><polygon points="151.6 233.1 163.1 212.7 139.8 171.4 110.3 192.1 131.1 221.6 151.6 233.1" fill="#822b9b"/><polygon points="151.4 150.9 131 139.4 89.6 162.6 110.3 192.1 139.8 171.4 151.4 150.9" fill="#b30469"/><polygon points="69.1 151.1 57.6 171.5 80.9 212.9 110.3 192.1 89.6 162.7 69.1 151.1" fill="#5053cd"/><polygon points="69.3 233.3 89.7 244.9 131.1 221.6 110.3 192.1 80.9 212.9 69.3 233.3" fill="#1f7aff"/><polygon points="69.3 233.3 80.8 212.9 57.5 171.5 28.1 192.3 48.8 221.7 69.3 233.3" fill="#822b9b"/><polygon points="69.1 151 48.7 139.5 7.3 162.8 28.1 192.3 57.5 171.5 69.1 151" fill="#b30469"/><polygon points="-13.2 151.3 -24.7 171.7 -1.4 213 28.1 192.3 7.3 162.8 -13.2 151.3" fill="#5053cd"/><polygon points="-12.9 233.5 7.5 245 48.8 221.8 28.1 192.3 -1.4 213 -12.9 233.5" fill="#1f7aff"/><polygon points="233.8 233 245.3 212.6 222.1 171.2 192.6 192 213.3 221.4 233.8 233" fill="#822b9b"/><polygon points="233.6 150.7 213.2 139.2 171.8 162.5 192.6 192 222 171.2 233.6 150.7" fill="#b30469"/><polygon points="151.3 151 139.8 171.4 163.1 212.7 192.6 192 171.8 162.5 151.3 151" fill="#5053cd"/><polygon points="151.6 233.2 172 244.7 213.3 221.4 192.6 192 163.1 212.7 151.6 233.2" fill="#1f7aff"/></svg>