<svg id="Layer_1" data-name="Layer 1" xmlns="http://www.w3.org/2000/svg" viewBox="0 0 200 120"><title>icosahedron</title><polygon points="36.5 44.2 18.3 75.8 54.8 75.8 36.5 44.2" fill="#ff941f"/><polygon points="72.8 44.2 54.6 75.8 91.1 75.8 72.8 44.2" fill="#ff941f"/><polygon points="109.2 44.2 90.9 75.8 127.4 75.8 109.2 44.2" fill="#ff941f"/><polygon points="91 12.6 72.8 44.2 109.2 44.2 91 12.6" fill="#ff941f"/><polygon points="54.5 75.8 72.8 44.2 36.3 44.2 54.5 75.8" fill="#bf6f17"/><polygon points="90.8 75.8 109.1 44.2 72.6 44.2 90.8 75.8" fill="#bf6f17"/><polygon points="145.5 44.2 127.2 75.8 163.7 75.8 145.5 44.2" fill="#ff941f"/><polygon points="181.8 44.2 163.5 75.8 200 75.8 181.8 44.2" fill="#ff941f"/><polygon points="127.2 75.8 145.4 44.2 108.9 44.2 127.2 75.8" fill="#bf6f17"/><polygon points="18.4 12.6 0.1 44.2 36.6 44.2 18.4 12.6" fill="#ff941f"/><polygon points="54.7 12.6 36.5 44.2 72.9 44.2 54.7 12.6" fill="#ff941f"/><polygon points="127.3 12.6 109.1 44.2 145.5 44.2 127.3 12.6" fill="#ff941f"/><polygon points="163.6 12.6 145.4 44.2 181.8 44.2 163.6 12.6" fill="#ff941f"/><polygon points="163.5 75.8 181.7 44.2 145.2 44.2 163.5 75.8" fill="#bf6f17"/><polygon points="18.2 75.8 36.5 44.2 0 44.2 18.2 75.8" fill="#bf6f17"/><polygon points="72.7 107.4 90.9 75.8 54.5 75.8 72.7 107.4" fill="#bf6f17"/><polygon points="109 107.4 127.2 75.8 90.8 75.8 109 107.4" fill="#bf6f17"/><polygon points="145.3 107.4 163.5 75.8 127.1 75.8 145.3 107.4" fill="#bf6f17"/><polygon points="181.6 107.4 199.9 75.8 163.4 75.8 181.6 107.4" fill="#bf6f17"/><polygon points="36.4 107.4 54.6 75.8 18.2 75.8 36.4 107.4" fill="#bf6f17"/><path d="M39.5,21.7a21.2,21.2,0,0,0-14,2.7" fill="none" stroke="#b3b3b3" stroke-miterlimit="10" stroke-width="2"/><polygon points="47.5 24.4 37.6 16.2 38.9 21.7 34.7 25.5 47.5 24.4" fill="#b3b3b3"/><path d="M75.5,21.7a21.2,21.2,0,0,0-14,2.7" fill="none" stroke="#b3b3b3" stroke-miterlimit="10" stroke-width="2"/><polygon points="83.5 24.4 73.6 16.2 74.9 21.7 70.7 25.5 83.5 24.4" fill="#b3b3b3"/><path d="M112.1,21.7A21.4,21.4,0,0,0,98,24.4" fill="none" stroke="#b3b3b3" stroke-miterlimit="10" stroke-width="2"/><polygon points="120.1 24.4 110.2 16.2 111.4 21.7 107.2 25.5 120.1 24.4" fill="#b3b3b3"/><path d="M148.1,21.7A21.4,21.4,0,0,0,134,24.4" fill="none" stroke="#b3b3b3" stroke-miterlimit="10" stroke-width="2"/><polygon points="156.1 24.4 146.2 16.2 147.4 21.7 143.2 25.5 156.1 24.4" fill="#b3b3b3"/><path d="M39.5,21.7a21.2,21.2,0,0,0-14,2.7" fill="none" stroke="#b3b3b3" stroke-miterlimit="10" stroke-width="2"/><polygon points="47.5 24.4 37.6 16.2 38.9 21.7 34.7 25.5 47.5 24.4" fill="#b3b3b3"/><path d="M75.5,21.7a21.2,21.2,0,0,0-14,2.7" fill="none" stroke="#b3b3b3" stroke-miterlimit="10" stroke-width="2"/><polygon points="83.5 24.4 73.6 16.2 74.9 21.7 70.7 25.5 83.5 24.4" fill="#b3b3b3"/><path d="M112.1,21.7A21.4,21.4,0,0,0,98,24.4" fill="none" stroke="#b3b3b3" stroke-miterlimit="10" stroke-width="2"/><polygon points="120.1 24.4 110.2 16.2 111.4 21.7 107.2 25.5 120.1 24.4" fill="#b3b3b3"/><path d="M148.1,21.7A21.4,21.4,0,0,0,134,24.4" fill="none" stroke="#b3b3b3" stroke-miterlimit="10" stroke-width="2"/><polygon points="156.1 24.4 146.2 16.2 147.4 21.7 143.2 25.5 156.1 24.4" fill="#b3b3b3"/><path d="M160.4,98.2a21.6,21.6,0,0,0,14.1-2.7" fill="none" stroke="#b3b3b3" stroke-miterlimit="10" stroke-width="2"/><polygon points="152.4 95.5 162.3 103.7 161.1 98.2 165.2 94.4 152.4 95.5" fill="#b3b3b3"/><path d="M124.4,98.2a21.6,21.6,0,0,0,14.1-2.7" fill="none" stroke="#b3b3b3" stroke-miterlimit="10" stroke-width="2"/><polygon points="116.4 95.5 126.3 103.7 125.1 98.2 129.2 94.4 116.4 95.5" fill="#b3b3b3"/><path d="M87.8,98.2a21.4,21.4,0,0,0,14.1-2.7" fill="none" stroke="#b3b3b3" stroke-miterlimit="10" stroke-width="2"/><polygon points="79.8 95.5 89.7 103.7 88.5 98.2 92.7 94.4 79.8 95.5" fill="#b3b3b3"/><path d="M51.8,98.2a21.4,21.4,0,0,0,14.1-2.7" fill="none" stroke="#b3b3b3" stroke-miterlimit="10" stroke-width="2"/><polygon points="43.8 95.5 53.7 103.7 52.5 98.2 56.7 94.4 43.8 95.5" fill="#b3b3b3"/></svg>