<svg id="Layer_1" data-name="Layer 1" xmlns="http://www.w3.org/2000/svg" viewBox="0 0 200 120"><title>tetrahedron</title><polygon points="99.8 90 125.8 45 73.8 45 99.8 90" fill="#bf6f17"/><polygon points="100 0 74 45 126 45 100 0" fill="#ff941f"/><polygon points="125.9 45 99.9 90 151.9 90 125.9 45" fill="#ff941f"/><polygon points="74.1 45 48.1 90 100.1 90 74.1 45" fill="#ff941f"/><path d="M142.3,56.6A22,22,0,0,0,125,21a22.2,22.2,0,0,0-10.9,2.9" fill="none" stroke="#b3b3b3" stroke-miterlimit="10" stroke-width="2"/><polygon points="135.9 62.1 148 57.6 142.6 56 141.4 50.4 135.9 62.1" fill="#b3b3b3"/><path d="M76.9,24.7a21.4,21.4,0,0,0-14.1,2.7,22,22,0,0,0-8.1,30,22.2,22.2,0,0,0,8,8.1" fill="none" stroke="#b3b3b3" stroke-miterlimit="10" stroke-width="2"/><polygon points="84.9 27.4 74.9 19.2 76.2 24.7 72 28.5 84.9 27.4" fill="#b3b3b3"/><path d="M79.5,98.1a21.4,21.4,0,0,0,9.4,10.8,21.9,21.9,0,0,0,30-8.1,22.3,22.3,0,0,0,3-10.9" fill="none" stroke="#b3b3b3" stroke-miterlimit="10" stroke-width="2"/><polygon points="77.9 89.8 75.7 102.5 79.8 98.6 85.2 100.4 77.9 89.8" fill="#b3b3b3"/></svg>