<svg id="Layer_1" data-name="Layer 1" xmlns="http://www.w3.org/2000/svg" viewBox="0 0 200 120"><title>triangles-6</title><polygon points="184 100 207 140 161 140 184 100" fill="#ff941f"/><polygon points="207 140 184 100 230 100 207 140" fill="#bf6f17"/><polygon points="184 20 207 60 161 60 184 20" fill="#ff941f"/><polygon points="207 60 184 20 230 20 207 60" fill="#bf6f17"/><polygon points="207 60 230 100 184 100 207 60" fill="#ff941f"/><polygon points="184 100 161 60 207 60 184 100" fill="#bf6f17"/><polygon points="207 -20 230 20 184 20 207 -20" fill="#ff941f"/><polygon points="184 20 161 -20 207 -20 184 20" fill="#bf6f17"/><polygon points="92 100 115 140 69 140 92 100" fill="#ff941f"/><polygon points="138 100 161 140 115 140 138 100" fill="#ff941f"/><polygon points="115 140 92 100 138 100 115 140" fill="#bf6f17"/><polygon points="161 140 138 100 184 100 161 140" fill="#bf6f17"/><polygon points="92 20 115 60 69 60 92 20" fill="#ff941f"/><polygon points="138 20 161 60 115 60 138 20" fill="#ff941f"/><polygon points="115 60 92 20 138 20 115 60" fill="#bf6f17"/><polygon points="161 60 138 20 184 20 161 60" fill="#bf6f17"/><polygon points="115 60 138 100 92 100 115 60" fill="#ff941f"/><polygon points="161 60 184 100 138 100 161 60" fill="#ff941f"/><polygon points="138 100 115 60 161 60 138 100" fill="#bf6f17"/><polygon points="92 100 69 60 115 60 92 100" fill="#bf6f17"/><polygon points="115 -20 138 20 92 20 115 -20" fill="#ff941f"/><polygon points="161 -20 184 20 138 20 161 -20" fill="#ff941f"/><polygon points="138 20 115 -20 161 -20 138 20" fill="#bf6f17"/><polygon points="92 20 69 -20 115 -20 92 20" fill="#bf6f17"/><polygon points="0 100 23 140 -23 140 0 100" fill="#ff941f"/><polygon points="46 100 69 140 23 140 46 100" fill="#ff941f"/><polygon points="23 140 0 100 46 100 23 140" fill="#bf6f17"/><polygon points="69 140 46 100 92 100 69 140" fill="#bf6f17"/><polygon points="0 20 23 60 -23 60 0 20" fill="#ff941f"/><polygon points="46 20 69 60 23 60 46 20" fill="#ff941f"/><polygon points="23 60 0 20 46 20 23 60" fill="#bf6f17"/><polygon points="69 60 46 20 92 20 69 60" fill="#bf6f17"/><polygon points="23 60 46 100 0 100 23 60" fill="#ff941f"/><polygon points="69 60 92 100 46 100 69 60" fill="#ff941f"/><polygon points="46 100 23 60 69 60 46 100" fill="#bf6f17"/><polygon points="0 100 -23 60 23 60 0 100" fill="#bf6f17"/><polygon points="23 -20 46 20 0 20 23 -20" fill="#ff941f"/><polygon points="69 -20 92 20 46 20 69 -20" fill="#ff941f"/><polygon points="46 20 23 -20 69 -20 46 20" fill="#bf6f17"/><polygon points="0 20 -23 -20 23 -20 0 20" fill="#bf6f17"/></svg>