<svg id="Layer_1" data-name="Layer 1" xmlns="http://www.w3.org/2000/svg" viewBox="0 0 200 120"><title>cube</title><rect x="20" y="40" width="40" height="40" fill="#175cbf"/><rect x="60" y="40" width="40" height="40" fill="#1f7aff"/><rect x="100" y="80" width="40" height="40" fill="#1f7aff"/><rect x="100" y="40" width="40" height="40" fill="#175cbf"/><rect x="100" width="40" height="40" fill="#1f7aff"/><rect x="140" y="40" width="40" height="40" fill="#1f7aff"/><path d="M160.4,31.7A22.1,22.1,0,0,0,140,18" fill="none" stroke="#b3b3b3" stroke-miterlimit="10" stroke-width="2"/><polygon points="162 40 164.2 27.3 160 31.1 154.6 29.4 162 40" fill="#b3b3b3"/><path d="M91.7,19.6A22.1,22.1,0,0,0,78,40" fill="none" stroke="#b3b3b3" stroke-miterlimit="10" stroke-width="2"/><polygon points="100 18 87.3 15.8 91.1 20 89.4 25.4 100 18" fill="#b3b3b3"/><path d="M148.3,100.4A22.1,22.1,0,0,0,162,80" fill="none" stroke="#b3b3b3" stroke-miterlimit="10" stroke-width="2"/><polygon points="140 102 152.7 104.2 148.9 100 150.6 94.6 140 102" fill="#b3b3b3"/><path d="M79.6,88.3A22.1,22.1,0,0,0,100,102" fill="none" stroke="#b3b3b3" stroke-miterlimit="10" stroke-width="2"/><polygon points="78 80 75.8 92.7 80 88.9 85.4 90.6 78 80" fill="#b3b3b3"/></svg>