<svg id="Layer_1" data-name="Layer 1" xmlns="http://www.w3.org/2000/svg" viewBox="0 0 200 120"><title>hexagons</title><polygon points="-9 54 11 66 11 88 -9 100 -29 88 -29 66 -9 54" fill="#86034f"/><polygon points="31 54 51 66 51 88 31 100 11 88 11 66 31 54" fill="#c23687"/><polygon points="11 20 31 32 31 54 11 66 -9 54 -9 32 11 20" fill="#b30469"/><polygon points="-9 -14 11 -2 11 20 -9 32 -29 20 -29 -2 -9 -14" fill="#86034f"/><polygon points="31 -14 51 -2 51 20 31 32 11 20 11 -2 31 -14" fill="#c23687"/><polygon points="111 -14 131 -2 131 20 111 32 91 20 91 -2 111 -14" fill="#86034f"/><polygon points="151 -14 171 -2 171 20 151 32 131 20 131 -2 151 -14" fill="#c23687"/><polygon points="111 54 131 66 131 88 111 100 91 88 91 66 111 54" fill="#86034f"/><polygon points="151 54 171 66 171 88 151 100 131 88 131 66 151 54" fill="#c23687"/><polygon points="131 20 151 32 151 54 131 66 111 54 111 32 131 20" fill="#b30469"/><polygon points="131 88 151 100 151 122 131 134 111 122 111 100 131 88" fill="#b30469"/><polygon points="11 88 31 100 31 122 11 134 -9 122 -9 100 11 88" fill="#b30469"/><polygon points="51 20 71 32 71 54 51 66 31 54 31 32 51 20" fill="#86034f"/><polygon points="91 20 111 32 111 54 91 66 71 54 71 32 91 20" fill="#c23687"/><polygon points="71 -14 91 -2 91 20 71 32 51 20 51 -2 71 -14" fill="#b30469"/><polygon points="51 88 71 100 71 122 51 134 31 122 31 100 51 88" fill="#86034f"/><polygon points="91 88 111 100 111 122 91 134 71 122 71 100 91 88" fill="#c23687"/><polygon points="71 54 91 66 91 88 71 100 51 88 51 66 71 54" fill="#b30469"/><polygon points="171 20 191 32 191 54 171 66 151 54 151 32 171 20" fill="#86034f"/><polygon points="211 20 231 32 231 54 211 66 191 54 191 32 211 20" fill="#c23687"/><polygon points="191 -14 211 -2 211 20 191 32 171 20 171 -2 191 -14" fill="#b30469"/><polygon points="171 88 191 100 191 122 171 134 151 122 151 100 171 88" fill="#86034f"/><polygon points="211 88 231 100 231 122 211 134 191 122 191 100 211 88" fill="#c23687"/><polygon points="191 54 211 66 211 88 191 100 171 88 171 66 191 54" fill="#b30469"/></svg>