<svg id="Layer_1" data-name="Layer 1" xmlns="http://www.w3.org/2000/svg" viewBox="0 0 360 240"><title>3</title><polygon points="0 30 15 56 -15 56 0 30" fill="#ff941f"/><polygon points="15 56 0 30 30 30 15 56" fill="#e66438"/><polygon points="30 30 45 56 15 56 30 30" fill="#ff941f"/><polygon points="45 56 30 30 60 30 45 56" fill="#e66438"/><rect width="30" height="30" fill="#5053cd"/><rect x="30" width="30" height="30" fill="#1f7aff"/><polygon points="60 30 75 56 45 56 60 30" fill="#ff941f"/><polygon points="75 56 60 30 90 30 75 56" fill="#e66438"/><polygon points="90 30 105 56 75 56 90 30" fill="#ff941f"/><polygon points="105 56 90 30 120 30 105 56" fill="#e66438"/><rect x="60" width="30" height="30" fill="#5053cd"/><rect x="90" width="30" height="30" fill="#1f7aff"/><polygon points="120 30 135 56 105 56 120 30" fill="#ff941f"/><polygon points="135 56 120 30 150 30 135 56" fill="#e66438"/><polygon points="150 30 165 56 135 56 150 30" fill="#ff941f"/><polygon points="165 56 150 30 180 30 165 56" fill="#e66438"/><rect x="120" width="30" height="30" fill="#5053cd"/><rect x="150" width="30" height="30" fill="#1f7aff"/><polygon points="180 30 195 56 165 56 180 30" fill="#ff941f"/><polygon points="195 56 180 30 210 30 195 56" fill="#e66438"/><polygon points="210 30 225 56 195 56 210 30" fill="#ff941f"/><polygon points="225 56 210 30 240 30 225 56" fill="#e66438"/><rect x="180" width="30" height="30" fill="#5053cd"/><rect x="210" width="30" height="30" fill="#1f7aff"/><polygon points="240 30 255 56 225 56 240 30" fill="#ff941f"/><polygon points="255 56 240 30 270 30 255 56" fill="#e66438"/><polygon points="270 30 285 56 255 56 270 30" fill="#ff941f"/><polygon points="285 56 270 30 300 30 285 56" fill="#e66438"/><rect x="240" width="30" height="30" fill="#5053cd"/><rect x="270" width="30" height="30" fill="#1f7aff"/><polygon points="300 30 315 56 285 56 300 30" fill="#ff941f"/><polygon points="315 56 300 30 330 30 315 56" fill="#e66438"/><polygon points="330 30 345 56 315 56 330 30" fill="#ff941f"/><polygon points="360 30 375 56 345 56 360 30" fill="#ff941f"/><polygon points="345 56 330 30 360 30 345 56" fill="#e66438"/><rect x="300" width="30" height="30" fill="#5053cd"/><rect x="330" width="30" height="30" fill="#1f7aff"/><polygon points="15 86 30 112 0 112 15 86" fill="#ff941f"/><polygon points="30 112 15 86 45 86 30 112" fill="#e66438"/><polygon points="45 86 60 112 30 112 45 86" fill="#ff941f"/><polygon points="60 112 45 86 75 86 60 112" fill="#e66438"/><rect x="15" y="56" width="30" height="30" fill="#5053cd"/><rect x="45" y="56" width="30" height="30" fill="#1f7aff"/><polygon points="0 112 -15 86 15 86 0 112" fill="#e66438"/><rect x="-15" y="56" width="30" height="30" fill="#1f7aff"/><polygon points="75 86 90 112 60 112 75 86" fill="#ff941f"/><polygon points="90 112 75 86 105 86 90 112" fill="#e66438"/><polygon points="105 86 120 112 90 112 105 86" fill="#ff941f"/><polygon points="120 112 105 86 135 86 120 112" fill="#e66438"/><rect x="75" y="56" width="30" height="30" fill="#5053cd"/><rect x="105" y="56" width="30" height="30" fill="#1f7aff"/><polygon points="135 86 150 112 120 112 135 86" fill="#ff941f"/><polygon points="150 112 135 86 165 86 150 112" fill="#e66438"/><polygon points="165 86 180 112 150 112 165 86" fill="#ff941f"/><polygon points="180 112 165 86 195 86 180 112" fill="#e66438"/><rect x="135" y="56" width="30" height="30" fill="#5053cd"/><rect x="165" y="56" width="30" height="30" fill="#1f7aff"/><polygon points="195 86 210 112 180 112 195 86" fill="#ff941f"/><polygon points="210 112 195 86 225 86 210 112" fill="#e66438"/><polygon points="225 86 240 112 210 112 225 86" fill="#ff941f"/><polygon points="240 112 225 86 255 86 240 112" fill="#e66438"/><rect x="195" y="56" width="30" height="30" fill="#5053cd"/><rect x="225" y="56" width="30" height="30" fill="#1f7aff"/><polygon points="255 86 270 112 240 112 255 86" fill="#ff941f"/><polygon points="270 112 255 86 285 86 270 112" fill="#e66438"/><polygon points="285 86 300 112 270 112 285 86" fill="#ff941f"/><polygon points="300 112 285 86 315 86 300 112" fill="#e66438"/><rect x="255" y="56" width="30" height="30" fill="#5053cd"/><rect x="285" y="56" width="30" height="30" fill="#1f7aff"/><polygon points="315 86 330 112 300 112 315 86" fill="#ff941f"/><polygon points="330 112 315 86 345 86 330 112" fill="#e66438"/><polygon points="345 86 360 112 330 112 345 86" fill="#ff941f"/><polygon points="360 112 345 86 375 86 360 112" fill="#e66438"/><rect x="315" y="56" width="30" height="30" fill="#5053cd"/><rect x="345" y="56" width="30" height="30" fill="#1f7aff"/><polygon points="0 142 15 168 -15 168 0 142" fill="#ff941f"/><polygon points="15 168 0 142 30 142 15 168" fill="#e66438"/><polygon points="30 142 45 168 15 168 30 142" fill="#ff941f"/><polygon points="45 168 30 142 60 142 45 168" fill="#e66438"/><rect y="112" width="30" height="30" fill="#5053cd"/><rect x="30" y="112" width="30" height="30" fill="#1f7aff"/><polygon points="60 142 75 168 45 168 60 142" fill="#ff941f"/><polygon points="75 168 60 142 90 142 75 168" fill="#e66438"/><polygon points="90 142 105 168 75 168 90 142" fill="#ff941f"/><polygon points="105 168 90 142 120 142 105 168" fill="#e66438"/><rect x="60" y="112" width="30" height="30" fill="#5053cd"/><rect x="90" y="112" width="30" height="30" fill="#1f7aff"/><polygon points="120 142 135 168 105 168 120 142" fill="#ff941f"/><polygon points="135 168 120 142 150 142 135 168" fill="#e66438"/><polygon points="150 142 165 168 135 168 150 142" fill="#ff941f"/><polygon points="165 168 150 142 180 142 165 168" fill="#e66438"/><rect x="120" y="112" width="30" height="30" fill="#5053cd"/><rect x="150" y="112" width="30" height="30" fill="#1f7aff"/><polygon points="180 142 195 168 165 168 180 142" fill="#ff941f"/><polygon points="195 168 180 142 210 142 195 168" fill="#e66438"/><polygon points="210 142 225 168 195 168 210 142" fill="#ff941f"/><polygon points="225 168 210 142 240 142 225 168" fill="#e66438"/><rect x="180" y="112" width="30" height="30" fill="#5053cd"/><rect x="210" y="112" width="30" height="30" fill="#1f7aff"/><polygon points="240 142 255 168 225 168 240 142" fill="#ff941f"/><polygon points="255 168 240 142 270 142 255 168" fill="#e66438"/><polygon points="270 142 285 168 255 168 270 142" fill="#ff941f"/><polygon points="285 168 270 142 300 142 285 168" fill="#e66438"/><rect x="240" y="112" width="30" height="30" fill="#5053cd"/><rect x="270" y="112" width="30" height="30" fill="#1f7aff"/><polygon points="300 142 315 168 285 168 300 142" fill="#ff941f"/><polygon points="315 168 300 142 330 142 315 168" fill="#e66438"/><polygon points="330 142 345 168 315 168 330 142" fill="#ff941f"/><polygon points="360 142 375 168 345 168 360 142" fill="#ff941f"/><polygon points="345 168 330 142 360 142 345 168" fill="#e66438"/><rect x="300" y="112" width="30" height="30" fill="#5053cd"/><rect x="330" y="112" width="30" height="30" fill="#1f7aff"/><rect y="224" width="30" height="30" fill="#5053cd"/><rect x="30" y="224" width="30" height="30" fill="#1f7aff"/><rect x="60" y="224" width="30" height="30" fill="#5053cd"/><rect x="90" y="224" width="30" height="30" fill="#1f7aff"/><rect x="120" y="224" width="30" height="30" fill="#5053cd"/><rect x="150" y="224" width="30" height="30" fill="#1f7aff"/><rect x="180" y="224" width="30" height="30" fill="#5053cd"/><rect x="210" y="224" width="30" height="30" fill="#1f7aff"/><rect x="240" y="224" width="30" height="30" fill="#5053cd"/><rect x="270" y="224" width="30" height="30" fill="#1f7aff"/><rect x="300" y="224" width="30" height="30" fill="#5053cd"/><rect x="330" y="224" width="30" height="30" fill="#1f7aff"/><polygon points="15 198 30 224 0 224 15 198" fill="#ff941f"/><polygon points="30 224 15 198 45 198 30 224" fill="#e66438"/><polygon points="45 198 60 224 30 224 45 198" fill="#ff941f"/><polygon points="60 224 45 198 75 198 60 224" fill="#e66438"/><rect x="15" y="168" width="30" height="30" fill="#5053cd"/><rect x="45" y="168" width="30" height="30" fill="#1f7aff"/><polygon points="0 224 -15 198 15 198 0 224" fill="#e66438"/><rect x="-15" y="168" width="30" height="30" fill="#1f7aff"/><polygon points="75 198 90 224 60 224 75 198" fill="#ff941f"/><polygon points="90 224 75 198 105 198 90 224" fill="#e66438"/><polygon points="105 198 120 224 90 224 105 198" fill="#ff941f"/><polygon points="120 224 105 198 135 198 120 224" fill="#e66438"/><rect x="75" y="168" width="30" height="30" fill="#5053cd"/><rect x="105" y="168" width="30" height="30" fill="#1f7aff"/><polygon points="135 198 150 224 120 224 135 198" fill="#ff941f"/><polygon points="150 224 135 198 165 198 150 224" fill="#e66438"/><polygon points="165 198 180 224 150 224 165 198" fill="#ff941f"/><polygon points="180 224 165 198 195 198 180 224" fill="#e66438"/><rect x="135" y="168" width="30" height="30" fill="#5053cd"/><rect x="165" y="168" width="30" height="30" fill="#1f7aff"/><polygon points="195 198 210 224 180 224 195 198" fill="#ff941f"/><polygon points="210 224 195 198 225 198 210 224" fill="#e66438"/><polygon points="225 198 240 224 210 224 225 198" fill="#ff941f"/><polygon points="240 224 225 198 255 198 240 224" fill="#e66438"/><rect x="195" y="168" width="30" height="30" fill="#5053cd"/><rect x="225" y="168" width="30" height="30" fill="#1f7aff"/><polygon points="255 198 270 224 240 224 255 198" fill="#ff941f"/><polygon points="270 224 255 198 285 198 270 224" fill="#e66438"/><polygon points="285 198 300 224 270 224 285 198" fill="#ff941f"/><polygon points="300 224 285 198 315 198 300 224" fill="#e66438"/><rect x="255" y="168" width="30" height="30" fill="#5053cd"/><rect x="285" y="168" width="30" height="30" fill="#1f7aff"/><polygon points="315 198 330 224 300 224 315 198" fill="#ff941f"/><polygon points="330 224 315 198 345 198 330 224" fill="#e66438"/><polygon points="345 198 360 224 330 224 345 198" fill="#ff941f"/><polygon points="360 224 345 198 375 198 360 224" fill="#e66438"/><rect x="315" y="168" width="30" height="30" fill="#5053cd"/><rect x="345" y="168" width="30" height="30" fill="#1f7aff"/></svg>