<svg id="Layer_1" data-name="Layer 1" xmlns="http://www.w3.org/2000/svg" viewBox="0 0 360 240"><title>7</title><rect width="360" height="240" fill="#ff941f"/><polygon points="53 -34 83 -34 109 -19 124 7 124 37 109 63 83 78 53 78 27 63 12 37 12 7 27 -19 53 -34" fill="#5053cd"/><polyline points="-2.8 -19 12 7 12 37 -2.9 63" fill="#258dab"/><polygon points="165 -34 195 -34 221 -19 236 7 236 37 221 63 195 78 165 78 139 63 124 37 124 7 139 -19 165 -34" fill="#31b304"/><polygon points="277 -34 307 -34 333 -19 348 7 348 37 333 63 307 78 277 78 251 63 236 37 236 7 251 -19 277 -34" fill="#258dab"/><polyline points="363 63 348 37 348 7 363 -19" fill="#5053cd"/><polygon points="53 160 83 160 109 175 124 201 124 231 109 257 83 272 53 272 27 257 12 231 12 201 27 175 53 160" fill="#5053cd"/><polyline points="-3 175 12 201 12 231 -3 257" fill="#258dab"/><polygon points="165 160 195 160 221 175 236 201 236 231 221 257 195 272 165 272 139 257 124 231 124 201 139 175 165 160" fill="#31b304"/><polygon points="277 160 307 160 333 175 348 201 348 231 333 257 307 272 277 272 251 257 236 231 236 201 251 175 277 160" fill="#258dab"/><polyline points="363 257 348 231 348 201 363 175" fill="#5053cd"/><polygon points="109 63 139 63 165 78 180 104 180 134 165 160 139 175 109 175 83 160 68 134 68 104 83 78 109 63" fill="#258dab"/><polygon points="221 63 251 63 277 78 292 104 292 134 277 160 251 175 221 175 195 160 180 134 180 104 195 78 221 63" fill="#5053cd"/><polyline points="363 175 333 175 307 160 292 134 292 104 307 78 333 63 363 63" fill="#31b304"/><polyline points="-3 63 27 63 53 78 68 104 68 134 53 160 27 175 -3 175" fill="#31b304"/></svg>