<svg id="Layer_1" data-name="Layer 1" xmlns="http://www.w3.org/2000/svg" viewBox="0 0 360 240"><title>6</title><rect width="360" height="240" fill="#1f7aff"/><polygon points="14.9 -36 36 -14.9 36 14.9 14.9 36 -14.9 36 -36 14.9 -36 -14.9 -14.9 -36 14.9 -36" fill="#31b304"/><polygon points="65.9 15 87 36.1 87 65.9 65.9 87 36.1 87 15 65.9 15 36.1 36.1 15 65.9 15" fill="#5053cd"/><polygon points="116.9 -36 138 -14.9 138 14.9 116.9 36 87.1 36 66 14.9 66 -14.9 87.1 -36 116.9 -36" fill="#31b304"/><polygon points="167.9 15 189 36.1 189 65.9 167.9 87 138.1 87 117 65.9 117 36.1 138.1 15 167.9 15" fill="#5053cd"/><polygon points="218.9 -36 240 -14.9 240 14.9 218.9 36 189.1 36 168 14.9 168 -14.9 189.1 -36 218.9 -36" fill="#31b304"/><polygon points="269.9 15 291 36.1 291 65.9 269.9 87 240.1 87 219 65.9 219 36.1 240.1 15 269.9 15" fill="#5053cd"/><polygon points="320.9 -36 342 -14.9 342 14.9 320.9 36 291.1 36 270 14.9 270 -14.9 291.1 -36 320.9 -36" fill="#31b304"/><polygon points="371.9 15 393 36.1 393 65.9 371.9 87 342.1 87 321 65.9 321 36.1 342.1 15 371.9 15" fill="#5053cd"/><polygon points="14.9 66 36 87.1 36 116.9 14.9 138 -14.9 138 -36 116.9 -36 87.1 -14.9 66 14.9 66" fill="#31b304"/><polygon points="65.9 117 87 138.1 87 167.9 65.9 189 36.1 189 15 167.9 15 138.1 36.1 117 65.9 117" fill="#5053cd"/><polygon points="116.9 66 138 87.1 138 116.9 116.9 138 87.1 138 66 116.9 66 87.1 87.1 66 116.9 66" fill="#31b304"/><polygon points="167.9 117 189 138.1 189 167.9 167.9 189 138.1 189 117 167.9 117 138.1 138.1 117 167.9 117" fill="#5053cd"/><polygon points="218.9 66 240 87.1 240 116.9 218.9 138 189.1 138 168 116.9 168 87.1 189.1 66 218.9 66" fill="#31b304"/><polygon points="269.9 117 291 138.1 291 167.9 269.9 189 240.1 189 219 167.9 219 138.1 240.1 117 269.9 117" fill="#5053cd"/><polygon points="320.9 66 342 87.1 342 116.9 320.9 138 291.1 138 270 116.9 270 87.1 291.1 66 320.9 66" fill="#31b304"/><polygon points="371.9 117 393 138.1 393 167.9 371.9 189 342.1 189 321 167.9 321 138.1 342.1 117 371.9 117" fill="#5053cd"/><polygon points="14.9 168 36 189.1 36 218.9 14.9 240 -14.9 240 -36 218.9 -36 189.1 -14.9 168 14.9 168" fill="#31b304"/><polygon points="65.9 219 87 240.1 87 269.9 65.9 291 36.1 291 15 269.9 15 240.1 36.1 219 65.9 219" fill="#5053cd"/><polygon points="116.9 168 138 189.1 138 218.9 116.9 240 87.1 240 66 218.9 66 189.1 87.1 168 116.9 168" fill="#31b304"/><polygon points="167.9 219 189 240.1 189 269.9 167.9 291 138.1 291 117 269.9 117 240.1 138.1 219 167.9 219" fill="#5053cd"/><polygon points="218.9 168 240 189.1 240 218.9 218.9 240 189.1 240 168 218.9 168 189.1 189.1 168 218.9 168" fill="#31b304"/><polygon points="269.9 219 291 240.1 291 269.9 269.9 291 240.1 291 219 269.9 219 240.1 240.1 219 269.9 219" fill="#5053cd"/><polygon points="320.9 168 342 189.1 342 218.9 320.9 240 291.1 240 270 218.9 270 189.1 291.1 168 320.9 168" fill="#31b304"/><polygon points="371.9 219 393 240.1 393 269.9 371.9 291 342.1 291 321 269.9 321 240.1 342.1 219 371.9 219" fill="#5053cd"/></svg>