<svg xmlns="http://www.w3.org/2000/svg" viewBox="0 0 240 160"><title>quadrilaterals</title><polygon points="222.3 133 47.7 133 13.8 28 188.3 28 222.3 133" fill="#1f7aff" opacity="0.8"/><rect x="48" y="28" width="175" height="105" fill="none" stroke="#b30469" stroke-miterlimit="10" stroke-width="4"/><line x1="57" y1="142" x2="214" y2="142" fill="none" stroke="#31b304" stroke-miterlimit="10" stroke-width="2"/><polygon points="48.5 142 60.4 146.9 57.6 142 60.4 137.1 48.5 142" fill="#31b304"/><polygon points="222.5 142 210.6 146.9 213.4 142 210.6 137.1 222.5 142" fill="#31b304"/><line x1="38" y1="38" x2="38" y2="123" fill="none" stroke="#ff941f" stroke-miterlimit="10" stroke-width="2"/><polygon points="38.5 29.4 33.6 41.3 38.5 38.5 43.4 41.3 38.5 29.4" fill="#ff941f"/><polygon points="38.5 131.3 33.6 119.3 38.5 122.2 43.4 119.3 38.5 131.3" fill="#ff941f"/><text transform="translate(120 158)" font-size="16" fill="#31b304" font-weight="700" font-style="italic">base</text><text transform="translate(21 58) rotate(90)" font-size="16" fill="#ff941f" font-weight="700" font-style="italic">height</text></svg>