<svg xmlns="http://www.w3.org/2000/svg" viewBox="0 0 240 160"><title>quadrilaterals</title><polygon points="223 80.5 94.6 132.5 35 80.8 95.3 28.4 223 80.5" fill="#1f7aff" opacity="0.8"/><rect x="35" y="28" width="188" height="105" fill="none" stroke="#b30469" stroke-miterlimit="10" stroke-width="4"/><line x1="41" y1="142" x2="214" y2="142" fill="none" stroke="#31b304" stroke-miterlimit="10" stroke-width="2"/><polygon points="32.5 142 44.4 146.9 41.6 142 44.4 137.1 32.5 142" fill="#31b304"/><polygon points="222.5 142 210.6 146.9 213.4 142 210.6 137.1 222.5 142" fill="#31b304"/><text transform="translate(107 158)" font-size="16" fill="#31b304" font-weight="700" font-style="italic">width</text><line x1="26" y1="36" x2="26" y2="125" fill="none" stroke="#ff941f" stroke-miterlimit="10" stroke-width="2"/><polygon points="26.5 27.4 21.6 39.3 26.5 36.5 31.4 39.3 26.5 27.4" fill="#ff941f"/><polygon points="26.5 133.3 21.6 121.3 26.5 124.2 31.4 121.3 26.5 133.3" fill="#ff941f"/><text transform="translate(9 58) rotate(90)" font-size="16" fill="#ff941f" font-weight="700" font-style="italic">height</text><line x1="95.5" y1="28" x2="95.5" y2="32" fill="none" stroke="#b30469" stroke-miterlimit="10" stroke-width="3"/><line x1="95.5" y1="38" x2="95.5" y2="126" fill="none" stroke="#b30469" stroke-miterlimit="10" stroke-width="3" stroke-dasharray="7 6"/><line x1="95.5" y1="129" x2="95.5" y2="133" fill="none" stroke="#b30469" stroke-miterlimit="10" stroke-width="3"/><line x1="35" y1="80.5" x2="39" y2="80.5" fill="none" stroke="#b30469" stroke-miterlimit="10" stroke-width="3"/><line x1="45" y1="80.5" x2="216" y2="80.5" fill="none" stroke="#b30469" stroke-miterlimit="10" stroke-width="3" stroke-dasharray="8 6"/><line x1="219" y1="80.5" x2="223" y2="80.5" fill="none" stroke="#b30469" stroke-miterlimit="10" stroke-width="3"/></svg>
