<svg xmlns="http://www.w3.org/2000/svg" width="240" height="120" viewBox="0 0 240 120"><title>quadrilaterals</title><polygon points="212 105 58 105 28 15 182 15 212 105" fill="#1f7aff" opacity="0.8"/><line x1="60" y1="105" x2="210" y2="105" fill="none" stroke="#b30469" stroke-miterlimit="10" stroke-width="2"/><polyline points="126 99 132.4 105.4 126 111.7" fill="none" stroke="#b30469" stroke-miterlimit="10" stroke-width="2"/><line x1="30" y1="15" x2="180" y2="15" fill="none" stroke="#b30469" stroke-miterlimit="10" stroke-width="2"/><polyline points="96 9 102.4 15.4 96 21.7" fill="none" stroke="#b30469" stroke-miterlimit="10" stroke-width="2"/><polyline points="199.9 47.8 195.9 55.9 187.8 51.8" fill="none" stroke="#ff941f" stroke-miterlimit="10" stroke-width="2"/><polyline points="202.1 55.5 198.1 63.6 190 59.5" fill="none" stroke="#ff941f" stroke-miterlimit="10" stroke-width="2"/><line x1="182.7" y1="17" x2="211.3" y2="103" fill="#0071bc" stroke="#ff941f" stroke-miterlimit="10" stroke-width="2"/><polyline points="45.9 47.8 41.9 55.9 33.8 51.8" fill="none" stroke="#ff941f" stroke-miterlimit="10" stroke-width="2"/><polyline points="48.1 55.5 44 63.6 36 59.5" fill="none" stroke="#ff941f" stroke-miterlimit="10" stroke-width="2"/><line x1="28.7" y1="17" x2="57.3" y2="103" fill="#0071bc" stroke="#ff941f" stroke-miterlimit="10" stroke-width="2"/></svg>