<svg xmlns="http://www.w3.org/2000/svg" width="240" height="120" viewBox="0 0 240 120"><title>quadrilaterals</title><rect x="75" y="15" width="90" height="90" fill="#1f7aff" opacity="0.8"/><polyline points="92 103 92 88 77 88" fill="none" stroke="#fff" stroke-miterlimit="10" stroke-width="2"/><polyline points="163 88 148 88 148 103" fill="none" stroke="#fff" stroke-miterlimit="10" stroke-width="2"/><polyline points="148 17 148 32 163 32" fill="none" stroke="#fff" stroke-miterlimit="10" stroke-width="2"/><polyline points="77 32 92 32 92 17" fill="none" stroke="#fff" stroke-miterlimit="10" stroke-width="2"/><line x1="75" y1="17" x2="75" y2="103" fill="none" stroke="#b30469" stroke-miterlimit="10" stroke-width="2"/><line x1="165" y1="17" x2="165" y2="103" fill="none" stroke="#b30469" stroke-miterlimit="10" stroke-width="2"/><line x1="77" y1="15" x2="163" y2="15" fill="none" stroke="#b30469" stroke-miterlimit="10" stroke-width="2"/><line x1="77" y1="105" x2="163" y2="105" fill="none" stroke="#b30469" stroke-miterlimit="10" stroke-width="2"/><line x1="120" y1="10" x2="120" y2="20" fill="none" stroke="#b30469" stroke-miterlimit="10" stroke-width="2"/><line x1="120" y1="100" x2="120" y2="110" fill="none" stroke="#b30469" stroke-miterlimit="10" stroke-width="2"/><line x1="70" y1="60" x2="80" y2="60" fill="none" stroke="#b30469" stroke-miterlimit="10" stroke-width="2"/><line x1="160" y1="60" x2="170" y2="60" fill="none" stroke="#b30469" stroke-miterlimit="10" stroke-width="2"/></svg>