<svg viewBox="0 0 150 120" xmlns="http://www.w3.org/2000/svg"><g fill="#cd0e66"><path d="m92.2 18.6v-12.2h2.5l3.1 5.2a22.8 22.8 0 0 1 2.1 4.1h.1a40.2 40.2 0 0 1 -.2-5v-4.3h2v12.2h-2.3l-3.1-5.4a33.6 33.6 0 0 1 -2.2-4.2h-.1c.1 1.5.1 3.1.1 5.1v4.4z"/><path d="m106.6 6.4v4.9h5.1v-4.9h2.2v12.2h-2.2v-5.4h-5.1v5.4h-2.2v-12.2z"/><path d="m115.6 21v-1.2l1-.8c1.3-1.2 2-1.9 2.1-2.6s-.4-.9-1.1-.9a2.5 2.5 0 0 0 -1.4.6l-.5-1.4a3.7 3.7 0 0 1 2.3-.7 2.2 2.2 0 0 1 2.5 2.2 3.7 3.7 0 0 1 -1.5 2.7l-.7.5h2.4v1.6z"/><path d="m40.2 54.7v-12.1h2.6l3.1 5.2a38.4 38.4 0 0 1 2.1 4c-.1-1.6-.2-3.2-.2-5v-4.2h2.1v12.1h-2.3l-3.2-5.3c-.8-1.4-1.6-2.9-2.2-4.2.1 1.6.1 3.2.1 5.2v4.3z"/><path d="m92.7 104.7v-12.2h2.6l3.1 5.2c.8 1.4 1.5 2.8 2.1 4.1a41 41 0 0 1 -.2-5.1v-4.2h2v12.2h-2.2l-3.2-5.4a33.6 33.6 0 0 1 -2.2-4.2c0 1.6.1 3.2.1 5.2v4.4z"/><path d="m118.4 61.7v-12.1h2.5l3.2 5.2a24.9 24.9 0 0 1 2 4h.1a40.2 40.2 0 0 1 -.2-5v-4.2h2v12.1h-2.3l-3.1-5.3c-.8-1.4-1.6-2.9-2.2-4.2h-.1c.1 1.6.1 3.2.1 5.2v4.3z"/><path d="m40.2 98v-12.1h2.6l3.1 5.2a38.4 38.4 0 0 1 2.1 4c-.1-1.6-.2-3.2-.2-5v-4.2h2.1v12.1h-2.3l-3.2-5.3c-.8-1.4-1.6-2.9-2.2-4.2.1 1.6.1 3.2.1 5.2v4.3z"/><path d="m42.5 99.9v4.8h5.1v-4.8h2.2v12.1h-2.2v-5.4h-5.1v5.4h-2.3v-12.1z"/><path d="m89.7 93.7-16.3-9.4v-27.8l24.1-13.9 16.3 9.4a.2.2 0 0 0 .3 0c.2 0 .3-.1.3-.2l.7-1.1a.5.5 0 0 0 -.2-.6l-16.3-9.5v-18.2a.5.5 0 0 0 -.5-.5h-1.2a.5.5 0 0 0 -.5.5v18.2l-24.3 14-18.6-6h-.4c-.1.1-.2.2-.2.3l-.4 1.2a.5.5 0 0 0 .3.6l18.3 5.9v27.6l-18.3 5.9c-.2.1-.4.4-.3.6l.4 1.2.2.3h.4l18.6-6 16.4 9.5h.3a.4.4 0 0 0 .4-.2l.7-1.1c0-.1.1-.2 0-.3a.5.5 0 0 0 -.2-.4z"/><rect height="24.06" rx=".5" width="2.2" x="76.4" y="58.4"/><path d="m28.8 70.4h.1l9.6-13.2c0-.1.1-.2.1-.4s-.1-.2-.3-.3l-1-.7a.5.5 0 0 0 -.7.1l-9.5 13h-.1l-.7 1.1a.6.6 0 0 0 0 .6l10 13.8.3.2h.4l1-.7c.2-.1.2-.5.1-.7z"/><path d="m41.6 58.8a.5.5 0 0 0 -.7.1l-8.4 11.5a.5.5 0 0 0 .1.7l1 .7h.4l.3-.2 8.4-11.5c0-.1.1-.3 0-.4s0-.2-.2-.3z"/><path d="m118.2 82.2-.6-1.1-.3-.2h-.4l-14.3 8.2a.5.5 0 0 0 -.1.7l.6 1c0 .2.1.2.3.3h.1c.1 0 .2 0 .2-.1l14.3-8.1a.7.7 0 0 0 .2-.7z"/><path d="m123.3 65.6h-1.2a.5.5 0 0 0 -.5.5v18.2l-16.3 9.4c-.3.2-.4.5-.2.7l.6 1.1.3.2h.4l15.9-9.3 1.2-.6a.5.5 0 0 0 .3-.5v-19.2a.5.5 0 0 0 -.5-.5z"/><path d="m111.4 56.6c.2 0 .3-.1.4-.3l.6-1a.8.8 0 0 0 .1-.4c-.1-.2-.1-.3-.3-.3l-14.2-8.3a.7.7 0 0 0 -.7.2l-.6 1.1c0 .1-.1.2 0 .3s.1.3.2.3l14.2 8.3z"/></g></svg>