<svg viewBox="0 0 150 120" xmlns="http://www.w3.org/2000/svg"><g fill="#22ab24"><path d="m53.8 16.9v-12.1h2.5l3.2 5.2a38.4 38.4 0 0 1 2.1 4 39.4 39.4 0 0 1 -.2-5v-4.2h2v12.1h-2.2l-3.2-5.3a42.3 42.3 0 0 1 -2.2-4.2c0 1.6.1 3.2.1 5.2v4.3z"/><path d="m68.2 4.8v4.8h5.1v-4.8h2.3v12.1h-2.3v-5.3h-5.1v5.3h-2.2v-12.1z"/><path d="m77.2 19.3v-1.1l1-.9c1.4-1.2 2.1-1.9 2.1-2.6s-.3-.8-1-.8a3.3 3.3 0 0 0 -1.5.5l-.5-1.3a3.9 3.9 0 0 1 2.3-.7c1.6 0 2.6.8 2.6 2.2a3.7 3.7 0 0 1 -1.6 2.6l-.7.5h2.4v1.6z"/><path d="m80.1 56.8v-12.1h2.5l3.2 5.2a24.9 24.9 0 0 1 2 4h.1a39.4 39.4 0 0 1 -.2-5v-4.2h2v12.1h-2.3l-3.1-5.3a42.3 42.3 0 0 1 -2.2-4.2h-.1c.1 1.6.1 3.2.1 5.2v4.3z"/><path d="m54.9 101.7v-12.2h2.6l3.1 5.2c.8 1.4 1.5 2.8 2.1 4.1a40.2 40.2 0 0 1 -.2-5v-4.3h2v12.2h-2.2l-3.2-5.4a33.6 33.6 0 0 1 -2.2-4.2c0 1.6.1 3.2.1 5.2v4.4z"/><path d="m57.1 103.5v4.9h5.2v-4.9h2.2v12.2h-2.2v-5.4h-5.2v5.4h-2.2v-12.2z"/><path d="m115.6 95.5c0 4-2.4 6.4-5.8 6.4s-5.6-2.7-5.6-6.2 2.4-6.4 5.8-6.4 5.6 2.7 5.6 6.2zm-9 .1c0 2.5 1.2 4.5 3.3 4.5s3.4-2 3.4-4.5-1.1-4.5-3.4-4.5-3.3 2-3.3 4.5z"/><path d="m52.6 90-17.1-9.8v-27.7l24-13.8 17 9.8h.4l.3-.2.6-1.1c.1-.2.1-.6-.2-.7l-16.9-9.8v-17.7a.5.5 0 0 0 -.5-.5h-1.3a.5.5 0 0 0 -.5.5v17.7l-24.9 14.4c-.2.1-.3.2-.3.4v29.7c0 .2.1.3.3.4l17.9 10.4h.4l.3-.2.6-1.1a.5.5 0 0 0 -.1-.7z"/><rect height="24.97" rx=".5" width="2.2" x="37.6" y="53.9"/><path d="m74.6 52.3h.1c.1 0 .3-.1.3-.2l.6-1.1a.5.5 0 0 0 -.1-.7l-15.4-8.9h-.4l-.3.3-.6 1.1c-.2.2-.1.5.2.7l15.3 8.8z"/><path d="m104.8 88.7-19.1-11v-17.3a.5.5 0 0 0 -.5-.5h-1.2a.5.5 0 0 0 -.5.5v19.8l-17.1 9.9a.4.4 0 0 0 -.1.6l.6 1.1c0 .2.2.2.3.3h.4l14.8-8.6 19.1 11h.4l.3-.2.6-1.1a.4.4 0 0 0 -.2-.7l-17.9-10.4.8-.5.2-.2v-1.2l18 10.4h.3l.4-.2.6-1.1a.6.6 0 0 0 .1-.4c-.1 0-.1-.1-.3-.2z"/></g></svg>