<svg viewBox="0 0 150 120" xmlns="http://www.w3.org/2000/svg"><g fill="#fd8c00"><path d="m94.3 81.4-.6-1.1-.3-.2h-.4l-15.4 9-.3.3a.6.6 0 0 0 .1.4l.6 1a.5.5 0 0 0 .4.3h.3l15.4-8.9c.3-.2.3-.5.2-.8z"/><path d="m65.8 92.8-17-9.8v-27.7l24-13.9 17 9.9h.4l.3-.2.6-1.1a.7.7 0 0 0 -.2-.7l-14.8-8.5v-20.9a.5.5 0 0 0 -.5-.5h-1.2a.5.5 0 0 0 -.5.5v19.6l-.9-.5a.4.4 0 0 0 -.5 0l-.8.5v-19.6a.5.5 0 0 0 -.5-.5h-1.2a.5.5 0 0 0 -.5.5v20.9l-22 12.6-19.9-6.4a.4.4 0 0 0 -.6.3l-.4 1.2v.3c.1.2.2.2.3.3l19.6 6.4v27.3l-19.6 6.4q-.1 0-.3.3v.3l.4 1.2a.7.7 0 0 0 .5.4h.1l19.9-6.4 17.2 9.9h.4l.3-.2.6-1.1a.7.7 0 0 0 -.2-.8z"/><rect height="24.97" rx=".5" width="2.2" x="50.9" y="56.7"/><path d="m4.4 69.1 10.6-14.6a.5.5 0 0 0 -.1-.7l-1-.7h-.4l-.3.2-11.3 15.6h-.1v.2h.1l11.9 16.7c.1.2.2.3.4.3h.3l1-.8c.1 0 .2-.2.2-.3a.6.6 0 0 0 -.1-.4z"/><path d="m17.4 55.7a.5.5 0 0 0 -.7.1l-9.2 12.7a.6.6 0 0 0 .1.7l1 .7h.4l.3-.2 9.3-12.7c0-.1.1-.2 0-.4s0-.2-.2-.3z"/><path d="m116.3 93.2c0-.2-.1-.3-.2-.3l-17.1-9.9v-19.8a.5.5 0 0 0 -.5-.5h-1.2a.5.5 0 0 0 -.5.5v19.8l-17 9.9c-.2 0-.2.1-.3.3a.8.8 0 0 0 .1.4l.6 1a.5.5 0 0 0 .4.3h.3l17-9.9 17.1 9.8h.2a.5.5 0 0 0 .5-.3l.6-1c.1-.1.1-.2 0-.3z"/><path d="m118.7 103.3v-12.2h2.6l3.1 5.3a38.4 38.4 0 0 1 2.1 4c-.1-1.6-.2-3.2-.2-5v-4.3h2.1v12.2h-2.3l-3.2-5.3c-.8-1.4-1.6-2.9-2.2-4.2.1 1.5.1 3.1.1 5.1v4.4z"/><path d="m133.1 91.1v4.9h5.2v-4.9h2.2v12.2h-2.2v-5.4h-5.2v5.4h-2.2v-12.2z"/><path d="m142.2 105.7v-1.2l.9-.8c1.4-1.2 2.1-1.9 2.1-2.6a.9.9 0 0 0 -1-.9 2.5 2.5 0 0 0 -1.5.6l-.5-1.4a4.9 4.9 0 0 1 2.4-.7 2.2 2.2 0 0 1 2.5 2.2 3.8 3.8 0 0 1 -1.6 2.7l-.7.5h2.4v1.6z"/><path d="m94.2 59.7v-12.1h2.6l3.1 5.2a38.4 38.4 0 0 1 2.1 4c-.1-1.6-.2-3.2-.2-5v-4.2h2.1v12.1h-2.3l-3.2-5.3c-.8-1.4-1.6-2.9-2.2-4.2.1 1.6.1 3.2.1 5.2v4.3z"/><path d="m108.6 47.6v4.8h5.2v-4.8h2.2v12.1h-2.2v-5.4h-5.2v5.4h-2.2v-12.1z"/><path d="m14.9 51.4v-12.2h2.5l3.1 5.2a22.8 22.8 0 0 1 2.1 4.1c-.1-1.6-.1-3.2-.1-5v-4.3h2v12.2h-2.3l-3.2-5.4c-.7-1.3-1.5-2.8-2.1-4.2h-.1c.1 1.5.1 3.1.1 5.1v4.4z"/><path d="m67.8 103.3v-12.2h2.5l3.2 5.3a24.9 24.9 0 0 1 2 4h.1a40.2 40.2 0 0 1 -.2-5v-4.3h2v12.2h-2.2l-3.2-5.3c-.8-1.4-1.6-2.9-2.2-4.2 0 1.5.1 3.1.1 5.1v4.4z"/><path d="m15.9 98.8v-12.2h2.5l3.1 5.2a22.8 22.8 0 0 1 2.1 4.1c-.1-1.6-.1-3.2-.1-5.1v-4.2h2v12.2h-2.3l-3.2-5.4c-.7-1.3-1.5-2.8-2.1-4.2h-.1c.1 1.6.1 3.2.1 5.2v4.4z"/><path d="m18.1 100.6v4.9h5.1v-4.9h2.2v12.2h-2.2v-5.4h-5.1v5.4h-2.2v-12.2z"/><path d="m78.6 11.6c0 4.1-2.5 6.4-5.8 6.4s-5.6-2.6-5.6-6.2 2.3-6.3 5.8-6.3 5.6 2.7 5.6 6.1zm-9.1.2c0 2.5 1.3 4.4 3.4 4.4s3.3-2 3.3-4.5-1.1-4.4-3.3-4.4-3.4 2-3.4 4.5z"/></g></svg>