<svg viewBox="0 0 150 120" xmlns="http://www.w3.org/2000/svg"><g fill="#0f82f2"><path d="m105.4 56.8v-12.1h2.5l3.2 5.2a24.9 24.9 0 0 1 2 4h.1a40.2 40.2 0 0 1 -.2-5v-4.2h2v12.1h-2.3l-3.1-5.3c-.8-1.4-1.6-2.9-2.2-4.2h-.1c.1 1.5.1 3.1.1 5.1v4.4z"/><path d="m119.8 44.7v4.8h5.1v-4.8h2.2v12.1h-2.2v-5.4h-5.1v5.4h-2.2v-12.1z"/><path d="m12.9 28.9v4.9h5.1v-4.9h2.2v12.1h-2.2v-5.3h-5.1v5.3h-2.3v-12.1z"/><path d="m22.2 41.6a3.4 3.4 0 0 0 1.6.4c.7 0 1.1-.2 1.1-.7s-.5-.8-1.2-.8h-.7v-1.3h.7c.5 0 1.1-.2 1.1-.7s-.4-.5-.9-.5a3 3 0 0 0 -1.5.4l-.4-1.4a4.6 4.6 0 0 1 2.3-.5c1.5 0 2.4.7 2.4 1.7a1.7 1.7 0 0 1 -1.3 1.6 1.7 1.7 0 0 1 1.5 1.6c0 1.3-1.2 2.1-2.9 2.1a5.7 5.7 0 0 1 -2.2-.4z"/><path d="m37.4 40.7a8.8 8.8 0 0 1 -3.1.5c-3.8 0-6.2-2.4-6.2-6.1s2.8-6.4 6.5-6.4a8.1 8.1 0 0 1 3 .5l-.5 1.8a7.2 7.2 0 0 0 -2.4-.5c-2.5 0-4.3 1.6-4.3 4.5s1.6 4.4 4.3 4.4a5.7 5.7 0 0 0 2.4-.5z"/><path d="m79.4 101.7v-12.2h2.5l3.2 5.2a30.7 30.7 0 0 1 2 4.1h.1a40.2 40.2 0 0 1 -.2-5v-4.3h2v12.2h-2.3l-3.1-5.4a41 41 0 0 1 -2.2-4.1h-.1c.1 1.5.2 3.1.2 5.1v4.4z"/><path d="m81.6 103.5v4.9h5.2v-4.9h2.2v12.2h-2.2v-5.4h-5.2v5.4h-2.2v-12.2z"/><path d="m140 95.5c0 4.1-2.5 6.4-5.8 6.4s-5.6-2.6-5.6-6.2 2.4-6.4 5.8-6.4 5.6 2.7 5.6 6.2zm-9 .2c0 2.4 1.2 4.4 3.3 4.4s3.4-2 3.4-4.5-1.2-4.5-3.4-4.5-3.3 2.1-3.3 4.6z"/><path d="m90.2 10.7c0 4.1-2.5 6.4-5.8 6.4s-5.6-2.6-5.6-6.2 2.3-6.3 5.7-6.3 5.7 2.6 5.7 6.1zm-9.1.2c0 2.4 1.3 4.4 3.4 4.4s3.3-2 3.3-4.5-1.1-4.5-3.3-4.5-3.4 2.1-3.4 4.6z"/><path d="m77.1 90.2-17-9.9v-27.7l24-13.8 17 9.8h.4l.3-.2.6-1.1a.4.4 0 0 0 -.2-.7l-14.9-8.6v-18.7a.5.5 0 0 0 -.5-.5h-1.3a.5.5 0 0 0 -.5.5v17.4l-.6-.4h-.5l-.7.4v-17.4a.5.5 0 0 0 -.5-.5h-1.2a.5.5 0 0 0 -.5.5v18.7l-22 12.7-17.5-10.1a.5.5 0 0 0 -.7.2l-.6 1c-.1.2-.1.3 0 .4s.1.3.2.3l17.5 10.1v28.7.2h.2l17.9 10.6h.3a.4.4 0 0 0 .4-.2l.6-1.1a.4.4 0 0 0 .1-.3c-.1-.2-.1-.3-.3-.3z"/><rect height="24.97" rx=".5" width="2.2" x="62.2" y="53.9"/><path d="m129.4 88.8-19-11v-17.3a.5.5 0 0 0 -.5-.5h-1.3a.5.5 0 0 0 -.5.5v19.8l-17 9.9a.4.4 0 0 0 -.2.6l.6 1.1.3.3h.4l14.9-8.6 19.1 11h.3c.2-.1.3-.1.3-.3l.7-1.1a.5.5 0 0 0 -.2-.6l-18-10.4.8-.5c.1 0 .1 0 .1-.1h.1c0-.1.1-.1.1-.2v-.9l17.9 10.3h.3a.5.5 0 0 0 .4-.3l.6-1a.6.6 0 0 0 .1-.4z"/></g></svg>