<svg xmlns="http://www.w3.org/2000/svg" xmlns:xlink="http://www.w3.org/1999/xlink" width="446" height="318" viewBox="0 0 446 318"><defs><linearGradient id="a" x1="5" y1="142" x2="127" y2="142" gradientUnits="userSpaceOnUse"><stop offset="0" stop-color="#434e5b"/><stop offset="1" stop-color="#43515b"/></linearGradient><linearGradient id="b" x1="10" y1="144.5" x2="122" y2="144.5" gradientUnits="userSpaceOnUse"><stop offset="0" stop-color="#43515b"/><stop offset="1" stop-color="#4d6473"/></linearGradient><linearGradient id="c" x1="162" x2="284" xlink:href="#a"/><linearGradient id="d" x1="167" x2="279" xlink:href="#b"/><linearGradient id="e" x1="319" x2="441" xlink:href="#a"/><linearGradient id="f" x1="324" x2="436" xlink:href="#b"/><linearGradient id="g" x1="46.53" y1="14.03" x2="83.28" y2="50.78" gradientUnits="userSpaceOnUse"><stop offset="0" stop-color="#a40000"/><stop offset="0.13" stop-color="#b20e07"/><stop offset="0.5" stop-color="#d23017"/><stop offset="0.8" stop-color="#e64520"/><stop offset="1" stop-color="#ed4d24"/></linearGradient></defs><title>Artboard 20</title><polyline points="5 233 5 51 127 51 127 233" fill="url(#a)"/><polyline points="10 233 10 56 122 56 122 233" fill="url(#b)"/><polygon points="123 233 123 55 121 57 121 233 123 233" fill="#434e5b"/><polygon points="121 233 121 57 119 59 119 233 121 233" fill="#66717c"/><polygon points="13 233 13 59 119 59 121 57 11 57 11 233 13 233" fill="#404e5b"/><polygon points="11 233 11 57 121 57 123 55 9 55 9 233 11 233" fill="#66717c"/><polygon points="30 79 102 79 104 77 28 77 28 117 30 115 30 79" fill="#66717c"/><polygon points="32 81 100 81 102 79 30 79 30 115 32 113 32 81" fill="#404e5b"/><polygon points="102 115 30 115 28 117 104 117 104 77 102 79 102 115" fill="#404e5b"/><polygon points="100 113 32 113 30 115 102 115 102 79 100 81 100 113" fill="#66717c"/><polygon points="30 129 102 129 104 127 28 127 28 167 30 165 30 129" fill="#66717c"/><polygon points="32 131 100 131 102 129 30 129 30 165 32 163 32 131" fill="#404e5b"/><polygon points="102 165 30 165 28 167 104 167 104 127 102 129 102 165" fill="#404e5b"/><polygon points="100 163 32 163 30 165 102 165 102 129 100 131 100 163" fill="#66717c"/><polygon points="30 177 102 177 104 175 28 175 28 215 30 213 30 177" fill="#66717c"/><polygon points="32 179 100 179 102 177 30 177 30 213 32 211 32 179" fill="#404e5b"/><polygon points="102 213 30 213 28 215 104 215 104 175 102 177 102 213" fill="#404e5b"/><polygon points="100 211 32 211 30 213 102 213 102 177 100 179 100 211" fill="#66717c"/><circle cx="111.5" cy="148.5" r="3.5" opacity="0.4"/><circle cx="111.5" cy="147.5" r="3.5" fill="#c09f66"/><polyline points="162 233 162 51 284 51 284 233" fill="url(#c)"/><polyline points="167 233 167 56 279 56 279 233" fill="url(#d)"/><polygon points="280 233 280 55 278 57 278 233 280 233" fill="#434e5b"/><polygon points="278 233 278 57 276 59 276 233 278 233" fill="#66717c"/><polygon points="170 233 170 59 276 59 278 57 168 57 168 233 170 233" fill="#404e5b"/><polygon points="168 233 168 57 278 57 280 55 166 55 166 233 168 233" fill="#66717c"/><polygon points="187 79 259 79 261 77 185 77 185 117 187 115 187 79" fill="#66717c"/><polygon points="189 81 257 81 259 79 187 79 187 115 189 113 189 81" fill="#404e5b"/><polygon points="259 115 187 115 185 117 261 117 261 77 259 79 259 115" fill="#404e5b"/><polygon points="257 113 189 113 187 115 259 115 259 79 257 81 257 113" fill="#66717c"/><polygon points="187 129 259 129 261 127 185 127 185 167 187 165 187 129" fill="#66717c"/><polygon points="189 131 257 131 259 129 187 129 187 165 189 163 189 131" fill="#404e5b"/><polygon points="259 165 187 165 185 167 261 167 261 127 259 129 259 165" fill="#404e5b"/><polygon points="257 163 189 163 187 165 259 165 259 129 257 131 257 163" fill="#66717c"/><polygon points="187 177 259 177 261 175 185 175 185 215 187 213 187 177" fill="#66717c"/><polygon points="189 179 257 179 259 177 187 177 187 213 189 211 189 179" fill="#404e5b"/><polygon points="259 213 187 213 185 215 261 215 261 175 259 177 259 213" fill="#404e5b"/><polygon points="257 211 189 211 187 213 259 213 259 177 257 179 257 211" fill="#66717c"/><circle cx="268.5" cy="148.5" r="3.5" opacity="0.4"/><circle cx="268.5" cy="147.5" r="3.5" fill="#c09f66"/><polyline points="319 233 319 51 441 51 441 233" fill="url(#e)"/><polyline points="324 233 324 56 436 56 436 233" fill="url(#f)"/><polygon points="437 233 437 55 435 57 435 233 437 233" fill="#434e5b"/><polygon points="435 233 435 57 433 59 433 233 435 233" fill="#66717c"/><polygon points="327 233 327 59 433 59 435 57 325 57 325 233 327 233" fill="#404e5b"/><polygon points="325 233 325 57 435 57 437 55 323 55 323 233 325 233" fill="#66717c"/><polygon points="344 79 416 79 418 77 342 77 342 117 344 115 344 79" fill="#66717c"/><polygon points="346 81 414 81 416 79 344 79 344 115 346 113 346 81" fill="#404e5b"/><polygon points="416 115 344 115 342 117 418 117 418 77 416 79 416 115" fill="#404e5b"/><polygon points="414 113 346 113 344 115 416 115 416 79 414 81 414 113" fill="#66717c"/><polygon points="344 129 416 129 418 127 342 127 342 167 344 165 344 129" fill="#66717c"/><polygon points="346 131 414 131 416 129 344 129 344 165 346 163 346 131" fill="#404e5b"/><polygon points="416 165 344 165 342 167 418 167 418 127 416 129 416 165" fill="#404e5b"/><polygon points="414 163 346 163 344 165 416 165 416 129 414 131 414 163" fill="#66717c"/><polygon points="344 177 416 177 418 175 342 175 342 215 344 213 344 177" fill="#66717c"/><polygon points="346 179 414 179 416 177 344 177 344 213 346 211 346 179" fill="#404e5b"/><polygon points="416 213 344 213 342 215 418 215 418 175 416 177 416 213" fill="#404e5b"/><polygon points="414 211 346 211 344 213 416 213 416 177 414 179 414 211" fill="#66717c"/><circle cx="425.5" cy="148.5" r="3.5" opacity="0.4"/><circle cx="425.5" cy="147.5" r="3.5" fill="#c09f66"/><rect x="5" y="244" width="122" height="68" rx="8" ry="8" fill="#009245"/><rect x="162" y="244" width="279" height="68" rx="8" ry="8" fill="#c1272d"/><path d="M41.3,258.8c0-3.4,2.1-5.5,4.8-5.5a4.2,4.2,0,0,1,3,1.3l-1,1.2a2.7,2.7,0,0,0-2-.9c-1.7,0-2.9,1.4-2.9,3.8s1.1,3.8,2.9,3.8a3,3,0,0,0,2.2-1.1l1,1.2a4.2,4.2,0,0,1-3.3,1.5C43.4,264.2,41.3,262.3,41.3,258.8Z" fill="#fff"/><path d="M50.4,260.1a3.8,3.8,0,1,1,3.7,4.1A3.8,3.8,0,0,1,50.4,260.1Zm5.6,0c0-1.6-.7-2.6-1.9-2.6s-1.8,1-1.8,2.6.7,2.6,1.8,2.6S56,261.6,56,260.1Z" fill="#fff"/><path d="M59.7,256.1h1.5v1.4h.1a2.7,2.7,0,0,1,2.2-1.6l.9.2-.3,1.6h-.8c-.6,0-1.4.4-1.9,1.6V264H59.7Z" fill="#fff"/><path d="M65.7,256.1h1.5v1.4h.1a2.7,2.7,0,0,1,2.2-1.6l.9.2-.3,1.6h-.8c-.6,0-1.4.4-1.9,1.6V264H65.7Z" fill="#fff"/><path d="M71,260.1a3.8,3.8,0,0,1,3.6-4.1c2.1,0,3.2,1.5,3.2,3.7a4.3,4.3,0,0,1-.1.9h-5a2.3,2.3,0,0,0,2.3,2.2,3.3,3.3,0,0,0,1.8-.6l.6,1.2a5,5,0,0,1-2.7.8A3.8,3.8,0,0,1,71,260.1Zm5.3-.8c0-1.2-.5-2-1.6-2a2,2,0,0,0-1.9,2Z" fill="#fff"/><path d="M79.1,260.1a3.9,3.9,0,0,1,3.9-4.1,3.4,3.4,0,0,1,2.3.9l-.9,1.2a1.9,1.9,0,0,0-1.3-.6c-1.3,0-2.1,1-2.1,2.6s.9,2.6,2.1,2.6a2.6,2.6,0,0,0,1.6-.7l.8,1.2a3.9,3.9,0,0,1-2.6,1C80.7,264.2,79.1,262.7,79.1,260.1Z" fill="#fff"/><path d="M87.1,261.3v-3.7H86v-1.4h1.2l.2-2.1H89v2.1h2v1.5H89v3.7c0,.9.4,1.4,1.1,1.4l.8-.2.3,1.4a5,5,0,0,1-1.6.3C87.8,264.2,87.1,263,87.1,261.3Z" fill="#fff"/><path d="M272.2,253.5h1.9V264h-1.9Z" fill="#fff"/><path d="M276.6,256.1h1.5v1.1h.1a3.6,3.6,0,0,1,2.6-1.2c1.7,0,2.4,1.1,2.4,3.1V264h-1.8v-4.7c0-1.3-.4-1.8-1.2-1.8a2.5,2.5,0,0,0-1.8,1V264h-1.8Z" fill="#fff"/><path d="M285,260.1a3.9,3.9,0,0,1,3.9-4.1,3.4,3.4,0,0,1,2.3.9l-.9,1.2a1.9,1.9,0,0,0-1.3-.6c-1.3,0-2.1,1-2.1,2.6s.9,2.6,2.1,2.6a2.6,2.6,0,0,0,1.6-.7l.8,1.2a3.9,3.9,0,0,1-2.6,1C286.7,264.2,285,262.7,285,260.1Z" fill="#fff"/><path d="M292.1,260.1a3.8,3.8,0,1,1,3.7,4.1A3.8,3.8,0,0,1,292.1,260.1Zm5.6,0c0-1.6-.7-2.6-1.9-2.6s-1.8,1-1.8,2.6.7,2.6,1.8,2.6S297.6,261.6,297.6,260.1Z" fill="#fff"/><path d="M301.4,256.1h1.5v1.4h.1a2.7,2.7,0,0,1,2.2-1.6l.9.2-.3,1.6h-.8c-.6,0-1.4.4-1.9,1.6V264h-1.8Z" fill="#fff"/><path d="M307.3,256.1h1.5v1.4h.1a2.7,2.7,0,0,1,2.2-1.6l.9.2-.3,1.6H311c-.6,0-1.4.4-1.9,1.6V264h-1.8Z" fill="#fff"/><path d="M312.6,260.1a3.8,3.8,0,0,1,3.6-4.1c2.1,0,3.2,1.5,3.2,3.7a4.3,4.3,0,0,1-.1.9h-5a2.3,2.3,0,0,0,2.3,2.2,3.3,3.3,0,0,0,1.8-.6l.6,1.2a5,5,0,0,1-2.7.8A3.8,3.8,0,0,1,312.6,260.1Zm5.3-.8c0-1.2-.5-2-1.6-2a2,2,0,0,0-1.9,2Z" fill="#fff"/><path d="M320.7,260.1a3.9,3.9,0,0,1,3.9-4.1,3.4,3.4,0,0,1,2.3.9l-.9,1.2a1.9,1.9,0,0,0-1.3-.6c-1.3,0-2.1,1-2.1,2.6s.9,2.6,2.1,2.6a2.6,2.6,0,0,0,1.6-.7l.8,1.2a3.9,3.9,0,0,1-2.6,1C322.4,264.2,320.7,262.7,320.7,260.1Z" fill="#fff"/><path d="M328.7,261.3v-3.7h-1.1v-1.4h1.2l.2-2.1h1.5v2.1h2v1.5h-2v3.7c0,.9.4,1.4,1.1,1.4l.8-.2.3,1.4a5,5,0,0,1-1.6.3C329.4,264.2,328.7,263,328.7,261.3Z" fill="#fff"/><polygon points="80 39 80 7 50 7 50 39 31 39 66 68 101 39 80 39" stroke="#f7931e" stroke-miterlimit="10" stroke-width="2" fill="url(#g)"/><path d="M66,272.9A14.1,14.1,0,1,1,51.9,287,14.1,14.1,0,0,1,66,272.9m0-.9a15,15,0,1,0,15,15,15,15,0,0,0-15-15Z" fill="#fff"/><path d="M66,287V272a15,15,0,0,1,13,22.5Z" fill="#fff"/><path d="M302,272.9A14.1,14.1,0,1,1,287.9,287,14.1,14.1,0,0,1,302,272.9m0-.9a15,15,0,1,0,15,15,15,15,0,0,0-15-15Z" fill="#fff"/><path d="M302,287l13,7.5A15,15,0,1,1,302,272Z" fill="#fff"/></svg>