<svg xmlns="http://www.w3.org/2000/svg" xmlns:xlink="http://www.w3.org/1999/xlink" width="446" height="318" viewBox="0 0 446 318"><defs><linearGradient id="a" x1="6" y1="142" x2="128" y2="142" gradientUnits="userSpaceOnUse"><stop offset="0" stop-color="#434e5b"/><stop offset="1" stop-color="#43515b"/></linearGradient><linearGradient id="b" x1="11" y1="144.5" x2="123" y2="144.5" gradientUnits="userSpaceOnUse"><stop offset="0" stop-color="#43515b"/><stop offset="1" stop-color="#4d6473"/></linearGradient><linearGradient id="c" x1="163" x2="285" xlink:href="#a"/><linearGradient id="d" x1="168" x2="280" xlink:href="#b"/><linearGradient id="e" x1="320" x2="442" xlink:href="#a"/><linearGradient id="f" x1="325" x2="437" xlink:href="#b"/><linearGradient id="g" x1="47.53" y1="14.03" x2="84.28" y2="50.78" gradientUnits="userSpaceOnUse"><stop offset="0" stop-color="#a40000"/><stop offset="0.13" stop-color="#b20e07"/><stop offset="0.5" stop-color="#d23017"/><stop offset="0.8" stop-color="#e64520"/><stop offset="1" stop-color="#ed4d24"/></linearGradient></defs><title>Artboard 21</title><polyline points="6 233 6 51 128 51 128 233" fill="url(#a)"/><polyline points="11 233 11 56 123 56 123 233" fill="url(#b)"/><polygon points="124 233 124 55 122 57 122 233 124 233" fill="#434e5b"/><polygon points="122 233 122 57 120 59 120 233 122 233" fill="#66717c"/><polygon points="14 233 14 59 120 59 122 57 12 57 12 233 14 233" fill="#404e5b"/><polygon points="12 233 12 57 122 57 124 55 10 55 10 233 12 233" fill="#66717c"/><polygon points="31 79 103 79 105 77 29 77 29 117 31 115 31 79" fill="#66717c"/><polygon points="33 81 101 81 103 79 31 79 31 115 33 113 33 81" fill="#404e5b"/><polygon points="103 115 31 115 29 117 105 117 105 77 103 79 103 115" fill="#404e5b"/><polygon points="101 113 33 113 31 115 103 115 103 79 101 81 101 113" fill="#66717c"/><polygon points="31 129 103 129 105 127 29 127 29 167 31 165 31 129" fill="#66717c"/><polygon points="33 131 101 131 103 129 31 129 31 165 33 163 33 131" fill="#404e5b"/><polygon points="103 165 31 165 29 167 105 167 105 127 103 129 103 165" fill="#404e5b"/><polygon points="101 163 33 163 31 165 103 165 103 129 101 131 101 163" fill="#66717c"/><polygon points="31 177 103 177 105 175 29 175 29 215 31 213 31 177" fill="#66717c"/><polygon points="33 179 101 179 103 177 31 177 31 213 33 211 33 179" fill="#404e5b"/><polygon points="103 213 31 213 29 215 105 215 105 175 103 177 103 213" fill="#404e5b"/><polygon points="101 211 33 211 31 213 103 213 103 177 101 179 101 211" fill="#66717c"/><circle cx="112.5" cy="148.5" r="3.5" opacity="0.4"/><circle cx="112.5" cy="147.5" r="3.5" fill="#c09f66"/><polyline points="163 233 163 51 285 51 285 233" fill="url(#c)"/><polyline points="168 233 168 56 280 56 280 233" fill="url(#d)"/><polygon points="281 233 281 55 279 57 279 233 281 233" fill="#434e5b"/><polygon points="279 233 279 57 277 59 277 233 279 233" fill="#66717c"/><polygon points="171 233 171 59 277 59 279 57 169 57 169 233 171 233" fill="#404e5b"/><polygon points="169 233 169 57 279 57 281 55 167 55 167 233 169 233" fill="#66717c"/><polygon points="188 79 260 79 262 77 186 77 186 117 188 115 188 79" fill="#66717c"/><polygon points="190 81 258 81 260 79 188 79 188 115 190 113 190 81" fill="#404e5b"/><polygon points="260 115 188 115 186 117 262 117 262 77 260 79 260 115" fill="#404e5b"/><polygon points="258 113 190 113 188 115 260 115 260 79 258 81 258 113" fill="#66717c"/><polygon points="188 129 260 129 262 127 186 127 186 167 188 165 188 129" fill="#66717c"/><polygon points="190 131 258 131 260 129 188 129 188 165 190 163 190 131" fill="#404e5b"/><polygon points="260 165 188 165 186 167 262 167 262 127 260 129 260 165" fill="#404e5b"/><polygon points="258 163 190 163 188 165 260 165 260 129 258 131 258 163" fill="#66717c"/><polygon points="188 177 260 177 262 175 186 175 186 215 188 213 188 177" fill="#66717c"/><polygon points="190 179 258 179 260 177 188 177 188 213 190 211 190 179" fill="#404e5b"/><polygon points="260 213 188 213 186 215 262 215 262 175 260 177 260 213" fill="#404e5b"/><polygon points="258 211 190 211 188 213 260 213 260 177 258 179 258 211" fill="#66717c"/><circle cx="269.5" cy="148.5" r="3.5" opacity="0.4"/><circle cx="269.5" cy="147.5" r="3.5" fill="#c09f66"/><g opacity="0.6"><polyline points="320 233 320 51 442 51 442 233" fill="url(#e)"/><polyline points="325 233 325 56 437 56 437 233" fill="url(#f)"/><polygon points="438 233 438 55 436 57 436 233 438 233" fill="#434e5b"/><polygon points="436 233 436 57 434 59 434 233 436 233" fill="#66717c"/><polygon points="328 233 328 59 434 59 436 57 326 57 326 233 328 233" fill="#404e5b"/><polygon points="326 233 326 57 436 57 438 55 324 55 324 233 326 233" fill="#66717c"/><polygon points="345 79 417 79 419 77 343 77 343 117 345 115 345 79" fill="#66717c"/><polygon points="347 81 415 81 417 79 345 79 345 115 347 113 347 81" fill="#404e5b"/><polygon points="417 115 345 115 343 117 419 117 419 77 417 79 417 115" fill="#404e5b"/><polygon points="415 113 347 113 345 115 417 115 417 79 415 81 415 113" fill="#66717c"/><polygon points="345 129 417 129 419 127 343 127 343 167 345 165 345 129" fill="#66717c"/><polygon points="347 131 415 131 417 129 345 129 345 165 347 163 347 131" fill="#404e5b"/><polygon points="417 165 345 165 343 167 419 167 419 127 417 129 417 165" fill="#404e5b"/><polygon points="415 163 347 163 345 165 417 165 417 129 415 131 415 163" fill="#66717c"/><polygon points="345 177 417 177 419 175 343 175 343 215 345 213 345 177" fill="#66717c"/><polygon points="347 179 415 179 417 177 345 177 345 213 347 211 347 179" fill="#404e5b"/><polygon points="417 213 345 213 343 215 419 215 419 175 417 177 417 213" fill="#404e5b"/><polygon points="415 211 347 211 345 213 417 213 417 177 415 179 415 211" fill="#66717c"/><circle cx="426.5" cy="148.5" r="3.5" opacity="0.4"/><circle cx="426.5" cy="147.5" r="3.5" fill="#c09f66"/></g><rect x="6" y="244" width="122" height="68" rx="8" ry="8" fill="#009245"/><rect x="163" y="244" width="122" height="68" rx="8" ry="8" fill="#c1272d"/><path d="M42.3,258.8c0-3.4,2.1-5.5,4.8-5.5a4.2,4.2,0,0,1,3,1.3l-1,1.2a2.7,2.7,0,0,0-2-.9c-1.7,0-2.9,1.4-2.9,3.8s1.1,3.8,2.9,3.8a3,3,0,0,0,2.2-1.1l1,1.2a4.2,4.2,0,0,1-3.3,1.5C44.4,264.2,42.3,262.3,42.3,258.8Z" fill="#fff"/><path d="M51.4,260.1a3.8,3.8,0,1,1,3.7,4.1A3.8,3.8,0,0,1,51.4,260.1Zm5.6,0c0-1.6-.7-2.6-1.9-2.6s-1.8,1-1.8,2.6.7,2.6,1.8,2.6S57,261.6,57,260.1Z" fill="#fff"/><path d="M60.7,256.1h1.5v1.4h.1a2.7,2.7,0,0,1,2.2-1.6l.9.2-.3,1.6h-.8c-.6,0-1.4.4-1.9,1.6V264H60.7Z" fill="#fff"/><path d="M66.7,256.1h1.5v1.4h.1a2.7,2.7,0,0,1,2.2-1.6l.9.2-.3,1.6h-.8c-.6,0-1.4.4-1.9,1.6V264H66.7Z" fill="#fff"/><path d="M72,260.1a3.8,3.8,0,0,1,3.6-4.1c2.1,0,3.2,1.5,3.2,3.7a4.3,4.3,0,0,1-.1.9h-5a2.3,2.3,0,0,0,2.3,2.2,3.3,3.3,0,0,0,1.8-.6l.6,1.2a5,5,0,0,1-2.7.8A3.8,3.8,0,0,1,72,260.1Zm5.3-.8c0-1.2-.5-2-1.6-2a2,2,0,0,0-1.9,2Z" fill="#fff"/><path d="M80.1,260.1a3.9,3.9,0,0,1,3.9-4.1,3.4,3.4,0,0,1,2.3.9l-.9,1.2a1.9,1.9,0,0,0-1.3-.6c-1.3,0-2.1,1-2.1,2.6s.9,2.6,2.1,2.6a2.6,2.6,0,0,0,1.6-.7l.8,1.2a3.9,3.9,0,0,1-2.6,1C81.7,264.2,80.1,262.7,80.1,260.1Z" fill="#fff"/><path d="M88.1,261.3v-3.7H87v-1.4h1.2l.2-2.1H90v2.1h2v1.5H90v3.7c0,.9.4,1.4,1.1,1.4l.8-.2.3,1.4a5,5,0,0,1-1.6.3C88.8,264.2,88.1,263,88.1,261.3Z" fill="#fff"/><path d="M194.2,253.5h1.9V264h-1.9Z" fill="#fff"/><path d="M198.6,256.1h1.5v1.1h.1a3.6,3.6,0,0,1,2.6-1.2c1.7,0,2.4,1.1,2.4,3.1V264h-1.8v-4.7c0-1.3-.4-1.8-1.2-1.8a2.5,2.5,0,0,0-1.8,1V264h-1.8Z" fill="#fff"/><path d="M207,260.1a3.9,3.9,0,0,1,3.9-4.1,3.4,3.4,0,0,1,2.3.9l-.9,1.2a1.9,1.9,0,0,0-1.3-.6c-1.3,0-2.1,1-2.1,2.6s.9,2.6,2.1,2.6a2.6,2.6,0,0,0,1.6-.7l.8,1.2a3.9,3.9,0,0,1-2.6,1C208.7,264.2,207,262.7,207,260.1Z" fill="#fff"/><path d="M214.1,260.1a3.8,3.8,0,1,1,3.7,4.1A3.8,3.8,0,0,1,214.1,260.1Zm5.6,0c0-1.6-.7-2.6-1.9-2.6s-1.8,1-1.8,2.6.7,2.6,1.8,2.6S219.6,261.6,219.6,260.1Z" fill="#fff"/><path d="M223.4,256.1h1.5v1.4h.1a2.7,2.7,0,0,1,2.2-1.6l.9.2-.3,1.6h-.8c-.6,0-1.4.4-1.9,1.6V264h-1.8Z" fill="#fff"/><path d="M229.3,256.1h1.5v1.4h.1a2.7,2.7,0,0,1,2.2-1.6l.9.2-.3,1.6H233c-.6,0-1.4.4-1.9,1.6V264h-1.8Z" fill="#fff"/><path d="M234.6,260.1a3.8,3.8,0,0,1,3.6-4.1c2.1,0,3.2,1.5,3.2,3.7a4.3,4.3,0,0,1-.1.9h-5a2.3,2.3,0,0,0,2.3,2.2,3.3,3.3,0,0,0,1.8-.6l.6,1.2a5,5,0,0,1-2.7.8A3.8,3.8,0,0,1,234.6,260.1Zm5.3-.8c0-1.2-.5-2-1.6-2a2,2,0,0,0-1.9,2Z" fill="#fff"/><path d="M242.7,260.1a3.9,3.9,0,0,1,3.9-4.1,3.4,3.4,0,0,1,2.3.9l-.9,1.2a1.9,1.9,0,0,0-1.3-.6c-1.3,0-2.1,1-2.1,2.6s.9,2.6,2.1,2.6a2.6,2.6,0,0,0,1.6-.7l.8,1.2a3.9,3.9,0,0,1-2.6,1C244.4,264.2,242.7,262.7,242.7,260.1Z" fill="#fff"/><path d="M250.7,261.3v-3.7h-1.1v-1.4h1.2l.2-2.1h1.5v2.1h2v1.5h-2v3.7c0,.9.4,1.4,1.1,1.4l.8-.2.3,1.4a5,5,0,0,1-1.6.3C251.4,264.2,250.7,263,250.7,261.3Z" fill="#fff"/><polygon points="81 39 81 7 51 7 51 39 32 39 67 68 102 39 81 39" stroke="#f7931e" stroke-miterlimit="10" stroke-width="2" fill="url(#g)"/><path d="M67,272.9A14.1,14.1,0,1,1,52.9,287,14.1,14.1,0,0,1,67,272.9m0-.9a15,15,0,1,0,15,15,15,15,0,0,0-15-15Z" fill="#fff"/><path d="M67,287V272a15,15,0,0,1,13,22.5Z" fill="#fff"/><path d="M224,272.9A14.1,14.1,0,1,1,209.9,287,14.1,14.1,0,0,1,224,272.9m0-.9a15,15,0,1,0,15,15,15,15,0,0,0-15-15Z" fill="#fff"/><path d="M224,287l13,7.5A15,15,0,1,1,224,272Z" fill="#fff"/><line x1="363" y1="104" x2="403" y2="173" fill="#c1272d" stroke="#000" stroke-miterlimit="10" stroke-width="9"/><line x1="397" y1="112" x2="369" y2="167" fill="#c1272d" stroke="#000" stroke-miterlimit="10" stroke-width="9"/><line x1="363" y1="102" x2="403" y2="171" fill="#c1272d" stroke="#c1272d" stroke-miterlimit="10" stroke-width="9"/><line x1="397" y1="110" x2="369" y2="165" fill="#c1272d" stroke="#c1272d" stroke-miterlimit="10" stroke-width="9"/></svg>