<svg height="318" viewBox="0 0 446 318" width="446" xmlns="http://www.w3.org/2000/svg" xmlns:xlink="http://www.w3.org/1999/xlink"><linearGradient id="a" gradientUnits="userSpaceOnUse" x1="5" x2="127" y1="142" y2="142"><stop offset="0" stop-color="#434e5b"/><stop offset="1" stop-color="#43515b"/></linearGradient><linearGradient id="b" gradientUnits="userSpaceOnUse" x1="10" x2="122" y1="144.5" y2="144.5"><stop offset="0" stop-color="#43515b"/><stop offset="1" stop-color="#4d6473"/></linearGradient><linearGradient id="c" x1="162" x2="284" xlink:href="#a"/><linearGradient id="d" x1="167" x2="279" xlink:href="#b"/><linearGradient id="e" x1="319" x2="441" xlink:href="#a"/><linearGradient id="f" x1="324" x2="436" xlink:href="#b"/><linearGradient id="g" gradientUnits="userSpaceOnUse" x1="46.53" x2="83.28" y1="14.03" y2="50.78"><stop offset="0" stop-color="#a40000"/><stop offset=".13" stop-color="#b20e07"/><stop offset=".5" stop-color="#d23017"/><stop offset=".8" stop-color="#e64520"/><stop offset="1" stop-color="#ed4d24"/></linearGradient><path d="m5 233v-182h122v182" fill="url(#a)"/><path d="m10 233v-177h112v177" fill="url(#b)"/><path d="m123 233v-178l-2 2v176z" fill="#434e5b"/><path d="m121 233v-176l-2 2v174z" fill="#66717c"/><path d="m13 233v-174h106l2-2h-110v176z" fill="#404e5b"/><path d="m11 233v-176h110l2-2h-114v178z" fill="#66717c"/><path d="m30 79h72l2-2h-76v40l2-2z" fill="#66717c"/><path d="m32 81h68l2-2h-72v36l2-2z" fill="#404e5b"/><path d="m102 115h-72l-2 2h76v-40l-2 2z" fill="#404e5b"/><path d="m100 113h-68l-2 2h72v-36l-2 2z" fill="#66717c"/><path d="m30 129h72l2-2h-76v40l2-2z" fill="#66717c"/><path d="m32 131h68l2-2h-72v36l2-2z" fill="#404e5b"/><path d="m102 165h-72l-2 2h76v-40l-2 2z" fill="#404e5b"/><path d="m100 163h-68l-2 2h72v-36l-2 2z" fill="#66717c"/><path d="m30 177h72l2-2h-76v40l2-2z" fill="#66717c"/><path d="m32 179h68l2-2h-72v36l2-2z" fill="#404e5b"/><path d="m102 213h-72l-2 2h76v-40l-2 2z" fill="#404e5b"/><path d="m100 211h-68l-2 2h72v-36l-2 2z" fill="#66717c"/><circle cx="111.5" cy="148.5" opacity=".4" r="3.5"/><circle cx="111.5" cy="147.5" fill="#c09f66" r="3.5"/><path d="m162 233v-182h122v182" fill="url(#c)"/><path d="m167 233v-177h112v177" fill="url(#d)"/><path d="m280 233v-178l-2 2v176z" fill="#434e5b"/><path d="m278 233v-176l-2 2v174z" fill="#66717c"/><path d="m170 233v-174h106l2-2h-110v176z" fill="#404e5b"/><path d="m168 233v-176h110l2-2h-114v178z" fill="#66717c"/><path d="m187 79h72l2-2h-76v40l2-2z" fill="#66717c"/><path d="m189 81h68l2-2h-72v36l2-2z" fill="#404e5b"/><path d="m259 115h-72l-2 2h76v-40l-2 2z" fill="#404e5b"/><path d="m257 113h-68l-2 2h72v-36l-2 2z" fill="#66717c"/><path d="m187 129h72l2-2h-76v40l2-2z" fill="#66717c"/><path d="m189 131h68l2-2h-72v36l2-2z" fill="#404e5b"/><path d="m259 165h-72l-2 2h76v-40l-2 2z" fill="#404e5b"/><path d="m257 163h-68l-2 2h72v-36l-2 2z" fill="#66717c"/><path d="m187 177h72l2-2h-76v40l2-2z" fill="#66717c"/><path d="m189 179h68l2-2h-72v36l2-2z" fill="#404e5b"/><path d="m259 213h-72l-2 2h76v-40l-2 2z" fill="#404e5b"/><path d="m257 211h-68l-2 2h72v-36l-2 2z" fill="#66717c"/><circle cx="268.5" cy="148.5" opacity=".4" r="3.5"/><circle cx="268.5" cy="147.5" fill="#c09f66" r="3.5"/><path d="m319 233v-182h122v182" fill="url(#e)"/><path d="m324 233v-177h112v177" fill="url(#f)"/><path d="m437 233v-178l-2 2v176z" fill="#434e5b"/><path d="m435 233v-176l-2 2v174z" fill="#66717c"/><path d="m327 233v-174h106l2-2h-110v176z" fill="#404e5b"/><path d="m325 233v-176h110l2-2h-114v178z" fill="#66717c"/><path d="m344 79h72l2-2h-76v40l2-2z" fill="#66717c"/><path d="m346 81h68l2-2h-72v36l2-2z" fill="#404e5b"/><path d="m416 115h-72l-2 2h76v-40l-2 2z" fill="#404e5b"/><path d="m414 113h-68l-2 2h72v-36l-2 2z" fill="#66717c"/><path d="m344 129h72l2-2h-76v40l2-2z" fill="#66717c"/><path d="m346 131h68l2-2h-72v36l2-2z" fill="#404e5b"/><path d="m416 165h-72l-2 2h76v-40l-2 2z" fill="#404e5b"/><path d="m414 163h-68l-2 2h72v-36l-2 2z" fill="#66717c"/><path d="m344 177h72l2-2h-76v40l2-2z" fill="#66717c"/><path d="m346 179h68l2-2h-72v36l2-2z" fill="#404e5b"/><path d="m416 213h-72l-2 2h76v-40l-2 2z" fill="#404e5b"/><path d="m414 211h-68l-2 2h72v-36l-2 2z" fill="#66717c"/><circle cx="425.5" cy="148.5" opacity=".4" r="3.5"/><circle cx="425.5" cy="147.5" fill="#c09f66" r="3.5"/><rect fill="#009245" height="68" rx="8" width="122" x="5" y="244"/><rect fill="#c1272d" height="68" rx="8" width="279" x="162" y="244"/><g fill="#fff"><path d="m46.34 253.53h2.81c3.2 0 5.09 1.73 5.09 5.19s-1.89 5.28-5 5.28h-2.9zm2.68 9c2.11 0 3.31-1.21 3.31-3.78s-1.2-3.75-3.33-3.75h-.8v7.46z"/><path d="m55.67 260.08a3.76 3.76 0 1 1 3.73 4.11 3.8 3.8 0 0 1 -3.73-4.11zm5.59 0c0-1.59-.71-2.63-1.86-2.63s-1.84 1-1.84 2.63.69 2.61 1.84 2.61 1.86-1.04 1.86-2.61z"/><path d="m64.44 265.42a2 2 0 0 1 1.12-1.68v-.06a1.48 1.48 0 0 1 -.7-1.31 1.89 1.89 0 0 1 .86-1.46v-.06a2.66 2.66 0 0 1 -1-2.08 2.85 2.85 0 0 1 3.08-2.77 3.59 3.59 0 0 1 1.15.19h2.82v1.36h-1.44a2.1 2.1 0 0 1 .45 1.33c0 1.74-1.31 2.67-3 2.67a2.79 2.79 0 0 1 -1.07-.21.93.93 0 0 0 -.39.76c0 .45.33.72 1.29.72h1.39c1.89 0 2.88.57 2.88 1.93 0 1.56-1.63 2.77-4.19 2.77-1.86-.05-3.25-.72-3.25-2.1zm1-13 1.09-.18a1.52 1.52 0 0 0 3 0l1.09.18a2.61 2.61 0 0 1 -5.22 0zm4.68 12.58c0-.61-.49-.79-1.39-.79h-1.07a4.27 4.27 0 0 1 -1.08-.11 1.32 1.32 0 0 0 -.6 1c0 .71.77 1.12 2 1.12s2.14-.54 2.14-1.22zm-1-6.24a1.38 1.38 0 1 0 -2.74 0 1.38 1.38 0 1 0 2.74 0z"/><path d="m73.29 256.14h1.52l.13 1.39h.06a2.67 2.67 0 0 1 2.23-1.53 2 2 0 0 1 .89.16l-.32 1.6a2.55 2.55 0 0 0 -.81-.13c-.63 0-1.38.43-1.86 1.62v4.75h-1.84z"/><path d="m79.18 261.07v-4.93h1.82v4.69c0 1.3.37 1.78 1.21 1.78.69 0 1.16-.32 1.75-1.09v-5.38h1.84v7.86h-1.49l-.14-1.15a3.21 3.21 0 0 1 -2.53 1.34c-1.73 0-2.46-1.13-2.46-3.12z"/><path d="m285.32 260.11-3.14-6.58h2l1.14 2.68c.3.78.59 1.5.92 2.3h.07c.33-.8.65-1.52 1-2.3l1.13-2.68h1.94l-3.15 6.58v3.89h-1.86z"/><path d="m289.87 261.89c0-1.68 1.39-2.56 4.62-2.92 0-.83-.37-1.53-1.44-1.53a4.46 4.46 0 0 0 -2.21.77l-.67-1.24a6.15 6.15 0 0 1 3.23-1c2 0 2.93 1.2 2.93 3.39v4.64h-1.52l-.13-.86h-.06a3.85 3.85 0 0 1 -2.43 1.05 2.19 2.19 0 0 1 -2.32-2.3zm4.62 0v-1.76c-2.14.27-2.85.83-2.85 1.61s.48 1 1.14 1a2.5 2.5 0 0 0 1.71-.85z"/><path d="m298.54 256.14h1.52l.13 1.06h.06a3.63 3.63 0 0 1 2.58-1.25c1.68 0 2.41 1.13 2.41 3.12v4.93h-1.84v-4.69c0-1.3-.36-1.78-1.23-1.78a2.48 2.48 0 0 0 -1.79 1v5.47h-1.84z"/><path d="m307.5 262v-9.3h1.84v9.38c0 .45.21.61.4.61a1.21 1.21 0 0 0 .29 0l.24 1.37a2.49 2.49 0 0 1 -1 .16c-1.27-.03-1.77-.88-1.77-2.22z"/><path d="m311.83 256.14h1.84v7.86h-1.84z"/><path d="m316.65 266.93c1.3-.08 1.69-.29 1.69-.75s-.28-.6-1.23-.72l.64-1.3a5.12 5.12 0 0 1 -2.51-1.06l.86-1.18a3.54 3.54 0 0 0 2.18.88c.85 0 1.25-.4 1.25-.94s-.85-.95-1.68-1.27c-1-.38-2.16-1-2.16-2.29s1.09-2.35 2.85-2.35a4.28 4.28 0 0 1 2.62.94l-.85 1.12a3 3 0 0 0 -1.73-.67c-.78 0-1.16.37-1.16.87s.75.86 1.6 1.16c1.07.4 2.25.92 2.25 2.39a2.43 2.43 0 0 1 -2.38 2.38l-.39.85c.77.19 1.21.51 1.21 1.17 0 1-1.06 1.49-2.9 1.57z"/></g><path d="m80 39v-32h-30v32h-19l35 29 35-29z" fill="url(#g)" stroke="#f7931e" stroke-miterlimit="10" stroke-width="2"/><path d="m66 272.88a14.12 14.12 0 1 1 -14.12 14.12 14.14 14.14 0 0 1 14.12-14.12m0-.88a15 15 0 1 0 15 15 15 15 0 0 0 -15-15z" fill="#fff"/><path d="m66 287v-15a15 15 0 0 1 13 22.5z" fill="#fff"/><path d="m302 272.88a14.12 14.12 0 1 1 -14.12 14.12 14.14 14.14 0 0 1 14.12-14.12m0-.88a15 15 0 1 0 15 15 15 15 0 0 0 -15-15z" fill="#fff"/><path d="m302 287 13 7.5a15 15 0 1 1 -13-22.5z" fill="#fff"/></svg>