<svg id="Layer_1" data-name="Layer 1" xmlns="http://www.w3.org/2000/svg" viewBox="0 0 200 120"><title>dodecahedron</title><path d="M89.9,77.9A22.6,22.6,0,0,0,91,71" fill="none" stroke="#b3b3b3" stroke-miterlimit="10" stroke-width="2"/><polygon points="87.4 83 93.7 77.1 90 77.5 87.8 74.4 87.4 83" fill="#b3b3b3"/><polygon points="148.1 34 128.3 48.4 135.9 71.7 160.4 71.7 167.9 48.4 148.1 34" fill="#31b304"/><polygon points="148.1 109.4 167.9 95 160.4 71.7 135.9 71.7 128.3 95 148.1 109.4" fill="#258603"/><polygon points="180.2 86 200 71.6 192.4 48.4 167.9 48.4 160.4 71.6 180.2 86" fill="#258603"/><polygon points="116 86 135.8 71.6 128.3 48.4 103.8 48.4 96.2 71.6 116 86" fill="#258603"/><polygon points="128.3 48.4 148.1 34 140.6 10.7 116.1 10.7 108.5 34 128.3 48.4" fill="#258603"/><polygon points="167.9 48.4 187.7 34 180.1 10.7 155.7 10.7 148.1 34 167.9 48.4" fill="#258603"/><polygon points="51.9 86 71.7 71.6 64.1 48.3 39.6 48.3 32.1 71.6 51.9 86" fill="#258603"/><polygon points="51.9 10.6 32.1 25 39.6 48.3 64.1 48.3 71.7 25 51.9 10.6" fill="#31b304"/><polygon points="19.8 34 0 48.4 7.6 71.6 32.1 71.6 39.6 48.4 19.8 34" fill="#31b304"/><polygon points="84 34 64.2 48.4 71.7 71.6 96.2 71.6 103.8 48.4 84 34" fill="#31b304"/><polygon points="71.7 71.6 51.9 86 59.4 109.3 83.9 109.3 91.5 86 71.7 71.6" fill="#31b304"/><polygon points="32.1 71.6 12.3 86 19.9 109.3 44.3 109.3 51.9 86 32.1 71.6" fill="#31b304"/><path d="M149.2,13.5a24.2,24.2,0,0,0-6.9,1.1" fill="none" stroke="#b3b3b3" stroke-miterlimit="10" stroke-width="2"/><polygon points="154.8 14.3 147.3 10.1 148.8 13.6 146.5 16.6 154.8 14.3" fill="#b3b3b3"/><path d="M123.2,87.2a22.2,22.2,0,0,0,6.1,3.2" fill="none" stroke="#b3b3b3" stroke-miterlimit="10" stroke-width="2"/><polygon points="119.1 83.3 122.7 91.1 123.5 87.4 127.1 86.3 119.1 83.3" fill="#b3b3b3"/><path d="M75.9,33.6a21.4,21.4,0,0,0-6.2-3.2" fill="none" stroke="#b3b3b3" stroke-miterlimit="10" stroke-width="2"/><polygon points="80 37.5 76.4 29.7 75.5 33.4 72 34.5 80 37.5" fill="#b3b3b3"/><path d="M187.9,42.6a24.4,24.4,0,0,0-3.2-6.2" fill="none" stroke="#b3b3b3" stroke-miterlimit="10" stroke-width="2"/><polygon points="188.9 48.2 190.5 39.7 187.7 42.2 184.1 41 188.9 48.2" fill="#b3b3b3"/><path d="M172.1,88.4a20.7,20.7,0,0,0,4.9-4.9" fill="none" stroke="#b3b3b3" stroke-miterlimit="10" stroke-width="2"/><polygon points="167.1 91.1 175.7 90 172.4 88.1 172.5 84.4 167.1 91.1" fill="#b3b3b3"/><path d="M51.3,107.4a20.2,20.2,0,0,0,6.8-1.1" fill="none" stroke="#b3b3b3" stroke-miterlimit="10" stroke-width="2"/><polygon points="45.7 106.6 53.2 110.8 51.7 107.4 54 104.4 45.7 106.6" fill="#b3b3b3"/><path d="M13.5,77.1a23.1,23.1,0,0,0,3.1,6.3" fill="none" stroke="#b3b3b3" stroke-miterlimit="10" stroke-width="2"/><polygon points="12.5 71.6 10.8 80 13.7 77.5 17.2 78.8 12.5 71.6" fill="#b3b3b3"/><path d="M110,41.7a21.7,21.7,0,0,0-1.1,6.9" fill="none" stroke="#b3b3b3" stroke-miterlimit="10" stroke-width="2"/><polygon points="112.5 36.6 106.2 42.4 109.9 42.1 112.1 45.2 112.5 36.6" fill="#b3b3b3"/><path d="M27.8,31.4a20.7,20.7,0,0,0-4.9,4.9" fill="none" stroke="#b3b3b3" stroke-miterlimit="10" stroke-width="2"/><polygon points="32.8 28.7 24.3 29.7 27.5 31.6 27.4 35.4 32.8 28.7" fill="#b3b3b3"/></svg>