<svg id="Layer_1" data-name="Layer 1" xmlns="http://www.w3.org/2000/svg" viewBox="0 0 200 120"><title>pentagons</title><line x1="103.5" y1="30" x2="103.5" y2="51.4" fill="none" stroke="red" stroke-miterlimit="10" stroke-width="2"/><polygon points="103.5 57 100.2 49 103.5 50.9 106.8 49 103.5 57" fill="red"/><polygon points="73 115 103 99.6 97.7 66.3 64.4 61.1 49.1 91.2 73 115" fill="#31b304"/><polygon points="158.5 91.1 143.1 61.1 109.9 66.5 104.7 99.8 134.7 115 158.5 91.1" fill="#258603"/><polygon points="134.2 5.6 104.2 21 109.5 54.3 142.9 59.4 158.1 29.4 134.2 5.6" fill="#31b304"/><polygon points="49.1 29.5 64.5 59.5 97.8 54.1 103 20.8 72.9 5.6 49.1 29.5" fill="#258603"/><line x1="74" y1="60.5" x2="95.4" y2="60.5" fill="none" stroke="red" stroke-miterlimit="10" stroke-width="2"/><polygon points="101 60.5 93 63.8 94.9 60.5 93 57.2 101 60.5" fill="red"/><line x1="133" y1="60.5" x2="111.6" y2="60.5" fill="none" stroke="red" stroke-miterlimit="10" stroke-width="2"/><polygon points="106 60.5 114 57.2 112.1 60.5 114 63.8 106 60.5" fill="red"/><line x1="103.5" y1="91" x2="103.5" y2="69.6" fill="none" stroke="red" stroke-miterlimit="10" stroke-width="2"/><polygon points="103.5 64 106.8 72 103.5 70.1 100.2 72 103.5 64" fill="red"/></svg>