<svg id="Layer_1" data-name="Layer 1" xmlns="http://www.w3.org/2000/svg" viewBox="0 0 200 120"><title>squares</title><rect x="100" y="-20" width="40" height="40" fill="#175cbf"/><rect x="-20" y="-20" width="40" height="40" fill="#1f7aff"/><rect x="20" y="-20" width="40" height="40" fill="#175cbf"/><rect x="60" y="-20" width="40" height="40" fill="#1f7aff"/><rect x="-20" y="20" width="40" height="40" fill="#175cbf"/><rect x="20" y="20" width="40" height="40" fill="#1f7aff"/><rect x="60" y="20" width="40" height="40" fill="#175cbf"/><rect x="100" y="20" width="40" height="40" fill="#1f7aff"/><rect x="100" y="60" width="40" height="40" fill="#175cbf"/><rect x="-20" y="60" width="40" height="40" fill="#1f7aff"/><rect x="20" y="60" width="40" height="40" fill="#175cbf"/><rect x="60" y="60" width="40" height="40" fill="#1f7aff"/><rect x="-20" y="100" width="40" height="40" fill="#175cbf"/><rect x="20" y="100" width="40" height="40" fill="#1f7aff"/><rect x="60" y="100" width="40" height="40" fill="#175cbf"/><rect x="100" y="100" width="40" height="40" fill="#1f7aff"/><rect x="140" y="-20" width="40" height="40" fill="#1f7aff"/><rect x="180" y="-20" width="40" height="40" fill="#175cbf"/><rect x="140" y="20" width="40" height="40" fill="#175cbf"/><rect x="180" y="20" width="40" height="40" fill="#1f7aff"/><rect x="140" y="60" width="40" height="40" fill="#1f7aff"/><rect x="180" y="60" width="40" height="40" fill="#175cbf"/><rect x="140" y="100" width="40" height="40" fill="#175cbf"/><rect x="180" y="100" width="40" height="40" fill="#1f7aff"/></svg>