<svg id="Layer_1" data-name="Layer 1" xmlns="http://www.w3.org/2000/svg" viewBox="0 0 200 120"><title>triangles-7</title><polygon points="82.5 114.1 105.6 74.2 128.6 114 82.5 114.1" fill="#bf6f17"/><polygon points="132.4 112.1 115.6 69.1 161.1 75.9 132.4 112.1" fill="#ff941f"/><polygon points="161.3 72.5 117.2 58.9 150.8 27.5 161.3 72.5" fill="#bf6f17"/><polygon points="149.6 25.2 111.5 51.3 107.9 5.4 149.6 25.2" fill="#ff941f"/><polygon points="104.2 4.9 100.9 50.9 62.8 25.2 104.2 4.9" fill="#bf6f17"/><polygon points="59.8 26.9 93.8 58.1 49.9 72 59.8 26.9" fill="#ff941f"/><polygon points="51 77 96.6 70.2 79.8 113 51 77" fill="#ff941f"/><line x1="106" y1="30" x2="106" y2="51.4" fill="none" stroke="red" stroke-miterlimit="10" stroke-width="2"/><polygon points="106 57 102.7 49 106 50.9 109.3 49 106 57" fill="red"/><line x1="130" y1="42" x2="113.3" y2="55.3" fill="none" stroke="red" stroke-miterlimit="10" stroke-width="2"/><polygon points="108.9 58.8 113.1 51.3 113.6 55 117.1 56.4 108.9 58.8" fill="red"/><line x1="135" y1="68.3" x2="114.2" y2="63.5" fill="none" stroke="red" stroke-miterlimit="10" stroke-width="2"/><polygon points="108.7 62.2 117.2 60.8 114.6 63.6 115.7 67.2 108.7 62.2" fill="red"/><line x1="121.3" y1="93.3" x2="112.1" y2="74" fill="none" stroke="red" stroke-miterlimit="10" stroke-width="2"/><polygon points="109.7 68.9 116 74.7 112.3 74.4 110.2 77.5 109.7 68.9" fill="red"/><line x1="81" y1="42" x2="97.7" y2="55.3" fill="none" stroke="red" stroke-miterlimit="10" stroke-width="2"/><polygon points="102.1 58.8 93.9 56.4 97.4 55 97.9 51.3 102.1 58.8" fill="red"/><line x1="92" y1="90.6" x2="101.4" y2="71.4" fill="none" stroke="red" stroke-miterlimit="10" stroke-width="2"/><polygon points="103.9 66.4 103.3 74.9 101.2 71.8 97.5 72.1 103.9 66.4" fill="red"/><line x1="73.3" y1="68.8" x2="94.1" y2="64.2" fill="none" stroke="red" stroke-miterlimit="10" stroke-width="2"/><polygon points="99.6 63 92.6 67.9 93.7 64.3 91.2 61.5 99.6 63" fill="red"/></svg>