<svg xmlns="http://www.w3.org/2000/svg" width="80" height="80" viewBox="0 0 80 80"><title>platonic</title><polygon points="20 5 40 40 0 40 20 5" fill="#9e005d"/><polygon points="60 5 80 40 40 40 60 5" fill="#9e005d"/><polygon points="40 40 20 5 60 5 40 40" fill="#fbb03b"/><polygon points="40 40 60 75 20 75 40 40" fill="#9e005d"/><polygon points="20 75 0 40 40 40 20 75" fill="#fbb03b"/><path d="M57.3,53.6A21.9,21.9,0,0,0,62,40" fill="none" stroke="#000" stroke-miterlimit="10" stroke-width="2"/><polygon points="50.9 59.1 63 54.6 57.6 53 56.4 47.4 50.9 59.1"/></svg>