<svg viewBox="0 0 760 500" xmlns="http://www.w3.org/2000/svg">
<g stroke="#fff" stroke-linejoin="bevel">
<path d="m267.5 74.6-7-21.5 18.3-13.4 18.3 13.4-6.9 21.5z" fill="#ff941f"/>
<path d="m248.9 130.7-6.9-21.5h-22.5l18.3-13.3-6.8-20.9 17.8 12.9 18.3-13.3-6.6 21.3 18.3 13.3h-22.9z" fill="#1f7aff"/>
<path d="m219.5 40.2 18.5 12.8h22.6l-18.5-12.8z" fill="#b30469"/>
<path d="m308.5 130.8-18.3 13.3 6.9 21.6-18.3-13.3-18.3 13.3 7-21.8 18.3-13.3z" fill="#31b304"/>
<path d="m278.8 109.1 7 21.5-18.3 13.3-18.3-13.3 7-21.5z" fill="#ff941f"/>
<path d="m290.2 74.6 6.9 21.5-18.3 13.3-18.3-13.3 7-21.5z" fill="#ff941f"/>
<path d="m260.5 53.2 7 21.6-18.3 13.3-18.3-13.3 7-21.6z" fill="#ff941f"/>
<path d="m230.8 74.6 7 21.5-18.3 13.3-18.3-13.3 7-21.5z" fill="#ff941f"/>
<path d="m242.2 109.1 7 21.5-18.3 13.3-18.4-13.3 7-21.5z" fill="#ff941f"/>
<path d="m208.2 74.6-7-21.5 18.3-13.4 18.3 13.4-7 21.5z" fill="#ff941f"/>
<path d="m285.8 130.7-7-21.5 18.3-13.3 18.4 13.3-7 21.5z" fill="#ff941f"/>
<path d="m237.9 165.5-7-21.5 18.3-13.3 18.3 13.3-7 21.5z" fill="#ff941f"/>
<path d="m189.9 130.7-7-21.5 18.3-13.3 18.3 13.3-7 21.5z" fill="#ff941f"/>
<path d="m289.8 74.7 7.3 21.3 18.4 13.3-7.4-21.3z" fill="#b30469"/>
<path d="m212.5 130.8 7.4 21.3 18.3 13.3-7.3-21.3z" fill="#b30469"/>
<path d="m212.5 130.7 7 21.5-18.3 13.3-18.3-13.3 7-21.5z" fill="#ff941f"/>
<path d="m271.9 18.4 7 21.5-18.3 13.3-18.3-13.3 7-21.5z" fill="#ff941f"/>
<path d="m319.4 53 7 21.6-18.3 13.3-18.3-13.3 7-21.6z" fill="#ff941f"/>
<path d="m315.1 109.4-7-21.5 18.3-13.3 18.3 13.3-7 21.5z" fill="#ff941f"/>
<path d="m337.7 109.1 7 21.5-18.3 13.3-18.3-13.3 7-21.5z" fill="#ff941f"/>
<path d="m297.1 165.5-6.9-21.5 18.3-13.3 18.3 13.3-7 21.5z" fill="#ff941f"/>
<path d="m267.6 187.4-7-21.6 18.3-13.3 18.3 13.3-7 21.6z" fill="#ff941f"/>
<path d="m208.2 187.4-7-21.6 18.3-13.3 18.3 13.3-7 21.6z" fill="#ff941f"/>
<path d="m260.5 165.5 7 21.5-18.3 13.4-18.3-13.4 7-21.5z" fill="#ff941f"/>
<path d="m319.8 165.5 7 21.5-18.3 13.4-18.3-13.4 6.9-21.5z" fill="#ff941f"/>
<path d="m326.6 144-6.6 21.5 7 21.5 6.5-21.5z" fill="#b30469"/>
<path d="m333.4 165.5-7-21.5 18.3-13.3 18.3 13.3-7 21.5z" fill="#ff941f"/>
<path d="m345.3 130.7-7-21.5 18.3-13.3 18.4 13.3-7 21.5z" fill="#ff941f"/>
<path d="m356 53 7 21.6-18.3 13.3-18.3-13.3 7-21.6z" fill="#ff941f"/>
<path d="m356 53.2h-22.6l-7 21.5-7-21.5h-22.6l18.5-13.6h22.6z" fill="#31b304"/>
<path d="m308.1 18.4 7 21.5-18.3 13.3-18.3-13.3 7-21.5z" fill="#ff941f"/>
<path d="m285.5 18.4-7-21.5 18.3-13.3 18.3 13.3-7 21.5z" fill="#ff941f"/>
<path d="m315.1 39.6-7-21.5 18.3-13.3 18.3 13.3-7 21.5z" fill="#ff941f"/>
<path d="m386.3 74.6 7 21.5-18.3 13.3-18.4-13.3 7-21.5z" fill="#ff941f"/>
<path d="m363.6 74.6-7-21.5 18.4-13.4 18.3 13.4-7 21.5z" fill="#ff941f"/>
<path d="m363.3 74.4-18 13.6-7 21.5 18-13.5z" fill="#b30469"/>
<path d="m404.4 130.7-7-21.5h-22.4l18.3-13.3-6.8-20.9 17.7 12.9 18.4-13.3-6.6 21.3 18.3 13.3h-22.9z" fill="#1f7aff"/>
<path d="m415.9 53.2 7 21.6-18.3 13.3-18.3-13.3 7-21.6z" fill="#ff941f"/>
<path d="m404.6 18.2 7 21.5-18.3 13.3-18.3-13.3 7-21.5z" fill="#ff941f"/>
<path d="m367.4 18.2 7 21.5-18.4 13.3-18.3-13.3 7-21.5z" fill="#ff941f"/>
<path d="m326.6-37.9 7 21.5h22.5l-18.3 13.3 6.7 20.9-17.7-12.9-18.3 13.3 6.6-21.3-18.3-13.3h22.8z" fill="#1f7aff"/>
<path d="m344.7 18.4-7-21.5 18.3-13.3 18.4 13.3-7 21.5z" fill="#ff941f"/>
<path d="m393.4-16.4-7 21.5 18.3 13.3h-22.6l-7 21.5-7.2-21.7 7-21.6z" fill="#31b304"/>
<path d="m434.1 39.7-22.5.5-18.3 13.3 22.5-.5z" fill="#b30469"/>
<path d="m393.3 165.3-18.3-13.3-18.4 13.3 7-21.5-18.3-13.3 22.9-.1 18.3 13.3z" fill="#31b304"/>
<path d="m397.6 109.1 7 21.5-18.3 13.3-18.3-13.3 7-21.5z" fill="#ff941f"/>
<path d="m393.3 165.7-7-21.5 18.3-13.3 18.3 13.3-6.9 21.5z" fill="#ff941f"/>
<path d="m433.9 109.5 7 21.6-18.3 13.3-18.3-13.3 7-21.6z" fill="#ff941f"/>
<path d="m440.9 130.8-7-21.6 18.3-13.3 18.3 13.3-7 21.6z" fill="#ff941f"/>
<path d="m445.2 74.6 7 21.5-18.3 13.3-18.3-13.3 7-21.5z" fill="#ff941f"/>
<path d="m422.6 74.6-7-21.5 18.3-13.4 18.3 13.4-7 21.5z" fill="#ff941f"/>
<path d="m463.5 18.2 7 21.5-18.3 13.3-18.3-13.3 7-21.5z" fill="#ff941f"/>
<path d="m416-16.3 6.9 21.5-18.3 13.3-18.3-13.3 7-21.5z" fill="#ff941f"/>
<path d="m411.6 39.8-7-21.5 18.3-13.3 18.4 13.3-7 21.5z" fill="#ff941f"/>
<path d="m415.6-16.2 7.3 21.3 18.4 13.3-7.4-21.3z" fill="#b30469"/>
<path d="m440.9 18.5-7-21.5 18.3-13.3 18.3 13.3-7 21.5z" fill="#ff941f"/>
<path d="m452.4 53 7 21.6h22.6l-18.3 13.3 7 21.5-18.6-13.4-7-21.5z" fill="#31b304"/>
<path d="m518.5 74.7-7-21.5 18.4-13.3 18.3 13.3-7 21.5z" fill="#ff941f"/>
<path d="m470.5 40.3 18.5 12.9h22.6l-18.4-12.9z" fill="#b30469"/>
<path d="m541.2 74.7 7 21.5-18.3 13.3-18.4-13.3 7-21.5z" fill="#ff941f"/>
<path d="m511.5 53.4 7 21.5-18.3 13.3-18.3-13.3 7-21.5z" fill="#ff941f"/>
<path d="m459.2 74.7-7-21.5 18.3-13.3 18.3 13.3-7 21.5z" fill="#ff941f"/>
<path d="m522.9 18.5 7 21.5-18.3 13.4-18.3-13.4 7-21.5z" fill="#ff941f"/>
<path d="m463.3 131.1-18.3 13.3 7 21.5-18.3-13.3-18.3 13.3 7-21.8 18.3-13.3z" fill="#31b304"/>
<path d="m470 109.7-7-21.6 18.3-13.3 18.3 13.3-7 21.6z" fill="#ff941f"/>
<path d="m492.6 109.4 7 21.5-18.3 13.3-18.3-13.3 7-21.5z" fill="#ff941f"/>
<path d="m452 165.8-7-21.5 18.3-13.3 18.4 13.3-7 21.5z" fill="#ff941f"/>
<path d="m422.5 187.6-7-21.5 18.3-13.3 18.3 13.3-7 21.5z" fill="#ff941f"/>
<path d="m363.1 187.6-7-21.5 18.3-13.3 18.3 13.3-7 21.5z" fill="#ff941f"/>
<path d="m415.4 165.8 7 21.5-18.3 13.3-18.4-13.3 7-21.5z" fill="#ff941f"/>
<path d="m474.7 165.8 7 21.5-18.4 13.3-18.3-13.3 7-21.5z" fill="#ff941f"/>
<path d="m481.4 144.3-6.5 21.5 7 21.5 6.5-21.5z" fill="#b30469"/>
<path d="m488.3 165.8-7-21.5 18.3-13.3 18.3 13.3-7 21.5z" fill="#ff941f"/>
<path d="m500.2 131-7-21.6 18.3-13.3 18.3 13.3-7 21.6z" fill="#ff941f"/>
<path d="m518.2 74.7-18 13.6-7 21.5 18-13.6z" fill="#b30469"/>
<path d="m511.5-16.4-18.3 13.3 7 21.6-18.3-13.3-18.3 13.3 6.9-21.9 18.3-13.3z" fill="#31b304"/>
<path d="m500.2 18.3-7-21.5 18.3-13.3 18.3 13.3-7 21.5z" fill="#ff941f"/>
<path d="m470.6 40.2-7-21.6 18.3-13.3 18.4 13.3-7 21.6z" fill="#ff941f"/>
<path d="m529.6-3.2-6.6 21.5 7 21.5 6.6-21.5z" fill="#b30469"/>
<path d="m536.4 18.3-7-21.5 18.4-13.3 18.3 13.3-7 21.5z" fill="#ff941f"/>
<path d="m577.9-37.9 7 21.5h22.4l-18.3 13.3 6.8 20.9-17.8-12.9-18.3 13.3 6.6-21.3-18.3-13.3h22.9z" fill="#1f7aff"/>
<path d="m570.8 53.3 7 21.5-18.3 13.3-18.3-13.3 7-21.5z" fill="#ff941f"/>
<path d="m559.5 18.2 7 21.6-18.3 13.3-18.3-13.3 7-21.6z" fill="#ff941f"/>
<path d="m589 39.8-22.5.4-18.3 13.3 22.5-.4z" fill="#b30469"/>
<path d="m577.5 74.6-7-21.5 18.3-13.3 18.3 13.3-7 21.5z" fill="#ff941f"/>
<path d="m618.4 18.2 7 21.6-18.3 13.3-18.3-13.3 7-21.6z" fill="#ff941f"/>
<path d="m566.5 39.8-7-21.5 18.3-13.3 18.4 13.3-7 21.5z" fill="#ff941f"/>
<path d="m673.4 74.7-7-21.5 18.4-13.3 18.3 13.3-7 21.5z" fill="#ff941f"/>
<path d="m625.4 40.3 18.5 12.9h22.6l-18.4-12.9z" fill="#b30469"/>
<path d="m696.1 74.7 7 21.6-18.4 13.3-18.3-13.3 7-21.6z" fill="#ff941f"/>
<path d="m666.4 53.4 7 21.5-18.3 13.3-18.3-13.3 7-21.5z" fill="#ff941f"/>
<path d="m614.1 74.7-7-21.5 18.3-13.3 18.3 13.3-7 21.5z" fill="#ff941f"/>
<path d="m677.8 18.6 7 21.5-18.3 13.3-18.3-13.3 7-21.5z" fill="#ff941f"/>
<path d="m625.5 40.2-7-21.5 18.3-13.3 18.3 13.3-6.9 21.5z" fill="#ff941f"/>
<path d="m596 18.3-7-21.5 18.3-13.3 18.3 13.3-7 21.5z" fill="#ff941f"/>
<path d="m667.2-16.5 6.9 21.5-18.3 13.3-18.3-13.3 7-21.5z" fill="#ff941f"/>
<path d="m644.1-16.7-17.9 13.6-7 21.5 18-13.5z" fill="#b30469"/>
<path d="m685.3 39.9-7-21.5h-22.6l18.3-13.3-7-21.5 18.6 13.3 7 21.6z" fill="#31b304"/>
<path d="m691.8 18.3-7-21.5 18.3-13.3 18.4 13.3-7 21.5z" fill="#ff941f"/>
<path d="m733.3-37.9 7 21.5h22.4l-18.3 13.3 6.8 20.9-17.8-12.9-18.3 13.3 6.6-21.3-18.3-13.3h22.9z" fill="#1f7aff"/>
<path d="m714.9 18.2 7 21.6-18.4 13.3-18.3-13.3 7-21.6z" fill="#ff941f"/>
<path d="m773.8 18.2 7 21.6-18.3 13.3-18.3-13.3 7-21.6z" fill="#ff941f"/>
<path d="m721.9 39.8-7-21.5 18.3-13.3 18.3 13.3-7 21.5z" fill="#ff941f"/>
<path d="m751.3 18.3-6.9-21.5 18.3-13.3 18.3 13.3-7 21.5z" fill="#ff941f"/>
<path d="m655.6 130.6-7-21.5h-22.4l18.3-13.3-6.8-20.9 17.8 12.9 18.3-13.3-6.6 21.3 18.3 13.3h-22.9z" fill="#1f7aff"/>
<path d="m715.1 130.8-18.3 13.3 7 21.5-18.3-13.3-18.3 13.3 7-21.8 18.3-13.3z" fill="#31b304"/>
<path d="m685.5 109 7 21.6-18.4 13.3-18.3-13.3 7-21.6z" fill="#ff941f"/>
<path d="m648.8 109 7 21.6-18.3 13.3-18.3-13.3 7-21.6z" fill="#ff941f"/>
<path d="m692.5 130.6-7-21.5 18.3-13.3 18.3 13.3-7 21.5z" fill="#ff941f"/>
<path d="m644.5 165.5-7-21.6 18.3-13.3 18.3 13.3-6.9 21.6z" fill="#ff941f"/>
<path d="m696.5 74.7 7.3 21.2 18.3 13.3-7.3-21.2z" fill="#b30469"/>
<path d="m726.1 53 7 21.5-18.3 13.3-18.3-13.3 6.9-21.5z" fill="#ff941f"/>
<path d="m721.8 109.4-7-21.6 18.3-13.3 18.3 13.3-7 21.6z" fill="#ff941f"/>
<path d="m744.4 109 7 21.6-18.3 13.3-18.3-13.3 7-21.6z" fill="#ff941f"/>
<path d="m703.8 165.5-7-21.6 18.3-13.3 18.3 13.3-7 21.6z" fill="#ff941f"/>
<path d="m733.4 144.2-6.5 21.6 7 21.5 6.5-21.5z" fill="#b30469"/>
<path d="m740.1 165.5-7-21.6 18.3-13.3 18.3 13.3-7 21.6z" fill="#ff941f"/>
<path d="m752 130.6-7-21.5 18.3-13.3 18.3 13.3-7 21.5z" fill="#ff941f"/>
<path d="m762.7 53 7 21.5-18.3 13.3-18.3-13.3 7-21.5z" fill="#ff941f"/>
<path d="m762.7 53.1h-22.6l-7 21.5-7-21.5h-22.7l18.5-13.5h22.7z" fill="#31b304"/>
<path d="m769.9 74.4-17.9 13.6-7 21.5 17.9-13.6z" fill="#b30469"/>
<path d="m589.1 109.4 7-21.5-18.3-13.3h22.6l7-21.6 7.2 21.8-7 21.5z" fill="#31b304"/>
<path d="m589.2 109.4 7 21.5-18.4 13.3-18.3-13.3 7-21.5z" fill="#ff941f"/>
<path d="m566.5 109.4-7-21.6 18.3-13.3 18.4 13.3-7 21.6z" fill="#ff941f"/>
<path d="m595.8 130.8-7-21.5 18.4-13.3 18.3 13.3-7 21.5z" fill="#ff941f"/>
<path d="m637.3 74.3 7 21.6-18.4 13.3-18.3-13.3 7-21.6z" fill="#ff941f"/>
<path d="m536.9 130.8-7-21.6 18.3-13.3 18.4 13.3-7 21.6z" fill="#ff941f"/>
<path d="m540.9 74.8 7.3 21.3 18.4 13.3-7.4-21.3z" fill="#b30469"/>
<path d="m548.2 165.6-7-21.5 18.4-13.3 18.3 13.3-7 21.5z" fill="#ff941f"/>
<path d="m577.6 144.1-6.5 21.5 7 21.5 6.5-21.5z" fill="#b30469"/>
<path d="m584.5 165.6-7-21.5 18.3-13.3 18.3 13.3-7 21.5z" fill="#ff941f"/>
<path d="m470.6 222.4-7-21.5 18.3-13.3 18.4 13.3-7 21.5z" fill="#ff941f"/>
<path d="m530 109.8 7 21.5h22.4l-18.3 13.3 6.8 20.9-17.8-12.9-18.3 13.3 6.6-21.3-18.3-13.3h22.9z" fill="#1f7aff"/>
<path d="m522.9 201 7 21.5-18.3 13.3-18.3-13.3 7-21.5z" fill="#ff941f"/>
<path d="m511.6 166 7 21.5-18.3 13.3-18.4-13.3 7-21.5z" fill="#ff941f"/>
<path d="m570.5 166 7 21.5-18.3 13.3-18.3-13.3 7-21.5z" fill="#ff941f"/>
<path d="m518.6 187.6-7-21.6 18.3-13.3 18.3 13.3-6.9 21.6z" fill="#ff941f"/>
<path d="m559.1 200.9 7 21.5-18.3 13.3-18.3-13.3 7-21.5z" fill="#ff941f"/>
<path d="m559.1 201h-22.6l-7 21.5-7-21.5h-22.6l18.4-13.5h22.7z" fill="#31b304"/>
<path d="m566.7 222.4-7-21.5 18.3-13.3 18.4 13.3-7 21.5z" fill="#ff941f"/>
<path d="m607.7 166 7 21.6-18.3 13.3-18.4-13.3 7-21.6z" fill="#ff941f"/>
<path d="m637.2 187.6-22.5.4-18.3 13.3 22.5-.4z" fill="#b30469"/>
<path d="m625.7 222.4-7-21.5 18.3-13.3 18.3 13.3-7 21.5z" fill="#ff941f"/>
<path d="m667.1 165.6 7 21.6-18.3 13.3-18.4-13.3 7-21.6z" fill="#ff941f"/>
<path d="m614.7 187.6-7-21.5 18.3-13.3 18.3 13.3-6.9 21.5z" fill="#ff941f"/>
<path d="m722.1 222.1-7-21.5 18.3-13.3 18.3 13.3-7 21.5z" fill="#ff941f"/>
<path d="m674.1 187.7 18.4 12.9h22.7l-18.5-12.9z" fill="#b30469"/>
<path d="m744.7 222.1 7 21.6-18.3 13.3-18.3-13.3 7-21.6z" fill="#ff941f"/>
<path d="m662.8 222.1-7-21.5 18.3-13.3 18.3 13.3-7 21.5z" fill="#ff941f"/>
<path d="m726.5 166 7 21.5-18.3 13.3-18.4-13.3 7-21.5z" fill="#ff941f"/>
<path d="m673.5 257.1-7-21.5 18.3-13.3 18.4 13.3-7 21.5z" fill="#ff941f"/>
<path d="m696.2 256.8 7 21.5-18.4 13.3-18.3-13.3 7-21.5z" fill="#ff941f"/>
<path d="m703.8 278.4-7-21.5 18.3-13.3 18.3 13.3-7 21.5z" fill="#ff941f"/>
<path d="m721.7 222.1-17.9 13.6-7 21.5 17.9-13.5z" fill="#b30469"/>
<path d="m674.2 187.6-7-21.5 18.3-13.3 18.3 13.3-7 21.5z" fill="#ff941f"/>
<path d="m774.4 200.7 7 21.5-18.3 13.3-18.4-13.3 7-21.5z" fill="#ff941f"/>
<path d="m763 165.7 7 21.5-18.3 13.3-18.3-13.3 7-21.5z" fill="#ff941f"/>
<path d="m792.5 187.2-22.5.4-18.3 13.3 22.5-.4z" fill="#b30469"/>
<path d="m792.5 481.7-22.5.4-18.3 13.3 22.5-.4z" fill="#b30469"/>
<path d="m740.5 278.2-7-21.5 18.3-13.3 18.3 13.3-7 21.5z" fill="#ff941f"/>
<path d="m744.4 222.2 7.4 21.3 18.3 13.3-7.4-21.3z" fill="#b30469"/>
<path d="m715.1 200.7 7 21.5-18.3 13.3-18.3-13.3 7-21.5z" fill="#ff941f"/>
<path d="m644.3 165.8-18.3-13.3-18.3 13.3 7-21.5-18.3-13.3 22.9-.1 18.3 13.3z" fill="#31b304"/>
<path d="m655.3 200.4 7 21.5h22.4l-18.3 13.3 6.8 20.9-17.7-12.9-18.3 13.3 6.5-21.3-18.3-13.3h22.9z" fill="#1f7aff"/>
<path d="m512.2 278.2-22.5.4-18.4 13.3 22.5-.4z" fill="#b30469"/>
<path d="m500.7 313-7-21.5 18.3-13.3 18.3 13.3-7 21.5z" fill="#ff941f"/>
<path d="m541.6 256.7 7 21.5-18.3 13.3-18.3-13.3 7-21.5z" fill="#ff941f"/>
<path d="m489.7 278.3-7-21.6 18.3-13.3 18.3 13.3-7 21.6z" fill="#ff941f"/>
<path d="m596.6 313.2-7-21.6 18.3-13.3 18.3 13.3-7 21.6z" fill="#ff941f"/>
<path d="m548.6 278.7 18.5 12.9h22.6l-18.5-12.9z" fill="#b30469"/>
<path d="m589.6 291.8 7 21.5-18.3 13.3-18.3-13.3 6.9-21.5z" fill="#ff941f"/>
<path d="m537.3 313.2-7-21.6 18.3-13.3 18.3 13.3-7 21.6z" fill="#ff941f"/>
<path d="m601 257 7 21.5-18.3 13.3-18.3-13.3 7-21.5z" fill="#ff941f"/>
<path d="m548.7 278.6-7-21.5 18.3-13.3 18.3 13.3-7 21.5z" fill="#ff941f"/>
<path d="m519.2 256.7-7-21.5 18.3-13.3 18.3 13.3-7 21.5z" fill="#ff941f"/>
<path d="m590.3 221.9 7 21.5-18.3 13.3-18.3-13.3 7-21.5z" fill="#ff941f"/>
<path d="m567.3 221.8-17.9 13.5-7 21.6 17.9-13.6z" fill="#b30469"/>
<path d="m608.5 278.3-7-21.5h-22.6l18.3-13.3-7-21.5 18.6 13.4 7 21.5z" fill="#31b304"/>
<path d="m615 256.7-7-21.5 18.3-13.3 18.3 13.3-7 21.5z" fill="#ff941f"/>
<path d="m638 256.7 7 21.5-18.3 13.3-18.3-13.3 7-21.5z" fill="#ff941f"/>
<path d="m644.5 278.2-7-21.5 18.3-13.3 18.3 13.3-6.9 21.5z" fill="#ff941f"/>
<path d="m618.6 200.7 7 21.5-18.3 13.3-18.3-13.3 7-21.5z" fill="#ff941f"/>
<path d="m703.4 278.4h22.6l7-21.5 7 21.5h22.7l-18.5 13.5h-22.6z" fill="#31b304"/>
<path d="m619.1 313.4 7 21.5-18.3 13.3-18.3-13.3 7-21.5z" fill="#ff941f"/>
<path d="m648.8 291.9 7 21.5-18.3 13.4-18.3-13.4 7-21.5z" fill="#ff941f"/>
<path d="m666.9 278.4-22.5.5-18.3 13.3 22.5-.5z" fill="#b30469"/>
<path d="m655.4 313.3-6.9-21.6 18.3-13.3 18.3 13.3-7 21.6z" fill="#ff941f"/>
<path d="m744.4 292 7 21.6-18.4 13.3-18.3-13.3 7-21.6z" fill="#ff941f"/>
<path d="m733.6 369.3-7-21.5h-22.5l18.4-13.3-6.8-20.9 17.7 12.9 18.3-13.3-6.5 21.3 18.3 13.3h-22.9z" fill="#1f7aff"/>
<path d="m763.4 347.7 7 21.5-18.3 13.3-18.3-13.3 7-21.5z" fill="#ff941f"/>
<path d="m722.5 404.1-7-21.5 18.3-13.3 18.3 13.3-7 21.5z" fill="#ff941f"/>
<path d="m667 348.1 7-21.6-18.3-13.3h22.7l6.9-21.5 7.2 21.7-7 21.6z" fill="#31b304"/>
<path d="m667.1 348 7 21.5-18.3 13.3-18.3-13.3 7-21.5z" fill="#ff941f"/>
<path d="m644.5 348-7-21.5 18.3-13.3 18.3 13.3-7 21.5z" fill="#ff941f"/>
<path d="m673.8 369.5-7-21.5 18.3-13.3 18.3 13.3-7 21.5z" fill="#ff941f"/>
<path d="m715.2 313 7 21.5-18.3 13.3-18.3-13.3 7-21.5z" fill="#ff941f"/>
<path d="m614.9 369.4-7-21.5 18.3-13.3 18.3 13.3-7 21.5z" fill="#ff941f"/>
<path d="m618.8 313.4 7.4 21.3 18.3 13.3-7.3-21.2z" fill="#b30469"/>
<path d="m626.2 404.3-7-21.6 18.3-13.3 18.3 13.3-7 21.6z" fill="#ff941f"/>
<path d="m655.6 382.7-6.5 21.6 7 21.5 6.5-21.5z" fill="#b30469"/>
<path d="m662.5 404.3-7-21.6 18.3-13.3 18.3 13.3-7 21.6z" fill="#ff941f"/>
<path d="m607.9 348.5 7 21.5h22.5l-18.3 13.3 6.7 20.9-17.7-12.9-18.3 13.3 6.6-21.3-18.4-13.3h22.9z" fill="#1f7aff"/>
<path d="m745 404.3 7 21.5-18.3 13.3-18.3-13.3 7-21.5z" fill="#ff941f"/>
<path d="m722.3 404.5-18.3-13.3-18.4 13.3 7-21.5-18.3-13.3 22.9-.1 18.3 13.3z" fill="#31b304"/>
<path d="m726.4 347.7 7 21.5-18.3 13.3-18.3-13.3 7-21.5z" fill="#ff941f"/>
<path d="m692.1 313.3-7-21.6 18.3-13.3 18.3 13.3-7 21.6z" fill="#ff941f"/>
<path d="m751.3 313.6-6.9-21.5 18.3-13.3 18.3 13.3-7 21.5z" fill="#ff941f"/>
<path d="m774 313.3 7 21.5-18.3 13.3-18.3-13.3 6.9-21.5z" fill="#ff941f"/>
<path d="m714.7 426-22.5.4-18.3 13.3 22.5-.4z" fill="#b30469"/>
<path d="m703.2 460.8-7-21.5 18.3-13.3 18.3 13.3-7 21.5z" fill="#ff941f"/>
<path d="m692.2 426.1-7-21.6 18.3-13.3 18.4 13.3-7 21.6z" fill="#ff941f"/>
<path d="m751.1 426.5 18.5 12.9h22.6l-18.4-12.9z" fill="#b30469"/>
<path d="m751.1 131.1 18.5 12.8h22.6l-18.4-12.8z" fill="#b30469"/>
<path d="m739.8 461-7-21.6 18.3-13.3 18.3 13.3-7 21.6z" fill="#ff941f"/>
<path d="m752 426.4-7-21.5 18.3-13.3 18.3 13.3-7 21.5z" fill="#ff941f"/>
<path d="m769.8 369.6-17.9 13.5-7 21.6 18-13.6z" fill="#b30469"/>
<path d="m648.6 404.3 7 21.5-18.3 13.3-18.3-13.3 7-21.5z" fill="#ff941f"/>
<path d="m637.2 439.2 7 21.5-18.3 13.3-18.3-13.3 7-21.5z" fill="#ff941f"/>
<path d="m644.2 460.8-7-21.6 18.4-13.3 18.3 13.3-7 21.6z" fill="#ff941f"/>
<path d="m685.2 404.4 7 21.5-18.3 13.3-18.3-13.3 7-21.5z" fill="#ff941f"/>
<path d="m667.9 460.2 6.9 21.6-18.3 13.3-18.3-13.3 7-21.6z" fill="#ff941f"/>
<path d="m696.2 439 7 21.6-18.4 13.3-18.3-13.3 7-21.6z" fill="#ff941f"/>
<path d="m714.6 495.7 7-21.5-18.3-13.3h22.6l7-21.6 7.2 21.8-7 21.5z" fill="#31b304"/>
<path d="m714.7 495.6 7 21.6-18.3 13.3-18.3-13.3 7-21.6z" fill="#ff941f"/>
<path d="m692.1 495.6-7-21.5 18.3-13.3 18.3 13.3-7 21.5z" fill="#ff941f"/>
<path d="m721.4 517.1-7-21.5 18.3-13.3 18.3 13.3-7 21.5z" fill="#ff941f"/>
<path d="m762.8 460.6 7 21.5-18.3 13.3-18.3-13.3 7-21.5z" fill="#ff941f"/>
<path d="m662.5 517.1-7-21.6 18.3-13.3 18.3 13.3-7 21.6z" fill="#ff941f"/>
<path d="m667.8 461.5 7.3 21.2 18.4 13.3-7.4-21.2z" fill="#b30469"/>
<path d="m774 495.3 7 21.6-18.3 13.3-18.3-13.3 7-21.6z" fill="#ff941f"/>
<path d="m434.3 291.6 6.9 21.5-18.3 13.3-18.3-13.3 7-21.5z" fill="#ff941f"/>
<path d="m393.3 278.2-7-21.5 18.3-13.3 18.3 13.3-7 21.5z" fill="#ff941f"/>
<path d="m464.5 313.2 7 21.5-18.3 13.3-18.3-13.3 6.9-21.5z" fill="#ff941f"/>
<path d="m441.8 313.2-6.9-21.6 18.3-13.3 18.3 13.3-7 21.6z" fill="#ff941f"/>
<path d="m441.5 313-18 13.6-7 21.5 18-13.5z" fill="#b30469"/>
<path d="m494.1 291.8 7 21.5-18.3 13.3-18.3-13.3 7-21.5z" fill="#ff941f"/>
<path d="m482.8 256.8 7 21.5-18.3 13.3-18.3-13.3 7-21.5z" fill="#ff941f"/>
<path d="m445.6 256.8 7 21.5-18.3 13.3-18.4-13.3 7-21.5z" fill="#ff941f"/>
<path d="m404.8 200.7 7 21.5h22.5l-18.3 13.3 6.8 20.9-17.8-12.9-18.3 13.3 6.6-21.3-18.3-13.3h22.9z" fill="#1f7aff"/>
<path d="m422.9 257-7-21.6 18.4-13.3 18.3 13.3-7 21.6z" fill="#ff941f"/>
<path d="m471.6 222.1-7 21.6 18.3 13.3h-22.6l-7 21.5-7.2-21.7 7-21.6z" fill="#31b304"/>
<path d="m494.2 222.3 7 21.5-18.4 13.3-18.3-13.3 7-21.5z" fill="#ff941f"/>
<path d="m493.8 222.4 7.4 21.3 18.3 13.3-7.4-21.3z" fill="#b30469"/>
<path d="m307.9 200.2 7 21.5-18.3 13.3-18.3-13.3 7-21.5z" fill="#ff941f"/>
<path d="m338.2 221.7 7 21.5-18.3 13.3-18.4-13.3 7-21.5z" fill="#ff941f"/>
<path d="m315.5 221.7-7-21.5 18.4-13.3 18.3 13.3-7 21.5z" fill="#ff941f"/>
<path d="m315.2 221.6-18 13.5-7 21.6 18-13.6z" fill="#b30469"/>
<path d="m367.8 200.4 7 21.5-18.3 13.3-18.3-13.3 7-21.5z" fill="#ff941f"/>
<path d="m356.5 165.3 7 21.6-18.3 13.3-18.3-13.3 7-21.6z" fill="#ff941f"/>
<path d="m386 186.9-22.5.4-18.3 13.3 22.5-.4z" fill="#b30469"/>
<path d="m374.5 221.7-7-21.5 18.3-13.3 18.3 13.3-7 21.5z" fill="#ff941f"/>
<path d="m422.4 187.4 18.5 12.9h22.6l-18.4-12.9z" fill="#b30469"/>
<path d="m463.4 200.5 7 21.5-18.3 13.3-18.3-13.3 7-21.5z" fill="#ff941f"/>
<path d="m411.1 221.8-7-21.5 18.3-13.3 18.3 13.3-7 21.5z" fill="#ff941f"/>
<path d="m326.6 369.4-7-21.5h-22.4l18.3-13.3-6.8-20.9 17.8 12.9 18.3-13.3-6.6 21.3 18.3 13.3h-22.9z" fill="#1f7aff"/>
<path d="m319.9 347.8 7 21.6-18.4 13.3-18.3-13.3 7-21.6z" fill="#ff941f"/>
<path d="m315.5 404.5-7-21.6 18.4-13.3 18.3 13.3-7 21.6z" fill="#ff941f"/>
<path d="m356.1 348.3 7 21.5-18.3 13.3-18.3-13.3 7-21.5z" fill="#ff941f"/>
<path d="m363.1 369.5-7-21.5 18.3-13.3 18.4 13.3-7 21.5z" fill="#ff941f"/>
<path d="m367.4 313.3 7 21.5-18.3 13.3-18.3-13.3 7-21.5z" fill="#ff941f"/>
<path d="m344.8 313.3-7-21.5 18.3-13.3 18.3 13.3-7 21.5z" fill="#ff941f"/>
<path d="m385.8 256.9 7 21.6-18.4 13.3-18.3-13.3 7-21.6z" fill="#ff941f"/>
<path d="m363.1 257.3-7-21.6 18.3-13.3 18.4 13.3-7 21.6z" fill="#ff941f"/>
<path d="m374.6 291.8 7 21.5h22.6l-18.3 13.3 7 21.5-18.6-13.3-7-21.6z" fill="#31b304"/>
<path d="m392.8 279 18.4 12.9h22.6l-18.4-12.9z" fill="#b30469"/>
<path d="m381.4 313.4-7-21.5 18.4-13.3 18.3 13.3-7 21.5z" fill="#ff941f"/>
<path d="m385.6 369.8-18.3 13.3 7 21.6-18.4-13.3-18.3 13.3 7-21.8 18.3-13.3z" fill="#31b304"/>
<path d="m414.8 348.1 7 21.5-18.3 13.3-18.3-13.3 7-21.5z" fill="#ff941f"/>
<path d="m374.3 404.5-7-21.5 18.3-13.3 18.3 13.3-7 21.5z" fill="#ff941f"/>
<path d="m403.7 383-6.6 21.5 7 21.5 6.5-21.5z" fill="#b30469"/>
<path d="m403.7 495.2-6.6 21.5 7 21.6 6.5-21.6z" fill="#b30469"/>
<path d="m410.5 404.5-7-21.5 18.3-13.3 18.3 13.3-7 21.5z" fill="#ff941f"/>
<path d="m422.4 369.7-7-21.5 18.4-13.3 18.3 13.3-7 21.5z" fill="#ff941f"/>
<path d="m511.4 348.1 7 21.5-18.3 13.3-18.3-13.3 6.9-21.5z" fill="#ff941f"/>
<path d="m518.1 369.6-7-21.6 18.3-13.3 18.3 13.3-7 21.6z" fill="#ff941f"/>
<path d="m459.1 369.5-6.9-21.5 18.3-13.3 18.3 13.3-7 21.5z" fill="#ff941f"/>
<path d="m470.5 404.3-7-21.5 18.3-13.3 18.3 13.3-7 21.5z" fill="#ff941f"/>
<path d="m452.2 348.5 7 21.6h22.4l-18.3 13.3 6.8 20.9-17.7-12.9-18.4 13.3 6.6-21.3-18.3-13.3h22.9z" fill="#1f7aff"/>
<path d="m392.8 348-7-21.5 18.3-13.3 18.3 13.3-7 21.5z" fill="#ff941f"/>
<path d="m464.5 313.3 18.3 13.3 18.3-13.3-7 21.5 18.3 13.3-22.9.1-18.3-13.3z" fill="#31b304"/>
<path d="m523.3 313.1 7 21.6-18.3 13.3-18.3-13.3 7-21.6z" fill="#ff941f"/>
<path d="m530.1 291.6-6.5 21.5 7 21.6 6.5-21.6z" fill="#b30469"/>
<path d="m560.2 313.3 7 21.5-18.3 13.3-18.3-13.3 7-21.5z" fill="#ff941f"/>
<path d="m548.9 348 18.3-13.3-7-21.5 18.4 13.3 18.3-13.3-7 21.8-18.3 13.3z" fill="#31b304"/>
<path d="m597.6 426.1-7-21.6 18.3-13.3 18.3 13.3-7 21.6z" fill="#ff941f"/>
<path d="m644.4 460.9-18 13.6-7 21.5 18-13.6z" fill="#b30469"/>
<path d="m578.7 369.6-7-21.6 18.4-13.3 18.3 13.3-7 21.6z" fill="#ff941f"/>
<path d="m530.9 517.3-7-21.5h-22.5l18.4-13.3-6.8-20.9 17.7 12.9 18.3-13.3-6.5 21.3 18.3 13.3h-22.9z" fill="#1f7aff"/>
<path d="m560.4 496.1 7 21.6-18.3 13.3-18.4-13.3 7-21.6z" fill="#ff941f"/>
<path d="m571.7 461.2 7 21.5-18.3 13.3-18.3-13.3 7-21.5z" fill="#ff941f"/>
<path d="m549.1 461.2-7-21.5 18.3-13.4 18.3 13.4-7 21.5z" fill="#ff941f"/>
<path d="m590 404.8 7 21.5-18.3 13.3-18.3-13.3 7-21.5z" fill="#ff941f"/>
<path d="m567.4 405.1-7-21.5 18.3-13.3 18.3 13.3-7 21.5z" fill="#ff941f"/>
<path d="m578.9 439.6 6.9 21.6h22.7l-18.3 13.3 7 21.5-18.6-13.4-7-21.5z" fill="#31b304"/>
<path d="m597 426.9 18.5 12.9h22.6l-18.5-12.9z" fill="#b30469"/>
<path d="m585.7 461.3-7-21.5 18.3-13.3 18.3 13.3-7 21.5z" fill="#ff941f"/>
<path d="m619.1 496 7 21.5-18.3 13.3-18.3-13.3 7-21.5z" fill="#ff941f"/>
<path d="m626.7 517.6-7-21.6 18.3-13.3 18.3 13.3-7 21.6z" fill="#ff941f"/>
<path d="m597 495.9-6.9-21.6 18.3-13.3 18.3 13.3-7 21.6z" fill="#ff941f"/>
<path d="m567.7 517.1-7-21.5 18.3-13.3 18.3 13.3-7 21.5z" fill="#ff941f"/>
<path d="m541.8 369.6 7 21.5-18.3 13.3-18.3-13.3 7-21.5z" fill="#ff941f"/>
<path d="m500.9 425.8-7-21.5 18.3-13.3 18.3 13.3-7 21.5z" fill="#ff941f"/>
<path d="m518.5 369.6-17.9 13.6-7 21.5 18-13.6z" fill="#b30469"/>
<path d="m570.9 348.1 7 21.6-18.3 13.3-18.3-13.3 7-21.6z" fill="#ff941f"/>
<path d="m537.6 425.7-7-21.6 18.3-13.3 18.3 13.3-7 21.6z" fill="#ff941f"/>
<path d="m541.6 369.7 7.3 21.2 18.3 13.3-7.3-21.2z" fill="#b30469"/>
<path d="m500.5 425.8h22.7l7-21.5 7 21.5h22.6l-18.5 13.6h-22.6z" fill="#31b304"/>
<path d="m541.5 439.5 7 21.5-18.3 13.3-18.3-13.3 7-21.5z" fill="#ff941f"/>
<path d="m492.4 404.5 7 21.5-18.3 13.3-18.3-13.3 7-21.5z" fill="#ff941f"/>
<path d="m393.5 460.9-7-21.5 18.3-13.3 18.3 13.3-7 21.5z" fill="#ff941f"/>
<path d="m434.3 404.4 7 21.5-18.3 13.3-18.3-13.3 7-21.5z" fill="#ff941f"/>
<path d="m440.8 425.9-7-21.5 18.3-13.3 18.3 13.3-7 21.5z" fill="#ff941f"/>
<path d="m416 461.1 7 21.5-18.3 13.3-18.3-13.3 6.9-21.5z" fill="#ff941f"/>
<path d="m445.6 439.6 7 21.6-18.3 13.3-18.3-13.3 7-21.6z" fill="#ff941f"/>
<path d="m463.2 426.1-22.5.5-18.3 13.3 22.5-.5z" fill="#b30469"/>
<path d="m452.3 461-7-21.5 18.3-13.3 18.3 13.3-7 21.5z" fill="#ff941f"/>
<path d="m463.9 495.8 7-21.5-18.3-13.4h22.6l7-21.5 7.2 21.8-7 21.5z" fill="#31b304"/>
<path d="m464 495.7 7 21.6-18.3 13.3-18.4-13.3 7-21.6z" fill="#ff941f"/>
<path d="m441.3 495.7-7-21.5 18.4-13.3 18.3 13.3-7 21.5z" fill="#ff941f"/>
<path d="m470.6 517.2-7-21.5 18.4-13.3 18.3 13.3-7 21.5z" fill="#ff941f"/>
<path d="m512.1 460.7 7 21.5-18.3 13.3-18.4-13.3 7-21.5z" fill="#ff941f"/>
<path d="m411.7 517.2-7-21.6 18.4-13.3 18.3 13.3-7 21.6z" fill="#ff941f"/>
<path d="m415.7 461.2 7.4 21.2 18.3 13.3-7.4-21.2z" fill="#b30469"/>
<path d="m489 461-7-21.5 18.3-13.3 18.3 13.3-7 21.5z" fill="#ff941f"/>
<path d="m523.2 496.1 7 21.6-18.3 13.3-18.3-13.3 7-21.6z" fill="#ff941f"/>
<path d="m386.3 439.6 6.9 21.5-18.3 13.3-18.3-13.3 7-21.5z" fill="#ff941f"/>
<path d="m345.3 426.1-7-21.5 18.3-13.3 18.3 13.3-7 21.5z" fill="#ff941f"/>
<path d="m392.7 461-18 13.5-6.9 21.6 17.9-13.6z" fill="#b30469"/>
<path d="m397.6 404.7 7 21.5-18.4 13.4-18.3-13.4 7-21.5z" fill="#ff941f"/>
<path d="m278.6 517.4-7-21.6h-22.4l18.3-13.3-6.8-20.8 17.8 12.9 18.3-13.3-6.6 21.2 18.3 13.3h-22.9z" fill="#1f7aff"/>
<path d="m271.9 495.8 7 21.5-18.4 13.3-18.3-13.3 7-21.5z" fill="#ff941f"/>
<path d="m308.1 496.2 7 21.5-18.3 13.3-18.3-13.3 7-21.5z" fill="#ff941f"/>
<path d="m315.1 517.4-7-21.5 18.3-13.3 18.3 13.3-6.9 21.5z" fill="#ff941f"/>
<path d="m319.4 461.3 7 21.5-18.3 13.3-18.3-13.3 7-21.5z" fill="#ff941f"/>
<path d="m296.8 461.3-7-21.6 18.3-13.3 18.3 13.3-7 21.6z" fill="#ff941f"/>
<path d="m337.8 404.9 6.9 21.5-18.3 13.3-18.3-13.3 7-21.5z" fill="#ff941f"/>
<path d="m344.7 427 18.5 12.8h22.6l-18.4-12.8z" fill="#b30469"/>
<path d="m333.4 461.4-7-21.5 18.3-13.3 18.4 13.3-7 21.5z" fill="#ff941f"/>
<path d="m366.8 496 7 21.6-18.3 13.3-18.3-13.3 7-21.6z" fill="#ff941f"/>
<path d="m373.6 517.6-7-21.5 18.4-13.3 18.3 13.3-7 21.5z" fill="#ff941f"/>
<path d="m344.8 495.9-7-21.5 18.3-13.3 18.3 13.3-7 21.5z" fill="#ff941f"/>
<path d="m326.4 439.4 7 21.5h22.7l-18.3 13.3 7 21.6-18.6-13.4-7-21.5z" fill="#31b304"/>
<path d="m307.9 425.8-22.5.4-18.3 13.3 22.5-.4z" fill="#b30469"/>
<path d="m285.4 425.9-7-21.6 18.3-13.3 18.3 13.3-6.9 21.6z" fill="#ff941f"/>
<path d="m189 425.8-7-21.5 18.3-13.3 18.3 13.3-7 21.5z" fill="#ff941f"/>
<path d="m260.2 460.8 7 21.5-18.3 13.3-18.3-13.3 7-21.5z" fill="#ff941f"/>
<path d="m237.6 460.8-7-21.6 18.3-13.3 18.3 13.3-7 21.6z" fill="#ff941f"/>
<path d="m238.1 460.6-18 13.6-7 21.5 18-13.5z" fill="#b30469"/>
<path d="m289.9 439.4 6.9 21.5-18.3 13.4-18.3-13.4 7-21.5z" fill="#ff941f"/>
<path d="m278.5 404.4 7 21.5-18.3 13.3-18.3-13.3 7-21.5z" fill="#ff941f"/>
<path d="m241.3 404.4 7 21.5-18.3 13.3-18.4-13.3 7-21.5z" fill="#ff941f"/>
<path d="m200.6 348.3 7 21.5h22.4l-18.3 13.3 6.8 20.9-17.8-12.9-18.3 13.3 6.6-21.3-18.3-13.3h22.9z" fill="#1f7aff"/>
<path d="m218.6 404.6-7-21.5 18.4-13.3 18.3 13.3-7 21.5z" fill="#ff941f"/>
<path d="m267.3 369.8-7 21.5 18.3 13.3h-22.6l-7 21.5-7.2-21.7 7-21.6z" fill="#31b304"/>
<path d="m289.9 369.9 7 21.5-18.4 13.3-18.3-13.3 7-21.5z" fill="#ff941f"/>
<path d="m289.5 370 7.4 21.3 18.3 13.3-7.4-21.3z" fill="#b30469"/>
<path d="m123.8 517-7-21.5h-22.4l18.3-13.3-6.8-20.9 17.7 12.9 18.3-13.3-6.5 21.3 18.3 13.3h-22.9z" fill="#1f7aff"/>
<path d="m117 495.4 7 21.6-18.3 13.3-18.3-13.3 7-21.6z" fill="#ff941f"/>
<path d="m153.3 495.9 7 21.5-18.3 13.3-18.3-13.3 7-21.5z" fill="#ff941f"/>
<path d="m160.3 517.1-7-21.5 18.3-13.3 18.3 13.3-7 21.5z" fill="#ff941f"/>
<path d="m164.6 460.9 7 21.6-18.3 13.3-18.3-13.3 7-21.6z" fill="#ff941f"/>
<path d="m181.5 404.6 7 21.5-18.4 13.3-18.3-13.3 7-21.5z" fill="#ff941f"/>
<path d="m158.8 404.9-7-21.6 18.3-13.3 18.4 13.3-7 21.6z" fill="#ff941f"/>
<path d="m212 495.7 7 21.5-18.3 13.3-18.3-13.3 7-21.5z" fill="#ff941f"/>
<path d="m219 517.3-7-21.5 18.4-13.3 18.3 13.3-7 21.5z" fill="#ff941f"/>
<path d="m190 495.6-7-21.5 18.3-13.3 18.3 13.3-7 21.5z" fill="#ff941f"/>
<path d="m145.6 404.3 7 21.5-18.4 13.3-18.3-13.3 7-21.5z" fill="#ff941f"/>
<path d="m141.5 460.9-7-21.5 18.3-13.3 18.4 13.3-7 21.5z" fill="#ff941f"/>
<path d="m193.8 439.5 7 21.5-18.3 13.3-18.3-13.3 7-21.5z" fill="#ff941f"/>
<path d="m230 439.4 7 21.5-18.3 13.3-18.3-13.3 7-21.5z" fill="#ff941f"/>
<path d="m230 439.5h-22.6l-7 21.5-7-21.5h-22.6l18.4-13.6h22.7z" fill="#31b304"/>
<path d="m164.7 460.9 7.4 21.2 18.3 13.3-7.4-21.2z" fill="#b30469"/>
<path d="m93.3 425.9 18.5 12.9h22.6l-18.4-12.9z" fill="#b30469"/>
<path d="m134.3 439 7 21.5-18.3 13.3-18.3-13.3 7-21.5z" fill="#ff941f"/>
<path d="m82 460.3-7-21.5 18.3-13.3 18.3 13.3-6.9 21.5z" fill="#ff941f"/>
<path d="m105.4 348.1 7 21.5-18.4 13.3-18.3-13.3 7-21.5z" fill="#ff941f"/>
<path d="m112 369.6-7-21.5 18.3-13.3 18.4 13.3-7 21.5z" fill="#ff941f"/>
<path d="m64.4 404.4-7-21.6 18.4-13.3 18.3 13.3-7 21.6z" fill="#ff941f"/>
<path d="m134.5 369.6 7 21.5-18.3 13.3-18.3-13.3 7-21.5z" fill="#ff941f"/>
<path d="m93.6 425.9-7-21.6 18.3-13.3 18.3 13.3-7 21.6z" fill="#ff941f"/>
<path d="m111.2 369.6-17.9 13.6-7 21.5 17.9-13.6z" fill="#b30469"/>
<path d="m164.9 348.2 7 21.5-18.3 13.3-18.3-13.3 6.9-21.5z" fill="#ff941f"/>
<path d="m86.4 404.5 7 21.6-18.3 13.3-18.3-13.3 7-21.6z" fill="#ff941f"/>
<path d="m-12.6 460.9-7-21.5 18.3-13.3 18.4 13.3-7 21.5z" fill="#ff941f"/>
<path d="m27.3 404.4 7 21.5-18.3 13.3-18.3-13.3 7-21.5z" fill="#ff941f"/>
<path d="m34.8 425.9-7-21.5 18.3-13.3 18.3 13.3-7 21.5z" fill="#ff941f"/>
<path d="m10 461.1 6.9 21.5-18.3 13.3-18.3-13.3 7-21.5z" fill="#ff941f"/>
<path d="m39.6 439.7 7 21.5-18.3 13.3-18.3-13.3 7-21.5z" fill="#ff941f"/>
<path d="m57.2 426.2-22.5.4-18.3 13.3 22.5-.4z" fill="#b30469"/>
<path d="m46.3 461-7-21.5 18.3-13.3 18.3 13.3-7 21.5z" fill="#ff941f"/>
<path d="m57.9 495.8 6.9-21.5-18.3-13.3h22.7l7-21.6 7.1 21.8-7 21.5z" fill="#31b304"/>
<path d="m57.9 495.8 7 21.5-18.3 13.3-18.3-13.3 7-21.5z" fill="#ff941f"/>
<path d="m35.3 495.8-7-21.6 18.3-13.3 18.3 13.3-7 21.6z" fill="#ff941f"/>
<path d="m64.6 517.2-7-21.5 18.3-13.3 18.3 13.3-6.9 21.5z" fill="#ff941f"/>
<path d="m106 460.7 7 21.6-18.3 13.3-18.3-13.3 7-21.6z" fill="#ff941f"/>
<path d="m5.7 517.2-7-21.6 18.3-13.3 18.3 13.3-7 21.6z" fill="#ff941f"/>
<path d="m9.7 461.2 7.3 21.2 18.3 13.4-7.3-21.3z" fill="#b30469"/>
<path d="m152.7 426.4-7-21.5h-22.6l18.3-13.3-7-21.6 18.6 13.4 7 21.5z" fill="#31b304"/>
<path d="m255.3 221.9-7-21.5 18.3-13.3 18.3 13.3-7 21.5z" fill="#ff941f"/>
<path d="m268.6 256.8-7-21.6 18.3-13.3 18.3 13.3-7 21.6z" fill="#ff941f"/>
<path d="m297 278.3-7-21.6 18.3-13.3 18.3 13.3-7 21.6z" fill="#ff941f"/>
<path d="m333.7 278.1-7-21.5 18.3-13.3 18.3 13.3-6.9 21.5z" fill="#ff941f"/>
<path d="m337.7 222.1 7.3 21.3 18.3 13.3-7.3-21.3z" fill="#b30469"/>
<path d="m296.7 278.3h22.6l7-21.6 7 21.6h22.6l-18.5 13.5h-22.6z" fill="#31b304"/>
<path d="m337.6 291.9 7 21.5-18.3 13.4-18.3-13.4 7-21.5z" fill="#ff941f"/>
<path d="m290.6 256.9 7 21.6-18.4 13.3-18.3-13.3 7-21.6z" fill="#ff941f"/>
<path d="m308.2 313.1 7 21.6-18.3 13.3-18.3-13.3 7-21.6z" fill="#ff941f"/>
<path d="m285.1 313.4-7-21.5 18.3-13.3 18.3 13.3-7 21.5z" fill="#ff941f"/>
<path d="m266.9 187.4 18.5 12.9h22.6l-18.4-12.9z" fill="#b30469"/>
<path d="m201.5 278.3-7-21.6h-22.5l18.4-13.3-6.8-20.8 17.7 12.9 18.3-13.3-6.5 21.2 18.3 13.3h-22.9z" fill="#1f7aff"/>
<path d="m194.7 256.7 7 21.5-18.3 13.3-18.3-13.3 7-21.5z" fill="#ff941f"/>
<path d="m190.4 313.3-7-21.5 18.3-13.3 18.3 13.3-7 21.5z" fill="#ff941f"/>
<path d="m231 257.1 7 21.5-18.3 13.3-18.3-13.3 7-21.5z" fill="#ff941f"/>
<path d="m238 278.3-7-21.5 18.3-13.3 18.3 13.3-7 21.5z" fill="#ff941f"/>
<path d="m242.3 222.2 7 21.5-18.3 13.3-18.3-13.3 7-21.5z" fill="#ff941f"/>
<path d="m249.5 200.6 7 21.5h22.6l-18.3 13.3 7 21.6-18.6-13.4-7-21.5z" fill="#31b304"/>
<path d="m249.1 313.4-7-21.6 18.3-13.3 18.3 13.3-6.9 21.6z" fill="#ff941f"/>
<path d="m277.8 291.8-6.6 21.6 7 21.5 6.6-21.5z" fill="#b30469"/>
<path d="m267.6 369.7-7-21.5 18.3-13.3 18.3 13.3-7 21.5z" fill="#ff941f"/>
<path d="m260.4 348.4 7 21.5-18.4 13.3-18.3-13.3 7-21.5z" fill="#ff941f"/>
<path d="m271.7 313.6 7 21.5-18.3 13.3-18.3-13.3 7-21.5z" fill="#ff941f"/>
<path d="m170.9 370.1-7-21.5 18.3-13.3 18.4 13.3-7 21.5z" fill="#ff941f"/>
<path d="m211.9 313.7 7 21.6-18.3 13.3-18.4-13.3 7-21.6z" fill="#ff941f"/>
<path d="m207.5 370.2-6.9-21.5 18.3-13.3 18.3 13.3-7 21.5z" fill="#ff941f"/>
<path d="m152.6 313.2 7 21.6-18.3 13.3-18.3-13.3 7-21.6z" fill="#ff941f"/>
<path d="m260.8 278.7-22.5.4-18.3 13.3 22.4-.4z" fill="#b30469"/>
<path d="m242.8 292.3 6.9 21.5-18.3 13.3-18.3-13.3 7-21.5z" fill="#ff941f"/>
<path d="m213.1 313.8 18.3 13.3 18.3-13.3-7 21.5 18.3 13.3-22.9.2-18.3-13.4z" fill="#31b304"/>
<path d="m-2.5 130.7-7-21.5h-22.4l18.3-13.3-6.8-20.9 17.7 12.9 18.3-13.3-6.5 21.3 18.3 13.3h-22.9z" fill="#1f7aff"/>
<path d="m-13.6 165.7-7-21.5 18.3-13.3 18.3 13.3-7 21.5z" fill="#ff941f"/>
<path d="m27 109.5 7 21.6-18.3 13.3-18.3-13.3 7-21.6z" fill="#ff941f"/>
<path d="m56.4 131.1-18.3 13.3 7 21.5-18.3-13.3-18.3 13.3 7-21.8 18.3-13.3z" fill="#31b304"/>
<path d="m45.1 165.8-7-21.5 18.3-13.3 18.4 13.3-7 21.5z" fill="#ff941f"/>
<path d="m15.6 187.6-7-21.5 18.3-13.3 18.3 13.3-7 21.5z" fill="#ff941f"/>
<path d="m8.5 165.8 7 21.5-18.4 13.3-18.3-13.3 7-21.5z" fill="#ff941f"/>
<path d="m67.8 165.8 7 21.5-18.4 13.3-18.3-13.3 7-21.5z" fill="#ff941f"/>
<path d="m74.5 144.3-6.5 21.5 7 21.5 6.5-21.5z" fill="#b30469"/>
<path d="m81.4 165.8-7-21.5 18.3-13.3 18.3 13.3-7 21.5z" fill="#ff941f"/>
<path d="m63.7 222.4-7-21.5 18.3-13.3 18.3 13.3-6.9 21.5z" fill="#ff941f"/>
<path d="m123.1 109.8 7 21.5h22.4l-18.3 13.4 6.8 20.8-17.8-12.9-18.3 13.3 6.6-21.2-18.3-13.4h22.9z" fill="#1f7aff"/>
<path d="m116 201 7 21.5-18.3 13.3-18.3-13.3 7-21.5z" fill="#ff941f"/>
<path d="m104.7 166 7 21.5-18.4 13.3-18.3-13.3 7-21.5z" fill="#ff941f"/>
<path d="m111.7 187.6-7-21.6 18.3-13.3 18.3 13.3-7 21.6z" fill="#ff941f"/>
<path d="m152.2 200.9 7 21.5-18.3 13.3-18.3-13.3 7-21.5z" fill="#ff941f"/>
<path d="m152.2 201h-22.6l-7 21.6-7-21.6h-22.6l18.4-13.5h22.7z" fill="#31b304"/>
<path d="m159.8 222.4-7-21.5 18.3-13.3 18.4 13.3-7 21.5z" fill="#ff941f"/>
<path d="m105.3 278.2-22.5.4-18.4 13.3 22.5-.4z" fill="#b30469"/>
<path d="m93.8 313-7-21.5 18.3-13.3 18.3 13.3-7 21.5z" fill="#ff941f"/>
<path d="m-25.1 313-7-21.5 18.3-13.3 18.3 13.3-7 21.5z" fill="#ff941f"/>
<path d="m134.7 256.7 7 21.5-18.3 13.3-18.3-13.3 7-21.5z" fill="#ff941f"/>
<path d="m82.8 278.3-7-21.6 18.3-13.3 18.3 13.3-7 21.6z" fill="#ff941f"/>
<path d="m141.7 278.8 18.4 12.8h22.7l-18.5-12.8z" fill="#b30469"/>
<path d="m182.7 291.8 7 21.5-18.3 13.4-18.4-13.4 7-21.5z" fill="#ff941f"/>
<path d="m130.4 313.2-7-21.6 18.3-13.3 18.3 13.3-7 21.6z" fill="#ff941f"/>
<path d="m141.8 278.6-7-21.5 18.3-13.3 18.3 13.3-7 21.5z" fill="#ff941f"/>
<path d="m112.2 256.7-6.9-21.5 18.3-13.3 18.3 13.3-7 21.5z" fill="#ff941f"/>
<path d="m183.4 221.9 7 21.5-18.3 13.3-18.3-13.3 7-21.5z" fill="#ff941f"/>
<path d="m160.4 221.8-17.9 13.5-7 21.6 17.9-13.6z" fill="#b30469"/>
<path d="m27.3 291.6 7 21.5-18.3 13.4-18.3-13.4 7-21.5z" fill="#ff941f"/>
<path d="m-13.6 278.2-7-21.5 18.3-13.3 18.3 13.3-7 21.5z" fill="#ff941f"/>
<path d="m34.9 313.2-7-21.6 18.4-13.3 18.3 13.3-7 21.6z" fill="#ff941f"/>
<path d="m34.6 313-18 13.6-7 21.5 18-13.5z" fill="#b30469"/>
<path d="m87.2 291.8 7 21.5-18.3 13.3-18.3-13.3 7-21.5z" fill="#ff941f"/>
<path d="m75.9 256.8 7 21.5-18.3 13.3-18.3-13.3 7-21.5z" fill="#ff941f"/>
<path d="m38.7 256.8 7 21.5-18.4 13.3-18.3-13.3 7-21.5z" fill="#ff941f"/>
<path d="m-2.1 200.7 7 21.5h22.5l-18.3 13.3 6.7 20.9-17.7-12.9-18.3 13.3 6.6-21.3-18.3-13.3h22.8z" fill="#1f7aff"/>
<path d="m16 257-7-21.5 18.3-13.3 18.4 13.3-7 21.5z" fill="#ff941f"/>
<path d="m64.7 222.2-7 21.5 18.3 13.3h-22.6l-7 21.5-7.2-21.7 7-21.6z" fill="#31b304"/>
<path d="m86.9 222.4 7.3 21.3 18.4 13.3-7.4-21.3z" fill="#b30469"/>
<path d="m15.5 187.4 18.5 12.9h22.6l-18.4-12.9z" fill="#b30469"/>
<path d="m56.5 200.5 7 21.5-18.3 13.3-18.3-13.3 7-21.5z" fill="#ff941f"/>
<path d="m4.2 221.8-7-21.5 18.3-13.3 18.3 13.3-7 21.5z" fill="#ff941f"/>
<path d="m-14.2 279 18.5 12.9h22.6l-18.4-12.9z" fill="#b30469"/>
<path d="m7.9 348.1 7 21.5-18.3 13.3-18.3-13.3 7-21.5z" fill="#ff941f"/>
<path d="m-3.3 383-6.5 21.5 7 21.6 6.5-21.6z" fill="#b30469"/>
<path d="m3.6 404.5-7-21.5 18.3-13.3 18.3 13.3-7 21.5z" fill="#ff941f"/>
<path d="m15.5 369.7-7-21.5 18.3-13.3 18.4 13.3-7 21.5z" fill="#ff941f"/>
<path d="m-14.1 348-7-21.5 18.3-13.3 18.3 13.3-7 21.5z" fill="#ff941f"/>
<path d="m116.4 313.1 7 21.6-18.3 13.3-18.3-13.3 7-21.6z" fill="#ff941f"/>
<path d="m142 348.1 18.3-13.3-7-21.6 18.4 13.3 18.3-13.3-7 21.8-18.3 13.3z" fill="#31b304"/>
<path d="m75.8 369.4-7-21.6h-22.5l18.4-13.3-6.8-20.8 17.7 12.9 18.3-13.4-6.5 21.3 18.3 13.3h-22.9z" fill="#1f7aff"/>
<path d="m69 347.8 7 21.5-18.3 13.3-18.3-13.3 7-21.5z" fill="#ff941f"/>
<path d="m57.4 313.1 7 21.5-18.4 13.3-18.3-13.3 7-21.5z" fill="#ff941f"/>
<path d="m63.4 404.3-18.3-13.3-18.4 13.3 7-21.5-18.3-13.3 22.9-.1 18.3 13.3z" fill="#31b304"/>
<path d="m87 222.3 7 21.5-18.3 13.3-18.3-13.3 7-21.5z" fill="#ff941f"/>
<path d="m259.9-16.4 7 21.5-18.3 13.3-18.3-13.3 7-21.5z" fill="#ff941f"/>
<path d="m211.3 18.2 7 21.6-18.3 13.3-18.3-13.3 7-21.6z" fill="#ff941f"/>
<path d="m170.8 74.7-7-21.6 18.3-13.3 18.3 13.3-7 21.6z" fill="#ff941f"/>
<path d="m193.4 74.7 7 21.5-18.3 13.3-18.3-13.3 7-21.5z" fill="#ff941f"/>
<path d="m200.9 53.1-6.5 21.6 7 21.5 6.5-21.5z" fill="#b30469"/>
<path d="m218.9 39.8-7-21.5 18.4-13.3 18.3 13.3-7 21.5z" fill="#ff941f"/>
<path d="m236.9-16.4-18 13.6-7 21.5 18-13.6z" fill="#b30469"/>
<path d="m230.9 187.1-22.5.4-18.3 13.3 22.5-.4z" fill="#b30469"/>
<path d="m219.4 221.9-7-21.5 18.3-13.3 18.3 13.3-7 21.5z" fill="#ff941f"/>
<path d="m212.9 200.7 7 21.5-18.3 13.3-18.4-13.3 7-21.5z" fill="#ff941f"/>
<path d="m201.5 165.7 7 21.5-18.3 13.3-18.3-13.3 7-21.5z" fill="#ff941f"/>
<path d="m164.3 165.7 7 21.5-18.3 13.3-18.3-13.3 7-21.5z" fill="#ff941f"/>
<path d="m141.7 165.8-7-21.5 18.3-13.3 18.3 13.3-7 21.5z" fill="#ff941f"/>
<path d="m190.3 131-7 21.5 18.3 13.3h-22.6l-7 21.6-7.2-21.8 7-21.5z" fill="#31b304"/>
<path d="m182.4 109.4 7 21.5-18.3 13.3-18.3-13.3 7-21.5z" fill="#ff941f"/>
<path d="m130.1 130.7-6.9-21.5 18.3-13.3 18.3 13.3-7 21.5z" fill="#ff941f"/>
<path d="m278.8 39.9-7-21.5h-22.6l18.3-13.3-7-21.5 18.6 13.3 7 21.6z" fill="#31b304"/>
<path d="m115.8 17.5 7 21.5-18.3 13.3-18.3-13.3 7-21.5z" fill="#ff941f"/>
<path d="m111.5 74.1-7-21.5 18.3-13.3 18.3 13.3-7 21.5z" fill="#ff941f"/>
<path d="m152.1 17.9 6.9 21.6-18.3 13.3-18.3-13.3 7-21.6z" fill="#ff941f"/>
<path d="m159 39.2-6.9-21.6 18.3-13.3 18.3 13.3-7 21.6z" fill="#ff941f"/>
<path d="m132.9 74.6 7 21.5-18.3 13.3-18.3-13.3 7-21.5z" fill="#ff941f"/>
<path d="m181.8 39.5-22.5.5-18.3 13.3 22.5-.5z" fill="#b30469"/>
<path d="m163.8 53.1 7 21.6-18.3 13.3-18.3-13.3 7-21.6z" fill="#ff941f"/>
<path d="m134.1 74.6 18.3 13.4 18.4-13.4-7 21.6 18.3 13.3-22.9.1-18.3-13.3z" fill="#31b304"/>
<path d="m55.8 17.5 7 21.5-18.4 13.3-18.3-13.3 7-21.5z" fill="#ff941f"/>
<path d="m62.9 39.5-7-21.6 18.3-13.3 18.3 13.3-7 21.6z" fill="#ff941f"/>
<path d="m32.6 17.7-7-21.6 18.3-13.3 18.3 13.3-7 21.6z" fill="#ff941f"/>
<path d="m73.8-38.7 7 21.6h22.4l-18.3 13.3 6.8 20.9-17.8-12.9-18.3 13.3 6.6-21.3-18.3-13.3h22.9z" fill="#1f7aff"/>
<path d="m91.8 17.7-7-21.6 18.4-13.3 18.3 13.3-7 21.6z" fill="#ff941f"/>
<path d="m140.5-17.2-7 21.5 18.3 13.4h-22.6l-7 21.5-7.2-21.8 7-21.5z" fill="#31b304"/>
<path d="m163.1-17.1 7 21.6-18.3 13.3-18.4-13.3 7-21.6z" fill="#ff941f"/>
<path d="m162.7-16.9 7.4 21.2 18.3 13.3-7.4-21.2z" fill="#b30469"/>
<path d="m188 17.8-7-21.6 18.3-13.3 18.3 13.3-6.9 21.6z" fill="#ff941f"/>
<path d="m8.4-17 7.4 21.2 18.3 13.3-7.4-21.2z" fill="#b30469"/>
<path d="m8.4-17.2 7 21.5-18.3 13.4-18.4-13.4 7-21.5z" fill="#ff941f"/>
<path d="m4.1 39.5-7-21.5 18.3-13.3 18.3 13.3-7 21.5z" fill="#ff941f"/>
<path d="m103.8 52.3 7 21.5-18.3 13.3-18.3-13.3 7-21.5z" fill="#ff941f"/>
<path d="m111 73.7-17.9 13.6-7 21.5 17.9-13.6z" fill="#b30469"/>
<path d="m51.1 74.1-7-21.6 18.4-13.3 18.3 13.3-7 21.6z" fill="#ff941f"/>
<path d="m64.4 108.9-7-21.5 18.4-13.3 18.3 13.3-7 21.5z" fill="#ff941f"/>
<path d="m92.9 130.4-7-21.5 18.3-13.3 18.3 13.3-7 21.5z" fill="#ff941f"/>
<path d="m86.4 109.1 7 21.5-18.3 13.3-18.3-13.3 7-21.5z" fill="#ff941f"/>
<path d="m62.8 39.5 18.4 12.9h22.7l-18.5-12.9z" fill="#b30469"/>
<path d="m33.8 130.5-6.9-21.6 18.3-13.3 18.3 13.3-7 21.6z" fill="#ff941f"/>
<path d="m38.2 74.3 7 21.5-18.3 13.3-18.4-13.3 7-21.5z" fill="#ff941f"/>
<path d="m45.3 52.7 7 21.6h22.7l-18.4 13.3 7 21.5-18.6-13.4-6.9-21.5z" fill="#31b304"/>
<path d="m15.2 74-6.9-21.5 18.3-13.3 18.3 13.3-7 21.5z" fill="#ff941f"/>
<path d="m8.7 52.8 7 21.5-18.3 13.3-18.3-13.3 7-21.5z" fill="#ff941f"/>
<path d="m122.8 292.3-6.6 21.5 7 21.5 6.6-21.5z" fill="#b30469"/>
<path d="m-33 38.9h22.6l7-21.5 7 21.5h22.6l-18.4 13.6h-22.7z" fill="#31b304"/>
</g>
<g>
<path d="m705.4 461.8 46.1 33.7 58.7-.2-47.5-34.3z" fill="#1d1d1b" opacity=".5"/>
<path d="m638 74.7-57.6.5 45.7 33.8-16.7 55.3 46.3-33.3 47.3 34.8-17.5-56.4z" fill="#1d1d1b" opacity=".5"/>
<path d="m685.7 222-59.3-.3-47.3 35.2 60-.4z" fill="#1d1d1b" opacity=".5"/>
<path d="m355 461.4-57.4-.3-47.3 35.2 58-.4z" fill="#1d1d1b" opacity=".5"/>
<path d="m376.7 221.9 47.1 34.7 57.6-.2-48.5-34.3z" fill="#1d1d1b" opacity=".5"/>
<path d="m279.9 221.9-48.5 34.7-59.3-.2 49.9-34.3z" fill="#1d1d1b" opacity=".5"/>
<path d="m751.8 313.7-18-55.8-18.5 55.7h-57.3l45.3 34.1-17.9 57.6 48.6-36z" fill="#1d1d1b" opacity=".5"/>
<path d="m561.5 314.2 16.3 57 47.4 31.9-17.9-55.9z" fill="#1d1d1b" opacity=".5"/>
<path d="m230.8 75.3 19.3 56 45.3 33-16.8-53.9z" fill="#1d1d1b" opacity=".5"/>
<path d="m560.3 495 46.5-33.9-58.4-.5-18.3-53.1-17.8 52.1-60.4 1 47 34.4z" fill="#1d1d1b" opacity=".5"/>
<path d="m500.5 313.8-47 33.3-18.2 56.4 47.5-36z" fill="#1d1d1b" opacity=".5"/>
<path d="m94.1 313.8-47 34-18.2 57.5 47.5-36.7z" fill="#1d1d1b" opacity=".5"/>
<path d="m672.7 552.6-17.4-54.2-17.8 55" fill="#1d1d1b" opacity=".5"/>
<path d="m808.4 18.6-56.3-.2-19.4 55.5-17.4-56.8-58.9.3 45.6-34.5-16.8-56 45.7 34.4 48.5-34.9-19.1 56.5" fill="#1d1d1b" opacity=".5"/>
<path d="m404.9 18.6-60.3-.2-18.4 56.5-18.4-56.8-58.9.3 46.6-35.5-17.8-56 47.7 34.4 50.5-34.9-19.1 56.5" fill="#1d1d1b" opacity=".5"/>
<path d="m279.4 404.2-59.3.7-18.4 56.6-18.4-56.8-57.9.2 46.6-34.5-17.8-56.9 47.7 34.4 48.4-35-18 56.5" fill="#1d1d1b" opacity=".5"/>
<path d="m436.7-69.5 16.3 53 47.3 34.9-17.8-54.9z" fill="#1d1d1b" opacity=".5"/>
<path d="m624.9-72.9-46.9 34.2-18.3 56.5 46.6-33.1z" fill="#1d1d1b" opacity=".5"/>
<path d="m374.2 109.1-18.8 56.5 48.9-34.8 46.2 31.8-16.5-52.3 47.4-35.1-58.8-.8z" fill="#1d1d1b" opacity=".5"/>
<path d="m421.1 548.3-17.4-54.2-17.8 55" fill="#1d1d1b" opacity=".5"/>
<path d="m530.6 109.1-19.8 57 19.2 56.1 19-56.9z" fill="#1d1d1b" opacity=".5"/>
<path d="m46.5 461.2-46.5 33.8 57.4.5 18.3 56.2 19.8-56.2 58.4.1-48-34.4z" fill="#1d1d1b" opacity=".5"/>
<path d="m105.2 165.3 19 56.8 18.4-56.7 59.3.1-48.3-34.2 18-57.6-48.7 35z" fill="#1d1d1b" opacity=".5"/>
<path d="m327.1 369.8 49.2 35.4-18.6-56.4 46.9-34.9-58.1.2-19.5-56.1-17.6 57.2z" fill="#1d1d1b" opacity=".5"/>
<path d="m-28.9 223.2-48.5 34.8 58.4-.5 18.3 53.2 17.8-54.2 58.3.1-47-34.4z" fill="#1d1d1b" opacity=".5"/>
<path d="m-78.6 73.8 56.2-.7 22.4-54.6 16.4 54.8 59-.2-48.7 36.5 18.9 55.9-46.8-34.4-48.4 35 19-56.5" fill="#1d1d1b" opacity=".5"/>
<path d="m559.2 495.5 18.3 56.4-47.9 34.8-47.9-34.8 18.3-56.4z" fill="none" stroke="#006dd9" stroke-width="3"/>
<path d="m810.6 313.3 18.2 56.4-47.8 34.9-47.9-34.9 18.3-56.4z" fill="none" stroke="#006dd9" stroke-width="3"/>
<path d="m684.1-73.2 18.3 56.4-47.9 34.8-47.8-34.8 18.3-56.4z" fill="none" stroke="#006dd9" stroke-width="3"/>
<path d="m434.3-73.2 18.3 56.4-47.9 34.8-47.8-34.8 18.3-56.4z" fill="none" stroke="#006dd9" stroke-width="3"/>
<path d="m277.9-73.2 18.2 56.4-47.8 34.8-47.9-34.8 18.3-56.4z" fill="none" stroke="#006dd9" stroke-width="3"/>
<path d="m810.6 18.4 18.2 56.4-47.8 34.8-47.9-34.9 18.3-56.3z" fill="none" stroke="#006dd9" stroke-width="3"/>
<path d="m308.3 495.5 18.3 56.4-47.9 34.8-47.8-34.8 18.3-56.4z" fill="none" stroke="#006dd9" stroke-width="3"/>
<path d="m153.9 495.5 18.3 56.4-47.9 34.8-47.8-34.8 18.3-56.4z" fill="none" stroke="#006dd9" stroke-width="3"/>
<path d="m57.3 495.5 18.3 56.4-47.9 34.8-47.8-34.8 18.2-56.4z" fill="none" stroke="#006dd9" stroke-width="3"/>
<path d="m501.5 312.5-18.3-56.3 47.9-34.8 47.9 34.8-18.3 56.3z" fill="none" stroke="#006dd9" stroke-width="3"/>
<path d="m500 17.5-18.3-56 47.8-34.7 47.9 34.6-18.3 56.1z" fill="none" stroke="#006dd9" stroke-width="3"/>
<path d="m577.8 74.5-18.3-56.1 47.8-34.7 47.9 34.7-18.3 56.1z" fill="none" stroke="#006dd9" stroke-width="3"/>
<path d="m171.4 74.5-18.2-56.1 47.8-34.7 47.9 34.7-18.3 56.1z" fill="none" stroke="#006dd9" stroke-width="3"/>
<path d="m16.3 73.5-18.3-56.1 47.9-34.7 47.8 34.7-18.2 56.1z" fill="none" stroke="#006dd9" stroke-width="3"/>
<path d="m548.1 460.5-18.3-56.4 47.9-34.8 47.9 34.8-18.3 56.4z" fill="none" stroke="#006dd9" stroke-width="3"/>
<path d="m453 460.5-18.2-56.4 47.8-34.8 47.9 34.8-18.3 56.4z" fill="none" stroke="#006dd9" stroke-width="3"/>
<path d="m625.9 403.5-18.3-56.2 47.9-34.7 47.8 34.7-18.3 56.2z" fill="none" stroke="#006dd9" stroke-width="3"/>
<path d="m577.9 552.5-18.3-56.5 47.9-34.8 47.9 34.9-18.3 56.4z" fill="none" stroke="#006dd9" stroke-width="3"/>
<path d="m549.2 165.5-18.3-56.5 47.9-34.9 47.8 35-18.3 56.4z" fill="none" stroke="#006dd9" stroke-width="3"/>
<path d="m626 221.5-18.3-56.1 47.8-34.8 47.9 34.7-18.3 56.2z" fill="none" stroke="#006dd9" stroke-width="3"/>
<path d="m-31 222.5-18.3-56.1 47.9-34.8 47.9 34.7-18.3 56.2z" fill="none" stroke="#006dd9" stroke-width="3"/>
<path d="m752 313.5-18.2-56.3 47.8-34.8 47.9 34.8-18.3 56.3z" fill="none" stroke="#006dd9" stroke-width="3"/>
<path d="m250 313.5-18.2-56.3 47.8-34.8 47.9 34.8-18.3 56.3z" fill="none" stroke="#006dd9" stroke-width="3"/>
<path d="m714.8 17.5 18.3 56.2-47.9 34.8-47.8-34.8 18.2-56.2z" fill="none" stroke="#006dd9" stroke-width="3"/>
<path d="m152.7 17.5 18.2 56.2-47.8 34.8-47.9-34.8 18.3-56.2z" fill="none" stroke="#006dd9" stroke-width="3"/>
<path d="m559.9 312.5 18.3 56.3-47.9 34.8-47.8-34.8 18.2-56.3z" fill="none" stroke="#006dd9" stroke-width="3"/>
<path d="m482.8 256.5 18.2 56.3-47.8 34.7-47.9-34.7 18.3-56.3z" fill="none" stroke="#006dd9" stroke-width="3"/>
<path d="m703.2 165.5-18.3-56.3 47.9-34.8 47.9 34.8-18.3 56.3z" fill="none" stroke="#006dd9" stroke-width="3"/>
<path d="m45.5 165.5-18.3-56.3 47.9-34.8 47.9 34.8-18.3 56.3z" fill="none" stroke="#006dd9" stroke-width="3"/>
<path d="m296.7 165.5-18.3-56.3 47.9-34.8 47.8 34.8-18.2 56.3z" fill="none" stroke="#006dd9" stroke-width="3"/>
<path d="m608.3 165.5 18.3 56.2-47.9 34.7-47.9-34.7 18.3-56.2z" fill="none" stroke="#006dd9" stroke-width="3"/>
<path d="m201.7 165.5 18.3 56.2-47.9 34.7-47.9-34.7 18.3-56.2z" fill="none" stroke="#006dd9" stroke-width="3"/>
<path d="m105.6 165.5 18.3 56.2-47.9 34.7-47.8-34.7 18.2-56.2z" fill="none" stroke="#006dd9" stroke-width="3"/>
<path d="m357.1 165.5 18.3 56.2-47.9 34.7-47.9-34.7 18.3-56.2z" fill="none" stroke="#006dd9" stroke-width="3"/>
<path d="m511.2 166.5 18.3 56.2-47.9 34.7-47.8-34.7 18.3-56.2z" fill="none" stroke="#006dd9" stroke-width="3"/>
<path d="m637.6 256.5 18.3 56.3-47.9 34.7-47.8-34.7 18.3-56.3z" fill="none" stroke="#006dd9" stroke-width="3"/>
<path d="m231.5 256.5 18.2 56.3-47.8 34.7-47.9-34.7 18.3-56.3z" fill="none" stroke="#006dd9" stroke-width="3"/>
<path d="m76.2 256.5 18.3 56.3-47.9 34.7-47.8-34.7 18.2-56.3z" fill="none" stroke="#006dd9" stroke-width="3"/>
<path d="m403.9 18.5 18.3 56.2-47.8 34.8-47.9-34.8 18.3-56.2z" fill="none" stroke="#006dd9" stroke-width="3"/>
<path d="m452 166.5-18.3-56.2 47.8-34.7 47.9 34.7-18.3 56.2z" fill="none" stroke="#006dd9" stroke-width="3"/>
<path d="m703.8 461.5-18.3-56.3 47.9-34.8 47.9 34.8-18.3 56.3z" fill="none" stroke="#006dd9" stroke-width="3"/>
<path d="m298.2 461.5-18.3-56.3 47.9-34.8 47.8 34.8-18.3 56.3z" fill="none" stroke="#006dd9" stroke-width="3"/>
<path d="m46.8 461.5-18.3-56.3 47.9-34.8 47.9 34.8-18.3 56.3z" fill="none" stroke="#006dd9" stroke-width="3"/>
<path d="m673.8 552.5-18.3-56.4 47.9-34.8 47.9 34.9-18.3 56.3z" fill="none" stroke="#006dd9" stroke-width="3"/>
<path d="m422.7 552.5-18.3-56.3 47.9-34.8 47.8 34.8-18.2 56.3z" fill="none" stroke="#006dd9" stroke-width="3"/>
<path d="m655.9 313.5-18.3-56.3 47.9-34.8 47.9 34.8-18.3 56.3z" fill="none" stroke="#006dd9" stroke-width="3"/>
<path d="m376.2 404.5-18.3-56.3 47.8-34.8 47.9 34.8-18.3 56.3z" fill="none" stroke="#006dd9" stroke-width="3"/>
<path d="m-30 404.5-18.3-56.3 47.9-34.8 47.9 34.8-18.3 56.3z" fill="none" stroke="#006dd9" stroke-width="3"/>
<path d="m422.7 74.5-18.3-56.3 47.9-34.8 47.8 34.8-18.2 56.3z" fill="none" stroke="#006dd9" stroke-width="3"/>
<path d="m231.5 74.7 18.2 56.3-47.8 34.8-47.9-34.8 18.3-56.3z" fill="none" stroke="#006dd9" stroke-width="3"/>
<path d="m375.2 221.5-18.3-56.2 47.9-34.7 47.8 34.7-18.2 56.2z" fill="none" stroke="#006dd9" stroke-width="3"/>
<path d="m326.5 551.5-18.3-56.2 47.9-34.7 47.8 34.7-18.2 56.2z" fill="none" stroke="#006dd9" stroke-width="3"/>
<path d="m309.5 313.2 18.3 56.5-47.9 34.9-47.9-34.9 18.3-56.5z" fill="none" stroke="#006dd9" stroke-width="3"/>
<path d="m153.8 313.2 18.3 56.5-47.9 34.9-47.8-34.9 18.3-56.5z" fill="none" stroke="#006dd9" stroke-width="3"/>
<path d="m751 495.5h59" fill="none" stroke="#006dd9" stroke-width="3"/>
<path d="m220.2 221.5-18.3-56.1 47.8-34.8 47.9 34.7-18.3 56.2z" fill="none" stroke="#006dd9" stroke-width="3"/>
<path d="m279.9 404.7 18.3 56.3-47.9 34.7-47.9-34.7 18.3-56.3z" fill="none" stroke="#006dd9" stroke-width="3"/>
<path d="m183.4 404.7 18.3 56.3-47.9 34.7-47.9-34.7 18.3-56.3z" fill="none" stroke="#006dd9" stroke-width="3"/>
<path d="m28.2 404.7 18.3 56.3-47.9 34.7-47.8-34.7 18.3-56.3z" fill="none" stroke="#006dd9" stroke-width="3"/>
<path d="m307.6 18.5 18.3 56.2-47.9 34.8-47.9-34.8 18.3-56.2z" fill="none" stroke="#006dd9" stroke-width="3"/>
<path d="m345.8 313.5-18.3-56.3 47.9-34.8 47.8 34.8-18.3 56.3z" fill="none" stroke="#006dd9" stroke-width="3"/>
</g>
<g>
<path d="m-83.6 72.9 129 92.3 155-.1-126.9-92.2z" fill="#1d1d1b" opacity=".5"/>
<path d="m658.6 312.8 125 92.3 159-.1-126.8-92.2z" fill="#1d1d1b" opacity=".5"/>
<path d="m402 312.6-155.7 1.3-125.1 91.4 154.8-.2z" fill="#1d1d1b" opacity=".5"/>
<path d="m452.1 164.5-50.9-150.3-121.9-90.4 48.1 150z" fill="#1d1d1b" opacity=".5"/>
<path d="m607.4 166.7 125.5-93.4 47.5-147.5-123.7 92.3z" fill="#1d1d1b" opacity=".5"/>
<path d="m579.3 551.7-49.2-147.5-49.2 150.9" fill="#1d1d1b" opacity=".5"/>
<path d="m404.9 16.3-126.3-91.8" fill="none" stroke="#d90000" stroke-width="6"/>
<path d="m326.1 552.8-48.2-148.5 126.3-91.7 126.3 91.7-48.3 148.5z" fill="none" stroke="#d90000" stroke-width="6"/>
<path d="m578 550.8-47.8-148.5 125.1-91.7 124.9 91.7-47.7 148.5z" fill="none" stroke="#d90000" stroke-width="6"/>
<path d="m-82.6 72.6 126.2 91.7" fill="none" stroke="#d90000" stroke-width="6"/>
<path d="m249.3 313.5-47.9-148.4 125.5-91.8 125.5 91.8-48 148.4z" fill="none" stroke="#d90000" stroke-width="6"/>
<path d="m656 313.1-48.2-148.4 126.3-91.8 126.3 91.8-48.3 148.4z" fill="none" stroke="#d90000" stroke-width="6"/>
<path d="m783.6-75.5-126.3 91.8" fill="none" stroke="#d90000" stroke-width="6"/>
<path d="m732.8 73.6 46.2-145.7" fill="none" stroke="#d90000" stroke-width="6"/>
<path d="m451.7 166.1-48.2-148.5 126.3-91.7 126.2 91.7-48.2 148.5z" fill="none" stroke="#d90000" stroke-width="6"/>
<path d="m278.4 404.8 48.2 148.4-126.2 91.8-126.3-91.8 48.2-148.4z" fill="none" stroke="#d90000" stroke-width="6"/>
<path d="m278.4-76.1 48.2 148.4-126.2 91.8-126.3-91.8 48.2-148.4z" fill="none" stroke="#d90000" stroke-width="6"/>
<path d="m201.3 165 47.7 148.4-125 91.8-125-91.8 47.8-148.4z" fill="none" stroke="#d90000" stroke-width="6"/>
<path d="m-82.6 72.6 156.7-.3" fill="none" stroke="#d90000" stroke-width="6"/>
</g>
</svg>