<svg viewBox="0 0 500 320" width="500" height="320" xmlns="http://www.w3.org/2000/svg"><g opacity=".4"><ellipse cx="336.9" cy="221.8" fill="#fd8c00" rx="157.1" ry="85.3"/><ellipse cx="216.9" cy="149.3" fill="#009ea6" rx="211.4" ry="135.8"/><path d="m428.2 152.4c-25.8-10-57.3-15.9-91.3-15.9-86.8 0-157.2 38.2-157.2 85.3 0 25 19.8 47.5 51.3 63 108.6-4.6 194.7-61.8 197.2-132.4z" fill="#bfc212"/><path d="m216.9 19.6c-37.5 0-72.7 6.4-102.9 17.5l57.8 238.8a323.5 323.5 0 0 0 45.1 3.2c113.1 0 205.2-58.2 205.2-129.8s-92.1-129.7-205.2-129.7z" fill="#0f82f2"/><ellipse cx="226.3" cy="167.2" fill="#6d3bbf" rx="62.8" ry="103.4" transform="matrix(.9198215 -.39233712 .39233712 .9198215 -47.4 102.2)"/><path d="m422.1 150.2c-24.5-8.7-53.8-13.7-85.2-13.7-86.8 0-157.2 38.2-157.2 85.3 0 22 15.4 42.1 40.6 57.2 111.2-1.1 201.1-58.4 201.8-128.8z" fill="#22ab24"/><path d="m180.2 214.7c23.9 38.6 59.6 59.4 86.6 47.9 32-13.6 39.7-67.2 17.3-119.8l-.5-1.2c-56.7 11-98.2 39.3-103.4 73.1z" fill="#cd0e66"/></g><path d="m224.5 237 1.1-1.2a4 4 0 0 0 2.7 1.2c1.2 0 1.8-.6 1.8-1.4s-.7-1.1-1.6-1.5l-1.4-.6a3.2 3.2 0 0 1 -2.2-2.8c0-1.7 1.5-3 3.6-3a4.3 4.3 0 0 1 3.2 1.4l-1 1.1a3.1 3.1 0 0 0 -2.2-.9c-1 0-1.7.5-1.7 1.3s.8 1.1 1.7 1.4l1.4.6a3.1 3.1 0 0 1 2.1 2.9c0 1.7-1.4 3.1-3.7 3.1a5.5 5.5 0 0 1 -3.8-1.6z" fill="#cd0e66"/><path d="m238.6 238.9v-1.3a3.2 3.2 0 0 1 -2.2 1c-2 0-3.2-1.5-3.2-4.1s1.6-4.2 3.3-4.2a3 3 0 0 1 2.2 1l.2-.8h1.4v11h-1.8zm0-2.7v-3.7a2.3 2.3 0 0 0 -1.6-.6c-1 0-1.8.9-1.8 2.5s.6 2.7 1.8 2.7a2.2 2.2 0 0 0 1.6-.9z" fill="#cd0e66"/><path d="m242.7 235.5v-5h1.8v4.7c0 1.3.4 1.8 1.3 1.8s1.1-.3 1.7-1.1v-5.4h1.8v7.9h-1.5v-1.2h-.1a3.2 3.2 0 0 1 -2.5 1.4c-1.8 0-2.5-1.2-2.5-3.1z" fill="#cd0e66"/><path d="m251.3 236.3c0-1.7 1.4-2.6 4.6-2.9 0-.9-.4-1.6-1.5-1.6a5.8 5.8 0 0 0 -2.2.8l-.6-1.2a5.2 5.2 0 0 1 3.2-1.1c1.9 0 2.9 1.2 2.9 3.4v4.7h-1.5v-.9h-.2a4.1 4.1 0 0 1 -2.4 1.1 2.2 2.2 0 0 1 -2.3-2.1zm4.6 0v-1.8c-2.2.3-2.9.8-2.9 1.6s.5 1 1.2 1a3 3 0 0 0 1.7-.8z" fill="#cd0e66"/><path d="m259.9 230.5h1.6v1.4a2.8 2.8 0 0 1 2.3-1.6l.9.2-.4 1.6h-.8c-.6 0-1.3.4-1.8 1.6v4.8h-1.9z" fill="#cd0e66"/><path d="m265.2 234.5c0-2.6 1.8-4.2 3.6-4.2a3.5 3.5 0 0 1 3.3 3.8 2.8 2.8 0 0 1 -.1.9h-5a2.4 2.4 0 0 0 2.3 2.2 4.2 4.2 0 0 0 1.9-.6l.6 1.1a4.4 4.4 0 0 1 -2.7.9 3.8 3.8 0 0 1 -3.9-3.7zm5.3-.8c0-1.2-.5-1.9-1.6-1.9a2 2 0 0 0 -1.9 1.9z" fill="#cd0e66"/><path d="m308.5 210.9h3.5c2.2 0 3.8.7 3.8 3.1a2.9 2.9 0 0 1 -2 3l2.5 4.3h-2.1l-2.3-4.1h-1.6v4.1h-1.8zm3.3 4.9c1.4 0 2.2-.6 2.2-1.8s-.8-1.6-2.2-1.6h-1.5v3.4z" fill="#22ab24"/><path d="m317.8 210h1.8v4.5a3 3 0 0 1 2.5-1.2c1.7 0 2.4 1.1 2.4 3.1v4.9h-1.9v-4.7c0-1.3-.3-1.7-1.2-1.7a2.6 2.6 0 0 0 -1.8.9v5.5h-1.8z" fill="#22ab24"/><path d="m326.2 217.4a3.8 3.8 0 0 1 4.1-3.5 3.8 3.8 0 0 1 -.4 7.6 3.7 3.7 0 0 1 -3.7-3.9zm5.6 0c0-1.6-.7-2.6-1.9-2.6s-1.8 1-1.8 2.6.7 2.6 1.8 2.6 1.9-1 1.9-2.6z" fill="#22ab24"/><path d="m335.5 213.5h1.5v1h.1a3.3 3.3 0 0 1 2.4-1.2 2.1 2.1 0 0 1 2.2 1.4 3.5 3.5 0 0 1 2.5-1.4c1.7 0 2.4 1.1 2.4 3.1v4.9h-1.8v-4.7c0-1.3-.4-1.7-1.2-1.7a2.6 2.6 0 0 0 -1.7.9v5.5h-1.8v-4.7c0-1.3-.4-1.7-1.2-1.7a2.6 2.6 0 0 0 -1.7.9v5.5h-1.8z" fill="#22ab24"/><path d="m350.6 220.5-.2.8h-1.4v-11.3h1.8v4.3a3.2 3.2 0 0 1 2.2-1c2 0 3.2 1.5 3.2 4s-1.7 4.2-3.4 4.2a3.2 3.2 0 0 1 -2.2-1zm3.6-3.2c0-1.6-.5-2.5-1.6-2.5a2.6 2.6 0 0 0 -1.8.9v3.6a2.4 2.4 0 0 0 1.6.7c1 0 1.8-.9 1.8-2.7z" fill="#22ab24"/><path d="m357.9 218.4v-4.9h1.9v4.7c0 1.3.3 1.7 1.2 1.7s1.1-.3 1.7-1.1v-5.3h1.9v7.8h-1.6v-1.1a3.3 3.3 0 0 1 -2.6 1.3c-1.8 0-2.5-1.1-2.5-3.1z" fill="#22ab24"/><path d="m366.1 220.4.9-1.2a2.9 2.9 0 0 0 2.1.9c.9 0 1.3-.4 1.3-.9s-.9-1-1.7-1.3-2.2-1-2.2-2.3 1.1-2.3 2.9-2.3a4.1 4.1 0 0 1 2.6.9l-.9 1.1a2.7 2.7 0 0 0 -1.7-.6c-.8 0-1.2.3-1.2.8s.8.9 1.7 1.2 2.2.9 2.2 2.4-1 2.4-3 2.4a4.6 4.6 0 0 1 -3-1.1z" fill="#22ab24"/><path d="m173.1 136.3h3.5c2.2 0 3.8.8 3.8 3.1a2.9 2.9 0 0 1 -2 3l2.5 4.4h-2.1l-2.3-4.1h-1.6v4.1h-1.8zm3.3 4.9c1.4 0 2.2-.6 2.2-1.8s-.8-1.6-2.2-1.6h-1.5v3.4z" fill="#6d3bbf"/><path d="m181.7 142.8a3.8 3.8 0 0 1 3.5-4.1h.1c2.2 0 3.3 1.6 3.3 3.7 0 .4-.1.7-.1.9h-5a2.4 2.4 0 0 0 2.3 2.2 3.7 3.7 0 0 0 1.8-.5l.7 1.1a4.4 4.4 0 0 1 -2.7.9 3.8 3.8 0 0 1 -3.9-3.9zm5.3-.7c0-1.2-.6-2-1.6-2a1.9 1.9 0 0 0 -1.9 1.9h3.5z" fill="#6d3bbf"/><path d="m189.8 142.8a3.8 3.8 0 0 1 3.7-4.1h.3a3.2 3.2 0 0 1 2.3.9l-.9 1.2a2.2 2.2 0 0 0 -1.3-.6 2.2 2.2 0 0 0 -2.2 2.4v.2c0 1.6.9 2.7 2.1 2.7a2.9 2.9 0 0 0 1.6-.7l.8 1.2a4 4 0 0 1 -2.6 1c-2.1 0-3.8-1.5-3.8-4.2z" fill="#6d3bbf"/><path d="m197.8 144.1v-3.7h-1.1v-1.4h1.2l.3-2.1h1.5v2.1h2v1.5h-2v3.7c0 .9.3 1.4 1.1 1.4l.8-.2.3 1.4a4.5 4.5 0 0 1 -1.6.3c-1.8-.1-2.5-1.3-2.5-3z" fill="#6d3bbf"/><path d="m202.6 144.7c0-1.7 1.4-2.6 4.6-3a1.3 1.3 0 0 0 -1.1-1.5h-.3a4.2 4.2 0 0 0 -2.2.8l-.7-1.3a7.5 7.5 0 0 1 3.2-1c2 0 3 1.2 3 3.4v4.7h-1.6v-.9h-.1a4.1 4.1 0 0 1 -2.4 1.1 2.2 2.2 0 0 1 -2.4-2zm4.6 0v-1.8c-2.1.3-2.8.8-2.8 1.6s.4 1 1.1 1a3 3 0 0 0 1.7-.8z" fill="#6d3bbf"/><path d="m211.3 138.9h1.5v1.1h.1a3.4 3.4 0 0 1 2.5-1.3c1.7 0 2.5 1.2 2.5 3.1v5h-1.9v-4.7c0-1.3-.3-1.8-1.2-1.8s-1.1.3-1.8 1v5.5h-1.8z" fill="#6d3bbf"/><path d="m219.7 148.2a2.3 2.3 0 0 1 1.1-1.7 1.2 1.2 0 0 1 -.7-1.3 1.7 1.7 0 0 1 .9-1.4 2.6 2.6 0 0 1 -1.1-2.1c0-1.8 1.5-2.8 3.2-2.8l1.1.2h2.8v1.4h-1.4a2 2 0 0 1 .4 1.3 2.7 2.7 0 0 1 -2.7 2.7h-.2l-1.1-.2a.8.8 0 0 0 -.4.7c0 .5.3.7 1.3.7h1.4c1.9 0 2.9.6 2.9 2s-1.7 2.7-4.2 2.7-3.3-.8-3.3-2.2zm5.7-.4c0-.6-.5-.8-1.4-.8h-2.2a1.1 1.1 0 0 0 -.6 1c0 .7.8 1.1 2 1.1s2.2-.7 2.2-1.3zm-1-6.3a1.4 1.4 0 0 0 -1.3-1.5 1.3 1.3 0 0 0 -1.4 1.2v.3a1.4 1.4 0 0 0 1.2 1.6h.2c.7 0 1.3-.6 1.3-1.6z" fill="#6d3bbf"/><path d="m228.5 144.7v-9.2h1.9v9.3c0 .5.2.7.4.7h.3l.2 1.4-1 .2c-1.3-.1-1.8-1-1.8-2.4z" fill="#6d3bbf"/><path d="m232.4 142.8a3.8 3.8 0 0 1 3.5-4.1h.1c2.1 0 3.2 1.6 3.2 3.7v.9h-5a2.2 2.2 0 0 0 2.2 2.2h.1a4.1 4.1 0 0 0 1.8-.5l.6 1.1a4.4 4.4 0 0 1 -2.7.9c-2.1 0-3.8-1.6-3.8-4.2zm5.2-.7c0-1.2-.5-2-1.6-2s-1.7.7-1.9 2z" fill="#6d3bbf"/><g fill="#0f82f2"><path d="m289.1 106h3.3c2.3 0 4.1.8 4.1 3.2s-1.8 3.4-4 3.4h-1.5v3.8h-1.9zm3.2 5.1c1.6 0 2.3-.6 2.3-1.9s-.8-1.7-2.3-1.7h-1.3v3.6z"/><path d="m297.2 114.3c0-1.7 1.4-2.5 4.7-2.9-.1-.8-.4-1.5-1.5-1.5a4.4 4.4 0 0 0 -2.2.7l-.7-1.2a6.4 6.4 0 0 1 3.3-1c1.9 0 2.9 1.2 2.9 3.4v4.6h-1.5v-.8h-.2a3.7 3.7 0 0 1 -2.4 1 2.2 2.2 0 0 1 -2.4-2zm4.7 0v-1.7c-2.2.2-2.9.8-2.9 1.6a.9.9 0 0 0 1 1h.1a2.4 2.4 0 0 0 1.8-.9z"/><path d="m305.9 108.6h1.5l.2 1.4a2.7 2.7 0 0 1 2.2-1.6h.9l-.3 1.6h-.8a2.4 2.4 0 0 0 -1.9 1.6v4.8h-1.8z"/><path d="m311 114.3c0-1.7 1.4-2.5 4.7-2.9-.1-.8-.4-1.5-1.5-1.5a4.4 4.4 0 0 0 -2.2.7l-.7-1.2a6.4 6.4 0 0 1 3.3-1c1.9 0 2.9 1.2 2.9 3.4v4.6h-1.5v-.8h-.1a3.7 3.7 0 0 1 -2.4 1 2.2 2.2 0 0 1 -2.5-1.9zm4.7 0v-1.7c-2.2.2-2.9.8-2.9 1.6s.5 1 1.2 1a2.2 2.2 0 0 0 1.7-.9z"/><path d="m319.7 114.4v-9.3h1.9v9.4c0 .5.2.6.4.6h.2l.3 1.4h-1c-1.3.1-1.8-.7-1.8-2.1z"/><path d="m324 114.4v-9.3h1.9v9.4c0 .5.2.6.4.6h.3l.2 1.4h-1c-1.3.1-1.8-.7-1.8-2.1z"/><path d="m327.9 112.5a3.8 3.8 0 0 1 3.5-4.1h.1c2.1 0 3.2 1.5 3.2 3.7v.9h-5a2.2 2.2 0 0 0 2.2 2.2h.1a3 3 0 0 0 1.8-.6l.6 1.2a5 5 0 0 1 -2.7.8 3.8 3.8 0 0 1 -3.8-3.8zm5.2-.7c0-1.3-.5-2-1.6-2s-1.7.7-1.9 2z"/><path d="m336.5 114.4v-9.3h1.8v9.4c0 .5.2.6.4.6h.3l.3 1.4h-1c-1.3.1-1.8-.7-1.8-2.1z"/><path d="m340.3 112.5a3.8 3.8 0 0 1 4.1-3.5 3.8 3.8 0 0 1 -.4 7.6 3.7 3.7 0 0 1 -3.7-3.9zm5.6 0c0-1.6-.7-2.6-1.9-2.6s-1.8 1-1.8 2.6.7 2.6 1.8 2.6 1.9-1 1.9-2.6z"/><path d="m349.1 117.9a2 2 0 0 1 1.1-1.7 1.5 1.5 0 0 1 -.7-1.3 2.1 2.1 0 0 1 .9-1.5 2.6 2.6 0 0 1 -1.1-2.1c0-1.8 1.5-2.8 3.2-2.8l1.1.2h2.8v1.3h-1.4a2.6 2.6 0 0 1 -.8 3.6 2.5 2.5 0 0 1 -1.7.4 2 2 0 0 1 -1.1-.2.9.9 0 0 0 -.4.8c0 .4.3.7 1.3.7h1.4c1.9 0 2.8.6 2.8 1.9s-1.6 2.8-4.1 2.8-3.3-.8-3.3-2.1zm5.7-.5c0-.6-.5-.7-1.4-.7h-1.1l-1.1-.2a1.4 1.4 0 0 0 -.6 1.1c0 .7.8 1.1 2 1.1s2.2-.6 2.2-1.3zm-1-6.2a1.3 1.3 0 0 0 -1.1-1.5h-.2a1.3 1.3 0 0 0 -1.4 1.2v.3a1.4 1.4 0 0 0 1.2 1.6h.2c.7 0 1.3-.6 1.3-1.6z"/><path d="m357.9 108.6h1.6v1.4a2.6 2.6 0 0 1 2.3-1.6h.9l-.3 1.6h-.9c-.6 0-1.3.5-1.8 1.6v4.8h-1.9z"/><path d="m363.1 114.3c0-1.7 1.4-2.5 4.6-2.9a1.3 1.3 0 0 0 -1.1-1.5h-.3a4.8 4.8 0 0 0 -2.3.7l-.6-1.2a6.3 6.3 0 0 1 3.2-1c2 0 2.9 1.2 2.9 3.4v4.6h-1.5v-.8h-.1a3.7 3.7 0 0 1 -2.4 1 2.2 2.2 0 0 1 -2.4-2zm4.6 0v-1.7c-2.1.2-2.9.8-2.9 1.6s.5 1 1.2 1a2.2 2.2 0 0 0 1.7-.9z"/><path d="m371.7 108.6h1.6v1.1h.1a2.8 2.8 0 0 1 2.4-1.3 2 2 0 0 1 2.1 1.4 3.8 3.8 0 0 1 2.6-1.4c1.6 0 2.4 1.1 2.4 3.1v4.9h-1.9v-4.7c0-1.2-.3-1.7-1.2-1.7a2.6 2.6 0 0 0 -1.6.9v5.5h-1.8v-4.7c0-1.2-.4-1.7-1.3-1.7a2.6 2.6 0 0 0 -1.6.9v5.5h-1.9z"/></g><path d="m376.7 260.6h1.9v4.7l3.8-4.7h2l-3.2 4 3.8 6.4h-2.1l-2.8-4.9-1.5 1.9v3h-1.9z" fill="#fd8c00"/><path d="m385.9 260.7c0-.6.5-1 1.2-1a1 1 0 0 1 1.1.9 1 1 0 0 1 -.9 1.1h-.2a1.1 1.1 0 0 1 -1.2-1zm.2 2.5h1.9v7.8h-1.9z" fill="#fd8c00"/><path d="m390.6 268.4v-3.8h-1.1v-1.4h1.2l.2-2.2h1.6v2.2h2v1.4h-2v3.8c0 .9.3 1.3 1.1 1.3h.8l.3 1.3a4.5 4.5 0 0 1 -1.6.3c-1.8-.1-2.5-1.2-2.5-2.9z" fill="#fd8c00"/><path d="m395.3 267.1a3.8 3.8 0 0 1 3.5-4.1h.2c2.1 0 3.2 1.5 3.2 3.7a2.8 2.8 0 0 1 -.1.9h-5a2.4 2.4 0 0 0 2.3 2.2 3.3 3.3 0 0 0 1.9-.6l.6 1.2a5 5 0 0 1 -2.7.8 3.8 3.8 0 0 1 -3.9-3.7zm5.3-.8c0-1.2-.5-1.9-1.6-1.9a2.1 2.1 0 0 0 -1.9 1.9z" fill="#fd8c00"/><path d="m45.1 176.2h-3v-1.6h7.9v1.6h-3v8.9h-1.9z" fill="#009ea6"/><path d="m50.9 177.2h1.5v1.4h.1a2.7 2.7 0 0 1 2.2-1.6l.9.2-.3 1.6-.8-.2c-.6 0-1.4.5-1.9 1.7v4.8h-1.7z" fill="#009ea6"/><path d="m56 182.9c0-1.6 1.4-2.5 4.7-2.9-.1-.8-.4-1.5-1.5-1.5a3.5 3.5 0 0 0 -2.2.8l-.7-1.3a6.4 6.4 0 0 1 3.3-1c1.9 0 2.9 1.2 2.9 3.4v4.7h-1.5v-.9h-.1a3.7 3.7 0 0 1 -2.4 1 2.2 2.2 0 0 1 -2.5-1.9zm4.7 0v-1.7c-2.2.3-2.9.8-2.9 1.6a.9.9 0 0 0 1 1h.1a2.4 2.4 0 0 0 1.8-.9z" fill="#009ea6"/><path d="m64.7 177.2h1.5l.2.8a4.3 4.3 0 0 1 2.4-1c1.9 0 3.1 1.6 3.1 4s-1.6 4.2-3.4 4.2a3.2 3.2 0 0 1 -2-.8v3.8h-1.8zm5.3 3.8c0-1.5-.5-2.5-1.7-2.5a3.1 3.1 0 0 0 -1.8.9v3.7a2.3 2.3 0 0 0 1.6.6c1.1 0 1.9-.9 1.9-2.7z" fill="#009ea6"/><path d="m73.2 181.1a3.8 3.8 0 0 1 3.5-4.1h.1c2.2 0 3.3 1.5 3.3 3.7a2.8 2.8 0 0 1 -.1.9h-5a2.4 2.4 0 0 0 2.3 2.2 3.3 3.3 0 0 0 1.9-.6l.6 1.2a5 5 0 0 1 -2.7.8 3.8 3.8 0 0 1 -3.9-3.7zm5.3-.7c0-1.2-.5-2-1.6-2s-1.7.7-1.9 2z" fill="#009ea6"/><path d="m81.2 184.1 3.7-5.4h-3.3v-1.5h5.6v1l-3.7 5.4h3.8v1.5h-6.1z" fill="#009ea6"/><path d="m88.7 174.8a1.1 1.1 0 1 1 2.2 0 1.1 1.1 0 1 1 -2.2 0zm.2 2.4h1.8v7.9h-1.8z" fill="#009ea6"/><path d="m93 182.1v-4.9h1.8v4.7c0 1.3.4 1.8 1.2 1.8a2.7 2.7 0 0 0 1.8-1.1v-5.4h1.8v7.9h-1.5v-1.2h-.1a3.1 3.1 0 0 1 -2.5 1.3c-1.8 0-2.5-1.1-2.5-3.1z" fill="#009ea6"/><path d="m102 177.2h1.5v1.1h.1a3.2 3.2 0 0 1 2.4-1.3 2 2 0 0 1 2.1 1.4 3.8 3.8 0 0 1 2.6-1.4c1.6 0 2.4 1.1 2.4 3.1v5h-1.8v-4.7c0-1.3-.4-1.8-1.2-1.8a2.3 2.3 0 0 0 -1.7 1v5.5h-1.8v-4.7c0-1.3-.4-1.8-1.3-1.8a2.7 2.7 0 0 0 -1.6 1v5.5h-1.7z" fill="#009ea6"/><path d="m178 94.1h55v34.17h-55z" fill="#6d3bbf"/><path d="m227 174h44.3v44.33h-44.3z" fill="#cd0e66"/><path d="m372.6 192.4-42.4 6.8-17.6-38.8 42.4-6.8z" fill="#22ab24"/><path d="m341.5 95.4h-68.7l-9.2-40.4h67.2z" fill="#0f82f2"/><path d="m118 163h-78.9l9.5-45.3h59.9z" fill="#009ea6"/><path d="m476.6 240.4-52.8 26.1-27.4-26.1 27.4-26.1z" fill="#fd8c00"/><ellipse cx="336.9" cy="221.8" fill="none" rx="157.1" ry="85.3" stroke="#fff" stroke-miterlimit="10" stroke-width="2"/><ellipse cx="216.9" cy="149.3" fill="none" rx="211.4" ry="135.8" stroke="#fff" stroke-miterlimit="10" stroke-width="2"/><path d="m216.9 19.6c-37.5 0-72.7 6.4-102.9 17.5l57.8 238.8a323.5 323.5 0 0 0 45.1 3.2c113.1 0 205.2-58.2 205.2-129.8s-92.1-129.7-205.2-129.7z" fill="none" stroke="#fff" stroke-miterlimit="10" stroke-width="2"/><ellipse cx="226.3" cy="167.2" fill="none" rx="62.8" ry="103.4" stroke="#fff" stroke-miterlimit="10" stroke-width="2" transform="matrix(.9198215 -.39233712 .39233712 .9198215 -47.4 102.2)"/></svg>
