<svg id="Layer_1" data-name="Layer 1" xmlns="http://www.w3.org/2000/svg" xmlns:xlink="http://www.w3.org/1999/xlink" viewBox="0 0 360 240"><defs><linearGradient id="linear-gradient" y1="30" x2="120" y2="30" gradientUnits="userSpaceOnUse"><stop offset="0" stop-color="#b30469"/><stop offset="0.13" stop-color="#c11e5b"/><stop offset="0.42" stop-color="#db5142"/><stop offset="0.67" stop-color="#ef752f"/><stop offset="0.87" stop-color="#fb8c23"/><stop offset="1" stop-color="#ff941f"/></linearGradient><linearGradient id="linear-gradient-2" x1="202" y1="-234" x2="322" y2="-234" gradientTransform="translate(322 -204) rotate(180)" xlink:href="#linear-gradient"/><linearGradient id="linear-gradient-3" x1="24" x2="144" gradientTransform="matrix(-1, 0, 0, 1, 264, 0)" xlink:href="#linear-gradient"/><linearGradient id="linear-gradient-4" x1="178" y1="-234" x2="298" y2="-234" gradientTransform="matrix(1, 0, 0, -1, -58, -204)" xlink:href="#linear-gradient"/><linearGradient id="linear-gradient-5" y1="-74" y2="-74" gradientTransform="matrix(1, 0, 0, -1, 0, 16)" xlink:href="#linear-gradient"/><linearGradient id="linear-gradient-6" x1="202" y1="-130" x2="322" y2="-130" gradientTransform="matrix(-1, 0, 0, 1, 322, 220)" xlink:href="#linear-gradient"/><linearGradient id="linear-gradient-7" x1="240" x2="360" xlink:href="#linear-gradient"/><linearGradient id="linear-gradient-8" x1="-38" y1="-234" x2="82" y2="-234" gradientTransform="translate(322 -204) rotate(180)" xlink:href="#linear-gradient"/><linearGradient id="linear-gradient-9" x1="240" y1="-74" x2="360" y2="-74" gradientTransform="matrix(1, 0, 0, -1, 0, 16)" xlink:href="#linear-gradient"/><linearGradient id="linear-gradient-10" x1="-38" y1="-130" x2="82" y2="-130" gradientTransform="matrix(-1, 0, 0, 1, 322, 220)" xlink:href="#linear-gradient"/><linearGradient id="linear-gradient-11" x1="24" y1="-74" x2="144" y2="-74" gradientTransform="translate(264 16) rotate(180)" xlink:href="#linear-gradient"/><linearGradient id="linear-gradient-12" x1="178" y1="-130" x2="298" y2="-130" gradientTransform="translate(-58 220)" xlink:href="#linear-gradient"/><linearGradient id="linear-gradient-13" y1="150" y2="150" xlink:href="#linear-gradient"/><linearGradient id="linear-gradient-14" x1="202" y1="-354" x2="322" y2="-354" gradientTransform="translate(322 -204) rotate(180)" xlink:href="#linear-gradient"/><linearGradient id="linear-gradient-15" x1="24" y1="150" x2="144" y2="150" gradientTransform="matrix(-1, 0, 0, 1, 264, 0)" xlink:href="#linear-gradient"/><linearGradient id="linear-gradient-16" x1="178" y1="-354" x2="298" y2="-354" gradientTransform="matrix(1, 0, 0, -1, -58, -204)" xlink:href="#linear-gradient"/><linearGradient id="linear-gradient-17" y1="-194" y2="-194" gradientTransform="matrix(1, 0, 0, -1, 0, 16)" xlink:href="#linear-gradient"/><linearGradient id="linear-gradient-18" x1="202" y1="-10" x2="322" y2="-10" gradientTransform="matrix(-1, 0, 0, 1, 322, 220)" xlink:href="#linear-gradient"/><linearGradient id="linear-gradient-19" x1="240" y1="150" x2="360" y2="150" xlink:href="#linear-gradient"/><linearGradient id="linear-gradient-20" x1="-38" y1="-354" x2="82" y2="-354" gradientTransform="translate(322 -204) rotate(180)" xlink:href="#linear-gradient"/><linearGradient id="linear-gradient-21" x1="240" y1="-194" x2="360" y2="-194" gradientTransform="matrix(1, 0, 0, -1, 0, 16)" xlink:href="#linear-gradient"/><linearGradient id="linear-gradient-22" x1="-38" y1="-10" x2="82" y2="-10" gradientTransform="matrix(-1, 0, 0, 1, 322, 220)" xlink:href="#linear-gradient"/><linearGradient id="linear-gradient-23" x1="24" y1="-194" x2="144" y2="-194" gradientTransform="translate(264 16) rotate(180)" xlink:href="#linear-gradient"/><linearGradient id="linear-gradient-24" x1="178" y1="-10" x2="298" y2="-10" gradientTransform="translate(-58 220)" xlink:href="#linear-gradient"/></defs><title>cmm</title><polygon points="120 60 0 60 0 0 120 60" stroke="#fff" stroke-miterlimit="10" fill="url(#linear-gradient)"/><path d="M57.2,39.7c-.8-.5-2,0-3.4.8-8.9,5-16.3,4.6-21.5.9C29,39.1,27.6,35.6,30,28.5c.7-2.1-1.1-4.8-3.2-6.2a9.5,9.5,0,0,0-13,2.4C9.3,31.1,12,40.4,21.3,46.9c13.2,9.4,30.2,2.9,35.2-4.2C57.3,41.5,58.1,40.4,57.2,39.7Z" fill="#fff" opacity="0.5"/><polygon points="0 0 120 0 120 60 0 0" stroke="#fff" stroke-miterlimit="10" fill="url(#linear-gradient-2)"/><path d="M62.8,20.3c.8.5,2,0,3.4-.8,8.9-5,16.3-4.6,21.5-.9,3.3,2.3,4.7,5.8,2.3,12.9-.7,2.1,1.1,4.8,3.2,6.2a9.5,9.5,0,0,0,13-2.4c4.5-6.4,1.8-15.7-7.5-22.2-13.2-9.4-30.2-2.9-35.2,4.2C62.7,18.5,61.9,19.6,62.8,20.3Z" fill="#fff" opacity="0.5"/><polygon points="120 60 240 60 240 0 120 60" stroke="#fff" stroke-miterlimit="10" fill="url(#linear-gradient-3)"/><path d="M182.8,39.7c.8-.5,2,0,3.4.8,8.9,5,16.3,4.6,21.5.9,3.3-2.3,4.7-5.8,2.3-12.9-.7-2.1,1.1-4.8,3.2-6.2a9.5,9.5,0,0,1,13,2.4c4.5,6.4,1.8,15.7-7.5,22.2-13.2,9.4-30.2,2.9-35.2-4.2C182.7,41.5,181.9,40.4,182.8,39.7Z" fill="#fff" opacity="0.5"/><polygon points="240 0 120 0 120 60 240 0" stroke="#fff" stroke-miterlimit="10" fill="url(#linear-gradient-4)"/><path d="M177.2,20.3c-.8.5-2,0-3.4-.8-8.9-5-16.3-4.6-21.5-.9-3.3,2.3-4.7,5.8-2.3,12.9.7,2.1-1.1,4.8-3.2,6.2a9.5,9.5,0,0,1-13-2.4c-4.5-6.4-1.8-15.7,7.5-22.2,13.2-9.4,30.2-2.9,35.2,4.2C177.3,18.5,178.1,19.6,177.2,20.3Z" fill="#fff" opacity="0.5"/><polygon points="120 60 0 60 0 120 120 60" stroke="#fff" stroke-miterlimit="10" fill="url(#linear-gradient-5)"/><path d="M57.2,80.3c-.8.5-2,0-3.4-.8-8.9-5-16.3-4.6-21.5-.9C29,80.9,27.6,84.4,30,91.5c.7,2.1-1.1,4.8-3.2,6.2a9.5,9.5,0,0,1-13-2.4C9.3,88.9,12,79.6,21.3,73.1c13.2-9.4,30.2-2.9,35.2,4.2C57.3,78.5,58.1,79.6,57.2,80.3Z" fill="#fff" opacity="0.5"/><polygon points="0 120 120 120 120 60 0 120" stroke="#fff" stroke-miterlimit="10" fill="url(#linear-gradient-6)"/><path d="M62.8,99.7c.8-.5,2,0,3.4.8,8.9,5,16.3,4.6,21.5.9,3.3-2.3,4.7-5.8,2.3-12.9-.7-2.1,1.1-4.8,3.2-6.2a9.5,9.5,0,0,1,13,2.4c4.5,6.4,1.8,15.7-7.5,22.2-13.2,9.4-30.2,2.9-35.2-4.2C62.7,101.5,61.9,100.4,62.8,99.7Z" fill="#fff" opacity="0.5"/><polygon points="360 60 240 60 240 0 360 60" stroke="#fff" stroke-miterlimit="10" fill="url(#linear-gradient-7)"/><path d="M297.2,39.7c-.8-.5-2,0-3.4.8-8.9,5-16.3,4.6-21.5.9-3.3-2.3-4.7-5.8-2.3-12.9.7-2.1-1.1-4.8-3.2-6.2a9.5,9.5,0,0,0-13,2.4c-4.5,6.4-1.8,15.7,7.5,22.2,13.2,9.4,30.2,2.9,35.2-4.2C297.3,41.5,298.1,40.4,297.2,39.7Z" fill="#fff" opacity="0.5"/><polygon points="240 0 360 0 360 60 240 0" stroke="#fff" stroke-miterlimit="10" fill="url(#linear-gradient-8)"/><path d="M302.8,20.3c.8.5,2,0,3.4-.8,8.9-5,16.3-4.6,21.5-.9,3.3,2.3,4.7,5.8,2.3,12.9-.7,2.1,1.1,4.8,3.2,6.2a9.5,9.5,0,0,0,13-2.4c4.5-6.4,1.8-15.7-7.5-22.2-13.2-9.4-30.2-2.9-35.2,4.2C302.7,18.5,301.9,19.6,302.8,20.3Z" fill="#fff" opacity="0.5"/><polygon points="360 60 240 60 240 120 360 60" stroke="#fff" stroke-miterlimit="10" fill="url(#linear-gradient-9)"/><path d="M297.2,80.3c-.8.5-2,0-3.4-.8-8.9-5-16.3-4.6-21.5-.9-3.3,2.3-4.7,5.8-2.3,12.9.7,2.1-1.1,4.8-3.2,6.2a9.5,9.5,0,0,1-13-2.4c-4.5-6.4-1.8-15.7,7.5-22.2,13.2-9.4,30.2-2.9,35.2,4.2C297.3,78.5,298.1,79.6,297.2,80.3Z" fill="#fff" opacity="0.5"/><polygon points="240 120 360 120 360 60 240 120" stroke="#fff" stroke-miterlimit="10" fill="url(#linear-gradient-10)"/><path d="M302.8,99.7c.8-.5,2,0,3.4.8,8.9,5,16.3,4.6,21.5.9,3.3-2.3,4.7-5.8,2.3-12.9-.7-2.1,1.1-4.8,3.2-6.2a9.5,9.5,0,0,1,13,2.4c4.5,6.4,1.8,15.7-7.5,22.2-13.2,9.4-30.2,2.9-35.2-4.2C302.7,101.5,301.9,100.4,302.8,99.7Z" fill="#fff" opacity="0.5"/><polygon points="120 60 240 60 240 120 120 60" stroke="#fff" stroke-miterlimit="10" fill="url(#linear-gradient-11)"/><path d="M182.8,80.3c.8.5,2,0,3.4-.8,8.9-5,16.3-4.6,21.5-.9,3.3,2.3,4.7,5.8,2.3,12.9-.7,2.1,1.1,4.8,3.2,6.2a9.5,9.5,0,0,0,13-2.4c4.5-6.4,1.8-15.7-7.5-22.2-13.2-9.4-30.2-2.9-35.2,4.2C182.7,78.5,181.9,79.6,182.8,80.3Z" fill="#fff" opacity="0.5"/><polygon points="240 120 120 120 120 60 240 120" stroke="#fff" stroke-miterlimit="10" fill="url(#linear-gradient-12)"/><path d="M177.2,99.7c-.8-.5-2,0-3.4.8-8.9,5-16.3,4.6-21.5.9-3.3-2.3-4.7-5.8-2.3-12.9.7-2.1-1.1-4.8-3.2-6.2a9.5,9.5,0,0,0-13,2.4c-4.5,6.4-1.8,15.7,7.5,22.2,13.2,9.4,30.2,2.9,35.2-4.2C177.3,101.5,178.1,100.4,177.2,99.7Z" fill="#fff" opacity="0.5"/><polygon points="120 180 0 180 0 120 120 180" stroke="#fff" stroke-miterlimit="10" fill="url(#linear-gradient-13)"/><path d="M57.2,159.7c-.8-.5-2,0-3.4.8-8.9,5-16.3,4.6-21.5.9-3.3-2.3-4.7-5.8-2.3-12.9.7-2.1-1.1-4.8-3.2-6.2a9.5,9.5,0,0,0-13,2.4c-4.5,6.4-1.8,15.7,7.5,22.2,13.2,9.4,30.2,2.9,35.2-4.2C57.3,161.5,58.1,160.4,57.2,159.7Z" fill="#fff" opacity="0.5"/><polygon points="0 120 120 120 120 180 0 120" stroke="#fff" stroke-miterlimit="10" fill="url(#linear-gradient-14)"/><path d="M62.8,140.3c.8.5,2,0,3.4-.8,8.9-5,16.3-4.6,21.5-.9,3.3,2.3,4.7,5.8,2.3,12.9-.7,2.1,1.1,4.8,3.2,6.2a9.5,9.5,0,0,0,13-2.4c4.5-6.4,1.8-15.7-7.5-22.2-13.2-9.4-30.2-2.9-35.2,4.2C62.7,138.5,61.9,139.6,62.8,140.3Z" fill="#fff" opacity="0.5"/><polygon points="120 180 240 180 240 120 120 180" stroke="#fff" stroke-miterlimit="10" fill="url(#linear-gradient-15)"/><path d="M182.8,159.7c.8-.5,2,0,3.4.8,8.9,5,16.3,4.6,21.5.9,3.3-2.3,4.7-5.8,2.3-12.9-.7-2.1,1.1-4.8,3.2-6.2a9.5,9.5,0,0,1,13,2.4c4.5,6.4,1.8,15.7-7.5,22.2-13.2,9.4-30.2,2.9-35.2-4.2C182.7,161.5,181.9,160.4,182.8,159.7Z" fill="#fff" opacity="0.5"/><polygon points="240 120 120 120 120 180 240 120" stroke="#fff" stroke-miterlimit="10" fill="url(#linear-gradient-16)"/><path d="M177.2,140.3c-.8.5-2,0-3.4-.8-8.9-5-16.3-4.6-21.5-.9-3.3,2.3-4.7,5.8-2.3,12.9.7,2.1-1.1,4.8-3.2,6.2a9.5,9.5,0,0,1-13-2.4c-4.5-6.4-1.8-15.7,7.5-22.2,13.2-9.4,30.2-2.9,35.2,4.2C177.3,138.5,178.1,139.6,177.2,140.3Z" fill="#fff" opacity="0.5"/><polygon points="120 180 0 180 0 240 120 180" stroke="#fff" stroke-miterlimit="10" fill="url(#linear-gradient-17)"/><path d="M57.2,200.3c-.8.5-2,0-3.4-.8-8.9-5-16.3-4.6-21.5-.9-3.3,2.3-4.7,5.8-2.3,12.9.7,2.1-1.1,4.8-3.2,6.2a9.5,9.5,0,0,1-13-2.4c-4.5-6.4-1.8-15.7,7.5-22.2,13.2-9.4,30.2-2.9,35.2,4.2C57.3,198.5,58.1,199.6,57.2,200.3Z" fill="#fff" opacity="0.5"/><polygon points="0 240 120 240 120 180 0 240" stroke="#fff" stroke-miterlimit="10" fill="url(#linear-gradient-18)"/><path d="M62.8,219.7c.8-.5,2,0,3.4.8,8.9,5,16.3,4.6,21.5.9,3.3-2.3,4.7-5.8,2.3-12.9-.7-2.1,1.1-4.8,3.2-6.2a9.5,9.5,0,0,1,13,2.4c4.5,6.4,1.8,15.7-7.5,22.2-13.2,9.4-30.2,2.9-35.2-4.2C62.7,221.5,61.9,220.4,62.8,219.7Z" fill="#fff" opacity="0.5"/><polygon points="360 180 240 180 240 120 360 180" stroke="#fff" stroke-miterlimit="10" fill="url(#linear-gradient-19)"/><path d="M297.2,159.7c-.8-.5-2,0-3.4.8-8.9,5-16.3,4.6-21.5.9-3.3-2.3-4.7-5.8-2.3-12.9.7-2.1-1.1-4.8-3.2-6.2a9.5,9.5,0,0,0-13,2.4c-4.5,6.4-1.8,15.7,7.5,22.2,13.2,9.4,30.2,2.9,35.2-4.2C297.3,161.5,298.1,160.4,297.2,159.7Z" fill="#fff" opacity="0.5"/><polygon points="240 120 360 120 360 180 240 120" stroke="#fff" stroke-miterlimit="10" fill="url(#linear-gradient-20)"/><path d="M302.8,140.3c.8.5,2,0,3.4-.8,8.9-5,16.3-4.6,21.5-.9,3.3,2.3,4.7,5.8,2.3,12.9-.7,2.1,1.1,4.8,3.2,6.2a9.5,9.5,0,0,0,13-2.4c4.5-6.4,1.8-15.7-7.5-22.2-13.2-9.4-30.2-2.9-35.2,4.2C302.7,138.5,301.9,139.6,302.8,140.3Z" fill="#fff" opacity="0.5"/><polygon points="360 180 240 180 240 240 360 180" stroke="#fff" stroke-miterlimit="10" fill="url(#linear-gradient-21)"/><path d="M297.2,200.3c-.8.5-2,0-3.4-.8-8.9-5-16.3-4.6-21.5-.9-3.3,2.3-4.7,5.8-2.3,12.9.7,2.1-1.1,4.8-3.2,6.2a9.5,9.5,0,0,1-13-2.4c-4.5-6.4-1.8-15.7,7.5-22.2,13.2-9.4,30.2-2.9,35.2,4.2C297.3,198.5,298.1,199.6,297.2,200.3Z" fill="#fff" opacity="0.5"/><polygon points="240 240 360 240 360 180 240 240" stroke="#fff" stroke-miterlimit="10" fill="url(#linear-gradient-22)"/><path d="M302.8,219.7c.8-.5,2,0,3.4.8,8.9,5,16.3,4.6,21.5.9,3.3-2.3,4.7-5.8,2.3-12.9-.7-2.1,1.1-4.8,3.2-6.2a9.5,9.5,0,0,1,13,2.4c4.5,6.4,1.8,15.7-7.5,22.2-13.2,9.4-30.2,2.9-35.2-4.2C302.7,221.5,301.9,220.4,302.8,219.7Z" fill="#fff" opacity="0.5"/><polygon points="120 180 240 180 240 240 120 180" stroke="#fff" stroke-miterlimit="10" fill="url(#linear-gradient-23)"/><path d="M182.8,200.3c.8.5,2,0,3.4-.8,8.9-5,16.3-4.6,21.5-.9,3.3,2.3,4.7,5.8,2.3,12.9-.7,2.1,1.1,4.8,3.2,6.2a9.5,9.5,0,0,0,13-2.4c4.5-6.4,1.8-15.7-7.5-22.2-13.2-9.4-30.2-2.9-35.2,4.2C182.7,198.5,181.9,199.6,182.8,200.3Z" fill="#fff" opacity="0.5"/><polygon points="240 240 120 240 120 180 240 240" stroke="#fff" stroke-miterlimit="10" fill="url(#linear-gradient-24)"/><path d="M177.2,219.7c-.8-.5-2,0-3.4.8-8.9,5-16.3,4.6-21.5.9-3.3-2.3-4.7-5.8-2.3-12.9.7-2.1-1.1-4.8-3.2-6.2a9.5,9.5,0,0,0-13,2.4c-4.5,6.4-1.8,15.7,7.5,22.2,13.2,9.4,30.2,2.9,35.2-4.2C177.3,221.5,178.1,220.4,177.2,219.7Z" fill="#fff" opacity="0.5"/></svg>