<svg id="Layer_1" data-name="Layer 1" xmlns="http://www.w3.org/2000/svg" xmlns:xlink="http://www.w3.org/1999/xlink" viewBox="0 0 360 240"><defs><linearGradient id="linear-gradient" y1="30" x2="120" y2="30" gradientUnits="userSpaceOnUse"><stop offset="0" stop-color="#b30469"/><stop offset="1" stop-color="#ff941f"/></linearGradient><linearGradient id="linear-gradient-2" x1="90" y1="30" x2="210" y2="30" xlink:href="#linear-gradient"/><linearGradient id="linear-gradient-3" x1="180" y1="30" x2="300" y2="30" xlink:href="#linear-gradient"/><linearGradient id="linear-gradient-4" x1="270" y1="30" x2="390" y2="30" xlink:href="#linear-gradient"/><linearGradient id="linear-gradient-5" x1="-90" y1="30" x2="30" y2="30" xlink:href="#linear-gradient"/><linearGradient id="linear-gradient-6" x1="60" y1="90" x2="180" y2="90" xlink:href="#linear-gradient"/><linearGradient id="linear-gradient-7" x1="150" y1="90" x2="270" y2="90" xlink:href="#linear-gradient"/><linearGradient id="linear-gradient-8" x1="240" y1="90" x2="360" y2="90" xlink:href="#linear-gradient"/><linearGradient id="linear-gradient-9" x1="330" y1="90" x2="450" y2="90" xlink:href="#linear-gradient"/><linearGradient id="linear-gradient-10" x1="-30" y1="90" x2="90" y2="90" xlink:href="#linear-gradient"/><linearGradient id="linear-gradient-11" x1="30" y1="150" x2="150" y2="150" xlink:href="#linear-gradient"/><linearGradient id="linear-gradient-12" x1="120" y1="150" x2="240" y2="150" xlink:href="#linear-gradient"/><linearGradient id="linear-gradient-13" x1="210" y1="150" x2="330" y2="150" xlink:href="#linear-gradient"/><linearGradient id="linear-gradient-14" x1="300" y1="150" x2="420" y2="150" xlink:href="#linear-gradient"/><linearGradient id="linear-gradient-15" x1="-60" y1="150" x2="60" y2="150" xlink:href="#linear-gradient"/><linearGradient id="linear-gradient-16" y1="210" y2="210" xlink:href="#linear-gradient"/><linearGradient id="linear-gradient-17" x1="90" y1="210" x2="210" y2="210" xlink:href="#linear-gradient"/><linearGradient id="linear-gradient-18" x1="180" y1="210" x2="300" y2="210" xlink:href="#linear-gradient"/><linearGradient id="linear-gradient-19" x1="270" y1="210" x2="390" y2="210" xlink:href="#linear-gradient"/><linearGradient id="linear-gradient-20" x1="-90" y1="210" x2="30" y2="210" xlink:href="#linear-gradient"/></defs><title>p1</title><polygon points="90 60 0 60 30 0 120 0 90 60" stroke="#fff" stroke-miterlimit="10" fill="url(#linear-gradient)"/><path d="M79.4,18.3c-2.9-3.9-9-5.2-13.1-2.1-2,1.5-3.8,4.2-3.1,6.3,2.6,7,1.2,10.6-1.9,12.9-5.2,3.8-12.6,4.4-21.6-.4-1.4-.7-2.6-1.2-3.4-.7s-.1,1.8.8,2.9c5.2,7.1,22.3,13.1,35.3,3.5C81.5,34,84.1,24.6,79.4,18.3Z" fill="#fff" opacity="0.5"/><polygon points="180 60 90 60 120 0 210 0 180 60" stroke="#fff" stroke-miterlimit="10" fill="url(#linear-gradient-2)"/><path d="M169.4,18.3c-2.9-3.9-9-5.2-13.1-2.1-2,1.5-3.8,4.2-3.1,6.3,2.6,7,1.2,10.6-1.9,12.9-5.2,3.8-12.6,4.4-21.6-.4-1.4-.7-2.6-1.2-3.4-.7s-.1,1.8.8,2.9c5.2,7.1,22.3,13.1,35.3,3.5C171.5,34,174.1,24.6,169.4,18.3Z" fill="#fff" opacity="0.5"/><polygon points="270 60 180 60 210 0 300 0 270 60" stroke="#fff" stroke-miterlimit="10" fill="url(#linear-gradient-3)"/><path d="M259.4,18.3c-2.9-3.9-9-5.2-13.1-2.1-2,1.5-3.8,4.2-3.1,6.3,2.6,7,1.2,10.6-1.9,12.9-5.2,3.8-12.6,4.4-21.6-.4-1.4-.7-2.6-1.2-3.4-.7s-.1,1.8.8,2.9c5.2,7.1,22.3,13.1,35.3,3.5C261.5,34,264.1,24.6,259.4,18.3Z" fill="#fff" opacity="0.5"/><polygon points="360 60 270 60 300 0 390 0 360 60" stroke="#fff" stroke-miterlimit="10" fill="url(#linear-gradient-4)"/><path d="M349.4,18.3c-2.9-3.9-9-5.2-13.1-2.1-2,1.5-3.8,4.2-3.1,6.3,2.6,7,1.2,10.6-1.9,12.9-5.2,3.8-12.6,4.4-21.6-.4-1.4-.7-2.6-1.2-3.4-.7s-.1,1.8.8,2.9c5.2,7.1,22.3,13.1,35.3,3.5C351.5,34,354.1,24.6,349.4,18.3Z" fill="#fff" opacity="0.5"/><polygon points="0 60 -90 60 -60 0 30 0 0 60" stroke="#fff" stroke-miterlimit="10" fill="url(#linear-gradient-5)"/><polygon points="150 120 60 120 90 60 180 60 150 120" stroke="#fff" stroke-miterlimit="10" fill="url(#linear-gradient-6)"/><path d="M139.4,78.3c-2.9-3.9-9-5.2-13.1-2.1-2,1.5-3.8,4.2-3.1,6.3,2.6,7,1.2,10.6-1.9,12.9-5.2,3.8-12.6,4.4-21.6-.4-1.4-.7-2.6-1.2-3.4-.7s-.1,1.8.8,2.9c5.2,7.1,22.3,13.1,35.3,3.5C141.5,94,144.1,84.6,139.4,78.3Z" fill="#fff" opacity="0.5"/><polygon points="240 120 150 120 180 60 270 60 240 120" stroke="#fff" stroke-miterlimit="10" fill="url(#linear-gradient-7)"/><path d="M229.4,78.3c-2.9-3.9-9-5.2-13.1-2.1-2,1.5-3.8,4.2-3.1,6.3,2.6,7,1.2,10.6-1.9,12.9-5.2,3.8-12.6,4.4-21.6-.4-1.4-.7-2.6-1.2-3.4-.7s-.1,1.8.8,2.9c5.2,7.1,22.3,13.1,35.3,3.5C231.5,94,234.1,84.6,229.4,78.3Z" fill="#fff" opacity="0.5"/><polygon points="330 120 240 120 270 60 360 60 330 120" stroke="#fff" stroke-miterlimit="10" fill="url(#linear-gradient-8)"/><path d="M319.4,78.3c-2.9-3.9-9-5.2-13.1-2.1-2,1.5-3.8,4.2-3.1,6.3,2.6,7,1.2,10.6-1.9,12.9-5.2,3.8-12.6,4.4-21.6-.4-1.4-.7-2.6-1.2-3.4-.7s-.1,1.8.8,2.9c5.2,7.1,22.3,13.1,35.3,3.5C321.5,94,324.1,84.6,319.4,78.3Z" fill="#fff" opacity="0.5"/><polygon points="420 120 330 120 360 60 450 60 420 120" stroke="#fff" stroke-miterlimit="10" fill="url(#linear-gradient-9)"/><polygon points="60 120 -30 120 0 60 90 60 60 120" stroke="#fff" stroke-miterlimit="10" fill="url(#linear-gradient-10)"/><path d="M49.4,78.3c-2.9-3.9-9-5.2-13.1-2.1-2,1.5-3.8,4.2-3.1,6.3,2.6,7,1.2,10.6-1.9,12.9-5.2,3.8-12.6,4.4-21.6-.4-1.4-.7-2.6-1.2-3.4-.7s-.1,1.8.8,2.9c5.2,7.1,22.3,13.1,35.3,3.5C51.5,94,54.1,84.6,49.4,78.3Z" fill="#fff" opacity="0.5"/><polygon points="120 180 30 180 60 120 150 120 120 180" stroke="#fff" stroke-miterlimit="10" fill="url(#linear-gradient-11)"/><path d="M109.4,138.3c-2.9-3.9-9-5.2-13.1-2.1-2,1.5-3.8,4.2-3.1,6.3,2.6,7,1.2,10.6-1.9,12.9-5.2,3.8-12.6,4.4-21.6-.4-1.4-.7-2.6-1.2-3.4-.7s-.1,1.8.8,2.9c5.2,7.1,22.3,13.1,35.3,3.5C111.5,154,114.1,144.6,109.4,138.3Z" fill="#fff" opacity="0.5"/><polygon points="210 180 120 180 150 120 240 120 210 180" stroke="#fff" stroke-miterlimit="10" fill="url(#linear-gradient-12)"/><path d="M199.4,138.3c-2.9-3.9-9-5.2-13.1-2.1-2,1.5-3.8,4.2-3.1,6.3,2.6,7,1.2,10.6-1.9,12.9-5.2,3.8-12.6,4.4-21.6-.4-1.4-.7-2.6-1.2-3.4-.7s-.1,1.8.8,2.9c5.2,7.1,22.3,13.1,35.3,3.5C201.5,154,204.1,144.6,199.4,138.3Z" fill="#fff" opacity="0.5"/><polygon points="300 180 210 180 240 120 330 120 300 180" stroke="#fff" stroke-miterlimit="10" fill="url(#linear-gradient-13)"/><path d="M289.4,138.3c-2.9-3.9-9-5.2-13.1-2.1-2,1.5-3.8,4.2-3.1,6.3,2.6,7,1.2,10.6-1.9,12.9-5.2,3.8-12.6,4.4-21.6-.4-1.4-.7-2.6-1.2-3.4-.7s-.1,1.8.8,2.9c5.2,7.1,22.3,13.1,35.3,3.5C291.5,154,294.1,144.6,289.4,138.3Z" fill="#fff" opacity="0.5"/><polygon points="390 180 300 180 330 120 420 120 390 180" stroke="#fff" stroke-miterlimit="10" fill="url(#linear-gradient-14)"/><path d="M379.4,138.3c-2.9-3.9-9-5.2-13.1-2.1-2,1.5-3.8,4.2-3.1,6.3,2.6,7,1.2,10.6-1.9,12.9-5.2,3.8-12.6,4.4-21.6-.4-1.4-.7-2.6-1.2-3.4-.7s-.1,1.8.8,2.9c5.2,7.1,22.3,13.1,35.3,3.5C381.5,154,384.1,144.6,379.4,138.3Z" fill="#fff" opacity="0.5"/><polygon points="30 180 -60 180 -30 120 60 120 30 180" stroke="#fff" stroke-miterlimit="10" fill="url(#linear-gradient-15)"/><path d="M19.4,138.3c-2.9-3.9-9-5.2-13.1-2.1-2,1.5-3.8,4.2-3.1,6.3,2.6,7,1.2,10.6-1.9,12.9-5.2,3.8-12.6,4.4-21.6-.4-1.4-.7-2.6-1.2-3.4-.7s-.1,1.8.8,2.9c5.2,7.1,22.3,13.1,35.3,3.5C21.5,154,24.1,144.6,19.4,138.3Z" fill="#fff" opacity="0.5"/><polygon points="90 240 0 240 30 180 120 180 90 240" stroke="#fff" stroke-miterlimit="10" fill="url(#linear-gradient-16)"/><path d="M79.4,198.3c-2.9-3.9-9-5.2-13.1-2.1-2,1.5-3.8,4.2-3.1,6.3,2.6,7,1.2,10.6-1.9,12.9-5.2,3.8-12.6,4.4-21.6-.4-1.4-.7-2.6-1.2-3.4-.7s-.1,1.8.8,2.9c5.2,7.1,22.3,13.1,35.3,3.5C81.5,214,84.1,204.6,79.4,198.3Z" fill="#fff" opacity="0.5"/><polygon points="180 240 90 240 120 180 210 180 180 240" stroke="#fff" stroke-miterlimit="10" fill="url(#linear-gradient-17)"/><path d="M169.4,198.3c-2.9-3.9-9-5.2-13.1-2.1-2,1.5-3.8,4.2-3.1,6.3,2.6,7,1.2,10.6-1.9,12.9-5.2,3.8-12.6,4.4-21.6-.4-1.4-.7-2.6-1.2-3.4-.7s-.1,1.8.8,2.9c5.2,7.1,22.3,13.1,35.3,3.5C171.5,214,174.1,204.6,169.4,198.3Z" fill="#fff" opacity="0.5"/><polygon points="270 240 180 240 210 180 300 180 270 240" stroke="#fff" stroke-miterlimit="10" fill="url(#linear-gradient-18)"/><path d="M259.4,198.3c-2.9-3.9-9-5.2-13.1-2.1-2,1.5-3.8,4.2-3.1,6.3,2.6,7,1.2,10.6-1.9,12.9-5.2,3.8-12.6,4.4-21.6-.4-1.4-.7-2.6-1.2-3.4-.7s-.1,1.8.8,2.9c5.2,7.1,22.3,13.1,35.3,3.5C261.5,214,264.1,204.6,259.4,198.3Z" fill="#fff" opacity="0.5"/><polygon points="360 240 270 240 300 180 390 180 360 240" stroke="#fff" stroke-miterlimit="10" fill="url(#linear-gradient-19)"/><path d="M349.4,198.3c-2.9-3.9-9-5.2-13.1-2.1-2,1.5-3.8,4.2-3.1,6.3,2.6,7,1.2,10.6-1.9,12.9-5.2,3.8-12.6,4.4-21.6-.4-1.4-.7-2.6-1.2-3.4-.7s-.1,1.8.8,2.9c5.2,7.1,22.3,13.1,35.3,3.5C351.5,214,354.1,204.6,349.4,198.3Z" fill="#fff" opacity="0.5"/><polygon points="0 240 -90 240 -60 180 30 180 0 240" stroke="#fff" stroke-miterlimit="10" fill="url(#linear-gradient-20)"/></svg>