<svg id="Layer_1" data-name="Layer 1" xmlns="http://www.w3.org/2000/svg" xmlns:xlink="http://www.w3.org/1999/xlink" viewBox="0 0 360 240"><defs><linearGradient id="linear-gradient" x1="104.62" y1="90" x2="208.55" y2="90" gradientUnits="userSpaceOnUse"><stop offset="0" stop-color="#ff941f"/><stop offset="1" stop-color="#31b304"/></linearGradient><linearGradient id="linear-gradient-2" x1="104.62" y1="210" x2="208.55" y2="210" xlink:href="#linear-gradient"/><linearGradient id="linear-gradient-3" x1="0.7" y1="30" x2="104.62" y2="30" xlink:href="#linear-gradient"/><linearGradient id="linear-gradient-4" x1="0.7" y1="150" x2="104.62" y2="150" xlink:href="#linear-gradient"/><linearGradient id="linear-gradient-5" x1="110.1" y1="-46.57" x2="214.02" y2="-46.57" gradientTransform="translate(145.3 -103.6) rotate(120)" xlink:href="#linear-gradient"/><linearGradient id="linear-gradient-6" x1="110.1" y1="-166.57" x2="214.02" y2="-166.57" gradientTransform="translate(145.3 -103.6) rotate(120)" xlink:href="#linear-gradient"/><linearGradient id="linear-gradient-7" x1="6.17" y1="-106.57" x2="110.1" y2="-106.57" gradientTransform="translate(145.3 -103.6) rotate(120)" xlink:href="#linear-gradient"/><linearGradient id="linear-gradient-8" x1="214.02" y1="-226.57" x2="317.94" y2="-226.57" gradientTransform="translate(145.3 -103.6) rotate(120)" xlink:href="#linear-gradient"/><linearGradient id="linear-gradient-9" x1="214.02" y1="13.43" x2="317.94" y2="13.43" gradientTransform="translate(145.3 -103.6) rotate(120)" xlink:href="#linear-gradient"/><linearGradient id="linear-gradient-10" x1="110.1" y1="73.43" x2="214.02" y2="73.43" gradientTransform="translate(145.3 -103.6) rotate(120)" xlink:href="#linear-gradient"/><linearGradient id="linear-gradient-11" x1="317.94" y1="-46.57" x2="421.86" y2="-46.57" gradientTransform="translate(145.3 -103.6) rotate(120)" xlink:href="#linear-gradient"/><linearGradient id="linear-gradient-12" x1="214.02" y1="-106.57" x2="317.94" y2="-106.57" gradientTransform="translate(145.3 -103.6) rotate(120)" xlink:href="#linear-gradient"/><linearGradient id="linear-gradient-13" x1="-74.25" y1="83.71" x2="29.67" y2="83.71" gradientTransform="translate(-31 112.5) rotate(-120)" xlink:href="#linear-gradient"/><linearGradient id="linear-gradient-14" x1="-178.18" y1="23.71" x2="-74.25" y2="23.71" gradientTransform="translate(-31 112.5) rotate(-120)" xlink:href="#linear-gradient"/><linearGradient id="linear-gradient-15" x1="-74.25" y1="203.71" x2="29.67" y2="203.71" gradientTransform="translate(-31 112.5) rotate(-120)" xlink:href="#linear-gradient"/><linearGradient id="linear-gradient-16" x1="-178.18" y1="143.71" x2="-74.25" y2="143.71" gradientTransform="translate(-31 112.5) rotate(-120)" xlink:href="#linear-gradient"/><linearGradient id="linear-gradient-17" x1="312.47" y1="90" x2="416.39" y2="90" xlink:href="#linear-gradient"/><linearGradient id="linear-gradient-18" x1="312.47" y1="210" x2="416.39" y2="210" xlink:href="#linear-gradient"/><linearGradient id="linear-gradient-19" x1="208.55" y1="30" x2="312.47" y2="30" xlink:href="#linear-gradient"/><linearGradient id="linear-gradient-20" x1="208.55" y1="150" x2="312.47" y2="150" xlink:href="#linear-gradient"/><linearGradient id="linear-gradient-21" x1="6.17" y1="-226.57" x2="110.1" y2="-226.57" gradientTransform="translate(145.3 -103.6) rotate(120)" xlink:href="#linear-gradient"/><linearGradient id="linear-gradient-22" x1="110.1" y1="-286.57" x2="214.02" y2="-286.57" gradientTransform="translate(145.3 -103.6) rotate(120)" xlink:href="#linear-gradient"/><linearGradient id="linear-gradient-23" x1="-178.18" y1="263.71" x2="-74.25" y2="263.71" gradientTransform="translate(-31 112.5) rotate(-120)" xlink:href="#linear-gradient"/><linearGradient id="linear-gradient-24" x1="-282.1" y1="203.71" x2="-178.18" y2="203.71" gradientTransform="translate(-31 112.5) rotate(-120)" xlink:href="#linear-gradient"/><linearGradient id="linear-gradient-25" x1="-178.18" y1="383.71" x2="-74.25" y2="383.71" gradientTransform="translate(-31 112.5) rotate(-120)" xlink:href="#linear-gradient"/><linearGradient id="linear-gradient-26" x1="-282.1" y1="323.71" x2="-178.18" y2="323.71" gradientTransform="translate(-31 112.5) rotate(-120)" xlink:href="#linear-gradient"/></defs><title>p3</title><polygon points="139.3 60 104.6 120 173.9 120 208.5 60 139.3 60" stroke="#fff" stroke-miterlimit="10" fill="url(#linear-gradient)"/><path d="M174.9,78.2a9.7,9.7,0,0,0-13.1-2.1c-2,1.5-3.8,4.2-3.1,6.3,2.6,7,1.2,10.6-1.9,12.9-5.2,3.9-12.6,4.4-21.6-.4-1.4-.7-2.6-1.2-3.4-.7s-.1,1.8.8,2.9c5.2,7.1,22.3,13.1,35.3,3.5C177,93.9,179.5,84.5,174.9,78.2Z" fill="#fff" opacity="0.5"/><polygon points="139.3 180 104.6 240 173.9 240 208.5 180 139.3 180" stroke="#fff" stroke-miterlimit="10" fill="url(#linear-gradient-2)"/><path d="M174.9,198.2a9.7,9.7,0,0,0-13.1-2.1c-2,1.5-3.8,4.2-3.1,6.3,2.6,7,1.2,10.6-1.9,12.9-5.2,3.9-12.6,4.4-21.6-.4-1.4-.7-2.6-1.2-3.4-.7s-.1,1.8.8,2.9c5.2,7.1,22.3,13.1,35.3,3.5C177,213.9,179.5,204.5,174.9,198.2Z" fill="#fff" opacity="0.5"/><polygon points="35.3 0 0.7 60 70 60 104.6 0 35.3 0" stroke="#fff" stroke-miterlimit="10" fill="url(#linear-gradient-3)"/><path d="M70.9,18.2a9.6,9.6,0,0,0-13-2.1c-2.1,1.5-3.8,4.2-3.1,6.3,2.6,7,1.2,10.6-1.9,12.9-5.2,3.9-12.6,4.4-21.6-.4-1.4-.7-2.6-1.2-3.4-.7s-.1,1.8.7,2.9C33.9,44.2,51,50.2,64,40.6,73.1,33.9,75.6,24.5,70.9,18.2Z" fill="#fff" opacity="0.5"/><polygon points="35.3 120 0.7 180 70 180 104.6 120 35.3 120" stroke="#fff" stroke-miterlimit="10" fill="url(#linear-gradient-4)"/><path d="M70.9,138.2a9.6,9.6,0,0,0-13-2.1c-2.1,1.5-3.8,4.2-3.1,6.3,2.6,7,1.2,10.6-1.9,12.9-5.2,3.9-12.6,4.4-21.6-.4-1.4-.7-2.6-1.2-3.4-.7s-.1,1.8.7,2.9c5.3,7.1,22.4,13.1,35.4,3.5C73.1,153.9,75.6,144.5,70.9,138.2Z" fill="#fff" opacity="0.5"/><polygon points="139.3 60 104.6 0 70 60 104.6 120 139.3 60" stroke="#fff" stroke-miterlimit="10" fill="url(#linear-gradient-5)"/><path d="M105.7,81.7a9.7,9.7,0,0,0,8.4-10.2c-.3-2.5-1.8-5.4-4-5.9-7.3-1.2-9.7-4.2-10.2-8.1-.7-6.4,2.5-13.1,11.2-18.5,1.3-.8,2.3-1.6,2.2-2.5s-1.5-1-2.8-.9c-8.8,1-22.5,12.8-20.7,28.9C91.1,75.7,97.9,82.6,105.7,81.7Z" fill="#fff" opacity="0.5"/><polygon points="243.2 120 208.5 60 173.9 120 208.5 180 243.2 120" stroke="#fff" stroke-miterlimit="10" fill="url(#linear-gradient-6)"/><path d="M209.6,141.7c4.8-.5,9-5.2,8.4-10.2-.3-2.5-1.8-5.4-3.9-5.9-7.4-1.2-9.8-4.2-10.3-8.1-.7-6.4,2.5-13.1,11.2-18.5,1.3-.8,2.4-1.6,2.3-2.5s-1.5-1-2.9-.9c-8.7,1-22.5,12.8-20.7,28.9C195,135.7,201.8,142.6,209.6,141.7Z" fill="#fff" opacity="0.5"/><polygon points="243.2 0 208.5 -60 173.9 0 208.5 60 243.2 0" stroke="#fff" stroke-miterlimit="10" fill="url(#linear-gradient-7)"/><path d="M209.6,21.7c4.8-.5,9-5.2,8.4-10.2-.3-2.5-1.8-5.4-3.9-5.9-7.4-1.2-9.8-4.2-10.3-8.1-.7-6.4,2.5-13.1,11.2-18.5,1.3-.8,2.4-1.6,2.3-2.5s-1.5-1-2.9-.9c-8.7,1-22.5,12.8-20.7,28.9C195,15.7,201.8,22.6,209.6,21.7Z" fill="#fff" opacity="0.5"/><polygon points="243.2 240 208.5 180 173.9 240 208.5 300 243.2 240" stroke="#fff" stroke-miterlimit="10" fill="url(#linear-gradient-8)"/><path d="M209.6,261.7c4.8-.5,9-5.2,8.4-10.2-.3-2.5-1.8-5.4-3.9-5.9-7.4-1.2-9.8-4.2-10.3-8.1-.7-6.4,2.5-13.1,11.2-18.5,1.3-.8,2.4-1.6,2.3-2.5s-1.5-1-2.9-.9c-8.7,1-22.5,12.8-20.7,28.9C195,255.7,201.8,262.6,209.6,261.7Z" fill="#fff" opacity="0.5"/><polygon points="35.3 120 0.7 60 -33.9 120 0.7 180 35.3 120" stroke="#fff" stroke-miterlimit="10" fill="url(#linear-gradient-9)"/><path d="M1.8,141.7a9.5,9.5,0,0,0,8.3-10.2c-.2-2.5-1.7-5.4-3.9-5.9-7.3-1.2-9.8-4.2-10.2-8.1-.7-6.4,2.5-13.1,11.1-18.5,1.3-.8,2.4-1.6,2.3-2.5s-1.5-1-2.9-.9c-8.7,1-22.5,12.8-20.6,28.9C-12.9,135.7-6,142.6,1.8,141.7Z" fill="#fff" opacity="0.5"/><polygon points="35.3 0 0.7 -60 -33.9 0 0.7 60 35.3 0" stroke="#fff" stroke-miterlimit="10" fill="url(#linear-gradient-10)"/><path d="M1.8,21.7a9.5,9.5,0,0,0,8.3-10.2C9.9,9,8.4,6.1,6.2,5.6-1.1,4.4-3.6,1.4-4-2.5-4.7-8.9-1.5-15.6,7.1-21c1.3-.8,2.4-1.6,2.3-2.5s-1.5-1-2.9-.9C-2.2-23.4-16-11.6-14.1,4.5-12.9,15.7-6,22.6,1.8,21.7Z" fill="#fff" opacity="0.5"/><polygon points="35.3 240 0.7 180 -33.9 240 0.7 300 35.3 240" stroke="#fff" stroke-miterlimit="10" fill="url(#linear-gradient-11)"/><path d="M1.8,261.7a9.5,9.5,0,0,0,8.3-10.2c-.2-2.5-1.7-5.4-3.9-5.9-7.3-1.2-9.8-4.2-10.2-8.1-.7-6.4,2.5-13.1,11.1-18.5,1.3-.8,2.4-1.6,2.3-2.5s-1.5-1-2.9-.9c-8.7,1-22.5,12.8-20.6,28.9C-12.9,255.7-6,262.6,1.8,261.7Z" fill="#fff" opacity="0.5"/><polygon points="139.3 180 104.6 120 70 180 104.6 240 139.3 180" stroke="#fff" stroke-miterlimit="10" fill="url(#linear-gradient-12)"/><path d="M105.7,201.7a9.7,9.7,0,0,0,8.4-10.2c-.3-2.5-1.8-5.4-4-5.9-7.3-1.2-9.7-4.2-10.2-8.1-.7-6.4,2.5-13.1,11.2-18.5,1.3-.8,2.3-1.6,2.2-2.5s-1.5-1-2.8-.9c-8.8,1-22.5,12.8-20.7,28.9C91.1,195.7,97.9,202.6,105.7,201.7Z" fill="#fff" opacity="0.5"/><polygon points="35.3 120 104.6 120 70 60 0.7 60 35.3 120" stroke="#fff" stroke-miterlimit="10" fill="url(#linear-gradient-13)"/><path d="M33.3,80.1c-1.9,4.4,0,10.3,4.7,12.3,2.3,1.1,5.5,1.2,7-.4,4.8-5.8,8.6-6.4,12.2-4.8,5.9,2.6,10.1,8.6,10.4,18.9.1,1.5.3,2.9,1.1,3.2s1.6-.8,2.2-2.1c3.5-8,.1-25.8-14.7-32.3C45.8,70.4,36.4,72.9,33.3,80.1Z" fill="#fff" opacity="0.5"/><polygon points="35.3 240 104.6 240 70 180 0.7 180 35.3 240" stroke="#fff" stroke-miterlimit="10" fill="url(#linear-gradient-14)"/><path d="M33.3,200.1c-1.9,4.4,0,10.3,4.7,12.3,2.3,1.1,5.5,1.2,7-.4,4.8-5.8,8.6-6.4,12.2-4.8,5.9,2.6,10.1,8.6,10.4,18.9.1,1.5.3,2.9,1.1,3.2s1.6-.8,2.2-2.1c3.5-8,.1-25.8-14.7-32.3C45.8,190.4,36.4,192.9,33.3,200.1Z" fill="#fff" opacity="0.5"/><polygon points="139.3 60 208.5 60 173.9 0 104.6 0 139.3 60" stroke="#fff" stroke-miterlimit="10" fill="url(#linear-gradient-15)"/><path d="M137.2,20.1c-1.9,4.4.1,10.3,4.7,12.3,2.4,1.1,5.6,1.2,7-.4,4.8-5.8,8.6-6.4,12.2-4.8,5.9,2.6,10.1,8.6,10.4,18.9.1,1.5.3,2.9,1.1,3.2s1.6-.8,2.2-2.1c3.5-8,.2-25.8-14.7-32.3C149.7,10.4,140.4,12.9,137.2,20.1Z" fill="#fff" opacity="0.5"/><polygon points="139.3 180 208.5 180 173.9 120 104.6 120 139.3 180" stroke="#fff" stroke-miterlimit="10" fill="url(#linear-gradient-16)"/><path d="M137.2,140.1c-1.9,4.4.1,10.3,4.7,12.3,2.4,1.1,5.6,1.2,7-.4,4.8-5.8,8.6-6.4,12.2-4.8,5.9,2.6,10.1,8.6,10.4,18.9.1,1.5.3,2.9,1.1,3.2s1.6-.8,2.2-2.1c3.5-8,.2-25.8-14.7-32.3C149.7,130.4,140.4,132.9,137.2,140.1Z" fill="#fff" opacity="0.5"/><polygon points="347.1 60 312.5 120 381.8 120 416.4 60 347.1 60" stroke="#fff" stroke-miterlimit="10" fill="url(#linear-gradient-17)"/><path d="M382.7,78.2c-2.9-3.9-9-5.1-13-2.1-2.1,1.5-3.8,4.2-3.1,6.3,2.5,7,1.2,10.6-2,12.9-5.2,3.9-12.5,4.4-21.6-.4-1.3-.7-2.6-1.2-3.3-.7s-.1,1.8.7,2.9c5.2,7.1,22.3,13.1,35.3,3.5C384.8,93.9,387.4,84.5,382.7,78.2Z" fill="#fff" opacity="0.5"/><polygon points="347.1 180 312.5 240 381.8 240 416.4 180 347.1 180" stroke="#fff" stroke-miterlimit="10" fill="url(#linear-gradient-18)"/><path d="M382.7,198.2c-2.9-3.9-9-5.1-13-2.1-2.1,1.5-3.8,4.2-3.1,6.3,2.5,7,1.2,10.6-2,12.9-5.2,3.9-12.5,4.4-21.6-.4-1.3-.7-2.6-1.2-3.3-.7s-.1,1.8.7,2.9c5.2,7.1,22.3,13.1,35.3,3.5C384.8,213.9,387.4,204.5,382.7,198.2Z" fill="#fff" opacity="0.5"/><polygon points="243.2 0 208.5 60 277.8 60 312.5 0 243.2 0" stroke="#fff" stroke-miterlimit="10" fill="url(#linear-gradient-19)"/><path d="M278.8,18.2a9.7,9.7,0,0,0-13.1-2.1c-2,1.5-3.7,4.2-3.1,6.3,2.6,7,1.3,10.6-1.9,12.9-5.2,3.9-12.5,4.4-21.6-.4-1.4-.7-2.6-1.2-3.3-.7s-.1,1.8.7,2.9c5.2,7.1,22.3,13.1,35.3,3.5C280.9,33.9,283.5,24.5,278.8,18.2Z" fill="#fff" opacity="0.5"/><polygon points="243.2 120 208.5 180 277.8 180 312.5 120 243.2 120" stroke="#fff" stroke-miterlimit="10" fill="url(#linear-gradient-20)"/><path d="M278.8,138.2a9.7,9.7,0,0,0-13.1-2.1c-2,1.5-3.7,4.2-3.1,6.3,2.6,7,1.3,10.6-1.9,12.9-5.2,3.9-12.5,4.4-21.6-.4-1.4-.7-2.6-1.2-3.3-.7s-.1,1.8.7,2.9c5.2,7.1,22.3,13.1,35.3,3.5C280.9,153.9,283.5,144.5,278.8,138.2Z" fill="#fff" opacity="0.5"/><polygon points="347.1 60 312.5 0 277.8 60 312.5 120 347.1 60" stroke="#fff" stroke-miterlimit="10" fill="url(#linear-gradient-21)"/><path d="M313.5,81.7c4.9-.5,9-5.2,8.4-10.2-.3-2.5-1.8-5.4-3.9-5.9-7.4-1.2-9.8-4.2-10.2-8.1-.8-6.4,2.4-13.1,11.1-18.5,1.3-.8,2.4-1.6,2.3-2.5s-1.5-1-2.9-.9c-8.7,1-22.5,12.8-20.7,28.9C298.9,75.7,305.7,82.6,313.5,81.7Z" fill="#fff" opacity="0.5"/><polygon points="347.1 180 312.5 120 277.8 180 312.5 240 347.1 180" stroke="#fff" stroke-miterlimit="10" fill="url(#linear-gradient-22)"/><path d="M313.5,201.7c4.9-.5,9-5.2,8.4-10.2-.3-2.5-1.8-5.4-3.9-5.9-7.4-1.2-9.8-4.2-10.2-8.1-.8-6.4,2.4-13.1,11.1-18.5,1.3-.8,2.4-1.6,2.3-2.5s-1.5-1-2.9-.9c-8.7,1-22.5,12.8-20.7,28.9C298.9,195.7,305.7,202.6,313.5,201.7Z" fill="#fff" opacity="0.5"/><polygon points="243.2 120 312.5 120 277.8 60 208.5 60 243.2 120" stroke="#fff" stroke-miterlimit="10" fill="url(#linear-gradient-23)"/><path d="M241.1,80.1c-1.9,4.4.1,10.3,4.7,12.3,2.4,1.1,5.6,1.2,7.1-.4,4.7-5.8,8.5-6.4,12.1-4.8,5.9,2.6,10.1,8.6,10.4,18.9.1,1.5.3,2.9,1.1,3.2s1.7-.8,2.2-2.1c3.5-8,.2-25.8-14.6-32.3C253.7,70.4,244.3,72.9,241.1,80.1Z" fill="#fff" opacity="0.5"/><polygon points="243.2 240 312.5 240 277.8 180 208.5 180 243.2 240" stroke="#fff" stroke-miterlimit="10" fill="url(#linear-gradient-24)"/><path d="M241.1,200.1c-1.9,4.4.1,10.3,4.7,12.3,2.4,1.1,5.6,1.2,7.1-.4,4.7-5.8,8.5-6.4,12.1-4.8,5.9,2.6,10.1,8.6,10.4,18.9.1,1.5.3,2.9,1.1,3.2s1.7-.8,2.2-2.1c3.5-8,.2-25.8-14.6-32.3C253.7,190.4,244.3,192.9,241.1,200.1Z" fill="#fff" opacity="0.5"/><polygon points="347.1 60 416.4 60 381.8 0 312.5 0 347.1 60" stroke="#fff" stroke-miterlimit="10" fill="url(#linear-gradient-25)"/><path d="M345.1,20.1a9.5,9.5,0,0,0,4.7,12.3c2.3,1.1,5.5,1.2,7-.4,4.7-5.8,8.5-6.4,12.1-4.8,6,2.6,10.1,8.6,10.5,18.9,0,1.5.2,2.9,1.1,3.2s1.6-.8,2.1-2.1c3.5-8,.2-25.8-14.6-32.3C357.6,10.4,348.2,12.9,345.1,20.1Z" fill="#fff" opacity="0.5"/><polygon points="347.1 180 416.4 180 381.8 120 312.5 120 347.1 180" stroke="#fff" stroke-miterlimit="10" fill="url(#linear-gradient-26)"/><path d="M345.1,140.1a9.5,9.5,0,0,0,4.7,12.3c2.3,1.1,5.5,1.2,7-.4,4.7-5.8,8.5-6.4,12.1-4.8,6,2.6,10.1,8.6,10.5,18.9,0,1.5.2,2.9,1.1,3.2s1.6-.8,2.1-2.1c3.5-8,.2-25.8-14.6-32.3C357.6,130.4,348.2,132.9,345.1,140.1Z" fill="#fff" opacity="0.5"/></svg>