<svg id="Layer_1" data-name="Layer 1" xmlns="http://www.w3.org/2000/svg" xmlns:xlink="http://www.w3.org/1999/xlink" viewBox="0 0 360 240"><defs><linearGradient id="linear-gradient" y1="40" x2="92.38" y2="40" gradientUnits="userSpaceOnUse"><stop offset="0" stop-color="#1f7aff"/><stop offset="1" stop-color="#b30469"/></linearGradient><linearGradient id="linear-gradient-2" x1="0" y1="-98.06" x2="92.38" y2="-98.06" gradientTransform="matrix(1, 0, 0, -1, 0, 21.94)" xlink:href="#linear-gradient"/><linearGradient id="linear-gradient-3" x1="-183.37" y1="-148.13" x2="-90.99" y2="-148.13" gradientTransform="translate(140.5 -52.9) rotate(-120)" xlink:href="#linear-gradient"/><linearGradient id="linear-gradient-4" x1="-183.37" y1="90.07" x2="-90.99" y2="90.07" gradientTransform="matrix(-0.5, -0.87, -0.87, 0.5, 159.53, -63.84)" xlink:href="#linear-gradient"/><linearGradient id="linear-gradient-5" x1="71.24" y1="-212.87" x2="163.62" y2="-212.87" gradientTransform="translate(24.5 -148.1) rotate(120)" xlink:href="#linear-gradient"/><linearGradient id="linear-gradient-6" x1="71.24" y1="154.81" x2="163.62" y2="154.81" gradientTransform="matrix(-0.5, 0.87, 0.87, 0.5, 5.47, -159.1)" xlink:href="#linear-gradient"/><linearGradient id="linear-gradient-7" x1="0" y1="200" x2="92.38" y2="200" xlink:href="#linear-gradient"/><linearGradient id="linear-gradient-8" x1="209.81" y1="-292.87" x2="302.18" y2="-292.87" gradientTransform="translate(24.5 -148.1) rotate(120)" xlink:href="#linear-gradient"/><linearGradient id="linear-gradient-9" x1="209.81" y1="234.81" x2="302.18" y2="234.81" gradientTransform="matrix(-0.5, 0.87, 0.87, 0.5, 5.47, -159.1)" xlink:href="#linear-gradient"/><linearGradient id="linear-gradient-10" x1="138.56" y1="120" x2="230.94" y2="120" xlink:href="#linear-gradient"/><linearGradient id="linear-gradient-11" x1="138.56" y1="-178.06" x2="230.94" y2="-178.06" gradientTransform="matrix(1, 0, 0, -1, 0, 21.94)" xlink:href="#linear-gradient"/><linearGradient id="linear-gradient-12" x1="-321.93" y1="-68.13" x2="-229.56" y2="-68.13" gradientTransform="translate(140.5 -52.9) rotate(-120)" xlink:href="#linear-gradient"/><linearGradient id="linear-gradient-13" x1="-321.93" y1="10.07" x2="-229.56" y2="10.07" gradientTransform="matrix(-0.5, -0.87, -0.87, 0.5, 159.53, -63.84)" xlink:href="#linear-gradient"/><linearGradient id="linear-gradient-14" x1="71.24" y1="-372.87" x2="163.62" y2="-372.87" gradientTransform="translate(24.5 -148.1) rotate(120)" xlink:href="#linear-gradient"/><linearGradient id="linear-gradient-15" x1="71.24" y1="314.81" x2="163.62" y2="314.81" gradientTransform="matrix(-0.5, 0.87, 0.87, 0.5, 5.47, -159.1)" xlink:href="#linear-gradient"/><linearGradient id="linear-gradient-16" x1="138.56" y1="-18.06" x2="230.94" y2="-18.06" gradientTransform="matrix(1, 0, 0, -1, 0, 21.94)" xlink:href="#linear-gradient"/><linearGradient id="linear-gradient-17" x1="-183.37" y1="11.87" x2="-90.99" y2="11.87" gradientTransform="translate(140.5 -52.9) rotate(-120)" xlink:href="#linear-gradient"/><linearGradient id="linear-gradient-18" x1="-183.37" y1="-69.93" x2="-90.99" y2="-69.93" gradientTransform="matrix(-0.5, -0.87, -0.87, 0.5, 159.53, -63.84)" xlink:href="#linear-gradient"/><linearGradient id="linear-gradient-19" x1="277.13" y1="40" x2="369.5" y2="40" xlink:href="#linear-gradient"/><linearGradient id="linear-gradient-20" x1="277.13" y1="-98.06" x2="369.5" y2="-98.06" gradientTransform="matrix(1, 0, 0, -1, 0, 21.94)" xlink:href="#linear-gradient"/><linearGradient id="linear-gradient-21" x1="-321.93" y1="91.87" x2="-229.56" y2="91.87" gradientTransform="translate(140.5 -52.9) rotate(-120)" xlink:href="#linear-gradient"/><linearGradient id="linear-gradient-22" x1="-67.32" y1="394.81" x2="25.05" y2="394.81" gradientTransform="matrix(-0.5, 0.87, 0.87, 0.5, 5.47, -159.1)" xlink:href="#linear-gradient"/><linearGradient id="linear-gradient-23" x1="277.13" y1="200" x2="369.5" y2="200" xlink:href="#linear-gradient"/><linearGradient id="linear-gradient-24" x1="71.24" y1="474.81" x2="163.62" y2="474.81" gradientTransform="matrix(-0.5, 0.87, 0.87, 0.5, 5.47, -159.1)" xlink:href="#linear-gradient"/><linearGradient id="linear-gradient-25" x1="-183.37" y1="250.07" x2="-90.99" y2="250.07" gradientTransform="matrix(-0.5, -0.87, -0.87, 0.5, 159.53, -63.84)" xlink:href="#linear-gradient"/><linearGradient id="linear-gradient-26" x1="209.81" y1="-132.87" x2="302.18" y2="-132.87" gradientTransform="translate(24.5 -148.1) rotate(120)" xlink:href="#linear-gradient"/><linearGradient id="linear-gradient-27" x1="-44.81" y1="170.07" x2="47.57" y2="170.07" gradientTransform="matrix(-0.5, -0.87, -0.87, 0.5, 159.53, -63.84)" xlink:href="#linear-gradient"/></defs><title>p3m1</title><polygon points="46.2 0 0 80 92.4 80 46.2 0" stroke="#fff" stroke-miterlimit="10" fill="url(#linear-gradient)"/><path d="M67.1,69.4c4-2.9,5.4-9.1,2.3-13.3-1.5-2.2-4.3-4-6.4-3.3-7.2,2.6-10.9,1.1-13.3-2.2-3.8-5.4-4.3-12.9.8-22.1.7-1.4,1.2-2.7.7-3.4s-1.9-.2-3,.7C40.9,31,34.5,48.5,44.2,62,50.9,71.4,60.5,74.1,67.1,69.4Z" fill="#fff" opacity="0.5"/><polygon points="46.2 160 0 80 92.4 80 46.2 160" stroke="#fff" stroke-miterlimit="10" fill="url(#linear-gradient-2)"/><path d="M67.1,90.6c4,2.9,5.4,9.1,2.3,13.3-1.5,2.2-4.3,4-6.4,3.3-7.2-2.6-10.9-1.1-13.3,2.2-3.8,5.4-4.3,12.9.8,22.1.7,1.4,1.2,2.7.7,3.4s-1.9.2-3-.7c-7.3-5.2-13.7-22.7-4-36.2C50.9,88.6,60.5,85.9,67.1,90.6Z" fill="#fff" opacity="0.5"/><polygon points="46.2 160 138.6 160 92.4 80 46.2 160" stroke="#fff" stroke-miterlimit="10" fill="url(#linear-gradient-3)"/><path d="M95.9,107.2a9.9,9.9,0,0,0-12.8,4.7c-1.1,2.3-1.2,5.6.4,7.2,5.8,4.9,6.4,8.8,4.8,12.5-2.8,6.1-9.1,10.2-19.6,10.5-1.6,0-2.9.2-3.3,1s.8,1.7,2.1,2.3c8.2,3.7,26.5.5,33.4-14.6C105.6,120.2,103.2,110.5,95.9,107.2Z" fill="#fff" opacity="0.5"/><polygon points="184.8 80 138.6 160 92.4 80 184.8 80" stroke="#fff" stroke-miterlimit="10" fill="url(#linear-gradient-4)"/><path d="M114.2,96.6c.5-4.9,5.2-9.2,10.4-8.7,2.6.3,5.5,1.8,6,4,1.4,7.5,4.5,9.9,8.5,10.3,6.6.7,13.4-2.7,18.8-11.6.9-1.4,1.7-2.5,2.7-2.4s1,1.5.9,2.9c-.9,9-12.9,23.3-29.4,21.6C120.5,111.6,113.4,104.7,114.2,96.6Z" fill="#fff" opacity="0.5"/><polygon points="184.8 80 138.6 0 92.4 80 184.8 80" stroke="#fff" stroke-miterlimit="10" fill="url(#linear-gradient-5)"/><path d="M114.2,63.4c.5,4.9,5.2,9.2,10.4,8.7,2.6-.3,5.5-1.8,6-4,1.4-7.5,4.5-9.9,8.5-10.3,6.6-.7,13.4,2.7,18.8,11.6.9,1.4,1.7,2.5,2.7,2.4s1-1.5.9-2.9c-.9-9-12.9-23.3-29.4-21.6C120.5,48.4,113.4,55.3,114.2,63.4Z" fill="#fff" opacity="0.5"/><polygon points="46.2 0 138.6 0 92.4 80 46.2 0" stroke="#fff" stroke-miterlimit="10" fill="url(#linear-gradient-6)"/><path d="M95.9,52.8a9.9,9.9,0,0,1-12.8-4.7c-1.1-2.3-1.2-5.6.4-7.2,5.8-4.9,6.4-8.8,4.8-12.5-2.8-6.1-9.1-10.2-19.6-10.5-1.6,0-2.9-.2-3.3-1s.8-1.7,2.1-2.3c8.2-3.7,26.5-.5,33.4,14.6C105.6,39.8,103.2,49.5,95.9,52.8Z" fill="#fff" opacity="0.5"/><polygon points="46.2 160 0 240 92.4 240 46.2 160" stroke="#fff" stroke-miterlimit="10" fill="url(#linear-gradient-7)"/><path d="M67.1,229.4c4-2.9,5.4-9.1,2.3-13.3-1.5-2.2-4.3-4-6.4-3.3-7.2,2.6-10.9,1.1-13.3-2.2-3.8-5.4-4.3-12.9.8-22.1.7-1.4,1.2-2.7.7-3.4s-1.9-.2-3,.7c-7.3,5.2-13.7,22.7-4,36.2C50.9,231.4,60.5,234.1,67.1,229.4Z" fill="#fff" opacity="0.5"/><polygon points="184.8 240 138.6 160 92.4 240 184.8 240" stroke="#fff" stroke-miterlimit="10" fill="url(#linear-gradient-8)"/><path d="M114.2,223.4c.5,4.9,5.2,9.2,10.4,8.7,2.6-.3,5.5-1.8,6-4,1.4-7.5,4.5-9.9,8.5-10.3,6.6-.7,13.4,2.7,18.8,11.6.9,1.4,1.7,2.5,2.7,2.4s1-1.5.9-2.9c-.9-9-12.9-23.3-29.4-21.6C120.5,208.4,113.4,215.3,114.2,223.4Z" fill="#fff" opacity="0.5"/><polygon points="46.2 160 138.6 160 92.4 240 46.2 160" stroke="#fff" stroke-miterlimit="10" fill="url(#linear-gradient-9)"/><path d="M95.9,212.8a9.9,9.9,0,0,1-12.8-4.7c-1.1-2.3-1.2-5.6.4-7.2,5.8-4.9,6.4-8.8,4.8-12.5-2.8-6.1-9.1-10.2-19.6-10.5-1.6,0-2.9-.2-3.3-1s.8-1.7,2.1-2.3c8.2-3.7,26.5-.5,33.4,14.6C105.6,199.8,103.2,209.5,95.9,212.8Z" fill="#fff" opacity="0.5"/><polygon points="184.8 80 138.6 160 230.9 160 184.8 80" stroke="#fff" stroke-miterlimit="10" fill="url(#linear-gradient-10)"/><path d="M205.6,149.4a9.8,9.8,0,0,0,2.4-13.3c-1.5-2.2-4.3-4-6.5-3.3-7.2,2.6-10.8,1.1-13.2-2.2-3.9-5.4-4.3-12.9.7-22.1.8-1.4,1.3-2.7.8-3.4s-1.9-.2-3,.7c-7.4,5.2-13.8,22.7-4.1,36.2C189.5,151.4,199.1,154.1,205.6,149.4Z" fill="#fff" opacity="0.5"/><polygon points="184.8 240 138.6 160 230.9 160 184.8 240" stroke="#fff" stroke-miterlimit="10" fill="url(#linear-gradient-11)"/><path d="M205.6,170.6a9.8,9.8,0,0,1,2.4,13.3c-1.5,2.2-4.3,4-6.5,3.3-7.2-2.6-10.8-1.1-13.2,2.2-3.9,5.4-4.3,12.9.7,22.1.8,1.4,1.3,2.7.8,3.4s-1.9.2-3-.7c-7.4-5.2-13.8-22.7-4.1-36.2C189.5,168.6,199.1,165.9,205.6,170.6Z" fill="#fff" opacity="0.5"/><polygon points="184.8 240 277.1 240 230.9 160 184.8 240" stroke="#fff" stroke-miterlimit="10" fill="url(#linear-gradient-12)"/><path d="M234.4,187.2c-4.5-2-10.6-.1-12.7,4.7-1.1,2.3-1.3,5.6.4,7.2,5.8,4.9,6.4,8.8,4.7,12.5-2.7,6.1-9,10.2-19.5,10.5-1.6,0-3,.2-3.4,1s.9,1.7,2.2,2.3c8.2,3.7,26.5.5,33.3-14.6C244.2,200.2,241.8,190.5,234.4,187.2Z" fill="#fff" opacity="0.5"/><polygon points="323.3 160 277.1 240 230.9 160 323.3 160" stroke="#fff" stroke-miterlimit="10" fill="url(#linear-gradient-13)"/><path d="M252.7,176.6a10,10,0,0,1,10.5-8.7c2.6.3,5.5,1.8,6,4,1.4,7.5,4.5,9.9,8.5,10.3,6.6.7,13.4-2.7,18.8-11.6.9-1.4,1.7-2.5,2.6-2.4s1.1,1.5.9,2.9c-.9,9-12.8,23.3-29.3,21.6C259.1,191.6,251.9,184.7,252.7,176.6Z" fill="#fff" opacity="0.5"/><polygon points="323.3 160 277.1 80 230.9 160 323.3 160" stroke="#fff" stroke-miterlimit="10" fill="url(#linear-gradient-14)"/><path d="M252.7,143.4a10,10,0,0,0,10.5,8.7c2.6-.3,5.5-1.8,6-4,1.4-7.5,4.5-9.9,8.5-10.3,6.6-.7,13.4,2.7,18.8,11.6.9,1.4,1.7,2.5,2.6,2.4s1.1-1.5.9-2.9c-.9-9-12.8-23.3-29.3-21.6C259.1,128.4,251.9,135.3,252.7,143.4Z" fill="#fff" opacity="0.5"/><polygon points="184.8 80 277.1 80 230.9 160 184.8 80" stroke="#fff" stroke-miterlimit="10" fill="url(#linear-gradient-15)"/><path d="M234.4,132.8c-4.5,2-10.6.1-12.7-4.7-1.1-2.3-1.3-5.6.4-7.2,5.8-4.9,6.4-8.8,4.7-12.5-2.7-6.1-9-10.2-19.5-10.5-1.6,0-3-.2-3.4-1s.9-1.7,2.2-2.3c8.2-3.7,26.5-.5,33.3,14.6C244.2,119.8,241.8,129.5,234.4,132.8Z" fill="#fff" opacity="0.5"/><polygon points="184.8 80 138.6 0 230.9 0 184.8 80" stroke="#fff" stroke-miterlimit="10" fill="url(#linear-gradient-16)"/><path d="M205.6,10.6A9.8,9.8,0,0,1,208,23.9c-1.5,2.2-4.3,4-6.5,3.3-7.2-2.6-10.8-1.1-13.2,2.2-3.9,5.4-4.3,12.9.7,22.1.8,1.4,1.3,2.7.8,3.4s-1.9.2-3-.7C179.4,49,173,31.5,182.7,18,189.5,8.6,199.1,5.9,205.6,10.6Z" fill="#fff" opacity="0.5"/><polygon points="184.8 80 277.1 80 230.9 0 184.8 80" stroke="#fff" stroke-miterlimit="10" fill="url(#linear-gradient-17)"/><path d="M234.4,27.2c-4.5-2-10.6-.1-12.7,4.7-1.1,2.3-1.3,5.6.4,7.2,5.8,4.9,6.4,8.8,4.7,12.5-2.7,6.1-9,10.2-19.5,10.5-1.6,0-3,.2-3.4,1s.9,1.7,2.2,2.3c8.2,3.7,26.5.5,33.3-14.6C244.2,40.2,241.8,30.5,234.4,27.2Z" fill="#fff" opacity="0.5"/><polygon points="323.3 0 277.1 80 230.9 0 323.3 0" stroke="#fff" stroke-miterlimit="10" fill="url(#linear-gradient-18)"/><path d="M252.7,16.6a10,10,0,0,1,10.5-8.7c2.6.3,5.5,1.8,6,4,1.4,7.5,4.5,9.9,8.5,10.3,6.6.7,13.4-2.7,18.8-11.6.9-1.4,1.7-2.5,2.6-2.4s1.1,1.5.9,2.9c-.9,9-12.8,23.3-29.3,21.6C259.1,31.6,251.9,24.7,252.7,16.6Z" fill="#fff" opacity="0.5"/><polygon points="323.3 0 277.1 80 369.5 80 323.3 0" stroke="#fff" stroke-miterlimit="10" fill="url(#linear-gradient-19)"/><path d="M344.2,69.4c4-2.9,5.4-9.1,2.3-13.3-1.5-2.2-4.2-4-6.4-3.3-7.2,2.6-10.9,1.1-13.2-2.2-3.9-5.4-4.4-12.9.7-22.1.7-1.4,1.3-2.7.7-3.4s-1.8-.2-3,.7c-7.3,5.2-13.7,22.7-4,36.2C328.1,71.4,337.6,74.1,344.2,69.4Z" fill="#fff" opacity="0.5"/><polygon points="323.3 160 277.1 80 369.5 80 323.3 160" stroke="#fff" stroke-miterlimit="10" fill="url(#linear-gradient-20)"/><path d="M344.2,90.6c4,2.9,5.4,9.1,2.3,13.3-1.5,2.2-4.2,4-6.4,3.3-7.2-2.6-10.9-1.1-13.2,2.2-3.9,5.4-4.4,12.9.7,22.1.7,1.4,1.3,2.7.7,3.4s-1.8.2-3-.7c-7.3-5.2-13.7-22.7-4-36.2C328.1,88.6,337.6,85.9,344.2,90.6Z" fill="#fff" opacity="0.5"/><polygon points="323.3 160 415.7 160 369.5 80 323.3 160" stroke="#fff" stroke-miterlimit="10" fill="url(#linear-gradient-21)"/><path d="M373,107.2c-4.5-2-10.6-.1-12.8,4.7-1,2.3-1.2,5.6.4,7.2,5.9,4.9,6.5,8.8,4.8,12.5-2.7,6.1-9,10.2-19.5,10.5-1.6,0-3,.2-3.4,1s.8,1.7,2.1,2.3c8.2,3.7,26.6.5,33.4-14.6C382.8,120.2,380.4,110.5,373,107.2Z" fill="#fff" opacity="0.5"/><polygon points="323.3 0 415.7 0 369.5 80 323.3 0" stroke="#fff" stroke-miterlimit="10" fill="url(#linear-gradient-22)"/><path d="M373,52.8c-4.5,2-10.6.1-12.8-4.7-1-2.3-1.2-5.6.4-7.2,5.9-4.9,6.5-8.8,4.8-12.5-2.7-6.1-9-10.2-19.5-10.5-1.6,0-3-.2-3.4-1s.8-1.7,2.1-2.3c8.2-3.7,26.6-.5,33.4,14.6C382.8,39.8,380.4,49.5,373,52.8Z" fill="#fff" opacity="0.5"/><polygon points="323.3 160 277.1 240 369.5 240 323.3 160" stroke="#fff" stroke-miterlimit="10" fill="url(#linear-gradient-23)"/><path d="M344.2,229.4c4-2.9,5.4-9.1,2.3-13.3-1.5-2.2-4.2-4-6.4-3.3-7.2,2.6-10.9,1.1-13.2-2.2-3.9-5.4-4.4-12.9.7-22.1.7-1.4,1.3-2.7.7-3.4s-1.8-.2-3,.7c-7.3,5.2-13.7,22.7-4,36.2C328.1,231.4,337.6,234.1,344.2,229.4Z" fill="#fff" opacity="0.5"/><polygon points="323.3 160 415.7 160 369.5 240 323.3 160" stroke="#fff" stroke-miterlimit="10" fill="url(#linear-gradient-24)"/><path d="M373,212.8c-4.5,2-10.6.1-12.8-4.7-1-2.3-1.2-5.6.4-7.2,5.9-4.9,6.5-8.8,4.8-12.5-2.7-6.1-9-10.2-19.5-10.5-1.6,0-3-.2-3.4-1s.8-1.7,2.1-2.3c8.2-3.7,26.6-.5,33.4,14.6C382.8,199.8,380.4,209.5,373,212.8Z" fill="#fff" opacity="0.5"/><polygon points="46.2 160 0 240 -46.2 160 46.2 160" stroke="#fff" stroke-miterlimit="10" fill="url(#linear-gradient-25)"/><path d="M-24.4,176.6c.5-4.9,5.2-9.2,10.4-8.7,2.6.3,5.6,1.8,6.1,4,1.4,7.5,4.4,9.9,8.5,10.3,6.6.7,13.3-2.7,18.8-11.6.8-1.4,1.6-2.5,2.6-2.4s1,1.5.9,2.9c-.9,9-12.8,23.3-29.4,21.6C-18,191.6-25.2,184.7-24.4,176.6Z" fill="#fff" opacity="0.5"/><polygon points="46.2 160 0 80 -46.2 160 46.2 160" stroke="#fff" stroke-miterlimit="10" fill="url(#linear-gradient-26)"/><path d="M-24.4,143.4c.5,4.9,5.2,9.2,10.4,8.7,2.6-.3,5.6-1.8,6.1-4,1.4-7.5,4.4-9.9,8.5-10.3,6.6-.7,13.3,2.7,18.8,11.6.8,1.4,1.6,2.5,2.6,2.4s1-1.5.9-2.9c-.9-9-12.8-23.3-29.4-21.6C-18,128.4-25.2,135.3-24.4,143.4Z" fill="#fff" opacity="0.5"/><polygon points="46.2 0 0 80 -46.2 0 46.2 0" stroke="#fff" stroke-miterlimit="10" fill="url(#linear-gradient-27)"/><path d="M-24.4,16.6c.5-4.9,5.2-9.2,10.4-8.7,2.6.3,5.6,1.8,6.1,4,1.4,7.5,4.4,9.9,8.5,10.3,6.6.7,13.3-2.7,18.8-11.6C20.2,9.2,21,8.1,22,8.2s1,1.5.9,2.9c-.9,9-12.8,23.3-29.4,21.6C-18,31.6-25.2,24.7-24.4,16.6Z" fill="#fff" opacity="0.5"/></svg>