<svg id="Layer_1" data-name="Layer 1" xmlns="http://www.w3.org/2000/svg" xmlns:xlink="http://www.w3.org/1999/xlink" viewBox="0 0 360 240"><defs><linearGradient id="linear-gradient" y1="30" x2="60" y2="30" gradientUnits="userSpaceOnUse"><stop offset="0" stop-color="#1f7aff"/><stop offset="1" stop-color="#b30469"/></linearGradient><linearGradient id="linear-gradient-2" x1="139" y1="-11" x2="199" y2="-11" gradientTransform="translate(-139 101)" xlink:href="#linear-gradient"/><linearGradient id="linear-gradient-3" x1="180" y1="128" x2="240" y2="128" gradientTransform="translate(-120 -38)" xlink:href="#linear-gradient"/><linearGradient id="linear-gradient-4" x1="41" y1="169" x2="101" y2="169" gradientTransform="translate(19 -139)" xlink:href="#linear-gradient"/><linearGradient id="linear-gradient-5" x1="120" x2="180" xlink:href="#linear-gradient"/><linearGradient id="linear-gradient-6" x1="139" y1="109" x2="199" y2="109" gradientTransform="translate(-19 -19)" xlink:href="#linear-gradient"/><linearGradient id="linear-gradient-7" x1="60" y1="128" x2="120" y2="128" gradientTransform="translate(120 -38)" xlink:href="#linear-gradient"/><linearGradient id="linear-gradient-8" x1="41" y1="49" x2="101" y2="49" gradientTransform="translate(139 -19)" xlink:href="#linear-gradient"/><linearGradient id="linear-gradient-9" x1="240" x2="300" xlink:href="#linear-gradient"/><linearGradient id="linear-gradient-10" x1="139" y1="229" x2="199" y2="229" gradientTransform="translate(101 -139)" xlink:href="#linear-gradient"/><linearGradient id="linear-gradient-11" x1="-60" y1="128" x2="0" y2="128" gradientTransform="translate(360 -38)" xlink:href="#linear-gradient"/><linearGradient id="linear-gradient-12" x1="41" y1="-71" x2="101" y2="-71" gradientTransform="translate(259 101)" xlink:href="#linear-gradient"/><linearGradient id="linear-gradient-13" y1="150" y2="150" xlink:href="#linear-gradient"/><linearGradient id="linear-gradient-14" x1="19" y1="-11" x2="79" y2="-11" gradientTransform="translate(-19 221)" xlink:href="#linear-gradient"/><linearGradient id="linear-gradient-15" x1="180" y1="8" x2="240" y2="8" gradientTransform="translate(-120 202)" xlink:href="#linear-gradient"/><linearGradient id="linear-gradient-16" x1="161" y1="169" x2="221" y2="169" gradientTransform="translate(-101 -19)" xlink:href="#linear-gradient"/><linearGradient id="linear-gradient-17" x1="120" y1="150" x2="180" y2="150" xlink:href="#linear-gradient"/><linearGradient id="linear-gradient-18" x1="19" y1="109" x2="79" y2="109" gradientTransform="translate(101 101)" xlink:href="#linear-gradient"/><linearGradient id="linear-gradient-19" x1="60" y1="8" x2="120" y2="8" gradientTransform="translate(120 202)" xlink:href="#linear-gradient"/><linearGradient id="linear-gradient-20" x1="161" y1="49" x2="221" y2="49" gradientTransform="translate(19 101)" xlink:href="#linear-gradient"/><linearGradient id="linear-gradient-21" x1="240" y1="150" x2="300" y2="150" xlink:href="#linear-gradient"/><linearGradient id="linear-gradient-22" x1="19" y1="229" x2="79" y2="229" gradientTransform="translate(221 -19)" xlink:href="#linear-gradient"/><linearGradient id="linear-gradient-23" x1="-60" y1="8" x2="0" y2="8" gradientTransform="translate(360 202)" xlink:href="#linear-gradient"/><linearGradient id="linear-gradient-24" x1="161" y1="-71" x2="221" y2="-71" gradientTransform="translate(139 221)" xlink:href="#linear-gradient"/></defs><title>p4</title><rect width="60" height="60" stroke="#fff" stroke-miterlimit="10" fill="url(#linear-gradient)"/><path d="M43,13.2a9.5,9.5,0,0,0-13,2.2c-1.5,2.1-2.2,5.2-.9,7,4.7,5.8,4.5,9.6,2.3,12.8-3.7,5.3-10.5,8.2-20.6,6.5-1.5-.2-2.9-.3-3.4.5s.5,1.7,1.6,2.5c7.2,5,25.4,5.3,34.6-8C50.1,27.4,49.5,17.7,43,13.2Z" fill="#fff" opacity="0.5"/><rect y="60" width="60" height="60" transform="translate(-60 120) rotate(-90)" stroke="#fff" stroke-miterlimit="10" fill="url(#linear-gradient-2)"/><path d="M13.2,77a9.5,9.5,0,0,0,2.2,13c2.1,1.5,5.2,2.2,7,.9,5.8-4.7,9.6-4.5,12.8-2.3,5.3,3.7,8.2,10.5,6.5,20.6-.2,1.5-.3,2.9.5,3.4s1.7-.5,2.5-1.6c5-7.2,5.3-25.4-8-34.6C27.4,69.9,17.7,70.5,13.2,77Z" fill="#fff" opacity="0.5"/><rect x="60" y="60" width="60" height="60" transform="translate(180 180) rotate(180)" stroke="#fff" stroke-miterlimit="10" fill="url(#linear-gradient-3)"/><path d="M77,106.8a9.5,9.5,0,0,0,13-2.2c1.5-2.1,2.2-5.2.9-7-4.7-5.8-4.5-9.6-2.3-12.8,3.7-5.3,10.5-8.2,20.6-6.5,1.5.2,2.9.3,3.4-.5s-.5-1.7-1.6-2.5c-7.2-5-25.4-5.3-34.6,8C69.9,92.6,70.5,102.3,77,106.8Z" fill="#fff" opacity="0.5"/><rect x="60" width="60" height="60" transform="matrix(0, 1, -1, 0, 120, -60)" stroke="#fff" stroke-miterlimit="10" fill="url(#linear-gradient-4)"/><path d="M106.8,43a9.5,9.5,0,0,0-2.2-13c-2.1-1.5-5.2-2.2-7-.9-5.8,4.7-9.6,4.5-12.8,2.3-5.3-3.7-8.2-10.5-6.5-20.6.2-1.5.3-2.9-.5-3.4s-1.7.5-2.5,1.6c-5,7.2-5.3,25.4,8,34.6C92.6,50.1,102.3,49.5,106.8,43Z" fill="#fff" opacity="0.5"/><rect x="120" width="60" height="60" stroke="#fff" stroke-miterlimit="10" fill="url(#linear-gradient-5)"/><path d="M163,13.2a9.5,9.5,0,0,0-13,2.2c-1.5,2.1-2.2,5.2-.9,7,4.7,5.8,4.5,9.6,2.3,12.8-3.7,5.3-10.5,8.2-20.6,6.5-1.5-.2-2.9-.3-3.4.5s.5,1.7,1.6,2.5c7.2,5,25.4,5.3,34.6-8C170.1,27.4,169.5,17.7,163,13.2Z" fill="#fff" opacity="0.5"/><rect x="120" y="60" width="60" height="60" transform="translate(60 240) rotate(-90)" stroke="#fff" stroke-miterlimit="10" fill="url(#linear-gradient-6)"/><path d="M133.2,77a9.5,9.5,0,0,0,2.2,13c2.1,1.5,5.2,2.2,7,.9,5.8-4.7,9.6-4.5,12.8-2.3,5.3,3.7,8.2,10.5,6.5,20.6-.2,1.5-.3,2.9.5,3.4s1.7-.5,2.5-1.6c5-7.2,5.3-25.4-8-34.6C147.4,69.9,137.7,70.5,133.2,77Z" fill="#fff" opacity="0.5"/><rect x="180" y="60" width="60" height="60" transform="translate(420 180) rotate(180)" stroke="#fff" stroke-miterlimit="10" fill="url(#linear-gradient-7)"/><path d="M197,106.8a9.5,9.5,0,0,0,13-2.2c1.5-2.1,2.2-5.2.9-7-4.7-5.8-4.5-9.6-2.3-12.8,3.7-5.3,10.5-8.2,20.6-6.5,1.5.2,2.9.3,3.4-.5s-.5-1.7-1.6-2.5c-7.2-5-25.4-5.3-34.6,8C189.9,92.6,190.5,102.3,197,106.8Z" fill="#fff" opacity="0.5"/><rect x="180" width="60" height="60" transform="matrix(0, 1, -1, 0, 240, -180)" stroke="#fff" stroke-miterlimit="10" fill="url(#linear-gradient-8)"/><path d="M226.8,43a9.5,9.5,0,0,0-2.2-13c-2.1-1.5-5.2-2.2-7-.9-5.8,4.7-9.6,4.5-12.8,2.3-5.3-3.7-8.2-10.5-6.5-20.6.2-1.5.3-2.9-.5-3.4s-1.7.5-2.5,1.6c-5,7.2-5.3,25.4,8,34.6C212.6,50.1,222.3,49.5,226.8,43Z" fill="#fff" opacity="0.5"/><rect x="240" width="60" height="60" stroke="#fff" stroke-miterlimit="10" fill="url(#linear-gradient-9)"/><path d="M283,13.2a9.5,9.5,0,0,0-13,2.2c-1.5,2.1-2.2,5.2-.9,7,4.7,5.8,4.5,9.6,2.3,12.8-3.7,5.3-10.5,8.2-20.6,6.5-1.5-.2-2.9-.3-3.4.5s.5,1.7,1.6,2.5c7.2,5,25.4,5.3,34.6-8C290.1,27.4,289.5,17.7,283,13.2Z" fill="#fff" opacity="0.5"/><rect x="240" y="60" width="60" height="60" transform="translate(180 360) rotate(-90)" stroke="#fff" stroke-miterlimit="10" fill="url(#linear-gradient-10)"/><path d="M253.2,77a9.5,9.5,0,0,0,2.2,13c2.1,1.5,5.2,2.2,7,.9,5.8-4.7,9.6-4.5,12.8-2.3,5.3,3.7,8.2,10.5,6.5,20.6-.2,1.5-.3,2.9.5,3.4s1.7-.5,2.5-1.6c5-7.2,5.3-25.4-8-34.6C267.4,69.9,257.7,70.5,253.2,77Z" fill="#fff" opacity="0.5"/><rect x="300" y="60" width="60" height="60" transform="translate(660 180) rotate(180)" stroke="#fff" stroke-miterlimit="10" fill="url(#linear-gradient-11)"/><path d="M317,106.8a9.5,9.5,0,0,0,13-2.2c1.5-2.1,2.2-5.2.9-7-4.7-5.8-4.5-9.6-2.3-12.8,3.7-5.3,10.5-8.2,20.6-6.5,1.5.2,2.9.3,3.4-.5s-.5-1.7-1.6-2.5c-7.2-5-25.4-5.3-34.6,8C309.9,92.6,310.5,102.3,317,106.8Z" fill="#fff" opacity="0.5"/><rect x="300" width="60" height="60" transform="matrix(0, 1, -1, 0, 360, -300)" stroke="#fff" stroke-miterlimit="10" fill="url(#linear-gradient-12)"/><path d="M346.8,43a9.5,9.5,0,0,0-2.2-13c-2.1-1.5-5.2-2.2-7-.9-5.8,4.7-9.6,4.5-12.8,2.3-5.3-3.7-8.2-10.5-6.5-20.6.2-1.5.3-2.9-.5-3.4s-1.7.5-2.5,1.6c-5,7.2-5.3,25.4,8,34.6C332.6,50.1,342.3,49.5,346.8,43Z" fill="#fff" opacity="0.5"/><rect y="120" width="60" height="60" stroke="#fff" stroke-miterlimit="10" fill="url(#linear-gradient-13)"/><path d="M43,133.2a9.5,9.5,0,0,0-13,2.2c-1.5,2.1-2.2,5.2-.9,7,4.7,5.8,4.5,9.6,2.3,12.8-3.7,5.3-10.5,8.2-20.6,6.5-1.5-.2-2.9-.3-3.4.5s.5,1.7,1.6,2.5c7.2,5,25.4,5.3,34.6-8C50.1,147.4,49.5,137.7,43,133.2Z" fill="#fff" opacity="0.5"/><rect y="180" width="60" height="60" transform="translate(-180 240) rotate(-90)" stroke="#fff" stroke-miterlimit="10" fill="url(#linear-gradient-14)"/><path d="M13.2,197a9.5,9.5,0,0,0,2.2,13c2.1,1.5,5.2,2.2,7,.9,5.8-4.7,9.6-4.5,12.8-2.3,5.3,3.7,8.2,10.5,6.5,20.6-.2,1.5-.3,2.9.5,3.4s1.7-.5,2.5-1.6c5-7.2,5.3-25.4-8-34.6C27.4,189.9,17.7,190.5,13.2,197Z" fill="#fff" opacity="0.5"/><rect x="60" y="180" width="60" height="60" transform="translate(180 420) rotate(180)" stroke="#fff" stroke-miterlimit="10" fill="url(#linear-gradient-15)"/><path d="M77,226.8a9.5,9.5,0,0,0,13-2.2c1.5-2.1,2.2-5.2.9-7-4.7-5.8-4.5-9.6-2.3-12.8,3.7-5.3,10.5-8.2,20.6-6.5,1.5.2,2.9.3,3.4-.5s-.5-1.7-1.6-2.5c-7.2-5-25.4-5.3-34.6,8C69.9,212.6,70.5,222.3,77,226.8Z" fill="#fff" opacity="0.5"/><rect x="60" y="120" width="60" height="60" transform="matrix(0, 1, -1, 0, 240, 60)" stroke="#fff" stroke-miterlimit="10" fill="url(#linear-gradient-16)"/><path d="M106.8,163a9.5,9.5,0,0,0-2.2-13c-2.1-1.5-5.2-2.2-7-.9-5.8,4.7-9.6,4.5-12.8,2.3-5.3-3.7-8.2-10.5-6.5-20.6.2-1.5.3-2.9-.5-3.4s-1.7.5-2.5,1.6c-5,7.2-5.3,25.4,8,34.6C92.6,170.1,102.3,169.5,106.8,163Z" fill="#fff" opacity="0.5"/><rect x="120" y="120" width="60" height="60" stroke="#fff" stroke-miterlimit="10" fill="url(#linear-gradient-17)"/><path d="M163,133.2a9.5,9.5,0,0,0-13,2.2c-1.5,2.1-2.2,5.2-.9,7,4.7,5.8,4.5,9.6,2.3,12.8-3.7,5.3-10.5,8.2-20.6,6.5-1.5-.2-2.9-.3-3.4.5s.5,1.7,1.6,2.5c7.2,5,25.4,5.3,34.6-8C170.1,147.4,169.5,137.7,163,133.2Z" fill="#fff" opacity="0.5"/><rect x="120" y="180" width="60" height="60" transform="translate(-60 360) rotate(-90)" stroke="#fff" stroke-miterlimit="10" fill="url(#linear-gradient-18)"/><path d="M133.2,197a9.5,9.5,0,0,0,2.2,13c2.1,1.5,5.2,2.2,7,.9,5.8-4.7,9.6-4.5,12.8-2.3,5.3,3.7,8.2,10.5,6.5,20.6-.2,1.5-.3,2.9.5,3.4s1.7-.5,2.5-1.6c5-7.2,5.3-25.4-8-34.6C147.4,189.9,137.7,190.5,133.2,197Z" fill="#fff" opacity="0.5"/><rect x="180" y="180" width="60" height="60" transform="translate(420 420) rotate(180)" stroke="#fff" stroke-miterlimit="10" fill="url(#linear-gradient-19)"/><path d="M197,226.8a9.5,9.5,0,0,0,13-2.2c1.5-2.1,2.2-5.2.9-7-4.7-5.8-4.5-9.6-2.3-12.8,3.7-5.3,10.5-8.2,20.6-6.5,1.5.2,2.9.3,3.4-.5s-.5-1.7-1.6-2.5c-7.2-5-25.4-5.3-34.6,8C189.9,212.6,190.5,222.3,197,226.8Z" fill="#fff" opacity="0.5"/><rect x="180" y="120" width="60" height="60" transform="matrix(0, 1, -1, 0, 360, -60)" stroke="#fff" stroke-miterlimit="10" fill="url(#linear-gradient-20)"/><path d="M226.8,163a9.5,9.5,0,0,0-2.2-13c-2.1-1.5-5.2-2.2-7-.9-5.8,4.7-9.6,4.5-12.8,2.3-5.3-3.7-8.2-10.5-6.5-20.6.2-1.5.3-2.9-.5-3.4s-1.7.5-2.5,1.6c-5,7.2-5.3,25.4,8,34.6C212.6,170.1,222.3,169.5,226.8,163Z" fill="#fff" opacity="0.5"/><rect x="240" y="120" width="60" height="60" stroke="#fff" stroke-miterlimit="10" fill="url(#linear-gradient-21)"/><path d="M283,133.2a9.5,9.5,0,0,0-13,2.2c-1.5,2.1-2.2,5.2-.9,7,4.7,5.8,4.5,9.6,2.3,12.8-3.7,5.3-10.5,8.2-20.6,6.5-1.5-.2-2.9-.3-3.4.5s.5,1.7,1.6,2.5c7.2,5,25.4,5.3,34.6-8C290.1,147.4,289.5,137.7,283,133.2Z" fill="#fff" opacity="0.5"/><rect x="240" y="180" width="60" height="60" transform="translate(60 480) rotate(-90)" stroke="#fff" stroke-miterlimit="10" fill="url(#linear-gradient-22)"/><path d="M253.2,197a9.5,9.5,0,0,0,2.2,13c2.1,1.5,5.2,2.2,7,.9,5.8-4.7,9.6-4.5,12.8-2.3,5.3,3.7,8.2,10.5,6.5,20.6-.2,1.5-.3,2.9.5,3.4s1.7-.5,2.5-1.6c5-7.2,5.3-25.4-8-34.6C267.4,189.9,257.7,190.5,253.2,197Z" fill="#fff" opacity="0.5"/><rect x="300" y="180" width="60" height="60" transform="translate(660 420) rotate(180)" stroke="#fff" stroke-miterlimit="10" fill="url(#linear-gradient-23)"/><path d="M317,226.8a9.5,9.5,0,0,0,13-2.2c1.5-2.1,2.2-5.2.9-7-4.7-5.8-4.5-9.6-2.3-12.8,3.7-5.3,10.5-8.2,20.6-6.5,1.5.2,2.9.3,3.4-.5s-.5-1.7-1.6-2.5c-7.2-5-25.4-5.3-34.6,8C309.9,212.6,310.5,222.3,317,226.8Z" fill="#fff" opacity="0.5"/><rect x="300" y="120" width="60" height="60" transform="matrix(0, 1, -1, 0, 480, -180)" stroke="#fff" stroke-miterlimit="10" fill="url(#linear-gradient-24)"/><path d="M346.8,163a9.5,9.5,0,0,0-2.2-13c-2.1-1.5-5.2-2.2-7-.9-5.8,4.7-9.6,4.5-12.8,2.3-5.3-3.7-8.2-10.5-6.5-20.6.2-1.5.3-2.9-.5-3.4s-1.7.5-2.5,1.6c-5,7.2-5.3,25.4,8,34.6C332.6,170.1,342.3,169.5,346.8,163Z" fill="#fff" opacity="0.5"/></svg>