<svg id="Layer_1" data-name="Layer 1" xmlns="http://www.w3.org/2000/svg" xmlns:xlink="http://www.w3.org/1999/xlink" viewBox="0 0 360 240"><defs><linearGradient id="linear-gradient" x1="-1729.5" y1="112.5" x2="-1639.5" y2="22.5" gradientTransform="matrix(-1, 0, 0, 1, -1662, 0)" gradientUnits="userSpaceOnUse"><stop offset="0" stop-color="#1f7aff"/><stop offset="1" stop-color="#ff941f"/></linearGradient><linearGradient id="linear-gradient-2" x1="-1882.5" y1="49.5" x2="-1792.5" y2="-40.5" gradientTransform="translate(63 -1815) rotate(-90)" xlink:href="#linear-gradient"/><linearGradient id="linear-gradient-3" x1="-1908.5" y1="-202.5" x2="-1818.5" y2="-292.5" gradientTransform="translate(-1751 -225) rotate(180)" xlink:href="#linear-gradient"/><linearGradient id="linear-gradient-4" x1="-1582.5" y1="109.5" x2="-1492.5" y2="19.5" gradientTransform="matrix(0, 1, 1, 0, 93, 1605)" xlink:href="#linear-gradient"/><linearGradient id="linear-gradient-5" x1="-1912.5" y1="-32.5" x2="-1822.5" y2="-122.5" gradientTransform="matrix(0, -1, -1, 0, -55, -1755)" xlink:href="#linear-gradient"/><linearGradient id="linear-gradient-6" x1="-1764.5" y1="129.5" x2="-1674.5" y2="39.5" gradientTransform="translate(1787 73)" xlink:href="#linear-gradient"/><linearGradient id="linear-gradient-7" x1="-1585.5" y1="-219.5" x2="-1495.5" y2="-309.5" gradientTransform="matrix(1, 0, 0, -1, 1698, -152)" xlink:href="#linear-gradient"/><linearGradient id="linear-gradient-8" x1="-1550.5" y1="-94.5" x2="-1460.5" y2="-184.5" gradientTransform="translate(-27 1663) rotate(90)" xlink:href="#linear-gradient"/><linearGradient id="linear-gradient-9" x1="-1909.5" y1="112.5" x2="-1819.5" y2="22.5" xlink:href="#linear-gradient"/><linearGradient id="linear-gradient-10" x1="-1882.5" y1="229.5" x2="-1792.5" y2="139.5" gradientTransform="translate(63 -1815) rotate(-90)" xlink:href="#linear-gradient"/><linearGradient id="linear-gradient-11" x1="-2088.5" y1="-202.5" x2="-1998.5" y2="-292.5" gradientTransform="translate(-1751 -225) rotate(180)" xlink:href="#linear-gradient"/><linearGradient id="linear-gradient-12" x1="-1582.5" y1="289.5" x2="-1492.5" y2="199.5" gradientTransform="matrix(0, 1, 1, 0, 93, 1605)" xlink:href="#linear-gradient"/><linearGradient id="linear-gradient-13" x1="-1729.5" y1="292.5" x2="-1639.5" y2="202.5" xlink:href="#linear-gradient"/><linearGradient id="linear-gradient-14" x1="-2062.5" y1="49.5" x2="-1972.5" y2="-40.5" gradientTransform="translate(63 -1815) rotate(-90)" xlink:href="#linear-gradient"/><linearGradient id="linear-gradient-15" x1="-1908.5" y1="-382.5" x2="-1818.5" y2="-472.5" gradientTransform="translate(-1751 -225) rotate(180)" xlink:href="#linear-gradient"/><linearGradient id="linear-gradient-16" x1="-1402.5" y1="109.5" x2="-1312.5" y2="19.5" gradientTransform="matrix(0, 1, 1, 0, 93, 1605)" xlink:href="#linear-gradient"/><linearGradient id="linear-gradient-17" x1="-1909.5" y1="292.5" x2="-1819.5" y2="202.5" xlink:href="#linear-gradient"/><linearGradient id="linear-gradient-18" x1="-2062.5" y1="229.5" x2="-1972.5" y2="139.5" gradientTransform="translate(63 -1815) rotate(-90)" xlink:href="#linear-gradient"/><linearGradient id="linear-gradient-19" x1="-2088.5" y1="-382.5" x2="-1998.5" y2="-472.5" gradientTransform="translate(-1751 -225) rotate(180)" xlink:href="#linear-gradient"/><linearGradient id="linear-gradient-20" x1="-1402.5" y1="289.5" x2="-1312.5" y2="199.5" gradientTransform="matrix(0, 1, 1, 0, 93, 1605)" xlink:href="#linear-gradient"/><linearGradient id="linear-gradient-21" x1="-1912.5" y1="-212.5" x2="-1822.5" y2="-302.5" gradientTransform="matrix(0, -1, -1, 0, -55, -1755)" xlink:href="#linear-gradient"/><linearGradient id="linear-gradient-22" x1="-1584.5" y1="129.5" x2="-1494.5" y2="39.5" gradientTransform="translate(1787 73)" xlink:href="#linear-gradient"/><linearGradient id="linear-gradient-23" x1="-1405.5" y1="-219.5" x2="-1315.5" y2="-309.5" gradientTransform="matrix(1, 0, 0, -1, 1698, -152)" xlink:href="#linear-gradient"/><linearGradient id="linear-gradient-24" x1="-1550.5" y1="-274.5" x2="-1460.5" y2="-364.5" gradientTransform="translate(-27 1663) rotate(90)" xlink:href="#linear-gradient"/></defs><title>p4g</title><polygon points="0 90 90 90 0 0 0 90" stroke="#fff" stroke-miterlimit="10" fill="url(#linear-gradient)"/><path d="M16,42.3a9.8,9.8,0,0,1,12.9,3.3c1.2,2.2,1.7,5.4.3,7C24,58,23.8,61.9,25.7,65.3c3.3,5.6,9.8,9,20,8.2,1.5-.1,2.9,0,3.3.8s-.6,1.7-1.8,2.4c-7.6,4.3-25.7,3-33.8-11C7.8,55.8,9.2,46.2,16,42.3Z" fill="#fff" opacity="0.5"/><polygon points="90 0 90 90 0 0 90 0" stroke="#fff" stroke-miterlimit="10" fill="url(#linear-gradient-2)"/><path d="M42.3,16a9.8,9.8,0,0,0,3.3,12.9c2.2,1.2,5.4,1.7,7,.3,5.4-5.2,9.3-5.4,12.7-3.5,5.6,3.3,9,9.8,8.2,20-.1,1.5,0,2.9.8,3.3s1.7-.6,2.4-1.8c4.3-7.6,3-25.7-11-33.8C55.8,7.8,46.2,9.2,42.3,16Z" fill="#fff" opacity="0.5"/><polygon points="90 0 180 0 90 90 90 0" stroke="#fff" stroke-miterlimit="10" fill="url(#linear-gradient-3)"/><path d="M106,47.7a9.8,9.8,0,0,0,12.9-3.3c1.2-2.2,1.7-5.4.3-7-5.2-5.4-5.4-9.3-3.5-12.7,3.3-5.6,9.8-9,20-8.2,1.5.1,2.9,0,3.3-.8s-.6-1.7-1.8-2.4c-7.6-4.3-25.7-3-33.8,11C97.8,34.2,99.2,43.8,106,47.7Z" fill="#fff" opacity="0.5"/><polygon points="180 90 180 0 90 90 180 90" stroke="#fff" stroke-miterlimit="10" fill="url(#linear-gradient-4)"/><path d="M132.3,74a9.8,9.8,0,0,1,3.3-12.9c2.2-1.2,5.4-1.7,7-.3,5.4,5.2,9.3,5.4,12.7,3.5,5.6-3.3,9-9.8,8.2-20-.1-1.5,0-2.9.8-3.3s1.7.6,2.4,1.8c4.3,7.6,3,25.7-11,33.8C145.8,82.2,136.2,80.8,132.3,74Z" fill="#fff" opacity="0.5"/><polygon points="0 90 0 180 90 90 0 90" stroke="#fff" stroke-miterlimit="10" fill="url(#linear-gradient-5)"/><path d="M47.7,106a9.8,9.8,0,0,1-3.3,12.9c-2.2,1.2-5.4,1.7-7,.3-5.4-5.2-9.3-5.4-12.7-3.5-5.6,3.3-9,9.8-8.2,20,.1,1.5,0,2.9-.8,3.3s-1.7-.6-2.4-1.8c-4.3-7.6-3-25.7,11-33.8C34.2,97.8,43.8,99.2,47.7,106Z" fill="#fff" opacity="0.5"/><polygon points="90 180 0 180 90 90 90 180" stroke="#fff" stroke-miterlimit="10" fill="url(#linear-gradient-6)"/><path d="M74,132.3a9.8,9.8,0,0,0-12.9,3.3c-1.2,2.2-1.7,5.4-.3,7,5.2,5.4,5.4,9.3,3.5,12.7-3.3,5.6-9.8,9-20,8.2-1.5-.1-2.9,0-3.3.8s.6,1.7,1.8,2.4c7.6,4.3,25.7,3,33.8-11C82.2,145.8,80.8,136.2,74,132.3Z" fill="#fff" opacity="0.5"/><polygon points="180 90 90 90 180 180 180 90" stroke="#fff" stroke-miterlimit="10" fill="url(#linear-gradient-7)"/><path d="M164,137.7a9.8,9.8,0,0,1-12.9-3.3c-1.2-2.2-1.7-5.4-.3-7,5.2-5.4,5.4-9.3,3.5-12.7-3.3-5.6-9.8-9-20-8.2-1.5.1-2.9,0-3.3-.8s.6-1.7,1.8-2.4c7.6-4.3,25.7-3,33.8,11C172.2,124.2,170.8,133.8,164,137.7Z" fill="#fff" opacity="0.5"/><polygon points="90 180 90 90 180 180 90 180" stroke="#fff" stroke-miterlimit="10" fill="url(#linear-gradient-8)"/><path d="M137.7,164a9.8,9.8,0,0,0-3.3-12.9c-2.2-1.2-5.4-1.7-7-.3-5.4,5.2-9.3,5.4-12.7,3.5-5.6-3.3-9-9.8-8.2-20,.1-1.5,0-2.9-.8-3.3s-1.7.6-2.4,1.8c-4.3,7.6-3,25.7,11,33.8C124.2,172.2,133.8,170.8,137.7,164Z" fill="#fff" opacity="0.5"/><polygon points="180 90 270 90 180 0 180 90" stroke="#fff" stroke-miterlimit="10" fill="url(#linear-gradient-9)"/><path d="M196,42.3a9.8,9.8,0,0,1,12.9,3.3c1.2,2.2,1.7,5.4.3,7-5.2,5.4-5.4,9.3-3.5,12.7,3.3,5.6,9.8,9,20,8.2,1.5-.1,2.9,0,3.3.8s-.6,1.7-1.8,2.4c-7.6,4.3-25.7,3-33.8-11C187.8,55.8,189.2,46.2,196,42.3Z" fill="#fff" opacity="0.5"/><polygon points="270 0 270 90 180 0 270 0" stroke="#fff" stroke-miterlimit="10" fill="url(#linear-gradient-10)"/><path d="M222.3,16a9.8,9.8,0,0,0,3.3,12.9c2.2,1.2,5.4,1.7,7,.3,5.4-5.2,9.3-5.4,12.7-3.5,5.6,3.3,9,9.8,8.2,20-.1,1.5,0,2.9.8,3.3s1.7-.6,2.4-1.8c4.3-7.6,3-25.7-11-33.8C235.8,7.8,226.2,9.2,222.3,16Z" fill="#fff" opacity="0.5"/><polygon points="270 0 360 0 270 90 270 0" stroke="#fff" stroke-miterlimit="10" fill="url(#linear-gradient-11)"/><path d="M286,47.7a9.8,9.8,0,0,0,12.9-3.3c1.2-2.2,1.7-5.4.3-7-5.2-5.4-5.4-9.3-3.5-12.7,3.3-5.6,9.8-9,20-8.2,1.5.1,2.9,0,3.3-.8s-.6-1.7-1.8-2.4c-7.6-4.3-25.7-3-33.8,11C277.8,34.2,279.2,43.8,286,47.7Z" fill="#fff" opacity="0.5"/><polygon points="360 90 360 0 270 90 360 90" stroke="#fff" stroke-miterlimit="10" fill="url(#linear-gradient-12)"/><path d="M312.3,74a9.8,9.8,0,0,1,3.3-12.9c2.2-1.2,5.4-1.7,7-.3,5.4,5.2,9.3,5.4,12.7,3.5,5.6-3.3,9-9.8,8.2-20-.1-1.5,0-2.9.8-3.3s1.7.6,2.4,1.8c4.3,7.6,3,25.7-11,33.8C325.8,82.2,316.2,80.8,312.3,74Z" fill="#fff" opacity="0.5"/><polygon points="0 270 90 270 0 180 0 270" stroke="#fff" stroke-miterlimit="10" fill="url(#linear-gradient-13)"/><path d="M16,222.3a9.8,9.8,0,0,1,12.9,3.3c1.2,2.2,1.7,5.4.3,7-5.2,5.4-5.4,9.3-3.5,12.7,3.3,5.6,9.8,9,20,8.2,1.5-.1,2.9,0,3.3.8s-.6,1.7-1.8,2.4c-7.6,4.3-25.7,3-33.8-11C7.8,235.8,9.2,226.2,16,222.3Z" fill="#fff" opacity="0.5"/><polygon points="90 180 90 270 0 180 90 180" stroke="#fff" stroke-miterlimit="10" fill="url(#linear-gradient-14)"/><path d="M42.3,196a9.8,9.8,0,0,0,3.3,12.9c2.2,1.2,5.4,1.7,7,.3,5.4-5.2,9.3-5.4,12.7-3.5,5.6,3.3,9,9.8,8.2,20-.1,1.5,0,2.9.8,3.3s1.7-.6,2.4-1.8c4.3-7.6,3-25.7-11-33.8C55.8,187.8,46.2,189.2,42.3,196Z" fill="#fff" opacity="0.5"/><polygon points="90 180 180 180 90 270 90 180" stroke="#fff" stroke-miterlimit="10" fill="url(#linear-gradient-15)"/><path d="M106,227.7a9.8,9.8,0,0,0,12.9-3.3c1.2-2.2,1.7-5.4.3-7-5.2-5.4-5.4-9.3-3.5-12.7,3.3-5.6,9.8-9,20-8.2,1.5.1,2.9,0,3.3-.8s-.6-1.7-1.8-2.4c-7.6-4.3-25.7-3-33.8,11C97.8,214.2,99.2,223.8,106,227.7Z" fill="#fff" opacity="0.5"/><polygon points="180 270 180 180 90 270 180 270" stroke="#fff" stroke-miterlimit="10" fill="url(#linear-gradient-16)"/><path d="M132.3,254a9.8,9.8,0,0,1,3.3-12.9c2.2-1.2,5.4-1.7,7-.3,5.4,5.2,9.3,5.4,12.7,3.5,5.6-3.3,9-9.8,8.2-20-.1-1.5,0-2.9.8-3.3s1.7.6,2.4,1.8c4.3,7.6,3,25.7-11,33.8C145.8,262.2,136.2,260.8,132.3,254Z" fill="#fff" opacity="0.5"/><polygon points="180 270 270 270 180 180 180 270" stroke="#fff" stroke-miterlimit="10" fill="url(#linear-gradient-17)"/><path d="M196,222.3a9.8,9.8,0,0,1,12.9,3.3c1.2,2.2,1.7,5.4.3,7-5.2,5.4-5.4,9.3-3.5,12.7,3.3,5.6,9.8,9,20,8.2,1.5-.1,2.9,0,3.3.8s-.6,1.7-1.8,2.4c-7.6,4.3-25.7,3-33.8-11C187.8,235.8,189.2,226.2,196,222.3Z" fill="#fff" opacity="0.5"/><polygon points="270 180 270 270 180 180 270 180" stroke="#fff" stroke-miterlimit="10" fill="url(#linear-gradient-18)"/><path d="M222.3,196a9.8,9.8,0,0,0,3.3,12.9c2.2,1.2,5.4,1.7,7,.3,5.4-5.2,9.3-5.4,12.7-3.5,5.6,3.3,9,9.8,8.2,20-.1,1.5,0,2.9.8,3.3s1.7-.6,2.4-1.8c4.3-7.6,3-25.7-11-33.8C235.8,187.8,226.2,189.2,222.3,196Z" fill="#fff" opacity="0.5"/><polygon points="270 180 360 180 270 270 270 180" stroke="#fff" stroke-miterlimit="10" fill="url(#linear-gradient-19)"/><path d="M286,227.7a9.8,9.8,0,0,0,12.9-3.3c1.2-2.2,1.7-5.4.3-7-5.2-5.4-5.4-9.3-3.5-12.7,3.3-5.6,9.8-9,20-8.2,1.5.1,2.9,0,3.3-.8s-.6-1.7-1.8-2.4c-7.6-4.3-25.7-3-33.8,11C277.8,214.2,279.2,223.8,286,227.7Z" fill="#fff" opacity="0.5"/><polygon points="360 270 360 180 270 270 360 270" stroke="#fff" stroke-miterlimit="10" fill="url(#linear-gradient-20)"/><path d="M312.3,254a9.8,9.8,0,0,1,3.3-12.9c2.2-1.2,5.4-1.7,7-.3,5.4,5.2,9.3,5.4,12.7,3.5,5.6-3.3,9-9.8,8.2-20-.1-1.5,0-2.9.8-3.3s1.7.6,2.4,1.8c4.3,7.6,3,25.7-11,33.8C325.8,262.2,316.2,260.8,312.3,254Z" fill="#fff" opacity="0.5"/><polygon points="180 90 180 180 270 90 180 90" stroke="#fff" stroke-miterlimit="10" fill="url(#linear-gradient-21)"/><path d="M227.7,106a9.8,9.8,0,0,1-3.3,12.9c-2.2,1.2-5.4,1.7-7,.3-5.4-5.2-9.3-5.4-12.7-3.5-5.6,3.3-9,9.8-8.2,20,.1,1.5,0,2.9-.8,3.3s-1.7-.6-2.4-1.8c-4.3-7.6-3-25.7,11-33.8C214.2,97.8,223.8,99.2,227.7,106Z" fill="#fff" opacity="0.5"/><polygon points="270 180 180 180 270 90 270 180" stroke="#fff" stroke-miterlimit="10" fill="url(#linear-gradient-22)"/><path d="M254,132.3a9.8,9.8,0,0,0-12.9,3.3c-1.2,2.2-1.7,5.4-.3,7,5.2,5.4,5.4,9.3,3.5,12.7-3.3,5.6-9.8,9-20,8.2-1.5-.1-2.9,0-3.3.8s.6,1.7,1.8,2.4c7.6,4.3,25.7,3,33.8-11C262.2,145.8,260.8,136.2,254,132.3Z" fill="#fff" opacity="0.5"/><polygon points="360 90 270 90 360 180 360 90" stroke="#fff" stroke-miterlimit="10" fill="url(#linear-gradient-23)"/><path d="M344,137.7a9.8,9.8,0,0,1-12.9-3.3c-1.2-2.2-1.7-5.4-.3-7,5.2-5.4,5.4-9.3,3.5-12.7-3.3-5.6-9.8-9-20-8.2-1.5.1-2.9,0-3.3-.8s.6-1.7,1.8-2.4c7.6-4.3,25.7-3,33.8,11C352.2,124.2,350.8,133.8,344,137.7Z" fill="#fff" opacity="0.5"/><polygon points="270 180 270 90 360 180 270 180" stroke="#fff" stroke-miterlimit="10" fill="url(#linear-gradient-24)"/><path d="M317.7,164a9.8,9.8,0,0,0-3.3-12.9c-2.2-1.2-5.4-1.7-7-.3-5.4,5.2-9.3,5.4-12.7,3.5-5.6-3.3-9-9.8-8.2-20,.1-1.5,0-2.9-.8-3.3s-1.7.6-2.4,1.8c-4.3,7.6-3,25.7,11,33.8C304.2,172.2,313.8,170.8,317.7,164Z" fill="#fff" opacity="0.5"/></svg>