<svg id="Layer_1" data-name="Layer 1" xmlns="http://www.w3.org/2000/svg" xmlns:xlink="http://www.w3.org/1999/xlink" viewBox="0 0 360 240"><defs><linearGradient id="linear-gradient" x1="69.28" y1="100" x2="207.85" y2="100" gradientUnits="userSpaceOnUse"><stop offset="0" stop-color="#31b304"/><stop offset="1" stop-color="#b30469"/></linearGradient><linearGradient id="linear-gradient-2" x1="4.54" y1="79.7" x2="143.11" y2="79.7" gradientTransform="translate(123.8 173.8) rotate(-120)" xlink:href="#linear-gradient"/><linearGradient id="linear-gradient-3" x1="64.94" y1="165.87" x2="203.5" y2="165.87" gradientTransform="matrix(-0.5, 0.87, -0.87, -0.5, 332, 36.7)" xlink:href="#linear-gradient"/><linearGradient id="linear-gradient-4" x1="120.14" y1="102.24" x2="258.7" y2="102.24" gradientTransform="translate(41.9 162.9) rotate(-60)" xlink:href="#linear-gradient"/><linearGradient id="linear-gradient-5" x1="-22.82" y1="122.62" x2="115.74" y2="122.62" gradientTransform="translate(254.3 142.6) rotate(180)" xlink:href="#linear-gradient"/><linearGradient id="linear-gradient-6" x1="41.45" y1="120.71" x2="180.01" y2="120.71" gradientTransform="translate(239.7 -106.3) rotate(60)" xlink:href="#linear-gradient"/><linearGradient id="linear-gradient-7" x1="0" y1="220" x2="138.56" y2="220" xlink:href="#linear-gradient"/><linearGradient id="linear-gradient-8" x1="-64.74" y1="-40.3" x2="73.82" y2="-40.3" gradientTransform="translate(123.8 173.8) rotate(-120)" xlink:href="#linear-gradient"/><linearGradient id="linear-gradient-9" x1="203.5" y1="165.87" x2="342.07" y2="165.87" gradientTransform="matrix(-0.5, 0.87, -0.87, -0.5, 332, 36.7)" xlink:href="#linear-gradient"/><linearGradient id="linear-gradient-10" x1="-18.43" y1="102.24" x2="120.14" y2="102.24" gradientTransform="translate(41.9 162.9) rotate(-60)" xlink:href="#linear-gradient"/><linearGradient id="linear-gradient-11" x1="46.46" y1="2.62" x2="185.02" y2="2.62" gradientTransform="translate(254.3 142.6) rotate(180)" xlink:href="#linear-gradient"/><linearGradient id="linear-gradient-12" x1="110.73" y1="240.71" x2="249.29" y2="240.71" gradientTransform="translate(239.7 -106.3) rotate(60)" xlink:href="#linear-gradient"/><linearGradient id="linear-gradient-13" x1="207.85" y1="100" x2="346.41" y2="100" xlink:href="#linear-gradient"/><linearGradient id="linear-gradient-14" x1="-64.74" y1="199.7" x2="73.82" y2="199.7" gradientTransform="translate(123.8 173.8) rotate(-120)" xlink:href="#linear-gradient"/><linearGradient id="linear-gradient-15" x1="-4.34" y1="45.87" x2="134.22" y2="45.87" gradientTransform="matrix(-0.5, 0.87, -0.87, -0.5, 332, 36.7)" xlink:href="#linear-gradient"/><linearGradient id="linear-gradient-16" x1="189.42" y1="222.24" x2="327.98" y2="222.24" gradientTransform="translate(41.9 162.9) rotate(-60)" xlink:href="#linear-gradient"/><linearGradient id="linear-gradient-17" x1="-161.39" y1="122.62" x2="-22.82" y2="122.62" gradientTransform="translate(254.3 142.6) rotate(180)" xlink:href="#linear-gradient"/><linearGradient id="linear-gradient-18" x1="110.73" y1="0.71" x2="249.29" y2="0.71" gradientTransform="translate(239.7 -106.3) rotate(60)" xlink:href="#linear-gradient"/><linearGradient id="linear-gradient-19" x1="138.56" y1="220" x2="277.13" y2="220" xlink:href="#linear-gradient"/><linearGradient id="linear-gradient-20" x1="-134.02" y1="79.7" x2="4.54" y2="79.7" gradientTransform="translate(123.8 173.8) rotate(-120)" xlink:href="#linear-gradient"/><linearGradient id="linear-gradient-21" x1="134.22" y1="45.87" x2="272.78" y2="45.87" gradientTransform="matrix(-0.5, 0.87, -0.87, -0.5, 332, 36.7)" xlink:href="#linear-gradient"/><linearGradient id="linear-gradient-22" x1="50.86" y1="222.24" x2="189.42" y2="222.24" gradientTransform="translate(41.9 162.9) rotate(-60)" xlink:href="#linear-gradient"/><linearGradient id="linear-gradient-23" x1="-92.1" y1="2.62" x2="46.46" y2="2.62" gradientTransform="translate(254.3 142.6) rotate(180)" xlink:href="#linear-gradient"/><linearGradient id="linear-gradient-24" x1="180.01" y1="120.71" x2="318.58" y2="120.71" gradientTransform="translate(239.7 -106.3) rotate(60)" xlink:href="#linear-gradient"/><linearGradient id="linear-gradient-25" x1="346.41" y1="100" x2="484.97" y2="100" xlink:href="#linear-gradient"/><linearGradient id="linear-gradient-26" x1="-73.63" y1="-74.13" x2="64.94" y2="-74.13" gradientTransform="matrix(-0.5, 0.87, -0.87, -0.5, 332, 36.7)" xlink:href="#linear-gradient"/><linearGradient id="linear-gradient-27" x1="277.13" y1="220" x2="415.69" y2="220" xlink:href="#linear-gradient"/><linearGradient id="linear-gradient-28" x1="-203.3" y1="199.7" x2="-64.74" y2="199.7" gradientTransform="translate(123.8 173.8) rotate(-120)" xlink:href="#linear-gradient"/><linearGradient id="linear-gradient-29" x1="64.94" y1="-74.13" x2="203.5" y2="-74.13" gradientTransform="matrix(-0.5, 0.87, -0.87, -0.5, 332, 36.7)" xlink:href="#linear-gradient"/><linearGradient id="linear-gradient-30" x1="-230.67" y1="2.62" x2="-92.1" y2="2.62" gradientTransform="translate(254.3 142.6) rotate(180)" xlink:href="#linear-gradient"/><linearGradient id="linear-gradient-31" x1="249.29" y1="0.71" x2="387.86" y2="0.71" gradientTransform="translate(239.7 -106.3) rotate(60)" xlink:href="#linear-gradient"/><linearGradient id="linear-gradient-32" x1="-69.28" y1="100" x2="69.28" y2="100" xlink:href="#linear-gradient"/><linearGradient id="linear-gradient-33" x1="73.82" y1="-40.3" x2="212.39" y2="-40.3" gradientTransform="translate(123.8 173.8) rotate(-120)" xlink:href="#linear-gradient"/><linearGradient id="linear-gradient-34" x1="50.86" y1="-17.76" x2="189.42" y2="-17.76" gradientTransform="translate(41.9 162.9) rotate(-60)" xlink:href="#linear-gradient"/><linearGradient id="linear-gradient-35" x1="115.74" y1="122.62" x2="254.31" y2="122.62" gradientTransform="translate(254.3 142.6) rotate(180)" xlink:href="#linear-gradient"/><linearGradient id="linear-gradient-36" x1="-27.83" y1="240.71" x2="110.73" y2="240.71" gradientTransform="translate(239.7 -106.3) rotate(60)" xlink:href="#linear-gradient"/><linearGradient id="linear-gradient-37" x1="-87.71" y1="-17.76" x2="50.86" y2="-17.76" gradientTransform="translate(41.9 162.9) rotate(-60)" xlink:href="#linear-gradient"/><linearGradient id="linear-gradient-38" x1="185.02" y1="2.62" x2="323.59" y2="2.62" gradientTransform="translate(254.3 142.6) rotate(180)" xlink:href="#linear-gradient"/></defs><title>p6</title><polygon points="138.6 80 69.3 120 207.8 120 138.6 80" stroke="#fff" stroke-miterlimit="10" fill="url(#linear-gradient)"/><path d="M152,98.3a7,7,0,0,0-8.1-4.8c-1.8.5-3.6,1.9-3.7,3.4-.1,5.3-2,7.4-4.7,8.1-4.4,1.2-9.4-.4-14.2-5.9-.7-.8-1.4-1.5-2-1.3s-.6,1.1-.3,2.1c1.6,6,11.4,14.5,22.5,11.5C149.3,109.3,153.4,103.7,152,98.3Z" fill="#fff" opacity="0.5"/><polygon points="138.6 80 207.8 120 138.6 0 138.6 80" stroke="#fff" stroke-miterlimit="10" fill="url(#linear-gradient-2)"/><path d="M147.7,59.2a7.1,7.1,0,0,0-.1,9.5c1.3,1.2,3.4,2.2,4.8,1.5,4.7-2.6,7.3-2,9.3-.1s4.4,8.4,2,15.3c-.3,1-.6,2-.1,2.4s1.3-.1,2-.8c4.4-4.4,6.8-17.1-1.3-25.2C158.6,56.1,151.7,55.3,147.7,59.2Z" fill="#fff" opacity="0.5"/><polygon points="138.6 80 138.6 0 69.3 120 138.6 80" stroke="#fff" stroke-miterlimit="10" fill="url(#linear-gradient-3)"/><path d="M116,82.4a6.8,6.8,0,0,0,8.2-4.6c.5-1.7.2-4-1.1-4.9-4.5-2.7-5.4-5.3-4.6-8,1.1-4.5,5-8,12.2-9.4,1-.2,2-.5,2.1-1.1s-.7-1-1.7-1.3c-6-1.6-18.2,2.6-21.2,13.8C107.8,74.6,110.6,81,116,82.4Z" fill="#fff" opacity="0.5"/><polygon points="207.8 40 207.8 120 277.1 0 207.8 40" stroke="#fff" stroke-miterlimit="10" fill="url(#linear-gradient-4)"/><path d="M230.4,37.6a6.8,6.8,0,0,0-8.2,4.6c-.5,1.7-.2,4,1.1,4.9,4.5,2.7,5.4,5.3,4.7,8-1.2,4.5-5.1,8-12.2,9.4-1.1.2-2,.5-2.2,1.1s.7,1,1.7,1.3c6,1.6,18.2-2.6,21.2-13.8C238.6,45.4,235.8,39,230.4,37.6Z" fill="#fff" opacity="0.5"/><polygon points="207.8 40 277.1 0 138.6 0 207.8 40" stroke="#fff" stroke-miterlimit="10" fill="url(#linear-gradient-5)"/><path d="M194.5,21.7a6.9,6.9,0,0,0,8.1,4.8c1.7-.5,3.6-1.9,3.6-3.4.2-5.3,2-7.4,4.7-8.1,4.4-1.2,9.5.4,14.2,5.9.7.8,1.4,1.5,2,1.3s.6-1.1.3-2.1c-1.6-6-11.4-14.5-22.5-11.5C197.1,10.7,193,16.3,194.5,21.7Z" fill="#fff" opacity="0.5"/><polygon points="207.8 40 138.6 0 207.8 120 207.8 40" stroke="#fff" stroke-miterlimit="10" fill="url(#linear-gradient-6)"/><path d="M198.7,60.8a7.1,7.1,0,0,0,.1-9.5c-1.3-1.2-3.4-2.2-4.8-1.5-4.7,2.6-7.3,2-9.3.1s-4.4-8.4-2-15.3c.3-1,.6-2,.1-2.4s-1.3.1-2,.8c-4.4,4.4-6.8,17.1,1.3,25.2C187.8,63.9,194.7,64.7,198.7,60.8Z" fill="#fff" opacity="0.5"/><polygon points="69.3 200 0 240 138.6 240 69.3 200" stroke="#fff" stroke-miterlimit="10" fill="url(#linear-gradient-7)"/><path d="M82.7,218.3a6.9,6.9,0,0,0-8.1-4.8c-1.8.5-3.6,1.9-3.7,3.4-.1,5.3-2,7.4-4.7,8.1-4.4,1.2-9.4-.4-14.2-5.9-.7-.8-1.4-1.5-2-1.3s-.6,1.1-.3,2.1c1.6,6,11.4,14.5,22.5,11.5C80,229.3,84.1,223.7,82.7,218.3Z" fill="#fff" opacity="0.5"/><polygon points="69.3 200 138.6 240 69.3 120 69.3 200" stroke="#fff" stroke-miterlimit="10" fill="url(#linear-gradient-8)"/><path d="M78.5,179.2a6.9,6.9,0,0,0-.1,9.5c1.2,1.2,3.3,2.2,4.7,1.5,4.7-2.6,7.4-2,9.3-.1s4.5,8.4,2,15.3c-.3,1-.5,2-.1,2.4s1.3-.1,2-.8c4.4-4.4,6.8-17.1-1.3-25.2C89.3,176.1,82.4,175.3,78.5,179.2Z" fill="#fff" opacity="0.5"/><polygon points="69.3 200 69.3 120 0 240 69.3 200" stroke="#fff" stroke-miterlimit="10" fill="url(#linear-gradient-9)"/><path d="M46.7,202.4a6.8,6.8,0,0,0,8.2-4.6c.5-1.7.2-4-1.1-4.9-4.5-2.7-5.3-5.3-4.6-8,1.2-4.5,5-8,12.2-9.4,1-.2,2-.5,2.1-1.1s-.7-1-1.7-1.3c-6-1.6-18.2,2.6-21.2,13.8C38.6,194.6,41.3,201,46.7,202.4Z" fill="#fff" opacity="0.5"/><polygon points="138.6 160 138.6 240 207.8 120 138.6 160" stroke="#fff" stroke-miterlimit="10" fill="url(#linear-gradient-10)"/><path d="M161.1,157.6a6.9,6.9,0,0,0-8.2,4.6c-.4,1.7-.2,4,1.1,4.9,4.6,2.7,5.4,5.3,4.7,8-1.2,4.5-5.1,8-12.2,9.4-1.1.2-2,.5-2.2,1.1s.7,1,1.7,1.3c6,1.6,18.2-2.6,21.2-13.8C169.3,165.4,166.5,159,161.1,157.6Z" fill="#fff" opacity="0.5"/><polygon points="138.6 160 207.8 120 69.3 120 138.6 160" stroke="#fff" stroke-miterlimit="10" fill="url(#linear-gradient-11)"/><path d="M125.2,141.7a6.9,6.9,0,0,0,8.1,4.8c1.7-.5,3.6-1.9,3.7-3.4.1-5.3,1.9-7.4,4.6-8.1,4.5-1.2,9.5.4,14.2,5.9.7.8,1.4,1.5,2.1,1.3s.5-1.1.2-2.1c-1.6-6-11.4-14.5-22.5-11.5C127.8,130.7,123.7,136.3,125.2,141.7Z" fill="#fff" opacity="0.5"/><polygon points="138.6 160 69.3 120 138.6 240 138.6 160" stroke="#fff" stroke-miterlimit="10" fill="url(#linear-gradient-12)"/><path d="M129.4,180.8a7.1,7.1,0,0,0,.1-9.5c-1.3-1.2-3.4-2.2-4.8-1.5-4.6,2.6-7.3,2-9.3.1s-4.4-8.4-2-15.3c.4-1,.6-2,.1-2.4s-1.3.1-1.9.8c-4.5,4.4-6.9,17.1,1.3,25.2C118.6,183.9,125.4,184.7,129.4,180.8Z" fill="#fff" opacity="0.5"/><polygon points="277.1 80 207.8 120 346.4 120 277.1 80" stroke="#fff" stroke-miterlimit="10" fill="url(#linear-gradient-13)"/><path d="M290.5,98.3a6.9,6.9,0,0,0-8.1-4.8c-1.7.5-3.6,1.9-3.7,3.4-.1,5.3-1.9,7.4-4.6,8.1-4.5,1.2-9.5-.4-14.2-5.9-.7-.8-1.4-1.5-2.1-1.3s-.5,1.1-.2,2.1c1.6,6,11.3,14.5,22.5,11.5C287.8,109.3,292,103.7,290.5,98.3Z" fill="#fff" opacity="0.5"/><polygon points="277.1 80 346.4 120 277.1 0 277.1 80" stroke="#fff" stroke-miterlimit="10" fill="url(#linear-gradient-14)"/><path d="M286.3,59.2a7,7,0,0,0-.1,9.5c1.3,1.2,3.4,2.2,4.8,1.5,4.6-2.6,7.3-2,9.3-.1s4.4,8.4,2,15.3c-.4,1-.6,2-.1,2.4s1.2-.1,1.9-.8c4.5-4.4,6.9-17.1-1.3-25.2C297.1,56.1,290.3,55.3,286.3,59.2Z" fill="#fff" opacity="0.5"/><polygon points="277.1 80 277.1 0 207.8 120 277.1 80" stroke="#fff" stroke-miterlimit="10" fill="url(#linear-gradient-15)"/><path d="M254.5,82.4a6.9,6.9,0,0,0,8.3-4.6c.4-1.7.2-4-1.1-4.9-4.6-2.7-5.4-5.3-4.7-8,1.2-4.5,5.1-8,12.2-9.4,1.1-.2,2-.5,2.2-1.1s-.8-1-1.7-1.3c-6-1.6-18.2,2.6-21.2,13.8C246.4,74.6,249.1,81,254.5,82.4Z" fill="#fff" opacity="0.5"/><polygon points="346.4 40 346.4 120 415.7 0 346.4 40" stroke="#fff" stroke-miterlimit="10" fill="url(#linear-gradient-16)"/><path d="M369,37.6a6.8,6.8,0,0,0-8.2,4.6c-.5,1.7-.2,4,1.1,4.9,4.5,2.7,5.3,5.3,4.6,8-1.2,4.5-5,8-12.2,9.4-1.1.2-2,.5-2.1,1.1s.7,1,1.6,1.3c6.1,1.6,18.3-2.6,21.2-13.8C377.1,45.4,374.4,39,369,37.6Z" fill="#fff" opacity="0.5"/><polygon points="346.4 40 415.7 0 277.1 0 346.4 40" stroke="#fff" stroke-miterlimit="10" fill="url(#linear-gradient-17)"/><path d="M333,21.7a6.9,6.9,0,0,0,8.1,4.8c1.8-.5,3.6-1.9,3.7-3.4.1-5.3,2-7.4,4.7-8.1,4.4-1.2,9.4.4,14.1,5.9.8.8,1.5,1.5,2.1,1.3s.5-1.1.3-2.1c-1.6-6-11.4-14.5-22.5-11.5C335.7,10.7,331.6,16.3,333,21.7Z" fill="#fff" opacity="0.5"/><polygon points="346.4 40 277.1 0 346.4 120 346.4 40" stroke="#fff" stroke-miterlimit="10" fill="url(#linear-gradient-18)"/><path d="M337.2,60.8a6.9,6.9,0,0,0,.1-9.5c-1.2-1.2-3.3-2.2-4.7-1.5-4.7,2.6-7.4,2-9.3.1s-4.5-8.4-2-15.3c.3-1,.5-2,.1-2.4s-1.3.1-2,.8c-4.4,4.4-6.8,17.1,1.3,25.2C326.4,63.9,333.3,64.7,337.2,60.8Z" fill="#fff" opacity="0.5"/><polygon points="207.8 200 138.6 240 277.1 240 207.8 200" stroke="#fff" stroke-miterlimit="10" fill="url(#linear-gradient-19)"/><path d="M221.2,218.3a6.9,6.9,0,0,0-8.1-4.8c-1.7.5-3.6,1.9-3.7,3.4-.1,5.3-1.9,7.4-4.6,8.1-4.4,1.2-9.5-.4-14.2-5.9-.7-.8-1.4-1.5-2-1.3s-.6,1.1-.3,2.1c1.6,6,11.4,14.5,22.5,11.5C218.6,229.3,222.7,223.7,221.2,218.3Z" fill="#fff" opacity="0.5"/><polygon points="207.8 200 277.1 240 207.8 120 207.8 200" stroke="#fff" stroke-miterlimit="10" fill="url(#linear-gradient-20)"/><path d="M217,179.2a7.1,7.1,0,0,0-.1,9.5c1.3,1.2,3.4,2.2,4.8,1.5,4.6-2.6,7.3-2,9.3-.1s4.4,8.4,2,15.3c-.4,1-.6,2-.1,2.4s1.3-.1,2-.8c4.4-4.4,6.8-17.1-1.4-25.2C227.8,176.1,221,175.3,217,179.2Z" fill="#fff" opacity="0.5"/><polygon points="207.8 200 207.8 120 138.6 240 207.8 200" stroke="#fff" stroke-miterlimit="10" fill="url(#linear-gradient-21)"/><path d="M185.3,202.4a6.9,6.9,0,0,0,8.2-4.6c.4-1.7.2-4-1.1-4.9-4.5-2.7-5.4-5.3-4.7-8,1.2-4.5,5.1-8,12.2-9.4,1.1-.2,2-.5,2.2-1.1s-.7-1-1.7-1.3c-6-1.6-18.2,2.6-21.2,13.8C177.1,194.6,179.9,201,185.3,202.4Z" fill="#fff" opacity="0.5"/><polygon points="277.1 160 277.1 240 346.4 120 277.1 160" stroke="#fff" stroke-miterlimit="10" fill="url(#linear-gradient-22)"/><path d="M299.7,157.6a6.8,6.8,0,0,0-8.2,4.6c-.5,1.7-.2,4,1.1,4.9,4.5,2.7,5.4,5.3,4.6,8-1.2,4.5-5,8-12.2,9.4-1,.2-2,.5-2.1,1.1s.7,1,1.7,1.3c6,1.6,18.2-2.6,21.2-13.8C307.8,165.4,305.1,159,299.7,157.6Z" fill="#fff" opacity="0.5"/><polygon points="277.1 160 346.4 120 207.8 120 277.1 160" stroke="#fff" stroke-miterlimit="10" fill="url(#linear-gradient-23)"/><path d="M263.7,141.7a6.9,6.9,0,0,0,8.1,4.8c1.8-.5,3.6-1.9,3.7-3.4.1-5.3,2-7.4,4.7-8.1,4.4-1.2,9.4.4,14.2,5.9.7.8,1.4,1.5,2,1.3s.6-1.1.3-2.1c-1.6-6-11.4-14.5-22.5-11.5C266.4,130.7,262.3,136.3,263.7,141.7Z" fill="#fff" opacity="0.5"/><polygon points="277.1 160 207.8 120 277.1 240 277.1 160" stroke="#fff" stroke-miterlimit="10" fill="url(#linear-gradient-24)"/><path d="M267.9,180.8a6.9,6.9,0,0,0,.1-9.5c-1.2-1.2-3.3-2.2-4.7-1.5-4.7,2.6-7.3,2-9.3.1s-4.5-8.4-2-15.3c.3-1,.6-2,.1-2.4s-1.3.1-2,.8c-4.4,4.4-6.8,17.1,1.3,25.2C257.1,183.9,264,184.7,267.9,180.8Z" fill="#fff" opacity="0.5"/><polygon points="415.7 80 346.4 120 485 120 415.7 80" stroke="#fff" stroke-miterlimit="10" fill="url(#linear-gradient-25)"/><polygon points="415.7 80 415.7 0 346.4 120 415.7 80" stroke="#fff" stroke-miterlimit="10" fill="url(#linear-gradient-26)"/><polygon points="346.4 200 277.1 240 415.7 240 346.4 200" stroke="#fff" stroke-miterlimit="10" fill="url(#linear-gradient-27)"/><path d="M359.8,218.3a6.9,6.9,0,0,0-8.1-4.8c-1.7.5-3.6,1.9-3.7,3.4-.1,5.3-1.9,7.4-4.6,8.1-4.5,1.2-9.5-.4-14.2-5.9-.8-.8-1.4-1.5-2.1-1.3s-.5,1.1-.3,2.1c1.7,6,11.4,14.5,22.5,11.5C357.1,229.3,361.3,223.7,359.8,218.3Z" fill="#fff" opacity="0.5"/><polygon points="346.4 200 415.7 240 346.4 120 346.4 200" stroke="#fff" stroke-miterlimit="10" fill="url(#linear-gradient-28)"/><path d="M355.6,179.2a7,7,0,0,0-.1,9.5c1.3,1.2,3.4,2.2,4.8,1.5,4.6-2.6,7.3-2,9.3-.1s4.4,8.4,2,15.3c-.4,1-.6,2-.2,2.4s1.3-.1,2-.8c4.4-4.4,6.9-17.1-1.3-25.2C366.4,176.1,359.5,175.3,355.6,179.2Z" fill="#fff" opacity="0.5"/><polygon points="346.4 200 346.4 120 277.1 240 346.4 200" stroke="#fff" stroke-miterlimit="10" fill="url(#linear-gradient-29)"/><path d="M323.8,202.4a6.8,6.8,0,0,0,8.2-4.6c.5-1.7.3-4-1-4.9-4.6-2.7-5.4-5.3-4.7-8,1.2-4.5,5-8,12.2-9.4,1.1-.2,2-.5,2.2-1.1s-.8-1-1.7-1.3c-6.1-1.6-18.3,2.6-21.2,13.8C315.7,194.6,318.4,201,323.8,202.4Z" fill="#fff" opacity="0.5"/><polygon points="415.7 160 485 120 346.4 120 415.7 160" stroke="#fff" stroke-miterlimit="10" fill="url(#linear-gradient-30)"/><polygon points="415.7 160 346.4 120 415.7 240 415.7 160" stroke="#fff" stroke-miterlimit="10" fill="url(#linear-gradient-31)"/><polygon points="0 80 -69.3 120 69.3 120 0 80" stroke="#fff" stroke-miterlimit="10" fill="url(#linear-gradient-32)"/><path d="M13.4,98.3a6.9,6.9,0,0,0-8.1-4.8c-1.8.5-3.6,1.9-3.7,3.4-.1,5.3-1.9,7.4-4.6,8.1-4.5,1.2-9.5-.4-14.2-5.9-.8-.8-1.5-1.5-2.1-1.3s-.5,1.1-.3,2.1c1.6,6,11.4,14.5,22.5,11.5C10.7,109.3,14.8,103.7,13.4,98.3Z" fill="#fff" opacity="0.5"/><polygon points="0 80 69.3 120 0 0 0 80" stroke="#fff" stroke-miterlimit="10" fill="url(#linear-gradient-33)"/><path d="M9.2,59.2a6.9,6.9,0,0,0-.1,9.5c1.3,1.2,3.4,2.2,4.7,1.5,4.7-2.6,7.4-2,9.4-.1s4.4,8.4,1.9,15.3c-.3,1-.5,2-.1,2.4s1.3-.1,2-.8c4.4-4.4,6.9-17.1-1.3-25.2C20,56.1,13.1,55.3,9.2,59.2Z" fill="#fff" opacity="0.5"/><polygon points="69.3 40 69.3 120 138.6 0 69.3 40" stroke="#fff" stroke-miterlimit="10" fill="url(#linear-gradient-34)"/><path d="M91.9,37.6a6.9,6.9,0,0,0-8.3,4.6c-.4,1.7-.2,4,1.1,4.9,4.6,2.7,5.4,5.3,4.7,8-1.2,4.5-5,8-12.2,9.4-1.1.2-2,.5-2.2,1.1s.8,1,1.7,1.3c6.1,1.6,18.3-2.6,21.2-13.8C100,45.4,97.3,39,91.9,37.6Z" fill="#fff" opacity="0.5"/><polygon points="69.3 40 138.6 0 0 0 69.3 40" stroke="#fff" stroke-miterlimit="10" fill="url(#linear-gradient-35)"/><path d="M55.9,21.7A6.9,6.9,0,0,0,64,26.5c1.7-.5,3.6-1.9,3.7-3.4.1-5.3,1.9-7.4,4.6-8.1,4.5-1.2,9.5.4,14.2,5.9.8.8,1.4,1.5,2.1,1.3s.5-1.1.3-2.1c-1.7-6-11.4-14.5-22.6-11.5C58.6,10.7,54.4,16.3,55.9,21.7Z" fill="#fff" opacity="0.5"/><polygon points="69.3 40 0 0 69.3 120 69.3 40" stroke="#fff" stroke-miterlimit="10" fill="url(#linear-gradient-36)"/><path d="M60.1,60.8a7,7,0,0,0,.1-9.5c-1.3-1.2-3.4-2.2-4.8-1.5-4.6,2.6-7.3,2-9.3.1s-4.4-8.4-2-15.3c.4-1,.6-2,.1-2.4s-1.2.1-1.9.8c-4.4,4.4-6.9,17.1,1.3,25.2C49.3,63.9,56.1,64.7,60.1,60.8Z" fill="#fff" opacity="0.5"/><polygon points="0 160 0 240 69.3 120 0 160" stroke="#fff" stroke-miterlimit="10" fill="url(#linear-gradient-37)"/><path d="M22.6,157.6a6.8,6.8,0,0,0-8.2,4.6c-.5,1.7-.3,4,1,4.9,4.6,2.7,5.4,5.3,4.7,8-1.2,4.5-5,8-12.2,9.4-1.1.2-2,.5-2.2,1.1s.8,1,1.7,1.3c6.1,1.6,18.3-2.6,21.2-13.8C30.7,165.4,28,159,22.6,157.6Z" fill="#fff" opacity="0.5"/><polygon points="0 160 69.3 120 -69.3 120 0 160" stroke="#fff" stroke-miterlimit="10" fill="url(#linear-gradient-38)"/><path d="M-13.4,141.7a6.9,6.9,0,0,0,8.1,4.8c1.8-.5,3.6-1.9,3.7-3.4.1-5.3,1.9-7.4,4.6-8.1,4.5-1.2,9.5.4,14.2,5.9.8.8,1.5,1.5,2.1,1.3s.5-1.1.3-2.1c-1.6-6-11.4-14.5-22.5-11.5C-10.7,130.7-14.8,136.3-13.4,141.7Z" fill="#fff" opacity="0.5"/></svg>