<svg id="Layer_1" data-name="Layer 1" xmlns="http://www.w3.org/2000/svg" xmlns:xlink="http://www.w3.org/1999/xlink" viewBox="0 0 360 240"><defs><linearGradient id="linear-gradient" x1="7.5" y1="67.5" x2="82.5" y2="-7.5" gradientUnits="userSpaceOnUse"><stop offset="0" stop-color="#31b304"/><stop offset="1" stop-color="#ff941f"/></linearGradient><linearGradient id="linear-gradient-2" x1="97.5" y1="-82.5" x2="172.5" y2="-157.5" gradientTransform="matrix(1, 0, 0, -1, 0, -90)" xlink:href="#linear-gradient"/><linearGradient id="linear-gradient-3" x1="7.5" y1="127.5" x2="82.5" y2="52.5" xlink:href="#linear-gradient"/><linearGradient id="linear-gradient-4" x1="97.5" y1="-142.5" x2="172.5" y2="-217.5" gradientTransform="matrix(1, 0, 0, -1, 0, -90)" xlink:href="#linear-gradient"/><linearGradient id="linear-gradient-5" x1="7.5" y1="187.5" x2="82.5" y2="112.5" xlink:href="#linear-gradient"/><linearGradient id="linear-gradient-6" x1="97.5" y1="-202.5" x2="172.5" y2="-277.5" gradientTransform="matrix(1, 0, 0, -1, 0, -90)" xlink:href="#linear-gradient"/><linearGradient id="linear-gradient-7" x1="7.5" y1="247.5" x2="82.5" y2="172.5" xlink:href="#linear-gradient"/><linearGradient id="linear-gradient-8" x1="97.5" y1="-262.5" x2="172.5" y2="-337.5" gradientTransform="matrix(1, 0, 0, -1, 0, -90)" xlink:href="#linear-gradient"/><linearGradient id="linear-gradient-9" x1="188.07" x2="263.07" y2="-7.5" xlink:href="#linear-gradient"/><linearGradient id="linear-gradient-10" x1="278.07" y1="-82.5" x2="353.07" y2="-157.5" gradientTransform="matrix(1, 0, 0, -1, 0, -90)" xlink:href="#linear-gradient"/><linearGradient id="linear-gradient-11" x1="188.07" y1="127.5" x2="263.07" y2="52.5" xlink:href="#linear-gradient"/><linearGradient id="linear-gradient-12" x1="278.07" y1="-142.5" x2="353.07" y2="-217.5" gradientTransform="matrix(1, 0, 0, -1, 0, -90)" xlink:href="#linear-gradient"/><linearGradient id="linear-gradient-13" x1="188.07" y1="187.5" x2="263.07" y2="112.5" xlink:href="#linear-gradient"/><linearGradient id="linear-gradient-14" x1="278.07" y1="-202.5" x2="353.07" y2="-277.5" gradientTransform="matrix(1, 0, 0, -1, 0, -90)" xlink:href="#linear-gradient"/><linearGradient id="linear-gradient-15" x1="188.07" y1="247.5" x2="263.07" y2="172.5" xlink:href="#linear-gradient"/><linearGradient id="linear-gradient-16" x1="278.07" y1="-262.5" x2="353.07" y2="-337.5" gradientTransform="matrix(1, 0, 0, -1, 0, -90)" xlink:href="#linear-gradient"/></defs><title>pg</title><rect width="90" height="60" stroke="#fff" stroke-miterlimit="10" fill="url(#linear-gradient)"/><path d="M47,11.3c-4.2-2.4-10.3-1.1-12.8,3.3-1.3,2.2-1.7,5.4-.3,7,5.2,5.4,5.4,9.3,3.4,12.7-3.2,5.6-9.7,9-19.9,8.2-1.6-.1-2.9,0-3.4.8s.7,1.7,1.9,2.4c7.6,4.3,25.7,3,33.7-11C55.3,24.8,53.8,15.2,47,11.3Z" fill="#fff" opacity="0.5"/><rect x="90" width="90" height="60" stroke="#fff" stroke-miterlimit="10" fill="url(#linear-gradient-2)"/><path d="M137,48.7c-4.2,2.4-10.3,1.1-12.8-3.3-1.3-2.2-1.7-5.4-.3-7,5.2-5.4,5.4-9.3,3.4-12.7-3.2-5.6-9.7-9-19.9-8.2-1.6.1-2.9,0-3.4-.8s.7-1.7,1.9-2.4c7.6-4.3,25.7-3,33.7,11C145.3,35.2,143.8,44.8,137,48.7Z" fill="#fff" opacity="0.5"/><rect y="60" width="90" height="60" stroke="#fff" stroke-miterlimit="10" fill="url(#linear-gradient-3)"/><path d="M47,71.3c-4.2-2.4-10.3-1.1-12.8,3.3-1.3,2.2-1.7,5.4-.3,7,5.2,5.4,5.4,9.3,3.4,12.7-3.2,5.6-9.7,9-19.9,8.2-1.6-.1-2.9,0-3.4.8s.7,1.7,1.9,2.4c7.6,4.3,25.7,3,33.7-11C55.3,84.8,53.8,75.2,47,71.3Z" fill="#fff" opacity="0.5"/><rect x="90" y="60" width="90" height="60" stroke="#fff" stroke-miterlimit="10" fill="url(#linear-gradient-4)"/><path d="M137,108.7c-4.2,2.4-10.3,1.1-12.8-3.3-1.3-2.2-1.7-5.4-.3-7,5.2-5.4,5.4-9.3,3.4-12.7-3.2-5.6-9.7-9-19.9-8.2-1.6.1-2.9,0-3.4-.8s.7-1.7,1.9-2.4c7.6-4.3,25.7-3,33.7,11C145.3,95.2,143.8,104.8,137,108.7Z" fill="#fff" opacity="0.5"/><rect y="120" width="90" height="60" stroke="#fff" stroke-miterlimit="10" fill="url(#linear-gradient-5)"/><path d="M47,131.3c-4.2-2.4-10.3-1.1-12.8,3.3-1.3,2.2-1.7,5.4-.3,7,5.2,5.4,5.4,9.3,3.4,12.7-3.2,5.6-9.7,9-19.9,8.2-1.6-.1-2.9,0-3.4.8s.7,1.7,1.9,2.4c7.6,4.3,25.7,3,33.7-11C55.3,144.8,53.8,135.2,47,131.3Z" fill="#fff" opacity="0.5"/><rect x="90" y="120" width="90" height="60" stroke="#fff" stroke-miterlimit="10" fill="url(#linear-gradient-6)"/><path d="M137,168.7c-4.2,2.4-10.3,1.1-12.8-3.3-1.3-2.2-1.7-5.4-.3-7,5.2-5.4,5.4-9.3,3.4-12.7-3.2-5.6-9.7-9-19.9-8.2-1.6.1-2.9,0-3.4-.8s.7-1.7,1.9-2.4c7.6-4.3,25.7-3,33.7,11C145.3,155.2,143.8,164.8,137,168.7Z" fill="#fff" opacity="0.5"/><rect y="180" width="90" height="60" stroke="#fff" stroke-miterlimit="10" fill="url(#linear-gradient-7)"/><path d="M47,191.3c-4.2-2.4-10.3-1.1-12.8,3.3-1.3,2.2-1.7,5.4-.3,7,5.2,5.4,5.4,9.3,3.4,12.7-3.2,5.6-9.7,9-19.9,8.2-1.6-.1-2.9,0-3.4.8s.7,1.7,1.9,2.4c7.6,4.3,25.7,3,33.7-11C55.3,204.8,53.8,195.2,47,191.3Z" fill="#fff" opacity="0.5"/><rect x="90" y="180" width="90" height="60" stroke="#fff" stroke-miterlimit="10" fill="url(#linear-gradient-8)"/><path d="M137,228.7c-4.2,2.4-10.3,1.1-12.8-3.3-1.3-2.2-1.7-5.4-.3-7,5.2-5.4,5.4-9.3,3.4-12.7-3.2-5.6-9.7-9-19.9-8.2-1.6.1-2.9,0-3.4-.8s.7-1.7,1.9-2.4c7.6-4.3,25.7-3,33.7,11C145.3,215.2,143.8,224.8,137,228.7Z" fill="#fff" opacity="0.5"/><rect x="180.6" width="90" height="60" stroke="#fff" stroke-miterlimit="10" fill="url(#linear-gradient-9)"/><path d="M227.6,11.3c-4.2-2.4-10.3-1.1-12.8,3.3-1.3,2.2-1.8,5.4-.3,7,5.2,5.4,5.3,9.3,3.4,12.7-3.2,5.6-9.7,9-19.9,8.2-1.6-.1-2.9,0-3.4.8s.6,1.7,1.8,2.4c7.6,4.3,25.7,3,33.8-11C235.8,24.8,234.4,15.2,227.6,11.3Z" fill="#fff" opacity="0.5"/><rect x="270.6" width="90" height="60" stroke="#fff" stroke-miterlimit="10" fill="url(#linear-gradient-10)"/><path d="M317.6,48.7c-4.2,2.4-10.3,1.1-12.8-3.3-1.3-2.2-1.8-5.4-.3-7,5.2-5.4,5.3-9.3,3.4-12.7-3.2-5.6-9.7-9-19.9-8.2-1.6.1-2.9,0-3.4-.8s.6-1.7,1.8-2.4c7.6-4.3,25.7-3,33.8,11C325.8,35.2,324.4,44.8,317.6,48.7Z" fill="#fff" opacity="0.5"/><rect x="180.6" y="60" width="90" height="60" stroke="#fff" stroke-miterlimit="10" fill="url(#linear-gradient-11)"/><path d="M227.6,71.3c-4.2-2.4-10.3-1.1-12.8,3.3-1.3,2.2-1.8,5.4-.3,7,5.2,5.4,5.3,9.3,3.4,12.7-3.2,5.6-9.7,9-19.9,8.2-1.6-.1-2.9,0-3.4.8s.6,1.7,1.8,2.4c7.6,4.3,25.7,3,33.8-11C235.8,84.8,234.4,75.2,227.6,71.3Z" fill="#fff" opacity="0.5"/><rect x="270.6" y="60" width="90" height="60" stroke="#fff" stroke-miterlimit="10" fill="url(#linear-gradient-12)"/><path d="M317.6,108.7c-4.2,2.4-10.3,1.1-12.8-3.3-1.3-2.2-1.8-5.4-.3-7,5.2-5.4,5.3-9.3,3.4-12.7-3.2-5.6-9.7-9-19.9-8.2-1.6.1-2.9,0-3.4-.8s.6-1.7,1.8-2.4c7.6-4.3,25.7-3,33.8,11C325.8,95.2,324.4,104.8,317.6,108.7Z" fill="#fff" opacity="0.5"/><rect x="180.6" y="120" width="90" height="60" stroke="#fff" stroke-miterlimit="10" fill="url(#linear-gradient-13)"/><path d="M227.6,131.3c-4.2-2.4-10.3-1.1-12.8,3.3-1.3,2.2-1.8,5.4-.3,7,5.2,5.4,5.3,9.3,3.4,12.7-3.2,5.6-9.7,9-19.9,8.2-1.6-.1-2.9,0-3.4.8s.6,1.7,1.8,2.4c7.6,4.3,25.7,3,33.8-11C235.8,144.8,234.4,135.2,227.6,131.3Z" fill="#fff" opacity="0.5"/><rect x="270.6" y="120" width="90" height="60" stroke="#fff" stroke-miterlimit="10" fill="url(#linear-gradient-14)"/><path d="M317.6,168.7c-4.2,2.4-10.3,1.1-12.8-3.3-1.3-2.2-1.8-5.4-.3-7,5.2-5.4,5.3-9.3,3.4-12.7-3.2-5.6-9.7-9-19.9-8.2-1.6.1-2.9,0-3.4-.8s.6-1.7,1.8-2.4c7.6-4.3,25.7-3,33.8,11C325.8,155.2,324.4,164.8,317.6,168.7Z" fill="#fff" opacity="0.5"/><rect x="180.6" y="180" width="90" height="60" stroke="#fff" stroke-miterlimit="10" fill="url(#linear-gradient-15)"/><path d="M227.6,191.3c-4.2-2.4-10.3-1.1-12.8,3.3-1.3,2.2-1.8,5.4-.3,7,5.2,5.4,5.3,9.3,3.4,12.7-3.2,5.6-9.7,9-19.9,8.2-1.6-.1-2.9,0-3.4.8s.6,1.7,1.8,2.4c7.6,4.3,25.7,3,33.8-11C235.8,204.8,234.4,195.2,227.6,191.3Z" fill="#fff" opacity="0.5"/><rect x="270.6" y="180" width="90" height="60" stroke="#fff" stroke-miterlimit="10" fill="url(#linear-gradient-16)"/><path d="M317.6,228.7c-4.2,2.4-10.3,1.1-12.8-3.3-1.3-2.2-1.8-5.4-.3-7,5.2-5.4,5.3-9.3,3.4-12.7-3.2-5.6-9.7-9-19.9-8.2-1.6.1-2.9,0-3.4-.8s.6-1.7,1.8-2.4c7.6-4.3,25.7-3,33.8,11C325.8,215.2,324.4,224.8,317.6,228.7Z" fill="#fff" opacity="0.5"/></svg>