<svg id="Layer_1" data-name="Layer 1" xmlns="http://www.w3.org/2000/svg" xmlns:xlink="http://www.w3.org/1999/xlink" viewBox="0 0 360 240"><defs><linearGradient id="linear-gradient" y1="30" x2="90" y2="30" gradientUnits="userSpaceOnUse"><stop offset="0" stop-color="#ff941f"/><stop offset="1" stop-color="#1f7aff"/></linearGradient><linearGradient id="linear-gradient-2" y1="90" y2="90" xlink:href="#linear-gradient"/><linearGradient id="linear-gradient-3" y1="150" y2="150" xlink:href="#linear-gradient"/><linearGradient id="linear-gradient-4" y1="210" y2="210" xlink:href="#linear-gradient"/><linearGradient id="linear-gradient-5" x1="-410" x2="-320" gradientTransform="matrix(1, 0, 0, -1, 500, 60)" xlink:href="#linear-gradient"/><linearGradient id="linear-gradient-6" x1="-410" y1="90" x2="-320" y2="90" gradientTransform="matrix(1, 0, 0, -1, 500, 180)" xlink:href="#linear-gradient"/><linearGradient id="linear-gradient-7" x1="-410" y1="150" x2="-320" y2="150" gradientTransform="matrix(1, 0, 0, -1, 500, 300)" xlink:href="#linear-gradient"/><linearGradient id="linear-gradient-8" x1="-410" y1="210" x2="-320" y2="210" gradientTransform="matrix(1, 0, 0, -1, 500, 420)" xlink:href="#linear-gradient"/><linearGradient id="linear-gradient-9" x1="180" x2="270" xlink:href="#linear-gradient"/><linearGradient id="linear-gradient-10" x1="180" y1="90" x2="270" y2="90" xlink:href="#linear-gradient"/><linearGradient id="linear-gradient-11" x1="180" y1="150" x2="270" y2="150" xlink:href="#linear-gradient"/><linearGradient id="linear-gradient-12" x1="180" y1="210" x2="270" y2="210" xlink:href="#linear-gradient"/><linearGradient id="linear-gradient-13" x1="-590" x2="-500" gradientTransform="matrix(1, 0, 0, -1, 860, 60)" xlink:href="#linear-gradient"/><linearGradient id="linear-gradient-14" x1="-590" y1="90" x2="-500" y2="90" gradientTransform="matrix(1, 0, 0, -1, 860, 180)" xlink:href="#linear-gradient"/><linearGradient id="linear-gradient-15" x1="-590" y1="150" x2="-500" y2="150" gradientTransform="matrix(1, 0, 0, -1, 860, 300)" xlink:href="#linear-gradient"/><linearGradient id="linear-gradient-16" x1="-590" y1="210" x2="-500" y2="210" gradientTransform="matrix(1, 0, 0, -1, 860, 420)" xlink:href="#linear-gradient"/></defs><title>pm</title><rect width="90" height="60" stroke="#fff" stroke-miterlimit="10" fill="url(#linear-gradient)"/><path d="M47,11.3c-4.2-2.4-10.3-1.1-12.8,3.3-1.3,2.2-1.7,5.4-.3,7,5.2,5.4,5.4,9.3,3.4,12.7-3.2,5.6-9.7,9-19.9,8.2-1.6-.1-2.9,0-3.4.8s.7,1.7,1.9,2.4c7.6,4.3,25.7,3,33.7-11C55.3,24.8,53.8,15.2,47,11.3Z" fill="#fff" opacity="0.5"/><rect y="60" width="90" height="60" stroke="#fff" stroke-miterlimit="10" fill="url(#linear-gradient-2)"/><path d="M47,71.3c-4.2-2.4-10.3-1.1-12.8,3.3-1.3,2.2-1.7,5.4-.3,7,5.2,5.4,5.4,9.3,3.4,12.7-3.2,5.6-9.7,9-19.9,8.2-1.6-.1-2.9,0-3.4.8s.7,1.7,1.9,2.4c7.6,4.3,25.7,3,33.7-11C55.3,84.8,53.8,75.2,47,71.3Z" fill="#fff" opacity="0.5"/><rect y="120" width="90" height="60" stroke="#fff" stroke-miterlimit="10" fill="url(#linear-gradient-3)"/><path d="M47,131.3c-4.2-2.4-10.3-1.1-12.8,3.3-1.3,2.2-1.7,5.4-.3,7,5.2,5.4,5.4,9.3,3.4,12.7-3.2,5.6-9.7,9-19.9,8.2-1.6-.1-2.9,0-3.4.8s.7,1.7,1.9,2.4c7.6,4.3,25.7,3,33.7-11C55.3,144.8,53.8,135.2,47,131.3Z" fill="#fff" opacity="0.5"/><rect y="180" width="90" height="60" stroke="#fff" stroke-miterlimit="10" fill="url(#linear-gradient-4)"/><path d="M47,191.3c-4.2-2.4-10.3-1.1-12.8,3.3-1.3,2.2-1.7,5.4-.3,7,5.2,5.4,5.4,9.3,3.4,12.7-3.2,5.6-9.7,9-19.9,8.2-1.6-.1-2.9,0-3.4.8s.7,1.7,1.9,2.4c7.6,4.3,25.7,3,33.7-11C55.3,204.8,53.8,195.2,47,191.3Z" fill="#fff" opacity="0.5"/><rect x="90" width="90" height="60" transform="translate(270 60) rotate(-180)" stroke="#fff" stroke-miterlimit="10" fill="url(#linear-gradient-5)"/><path d="M133,11.3c4.2-2.4,10.3-1.1,12.8,3.3,1.3,2.2,1.7,5.4.3,7-5.2,5.4-5.4,9.3-3.4,12.7,3.2,5.6,9.7,9,19.9,8.2,1.6-.1,2.9,0,3.4.8s-.7,1.7-1.9,2.4c-7.6,4.3-25.7,3-33.7-11C124.7,24.8,126.2,15.2,133,11.3Z" fill="#fff" opacity="0.5"/><rect x="90" y="60" width="90" height="60" transform="translate(270 180) rotate(-180)" stroke="#fff" stroke-miterlimit="10" fill="url(#linear-gradient-6)"/><path d="M133,71.3c4.2-2.4,10.3-1.1,12.8,3.3,1.3,2.2,1.7,5.4.3,7-5.2,5.4-5.4,9.3-3.4,12.7,3.2,5.6,9.7,9,19.9,8.2,1.6-.1,2.9,0,3.4.8s-.7,1.7-1.9,2.4c-7.6,4.3-25.7,3-33.7-11C124.7,84.8,126.2,75.2,133,71.3Z" fill="#fff" opacity="0.5"/><rect x="90" y="120" width="90" height="60" transform="translate(270 300) rotate(-180)" stroke="#fff" stroke-miterlimit="10" fill="url(#linear-gradient-7)"/><path d="M133,131.3c4.2-2.4,10.3-1.1,12.8,3.3,1.3,2.2,1.7,5.4.3,7-5.2,5.4-5.4,9.3-3.4,12.7,3.2,5.6,9.7,9,19.9,8.2,1.6-.1,2.9,0,3.4.8s-.7,1.7-1.9,2.4c-7.6,4.3-25.7,3-33.7-11C124.7,144.8,126.2,135.2,133,131.3Z" fill="#fff" opacity="0.5"/><rect x="90" y="180" width="90" height="60" transform="translate(270 420) rotate(-180)" stroke="#fff" stroke-miterlimit="10" fill="url(#linear-gradient-8)"/><path d="M133,191.3c4.2-2.4,10.3-1.1,12.8,3.3,1.3,2.2,1.7,5.4.3,7-5.2,5.4-5.4,9.3-3.4,12.7,3.2,5.6,9.7,9,19.9,8.2,1.6-.1,2.9,0,3.4.8s-.7,1.7-1.9,2.4c-7.6,4.3-25.7,3-33.7-11C124.7,204.8,126.2,195.2,133,191.3Z" fill="#fff" opacity="0.5"/><rect x="180" width="90" height="60" stroke="#fff" stroke-miterlimit="10" fill="url(#linear-gradient-9)"/><path d="M227,11.3c-4.2-2.4-10.3-1.1-12.8,3.3-1.3,2.2-1.7,5.4-.3,7,5.2,5.4,5.4,9.3,3.4,12.7-3.2,5.6-9.7,9-19.9,8.2-1.6-.1-2.9,0-3.4.8s.7,1.7,1.9,2.4c7.6,4.3,25.7,3,33.7-11C235.3,24.8,233.8,15.2,227,11.3Z" fill="#fff" opacity="0.5"/><rect x="180" y="60" width="90" height="60" stroke="#fff" stroke-miterlimit="10" fill="url(#linear-gradient-10)"/><path d="M227,71.3c-4.2-2.4-10.3-1.1-12.8,3.3-1.3,2.2-1.7,5.4-.3,7,5.2,5.4,5.4,9.3,3.4,12.7-3.2,5.6-9.7,9-19.9,8.2-1.6-.1-2.9,0-3.4.8s.7,1.7,1.9,2.4c7.6,4.3,25.7,3,33.7-11C235.3,84.8,233.8,75.2,227,71.3Z" fill="#fff" opacity="0.5"/><rect x="180" y="120" width="90" height="60" stroke="#fff" stroke-miterlimit="10" fill="url(#linear-gradient-11)"/><path d="M227,131.3c-4.2-2.4-10.3-1.1-12.8,3.3-1.3,2.2-1.7,5.4-.3,7,5.2,5.4,5.4,9.3,3.4,12.7-3.2,5.6-9.7,9-19.9,8.2-1.6-.1-2.9,0-3.4.8s.7,1.7,1.9,2.4c7.6,4.3,25.7,3,33.7-11C235.3,144.8,233.8,135.2,227,131.3Z" fill="#fff" opacity="0.5"/><rect x="180" y="180" width="90" height="60" stroke="#fff" stroke-miterlimit="10" fill="url(#linear-gradient-12)"/><path d="M227,191.3c-4.2-2.4-10.3-1.1-12.8,3.3-1.3,2.2-1.7,5.4-.3,7,5.2,5.4,5.4,9.3,3.4,12.7-3.2,5.6-9.7,9-19.9,8.2-1.6-.1-2.9,0-3.4.8s.7,1.7,1.9,2.4c7.6,4.3,25.7,3,33.7-11C235.3,204.8,233.8,195.2,227,191.3Z" fill="#fff" opacity="0.5"/><rect x="270" width="90" height="60" transform="translate(630 60) rotate(-180)" stroke="#fff" stroke-miterlimit="10" fill="url(#linear-gradient-13)"/><path d="M313,11.3c4.2-2.4,10.3-1.1,12.8,3.3,1.3,2.2,1.7,5.4.3,7-5.2,5.4-5.4,9.3-3.4,12.7,3.2,5.6,9.7,9,19.9,8.2,1.6-.1,2.9,0,3.4.8s-.7,1.7-1.9,2.4c-7.6,4.3-25.7,3-33.7-11C304.7,24.8,306.2,15.2,313,11.3Z" fill="#fff" opacity="0.5"/><rect x="270" y="60" width="90" height="60" transform="translate(630 180) rotate(-180)" stroke="#fff" stroke-miterlimit="10" fill="url(#linear-gradient-14)"/><path d="M313,71.3c4.2-2.4,10.3-1.1,12.8,3.3,1.3,2.2,1.7,5.4.3,7-5.2,5.4-5.4,9.3-3.4,12.7,3.2,5.6,9.7,9,19.9,8.2,1.6-.1,2.9,0,3.4.8s-.7,1.7-1.9,2.4c-7.6,4.3-25.7,3-33.7-11C304.7,84.8,306.2,75.2,313,71.3Z" fill="#fff" opacity="0.5"/><rect x="270" y="120" width="90" height="60" transform="translate(630 300) rotate(-180)" stroke="#fff" stroke-miterlimit="10" fill="url(#linear-gradient-15)"/><path d="M313,131.3c4.2-2.4,10.3-1.1,12.8,3.3,1.3,2.2,1.7,5.4.3,7-5.2,5.4-5.4,9.3-3.4,12.7,3.2,5.6,9.7,9,19.9,8.2,1.6-.1,2.9,0,3.4.8s-.7,1.7-1.9,2.4c-7.6,4.3-25.7,3-33.7-11C304.7,144.8,306.2,135.2,313,131.3Z" fill="#fff" opacity="0.5"/><rect x="270" y="180" width="90" height="60" transform="translate(630 420) rotate(-180)" stroke="#fff" stroke-miterlimit="10" fill="url(#linear-gradient-16)"/><path d="M313,191.3c4.2-2.4,10.3-1.1,12.8,3.3,1.3,2.2,1.7,5.4.3,7-5.2,5.4-5.4,9.3-3.4,12.7,3.2,5.6,9.7,9,19.9,8.2,1.6-.1,2.9,0,3.4.8s-.7,1.7-1.9,2.4c-7.6,4.3-25.7,3-33.7-11C304.7,204.8,306.2,195.2,313,191.3Z" fill="#fff" opacity="0.5"/></svg>