<svg x="0px" y="0px" viewBox="0 0 640 400" class="frame fill">

<path class="water" d="M580.8,154.7l-88-5.8l-34.3,0.1l-23-10.9l-26.4-43.8l-38.7-31.5L333.1,42l-20.4-16l-1.7-26H272l0.4,8.9
	l-3.3,28.9l-22.8,11.8l-48.8,32.3l-35.5,43.6l-17.5,20.3l-44.7,5.7l-71.6,3.5L0,158.5v40.3l31.8-4.1l66.4-3.3l49.1,11.1l40,50.7
	L245,301l26.3,8l10.2,13.9l0.5,29l0,48h41.8l-1.5-37l2.7-41l8.3-11l39.7-23.7l40.9-39.5l23.5-46.1l13.8-11.9l41.9-1.9l88,6.8
	l58.8-5.6v-40.2L580.8,154.7z M395.8,187.9l-17.4,37.6l-23.7,25.9l-43.3,14.5l-51.9-3.8l-38.6-31.8l-23.3-42.8l7.1-46.5l19.1-29.3
	l34.4-23.1l48.1-4.6l43,14.5l25.1,20.5l22,31.5L395.8,187.9z"/>

<rect class="bridge" x="291.1" y="322.1" transform="matrix(-3.264972e-02 0.9995 -0.9995 -3.264972e-02 663.4239 62.1563)" width="21" height="60"/>
<rect class="bridge" x="512.1" y="141.1" transform="matrix(-0.9998 -2.235480e-02 2.235480e-02 -0.9998 1041.3087 353.9026)" width="21" height="60"/>
<rect class="bridge" x="75.1" y="143.1" transform="matrix(-0.9976 6.946512e-02 -6.946512e-02 -0.9976 183.0846 339.8954)" width="21" height="60"/>
<rect class="bridge" x="201.1" y="65.1" transform="matrix(-0.6978 0.7163 -0.7163 -0.6978 427.4491 9.9173)" width="21" height="60"/>
<rect class="bridge" x="374.1" y="220.1" transform="matrix(-0.7883 0.6153 -0.6153 -0.7883 841.7396 210.626)" width="21" height="60"/>
<rect class="bridge" x="365.1" y="63.1" transform="matrix(0.6846 0.729 -0.729 0.6846 186.3773 -244.4421)" width="21" height="60"/>
<rect class="bridge" x="202.1" y="221.1" transform="matrix(0.747 0.6649 -0.6649 0.747 220.7725 -77.8266)" width="21" height="60"/>

<rect x="266.5" y="95.7" transform="matrix(0.9996 -2.665085e-02 2.665085e-02 0.9996 -2.9002 7.8477)" fill="#eee" width="53" height="34"/>
<rect x="212.7" y="177.5" transform="matrix(-5.783492e-02 -0.9983 0.9983 -5.783492e-02 47.6149 428.9632)" fill="#eee" width="27" height="29"/>
<rect x="212.4" y="136.9" transform="matrix(0.2025 -0.9793 0.9793 0.2025 31.8845 342.005)" fill="#eee" width="27" height="29"/>
<rect x="352.2" y="132.7" transform="matrix(0.8911 -0.4538 0.4538 0.8911 -26.9867 182.0049)" fill="#eee" width="27" height="29"/>
<rect x="286.9" y="230.7" transform="matrix(0.9955 -9.506034e-02 9.506034e-02 0.9955 -21.5401 30.2709)" fill="#eee" width="40" height="21"/>
<rect x="254.5" y="204.1" transform="matrix(0.9886 0.1506 -0.1506 0.9886 37.3032 -37.5256)" fill="#eee" width="24" height="47"/>
<rect x="297.6" y="191.8" transform="matrix(0.9915 0.13 -0.13 0.9915 29.4558 -38.6995)" fill="#eee" width="27" height="29"/>
<rect x="355.4" y="177.5" transform="matrix(-0.2985 0.9544 -0.9544 -0.2985 662.3382 -102.7856)" fill="#eee" width="27" height="29"/>
<rect x="251.4" y="142.9" transform="matrix(0.9999 -1.414569e-02 1.414569e-02 0.9999 -2.3275 3.7433)" fill="#eee" width="24" height="47"/>
<rect x="45.2" y="202.7" transform="matrix(0.9989 -4.609893e-02 4.609893e-02 0.9989 -9.9496 2.9379)" fill="#eee" width="27" height="29"/>
<rect x="526.8" y="281.8" transform="matrix(-0.9906 0.1368 -0.1368 -0.9906 1116.0043 516.0034)" fill="#eee" width="27" height="29"/>
<rect x="556.4" y="244.3" transform="matrix(-0.9968 7.946345e-02 -7.946345e-02 -0.9968 1171.181 462.9392)" fill="#eee" width="40" height="21"/>
<rect x="606.6" y="240" transform="matrix(-0.9999 1.549197e-02 -1.549197e-02 -0.9999 1241.1321 517.3932)" fill="#eee" width="24" height="47"/>
<rect x="603.1" y="201.2" transform="matrix(-0.9975 7.109948e-02 -7.109948e-02 -0.9975 1246.995 387.0322)" fill="#eee" width="27" height="29"/>
<rect x="439.5" y="344.4" transform="matrix(-0.9987 -5.099126e-02 5.099126e-02 -0.9987 886.7628 755.512)" fill="#eee" width="27" height="44"/>
<rect x="561.1" y="319.9" transform="matrix(-0.9975 7.109948e-02 -7.109948e-02 -0.9975 1171.5618 627.1867)" fill="#eee" width="27" height="29"/>
<rect x="520.9" y="323.3" transform="matrix(-0.9987 -5.099126e-02 5.099126e-02 -0.9987 1050.8308 702.4836)" fill="#eee" width="27" height="29"/>
<rect x="595.3" y="313" transform="matrix(1.407930e-02 -0.9999 0.9999 1.407930e-02 281.1722 940.142)" fill="#eee" width="44" height="29"/>
<rect x="478.5" y="374.9" transform="matrix(-0.9994 -3.355389e-02 3.355389e-02 -0.9994 990.8286 782.8187)" fill="#eee" width="46.9" height="16.3"/>
<rect x="542.3" y="361.7" transform="matrix(-0.9993 3.624519e-02 -3.624519e-02 -0.9993 1138.3795 731.772)" fill="#eee" width="40.6" height="29"/>
<rect x="599.9" y="362.2" transform="matrix(-0.9987 -5.099126e-02 5.099126e-02 -0.9987 1206.8442 784.251)" fill="#eee" width="27" height="29"/>
<rect x="352.7" y="357.3" transform="matrix(-4.475069e-02 -0.999 0.999 -4.475069e-02 0.9075 760.7567)" fill="#eee" width="22.9" height="45.2"/>
<rect x="399.6" y="360.4" transform="matrix(-0.9985 5.393715e-02 -5.393715e-02 -0.9985 846.4941 726.7653)" fill="#eee" width="27.7" height="28.7"/>
<rect x="480.8" y="197.2" transform="matrix(-0.9829 0.1841 -0.1841 -0.9829 1019.105 328.7722)" fill="#eee" width="27" height="29"/>
<rect x="441.4" y="210.1" transform="matrix(-0.4971 0.8677 -0.8677 -0.4971 875.915 -58.4198)" fill="#eee" width="27" height="29"/>
<rect x="424.1" y="243.9" transform="matrix(-0.5456 0.8381 -0.8381 -0.5456 892.8592 32.5753)" fill="#eee" width="27" height="29"/>
<rect x="546.3" y="201" transform="matrix(0.9992 4.096386e-02 -4.096386e-02 0.9992 9.3044 -23.0998)" fill="#eee" width="44" height="29"/>
<rect x="376" y="290.6" transform="matrix(-0.7995 0.6007 -0.6007 -0.7995 884.0871 315.0854)" fill="#eee" width="27" height="29"/>
<rect x="344.7" y="311.1" transform="matrix(-0.8298 0.5581 -0.5581 -0.8298 837.1779 395.9475)" fill="#eee" width="27" height="29"/>
<rect x="477.8" y="284.9" transform="matrix(0.1024 -0.9947 0.9947 0.1024 150.747 765.9023)" fill="#eee" width="44" height="29"/>
<rect x="518.9" y="242.3" transform="matrix(-0.9884 0.1518 -0.1518 -0.9884 1097.5693 429.8888)" fill="#eee" width="27" height="29"/>
<rect x="434" y="292.8" transform="matrix(5.652282e-02 -0.9984 0.9984 5.652282e-02 136.8093 746.7453)" fill="#eee" width="58.9" height="16.3"/>
<rect x="406" y="319.6" transform="matrix(-0.9992 -4.102476e-02 4.102476e-02 -0.9992 824.8402 685.1522)" fill="#eee" width="27" height="29"/>
<rect x="478.9" y="238.3" transform="matrix(-1 -2.133519e-03 2.133519e-03 -1 984.2122 506.7245)" fill="#eee" width="27" height="29"/>
<rect x="8.1" y="8.2" transform="matrix(-0.9976 6.874586e-02 -6.874586e-02 -0.9976 84.4404 37.5834)" fill="#eee" width="67" height="24"/>
<rect x="7.7" y="111.9" transform="matrix(-1 -1.012953e-03 1.012953e-03 -1 51.315 252.7505)" fill="#eee" width="36" height="29"/>
<rect x="83.2" y="13.2" transform="matrix(-0.9994 -3.591185e-02 3.591185e-02 -0.9994 205.4888 51.1897)" fill="#eee" width="40" height="21"/>
<rect x="176.5" y="7.5" transform="matrix(-0.9994 3.388725e-02 -3.388725e-02 -0.9994 380.6896 37.5795)" fill="#eee" width="27" height="29"/>
<rect x="214.2" y="6.4" transform="matrix(-0.9994 3.465308e-02 -3.465308e-02 -0.9994 468.8666 25.638)" fill="#eee" width="40" height="21"/>
<rect x="2.3" y="57.1" transform="matrix(-5.247379e-02 -0.9986 0.9986 -5.247379e-02 -43.71 106.8045)" fill="#eee" width="53" height="34"/>
<rect x="99.8" y="44.9" transform="matrix(-0.9976 6.874586e-02 -6.874586e-02 -0.9976 230.4389 110.9263)" fill="#eee" width="27" height="29"/>
<rect x="138.8" y="8" transform="matrix(-0.9976 6.874586e-02 -6.874586e-02 -0.9976 305.8042 34.4867)" fill="#eee" width="27" height="29"/>
<rect x="138.6" y="49.3" transform="matrix(-0.9986 -5.334743e-02 5.334743e-02 -0.9986 300.5043 135.6289)" fill="#eee" width="27" height="29"/>
<rect x="114.9" y="98" transform="matrix(-0.611 0.7917 -0.7917 -0.611 309.6673 72.7892)" fill="#eee" width="44" height="29"/>
<rect x="70.7" y="71.3" transform="matrix(5.102821e-02 -0.9987 0.9987 5.102821e-02 -16.7889 175.9218)" fill="#eee" width="27" height="51"/>
<rect x="201.1" y="41.7" transform="matrix(0.7028 -0.7114 0.7114 0.7028 28.1193 167.61)" fill="#eee" width="27" height="17"/>
<rect x="451.9" y="104.6" transform="matrix(-0.9914 -0.1309 0.1309 -0.9914 936.7176 304.8354)" fill="#eee" width="53" height="34"/>
<rect x="555.1" y="96.9" transform="matrix(-0.9999 -1.324654e-02 1.324654e-02 -0.9999 1135.5022 247.2949)" fill="#eee" width="27" height="46"/>
<rect x="599.9" y="12.8" transform="matrix(-4.383713e-02 -0.999 0.999 -4.383713e-02 613.023 641.3345)" fill="#eee" width="27" height="29"/>
<rect x="554.8" y="54.3" transform="matrix(7.824184e-02 -0.9969 0.9969 7.824184e-02 455.2399 630.0529)" fill="#eee" width="27" height="29"/>
<rect x="599.9" y="109.9" transform="matrix(-4.383713e-02 -0.999 0.999 -4.383713e-02 516.0108 742.6603)" fill="#eee" width="27" height="29"/>
<rect x="590.5" y="61" transform="matrix(7.824184e-02 -0.9969 0.9969 7.824184e-02 488.3234 679.2249)" fill="#eee" width="42" height="29"/>
<rect x="523.3" y="7.6" transform="matrix(0.9987 -5.017447e-02 5.017447e-02 0.9987 -0.4324 26.9601)" fill="#eee" width="27" height="29"/>
<rect x="559.4" y="13" transform="matrix(0.9974 7.191537e-02 -7.191537e-02 0.9974 3.4622 -41.1289)" fill="#eee" width="27" height="29"/>
<rect x="441.2" y="9.1" transform="matrix(0.9987 -5.017447e-02 5.017447e-02 0.9987 -0.6115 22.8455)" fill="#eee" width="27" height="29"/>
<rect x="482.5" y="9.5" transform="matrix(0.9974 7.191537e-02 -7.191537e-02 0.9974 3.01 -35.6087)" fill="#eee" width="27" height="29"/>
<rect x="506.5" y="57.9" transform="matrix(-5.119640e-02 0.9987 -0.9987 -5.119640e-02 627.7789 -451.6839)" fill="#eee" width="44" height="29"/>
<rect x="473" y="51.2" transform="matrix(-0.9855 -0.1694 0.1694 -0.9855 954.8387 212.8199)" fill="#eee" width="27" height="29"/>
<rect x="420.2" y="74.1" transform="matrix(0.8365 -0.548 0.548 0.8365 22.366 252.1608)" fill="#eee" width="27" height="29"/>
<rect x="361" y="20.9" transform="matrix(-0.5066 0.8622 -0.8622 -0.5066 599.1471 -261.7045)" fill="#eee" width="27" height="39.3"/>
<rect x="389.6" y="8.7" transform="matrix(0.988 0.1544 -0.1544 0.988 7.8731 -63.0051)" fill="#eee" width="40" height="21"/>
<rect x="326.7" y="7.4" transform="matrix(5.195598e-02 -0.9986 0.9986 5.195598e-02 303.5975 354.5896)" fill="#eee" width="23.7" height="20"/>
<rect x="120" y="280.6" transform="matrix(-0.9578 -0.2875 0.2875 -0.9578 174.1191 632.1168)" fill="#eee" width="27" height="45.3"/>
<rect x="90.5" y="252.9" transform="matrix(-0.9186 -0.3953 0.3953 -0.9186 93.8105 554.0711)" fill="#eee" width="27" height="29"/>
<rect x="51.2" y="244.4" transform="matrix(-0.938 -0.3467 0.3467 -0.938 35.6634 524.2684)" fill="#eee" width="27" height="29"/>
<rect x="10.7" y="243.4" transform="matrix(-0.9633 -0.2686 0.2686 -0.9633 -20.7961 506.3782)" fill="#eee" width="27" height="22.4"/>
<rect x="11.9" y="281" transform="matrix(-0.9819 -0.1893 0.1893 -0.9819 19.7394 597.7904)" fill="#eee" width="53" height="34"/>
<rect x="111.2" y="363.1" transform="matrix(0.9996 2.752377e-02 -2.752377e-02 0.9996 10.4398 -3.2902)" fill="#eee" width="27" height="29"/>
<rect x="69.1" y="362.3" transform="matrix(0.9999 -1.595350e-02 1.595350e-02 0.9999 -6.0005 1.3651)" fill="#eee" width="27" height="29"/>
<rect x="14.3" y="368.6" transform="matrix(0.9999 -1.671966e-02 1.671966e-02 0.9999 -6.334 0.6263)" fill="#eee" width="40" height="21"/>
<rect x="9.8" y="327" transform="matrix(-0.998 6.254156e-02 -6.254156e-02 -0.998 67.9205 680.7963)" fill="#eee" width="27" height="29"/>
<rect x="45.9" y="332.7" transform="matrix(0.9987 -5.083895e-02 5.083895e-02 0.9987 -17.3539 3.7063)" fill="#eee" width="36.5" height="20.5"/>
<rect x="95.9" y="335.7" transform="matrix(0.9975 7.094710e-02 -7.094710e-02 0.9975 24.8342 -7.2288)" fill="#eee" width="36.5" height="20.5"/>
<rect x="11.1" y="204.6" transform="matrix(-0.9941 -0.1088 0.1088 -0.9941 22.6024 439.5287)" fill="#eee" width="24.4" height="29.1"/>
<rect x="188.4" y="359.5" transform="matrix(0.9945 -0.1045 0.1045 0.9945 -37.9884 23.1575)" fill="#eee" width="27" height="29"/>
<rect x="226.6" y="369.7" transform="matrix(0.9994 3.489950e-02 -3.489950e-02 0.9994 13.4187 -8.3754)" fill="#eee" width="40" height="21"/>
<rect x="150.3" y="361.5" transform="matrix(0.9994 -3.489950e-02 3.489950e-02 0.9994 -13.0229 5.9456)" fill="#eee" width="27" height="29"/>
<rect x="151" y="324" transform="matrix(0.9976 -6.975646e-02 6.975646e-02 0.9976 -23.1432 12.3005)" fill="#eee" width="27" height="27"/>
<rect x="160.2" y="284.7" transform="matrix(0.9688 0.248 -0.248 0.9688 79.6174 -33.7344)" fill="#eee" width="27" height="29"/>
<rect x="143" y="227.6" transform="matrix(-0.6993 0.7148 -0.7148 -0.6993 444.8062 313.4397)" fill="#eee" width="27" height="45.3"/>
<rect x="101.5" y="204.9" transform="matrix(-0.9447 -0.3279 0.3279 -0.9447 151.6831 464.3162)" fill="#eee" width="27" height="29"/>
<rect x="235.5" y="313.2" transform="matrix(-0.9402 -0.3406 0.3406 -0.9402 371.5643 720.6547)" fill="#eee" width="27" height="29"/>
<rect x="199.1" y="292.8" transform="matrix(-0.807 -0.5906 0.5906 -0.807 202.6941 680.7924)" fill="#eee" width="27" height="29"/>

<g class="paths"></g>

<g class="error">
	<circle fill="#004bb8" cx="20" cy="20" r="20"/>
	<path opacity="0.5" fill="#F2F2F2" d="M15.3,20.9c-1.9,2.2-4.3,2.5-6.9,1.7c-0.8-0.3-1.2-0.8-1.4-1.7c-0.1-1.3-0.3-2.5-0.5-4.1
		c1.4,1.4,2.8,2.1,4.5,2c1.7-0.1,3.1-0.9,4.2-2.3c1.2,1.5,2.6,2.4,4.4,2.3c1.8,0,3.3-0.8,4.4-2.3c3,3.4,6.7,2.6,8.9-0.1
		c-0.3,1.9-0.4,3.5-0.8,5.1c-0.1,0.4-0.6,0.6-1,0.9c-2.3,1.2-5,0.6-7.1-1.5C23,22.3,21.5,23,19.7,23C17.9,23,16.4,22.3,15.3,20.9z"/>
	<path opacity="0.5" fill="#F2F2F2" d="M15.3,29.9c-1.9,2.2-4.3,2.5-6.9,1.7c-0.8-0.3-1.2-0.8-1.4-1.7c-0.1-1.3-0.3-2.5-0.5-4.1
		c1.4,1.4,2.8,2.1,4.5,2c1.7-0.1,3.1-0.9,4.2-2.3c1.2,1.5,2.6,2.4,4.4,2.3c1.8,0,3.3-0.8,4.4-2.3c3,3.4,6.7,2.6,8.9-0.1
		c-0.3,1.9-0.4,3.5-0.8,5.1c-0.1,0.4-0.6,0.6-1,0.9c-2.3,1.2-5,0.6-7.1-1.5C23,31.3,21.5,32,19.7,32C17.9,32,16.4,31.3,15.3,29.9z"/>
	<polygon opacity="0.5" fill="#F2F2F2" points="24.7,6.2 22.6,4.1 19.8,6.9 16.9,4.1 14.8,6.2 17.7,9 14.8,11.8 16.9,13.9 19.8,11.1 22.6,13.9 24.7,11.8 21.9,9 	"/>
</g>

</svg>
