<svg class="vertex-orders" x="0px" y="0px" viewBox="0 0 640 200">

<line fill="none" stroke="#999" stroke-width="4" x1="106" y1="40" x2="106" y2="160"/>
<line fill="none" stroke="#999" stroke-width="4" x1="47" y1="100" x2="166" y2="100"/>
<rect x="46.3" y="40" fill="none" stroke="#999" stroke-width="4" width="120" height="120"/>
<rect x="248" y="68" fill="none" stroke="#999" stroke-width="4" width="70" height="60"/>
<rect x="318" y="68" fill="none" stroke="#999" stroke-width="4" width="70" height="60"/>
<polyline fill="none" stroke="#999" stroke-width="4" points="248,128 283,168 318,128 353,168 388,128 "/>
<polyline fill="none" stroke="#999" stroke-width="4" points="388,68 353,28 318,68 283,28 248,68 "/>
<polygon fill="none" stroke="#999" stroke-width="4" points="472.4,135.5 472.3,64.6 533.9,29.4 595.6,65.2 595.7,136.1 534.1,171.3 "/>
<line fill="none" stroke="#999" stroke-width="4" x1="472.3" y1="64.6" x2="595.7" y2="136.1"/>
<line fill="none" stroke="#999" stroke-width="4" x1="472.4" y1="135.5" x2="595.6" y2="65.2"/>
<line fill="none" stroke="#999" stroke-width="4" x1="534" y1="29" x2="534" y2="171"/>

<circle fill="#FFFFFF" stroke="#f7f7f8" stroke-width="3" cx="46" cy="40" r="12" data-value="2"/>
<text transform="matrix(1 0 0 1 40.8698 46.3269)">2</text>
<circle fill="#FFFFFF" stroke="#f7f7f8" stroke-width="3" cx="106" cy="40" r="12" data-value="3"/>
<text transform="matrix(1 0 0 1 100.8698 46.3269)">3</text>
<circle fill="#FFFFFF" stroke="#f7f7f8" stroke-width="3" cx="166" cy="40" r="12" data-value="2"/>
<text transform="matrix(1 0 0 1 160.8698 46.3269)">2</text>
<circle fill="#FFFFFF" stroke="#f7f7f8" stroke-width="3" cx="46" cy="100" r="12" data-value="3"/>
<text transform="matrix(1 0 0 1 40.8698 106.3269)">3</text>
<circle fill="#FFFFFF" stroke="#f7f7f8" stroke-width="3" cx="106" cy="100" r="12" data-value="4"/>
<text transform="matrix(1 0 0 1 100.8698 106.3269)">4</text>
<circle fill="#FFFFFF" stroke="#f7f7f8" stroke-width="3" cx="166" cy="100" r="12" data-value="3"/>
<text transform="matrix(1 0 0 1 160.8698 106.3269)">3</text>
<circle fill="#FFFFFF" stroke="#f7f7f8" stroke-width="3" cx="46" cy="160" r="12" data-value="2"/>
<text transform="matrix(1 0 0 1 40.8698 166.3269)">2</text>
<circle fill="#FFFFFF" stroke="#f7f7f8" stroke-width="3" cx="106" cy="160" r="12" data-value="3"/>
<text transform="matrix(1 0 0 1 100.8698 166.3269)">3</text>
<circle fill="#FFFFFF" stroke="#f7f7f8" stroke-width="3" cx="166" cy="160" r="12" data-value="2"/>
<text transform="matrix(1 0 0 1 160.8698 166.3269)">2</text>
<circle fill="#FFFFFF" stroke="#f7f7f8" stroke-width="3" cx="283" cy="30" r="12" data-value="2"/>
<text transform="matrix(1 0 0 1 277.8698 36.3269)">2</text>
<circle fill="#FFFFFF" stroke="#f7f7f8" stroke-width="3" cx="353" cy="30" r="12" data-value="2"/>
<text transform="matrix(1 0 0 1 347.8698 36.3269)">2</text>
<circle fill="#FFFFFF" stroke="#f7f7f8" stroke-width="3" cx="283" cy="166" r="12" data-value="2"/>
<text transform="matrix(1 0 0 1 277.8698 172.3269)">2</text>
<circle fill="#FFFFFF" stroke="#f7f7f8" stroke-width="3" cx="353" cy="166" r="12" data-value="2"/>
<text transform="matrix(1 0 0 1 347.8698 172.3269)">2</text>
<circle fill="#FFFFFF" stroke="#f7f7f8" stroke-width="3" cx="248" cy="68" r="12" data-value="3"/>
<text transform="matrix(1 0 0 1 242.8698 74.3269)">3</text>
<circle fill="#FFFFFF" stroke="#f7f7f8" stroke-width="3" cx="318" cy="68" r="12" data-value="5"/>
<text transform="matrix(1 0 0 1 312.8698 74.3269)">5</text>
<circle fill="#FFFFFF" stroke="#f7f7f8" stroke-width="3" cx="388" cy="68" r="12" data-value="3"/>
<text transform="matrix(1 0 0 1 382.8698 74.3269)">3</text>
<circle fill="#FFFFFF" stroke="#f7f7f8" stroke-width="3" cx="248" cy="128" r="12" data-value="3"/>
<text transform="matrix(1 0 0 1 242.8698 134.3269)">3</text>
<circle fill="#FFFFFF" stroke="#f7f7f8" stroke-width="3" cx="318" cy="128" r="12" data-value="5"/>
<text transform="matrix(1 0 0 1 312.8698 134.3269)">5</text>
<circle fill="#FFFFFF" stroke="#f7f7f8" stroke-width="3" cx="388" cy="128" r="12" data-value="3"/>
<text transform="matrix(1 0 0 1 382.8698 134.3269)">3</text>
<circle fill="#FFFFFF" stroke="#f7f7f8" stroke-width="3" cx="534" cy="30" r="12" data-value="3"/>
<text transform="matrix(1 0 0 1 528.8698 36.3269)">3</text>
<circle fill="#FFFFFF" stroke="#f7f7f8" stroke-width="3" cx="534" cy="100" r="12" data-value="6"/>
<text transform="matrix(1 0 0 1 528.8698 106.3269)">6</text>
<circle fill="#FFFFFF" stroke="#f7f7f8" stroke-width="3" cx="534" cy="172" r="12" data-value="3"/>
<text transform="matrix(1 0 0 1 528.8698 178.3269)">3</text>
<circle fill="#FFFFFF" stroke="#f7f7f8" stroke-width="3" cx="596" cy="65" r="12" data-value="3"/>
<text transform="matrix(1 0 0 1 590.8698 71.3269)">3</text>
<circle fill="#FFFFFF" stroke="#f7f7f8" stroke-width="3" cx="472" cy="65" r="12" data-value="3"/>
<text transform="matrix(1 0 0 1 466.8698 71.3269)">3</text>
<circle fill="#FFFFFF" stroke="#f7f7f8" stroke-width="3" cx="596" cy="136" r="12" data-value="3"/>
<text transform="matrix(1 0 0 1 590.8698 142.3269)">3</text>
<circle fill="#FFFFFF" stroke="#f7f7f8" stroke-width="3" cx="472" cy="136" r="12" data-value="3"/>
<text transform="matrix(1 0 0 1 466.8698 142.3269)">3</text>

</svg>
