<svg xmlns="http://www.w3.org/2000/svg" width="120" height="80" viewBox="0 0 120 80"><title>hyperbola</title><path d="M10,5l.86,1.6,2.33,4.29,1.09,2,1,1.92,2,3.58.92,1.68.89,1.61,1.68,3,.8,1.43.77,1.37,1.46,2.59,2.64,4.65.61,1.07.59,1,1.13,2,2.08,3.54.49.81.47.8.91,1.51,1.68,2.77.4.64.38.63.75,1.2,1.4,2.21.33.52.33.5.63,1,1.18,1.79.27.4.26.38.5.74,1,1.39.24.33.22.32.45.62L43.55,62l.21.27.2.27.39.53.76,1,1.4,1.74.16.2.17.19.32.38.61.72,1.16,1.27.14.15.13.14.27.28.52.53,1,.93.12.11.13.12.25.22.49.42.92.72.22.17.22.15.42.3.81.51.1.05.1.06.19.11.38.2.72.35,1.35.5.16,0,.16,0,.3.08.6.11.15,0,.14,0,.29,0,.55,0h.54l.52,0,1-.15h.06l.17,0,.22-.05.44-.13.86-.3,0,0,0,0,.1,0,.21-.09.41-.19.79-.41,0,0,.06,0,.1-.06.21-.12L66,73l.81-.55,0,0,0,0,.1-.07.2-.15.39-.3.76-.63,0,0,0,0,.09-.08.17-.15.35-.32.69-.64,0,0,0,0,.08-.08.17-.17.34-.34.66-.69,0,0,0,0,.08-.09.16-.17.32-.35.64-.72,1.24-1.47.17-.21.16-.2.33-.41.66-.84,1.3-1.7,0-.05,0,0,.08-.1.14-.21.3-.41.59-.81L78.59,59l.08-.11.07-.12.16-.22.31-.46.63-.92,1.24-1.86,0-.06.1-.16.15-.22.28-.44.58-.89,1.13-1.78,2.21-3.53,2.36-3.9,2.18-3.68,2.34-4,2.29-4,2.12-3.74,2.28-4.09L101.27,21l2.07-3.77,2.25-4.11,2.08-3.84.08-.13.07-.14.15-.27.29-.53.58-1.08,0-.07.11-.2.15-.27.29-.53,0-.07,0-.07.07-.13.15-.27.07-.14.08-.13,0-.07,0-.06,0-.07L110,5" fill="none" stroke="#b30469" stroke-linecap="round" stroke-miterlimit="3.25" stroke-width="3"/></svg>