<svg xmlns="http://www.w3.org/2000/svg" width="120" height="80" viewBox="0 0 120 80"><title>parabola</title><polyline points="10 5 10.03 5.09 10.06 5.17 10.12 5.34 10.24 5.68 10.49 6.37 10.98 7.72 11.96 10.39 14.09 15.99 16.08 20.98 18.03 25.67 20.14 30.51 22.11 34.8 24.25 39.21 26.35 43.29 28.3 46.87 30.43 50.51 32.41 53.68 34.35 56.58 36.46 59.48 38.42 61.96 40.55 64.41 42.65 66.57 44.6 68.36 46.72 70.06 46.75 70.08 46.78 70.1 46.84 70.15 46.96 70.24 47.21 70.42 47.7 70.77 48.69 71.42 48.72 71.44 48.76 71.46 48.83 71.5 48.96 71.59 49.23 71.75 49.76 72.06 49.83 72.1 49.9 72.14 50.03 72.22 50.3 72.36 50.83 72.65 50.87 72.66 50.9 72.68 50.96 72.71 51.09 72.78 51.36 72.91 51.88 73.16 51.95 73.19 52.01 73.21 52.15 73.27 52.41 73.39 52.93 73.6 52.96 73.61 52.99 73.63 53.05 73.65 53.18 73.7 53.42 73.79 53.91 73.96 53.94 73.97 53.98 73.98 54.04 74 54.16 74.04 54.4 74.12 54.89 74.27 54.93 74.28 54.96 74.29 55.03 74.31 55.16 74.34 55.42 74.41 55.46 74.42 55.49 74.43 55.56 74.45 55.69 74.48 55.96 74.54 55.99 74.55 56.02 74.56 56.09 74.57 56.22 74.6 56.49 74.66 57.02 74.75 57.14 74.77 57.27 74.79 57.52 74.83 57.58 74.84 57.64 74.84 57.76 74.86 58.01 74.89 58.04 74.89 58.07 74.9 58.14 74.9 58.26 74.92 58.32 74.92 58.38 74.93 58.51 74.94 58.54 74.94 58.57 74.94 58.63 74.95 58.76 74.96 58.79 74.96 58.82 74.96 58.88 74.97 59 74.97 59.03 74.97 59.06 74.97 59.13 74.98 59.16 74.98 59.19 74.98 59.25 74.98 59.31 74.99 59.37 74.99 59.49 74.99 59.52 74.99 59.61 75 59.64 75 59.67 75 59.7 75 59.73 75 59.77 75 59.8 75 59.86 75 59.89 75 60.1 75 60.13 75 60.22 75 60.25 75 60.28 75 60.31 75 60.34 75 60.4 75 60.46 74.99 60.74 74.98 60.77 74.98 60.83 74.98 60.95 74.97 60.98 74.97 61.08 74.97 61.21 74.96 61.25 74.96 61.28 74.95 61.35 74.95 61.48 74.94 61.51 74.94 61.54 74.93 61.61 74.93 61.74 74.92 62.01 74.89 62.04 74.88 62.07 74.88 62.14 74.87 62.27 74.86 62.53 74.82 62.6 74.81 62.66 74.8 62.8 74.78 63.06 74.74 63.09 74.73 63.12 74.73 63.18 74.72 63.31 74.69 63.55 74.65 63.58 74.64 63.62 74.63 63.8 74.59 64.05 74.54 64.08 74.53 64.11 74.53 64.17 74.51 64.29 74.48 64.54 74.42 65.03 74.29 65.06 74.28 65.1 74.27 65.17 74.25 65.3 74.21 65.56 74.13 66.1 73.96 66.13 73.95 66.17 73.94 66.23 73.91 66.36 73.86 66.63 73.77 67.17 73.56 67.23 73.54 67.3 73.51 67.43 73.45 67.69 73.34 68.21 73.11 69.26 72.6 69.29 72.58 69.38 72.53 69.51 72.47 69.75 72.34 70.24 72.06 71.22 71.48 71.25 71.46 71.28 71.44 71.35 71.39 71.48 71.31 71.75 71.14 72.28 70.78 73.34 70.02 75.32 68.43 77.26 66.66 79.36 64.5 81.33 62.27 83.46 59.6 85.44 56.87 87.39 53.99 89.51 50.62 91.48 47.25 93.62 43.35 95.72 39.28 97.68 35.25 99.8 30.65 101.78 26.12 103.73 21.46 105.84 16.17 107.8 11.02 107.87 10.83 107.94 10.65 108.08 10.28 108.35 9.54 108.9 8.04 108.94 7.95 109.04 7.67 109.18 7.29 109.45 6.53 109.49 6.43 109.52 6.34 109.59 6.15 109.72 5.77 109.76 5.67 109.79 5.58 109.86 5.38 109.9 5.29 109.93 5.19 110 5" fill="none" stroke="#b30469" stroke-linecap="round" stroke-miterlimit="3.25" stroke-width="3"/></svg>