<svg height="160" viewBox="0 0 300 160" width="300" xmlns="http://www.w3.org/2000/svg"><g stroke="#000" stroke-width="3"><circle cx="150" cy="80" fill="none" opacity=".5" r="73" stroke-linejoin="bevel"/><path d="m176.68 12a73 73 0 0 1 32.73 110.4l.09.07-59-43 26-67z" fill-opacity=".4" stroke-linejoin="round"/><path d="m170.2 93.86a24.5 24.5 0 0 0 -10.66-36.43" fill="none" opacity=".5" stroke-linejoin="bevel"/></g><path d="m162.69 80.66a2.85 2.85 0 0 1 -2.5-1.44 8.38 8.38 0 0 1 -.93-4.45 8.18 8.18 0 0 1 .93-4.35 2.85 2.85 0 0 1 2.5-1.44 2.79 2.79 0 0 1 1.41.36 3.22 3.22 0 0 1 1.08 1.09 5.8 5.8 0 0 1 .69 1.81 11.88 11.88 0 0 1 .24 2.53 12.48 12.48 0 0 1 -.24 2.61 5.71 5.71 0 0 1 -.69 1.84 2.94 2.94 0 0 1 -1.08 1.08 2.79 2.79 0 0 1 -1.41.36zm0-10.18a1 1 0 0 0 -.6.19 1.46 1.46 0 0 0 -.5.6 4.64 4.64 0 0 0 -.35 1.12 11.11 11.11 0 0 0 -.17 1.74h3.23a10 10 0 0 0 -.17-1.74 4.24 4.24 0 0 0 -.35-1.12 1.52 1.52 0 0 0 -.49-.6 1 1 0 0 0 -.6-.19zm0 8.67a1.11 1.11 0 0 0 .6-.18 1.53 1.53 0 0 0 .49-.62 4.25 4.25 0 0 0 .35-1.15 10.61 10.61 0 0 0 .17-1.81h-3.23a11.74 11.74 0 0 0 .17 1.81 4.64 4.64 0 0 0 .35 1.15 1.47 1.47 0 0 0 .5.62 1.06 1.06 0 0 0 .6.18z"/></svg>