<svg height="160" viewBox="0 0 300 160" width="300" xmlns="http://www.w3.org/2000/svg" xmlns:xlink="http://www.w3.org/1999/xlink"><linearGradient id="a" gradientUnits="userSpaceOnUse" x1="72.5" x2="72.54" y1="29.75" y2="29.75"><stop offset="0"/><stop offset="1" stop-opacity="0"/></linearGradient><linearGradient id="b" x1="217.46" x2="217.5" xlink:href="#a"/><linearGradient id="c" x2="217.5" xlink:href="#a" y1="90.75" y2="90.75"/><g opacity=".3"><path d="m72.5 29.5v.5c0-.17 0-.33 0-.5z" fill="url(#a)"/><path d="m217.46 29.5v.5z" fill="url(#b)"/><path d="m145 50.5c-40 0-72.5-9.18-72.5-20.5v100.5.5c0 11.32 32.46 20.5 72.5 20.5s72.5-9.18 72.5-20.5c0-.17 0-.33 0-.5v-100.5c0 11.32-32.5 20.5-72.5 20.5z" fill="url(#c)"/></g><g fill="none" stroke="#000" stroke-linecap="round" stroke-miterlimit="10" stroke-width="3"><path d="m72.5 131c0 11.32 32.46 20.5 72.5 20.5s72.5-9.18 72.5-20.5"/><ellipse cx="145" cy="30" rx="72.5" ry="20.5"/><path d="m72.5 29.5v101"/><path d="m217.5 130.5v-101"/><path d="m217.5 131a7.79 7.79 0 0 0 -2.46-5.31"/><path d="m205.61 119.75c-13-5.57-35.26-9.25-60.61-9.25-29 0-54 4.81-65.61 11.77" stroke-dasharray="11.21 11.21"/><path d="m75 125.69a7.79 7.79 0 0 0 -2.5 5.31"/><path d="m72.5 131c0 11.32 32.46 20.5 72.5 20.5s72.5-9.18 72.5-20.5"/></g></svg>