<svg viewBox="0 0 300 160" xmlns="http://www.w3.org/2000/svg"><path d="m193.89 117.53-40.17 21.12 7.67-44.74-32.5-31.68 44.92-6.53 20.08-40.7 20.09 40.7 44.92 6.53-32.5 31.68 7.67 44.74z" fill="none" stroke="#000" stroke-linecap="round" stroke-linejoin="round" stroke-width="3"/><g opacity=".5"><path d="m65 76.5 117.51-55.57" fill="none" stroke="#000" stroke-linejoin="bevel" stroke-width="3"/><path d="m194 15.5-13.06 14.27.71-8.43-6.97-4.8z"/></g><g opacity=".5"><path d="m80 123.5 141.35 13.77" fill="none" stroke="#000" stroke-linejoin="bevel" stroke-width="3"/><path d="m234 138.5-18.53 5.55 4.94-6.87-3.53-7.7z"/></g><g opacity=".5"><path d="m90 94.5 156.51-29.64" fill="none" stroke="#000" stroke-linejoin="bevel" stroke-width="3"/><path d="m259 62.5-16.23 10.52 2.81-7.98-5.54-6.4z"/></g><path d="m64.89 115.23-15.2 7.99 2.9-16.93-12.3-11.99 17-2.47 7.6-15.41 7.61 15.41 17 2.47-12.3 11.99 2.9 16.93z" fill-opacity=".4" stroke="#000" stroke-linejoin="round" stroke-width="3"/></svg>