<svg viewBox="0 0 300 160" xmlns="http://www.w3.org/2000/svg"><g fill="none" stroke="#000" stroke-linecap="round" stroke-miterlimit="10" stroke-width="3"><path d="m230.85 8.57-1.22 1.24-3.3 3.32-1.53 1.56-1.47 1.49-2.75 2.82-1.29 1.32-1.23 1.27-2.33 2.41-1.09 1.13-1.06 1.1-2 2.09-3.58 3.75-.82.87-.79.85-1.5 1.62-2.71 3-.63.7-.61.67-1.13 1.22-2.12 2.41-.5.56-.48.55-.92 1.07-1.7 2-.39.48-.39.46-.74.9-1.38 1.69-.3.38-.3.37-.57.72-1.02 1.41-.25.33-.25.32-.48.64-.89 1.21-.21.29-.21.29-.4.56-.76 1.08-1.34 2-.21.28-.15.23-.29.46-.55.88-1 1.66-.11.19-.11.2-.21.38-.4.75-.72 1.4-.09.18-.09.18-.17.36-.32.7-.56 1.31-.12.32-.12.31-.22.6-.4 1.16v.14.14l-.09.27-.15.54-.27 1-.38 1.93v.23.22l-.06.44-.08.85v.21.2.41.8.77.74l.11 1.43v.08.25.31l.09.63.23 1.22v.08.07.15l.07.29.14.58.32 1.14v.07.08.14l.1.31.2.59.42 1.15v.07.07l.06.14.11.28.23.56.49 1.1v.06.06l.06.13.11.25.25.5.49 1v.06.06l.06.12.13.24.26.48.53 1v.06.06l.07.11.13.23.27.46.55.9 1.13 1.78.16.24.16.24.31.47.64.94 1.31 1.85v.06l.07.1.16.22.31.42.63.85 1.28 1.67.09.11.08.12.18.22.35.45.71.89 1.43 1.77.12.16.17.2.34.41.68.82 1.36 1.62 2.72 3.15 3 3.38 2.82 3.11 3.09 3.35 3.06 3.26 2.88 3 3.13 3.27 2.94 3 2.89 3 3.15 3.2 2.95 3 .1.11.1.1.21.21.41.42.82.83h.06l.15.15.21.21.41.42.05.05.11.1.2.21.1.11.11.1v.05h.05l.05.05v.06"/><path d="m69.15 151.43 1.22-1.24 3.3-3.32 1.53-1.56 1.47-1.49 2.75-2.8 1.29-1.32 1.23-1.27 2.33-2.43 1.09-1.13 1.06-1.1 2-2.09 3.58-3.75.82-.87.79-.85 1.5-1.62 2.71-3 .63-.7.61-.67 1.16-1.3 2.12-2.41.5-.56.48-.55.92-1.07 1.7-2 .39-.48.39-.46.74-.9 1.38-1.69.3-.38.3-.37.57-.72.99-1.33.25-.33.25-.32.48-.64.89-1.21.21-.29.21-.29.4-.56.76-1.08 1.34-2 .21-.28.15-.23.29-.46.55-.88 1-1.66.11-.19.11-.2.21-.38.4-.75.72-1.4.09-.18.09-.18.17-.36.32-.7.56-1.31.12-.32.12-.31.22-.6.4-1.16v-.14-.14l.09-.27.15-.54.27-1 .38-1.93v-.23-.22l.06-.44.08-.85v-.21-.2-.41-.8-.77-.74l-.11-1.43v-.08-.25-.31l-.09-.63-.23-1.22v-.08-.07-.15l-.07-.29-.14-.58-.32-1.14v-.07-.08-.14l-.1-.31-.2-.59-.42-1.15v-.07-.07l-.06-.14-.11-.28-.23-.56-.49-1.1v-.06-.06l-.06-.13-.11-.25-.25-.5-.49-1v-.06-.06l-.06-.12-.13-.24-.26-.48-.53-1v-.06-.06l-.07-.11-.13-.23-.27-.46-.55-.9-1.13-1.78-.16-.24-.16-.24-.31-.47-.64-.94-1.31-1.85v-.06l-.07-.1-.16-.22-.31-.42-.63-.85-1.28-1.67-.09-.11-.08-.12-.18-.22-.35-.45-.71-.89-1.43-1.77-.12-.16-.17-.2-.34-.41-.68-.82-1.36-1.62-2.72-3.15-3-3.38-3.26-3.13-3.09-3.35-3.06-3.26-2.88-3-3.13-3.27-2.94-3-2.89-3-3.15-3.2-3-3-.1-.11-.1-.1-.19-.23-.41-.42-.82-.83-.06-.05-.12-.18-.21-.21-.38-.39v-.05l-.11-.1-.33-.25-.1-.11-.11-.1v-.05-.06"/><g opacity=".5"><path d="m77.25 7.25 2.83 2.83"/><path d="m85.67 15.67 131.45 131.45" stroke-dasharray="7.91 7.91"/><path d="m219.92 149.92 2.83 2.83"/></g><g opacity=".5"><path d="m77.25 152.75 2.83-2.83"/><path d="m85.67 144.33 131.45-131.45" stroke-dasharray="7.91 7.91"/><path d="m219.92 10.08 2.83-2.83"/></g></g></svg>