<svg xmlns="http://www.w3.org/2000/svg" viewBox="0 0 300 160"><title>internal-angle</title><polygon points="169.5 9 83.3 21.6 52.6 101 131.4 151 202.4 132 247.4 54.4 169.5 9" fill="none" stroke="#000" stroke-miterlimit="10" stroke-width="2"/><path d="M219.3,102.8A33.9,33.9,0,0,0,168,131.9a33.7,33.7,0,0,0,1.2,9l33.2-8.9Z" fill-opacity="0.4" stroke="#000" stroke-miterlimit="10" stroke-width="2"/><path d="M131.4,151l33.3-8.9a33.9,33.9,0,0,0-61.5-9Z" fill-opacity="0.4" stroke="#000" stroke-miterlimit="10" stroke-width="2"/><path d="M65.1,68.6,52.6,101l28.2,17.9a33.6,33.6,0,0,0,5.7-18.8A34,34,0,0,0,65.1,68.6Z" fill-opacity="0.4" stroke="#000" stroke-miterlimit="10" stroke-width="2"/><path d="M71,53.3a33.2,33.2,0,0,0,12.3,2.3,33.9,33.9,0,0,0,33.9-33.9,40.5,40.5,0,0,0-.4-5L83.3,21.6Z" fill-opacity="0.4" stroke="#000" stroke-miterlimit="10" stroke-width="2"/><path d="M169.5,9l-32.9,4.8a33.9,33.9,0,0,0,62.7,12.5Z" fill-opacity="0.4" stroke="#000" stroke-miterlimit="10" stroke-width="2"/><path d="M218.2,37.4a34.3,34.3,0,0,0-4.7,17.2,33.9,33.9,0,0,0,16.9,29.3l17-29.5Z" fill-opacity="0.4" stroke="#000" stroke-miterlimit="10" stroke-width="2"/></svg>