<svg viewBox="0 0 300 160" xmlns="http://www.w3.org/2000/svg"><g stroke="#000" stroke-width="3"><path d="m169.49 9-86.22 12.57-30.71 79.44 78.88 49.99 71-19.02 45-77.58z" fill="none" stroke-linejoin="round"/><g fill-opacity=".4" stroke-miterlimit="10"><path d="m219.35 102.84a33.9 33.9 0 0 0 -50.13 38l33.23-8.9z"/><path d="m131.45 151 33.26-8.91a33.89 33.89 0 0 0 -61.51-9z"/><path d="m65.08 68.63-12.52 32.37 28.22 17.88a33.89 33.89 0 0 0 -15.7-50.26z"/><path d="m71 53.34a33.9 33.9 0 0 0 45.8-36.66l-33.53 4.89z"/><path d="m169.49 9-32.92 4.8a33.89 33.89 0 0 0 62.7 12.54z"/><path d="m218.23 37.39a33.89 33.89 0 0 0 12.13 46.46l17.08-29.45z"/></g></g></svg>