<svg viewBox="0 0 300 160" xmlns="http://www.w3.org/2000/svg"><path d="m197.73 35.83 4.79 2.77-.01-5.53 4.77-2.75-4.78-2.78-.01-5.53-4.78 2.76-4.78-2.77-.01-5.54 4.77-2.75-4.78-2.78-.01-5.53-4.78 2.76-4.78-2.78.01 5.54-4.78 2.75-4.79-2.77v-5.53l-4.78 2.76-.4-.23-4.39-2.55.01 5.53-4.77 2.76 4.78 2.77.01 5.54-4.77 2.75-4.79-2.77.01 5.53-4.78 2.76-4.78-2.78-.01-5.53-4.78 2.76-.94-.55-3.84-2.22-.01-5.54 4.77-2.75-4.78-2.78-.01-5.53-4.78 2.76-4.78-2.77.01 5.53-4.78 2.75-4.78-2.77-.01-5.53-4.78 2.76-4.79-2.78.01 5.53-4.77 2.76 4.78 2.78.01 5.53-4.77 2.75-4.79-2.77.01 5.53-4.77 2.76 4.78 2.77.01 5.53 4.78-2.75 4.78 2.77.01 5.53-4.77 2.76 4.78 2.77.01 5.53-4.78 2.76-4.78-2.77.01 5.53-4.78 2.76-4.78-2.78-.01-5.53-4.78 2.76-4.78-2.78v5.54l-4.77 2.75 4.79 2.78v5.53l-4.77 2.76-4.79-2.78.01 5.53-4.77 2.76 4.78 2.78.01 5.53 4.78-2.76 3.08 1.78 1.7.99.01 5.53-4.77 2.76 4.78 2.78.01 5.53 4.78-2.76 4.78 2.77-.01-5.53 4.78-2.75 4.78 2.77.01 5.53 4.78-2.76 4.79 2.78.01 5.53-4.78 2.76 4.78 2.77.01 5.53-4.77 2.76-4.79-2.78.01 5.54-4.77 2.75 4.78 2.78.01 5.53 4.78-2.76 4.78 2.77.01 5.27v.27l-4.77 2.75 4.78 2.78.01 5.53 4.78-2.76 4.78 2.78-.01-5.54 4.78-2.75 4.79 2.77v5.53l4.78-2.75 4.79 2.77-.01-5.53 4.77-2.76-4.78-2.77-.01-5.54 4.77-2.75 4.79 2.77-.01-5.53 4.78-2.76 4.78 2.78.01 5.53 4.78-2.76.94.55 3.84 2.22.01 5.53-4.77 2.76 4.78 2.78.01 5.53 4.78-2.76 4.78 2.77-.01-5.53 4.78-2.75 4.78 2.77.01 5.53 4.78-2.76 4.79 2.78-.01-5.53 4.77-2.76-4.78-2.77-.01-5.54 4.77-2.75 4.79 2.77-.01-5.53 4.78-2.76-4.79-2.77-.01-5.53-4.78 2.75-4.78-2.77-.01-5.53 4.78-2.76-4.79-2.77-.01-5.53 4.78-2.76 4.78 2.77-.01-5.53 4.78-2.76 4.78 2.78.01 5.53 4.78-2.76 4.78 2.78v-3.63-1.91l4.77-2.75-4.78-2.78-.01-5.53 4.77-2.76 4.79 2.78-.01-5.53 4.77-2.76-4.78-2.78-.01-5.53-4.78 2.76-4.78-2.77-.01-5.53 4.77-2.76-4.78-2.78v-.26l-.01-5.27-4.78 2.76-4.78-2.77.01 5.53-4.78 2.76-4.78-2.78-.01-5.53-4.78 2.76-1.65-.96-3.14-1.82v-3.62l-.01-1.91 4.78-2.76-4.78-2.77-.01-5.53z" opacity=".4"/></svg>