<svg viewBox="0 0 300 160" xmlns="http://www.w3.org/2000/svg"><path d="m41 16 .07.15.06.14.14.29.26.58.54 1.16 1.07 2.31 2.14 4.53 4.64 9.52 4.33 8.49 4.25 7.97 4.6 8.23 4.3 7.3 4.66 7.49 4.57 6.93 4.27 6.09 4.63 6.19 4.32 5.39 4.23 4.92 4.6 4.94 4.28 4.22 4.65 4.16 4.56 3.67 4.26 3.04 4.61 2.89.07.04.06.04.14.07.27.16.53.3 1.08.59 2.16 1.11.07.04.07.03.15.08.29.14.58.27 1.17.54.15.06.14.07.29.13.58.25 1.17.48.08.03.07.03.14.05.29.11.57.22 1.14.42.15.05.14.05.29.1.57.2 1.14.36.07.02.07.02.13.05.27.07.53.16 1.07.3.07.01.07.02.13.04.27.07.53.13 1.07.25.07.02.07.01.15.03.29.06.58.12.07.02.07.01.15.03.29.06.58.1.07.02.07.01.15.02.29.05.57.09 1.16.17.27.03.27.04.55.06.13.01.13.02.27.02.55.05.06.01h.07l.14.02.27.01.13.02.14.01.27.01.06.01h.07l.14.01.27.02h.07.06l.14.01.27.01.07.01h.06.13l.07.01h.07.13l.13.01h.14l.26.01h.07.2.06l.07.01h.06.07.07.06.14.06.47.06.2.07.06.07.07l.13-.01h.13l.6-.02h.06.14l.26-.01.07-.01.22-.01.29-.01h.07l.07-.01.14-.01.29-.01.07-.01h.08l.14-.01.29-.03.57-.04.07-.01h.08l.14-.02.29-.03.57-.06.15-.01.14-.02.29-.03.57-.08.07-.01.07-.01.13-.01.27-.04.54-.08.06-.01.07-.01.4-.07.54-.09.07-.01.07-.01.13-.03.27-.05.53-.1 1.08-.23.07-.01.07-.02.15-.03.29-.07.58-.13 1.16-.3.08-.02.07-.02.15-.04.29-.08.58-.16 1.16-.35.15-.05.14-.04.28-.1.57-.18 1.15-.4 2.28-.87.07-.03.2-.08.26-.11.54-.23 1.06-.46 2.13-1 .08-.04.07-.03.14-.07.29-.15.58-.29 1.15-.6 2.32-1.3 4.31-2.7 4.23-3 4.59-3.67 4.28-3.81 4.64-4.54 4.34-4.62 4.25-4.91 4.61-5.72 4.3-5.73 4.66-6.63 4.58-6.93 4.27-6.84 4.63-7.83 4.32-7.7 4.23-7.91 4.6-8.99 4.29-8.77.15-.32.15-.31.3-.63.6-1.26 1.2-2.54.07-.16.22-.48.3-.64.6-1.29.08-.16.07-.16.15-.33.3-.65.08-.16.07-.16.15-.33.08-.16.07-.16.15-.33" fill="none" stroke="#000" stroke-linecap="round" stroke-miterlimit="10" stroke-width="3"/><g opacity=".5"><path d="m150 20.71v132.29" fill="none" stroke="#000" stroke-linejoin="bevel" stroke-width="3"/><path d="m150 8-7.32 17.91 7.32-4.25 7.32 4.25z"/><path d="m271.29 135h-255.29" fill="none" stroke="#000" stroke-linejoin="bevel" stroke-width="3"/><path d="m284 135-17.91-7.32 4.25 7.32-4.25 7.32z"/></g></svg>