<svg height="160" viewBox="0 0 300 160" width="300" xmlns="http://www.w3.org/2000/svg"><g fill="none" stroke="#000" stroke-linecap="round" stroke-width="3"><path d="m219.5 127.25-35-23.25-76 5.81-39 20.76" stroke-dasharray="12" stroke-miterlimit="10"/><g stroke-linejoin="round"><path d="m69.5 37.57 52 19.93 80-5.81 18-17.44-35-23.25-76 5.81z"/><path d="m69.5 130.5v-93"/><path d="m121.5 150.5v-93"/><path d="m201.5 144.5v-93"/><path d="m219.5 34.5v93"/></g><path d="m184.5 11.5v92" stroke-dasharray="12" stroke-miterlimit="10"/><path d="m108.5 16.5v93" stroke-dasharray="12" stroke-miterlimit="10"/><path d="m69.5 130.57 52 19.93 80-5.81 18-17.44" stroke-linejoin="round"/></g><path d="m122 151-52-20v-93l52 20z" opacity=".2"/><path d="m122 151 80-6v-93l-80 6z" opacity=".05"/></svg>