<svg xmlns="http://www.w3.org/2000/svg" viewBox="0 0 300 160"><title>reflectional-symmetry</title><line x1="150" y1="7" x2="150" y2="154" fill="none" stroke="#000" stroke-miterlimit="10" stroke-width="2"/><g opacity="0.5"><path d="M59.1,9H63a36.6,36.6,0,0,1,8.5,2.7c5.4,2.6,10.8,5.2,16,8.3a140.3,140.3,0,0,1,26.3,20.2A133.6,133.6,0,0,1,142,80.3a68.2,68.2,0,0,0,3.9,6.4,7.3,7.3,0,0,1,.9-2.6,8.4,8.4,0,0,0,1.2-7.8,36.2,36.2,0,0,0-2-4.5,106.5,106.5,0,0,0-7.7-12c-2.8-4-2.8-8.1-.6-12.3a1.5,1.5,0,0,1,1.5-1,.6.6,0,0,1,.6.5,1.4,1.4,0,0,1-.8,1.3c-1.7,1.2-2,3-2.1,4.9a9.9,9.9,0,0,0,2.3,6.4c2.8,4.1,5.5,8.3,7.9,12.7s2.8,6.1,1.8,9.6c-.2.6-.2,1.3.4,1.6a1.1,1.1,0,0,0,1.3,0,1.4,1.4,0,0,0,.3-1.5c-.9-3.4,0-6.4,1.6-9.4a127.3,127.3,0,0,1,7.3-11.7,25.5,25.5,0,0,0,2.4-3.9c1.5-3.4,1-6.1-1.5-8.7-.5-.5-1.1-1.1-.4-1.7s1.3.1,1.6.6c1.7,3.3,2.8,6.6.9,10.2a34.3,34.3,0,0,1-3.5,5.5,79.9,79.9,0,0,0-6.8,11.6c-1.3,2.8-1.9,5.7-.1,8.6a26.8,26.8,0,0,1,1.7,3.4c1.4-2.5,3-4.6,4.2-7a128.3,128.3,0,0,1,17.6-28.2,138.1,138.1,0,0,1,36.5-31.2c7.7-4.6,15.4-9,24.2-11.1h3.9a11.8,11.8,0,0,1,4.6,3.3,14.2,14.2,0,0,1,3.6,9.8c0,2.9.3,5.8-1.1,8.6s-.7,3.8-1.8,5.5-2.8,4.2-2.9,6.9a2.1,2.1,0,0,1-.4,1c-1.4,2.5-2.3,5.2-3.6,7.7a5.5,5.5,0,0,0-.6,2.8,9.7,9.7,0,0,1-.5,3.4c-1.1,3.2-2,6.5-3.2,9.7-1.8,5.4-3.3,10.9-6.3,15.8s-5.3,7.5-9.9,9c-2.3.7-4.8,1.3-7.2,1.8-5.9,1.1-11.9,1.9-17.7,3.3-.5.1-1.2,0-1.2.6s.5.6.9.9a114.5,114.5,0,0,1,10.8,7.4,7.7,7.7,0,0,1,2.2,2.6c.9,2.2,2,4.4,2.9,6.5s.8,5.2.3,7.7-1.2,4-1.6,6.1a4.4,4.4,0,0,1-1.9,3c-1.1.7-2.2,1.6-2.2,2.9-.1,2.9-2.4,4.4-3.8,6.4l-.8.5c-2.2.3-3.2,1.9-4.2,3.6a6.6,6.6,0,0,1-4.9,3.3,14.6,14.6,0,0,0-4.6,1.5,7.2,7.2,0,0,1-6.7.5,4.8,4.8,0,0,0-2.4-.2c-2,.2-3.4-.8-4.6-2.3a8.7,8.7,0,0,0-3.2-2.2,10.4,10.4,0,0,1-3.8-2.8c-2.4-2.5-3.8-5.5-5.5-8.4s-5.4-7.4-6.7-11.9h-.3c0,.8.1,1.5.1,2.3a26.3,26.3,0,0,1-.8,7.4,1.6,1.6,0,0,1-3.1.1,9.4,9.4,0,0,1-.6-2.4,32.9,32.9,0,0,1-.2-7.7c-.8,1.5-1.2,3.2-2.1,4.6-3.1,4.5-5.8,9.3-8.7,13.9a11.4,11.4,0,0,1-5.8,5,8.9,8.9,0,0,0-3,2.2,5.1,5.1,0,0,1-4.5,2.2,8.5,8.5,0,0,0-3.5.5,5.1,5.1,0,0,1-4.5-.3,16.4,16.4,0,0,0-6-2,6.5,6.5,0,0,1-4.3-2.9c-.5-.7-.9-1.4-1.5-2.1a3.9,3.9,0,0,0-2.1-1.7c-2.8-.9-4.3-3.2-5.1-5.8s-1.1-3.3-2.7-4.4a3.4,3.4,0,0,1-1.7-2.6,26.1,26.1,0,0,0-1.2-5,11.7,11.7,0,0,1-.6-7.1,32.6,32.6,0,0,1,4.2-9.8,3.6,3.6,0,0,1,1.1-1c2.9-2.3,6-4.4,9.1-6.5a10.4,10.4,0,0,0,3.1-2.2,24.6,24.6,0,0,0-4.5-1.1c-6.6-1.4-13.2-2.2-19.8-3.8s-9.2-4.9-12.1-9.6a64.9,64.9,0,0,1-5.7-14.2c-1.6-5.1-4.1-10.1-4.2-15.7a2,2,0,0,0-.3-1.1c-1.3-2.6-2.2-5.4-3.7-7.9a6.3,6.3,0,0,1-1-2.9,5.4,5.4,0,0,0-1.3-3.5c-2.4-3.2-2.8-7.1-4-10.7-.6-1.9-.1-3.8-.1-5.7C51.2,15.9,54.1,11.8,59.1,9Z"/></g></svg>