<svg viewBox="0 0 300 160" xmlns="http://www.w3.org/2000/svg"><path d="m150 7v147" fill="none" stroke="#000" stroke-linecap="round" stroke-miterlimit="10" stroke-width="3"/><path d="m59.09 9h3.91a37.82 37.82 0 0 1 8.5 2.67c5.37 2.68 10.76 5.28 16 8.36a143.36 143.36 0 0 1 26.4 20.21 133.44 133.44 0 0 1 28.1 40.07 67.35 67.35 0 0 0 3.83 6.41 6.3 6.3 0 0 1 1-2.57 8.52 8.52 0 0 0 1.17-7.88 24.19 24.19 0 0 0 -2-4.43 106 106 0 0 0 -7.64-12.08c-2.86-4-2.86-8-.64-12.22a1.65 1.65 0 0 1 1.5-1.06.54.54 0 0 1 .56.49 1.43 1.43 0 0 1 -.73 1.36c-1.7 1.2-2.06 2.93-2.14 4.84a10.33 10.33 0 0 0 2.28 6.47 129.64 129.64 0 0 1 7.92 12.67c1.66 3 2.8 6.11 1.82 9.63a1.27 1.27 0 0 0 .42 1.6 1.12 1.12 0 0 0 1.24-.07 1.28 1.28 0 0 0 .35-1.48c-.89-3.37 0-6.42 1.64-9.36a114.48 114.48 0 0 1 7.25-11.75 21.56 21.56 0 0 0 2.32-3.88c1.5-3.41 1-6.1-1.47-8.72-.44-.47-1.06-1.07-.38-1.65s1.31 0 1.6.6c1.66 3.27 2.82 6.59.88 10.21a49.6 49.6 0 0 1 -3.47 5.48 77.38 77.38 0 0 0 -6.81 11.63c-1.32 2.76-1.85 5.69-.15 8.56a22.45 22.45 0 0 1 1.7 3.37 79.7 79.7 0 0 0 4.2-7 134.18 134.18 0 0 1 17.64-28.17 137.58 137.58 0 0 1 36.5-31.2c7.68-4.6 15.44-9 24.25-11.09h3.9a11.31 11.31 0 0 1 4.53 3.33 14.09 14.09 0 0 1 3.67 9.8c0 2.89.24 5.73-1.11 8.58-.79 1.65-.76 3.77-1.81 5.47-1.33 2.15-2.85 4.21-2.89 6.91a2.42 2.42 0 0 1 -.42 1c-1.41 2.45-2.34 5.12-3.57 7.65a5.44 5.44 0 0 0 -.66 2.81 9.11 9.11 0 0 1 -.52 3.35c-1 3.25-2 6.53-3.11 9.75-1.87 5.37-3.38 10.9-6.31 15.83-2.36 4-5.32 7.43-9.91 8.93a61.91 61.91 0 0 1 -7.25 1.8c-5.9 1.15-11.87 1.93-17.72 3.32-.43.1-1.13 0-1.17.64 0 .42.55.62.92.85a117.5 117.5 0 0 1 10.79 7.5 6.89 6.89 0 0 1 2.14 2.6c1 2.17 2 4.32 3 6.51 1.07 2.49.74 5.19.23 7.62-.43 2-1.13 4-1.55 6.1a4.34 4.34 0 0 1 -1.94 3c-1.08.69-2.15 1.63-2.18 2.9-.08 2.91-2.37 4.37-3.81 6.39a1.38 1.38 0 0 1 -.8.51c-2.13.34-3.16 1.93-4.16 3.57a6.63 6.63 0 0 1 -4.89 3.39 12.7 12.7 0 0 0 -4.63 1.44 7.12 7.12 0 0 1 -6.67.55 5.05 5.05 0 0 0 -2.41-.25 5.31 5.31 0 0 1 -4.63-2.24 7.61 7.61 0 0 0 -3.14-2.21 11.15 11.15 0 0 1 -3.9-2.83c-2.33-2.48-3.77-5.54-5.44-8.44-2.27-3.93-5.39-7.37-6.71-11.83 0 0-.17 0-.34 0 .05.75.13 1.5.14 2.25a24.86 24.86 0 0 1 -.82 7.39 1.63 1.63 0 0 1 -1.51 1.28 1.59 1.59 0 0 1 -1.58-1.18 8.41 8.41 0 0 1 -.61-2.34 33.55 33.55 0 0 1 -.18-7.76c-.82 1.54-1.16 3.23-2.12 4.62-3.1 4.52-5.76 9.31-8.67 13.94a11.79 11.79 0 0 1 -5.79 5 7.16 7.16 0 0 0 -3 2.17 5.16 5.16 0 0 1 -4.49 2.17 7.79 7.79 0 0 0 -3.51.55 5.23 5.23 0 0 1 -4.53-.36 17.23 17.23 0 0 0 -6-2 6.14 6.14 0 0 1 -4.34-2.86c-.5-.71-.93-1.46-1.45-2.15a4.41 4.41 0 0 0 -2.13-1.66c-2.79-.94-4.3-3.24-5.13-5.78-.58-1.78-1.1-3.37-2.73-4.39a3.67 3.67 0 0 1 -1.68-2.64 24.86 24.86 0 0 0 -1.2-5 12.1 12.1 0 0 1 -.59-7.1c.69-3.5 2.44-6.67 4.24-9.76a4.21 4.21 0 0 1 1.07-1 107.79 107.79 0 0 1 9.13-6.49 13.84 13.84 0 0 0 3.15-2.22 28.87 28.87 0 0 0 -4.54-1.16c-6.57-1.37-13.24-2.18-19.79-3.76-5.62-1.36-9.25-5-12.06-9.63-2.65-4.4-4.2-9.29-5.7-14.14-1.61-5.19-4.16-10.16-4.2-15.78a2.47 2.47 0 0 0 -.36-1.07c-1.34-2.59-2.21-5.41-3.7-8a5.92 5.92 0 0 1 -1-2.9 5.56 5.56 0 0 0 -1.29-3.42c-2.42-3.19-2.86-7.12-4-10.78-.6-1.85 0-3.76 0-5.65-.02-5.82 2.86-9.92 7.89-12.71z" opacity=".5"/></svg>