<svg viewBox="0 0 300 160" xmlns="http://www.w3.org/2000/svg"><path d="m194.14 8-8.65-.08-12.17 19.52-7.32-12.6-6.21.07-2.79 5.17 11.34 19.64-8.46 13.1-7.88-13.49-8.08 13.67-7.28-12.61 12.93-19.58-3.57-6.14-8.48.21-8.16 12.92-11-19-8.23-.8-3.5 7.49 11 19.05-13.82-.23-3.12 6.1 3.89 6.75h20.32l7.28 12.61-15.74.49 7.61 13.19h-14.86l-10.36-18.64-7.89-.13-2.37 6.06 6.94 12-22.42.44-5.17 7.29 4.4 7.62 22-.56-7.32 12.47 3.9 6.74 7.84-.62 10.26-18.12 14.41-.11-7 13h14.86l.3-.17-7.13 12.71-21.24-.24-4.42 7.24 4.06 7 14.19-1.15-11.42 19.49 4.4 7.62 9-1.3 11.3-19 6.94 12 6 .86 2.95-6.4-10.49-18.17 8.47-13.1 7.61 13.19 7.79-14.26 7.28 12.6-10.17 17.6 3.89 6.74 6.85.35 6.7-12.08 11 19 8.23.72 3.49-7.49-11-19.05 13.82.23 3.46-5.52-4.24-7.33h-20.28l-7.27-12.6 15.91-.2-7.11-12.18 15.74-.49 10.49 18.17 6.56.52 2.53-5.76-6.94-12 21.67-.44 5.81-7.6-4.24-7.33-21.41-.53 6.75-11.33-3.72-6.45-7.6-.3-11 18.1-14.82.74 7.42-12.88-14.45-.65 6.79-13.3 21.54.08 3.74-6.15-3.89-6.74-13.94.23 11.03-18.89zm-31.27 77.85-10.55 6.09-10.65-5.58-.14-12.42 10.56-6.1 10.4 6.51z" opacity=".5"/></svg>