<svg xmlns="http://www.w3.org/2000/svg" viewBox="0 0 300 160"><title>Artboard 22</title><g opacity="0.5"><path d="M194.1,8h-8.6L173.3,27.4,166,14.8h-6.2L157,20.1l11.3,19.6-8.5,13.1L152,39.3,143.9,53l-7.3-12.6,13-19.6L146,14.7l-8.5.2-8.1,12.9-11-19L110.1,8l-3.5,7.5,11,19.1-13.8-.3-3.1,6.1,3.9,6.8h20.3l7.3,12.6-15.8.5,7.7,13.2H109.2L98.8,54.8H90.9l-2.3,6,6.9,12.1-22.4.4-5.2,7.3,4.4,7.6,22-.6L87,100l3.9,6.7,7.8-.6L109,88h14.4l-6.9,13h15.1l-7.1,12.7-21.3-.3-4.4,7.3,4.1,7,14.2-1.1-11.4,19.4,4.4,7.7,9-1.3,11.3-19.1,6.9,12.1,6,.8,2.9-6.4-10.5-18.2,8.5-13,7.6,13.1,7.8-14.2,7.3,12.6-10.2,17.6,3.9,6.7,6.9.4,6.7-12.1,11,19,8.2.8,3.5-7.5-11-19.1,13.8.2,3.5-5.5-4.3-7.3H178.6l-7.3-12.6,15.9-.2L180.1,88l15.8-.5,10.5,18.2,6.5.5,2.6-5.8-7-12,21.7-.4,5.7-7.6-4.2-7.3-21.4-.6,6.8-11.3-3.8-6.4-7.6-.3-11,18.1-14.8.7,7.4-12.9-14.5-.6,6.8-13.3h21.6l3.8-6.1-3.9-6.7-13.9.2,11-18.9ZM162.9,85.8l-10.6,6.1-10.6-5.5-.2-12.5,10.6-6.1,10.4,6.5Z"/></g></svg>