<svg xmlns="http://www.w3.org/2000/svg" viewBox="0 0 300 160"><polygon points="144.41 70.31 138.87 79.91 133.34 70.35 127.77 80 150 80 144.41 70.31" fill-opacity=".4" fill-rule="evenodd"/><polygon points="166.65 51.17 161.11 60.75 172.18 60.75 166.65 51.17" fill-opacity=".4" fill-rule="evenodd"/><polygon points="144.39 70.28 138.89 60.75 133.38 70.28 144.39 70.28" fill-opacity=".4" fill-rule="evenodd"/><polygon points="116.67 118.5 111.12 108.89 122.22 108.89 116.66 99.25 105.54 118.5 116.67 118.5" fill-opacity=".4" fill-rule="evenodd"/><polygon points="188.87 108.82 183.34 99.25 177.82 108.82 188.87 108.82" fill-opacity=".4" fill-rule="evenodd"/><polygon points="166.68 70.4 161.15 79.98 155.59 70.36 166.66 70.36 161.11 60.75 150 80 172.23 80 166.68 70.4" fill-opacity=".4" fill-rule="evenodd"/><polygon points="144.39 12.72 138.89 22.25 149.89 22.25 144.39 12.72" fill-opacity=".4" fill-rule="evenodd"/><polygon points="177.75 51.15 172.21 60.75 183.34 60.75 177.82 70.32 188.87 70.32 172.23 41.5 166.66 51.15 177.75 51.15" fill-opacity=".4" fill-rule="evenodd"/><polygon points="161.11 22.25 155.56 31.86 166.65 31.86 161.1 41.49 155.55 31.89 150 41.5 172.23 41.5 161.11 22.25" fill-opacity=".4" fill-rule="evenodd"/><polygon points="133.34 31.91 144.46 31.91 138.92 41.5 150 41.5 138.89 22.25 127.77 41.5 138.88 41.5 133.34 31.91" fill-opacity=".4" fill-rule="evenodd"/><polygon points="83.32 118.5 105.54 118.5 94.43 99.25 116.66 99.25 105.54 80 127.77 80 116.66 60.75 138.89 60.75 133.31 51.1 127.76 60.71 122.22 51.11 111.11 70.36 122.17 70.36 116.61 79.99 111.08 70.41 100 89.61 111.08 89.61 105.53 99.23 99.98 89.63 88.88 108.86 99.96 108.86 94.41 118.49 88.87 108.89 77.76 128.13 88.83 128.13 83.28 137.75 94.43 137.75 83.32 118.5" fill-opacity=".4" fill-rule="evenodd"/><polygon points="127.77 41.5 122.24 51.08 133.31 51.08 127.77 41.5" fill-opacity=".4" fill-rule="evenodd"/><polygon points="144.42 12.67 155.47 12.67 149.94 22.25 161.11 22.25 150 3 144.42 12.67" fill-opacity=".4" fill-rule="evenodd"/><polygon points="127.79 137.73 122.23 128.11 133.32 128.11 122.23 108.89 116.68 118.5 127.77 118.5 105.54 157 116.64 157 111.11 147.41 122.22 147.41 116.69 157 127.77 157 116.66 137.75 138.89 137.75 127.77 157 138.87 157 133.34 147.41 144.45 147.41 138.91 157 150 157 133.33 128.13 127.79 137.73" fill-opacity=".4" fill-rule="evenodd"/><polygon points="194.46 118.5 188.87 108.83 183.32 118.44 177.79 108.86 166.68 128.12 177.77 128.12 172.21 137.74 166.67 128.13 161.11 137.75 183.34 137.75 172.23 157 183.32 157 177.79 147.41 188.91 147.41 183.37 157 194.46 157 172.23 118.5 194.46 118.5" fill-opacity=".4" fill-rule="evenodd"/><polygon points="238.91 157 211.14 108.89 205.62 118.45 200.06 108.83 211.1 108.83 188.87 70.33 183.32 79.94 177.79 70.37 172.23 80 194.46 80 188.93 89.58 199.98 89.58 194.42 99.2 188.89 89.63 183.34 99.25 205.57 99.25 194.46 118.5 216.68 118.5 205.57 137.75 216.66 137.75 211.13 128.16 222.24 128.16 216.7 137.75 227.8 137.75 216.68 157 227.78 157 222.25 147.41 233.36 147.41 227.83 157 238.91 157" fill-opacity=".4" fill-rule="evenodd"/><polygon points="194.46 157 205.55 157 200.02 147.41 211.13 147.41 205.6 157 216.68 157 205.57 137.75 194.46 157" fill-opacity=".4" fill-rule="evenodd"/><polygon points="150 157 161.1 157 155.56 147.41 166.68 147.41 161.14 157 172.23 157 161.11 137.75 150 157" fill-opacity=".4" fill-rule="evenodd"/><polygon points="83.28 137.75 77.74 128.16 61.09 157 72.19 157 66.65 147.41 77.77 147.41 72.23 157 83.32 157 72.2 137.75 83.28 137.75" fill-opacity=".4" fill-rule="evenodd"/><polygon points="83.32 157 94.41 157 88.88 147.41 99.99 147.41 94.46 157 105.54 157 94.43 137.75 83.32 157" fill-opacity=".4" fill-rule="evenodd"/></svg>