<svg viewBox="0 0 300 160" xmlns="http://www.w3.org/2000/svg"><path d="m71.39 115.6-29.38 15.45 5.61-32.73-23.78-23.17 32.86-4.78 14.69-29.77 14.7 29.77 32.86 4.78-23.78 23.17 5.61 32.73z" fill-opacity=".4" stroke="#000" stroke-linejoin="round" stroke-width="3"/><path d="m218.39 92.6-29.39 15.45 5.62-32.73-23.78-23.17 32.86-4.78 14.69-29.77 14.7 29.77 32.86 4.78-23.78 23.17 5.61 32.73z" fill="none" stroke="#000" stroke-linecap="round" stroke-linejoin="round" stroke-width="3"/><g opacity=".5"><path d="m71.5 40.5 134.44-21.04" fill="none" stroke="#000" stroke-linejoin="bevel" stroke-width="3"/><path d="m218.5 17.5-16.56 10 3.06-7.89-5.32-6.57z"/></g><g opacity=".5"><path d="m100.5 131.5 134.44-21.04" fill="none" stroke="#000" stroke-linejoin="bevel" stroke-width="3"/><path d="m247.5 108.5-16.56 10 3.06-7.89-5.32-6.57z"/></g><g opacity=".5"><path d="m118.5 75.5 134.44-21.04" fill="none" stroke="#000" stroke-linejoin="bevel" stroke-width="3"/><path d="m265.5 52.5-16.56 10 3.06-7.89-5.32-6.57z"/></g></svg>