<svg viewBox="0 0 300 160" xmlns="http://www.w3.org/2000/svg"><g fill-opacity=".4" stroke="#000" stroke-linejoin="bevel" stroke-width="2"><circle cx="284.55" cy="114.82" r="11.18"/><circle cx="258.47" cy="114.82" r="11.18"/><circle cx="232.39" cy="114.82" r="11.18"/><circle cx="206.31" cy="114.82" r="11.18"/><circle cx="271.51" cy="90.61" r="11.18"/><circle cx="245.43" cy="90.61" r="11.18"/><circle cx="219.35" cy="90.61" r="11.18"/><circle cx="258.47" cy="66.39" r="11.18"/><circle cx="232.39" cy="66.39" r="11.18"/><circle cx="245.43" cy="42.18" r="11.18"/><circle cx="170.92" cy="90.61" r="11.18"/><circle cx="144.84" cy="90.61" r="11.18"/><circle cx="118.76" cy="90.61" r="11.18"/><circle cx="157.88" cy="66.39" r="11.18"/><circle cx="131.8" cy="66.39" r="11.18"/><circle cx="144.84" cy="42.18" r="11.18"/><circle cx="81.51" cy="66.39" r="11.18"/><circle cx="55.43" cy="66.39" r="11.18"/><circle cx="68.47" cy="42.18" r="11.18"/><circle cx="18.18" cy="42.18" r="11.18"/></g></svg>